<svg xmlns="http://www.w3.org/2000/svg" xmlns:xlink="http://www.w3.org/1999/xlink" viewBox="0 0 20 20.22"><defs><style>.cls-1{fill:none;}.cls-2,.cls-5{fill:#1cbc00;}.cls-2{clip-rule:evenodd;}.cls-3{clip-path:url(#clip-path);}.cls-4{isolation:isolate;}.cls-5{fill-rule:evenodd;}.cls-6{clip-path:url(#clip-path-2);}</style><clipPath id="clip-path" transform="translate(0 -0.49)"><rect class="cls-1" y="0.49" width="20" height="20.22"/></clipPath><clipPath id="clip-path-2" transform="translate(0 -0.49)"><path class="cls-2" d="M10,.49a10.11,10.11,0,0,1,0,20.22A10.11,10.11,0,0,1,10,.49m0,3.79c-1.7,0-1.91,0-2.58,0a4.39,4.39,0,0,0-1.51.29A3.21,3.21,0,0,0,4.08,6.46,4.51,4.51,0,0,0,3.79,8c0,.68,0,.89,0,2.61s0,1.93,0,2.61a4.51,4.51,0,0,0,.29,1.53,3.11,3.11,0,0,0,.72,1.12,3,3,0,0,0,1.11.73,4.64,4.64,0,0,0,1.51.29c.67,0,.88,0,2.58,0s1.91,0,2.58,0a4.64,4.64,0,0,0,1.51-.29,3,3,0,0,0,1.11-.73,3.11,3.11,0,0,0,.72-1.12,4.51,4.51,0,0,0,.29-1.53c0-.68,0-.89,0-2.61s0-1.93,0-2.61a4.51,4.51,0,0,0-.29-1.53,3.21,3.21,0,0,0-1.83-1.85,4.39,4.39,0,0,0-1.51-.29c-.67,0-.88,0-2.58,0m0,1.14c1.67,0,1.87,0,2.53,0a3.63,3.63,0,0,1,1.16.22,1.94,1.94,0,0,1,.72.48,2,2,0,0,1,.46.72,3.51,3.51,0,0,1,.22,1.18c0,.66,0,.86,0,2.55s0,1.89,0,2.55a3.51,3.51,0,0,1-.22,1.18,2,2,0,0,1-.46.72,2.07,2.07,0,0,1-.72.48,3.71,3.71,0,0,1-1.16.21c-.66,0-.86,0-2.53,0s-1.87,0-2.53,0a3.71,3.71,0,0,1-1.16-.21,2.07,2.07,0,0,1-.72-.48,2,2,0,0,1-.46-.72,3.51,3.51,0,0,1-.22-1.18c0-.66,0-.86,0-2.55s0-1.89,0-2.55a3.51,3.51,0,0,1,.22-1.18,2,2,0,0,1,.46-.72,1.94,1.94,0,0,1,.72-.48,3.63,3.63,0,0,1,1.16-.22c.66,0,.86,0,2.53,0m0,1.93a3.25,3.25,0,1,0,3.21,3.25A3.24,3.24,0,0,0,10,7.35m0,5.36a2.11,2.11,0,1,1,2.08-2.11A2.1,2.1,0,0,1,10,12.71m4.09-5.48a.75.75,0,1,1-.75-.76.76.76,0,0,1,.75.76"/></clipPath></defs><title>instagram</title><g id="Layer_2" data-name="Layer 2"><g id="Layer_1-2" data-name="Layer 1"><g class="cls-3"><g class="cls-4"><path class="cls-5" d="M10,.49a10.11,10.11,0,0,1,0,20.22A10.11,10.11,0,0,1,10,.49m0,3.79c-1.7,0-1.91,0-2.58,0a4.39,4.39,0,0,0-1.51.29A3.21,3.21,0,0,0,4.08,6.46,4.51,4.51,0,0,0,3.79,8c0,.68,0,.89,0,2.61s0,1.93,0,2.61a4.51,4.51,0,0,0,.29,1.53,3.11,3.11,0,0,0,.72,1.12,3,3,0,0,0,1.11.73,4.64,4.64,0,0,0,1.51.29c.67,0,.88,0,2.58,0s1.91,0,2.58,0a4.64,4.64,0,0,0,1.51-.29,3,3,0,0,0,1.11-.73,3.11,3.11,0,0,0,.72-1.12,4.51,4.51,0,0,0,.29-1.53c0-.68,0-.89,0-2.61s0-1.93,0-2.61a4.51,4.51,0,0,0-.29-1.53,3.21,3.21,0,0,0-1.83-1.85,4.39,4.39,0,0,0-1.51-.29c-.67,0-.88,0-2.58,0m0,1.14c1.67,0,1.87,0,2.53,0a3.63,3.63,0,0,1,1.16.22,1.94,1.94,0,0,1,.72.48,2,2,0,0,1,.46.72,3.51,3.51,0,0,1,.22,1.18c0,.66,0,.86,0,2.55s0,1.89,0,2.55a3.51,3.51,0,0,1-.22,1.18,2,2,0,0,1-.46.72,2.07,2.07,0,0,1-.72.48,3.71,3.71,0,0,1-1.16.21c-.66,0-.86,0-2.53,0s-1.87,0-2.53,0a3.71,3.71,0,0,1-1.16-.21,2.07,2.07,0,0,1-.72-.48,2,2,0,0,1-.46-.72,3.51,3.51,0,0,1-.22-1.18c0-.66,0-.86,0-2.55s0-1.89,0-2.55a3.51,3.51,0,0,1,.22-1.18,2,2,0,0,1,.46-.72,1.94,1.94,0,0,1,.72-.48,3.63,3.63,0,0,1,1.16-.22c.66,0,.86,0,2.53,0m0,1.93a3.25,3.25,0,1,0,3.21,3.25A3.24,3.24,0,0,0,10,7.35m0,5.36a2.11,2.11,0,1,1,2.08-2.11A2.1,2.1,0,0,1,10,12.71m4.09-5.48a.75.75,0,1,1-.75-.76.76.76,0,0,1,.75.76" transform="translate(0 -0.49)"/></g></g></g></g></svg>