<svg xmlns="http://www.w3.org/2000/svg" viewBox="0 0 20 20"><defs><style>.cls-1{fill:#c63434;fill-rule:evenodd;}</style></defs><title>youtube</title><g id="Layer_2" data-name="Layer 2"><g id="Layer_1-2" data-name="Layer 1"><path class="cls-1" d="M10,0A10,10,0,1,0,20,10,10,10,0,0,0,10,0Zm5.9,13.17a1.6,1.6,0,0,1-1.09,1.17,35.07,35.07,0,0,1-4.81.27,35.07,35.07,0,0,1-4.81-.27A1.6,1.6,0,0,1,4.1,13.17,18.78,18.78,0,0,1,3.85,10,18.78,18.78,0,0,1,4.1,6.83,1.6,1.6,0,0,1,5.19,5.66,35.07,35.07,0,0,1,10,5.39a35.07,35.07,0,0,1,4.81.27A1.6,1.6,0,0,1,15.9,6.83,18.78,18.78,0,0,1,16.15,10,18.78,18.78,0,0,1,15.9,13.17Z"/><polygon class="cls-1" points="8.46 11.92 11.54 10 8.46 8.08 8.46 11.92"/></g></g></svg>