<svg version="1.1" id="Layer_1" xmlns="http://www.w3.org/2000/svg" xmlns:xlink="http://www.w3.org/1999/xlink" x="0px" y="0px"
	 viewBox="0 0 90 90" style="enable-background:new 0 0 90 90;" xml:space="preserve">
<g>
	<path fill="#A38244" d="M59.28,20.02c-0.73-0.92-2.07-1.08-2.99-0.35L38.08,34.06l-5.07-6.53c-0.72-0.93-2.06-1.1-2.98-0.38
		c-0.93,0.72-1.1,2.06-0.38,2.98l6.39,8.23c0.35,0.45,0.86,0.74,1.42,0.81c0.09,0.01,0.17,0.02,0.26,0.02
		c0.48,0,0.94-0.16,1.32-0.46L58.93,23C59.85,22.28,60.01,20.94,59.28,20.02z"/>
	<path fill="#A38244" d="M73.98,29.19c0-15.98-13-28.98-28.98-28.98s-28.98,13-28.98,28.98c0,9.41,4.52,18.12,12.14,23.57L23.59,85.4
		c-0.12,0.87,0.3,1.73,1.07,2.15c0.77,0.43,1.72,0.34,2.39-0.22l6.28-5.23l4.6,6.76c0.4,0.59,1.06,0.93,1.76,0.93
		c0.16,0,0.32-0.02,0.48-0.06c0.86-0.2,1.5-0.91,1.62-1.78l3.42-24.4l3.42,24.4c0.12,0.87,0.77,1.58,1.62,1.78
		c0.16,0.04,0.32,0.06,0.48,0.06c0.69,0,1.36-0.34,1.76-0.93l4.6-6.76l6.28,5.23c0.67,0.56,1.63,0.65,2.39,0.22
		c0.77-0.43,1.19-1.28,1.07-2.15l-4.62-32.93C69.61,47.01,73.98,38.41,73.98,29.19z M38.35,81.91l-2.82-4.14
		c-0.34-0.5-0.87-0.83-1.46-0.91c-0.1-0.01-0.2-0.02-0.29-0.02c-0.49,0-0.98,0.17-1.36,0.49l-3.85,3.21l3.56-25.39
		c3,1.49,6.25,2.45,9.59,2.83L38.35,81.91z M46.22,53.89C46.22,53.89,46.21,53.89,46.22,53.89c-0.62,0.03-1.24,0.04-1.85,0.02
		L44.2,53.9l0,0l0,0c-4.48-0.14-8.84-1.5-12.59-3.93l0,0c-7.09-4.59-11.32-12.35-11.32-20.78C20.27,15.56,31.37,4.47,45,4.47
		S69.73,15.56,69.73,29.2c0,8.25-4.09,15.93-10.95,20.54C55.05,52.23,50.71,53.67,46.22,53.89z M58.03,77.33
		c-0.46-0.38-1.06-0.55-1.66-0.47c-0.59,0.08-1.12,0.41-1.46,0.91l-2.82,4.14l-3.36-23.98c3.34-0.43,6.58-1.44,9.57-2.99l3.59,25.59
		L58.03,77.33z"/>
</g>
</svg>
