<?xml version="1.0" encoding="utf-8"?>
<!-- Generator: Adobe Illustrator 25.0.1, SVG Export Plug-In . SVG Version: 6.00 Build 0)  -->
<svg version="1.1" id="Layer_1" xmlns="http://www.w3.org/2000/svg" xmlns:xlink="http://www.w3.org/1999/xlink" x="0px" y="0px"
	 viewBox="0 0 90 90" style="enable-background:new 0 0 90 90;" xml:space="preserve">
<style type="text/css">
	.st0piece{fill:none;}
	.st1piece{fill:#A38244;}
</style>
<g>
	<path class="st0piece" d="M56.53,52.46h19.2c3.21,0,5.81-2.61,5.81-5.81V40.5H50.53v6.15c0,3.2,2.61,5.81,5.81,5.81
		C56.34,52.46,56.53,52.46,56.53,52.46z"/>
	<rect x="58.65" y="56.71" class="st0piece" width="15.03" height="20.13"/>
	<rect x="28.92" y="48.6" class="st0piece" width="2.58" height="1.35"/>
	<path class="st0piece" d="M25.56,44.35c0.35-0.25,0.77-0.4,1.23-0.4h6.84c0.46,0,0.89,0.15,1.23,0.4h0.03V37.7h-9.36v6.65
		C25.53,44.35,25.56,44.35,25.56,44.35z"/>
	<path class="st0piece" d="M75.83,81.09H75.8H56.76c-1.44,0-2.67,0.89-3.18,2.16h25.43C78.51,81.99,77.28,81.09,75.83,81.09z"/>
	<path class="st0piece" d="M24.62,76.35l-3.92,0.3c-1.17,0.1-2.19-0.78-2.28-1.95s0.78-2.19,1.95-2.28l5.75-0.45c0.08-0.01,0.16,0,0.24,0
		c0.03,0,0.06,0,0.09,0c0.01,0,0.02,0,0.05,0h0.01c0.76,0.04,8.64,0.41,12.23-3.53H11.32v14.8h14.86L24.62,76.35z"/>
	<path class="st0piece" d="M11.32,61.1v3.09h30.35c0.26-0.2,0.48-0.46,0.51-0.68s-0.1-0.63-0.54-1.19H15.83c-1.02,0-1.89-0.72-2.09-1.72
		L8.28,32.64H6.21l5.08,28.08C11.3,60.85,11.32,60.98,11.32,61.1z"/>
	<path class="st1piece" d="M87.52,83.25H83.4c-0.49-2.94-2.65-5.31-5.47-6.11V56.46c4.49-1.01,7.86-5.02,7.86-9.81v-8.28
		c0-1.17-0.95-2.13-2.13-2.13H64.3v-0.96c0-1.17-0.95-2.13-2.13-2.13s-2.13,0.95-2.13,2.13v0.96h-1.4V25.75c0-1.1,0.9-2,2-2
		c1.1,0,2,0.9,2,2c0,1.17,0.95,2.13,2.13,2.13s2.13-0.95,2.13-2.13c0-3.45-2.8-6.25-6.25-6.25c-3.45,0-6.25,2.8-6.25,6.25v10.49h-6
		c-1.17,0-2.13,0.95-2.13,2.13v8.28c0,4.89,3.5,8.97,8.13,9.87v20.7c-2.69,0.87-4.73,3.19-5.21,6.03H30.54l-1.59-7.02
		c4.39-0.18,12.56-1.51,15.08-8.5c1.31-0.93,2.16-2.23,2.36-3.63c0.23-1.68-0.41-3.36-1.92-5.01c-0.59-0.65-1.44-1.02-2.32-1.02
		H17.58l-5.47-27.96c-0.2-1-1.07-1.72-2.09-1.72H3.66c-0.63,0-1.23,0.28-1.63,0.76c-0.4,0.48-0.57,1.12-0.46,1.74l5.49,30.4v21.95
		H2.55c-1.17,0-2.13,0.95-2.13,2.13s0.95,2.13,2.13,2.13h84.98c1.17,0,2.13-0.95,2.13-2.13S88.7,83.25,87.52,83.25z M6.21,32.64
		h2.07l5.47,27.96c0.2,1,1.07,1.72,2.09,1.72h25.81c0.43,0.56,0.57,0.97,0.54,1.19c-0.03,0.22-0.25,0.48-0.51,0.68H11.32V61.1
		c0-0.13-0.01-0.25-0.03-0.38L6.21,32.64z M26.51,71.98H26.5c-0.02,0-0.04,0-0.05,0c-0.03,0-0.06,0-0.09,0c-0.08,0-0.16-0.01-0.24,0
		l-5.75,0.45c-1.17,0.09-2.05,1.11-1.95,2.28c0.1,1.17,1.11,2.05,2.28,1.95l3.92-0.3l1.56,6.89H11.32v-14.8h27.42
		C35.16,72.39,27.27,72.02,26.51,71.98z M50.53,46.65V40.5h31.02v6.15c0,3.2-2.61,5.81-5.81,5.81h-19.2h-0.19
		C53.13,52.46,50.53,49.85,50.53,46.65z M73.68,56.71v20.13H58.65V56.71H73.68z M53.58,83.25c0.51-1.26,1.74-2.16,3.18-2.16H75.8
		h0.03c1.44,0,2.67,0.89,3.18,2.16H53.58z"/>
	<path class="st1piece" d="M45.25,29.54h5.4c1.17,0,2.13-0.95,2.13-2.13s-0.95-2.13-2.13-2.13h-3.27V4.75h37.41v20.54H70.17
		c-1.17,0-2.13,0.95-2.13,2.13s0.95,2.13,2.13,2.13h16.74c1.17,0,2.13-0.95,2.13-2.13V2.62c0-1.17-0.95-2.13-2.13-2.13H45.25
		c-1.17,0-2.13,0.95-2.13,2.13v24.79C43.13,28.59,44.08,29.54,45.25,29.54z"/>
	<path class="st1piece" d="M56.61,12.07c-0.83-0.83-2.17-0.83-3.01,0c-0.83,0.83-0.83,2.17,0,3.01l2.7,2.7c0.42,0.42,0.96,0.62,1.51,0.62
		c0.54,0,1.09-0.21,1.5-0.62c0.83-0.83,0.83-2.17,0-3.01L56.61,12.07z"/>
	<path class="st1piece" d="M76.14,15.92c0.54,0,1.09-0.21,1.5-0.62c0.83-0.83,0.83-2.18,0-3.01l-4.81-4.82c-0.83-0.83-2.17-0.83-3.01,0
		c-0.83,0.83-0.83,2.18,0,3.01l4.81,4.82C75.05,15.71,75.59,15.92,76.14,15.92z"/>
	<path class="st1piece" d="M68.98,19.33c0.42,0.42,0.96,0.62,1.5,0.62s1.09-0.21,1.5-0.62c0.83-0.83,0.83-2.18,0-3.01l-8.73-8.75
		c-0.83-0.83-2.17-0.83-3.01,0c-0.83,0.83-0.83,2.18,0,3.01L68.98,19.33z"/>
	<path class="st1piece" d="M19.14,43.35h2.14v3.12c0,1.17,0.95,2.13,2.13,2.13h1.26v3.47c0,1.17,0.95,2.13,2.13,2.13h6.84
		c1.17,0,2.13-0.95,2.13-2.13V48.6h1.26c1.17,0,2.13-0.95,2.13-2.13v-3.12h2.13c1.17,0,2.13-0.95,2.13-2.13s-0.95-2.13-2.13-2.13
		h-2.13v-3.53c0-1.17-0.95-2.13-2.13-2.13H23.4c-1.17,0-2.13,0.95-2.13,2.13v3.53h-2.14c-1.17,0-2.13,0.95-2.13,2.13
		S17.97,43.35,19.14,43.35z M31.5,49.95h-2.58V48.6h2.58V49.95z M25.53,37.7h9.36v6.65h-0.03c-0.35-0.25-0.77-0.4-1.23-0.4h-6.84
		c-0.46,0-0.89,0.15-1.23,0.4h-0.03V37.7z"/>
</g>
</svg>
