<svg xmlns="http://www.w3.org/2000/svg" width="33" height="16" viewBox="0 0 33 16">
  <path fill="#FFF" fill-rule="evenodd" d="M77,26.4627425 C77,30.2131527 83.7365901,32.330374 90.382301,32.8123869 L90.4141765,36 L97.3020058,31.9614592 L90.335505,28.0589052 L90.3673805,31.2148778 C83.0705948,30.6776623 78.60395,28.3988724 78.60395,26.4627425 C78.60395,24.1590441 84.722019,21.5927967 93.5,21.5927967 C102.277981,21.5927967 108.395372,24.1590441 108.395372,26.4627425 C108.395372,27.8932974 105.966727,29.4221399 102.207448,30.3578912 L102.599449,31.9022174 C107.302109,30.7315185 110,28.7489376 110,26.4627425 C110,22.2646527 101.499404,20 93.5,20 C85.500596,20 77,22.2646527 77,26.4627425 Z" transform="translate(-77 -20)"/>
</svg>
