<svg version="1.1" id="Layer_1" xmlns="http://www.w3.org/2000/svg" xmlns:xlink="http://www.w3.org/1999/xlink" x="0px" y="0px"
	 viewBox="0 0 90 90" style="enable-background:new 0 0 90 90;" xml:space="preserve">
<g>
	<path fill="#A38244" d="M20.6,26.7l3,0v12.4c0,1.2,1,2.1,2.1,2.1h18.7c0.2,0.1,0.4,0.1,0.6,0.1c0.2,0,0.4,0,0.6-0.1h18.5
		c1.2,0,2.1-1,2.1-2.1V26l2.8,2.8c0.4,0.4,1,0.6,1.5,0.6c0.5,0,1.1-0.2,1.5-0.6c0.8-0.8,0.8-2.2,0-3L56.2,10
		c-0.3-0.7-1.1-1.2-1.9-1.2H32.8c-0.6,0-1.2,0.3-1.6,0.7L19,23.2c-0.6,0.6-0.7,1.5-0.4,2.3S19.7,26.7,20.6,26.7z M27.9,26.7l15-0.1
		V37h-15V26.7z M54.4,14.2l7.6,7.5V37h-5.4V26.1c0-1.2-1-2.1-2.1-2.1s-2.1,1-2.1,2.1V37h-5.2V23c0,0,0,0,0,0L54.4,14.2z M33.8,13.1
		h16.1l-7.7,9.2l-15.4,0.1c-0.3-0.2-0.7-0.3-1.1-0.3c0,0-0.1,0-0.1,0L33.8,13.1z"/>
	<path fill="#A38244" d="M79.8,49.4H69.2c-1.2,0-2.1,1-2.1,2.1v1.5c-3.5-1-9.4-2.4-13.1-1.7c-1.4,0.3-2.7,0.6-3.9,0.9
		C47,53.1,43.7,54,38,53.9l-5.3,0c-0.7-0.1-2.6-0.1-4.1,1.1c-0.4,0.3-0.8,0.8-1.1,1.4c-4.8-2-9.6-4.3-14.3-6.6
		c-1.1-0.5-2.2-1.1-3.6-1.4c-3-0.7-6.5,0.6-7.3,3.9c-1,4.2,2.9,6.4,5.2,7.8c0.4,0.3,0.9,0.5,1.2,0.7c1.4,0.9,2.8,1.9,4.2,2.9
		c5.9,4.1,12.1,8.3,18.5,11.8c3.2,1.7,6.8,2.3,10.4,2.3c4,0,7.9-0.7,11.5-1.3c0.7-0.1,1.4-0.3,2.1-0.4c4.5-0.7,9.2-0.2,11.6,0.2v2.9
		c0,1.2,1,2.1,2.1,2.1h10.6c1.2,0,2.1-1,2.1-2.1V51.6C81.9,50.4,81,49.4,79.8,49.4z M54.8,71.8c-0.7,0.1-1.4,0.2-2.2,0.4
		c-6.4,1.1-13.6,2.4-19.1-0.6c-6.2-3.4-12.3-7.5-18.1-11.6c-1.4-1-2.8-1.9-4.2-2.9c-0.4-0.3-0.9-0.6-1.5-0.9
		c-2.3-1.3-3.4-2.2-3.2-3.1c0.1-0.5,0.9-0.8,1.6-0.8c0.2,0,0.4,0,0.6,0.1c0.8,0.2,1.7,0.6,2.7,1.1c5.2,2.6,10.6,5.1,16,7.4
		c0.3,0.8,0.7,1.3,1.1,1.7c1.2,1.2,2.8,1.3,3.3,1.3l19.3,1c1.2,0.1,2.2-0.8,2.2-2c0.1-1.2-0.8-2.2-2-2.2l-19.4-1c-0.1,0-0.1,0-0.2,0
		c-0.2,0-0.4,0-0.5-0.3c0-0.2,0-0.3-0.1-0.5c0-0.1,0-0.1,0-0.2c0-0.3,0.1-0.5,0.1-0.5c0.1-0.1,0.6-0.2,0.9-0.1c0.1,0,0.2,0,0.3,0
		l5.3,0c6.2,0.2,9.9-0.8,13.2-1.7c1.2-0.3,2.4-0.6,3.7-0.9c2.9-0.5,8.9,0.9,12.3,1.9v14.4C64.3,71.5,59.5,71,54.8,71.8z M77.7,76.9
		h-6.3v-2.5V56v-2.3h6.3V76.9z"/>
</g>
</svg>
