<?xml version="1.0" encoding="utf-8"?>
<!-- Generator: Adobe Illustrator 25.0.1, SVG Export Plug-In . SVG Version: 6.00 Build 0)  -->
<svg version="1.1" id="Layer_1" xmlns="http://www.w3.org/2000/svg" xmlns:xlink="http://www.w3.org/1999/xlink" x="0px" y="0px"
	 viewBox="0 0 90 90" style="enable-background:new 0 0 90 90;" xml:space="preserve">
<style type="text/css">
	.kdslkf8uj{fill:#A38244;}
</style>
<g>
	<g>
		<path class="kdslkf8uj" d="M1.06,76.47l19.5,6c0.14,0.04,0.29,0.07,0.44,0.07l0,0h48l0,0c0.15,0,0.3-0.02,0.44-0.07l19.5-6
			C89.57,76.28,90,75.7,90,75.04v-55.5c0-0.59-0.34-1.12-0.87-1.36l-19.5-9l-0.02-0.01c-0.19-0.05-0.39-0.09-0.58-0.13l-0.02,0H21
			l-0.02,0c-0.1,0.01-0.19,0.03-0.29,0.06c-0.1,0.01-0.2,0.04-0.29,0.07l-0.02,0.01l-19.5,9C0.34,18.42,0,18.96,0,19.54v55.5
			C0,75.7,0.43,76.28,1.06,76.47z M87,66.43l-16.5,5.08V20.39L87,28V66.43z M67.5,72.04h-45v-52.5h45V72.04z M19.5,71.51L3,66.43V28
			l16.5-7.62V71.51z M3,69.57l16.5,5.08v4.36L3,73.93V69.57z M22.5,79.54v-4.5h45v4.5H22.5z M70.5,79.01v-4.36L87,69.57v4.36
			L70.5,79.01z M87,24.7l-16.5-7.62v-4.2L87,20.5V24.7z M67.5,12.04v4.5h-45v-4.5H67.5z M19.5,12.89v4.2L3,24.7v-4.2L19.5,12.89z"/>
		<path class="kdslkf8uj" d="M27,69.04h36c0.4,0,0.78-0.16,1.06-0.44c0.28-0.28,0.44-0.66,0.44-1.06v-42c0-0.4-0.16-0.78-0.44-1.06
			c-0.28-0.28-0.66-0.44-1.06-0.44H27c-0.4,0-0.78,0.16-1.06,0.44c-0.28,0.28-0.44,0.66-0.44,1.06v42c0,0.4,0.16,0.78,0.44,1.06
			C26.22,68.88,26.6,69.04,27,69.04z M28.5,27.04h33v39h-33V27.04z"/>
		<path class="kdslkf8uj" d="M7.06,64.82l7.5,2.31c0.14,0.04,0.29,0.07,0.44,0.07c0.4,0,0.78-0.16,1.06-0.44
			c0.28-0.28,0.44-0.66,0.44-1.06V28.32c0-0.51-0.26-0.99-0.69-1.26c-0.43-0.28-0.97-0.31-1.44-0.1l-7.5,3.45
			C6.34,30.65,6,31.18,6,31.77v31.62C6,64.04,6.43,64.63,7.06,64.82z M9,32.73l4.5-2.07v33.01L9,62.28V32.73z"/>
		<path class="kdslkf8uj" d="M74.11,66.9c0.26,0.19,0.57,0.29,0.89,0.29c0.15,0,0.3-0.02,0.44-0.07l7.5-2.31
			c0.63-0.19,1.06-0.78,1.06-1.43V31.77c0-0.59-0.34-1.12-0.87-1.36l-7.5-3.45c-0.46-0.21-1.01-0.18-1.44,0.1
			c-0.43,0.28-0.69,0.75-0.69,1.26V65.7C73.5,66.17,73.73,66.62,74.11,66.9z M76.5,30.66l4.5,2.07v29.55l-4.5,1.38V30.66z"/>
		<path class="kdslkf8uj" d="M33,34.54c0.4,0,0.79-0.16,1.07-0.45l1.5-1.52c0.58-0.59,0.57-1.54-0.02-2.12c-0.59-0.58-1.54-0.58-2.12,0.01
			l-1.5,1.52c-0.43,0.43-0.55,1.07-0.32,1.63C31.85,34.18,32.39,34.54,33,34.54z"/>
		<path class="kdslkf8uj" d="M40.94,30.48l-9,9c-0.38,0.38-0.54,0.93-0.4,1.45c0.14,0.52,0.54,0.93,1.07,1.07
			c0.52,0.14,1.08-0.01,1.45-0.4l9-9c0.58-0.59,0.57-1.53-0.01-2.11C42.47,29.91,41.53,29.9,40.94,30.48L40.94,30.48z"/>
	</g>
</g>
</svg>
