<svg xmlns="http://www.w3.org/2000/svg" xmlns:xlink="http://www.w3.org/1999/xlink" width="26" height="22" viewBox="0 0 26 22">
  <defs>
    <polygon id="bed-a" points="0 .429 26 .429 26 21.429 0 21.429"/>
  </defs>
  <g fill="none" fill-rule="evenodd">
    <mask id="bed-b" fill="#fff">
      <use xlink:href="#bed-a"/>
    </mask>
    <path fill="#DEDEDE" d="M1.29346799,16.8888655 L1.29346799,12.3259979 C1.29346799,11.4497111 2.01004925,10.7381303 2.88831401,10.7381303 L23.1103925,10.7381303 C23.9899507,10.7381303 24.706532,11.4497111 24.706532,12.3259979 L24.706532,16.8888655 L1.29346799,16.8888655 Z M17.3880901,9.45136555 L8.64554002,9.45136555 L8.64554002,6.82250525 C8.64554002,6.67710084 8.76324561,6.56000525 8.90940749,6.56000525 L17.1242227,6.56000525 C17.2703846,6.56000525 17.3880901,6.67710084 17.3880901,6.82250525 L17.3880901,9.45136555 Z M4.81558131,1.71533613 L21.2180489,1.71533613 C21.8647828,1.71533613 22.3912243,2.23904937 22.3912243,2.88114496 L22.3912243,9.45136555 L18.6815581,9.45136555 L18.6815581,6.82250525 C18.6815581,5.96809349 17.9830854,5.27324055 17.1242227,5.27324055 L8.90940749,5.27324055 C8.05054475,5.27324055 7.35207204,5.96809349 7.35207204,6.82250525 L7.35207204,9.45136555 L3.64240585,9.45136555 L3.64240585,2.88114496 C3.64240585,2.23904937 4.16884732,1.71533613 4.81558131,1.71533613 L4.81558131,1.71533613 Z M23.6846923,9.50926996 L23.6846923,2.88114496 C23.6846923,1.52875525 22.5774837,0.428571429 21.2180489,0.428571429 L4.81558131,0.428571429 C3.45614646,0.428571429 2.34893786,1.52875525 2.34893786,2.88114496 L2.34893786,9.50540966 C1.0140789,9.75761555 0,10.9247111 0,12.3259979 L0,21.0734244 L1.29346799,21.0734244 L1.29346799,18.1756303 L24.706532,18.1756303 L24.706532,21.4285714 L26,21.4285714 L26,12.3259979 C26,10.936292 25.0027362,9.77434349 23.6846923,9.50926996 L23.6846923,9.50926996 Z" mask="url(#bed-b)"/>
  </g>
</svg>
