<svg xmlns="http://www.w3.org/2000/svg" xmlns:xlink="http://www.w3.org/1999/xlink" width="76" height="92" viewBox="0 0 76 92">
  <defs>
    <polygon id="boiler-icon-a" points="0 .588 75.302 .588 75.302 90 0 90"/>
  </defs>
  <g fill="none" fill-rule="evenodd" transform="translate(0 .984)">
    <g transform="translate(0 .016)">
      <mask id="boiler-icon-b" fill="#fff">
        <use xlink:href="#boiler-icon-a"/>
      </mask>
      <path fill="#A38244" d="M17.6021011,5.87425 C10.8180571,5.87425 5.29845275,11.3809167 5.29845275,18.1500833 L5.29845275,72.4359167 C5.29845275,79.2059167 10.8180571,84.7125833 17.6021011,84.7125833 L57.6992,84.7125833 C64.483244,84.7125833 70.0028484,79.2059167 70.0028484,72.4359167 L70.0028484,18.1500833 C70.0028484,11.3809167 64.483244,5.87425 57.6992,5.87425 L17.6021011,5.87425 Z M57.6992,90.0000833 L17.6021011,90.0000833 C7.89665055,90.0000833 0.000167032967,82.1209167 0.000167032967,72.4359167 L0.000167032967,18.1500833 C0.000167032967,8.46591667 7.89665055,0.587583333 17.6021011,0.587583333 L57.6992,0.587583333 C67.4054857,0.587583333 75.3019692,8.46591667 75.3019692,18.1500833 L75.3019692,72.4359167 C75.3019692,82.1209167 67.4054857,90.0000833 57.6992,90.0000833 L57.6992,90.0000833 Z" mask="url(#boiler-icon-b)"/>
    </g>
    <path fill="#A38244" d="M29.8949012 55.8096901C29.6702033 56.0867118 29.4654049 56.397944 29.2929431 56.731705 28.7614623 57.757186 28.441413 59.0713702 28.3145541 60.749354 28.123022 63.2675814 28.4364381 65.4428692 29.2448528 67.2134718 30.049951 68.9807367 31.4371077 70.496012 33.151776 71.4789384 36.0239283 73.1285525 39.8835903 73.1310557 42.757401 71.486448 44.4969436 70.4910056 45.9081454 68.9448574 46.7298264 67.1300315 47.2953022 65.8842683 47.6261303 64.4215603 47.7140195 62.7827934L47.7140195 62.7811246C47.7704013 61.7681597 47.7330898 60.6625762 47.6045726 59.4952468 47.2637947 56.3987784 46.4056314 53.6143766 45.0541279 51.2213096 44.1586531 49.6359445 43.0144354 48.2249695 41.675369 47.0409521 41.6488364 48.2933905 41.5684095 49.6609766 41.3868271 50.9701544 41.143059 52.7457633 40.6870302 56.0474948 38.2286203 57.692937 36.1267421 59.0989055 33.5406442 58.5498685 31.9669302 57.6512168 31.1535407 57.1881233 30.4479397 56.5564805 29.8949012 55.8096901M37.9624653 78.0164835C35.3805131 78.0164835 32.7993901 77.3698214 30.5457786 76.0773316 27.8825704 74.5495403 25.7234813 72.184843 24.4623543 69.4204669 23.2791669 66.8238057 22.8098718 63.7715606 23.0693936 60.3471719 23.250976 57.9407546 23.7617283 55.9565449 24.6290121 54.2827331 25.2624776 53.0628364 26.0841586 52.0173298 27.0716683 51.1754175 27.619732 50.7089864 28.291338 50.1824783 29.1155065 49.8136723 29.5242741 49.6334413 30.7464313 49.0927483 32.0680857 49.7293976 33.3963733 50.3693845 33.7504174 51.7044288 33.8673266 52.1424902 33.9643364 52.5137994 34.2296623 52.8575733 34.558003 53.0453139 34.8913186 53.2355577 35.2843325 53.2772779 35.3987543 53.2413985 35.5397086 53.1245822 35.871366 52.4670728 36.178149 50.2433896 36.5114646 47.821953 36.4385 45.0650865 36.3647062 43.6390923 36.3016913 42.3866538 36.9185739 41.2001332 37.9732442 40.5384518 39.0337185 39.8759361 40.3694683 39.8408912 41.46145 40.451674 44.8650832 42.3516089 47.6874869 45.1710556 49.6285114 48.6054571 51.33323 51.6293325 52.4127745 55.0971102 52.8331502 58.9136681 52.9923457 60.3688664 53.0387777 61.7673253 52.9674714 63.069828 52.8430999 65.3727794 52.3547345 67.477143 51.5164706 69.3278482 50.23959 72.1456261 48.05231 74.5470371 45.3567652 76.0890133 43.1114451 77.3739934 40.5369552 78.0164835 37.9624653 78.0164835M18 18.0164835C18 19.1208685 17.1049874 20.0164835 16.0003881 20.0164835 14.8950126 20.0164835 14 19.1208685 14 18.0164835 14 16.9120986 14.8950126 16.0164835 16.0003881 16.0164835 17.1049874 16.0164835 18 16.9120986 18 18.0164835M22.7071216 18.723575C22.3157949 19.1141197 21.6827664 19.1141197 21.2922618 18.723575 20.9025794 18.3330303 20.9025794 17.6999368 21.2922618 17.309392 21.6827664 16.9188473 22.3157949 16.9188473 22.7071216 17.309392 23.0976261 17.6999368 23.0976261 18.3330303 22.7071216 18.723575M59.0428599 19.0164835L43.9563121 19.0164835C43.4305474 19.0164835 43 18.5641785 43 18.0109747L43 17.0219924C43 16.4687885 43.4305474 16.0164835 43.9563121 16.0164835L59.0428599 16.0164835C59.5694526 16.0164835 60 16.4687885 60 17.0219924L60 18.0109747C60 18.5641785 59.5694526 19.0164835 59.0428599 19.0164835"/>
  </g>
</svg>
