<svg xmlns="http://www.w3.org/2000/svg" width="90" height="89" viewBox="0 0 90 89">
  <path fill="#A38244" fill-rule="evenodd" d="M121,91 L138,91 L138,80 L121,80 L121,91 Z M98.4995876,102 C107.59655,102 115,109.415415 115,118.528921 C115,127.255709 108.206974,134.406701 99.6420697,135 C96.1989501,134.790114 92.9216348,133.958834 89.9165354,132.61854 C85.1783277,129.710712 82,124.491662 82,118.528921 C82,109.415415 89.4009749,102 98.4995876,102 L98.4995876,102 Z M58,73 L62.2113208,73 L78.4028816,73 L82,73 L82,91 L58,91 L58,73 Z M65,68 L76,68 L76,58 L65,58 L65,68 Z M127,75 L132,75 L132,70 L127,70 L127,75 Z M140.348066,74.7230326 L137.414365,74.7230326 L137.414365,67.2135615 C137.414365,65.7431057 136.225967,64.5512714 134.762431,64.5512714 L124.007182,64.5512714 C122.541989,64.5512714 121.355249,65.7431057 121.355249,67.2135615 L121.355249,74.7230326 L118.421547,74.7230326 C116.956354,74.7230326 115.768785,75.914867 115.768785,77.384491 L115.768785,94.2273641 C115.768785,95.6978198 116.956354,96.8896541 118.421547,96.8896541 L127.306354,96.8896541 L127.306354,107.184508 C127.306354,114.86531 124.257459,121.839995 119.317403,126.969124 C120.270442,124.507275 120.799171,121.835836 120.799171,119.039642 C120.799171,106.930838 110.982873,97.0792831 98.918232,97.0792831 C86.8519337,97.0792831 77.0364641,106.930838 77.0364641,119.039642 C77.0364641,119.798157 77.0754144,120.548356 77.1508287,121.28691 C74.7781768,117.125887 73.4132597,112.313637 73.4132597,107.184508 L73.4132597,96.8896541 L85.1149171,96.8896541 C86.5792818,96.8896541 87.7676796,95.6978198 87.7676796,94.2273641 L87.7676796,70.4488968 C87.7676796,68.9792728 86.5792818,67.7874384 85.1149171,67.7874384 L81.4933702,67.7874384 L81.4933702,54.6614584 C81.4933702,53.1918343 80.3066298,52 78.8414365,52 L62.5436464,52 C61.078453,52 59.890884,53.1918343 59.890884,54.6614584 L59.890884,67.7874384 L55.6527624,67.7874384 C54.1875691,67.7874384 53,68.9792728 53,70.4488968 L53,94.2273641 C53,95.6978198 54.1875691,96.8896541 55.6527624,96.8896541 L68.1085635,96.8896541 L68.1085635,107.184508 C68.1085635,120.773748 76.1414365,132.509116 87.6881215,137.878608 C90.9732044,139.8589 94.8143646,141 98.918232,141 C99.4013812,141 99.8812155,140.983366 100.360221,140.963405 C100.839227,140.983366 101.319061,141 101.803039,141 C102.195028,141 102.563812,140.909344 102.898619,140.75631 C119.60663,138.77186 132.611878,124.478165 132.611878,107.184508 L132.611878,96.8896541 L140.348066,96.8896541 C141.812431,96.8896541 143,95.6978198 143,94.2273641 L143,77.384491 C143,75.914867 141.812431,74.7230326 140.348066,74.7230326 L140.348066,74.7230326 Z" transform="translate(-53 -52)"/>
</svg>
