<?xml version="1.0" encoding="utf-8"?>
<!-- Generator: Adobe Illustrator 25.0.1, SVG Export Plug-In . SVG Version: 6.00 Build 0)  -->
<svg version="1.1" id="Layer_1" xmlns="http://www.w3.org/2000/svg" xmlns:xlink="http://www.w3.org/1999/xlink" x="0px" y="0px"
	 viewBox="0 0 90 90" style="enable-background:new 0 0 90 90;" xml:space="preserve">
<style type="text/css">
	.st0card{fill:none;}
	.st1car{fill:#A38244;}
</style>
<g>
	<path class="st0card" d="M28.4,59.91c1.22,0,2.21-0.99,2.21-2.21s-0.99-2.21-2.21-2.21c-1.22,0-2.21,0.99-2.21,2.21
		S27.19,59.91,28.4,59.91z"/>
	<path class="st0card" d="M69.43,47.23h3.71c0.65,0,1.21-0.55,1.21-1.21s-0.55-1.21-1.21-1.21h-3.71c-0.65,0-1.21,0.55-1.21,1.21
		S68.77,47.23,69.43,47.23z"/>
	<path class="st0card" d="M60.12,57.7c0,1.22,0.99,2.21,2.21,2.21s2.21-0.99,2.21-2.21s-0.99-2.21-2.21-2.21S60.12,56.49,60.12,57.7z"/>
	<path class="st0card" d="M65,75.02h4c0.85,0,1.57-0.72,1.57-1.57v-3.82h-7.13v3.82C63.43,74.3,64.15,75.02,65,75.02z"/>
	<path class="st0card" d="M22.58,46.02c0-0.65-0.55-1.21-1.21-1.21h-3.71c-0.65,0-1.21,0.55-1.21,1.21s0.55,1.21,1.21,1.21h3.71
		C22.02,47.23,22.58,46.68,22.58,46.02z"/>
	<path class="st0card" d="M34.85,45.01h20.71c0.45,0,0.89,0.04,1.33,0.07h6.48c-1.02-6.42-6.6-11.35-13.3-11.35h-9.71
		c-6.71,0-12.28,4.92-13.31,11.35h6.48C33.96,45.05,34.4,45.01,34.85,45.01z"/>
	<path class="st0card" d="M59.18,73.45v-3.82H31.23v3.82c0,1.58-0.64,3.02-1.66,4.07h31.28C59.82,76.47,59.18,75.03,59.18,73.45z"/>
	<path class="st0card" d="M70.56,65.38v-1.12c0-2.57-0.65-4.99-1.79-7.1c0.02,0.18,0.03,0.36,0.03,0.55c0,3.56-2.9,6.46-6.46,6.46
		s-6.46-2.9-6.46-6.46s2.9-6.46,6.46-6.46c0.24,0,0.48,0.02,0.72,0.04c-1.84-1.07-3.93-1.76-6.16-1.96H33.52
		c-2.28,0.2-4.4,0.92-6.27,2.02c0.37-0.07,0.76-0.11,1.15-0.11c3.56,0,6.46,2.9,6.46,6.46s-2.9,6.46-6.46,6.46s-6.46-2.9-6.46-6.46
		c0-0.43,0.04-0.84,0.12-1.24c-1.39,2.28-2.21,4.94-2.21,7.8v1.12H70.56z M38.52,55.51h13.49c1.17,0,2.13,0.95,2.13,2.13
		s-0.95,2.13-2.13,2.13H38.52c-1.17,0-2.13-0.95-2.13-2.13S37.34,55.51,38.52,55.51z"/>
	<path class="st0card" d="M21.42,75.02h3.99c0.85,0,1.57-0.72,1.57-1.57v-3.82h-7.13v3.82C19.85,74.3,20.57,75.02,21.42,75.02z"/>
	<path class="st1car" d="M38.52,59.76h13.49c1.17,0,2.13-0.95,2.13-2.13s-0.95-2.13-2.13-2.13H38.52c-1.17,0-2.13,0.95-2.13,2.13
		S37.34,59.76,38.52,59.76z"/>
	<path class="st1car" d="M87.74,77.52H73.15c1.03-1.05,1.66-2.48,1.66-4.07v-5.94v-3.25c0-4.91-1.86-9.37-4.89-12.78h3.21
		c3.01,0,5.46-2.45,5.46-5.46s-2.45-5.46-5.46-5.46h-3.71c-0.97,0-1.89,0.26-2.68,0.71c-2.45-6.86-8.99-11.8-16.68-11.8h-9.71
		c-7.63,0-14.13,4.86-16.62,11.63c-0.71-0.34-1.51-0.54-2.36-0.54h-3.71c-3.01,0-5.46,2.45-5.46,5.46s2.45,5.46,5.46,5.46h2.83
		c-3.03,3.4-4.89,7.87-4.89,12.78v3.25v5.94c0,1.58,0.64,3.02,1.66,4.07H4.32V12.03h34.2c1.17,0,2.13-0.95,2.13-2.13
		s-0.95-2.13-2.13-2.13H2.19c-1.17,0-2.13,0.95-2.13,2.13v69.74c0,1.17,0.95,2.13,2.13,2.13h85.55c1.17,0,2.13-0.95,2.13-2.13
		S88.91,77.52,87.74,77.52z M63.43,69.63h7.13v3.82c0,0.85-0.72,1.57-1.57,1.57h-4c-0.85,0-1.57-0.72-1.57-1.57V69.63z M64.54,57.7
		c0,1.22-0.99,2.21-2.21,2.21s-2.21-0.99-2.21-2.21s0.99-2.21,2.21-2.21S64.54,56.49,64.54,57.7z M69.43,44.82h3.71
		c0.65,0,1.21,0.55,1.21,1.21s-0.55,1.21-1.21,1.21h-3.71c-0.65,0-1.21-0.55-1.21-1.21S68.77,44.82,69.43,44.82z M40.35,33.73h9.71
		c6.71,0,12.28,4.92,13.3,11.35h-6.48c-0.44-0.03-0.88-0.07-1.33-0.07H34.85c-0.45,0-0.89,0.04-1.33,0.07h-6.48
		C28.07,38.65,33.65,33.73,40.35,33.73z M28.4,55.5c1.22,0,2.21,0.99,2.21,2.21s-0.99,2.21-2.21,2.21c-1.22,0-2.21-0.99-2.21-2.21
		S27.19,55.5,28.4,55.5z M16.46,46.02c0-0.65,0.55-1.21,1.21-1.21h3.71c0.65,0,1.21,0.55,1.21,1.21s-0.55,1.21-1.21,1.21h-3.71
		C17.01,47.23,16.46,46.68,16.46,46.02z M19.85,64.26c0-2.86,0.82-5.52,2.21-7.8c-0.08,0.4-0.12,0.82-0.12,1.24
		c0,3.56,2.9,6.46,6.46,6.46s6.46-2.9,6.46-6.46s-2.9-6.46-6.46-6.46c-0.39,0-0.78,0.04-1.15,0.11c1.87-1.11,4-1.82,6.27-2.02h23.37
		c2.23,0.2,4.32,0.89,6.16,1.96c-0.24-0.03-0.48-0.04-0.72-0.04c-3.56,0-6.46,2.9-6.46,6.46s2.9,6.46,6.46,6.46s6.46-2.9,6.46-6.46
		c0-0.18-0.01-0.37-0.03-0.55c1.14,2.12,1.79,4.53,1.79,7.1v1.12H19.85V64.26z M19.85,69.63h7.13v3.82c0,0.85-0.72,1.57-1.57,1.57
		h-3.99c-0.85,0-1.57-0.72-1.57-1.57V69.63z M31.23,73.45v-3.82h27.95v3.82c0,1.58,0.64,3.02,1.66,4.07H29.57
		C30.6,76.47,31.23,75.03,31.23,73.45z"/>
</g>
</svg>
