<svg version="1.1" id="Layer_1" xmlns="http://www.w3.org/2000/svg" xmlns:xlink="http://www.w3.org/1999/xlink" x="0px" y="0px"
	 viewBox="0 0 90 90" style="enable-background:new 0 0 90 90;" xml:space="preserve">
<g>
	<polygon fill="none" points="24.1,54.5 28,56.3 28,52.3 	"/>
	<path fill="none" d="M43,58.1l-4.9,2.7l4.9,2.2c0-0.1,0-0.2,0-0.3V58.1z"/>
	<polygon fill="none" points="46.6,63.2 50.5,61.4 50.5,61 	"/>
	<polygon fill="none" points="76.9,47.8 79.7,46.2 76.9,45 	"/>
	<path fill="none" d="M74,45.6l-5.3,2.9c-0.2,0.2-0.5,0.3-0.8,0.3c-0.8,0-1.4-0.6-1.4-1.4v-4.7l-5.3,2.9c-0.2,0.2-0.5,0.3-0.8,0.3
		c-0.8,0-1.4-0.6-1.4-1.4v-4.7l-5.3,2.9c-0.2,0.2-0.5,0.3-0.8,0.3c-0.8,0-1.4-0.6-1.4-1.4V37l-5.3,2.9c-0.2,0.2-0.5,0.3-0.8,0.3
		c-0.8,0-1.4-0.6-1.4-1.4v-4.7L38.7,37c-0.2,0.2-0.5,0.3-0.8,0.3c-0.8,0-1.4-0.6-1.4-1.4v-0.8l-8.9,3.7v2.3l5.4-3
		c0.4-0.2,1-0.2,1.4,0c0.4,0.3,0.7,0.7,0.7,1.2V44l5.4-3c0.4-0.2,1-0.2,1.4,0c0.4,0.3,0.7,0.7,0.7,1.2v4.7l5.4-3
		c0.4-0.2,1-0.2,1.4,0c0.4,0.3,0.7,0.7,0.7,1.2v4.7l5.4-3c0.4-0.2,1-0.2,1.4,0s0.7,0.7,0.7,1.2v4.7l5.4-3c0.4-0.2,1-0.2,1.4,0
		c0.4,0.3,0.7,0.7,0.7,1.2v4l9-4c-0.1-0.2-0.1-0.3-0.1-0.5V45.6z"/>
	<polygon fill="none" points="17.1,51.3 20.5,52.9 20.5,49.4 	"/>
	<polygon fill="none" points="65.3,40.2 61.8,38.7 61.8,42.1 	"/>
	<polygon fill="none" points="72.5,43.2 69.3,41.9 69.3,45 	"/>
	<polygon fill="none" points="58.1,37.1 54.3,35.5 54.3,39.2 	"/>
	<polygon fill="none" points="10.1,48.2 13,49.5 13,46.6 	"/>
	<path fill="none" d="M15.8,48.8l5.4-3c0.4-0.2,1-0.2,1.4,0c0.4,0.3,0.7,0.7,0.7,1.2v4.7l5.4-3c0.4-0.2,1-0.2,1.4,0
		c0.4,0.3,0.7,0.7,0.7,1.2v4.7l5.4-3c0.4-0.2,1-0.2,1.4,0c0.4,0.3,0.7,0.7,0.7,1.2v4.7l5.4-3c0.4-0.2,1-0.2,1.4,0
		c0.4,0.3,0.7,0.7,0.7,1.2v4.7l5.4-3c0.4-0.2,1-0.2,1.4,0c0.4,0.3,0.7,0.7,0.7,1.2v1.6l8.9-4v-2.8L57,56.2c-0.2,0.2-0.5,0.3-0.8,0.3
		c-0.8,0-1.4-0.6-1.4-1.4v-4.7l-5.3,2.9c-0.2,0.2-0.5,0.3-0.8,0.3c-0.8,0-1.4-0.6-1.4-1.4v-4.7L42,50.5c-0.2,0.2-0.5,0.3-0.8,0.3
		c-0.8,0-1.4-0.6-1.4-1.4v-4.7l-5.3,2.9c-0.2,0.2-0.5,0.3-0.8,0.3c-0.8,0-1.4-0.6-1.4-1.4v-4.7L27,44.7c-0.2,0.2-0.5,0.3-0.8,0.3
		c-0.8,0-1.4-0.6-1.4-1.4V40l-8.9,3.8c0,0.1,0,0.2,0,0.3V48.8z"/>
	<polygon fill="none" points="50.9,34.1 46.8,32.3 46.8,36.3 	"/>
	<polygon fill="none" points="31.1,57.7 35.5,59.6 35.5,55.2 	"/>
	<polygon fill="none" points="4.6,51 42.8,68.5 42.8,67.6 4.6,50.4 	"/>
	<path fill="#A38244" d="M89.6,47.2c0-0.2,0-0.3-0.1-0.5c0,0,0-0.1,0-0.1c0-0.1-0.1-0.2-0.1-0.3c0,0,0-0.1-0.1-0.1
		c-0.1-0.1-0.1-0.2-0.2-0.3c0,0,0-0.1-0.1-0.1c-0.1-0.1-0.2-0.2-0.4-0.3c0,0,0,0,0,0c0,0-0.1,0-0.1,0c-0.1,0-0.2-0.1-0.2-0.1
		L45.8,27.3c-0.5-0.2-1.1-0.2-1.7,0l-4.8,2l-10.2,4.3l-9,3.8l-2.8,1.2l-8.9,3.7l-6.7,2.8c-0.1,0-0.2,0.1-0.2,0.1c0,0-0.1,0-0.1,0
		c0,0,0,0,0,0c-0.1,0.1-0.3,0.2-0.4,0.3c0,0,0,0.1-0.1,0.1c-0.1,0.1-0.2,0.2-0.2,0.3c0,0,0,0.1-0.1,0.1c-0.1,0.1-0.1,0.2-0.1,0.3
		c0,0,0,0,0,0c0,0,0,0.1,0,0.1c0,0.2-0.1,0.3-0.1,0.5v5.3c0,0.8,0.5,1.6,1.2,1.9L44,73.7c0.1,0,0.1,0,0.2,0.1c0.1,0,0.1,0,0.2,0.1
		c0.2,0,0.4,0.1,0.5,0.1c0.2,0,0.4,0,0.5-0.1c0.1,0,0.1,0,0.2-0.1c0.1,0,0.1,0,0.2-0.1l12.3-5.5l10.2-4.6l3.3-1.5l0.6-0.3l5.2-2.3
		l2.8-1.3l8.1-3.7c0.3-0.1,0.6-0.4,0.8-0.6c0.3-0.4,0.5-0.8,0.5-1.3l0-4.9L89.6,47.2C89.6,47.2,89.6,47.2,89.6,47.2z M76.9,45
		l2.9,1.2l-2.9,1.6V45z M69.3,41.9l3.2,1.3L69.3,45V41.9z M61.8,38.7l3.5,1.5l-3.5,1.9V38.7z M54.3,35.5l3.8,1.6l-3.8,2.1V35.5z
		 M46.8,32.3l4.1,1.7l-4.1,2.3V32.3z M27.6,38.9l8.9-3.7v0.8c0,0.8,0.6,1.4,1.4,1.4c0.3,0,0.6-0.1,0.8-0.3l5.3-2.9v4.7
		c0,0.8,0.6,1.4,1.4,1.4c0.3,0,0.6-0.1,0.8-0.3l5.3-2.9v4.7c0,0.8,0.6,1.4,1.4,1.4c0.3,0,0.6-0.1,0.8-0.3l5.3-2.9v4.7
		c0,0.8,0.6,1.4,1.4,1.4c0.3,0,0.6-0.1,0.8-0.3l5.3-2.9v4.7c0,0.8,0.6,1.4,1.4,1.4c0.3,0,0.6-0.1,0.8-0.3l5.3-2.9v4.7
		c0,0.2,0,0.4,0.1,0.5l-9,4v-4c0-0.5-0.3-1-0.7-1.2c-0.4-0.3-1-0.3-1.4,0l-5.4,3V48c0-0.5-0.3-1-0.7-1.2s-1-0.3-1.4,0l-5.4,3v-4.7
		c0-0.5-0.3-1-0.7-1.2c-0.4-0.3-1-0.3-1.4,0l-5.4,3v-4.7c0-0.5-0.3-1-0.7-1.2c-0.4-0.3-1-0.3-1.4,0l-5.4,3v-4.7c0-0.5-0.3-1-0.7-1.2
		c-0.4-0.3-1-0.3-1.4,0l-5.4,3V38.9z M13,46.6v2.9l-2.9-1.3L13,46.6z M42.8,68.5L4.6,51v-0.6l38.2,17.2V68.5z M17.1,51.3l3.4-1.9
		v3.4L17.1,51.3z M24.1,54.5l3.9-2.2v3.9L24.1,54.5z M31.1,57.7l4.4-2.5v4.4L31.1,57.7z M38.1,60.8l4.9-2.7v4.7c0,0.1,0,0.2,0,0.3
		L38.1,60.8z M45.2,54.4c-0.4-0.3-1-0.3-1.4,0l-5.4,3v-4.7c0-0.5-0.3-1-0.7-1.2c-0.4-0.3-1-0.3-1.4,0l-5.4,3v-4.7
		c0-0.5-0.3-1-0.7-1.2c-0.4-0.3-1-0.3-1.4,0l-5.4,3V47c0-0.5-0.3-1-0.7-1.2c-0.4-0.3-1-0.3-1.4,0l-5.4,3v-4.7c0-0.1,0-0.2,0-0.3
		l8.9-3.8v3.5c0,0.8,0.6,1.4,1.4,1.4c0.3,0,0.6-0.1,0.8-0.3l5.3-2.9v4.7c0,0.8,0.6,1.4,1.4,1.4c0.3,0,0.6-0.1,0.8-0.3l5.3-2.9v4.7
		c0,0.8,0.6,1.4,1.4,1.4c0.3,0,0.6-0.1,0.8-0.3l5.3-2.9v4.7c0,0.8,0.6,1.4,1.4,1.4c0.3,0,0.6-0.1,0.8-0.3l5.3-2.9v4.7
		c0,0.8,0.6,1.4,1.4,1.4c0.3,0,0.6-0.1,0.8-0.3l5.3-2.9v2.8l-8.9,4v-1.6c0-0.5-0.3-1-0.7-1.2c-0.4-0.3-1-0.3-1.4,0l-5.4,3v-4.7
		C45.9,55.2,45.6,54.7,45.2,54.4z M50.5,61v0.4l-4,1.8L50.5,61z M85.3,51.4L81.5,53l-8.9,4l-2.8,1.3l-8.9,4l-9.8,4.4l-4,1.8l0-0.9
		l3.5-1.6l10.3-4.6l8.9-4l2.8-1.3l8.9-4l3.8-1.7L85.3,51.4z"/>
</g>
</svg>
