<svg version="1.1" id="Layer_1" xmlns="http://www.w3.org/2000/svg" xmlns:xlink="http://www.w3.org/1999/xlink" x="0px" y="0px"
	 viewBox="0 0 90 90" style="enable-background:new 0 0 90 90;" xml:space="preserve">
<g>
	<path fill="#A38244" d="M86.49,66.16L47.16,42.45v-7.84c0-1.17-0.95-2.13-2.13-2.13c-4.37,0-7.93-3.56-7.93-7.93s3.56-7.93,7.93-7.93
		s7.93,3.56,7.93,7.93c0,1.17,0.95,2.13,2.13,2.13s2.13-0.95,2.13-2.13c0-6.72-5.46-12.18-12.18-12.18s-12.18,5.46-12.18,12.18
		c0,5.99,4.35,10.97,10.06,11.98v5.91L3.59,66.16c-2.72,1.64-3.99,4.83-3.15,7.93c0.82,3.05,3.37,5.06,6.5,5.11
		c0.01,0,0.13,0,0.14,0H83l0.14,0c3.12-0.05,5.68-2.06,6.5-5.11C90.48,70.99,89.21,67.8,86.49,66.16z M85.54,72.98
		c-0.12,0.45-0.66,1.94-2.51,1.97L83,77.08v-2.13l-76,0c-1.8-0.03-2.34-1.51-2.46-1.97c-0.27-1.01-0.09-2.38,1.24-3.18l39.26-23.67
		L84.29,69.8C85.63,70.6,85.81,71.97,85.54,72.98z"/>
</g>
</svg>
