<?xml version="1.0" encoding="utf-8"?>
<!-- Generator: Adobe Illustrator 25.0.1, SVG Export Plug-In . SVG Version: 6.00 Build 0)  -->
<svg version="1.1" id="Layer_1" xmlns="http://www.w3.org/2000/svg" xmlns:xlink="http://www.w3.org/1999/xlink" x="0px" y="0px"
	 viewBox="0 0 90 90" style="enable-background:new 0 0 90 90;" xml:space="preserve">
<style type="text/css">
	.56tygh{fill:#A38244;}
</style>
<g>
	<path class="56tygh" d="M87.9,72.23h-2.09v-42c0-0.43-0.2-0.84-0.54-1.11l-2.22-1.77V21.3c0-0.78-0.63-1.42-1.42-1.42h-4.08
		c-0.78,0-1.42,0.63-1.42,1.42v0.55l-5.2-4.13c-0.51-0.4-1.23-0.41-1.75-0.01L54.63,28.9c-0.23,0.18-0.39,0.42-0.47,0.69H35.81
		c-0.09-0.18-0.22-0.34-0.38-0.47l-2.22-1.77V21.3c0-0.78-0.63-1.42-1.42-1.42h-4.08c-0.78,0-1.42,0.63-1.42,1.42v0.55l-5.2-4.13
		c-0.51-0.41-1.23-0.41-1.75-0.01L4.78,28.9c-0.35,0.27-0.55,0.68-0.55,1.12v42.2H2.47c-0.78,0-1.42,0.63-1.42,1.42
		s0.63,1.42,1.42,1.42h3.18h17.68h4.89h6.33h8.65h4.89h7.42h17.68h4.89h6.34h3.5c0.78,0,1.42-0.63,1.42-1.42S88.68,72.23,87.9,72.23
		z M78.98,22.72h1.25v2.38l-1.25-0.99V22.72z M54.08,72.23h-3.03c0-0.05,0.02-0.1,0.02-0.15V55.09c0-1.65-1.34-2.98-2.98-2.98h-4.89
		c-1.65,0-2.98,1.34-2.98,2.98v16.99c0,0.05,0.01,0.1,0.02,0.15h-4.26v-39.8h18.12V72.23z M29.13,22.72h1.25v2.38l-1.25-0.99V22.72z
		 M23.32,72.23c-0.08,0-0.15-0.07-0.15-0.15V55.09c0-0.08,0.07-0.15,0.15-0.15h4.89c0.08,0,0.15,0.07,0.15,0.15v16.99
		c0,0.08-0.07,0.15-0.15,0.15H23.32z M31.18,72.23c0-0.05,0.02-0.1,0.02-0.15V55.09c0-1.65-1.34-2.98-2.98-2.98h-4.89
		c-1.65,0-2.98,1.34-2.98,2.98v16.99c0,0.05,0.01,0.1,0.02,0.15H7.06v-41.5l13.13-10.1l12.93,10.28v41.32H31.18z M43.19,72.23
		c-0.08,0-0.15-0.07-0.15-0.15V55.09c0-0.08,0.07-0.15,0.15-0.15h4.89c0.08,0,0.15,0.07,0.15,0.15v16.99c0,0.08-0.07,0.15-0.15,0.15
		H43.19z M73.17,72.23c-0.08,0-0.15-0.07-0.15-0.15V55.09c0-0.08,0.07-0.15,0.15-0.15h4.89c0.08,0,0.15,0.07,0.15,0.15v16.99
		c0,0.08-0.07,0.15-0.15,0.15H73.17z M81.03,72.23c0-0.05,0.02-0.1,0.02-0.15V55.09c0-1.65-1.34-2.98-2.98-2.98h-4.89
		c-1.65,0-2.98,1.34-2.98,2.98v16.99c0,0.05,0.01,0.1,0.02,0.15H56.91V31v-0.28l13.13-10.1l12.93,10.28v41.32H81.03z"/>
	<path class="56tygh" d="M12.74,47.1h2.84c1.65,0,2.98-1.34,2.98-2.98V37.6c0-1.65-1.34-2.98-2.98-2.98h-2.84
		c-1.65,0-2.98,1.34-2.98,2.98v6.51C9.75,45.76,11.09,47.1,12.74,47.1z M12.59,37.6c0-0.08,0.07-0.15,0.15-0.15h2.84
		c0.08,0,0.15,0.07,0.15,0.15v6.51c0,0.08-0.07,0.15-0.15,0.15h-2.84c-0.08,0-0.15-0.07-0.15-0.15V37.6z"/>
	<path class="56tygh" d="M27.19,34.61h-2.84c-1.65,0-2.98,1.34-2.98,2.98v6.51c0,1.65,1.34,2.98,2.98,2.98h2.84
		c1.65,0,2.98-1.34,2.98-2.98V37.6C30.17,35.95,28.83,34.61,27.19,34.61z M27.33,44.11c0,0.08-0.07,0.15-0.15,0.15h-2.84
		c-0.08,0-0.15-0.07-0.15-0.15V37.6c0-0.08,0.07-0.15,0.15-0.15h2.84c0.08,0,0.15,0.07,0.15,0.15V44.11z"/>
	<path class="56tygh" d="M43.75,47.1h2.83c1.65,0,2.98-1.34,2.98-2.98V37.6c0-1.65-1.34-2.98-2.98-2.98h-2.83
		c-1.65,0-2.98,1.34-2.98,2.98v6.51C40.77,45.76,42.11,47.1,43.75,47.1z M43.6,37.6c0-0.08,0.07-0.15,0.15-0.15h2.83
		c0.08,0,0.15,0.07,0.15,0.15v6.51c0,0.08-0.07,0.15-0.15,0.15h-2.83c-0.08,0-0.15-0.07-0.15-0.15V37.6z"/>
	<path class="56tygh" d="M15.58,51.99h-2.84c-1.65,0-2.98,1.34-2.98,2.98v6.51c0,1.65,1.34,2.98,2.98,2.98h2.84
		c1.65,0,2.98-1.34,2.98-2.98v-6.51C18.56,53.33,17.22,51.99,15.58,51.99z M15.73,61.49c0,0.08-0.07,0.15-0.15,0.15h-2.84
		c-0.08,0-0.15-0.07-0.15-0.15v-6.51c0-0.08,0.07-0.15,0.15-0.15h2.84c0.08,0,0.15,0.07,0.15,0.15V61.49z"/>
	<path class="56tygh" d="M24.92,60.93c-0.87,0-1.57,0.71-1.57,1.57c0,0.87,0.71,1.57,1.57,1.57c0.87,0,1.57-0.71,1.57-1.57
		C26.5,61.63,25.79,60.93,24.92,60.93z"/>
	<path class="56tygh" d="M62.59,47.1h2.83c1.65,0,2.98-1.34,2.98-2.98V37.6c0-1.65-1.34-2.98-2.98-2.98h-2.83
		c-1.65,0-2.98,1.34-2.98,2.98v6.51C59.6,45.76,60.94,47.1,62.59,47.1z M62.44,37.6c0-0.08,0.07-0.15,0.15-0.15h2.83
		c0.08,0,0.15,0.07,0.15,0.15v6.51c0,0.08-0.07,0.15-0.15,0.15h-2.83c-0.08,0-0.15-0.07-0.15-0.15V37.6z"/>
	<path class="56tygh" d="M77.03,34.61H74.2c-1.65,0-2.98,1.34-2.98,2.98v6.51c0,1.65,1.34,2.98,2.98,2.98h2.84
		c1.65,0,2.98-1.34,2.98-2.98V37.6C80.02,35.95,78.68,34.61,77.03,34.61z M77.18,44.11c0,0.08-0.07,0.15-0.15,0.15H74.2
		c-0.08,0-0.15-0.07-0.15-0.15V37.6c0-0.08,0.07-0.15,0.15-0.15h2.84c0.08,0,0.15,0.07,0.15,0.15V44.11z"/>
	<path class="56tygh" d="M65.42,51.99h-2.83c-1.65,0-2.98,1.34-2.98,2.98v6.51c0,1.65,1.34,2.98,2.98,2.98h2.83
		c1.65,0,2.98-1.34,2.98-2.98v-6.51C68.41,53.33,67.07,51.99,65.42,51.99z M65.57,61.49c0,0.08-0.07,0.15-0.15,0.15h-2.83
		c-0.08,0-0.15-0.07-0.15-0.15v-6.51c0-0.08,0.07-0.15,0.15-0.15h2.83c0.08,0,0.15,0.07,0.15,0.15V61.49z"/>
	<path class="56tygh" d="M74.77,60.93c-0.87,0-1.57,0.71-1.57,1.57c0,0.87,0.71,1.57,1.57,1.57s1.57-0.71,1.57-1.57
		C76.35,61.63,75.64,60.93,74.77,60.93z"/>
	<path class="56tygh" d="M44.79,60.93c-0.87,0-1.57,0.71-1.57,1.57c0,0.87,0.71,1.57,1.57,1.57c0.87,0,1.57-0.71,1.57-1.57
		C46.37,61.63,45.66,60.93,44.79,60.93z"/>
</g>
</svg>
