<svg version="1.1" id="Layer_1" xmlns="http://www.w3.org/2000/svg" xmlns:xlink="http://www.w3.org/1999/xlink" x="0px" y="0px"
	 viewBox="0 0 90 90" style="enable-background:new 0 0 90 90;" xml:space="preserve">
<path fill="#A38244" d="M37.89,12.7c0,1.06-0.87,1.93-1.93,1.93h-5.8c-1.06,0-1.93-0.87-1.93-1.93s0.87-1.93,1.93-1.93h5.8
	C37.02,10.76,37.89,11.63,37.89,12.7z M67.85,16.56c0,1.06-0.87,1.93-1.93,1.93c-2.67,0-4.83,2.16-4.83,4.83v12.84
	c2.79,0.84,4.83,3.43,4.83,6.48c0,3.08-2.08,5.68-4.9,6.49c-0.56,7.15-4.67,13.32-10.56,16.74c0.01,0.74,0.21,13.02,5.33,19
	c0.49,0.57,0.6,1.38,0.29,2.07c-0.32,0.68-1,1.12-1.76,1.12H25.33c-0.75,0-1.44-0.44-1.76-1.12c-0.31-0.69-0.2-1.5,0.29-2.07
	c5.12-5.98,5.32-18.25,5.33-19c-5.89-3.42-10-9.59-10.56-16.74c-2.82-0.81-4.9-3.41-4.9-6.49c0-3.05,2.04-5.64,4.83-6.48V8.83
	c0-4.26,3.47-7.73,7.73-7.73h27.06c4.26,0,7.73,3.47,7.73,7.73V9.8c0,2.67,2.16,4.83,4.83,4.83C66.98,14.63,67.85,15.5,67.85,16.56z
	 M57.84,16.56c0.48,0.39,0.92,0.82,1.3,1.3c0.39-0.48,0.82-0.92,1.3-1.3c-0.48-0.39-0.92-0.82-1.3-1.3
	C58.76,15.74,58.33,16.17,57.84,16.56z M22.43,35.89h34.79V23.33c0-2.67-2.16-4.83-4.83-4.83c-1.06,0-1.93-0.87-1.93-1.93
	s0.87-1.93,1.93-1.93c2.67,0,4.83-2.16,4.83-4.83V8.83c0-2.14-1.73-3.87-3.87-3.87H26.3c-2.14,0-3.87,1.73-3.87,3.87V35.89z
	 M46.65,67.61c-2.15,0.73-4.44,1.13-6.82,1.13c-2.39,0-4.68-0.4-6.82-1.13c-0.18,3.37-0.93,10.84-4.04,16.59h21.72
	C47.57,78.45,46.83,70.98,46.65,67.61z M57.1,49.41H22.55c0.97,8.69,8.34,15.46,17.28,15.46S56.13,58.1,57.1,49.41z M59.15,39.75
	H20.5c-1.59,0-2.9,1.3-2.9,2.9s1.3,2.9,2.9,2.9h38.65c1.59,0,2.9-1.3,2.9-2.9S60.74,39.75,59.15,39.75z M85.24,30.09
	c0,1.06-0.87,1.93-1.93,1.93c-2.67,0-4.83,2.16-4.83,4.83c0,1.06-0.87,1.93-1.93,1.93c-1.06,0-1.93-0.87-1.93-1.93
	c0-2.67-2.16-4.83-4.83-4.83c-1.06,0-1.93-0.87-1.93-1.93s0.87-1.93,1.93-1.93c2.67,0,4.83-2.16,4.83-4.83
	c0-1.06,0.87-1.93,1.93-1.93c1.06,0,1.93,0.87,1.93,1.93c0,2.67,2.16,4.83,4.83,4.83C84.37,28.16,85.24,29.03,85.24,30.09z
	 M77.85,30.09c-0.48-0.39-0.92-0.82-1.3-1.3c-0.39,0.48-0.82,0.92-1.3,1.3c0.48,0.39,0.92,0.82,1.3,1.3
	C76.93,30.91,77.36,30.48,77.85,30.09z"/>
</svg>
