<svg version="1.1" id="Layer_1" xmlns="http://www.w3.org/2000/svg" xmlns:xlink="http://www.w3.org/1999/xlink" x="0px" y="0px"
	 viewBox="0 0 90 90" style="enable-background:new 0 0 90 90;" xml:space="preserve">
<g>
	<path fill="#A38244" d="M69.24,31.57H66c-0.79,0-1.53,0.2-2.19,0.52c-2.25-5.96-8-10.21-14.73-10.21h-8.49
		c-6.68,0-12.39,4.19-14.68,10.07c-0.59-0.24-1.23-0.38-1.91-0.38h-3.24c-2.78,0-5.04,2.26-5.04,5.04s2.26,5.04,5.04,5.04h3.08
		c-3.18,3.44-5.15,8.02-5.15,13.06v0.68v5.19c0,2.95,2.4,5.35,5.35,5.35h3.49c2.95,0,5.35-2.4,5.35-5.35v-3.07h23.89v3.07
		c0,2.95,2.4,5.35,5.35,5.35h3.49c2.95,0,5.35-2.4,5.35-5.35v-5.19V54.7c0-5.05-1.97-9.64-5.16-13.08c0.06,0,0.12,0.02,0.19,0.02
		h3.24c2.78,0,5.04-2.26,5.04-5.04C74.27,33.83,72.01,31.57,69.24,31.57z M61.46,46.81c0,0.92-0.75,1.66-1.66,1.66
		s-1.66-0.75-1.66-1.66s0.75-1.66,1.66-1.66S61.46,45.9,61.46,46.81z M40.59,26.13h8.49c5.62,0,10.31,4.05,11.31,9.38h-7.51
		c-0.38-0.02-0.77-0.06-1.16-0.06H37.94c-0.39,0-0.77,0.04-1.16,0.06h-7.51C30.28,30.18,34.97,26.13,40.59,26.13z M31.81,46.81
		c0,0.92-0.75,1.66-1.66,1.66c-0.92,0-1.66-0.75-1.66-1.66s0.75-1.66,1.66-1.66S31.81,45.9,31.81,46.81z M19.98,36.61
		c0-0.43,0.36-0.79,0.79-0.79H24c0.43,0,0.79,0.36,0.79,0.79S24.43,37.4,24,37.4h-3.24C20.34,37.39,19.98,37.03,19.98,36.61z
		 M28.64,60.58c0,0.6-0.5,1.1-1.1,1.1h-3.49c-0.6,0-1.1-0.5-1.1-1.1v-3.07h5.69V60.58z M65.62,61.68h-3.49c-0.6,0-1.1-0.5-1.1-1.1
		v-3.07h5.69v3.07C66.72,61.17,66.22,61.68,65.62,61.68z M23.01,53.26c0.17-1.78,0.66-3.46,1.4-5.01c0.64,2.57,2.97,4.48,5.73,4.48
		c3.26,0,5.91-2.65,5.91-5.91c0-2.74-1.87-5.04-4.41-5.71c1.56-0.73,3.26-1.19,5.06-1.34h16.23c1.83,0.15,3.57,0.63,5.16,1.39
		c-2.44,0.73-4.23,2.99-4.23,5.67c0,3.26,2.65,5.91,5.91,5.91c2.62,0,4.85-1.72,5.62-4.09c0.64,1.44,1.07,2.99,1.23,4.62H23.01
		V53.26z M69.24,37.39H66c-0.43,0-0.79-0.36-0.79-0.79s0.36-0.79,0.79-0.79h3.24c0.43,0,0.79,0.36,0.79,0.79
		S69.66,37.39,69.24,37.39z"/>
	<path fill="#A38244" d="M50.78,44.63H38.99c-1.17,0-2.13,0.95-2.13,2.13s0.95,2.13,2.13,2.13h11.79c1.17,0,2.13-0.95,2.13-2.13
		S51.95,44.63,50.78,44.63z"/>
</g>
</svg>
