<?xml version="1.0" encoding="utf-8"?>
<!-- Generator: Adobe Illustrator 25.0.1, SVG Export Plug-In . SVG Version: 6.00 Build 0)  -->
<svg version="1.1" id="Layer_1" xmlns="http://www.w3.org/2000/svg" xmlns:xlink="http://www.w3.org/1999/xlink" x="0px" y="0px"
	 viewBox="0 0 90 90" style="enable-background:new 0 0 90 90;" xml:space="preserve">
<style type="text/css">
	.st0garage1{fill:none;}
	.st1garage1{fill:#A38244;}
</style>
<g>
	<path class="st0garage1" d="M9.13,27.22v49.73h16.33c0-0.05-0.02-0.1-0.02-0.15V56.02c0-1.65,1.34-2.98,2.98-2.98h6.4
		c1.65,0,2.98,1.34,2.98,2.98V76.8c0,0.05-0.01,0.1-0.02,0.15h2.85v-49.5L25.01,15.01L9.13,27.22z M12.86,35.23
		c0-1.65,1.34-2.98,2.98-2.98h3.96c1.65,0,2.98,1.34,2.98,2.98v8.33c0,1.65-1.34,2.98-2.98,2.98h-3.96c-1.65,0-2.98-1.34-2.98-2.98
		V35.23z M22.79,64.22c0,1.65-1.34,2.98-2.98,2.98h-3.96c-1.65,0-2.98-1.34-2.98-2.98v-8.33c0-1.65,1.34-2.98,2.98-2.98h3.96
		c1.65,0,2.98,1.34,2.98,2.98V64.22z M26.66,35.23c0-1.65,1.34-2.98,2.98-2.98h3.96c1.65,0,2.98,1.34,2.98,2.98v8.33
		c0,1.65-1.34,2.98-2.98,2.98h-3.96c-1.65,0-2.98-1.34-2.98-2.98V35.23z"/>
	<path class="st0garage1" d="M19.81,55.73h-3.96c-0.08,0-0.15,0.07-0.15,0.15v8.33c0,0.08,0.07,0.15,0.15,0.15h3.96
		c0.08,0,0.15-0.07,0.15-0.15v-8.33C19.96,55.8,19.89,55.73,19.81,55.73z"/>
	<path class="st0garage1" d="M15.85,43.71h3.96c0.08,0,0.15-0.07,0.15-0.15v-8.33c0-0.08-0.07-0.15-0.15-0.15h-3.96
		c-0.08,0-0.15,0.07-0.15,0.15v8.33C15.7,43.65,15.77,43.71,15.85,43.71z"/>
	<path class="st0garage1" d="M29.65,43.71h3.96c0.08,0,0.15-0.07,0.15-0.15v-8.33c0-0.08-0.07-0.15-0.15-0.15h-3.96
		c-0.08,0-0.15,0.07-0.15,0.15v8.33C29.5,43.65,29.56,43.71,29.65,43.71z"/>
	<path class="st0garage1" d="M34.83,55.87h-6.4c-0.08,0-0.15,0.07-0.15,0.15V76.8c0,0.08,0.07,0.15,0.15,0.15h6.4
		c0.08,0,0.15-0.07,0.15-0.15V56.02C34.98,55.94,34.91,55.87,34.83,55.87z M30.63,66.72c-0.88,0-1.6-0.72-1.6-1.6s0.72-1.6,1.6-1.6
		c0.88,0,1.6,0.72,1.6,1.6S31.51,66.72,30.63,66.72z"/>
	<rect x="51.73" y="28.16" class="st0garage1" width="28.49" height="18.56"/>
	<path class="st0garage1" d="M51.73,76.95h1.88c0-0.05-0.02-0.1-0.02-0.15V56.81c0-1.65,1.34-2.98,2.98-2.98h18.8
		c1.65,0,2.98,1.34,2.98,2.98V76.8c0,0.05-0.01,0.1-0.02,0.15h1.88v-27.4H51.73V76.95z"/>
	<polygon class="st0garage1" points="37.37,17.57 35.35,17.57 35.35,19.62 37.37,21.22 	"/>
	<rect x="56.43" y="66.11" class="st0garage1" width="19.1" height="1.81"/>
	<rect x="56.43" y="70.76" class="st0garage1" width="19.1" height="1.81"/>
	<path class="st0garage1" d="M75.38,56.66h-18.8c-0.08,0-0.15,0.07-0.15,0.15v1.82h19.1v-1.82C75.53,56.73,75.46,56.66,75.38,56.66z"/>
	<rect x="56.43" y="61.47" class="st0garage1" width="19.1" height="1.81"/>
	<path class="st0garage1" d="M56.43,76.8c0,0.08,0.07,0.15,0.15,0.15h18.8c0.08,0,0.15-0.07,0.15-0.15v-1.4h-19.1V76.8z"/>
	<path class="st1garage1" d="M48.9,78.37v-1.42h-5.42V26.76c0-0.43-0.2-0.84-0.54-1.11l-2.74-2.18v-7.32c0-0.78-0.63-1.42-1.42-1.42h-4.85
		c-0.78,0-1.42,0.63-1.42,1.42v1.21l-6.61-5.26c-0.51-0.4-1.23-0.41-1.75-0.01L6.85,25.4C6.5,25.67,6.3,26.08,6.3,26.52v50.43H2.41
		C1.63,76.95,1,77.58,1,78.37s0.63,1.42,1.42,1.42h5.3h20.71h6.4h7.23h8.25C49.53,79.79,48.9,79.15,48.9,78.37z M35.35,17.57h2.01
		v3.65l-2.01-1.6V17.57z M34.98,76.8c0,0.08-0.07,0.15-0.15,0.15h-6.4c-0.08,0-0.15-0.07-0.15-0.15V56.02
		c0-0.08,0.07-0.15,0.15-0.15h6.4c0.08,0,0.15,0.07,0.15,0.15V76.8z M40.65,76.95H37.8c0-0.05,0.02-0.1,0.02-0.15V56.02
		c0-1.65-1.34-2.98-2.98-2.98h-6.4c-1.65,0-2.98,1.34-2.98,2.98V76.8c0,0.05,0.01,0.1,0.02,0.15H9.13V27.22l15.88-12.21l15.63,12.43
		V76.95z"/>
	<path class="st1garage1" d="M80.22,78.37v-1.42h-1.88c-0.08,1.57-1.38,2.83-2.97,2.83h6.26C80.86,79.79,80.22,79.15,80.22,78.37z"/>
	<path class="st1garage1" d="M53.61,76.95h-1.88v1.42c0,0.78-0.63,1.42-1.42,1.42h6.26C54.99,79.79,53.69,78.53,53.61,76.95z"/>
	<path class="st1garage1" d="M87.85,76.95h-4.79v1.42c0,0.78-0.63,1.42-1.42,1.42h6.21c0.78,0,1.42-0.63,1.42-1.42S88.63,76.95,87.85,76.95
		z"/>
	<path class="st1garage1" d="M15.85,46.55h3.96c1.65,0,2.98-1.34,2.98-2.98v-8.33c0-1.65-1.34-2.98-2.98-2.98h-3.96
		c-1.65,0-2.98,1.34-2.98,2.98v8.33C12.86,45.21,14.2,46.55,15.85,46.55z M15.7,35.23c0-0.08,0.07-0.15,0.15-0.15h3.96
		c0.08,0,0.15,0.07,0.15,0.15v8.33c0,0.08-0.07,0.15-0.15,0.15h-3.96c-0.08,0-0.15-0.07-0.15-0.15V35.23z"/>
	<path class="st1garage1" d="M29.65,46.55h3.96c1.65,0,2.98-1.34,2.98-2.98v-8.33c0-1.65-1.34-2.98-2.98-2.98h-3.96
		c-1.65,0-2.98,1.34-2.98,2.98v8.33C26.66,45.21,28,46.55,29.65,46.55z M29.5,35.23c0-0.08,0.07-0.15,0.15-0.15h3.96
		c0.08,0,0.15,0.07,0.15,0.15v8.33c0,0.08-0.07,0.15-0.15,0.15h-3.96c-0.08,0-0.15-0.07-0.15-0.15V35.23z"/>
	<path class="st1garage1" d="M19.81,52.9h-3.96c-1.65,0-2.98,1.34-2.98,2.98v8.33c0,1.65,1.34,2.98,2.98,2.98h3.96
		c1.65,0,2.98-1.34,2.98-2.98v-8.33C22.79,54.24,21.46,52.9,19.81,52.9z M19.96,64.22c0,0.08-0.07,0.15-0.15,0.15h-3.96
		c-0.08,0-0.15-0.07-0.15-0.15v-8.33c0-0.08,0.07-0.15,0.15-0.15h3.96c0.08,0,0.15,0.07,0.15,0.15V64.22z"/>
	<path class="st1garage1" d="M30.63,63.52c-0.88,0-1.6,0.72-1.6,1.6s0.72,1.6,1.6,1.6c0.88,0,1.6-0.72,1.6-1.6S31.51,63.52,30.63,63.52z"/>
	<path class="st1garage1" d="M78.35,76.95c0-0.05,0.02-0.1,0.02-0.15V56.81c0-1.65-1.34-2.98-2.98-2.98h-18.8c-1.65,0-2.98,1.34-2.98,2.98
		V76.8c0,0.05,0.01,0.1,0.02,0.15c0.08,1.57,1.38,2.83,2.97,2.83h18.8C76.97,79.79,78.27,78.53,78.35,76.95z M75.53,76.8
		c0,0.08-0.07,0.15-0.15,0.15h-18.8c-0.08,0-0.15-0.07-0.15-0.15v-1.4h19.1V76.8z M75.53,72.57h-19.1v-1.81h19.1V72.57z
		 M75.53,67.92h-19.1v-1.81h19.1V67.92z M75.53,63.28h-19.1v-1.81h19.1V63.28z M75.53,58.63h-19.1v-1.82c0-0.08,0.07-0.15,0.15-0.15
		h18.8c0.08,0,0.15,0.07,0.15,0.15V58.63z"/>
	<path class="st1garage1" d="M83.06,78.37v-1.42V48.13c0,0.78-0.63,1.42-1.42,1.42h-1.42v27.4v1.42c0,0.78,0.63,1.42,1.42,1.42
		S83.06,79.15,83.06,78.37z"/>
	<path class="st1garage1" d="M51.73,78.37v-1.42v-27.4h-1.42c-0.78,0-1.42-0.63-1.42-1.42v28.82v1.42c0,0.78,0.63,1.42,1.42,1.42
		S51.73,79.15,51.73,78.37z"/>
	<path class="st1garage1" d="M50.32,49.55h1.42h28.49h1.42c0.78,0,1.42-0.63,1.42-1.42V26.74c0-0.78-0.63-1.42-1.42-1.42H50.32
		c-0.78,0-1.42,0.63-1.42,1.42v21.39C48.9,48.91,49.53,49.55,50.32,49.55z M51.73,28.16h28.49v18.56H51.73V28.16z"/>
</g>
</svg>
