<?xml version="1.0" encoding="utf-8"?>
<!-- Generator: Adobe Illustrator 25.0.1, SVG Export Plug-In . SVG Version: 6.00 Build 0)  -->
<svg version="1.1" id="Layer_1" xmlns="http://www.w3.org/2000/svg" xmlns:xlink="http://www.w3.org/1999/xlink" x="0px" y="0px"
	 viewBox="0 0 90 90" style="enable-background:new 0 0 90 90;" xml:space="preserve">
<style type="text/css">
	.mnasdhdsa{fill:#A38244;}
</style>
<g>
	<path class="mnasdhdsa" d="M78.62,45.31h-1.6v-4.79c-0.01-6.17-5-11.16-11.17-11.17h-7.98V18.18c-0.01-4.4-3.57-7.97-7.98-7.98H13.19
		V3.82c0-1.76-1.43-3.19-3.19-3.19H2.02c-0.88,0-1.6,0.71-1.6,1.6v25.53c0,0.88,0.71,1.6,1.6,1.6H10c1.76,0,3.19-1.43,3.19-3.19
		v-6.38H48.3v9.58h-7.98c-6.17,0.01-11.16,5-11.17,11.17v4.79h-1.6c-0.88,0-1.6,0.71-1.6,1.6v6.38c0,0.88,0.71,1.6,1.6,1.6h51.07
		c0.88,0,1.6-0.71,1.6-1.6v-6.38C80.22,46.03,79.5,45.31,78.62,45.31z M3.61,26.16V3.82H10l0,7.97l0,0.01v6.38l0,0.01l0,7.97H3.61z
		 M48.3,16.59H13.19V13.4h36.71c2.64,0,4.78,2.14,4.79,4.79v11.17h-3.19v-9.58C51.49,18.02,50.06,16.59,48.3,16.59z M32.34,40.53
		c0.01-4.4,3.57-7.97,7.98-7.98h25.53c4.4,0.01,7.97,3.57,7.98,7.98v4.79H32.34V40.53z M77.03,51.7H29.15v-3.19h47.88V51.7z
		 M35.53,72.44V88.4c0,0.88-0.71,1.6-1.6,1.6s-1.6-0.71-1.6-1.6V72.44c0-0.88,0.71-1.6,1.6-1.6S35.53,71.56,35.53,72.44z
		 M35.53,59.68v6.38c0,0.88-0.71,1.6-1.6,1.6s-1.6-0.71-1.6-1.6v-6.38c0-0.88,0.71-1.6,1.6-1.6S35.53,58.8,35.53,59.68z
		 M45.11,59.68v15.96c0,0.88-0.71,1.6-1.6,1.6c-0.88,0-1.6-0.71-1.6-1.6V59.68c0-0.88,0.71-1.6,1.6-1.6
		C44.39,58.08,45.11,58.8,45.11,59.68z M45.11,82.02v6.38c0,0.88-0.71,1.6-1.6,1.6c-0.88,0-1.6-0.71-1.6-1.6v-6.38
		c0-0.88,0.71-1.6,1.6-1.6C44.39,80.42,45.11,81.14,45.11,82.02z M54.68,72.44V88.4c0,0.88-0.71,1.6-1.6,1.6s-1.6-0.71-1.6-1.6
		V72.44c0-0.88,0.71-1.6,1.6-1.6S54.68,71.56,54.68,72.44z M54.68,59.68v6.38c0,0.88-0.71,1.6-1.6,1.6s-1.6-0.71-1.6-1.6v-6.38
		c0-0.88,0.71-1.6,1.6-1.6S54.68,58.8,54.68,59.68z M64.26,59.68v15.96c0,0.88-0.71,1.6-1.6,1.6s-1.6-0.71-1.6-1.6V59.68
		c0-0.88,0.71-1.6,1.6-1.6S64.26,58.8,64.26,59.68z M64.26,82.02v6.38c0,0.88-0.71,1.6-1.6,1.6s-1.6-0.71-1.6-1.6v-6.38
		c0-0.88,0.71-1.6,1.6-1.6S64.26,81.14,64.26,82.02z M73.83,72.44V88.4c0,0.88-0.71,1.6-1.6,1.6c-0.88,0-1.6-0.71-1.6-1.6V72.44
		c0-0.88,0.71-1.6,1.6-1.6C73.12,70.85,73.83,71.56,73.83,72.44z M73.83,59.68v6.38c0,0.88-0.71,1.6-1.6,1.6
		c-0.88,0-1.6-0.71-1.6-1.6v-6.38c0-0.88,0.71-1.6,1.6-1.6C73.12,58.08,73.83,58.8,73.83,59.68z"/>
</g>
</svg>
