<?xml version="1.0" encoding="utf-8"?>
<!-- Generator: Adobe Illustrator 25.0.1, SVG Export Plug-In . SVG Version: 6.00 Build 0)  -->
<svg version="1.1" id="Layer_1" xmlns="http://www.w3.org/2000/svg" xmlns:xlink="http://www.w3.org/1999/xlink" x="0px" y="0px"
	 viewBox="0 0 90 90" style="enable-background:new 0 0 90 90;" xml:space="preserve">
<style type="text/css">
	.st0bathrooms{fill:none;}
	.st1bathrooms{fill:#A38244;}
</style>
<g>
	<path class="st0bathrooms" d="M17,43.98v-6.41c0-2.46,1.84-4.46,4.09-4.46h17.74c2.26,0,4.09,2,4.09,4.46v6.41H47v-6.41
		c0-2.46,1.84-4.46,4.09-4.46h17.74c2.26,0,4.09,2,4.09,4.46v6.41h4.42v-19.2c0-1.78-1.85-3.22-4.12-3.22H16.89
		c-2.27,0-4.12,1.45-4.12,3.22v19.2H17z"/>
	<path class="st0bathrooms" d="M51.29,37.36c-0.02,0.05-0.04,0.12-0.04,0.21v6.41h17.42v-6.41c0-0.09-0.02-0.16-0.04-0.21H51.29z"/>
	<path class="st0bathrooms" d="M21.29,37.36c-0.02,0.05-0.04,0.12-0.04,0.21v6.41h17.42v-6.41c0-0.09-0.02-0.16-0.04-0.21H21.29z"/>
	<path class="st0bathrooms" d="M79.73,48.23H10.27c-3.07,0-5.58,2.5-5.58,5.58v15.85H85.3V53.8C85.3,50.73,82.8,48.23,79.73,48.23z"/>
	<path class="st1bathrooms" d="M81.6,44.16V24.78c0-4.12-3.76-7.47-8.37-7.47H16.89c-4.62,0-8.37,3.35-8.37,7.47v19.36
		c-4.58,0.83-8.07,4.84-8.07,9.66v30.2c0,1.17,0.95,2.13,2.13,2.13s2.13-0.95,2.13-2.13V73.9H85.3v11.32c0,1.17,0.95,2.13,2.13,2.13
		s2.13-0.95,2.13-2.13V53.8C89.55,49.02,86.13,45.04,81.6,44.16z M16.89,21.56h56.34c2.27,0,4.12,1.45,4.12,3.22v19.2h-4.42v-6.41
		c0-2.46-1.84-4.46-4.09-4.46H51.09c-2.26,0-4.09,2-4.09,4.46v6.41h-4.08v-6.41c0-2.46-1.84-4.46-4.09-4.46H21.1
		c-2.26,0-4.09,2-4.09,4.46v6.41h-4.24v-19.2C12.77,23,14.62,21.56,16.89,21.56z M68.67,43.98H51.25v-6.41
		c0-0.09,0.02-0.16,0.04-0.21h17.35c0.02,0.05,0.04,0.12,0.04,0.21V43.98z M38.67,43.98H21.25v-6.41c0-0.09,0.02-0.16,0.04-0.21
		h17.35c0.02,0.05,0.04,0.12,0.04,0.21V43.98z M4.7,69.65V53.8c0-3.07,2.5-5.58,5.58-5.58h69.46c3.07,0,5.58,2.5,5.58,5.58v15.85
		H4.7z"/>
</g>
</svg>
