<?xml version="1.0" encoding="utf-8"?>
<!-- Generator: Adobe Illustrator 25.0.1, SVG Export Plug-In . SVG Version: 6.00 Build 0)  -->
<svg version="1.1" id="Layer_1" xmlns="http://www.w3.org/2000/svg" xmlns:xlink="http://www.w3.org/1999/xlink" x="0px" y="0px"
	 viewBox="0 0 90 90" style="enable-background:new 0 0 90 90;" xml:space="preserve">
<style type="text/css">
	.nkalsdiosa{fill:#A38244;}
</style>
<g>
	<path class="nkalsdiosa" d="M78.4,2.99H57.44V1.5c0-0.83-0.67-1.5-1.5-1.5s-1.5,0.67-1.5,1.5v1.5H31.98V1.5c0-0.83-0.67-1.5-1.5-1.5
		c-0.83,0-1.5,0.67-1.5,1.5v1.5h-2.99V1.5c0-0.83-0.67-1.5-1.5-1.5c-0.83,0-1.5,0.67-1.5,1.5v1.5h-7.49c-0.83,0-1.5,0.67-1.5,1.5
		v77.87c0,0.4,0.16,0.79,0.45,1.07c-1.09,2.23-0.16,4.92,2.07,6.01c2.23,1.09,4.92,0.16,6.01-2.07c0.53-1.1,0.6-2.36,0.18-3.5h48.47
		c-0.18,0.48-0.27,0.99-0.28,1.5c-0.02,2.48,1.98,4.51,4.46,4.52c2.48,0.02,4.51-1.98,4.52-4.46c0-0.69-0.15-1.37-0.45-1.99
		c0.29-0.28,0.45-0.67,0.45-1.07V4.49C79.9,3.67,79.23,2.99,78.4,2.99z M17,80.86v-5.99h59.9v5.99H17z M24.49,58.4
		c0-0.83,0.67-1.5,1.5-1.5h14.97c0.83,0,1.5,0.67,1.5,1.5s-0.67,1.5-1.5,1.5H25.99C25.16,59.9,24.49,59.23,24.49,58.4z M24.49,64.39
		c0-0.83,0.67-1.5,1.5-1.5h14.97c0.83,0,1.5,0.67,1.5,1.5s-0.67,1.5-1.5,1.5H25.99C25.16,65.89,24.49,65.22,24.49,64.39z
		 M24.49,70.38c0-0.83,0.67-1.5,1.5-1.5h14.97c0.83,0,1.5,0.67,1.5,1.5s-0.67,1.5-1.5,1.5H25.99
		C25.16,71.88,24.49,71.21,24.49,70.38z M51.45,58.4c0-0.83,0.67-1.5,1.5-1.5h14.97c0.83,0,1.5,0.67,1.5,1.5s-0.67,1.5-1.5,1.5
		H52.94C52.12,59.9,51.45,59.23,51.45,58.4z M51.45,64.39c0-0.83,0.67-1.5,1.5-1.5h14.97c0.83,0,1.5,0.67,1.5,1.5s-0.67,1.5-1.5,1.5
		H52.94C52.12,65.89,51.45,65.22,51.45,64.39z M51.45,70.38c0-0.83,0.67-1.5,1.5-1.5h14.97c0.83,0,1.5,0.67,1.5,1.5
		s-0.67,1.5-1.5,1.5H52.94C52.12,71.88,51.45,71.21,51.45,70.38z M28.98,5.99v5.99h-2.99V5.99H28.98z M25.99,14.97v26.95
		c0,1.9-1.2,3.6-2.99,4.24V14.97H25.99z M28.98,41.93V14.97h2.99v26.95c0,1.9-1.2,3.6-2.99,4.24V41.93z M22.99,5.99v5.99h-1.5
		c-0.83,0-1.5,0.67-1.5,1.5v34.44c0,0.83,0.67,1.5,1.5,1.5c1.63-0.01,3.2-0.55,4.49-1.54v0.04c0,0.83,0.67,1.5,1.5,1.5
		c4.13,0,7.48-3.35,7.49-7.49V13.48c0-0.83-0.67-1.5-1.5-1.5h-1.5V5.99h22.46v7.49H39.47c-0.83,0-1.5,0.67-1.5,1.5v11.98
		c0,0.83,0.67,1.5,1.5,1.5h4.49v17.97c0,0.83,0.67,1.5,1.5,1.5h20.96c0.83,0,1.5-0.67,1.5-1.5V28.45h4.49c0.83,0,1.5-0.67,1.5-1.5
		V14.97c0-0.83-0.67-1.5-1.5-1.5H57.44V5.99H76.9v65.89h-4.77c0.58-1.55,0.23-3.29-0.9-4.49c1.56-1.69,1.56-4.3,0-5.99
		c1.66-1.83,1.53-4.65-0.29-6.32c-0.83-0.75-1.91-1.17-3.03-1.17H52.94c-2.47-0.01-4.48,1.98-4.49,4.45c0,1.12,0.41,2.21,1.17,3.03
		c-1.56,1.69-1.56,4.3,0,5.99c-1.13,1.21-1.47,2.95-0.9,4.49h-3.54c0.58-1.55,0.23-3.29-0.9-4.49c1.56-1.69,1.56-4.3,0-5.99
		c1.66-1.83,1.53-4.65-0.29-6.32c-0.83-0.75-1.91-1.17-3.03-1.17H25.99c-2.47-0.01-4.48,1.98-4.49,4.45c0,1.12,0.41,2.21,1.17,3.03
		c-1.56,1.69-1.56,4.3,0,5.99c-1.13,1.21-1.47,2.95-0.9,4.49H17V5.99H22.99z M70.91,16.47v8.98h-4.49c-0.83,0-1.5,0.67-1.5,1.5
		v17.97H46.95V26.95c0-0.83-0.67-1.5-1.5-1.5h-4.49v-8.98h8.98v4.49c0,3.31,2.68,5.99,5.99,5.99s5.99-2.68,5.99-5.99v-4.49H70.91z
		 M58.93,20.96c0,1.65-1.34,2.99-2.99,2.99s-2.99-1.34-2.99-2.99v-4.49h5.99V20.96z M20,85.36c0,0.83-0.67,1.5-1.5,1.5
		s-1.5-0.67-1.5-1.5s0.67-1.5,1.5-1.5S20,84.53,20,85.36z M75.41,86.85c-0.83,0-1.5-0.67-1.5-1.5s0.67-1.5,1.5-1.5
		c0.83,0,1.5,0.67,1.5,1.5S76.23,86.85,75.41,86.85z"/>
</g>
</svg>
