<?xml version="1.0" encoding="utf-8"?>
<!-- Generator: Adobe Illustrator 25.0.1, SVG Export Plug-In . SVG Version: 6.00 Build 0)  -->
<svg version="1.1" id="Layer_1" xmlns="http://www.w3.org/2000/svg" xmlns:xlink="http://www.w3.org/1999/xlink" x="0px" y="0px"
	 viewBox="0 0 90 90" style="enable-background:new 0 0 90 90;" xml:space="preserve">
<style type="text/css">
	.jioasdjioas{fill:#A38244;}
</style>
<path class="jioasdjioas" d="M85.96,23.48c-0.43-4.29-2.99-8.3-6.77-10.36c-2.47-1.35-5.53-1.99-9.36-1.91c-3.46,0.06-6.13,0.63-8.41,1.79
	c-3.71,1.9-5.91,5.58-6.34,10.44c-0.3,0.1-0.58,0.22-0.86,0.36c-1.83-2.58-4.2-4.76-6.99-6.28c-4.06-2.21-9.13-3.24-15.51-3.13
	c-5.77,0.1-10.2,1.04-13.94,2.95c-6.31,3.23-9.84,9.43-10.28,17.98c-4.12,0.89-7.21,4.56-7.21,8.94c0,2.61,1.12,5.08,3.04,6.81
	v25.84c0,1.17,0.95,2.13,2.13,2.13h11.03c1.17,0,2.13-0.95,2.13-2.13v-0.28h28.42v0.28c0,1.17,0.95,2.13,2.13,2.13h11.03
	c1.17,0,2.13-0.95,2.13-2.13V51.08c0.74-0.66,1.35-1.43,1.83-2.28h13.74c0.3,0.81,1.07,1.38,1.99,1.38h6.34
	c1.17,0,2.13-0.95,2.13-2.13V33.58c1.11-1.14,1.74-2.68,1.74-4.3C90.08,26.6,88.35,24.32,85.96,23.48z M57.04,27.37
	c1.06,0,1.92,0.86,1.92,1.91c0,0.04,0,0.07,0,0.11v6.15c-0.23-0.07-0.46-0.13-0.7-0.19c-0.13-2.72-0.8-5.39-1.91-7.86
	C56.56,27.42,56.79,27.37,57.04,27.37z M14.36,60.63v13.89v0.28H7.58V50.06c0-0.7-0.34-1.35-0.92-1.75
	c-1.33-0.92-2.12-2.43-2.12-4.04c0-2.7,2.2-4.9,4.91-4.9c2.7,0,4.9,2.2,4.9,4.9c0,0.05,0,0.1,0.01,0.15V60.63z M47.03,72.4H18.61
	v-9.64h28.42V72.4z M47.03,58.5H18.61v-6.28c4.46-2.11,9.23-3.19,14.21-3.19c4.98,0,9.75,1.08,14.21,3.19V58.5z M50.33,37.24
	c-2.01,1.68-3.3,4.21-3.3,7.03v3.3c-2.1-0.86-4.25-1.52-6.45-1.99l2.6-5.77c0.42-0.92,0.12-1.99-0.66-2.57
	c-0.01-0.01-0.02-0.02-0.03-0.03c-0.11-0.08-0.24-0.15-0.37-0.21c-0.71-0.32-1.5-0.21-2.1,0.21c-0.01,0.01-0.03,0.02-0.04,0.03
	c-0.28,0.21-0.52,0.48-0.67,0.82l-3.1,6.87c-1.12-0.1-2.25-0.17-3.39-0.17c-1.13,0-2.24,0.07-3.35,0.16l-3.1-6.87
	c-0.15-0.34-0.39-0.61-0.67-0.82c-0.03-0.02-0.05-0.04-0.08-0.06c-0.59-0.4-1.36-0.49-2.06-0.18c-0.11,0.05-0.21,0.11-0.31,0.18
	c-0.03,0.02-0.07,0.04-0.1,0.07c-0.78,0.58-1.08,1.65-0.66,2.57l2.6,5.76c-2.21,0.46-4.38,1.13-6.49,1.99v-3.3
	c0-0.06,0-0.12-0.01-0.18c-0.05-2.75-1.33-5.21-3.3-6.85c-0.03-0.03-0.06-0.06-0.09-0.08c-1-0.81-2.17-1.4-3.45-1.74
	c0.29-5.15,2.02-11.25,7.96-14.29c3.14-1.61,6.98-2.4,12.08-2.48c5.62-0.09,10.01,0.76,13.4,2.61c5.09,2.77,8.47,8.3,8.81,14.13
	c-1.36,0.34-2.61,0.97-3.65,1.84C50.34,37.23,50.34,37.24,50.33,37.24z M58.97,48.31c-0.57,0.4-0.92,1.05-0.92,1.75V74.8h-6.78
	v-0.28V60.63V44.27c0-2.7,2.2-4.9,4.91-4.9c2.71,0,4.91,2.2,4.91,4.91C61.09,45.88,60.3,47.39,58.97,48.31z M77.74,44.55H65.33
	c0-0.09,0.01-0.18,0.01-0.27c0-1.23-0.25-2.39-0.68-3.46h13.08V44.55z M77.74,36.56H63.21v-2.13c2.29-1,4.73-1.51,7.27-1.51
	c2.53,0,4.97,0.51,7.27,1.51V36.56z M77.74,29.28v0.61c-0.51-0.17-1.02-0.32-1.54-0.46l1.06-2.35c0.48-1.07,0.01-2.33-1.06-2.81
	c-1.07-0.48-2.33-0.01-2.81,1.06l-1.54,3.41c-0.9-0.05-1.81-0.05-2.71,0l-1.54-3.41c-0.48-1.07-1.75-1.55-2.81-1.06
	c-1.07,0.48-1.55,1.74-1.06,2.81l1.06,2.34c-0.53,0.13-1.05,0.29-1.56,0.46v-0.61c0-0.05,0-0.09,0-0.14
	c-0.06-2.53-1.65-4.69-3.88-5.58c0.33-3.29,1.67-5.57,4.03-6.77c1.68-0.86,3.76-1.28,6.54-1.33c3.08-0.04,5.45,0.4,7.26,1.39
	c2.45,1.34,4.13,3.91,4.52,6.69C79.38,24.44,77.74,26.67,77.74,29.28z M85,30.86c-0.57,0.4-0.92,1.05-0.92,1.75v13.32h-2.09v-7.25
	v-9.4c0-1.06,0.86-1.92,1.92-1.92c1.06,0,1.92,0.86,1.92,1.92C85.82,29.91,85.51,30.5,85,30.86z"/>
</svg>
