<svg xmlns="http://www.w3.org/2000/svg" xmlns:xlink="http://www.w3.org/1999/xlink" width="20" height="22" viewBox="0 0 20 22">
  <defs>
    <polygon id="email_icon-a" points=".724 .881 14.77 .881 14.77 17.817 .724 17.817"/>
    <polygon id="email_icon-c" points="0 .281 19.495 .281 19.495 12 0 12"/>
  </defs>
  <g fill="none" fill-rule="evenodd" transform="translate(0 -1)">
    <path fill="#FEFEFE" d="M5.1133,1.5 L14.3823,1.5 C15.4253,1.5 16.2703,2.346 16.2703,3.389 L16.2703,15.547 C16.2703,16.59 15.4253,17.436 14.3823,17.436 L5.1133,17.436 C4.0703,17.436 3.2243,16.59 3.2243,15.547 L3.2243,3.389 C3.2243,2.346 4.0703,1.5 5.1133,1.5"/>
    <g transform="translate(2 .12)">
      <mask id="email_icon-b" fill="#fff">
        <use xlink:href="#email_icon-a"/>
      </mask>
      <path fill="#DEDEDE" d="M3.1133,1.8809 C2.3473,1.8809 1.7243,2.5039 1.7243,3.2699 L1.7243,15.4279 C1.7243,16.1939 2.3473,16.8169 3.1133,16.8169 L12.3823,16.8169 C13.1473,16.8169 13.7703,16.1939 13.7703,15.4279 L13.7703,3.2699 C13.7703,2.5039 13.1473,1.8809 12.3823,1.8809 L3.1133,1.8809 Z M12.3823,17.8169 L3.1133,17.8169 C1.7963,17.8169 0.7243,16.7449 0.7243,15.4279 L0.7243,3.2699 C0.7243,1.9529 1.7963,0.8809 3.1133,0.8809 L12.3823,0.8809 C13.6993,0.8809 14.7703,1.9529 14.7703,3.2699 L14.7703,15.4279 C14.7703,16.7449 13.6993,17.8169 12.3823,17.8169 L12.3823,17.8169 Z" mask="url(#email_icon-b)"/>
    </g>
    <path fill="#FEFEFE" d="M9.8574,21.6191 L1.1104,21.6191 C0.7734,21.6191 0.5004,21.3461 0.5004,21.0091 L0.5004,11.5131 C0.5004,11.0071 1.0784,10.7211 1.4804,11.0271 L9.3784,17.0431 C9.5954,17.2101 9.8994,17.2101 10.1174,17.0431 L18.0144,11.0271 C18.4174,10.7211 18.9954,11.0071 18.9954,11.5131 L18.9954,21.0091 C18.9954,21.3461 18.7214,21.6191 18.3844,21.6191 L9.6374,21.6191"/>
    <g transform="translate(0 10.12)">
      <mask id="email_icon-d" fill="#fff">
        <use xlink:href="#email_icon-c"/>
      </mask>
      <path fill="#DEDEDE" d="M9.6377,11 L18.3847,11 C18.4457,11 18.4947,10.951 18.4947,10.89 L18.4947,1.394 C18.4947,1.348 18.4747,1.314 18.4337,1.294 C18.3947,1.274 18.3547,1.277 18.3177,1.306 L10.4197,7.322 C10.0247,7.625 9.4697,7.625 9.0747,7.321 L1.1777,1.306 C1.1397,1.277 1.1007,1.274 1.0617,1.294 C1.0207,1.314 0.9997,1.348 0.9997,1.394 L0.9997,10.89 C0.9997,10.951 1.0497,11 1.1107,11 L9.6377,11 Z M18.3847,12 L1.1107,12 C0.4977,12 -0.0003,11.502 -0.0003,10.89 L-0.0003,1.394 C-0.0003,0.968 0.2367,0.587 0.6167,0.398 C0.9977,0.209 1.4457,0.253 1.7837,0.51 L9.6807,6.526 C9.7197,6.557 9.7767,6.556 9.8137,6.527 L17.7117,0.51 C18.0497,0.252 18.4967,0.208 18.8777,0.398 C19.2587,0.587 19.4947,0.968 19.4947,1.394 L19.4947,10.89 C19.4947,11.502 18.9967,12 18.3847,12 L18.3847,12 Z" mask="url(#email_icon-d)"/>
    </g>
    <line x1="6.376" x2="9.184" y1="5.105" y2="5.105" fill="#FEFEFE"/>
    <path fill="#DEDEDE" d="M9.1836,5.6054 L6.3756,5.6054 C6.0996,5.6054 5.8756,5.3814 5.8756,5.1054 C5.8756,4.8294 6.0996,4.6054 6.3756,4.6054 L9.1836,4.6054 C9.4596,4.6054 9.6836,4.8294 9.6836,5.1054 C9.6836,5.3814 9.4596,5.6054 9.1836,5.6054"/>
    <line x1="6.376" x2="13.202" y1="7.5" y2="7.5" fill="#FEFEFE"/>
    <path fill="#DEDEDE" d="M13.2021,8 L6.3761,8 C6.0991,8 5.8761,7.776 5.8761,7.5 C5.8761,7.224 6.0991,7 6.3761,7 L13.2021,7 C13.4781,7 13.7021,7.224 13.7021,7.5 C13.7021,7.776 13.4781,8 13.2021,8"/>
    <line x1="6.376" x2="13.202" y1="9.895" y2="9.895" fill="#FEFEFE"/>
    <path fill="#DEDEDE" d="M13.2021,10.3945 L6.3761,10.3945 C6.0991,10.3945 5.8761,10.1705 5.8761,9.8945 C5.8761,9.6185 6.0991,9.3945 6.3761,9.3945 L13.2021,9.3945 C13.4781,9.3945 13.7021,9.6185 13.7021,9.8945 C13.7021,10.1705 13.4781,10.3945 13.2021,10.3945"/>
  </g>
</svg>
