<?xml version="1.0" encoding="utf-8"?>
<!-- Generator: Adobe Illustrator 25.0.1, SVG Export Plug-In . SVG Version: 6.00 Build 0)  -->
<svg version="1.1" id="Layer_1" xmlns="http://www.w3.org/2000/svg" xmlns:xlink="http://www.w3.org/1999/xlink" x="0px" y="0px"
	 viewBox="0 0 90 90" style="enable-background:new 0 0 90 90;" xml:space="preserve">
<style type="text/css">
	.st0terrace{fill:none;}
	.st1terrace{fill:#A38244;}
</style>
<g>
	<path class="st0terrace" d="M11.86,42.43h2.34c0.08,0,0.15-0.07,0.15-0.15v-5.72c0-0.08-0.07-0.15-0.15-0.15h-2.34
		c-0.08,0-0.15,0.07-0.15,0.15v5.72C11.71,42.37,11.78,42.43,11.86,42.43z"/>
	<path class="st0terrace" d="M25.96,67.95V52.62c0-0.08-0.07-0.15-0.15-0.15h-4.23c-0.08,0-0.15,0.07-0.15,0.15v6.24
		c0.19-0.65,0.78-1.13,1.49-1.13c0.86,0,1.56,0.7,1.56,1.56s-0.7,1.56-1.56,1.56c-0.71,0-1.3-0.48-1.49-1.13v8.23
		c0,0.08,0.07,0.15,0.15,0.15h4.23C25.89,68.1,25.96,68.03,25.96,67.95z"/>
	<path class="st0terrace" d="M14.21,52.36h-2.34c-0.08,0-0.15,0.07-0.15,0.15v5.72c0,0.08,0.07,0.15,0.15,0.15h2.34
		c0.08,0,0.15-0.07,0.15-0.15v-5.72C14.36,52.43,14.29,52.36,14.21,52.36z"/>
	<path class="st0terrace" d="M18.59,67.95V52.62c0-1.65,1.34-2.98,2.98-2.98h4.23c1.65,0,2.98,1.34,2.98,2.98v15.33
		c0,0.05-0.01,0.1-0.02,0.15h1.56V30.35L18.58,21L6.64,30.18V68.1h11.96C18.6,68.05,18.59,68,18.59,67.95z M19.53,36.56
		c0-1.65,1.34-2.98,2.98-2.98h2.35c1.65,0,2.98,1.34,2.98,2.98v5.72c0,1.65-1.34,2.98-2.98,2.98h-2.35c-1.65,0-2.98-1.34-2.98-2.98
		V36.56z M8.88,36.56c0-1.65,1.34-2.98,2.98-2.98h2.34c1.65,0,2.98,1.34,2.98,2.98v5.72c0,1.65-1.34,2.98-2.98,2.98h-2.34
		c-1.65,0-2.98-1.34-2.98-2.98V36.56z M17.19,58.23c0,1.65-1.34,2.98-2.98,2.98h-2.34c-1.65,0-2.98-1.34-2.98-2.98v-5.72
		c0-1.65,1.34-2.98,2.98-2.98h2.34c1.65,0,2.98,1.34,2.98,2.98V58.23z"/>
	<path class="st0terrace" d="M38.39,42.43h2.34c0.08,0,0.15-0.07,0.15-0.15v-5.72c0-0.08-0.07-0.15-0.15-0.15h-2.34
		c-0.08,0-0.15,0.07-0.15,0.15v5.72C38.24,42.37,38.3,42.43,38.39,42.43z"/>
	<path class="st0terrace" d="M49.04,42.43h2.34c0.08,0,0.15-0.07,0.15-0.15v-5.72c0-0.08-0.07-0.15-0.15-0.15h-2.34
		c-0.08,0-0.15,0.07-0.15,0.15v5.72C48.89,42.37,48.96,42.43,49.04,42.43z"/>
	<path class="st0terrace" d="M40.73,52.36h-2.35c-0.08,0-0.15,0.07-0.15,0.15v5.72c0,0.08,0.07,0.15,0.15,0.15h2.35
		c0.08,0,0.15-0.07,0.15-0.15v-5.72C40.88,52.43,40.81,52.36,40.73,52.36z"/>
	<polygon class="st0terrace" points="80.85,22.89 79.94,22.89 79.94,23.99 80.85,24.72 	"/>
	<polygon class="st0terrace" points="27.8,22.89 26.89,22.89 26.89,23.99 27.8,24.72 	"/>
	<path class="st0terrace" d="M22.52,42.43h2.35c0.08,0,0.15-0.07,0.15-0.15v-5.72c0-0.08-0.07-0.15-0.15-0.15h-2.35
		c-0.08,0-0.15,0.07-0.15,0.15v5.72C22.37,42.37,22.44,42.43,22.52,42.43z"/>
	<polygon class="st0terrace" points="54.33,22.89 53.42,22.89 53.42,23.99 54.33,24.72 	"/>
	<path class="st0terrace" d="M71.63,21l-11.94,9.18V68.1h11.97c0-0.05-0.02-0.1-0.02-0.15V52.62c0-1.65,1.34-2.98,2.98-2.98h4.23
		c1.65,0,2.98,1.34,2.98,2.98v15.33c0,0.05-0.01,0.1-0.02,0.15h1.56V30.35L71.63,21z M61.93,36.56c0-1.65,1.34-2.98,2.98-2.98h2.34
		c1.65,0,2.98,1.34,2.98,2.98v5.72c0,1.65-1.34,2.98-2.98,2.98h-2.34c-1.65,0-2.98-1.34-2.98-2.98V36.56z M70.24,58.23
		c0,1.65-1.34,2.98-2.98,2.98h-2.34c-1.65,0-2.98-1.34-2.98-2.98v-5.72c0-1.65,1.34-2.98,2.98-2.98h2.34c1.65,0,2.98,1.34,2.98,2.98
		V58.23z M80.9,42.28c0,1.65-1.34,2.98-2.98,2.98h-2.35c-1.65,0-2.98-1.34-2.98-2.98v-5.72c0-1.65,1.34-2.98,2.98-2.98h2.35
		c1.65,0,2.98,1.34,2.98,2.98V42.28z"/>
	<path class="st0terrace" d="M52.48,67.95V52.62c0-0.08-0.07-0.15-0.15-0.15H48.1c-0.08,0-0.15,0.07-0.15,0.15v6.24
		c0.19-0.65,0.78-1.13,1.49-1.13c0.86,0,1.56,0.7,1.56,1.56s-0.7,1.56-1.56,1.56c-0.71,0-1.3-0.48-1.49-1.13v8.23
		c0,0.08,0.07,0.15,0.15,0.15h4.23C52.41,68.1,52.48,68.03,52.48,67.95z"/>
	<path class="st0terrace" d="M67.26,52.36h-2.34c-0.08,0-0.15,0.07-0.15,0.15v5.72c0,0.08,0.07,0.15,0.15,0.15h2.34
		c0.08,0,0.15-0.07,0.15-0.15v-5.72C67.41,52.43,67.34,52.36,67.26,52.36z"/>
	<path class="st0terrace" d="M64.91,42.43h2.34c0.08,0,0.15-0.07,0.15-0.15v-5.72c0-0.08-0.07-0.15-0.15-0.15h-2.34
		c-0.08,0-0.15,0.07-0.15,0.15v5.72C64.76,42.37,64.83,42.43,64.91,42.43z"/>
	<path class="st0terrace" d="M79,67.95V52.62c0-0.08-0.07-0.15-0.15-0.15h-4.23c-0.08,0-0.15,0.07-0.15,0.15v6.24
		c0.19-0.65,0.78-1.13,1.49-1.13c0.86,0,1.56,0.7,1.56,1.56s-0.7,1.56-1.56,1.56c-0.71,0-1.3-0.48-1.49-1.13v8.23
		c0,0.08,0.07,0.15,0.15,0.15h4.23C78.94,68.1,79,68.03,79,67.95z"/>
	<path class="st0terrace" d="M77.91,36.41h-2.35c-0.08,0-0.15,0.07-0.15,0.15v5.72c0,0.08,0.07,0.15,0.15,0.15h2.35
		c0.08,0,0.15-0.07,0.15-0.15v-5.72C78.06,36.48,78,36.41,77.91,36.41z"/>
	<path class="st0terrace" d="M45.12,67.95V52.62c0-1.65,1.34-2.98,2.98-2.98h4.23c1.65,0,2.98,1.34,2.98,2.98v15.33
		c0,0.05-0.01,0.1-0.02,0.15h1.56V30.35L45.1,21l-11.94,9.18V68.1h11.97C45.13,68.05,45.12,68,45.12,67.95z M46.06,36.56
		c0-1.65,1.34-2.98,2.98-2.98h2.34c1.65,0,2.98,1.34,2.98,2.98v5.72c0,1.65-1.34,2.98-2.98,2.98h-2.34c-1.65,0-2.98-1.34-2.98-2.98
		V36.56z M35.4,36.56c0-1.65,1.34-2.98,2.98-2.98h2.34c1.65,0,2.98,1.34,2.98,2.98v5.72c0,1.65-1.34,2.98-2.98,2.98h-2.34
		c-1.65,0-2.98-1.34-2.98-2.98V36.56z M43.72,58.23c0,1.65-1.34,2.98-2.98,2.98h-2.35c-1.65,0-2.98-1.34-2.98-2.98v-5.72
		c0-1.65,1.34-2.98,2.98-2.98h2.35c1.65,0,2.98,1.34,2.98,2.98V58.23z"/>
	<path class="st1terrace" d="M87.85,68.1h-1.63V29.67c0-0.43-0.2-0.84-0.54-1.11l-2-1.59v-5.49c0-0.78-0.63-1.42-1.42-1.42h-3.74
		c-0.78,0-1.42,0.63-1.42,1.42v0.26l-4.58-3.64c-0.51-0.41-1.23-0.41-1.75-0.01l-12.61,9.69l-1.01-0.8v-5.49
		c0-0.78-0.63-1.42-1.42-1.42H52c-0.78,0-1.42,0.63-1.42,1.42v0.26L46,18.09c-0.51-0.41-1.23-0.41-1.75-0.01l-12.61,9.69l-1.01-0.8
		v-5.49c0-0.78-0.63-1.42-1.42-1.42h-3.74c-0.78,0-1.42,0.63-1.42,1.42v0.26l-4.58-3.64c-0.51-0.41-1.23-0.41-1.75-0.01L4.36,28.36
		c-0.35,0.27-0.55,0.68-0.55,1.12V68.1H2.3c-0.78,0-1.42,0.63-1.42,1.42s0.63,1.42,1.42,1.42h2.92h16.35h4.23h5.94H48.1h4.23h5.94
		h16.35h4.23h5.94h3.05c0.78,0,1.42-0.63,1.42-1.42S88.63,68.1,87.85,68.1z M79.94,22.89h0.91v1.82l-0.91-0.72V22.89z M53.42,22.89
		h0.91v1.82l-0.91-0.72V22.89z M26.89,22.89h0.91v1.82l-0.91-0.72V22.89z M6.64,30.18L18.58,21l11.75,9.35V68.1h-1.56
		c0-0.05,0.02-0.1,0.02-0.15V52.62c0-1.65-1.34-2.98-2.98-2.98h-4.23c-1.65,0-2.98,1.34-2.98,2.98v15.33c0,0.05,0.01,0.1,0.02,0.15
		H6.64V30.18z M21.58,68.1c-0.08,0-0.15-0.07-0.15-0.15v-8.23c0.19,0.65,0.78,1.13,1.49,1.13c0.86,0,1.56-0.7,1.56-1.56
		s-0.7-1.56-1.56-1.56c-0.71,0-1.3,0.48-1.49,1.13v-6.24c0-0.08,0.07-0.15,0.15-0.15h4.23c0.08,0,0.15,0.07,0.15,0.15v15.33
		c0,0.08-0.07,0.15-0.15,0.15H21.58z M33.17,30.18L45.1,21l11.75,9.35V68.1H55.3c0-0.05,0.02-0.1,0.02-0.15V52.62
		c0-1.65-1.34-2.98-2.98-2.98H48.1c-1.65,0-2.98,1.34-2.98,2.98v15.33c0,0.05,0.01,0.1,0.02,0.15H33.17V30.18z M48.1,68.1
		c-0.08,0-0.15-0.07-0.15-0.15v-8.23c0.19,0.65,0.78,1.13,1.49,1.13c0.86,0,1.56-0.7,1.56-1.56s-0.7-1.56-1.56-1.56
		c-0.71,0-1.3,0.48-1.49,1.13v-6.24c0-0.08,0.07-0.15,0.15-0.15h4.23c0.08,0,0.15,0.07,0.15,0.15v15.33c0,0.08-0.07,0.15-0.15,0.15
		H48.1z M74.63,68.1c-0.08,0-0.15-0.07-0.15-0.15v-8.23c0.19,0.65,0.78,1.13,1.49,1.13c0.86,0,1.56-0.7,1.56-1.56
		s-0.7-1.56-1.56-1.56c-0.71,0-1.3,0.48-1.49,1.13v-6.24c0-0.08,0.07-0.15,0.15-0.15h4.23c0.08,0,0.15,0.07,0.15,0.15v15.33
		c0,0.08-0.07,0.15-0.15,0.15H74.63z M81.82,68.1c0-0.05,0.02-0.1,0.02-0.15V52.62c0-1.65-1.34-2.98-2.98-2.98h-4.23
		c-1.65,0-2.98,1.34-2.98,2.98v15.33c0,0.05,0.01,0.1,0.02,0.15H59.69V30.18L71.63,21l11.75,9.35V68.1H81.82z"/>
	<path class="st1terrace" d="M11.86,45.27h2.34c1.65,0,2.98-1.34,2.98-2.98v-5.72c0-1.65-1.34-2.98-2.98-2.98h-2.34
		c-1.65,0-2.98,1.34-2.98,2.98v5.72C8.88,43.93,10.22,45.27,11.86,45.27z M11.71,36.56c0-0.08,0.07-0.15,0.15-0.15h2.34
		c0.08,0,0.15,0.07,0.15,0.15v5.72c0,0.08-0.07,0.15-0.15,0.15h-2.34c-0.08,0-0.15-0.07-0.15-0.15V36.56z"/>
	<path class="st1terrace" d="M22.52,45.27h2.35c1.65,0,2.98-1.34,2.98-2.98v-5.72c0-1.65-1.34-2.98-2.98-2.98h-2.35
		c-1.65,0-2.98,1.34-2.98,2.98v5.72C19.53,43.93,20.87,45.27,22.52,45.27z M22.37,36.56c0-0.08,0.07-0.15,0.15-0.15h2.35
		c0.08,0,0.15,0.07,0.15,0.15v5.72c0,0.08-0.07,0.15-0.15,0.15h-2.35c-0.08,0-0.15-0.07-0.15-0.15V36.56z"/>
	<path class="st1terrace" d="M14.21,49.53h-2.34c-1.65,0-2.98,1.34-2.98,2.98v5.72c0,1.65,1.34,2.98,2.98,2.98h2.34
		c1.65,0,2.98-1.34,2.98-2.98v-5.72C17.19,50.86,15.85,49.53,14.21,49.53z M14.36,58.23c0,0.08-0.07,0.15-0.15,0.15h-2.34
		c-0.08,0-0.15-0.07-0.15-0.15v-5.72c0-0.08,0.07-0.15,0.15-0.15h2.34c0.08,0,0.15,0.07,0.15,0.15V58.23z"/>
	<path class="st1terrace" d="M38.39,45.27h2.34c1.65,0,2.98-1.34,2.98-2.98v-5.72c0-1.65-1.34-2.98-2.98-2.98h-2.34
		c-1.65,0-2.98,1.34-2.98,2.98v5.72C35.4,43.93,36.74,45.27,38.39,45.27z M38.24,36.56c0-0.08,0.07-0.15,0.15-0.15h2.34
		c0.08,0,0.15,0.07,0.15,0.15v5.72c0,0.08-0.07,0.15-0.15,0.15h-2.34c-0.08,0-0.15-0.07-0.15-0.15V36.56z"/>
	<path class="st1terrace" d="M49.04,45.27h2.34c1.65,0,2.98-1.34,2.98-2.98v-5.72c0-1.65-1.34-2.98-2.98-2.98h-2.34
		c-1.65,0-2.98,1.34-2.98,2.98v5.72C46.06,43.93,47.4,45.27,49.04,45.27z M48.89,36.56c0-0.08,0.07-0.15,0.15-0.15h2.34
		c0.08,0,0.15,0.07,0.15,0.15v5.72c0,0.08-0.07,0.15-0.15,0.15h-2.34c-0.08,0-0.15-0.07-0.15-0.15V36.56z"/>
	<path class="st1terrace" d="M40.73,49.53h-2.35c-1.65,0-2.98,1.34-2.98,2.98v5.72c0,1.65,1.34,2.98,2.98,2.98h2.35
		c1.65,0,2.98-1.34,2.98-2.98v-5.72C43.72,50.86,42.38,49.53,40.73,49.53z M40.88,58.23c0,0.08-0.07,0.15-0.15,0.15h-2.35
		c-0.08,0-0.15-0.07-0.15-0.15v-5.72c0-0.08,0.07-0.15,0.15-0.15h2.35c0.08,0,0.15,0.07,0.15,0.15V58.23z"/>
	<path class="st1terrace" d="M64.91,45.27h2.34c1.65,0,2.98-1.34,2.98-2.98v-5.72c0-1.65-1.34-2.98-2.98-2.98h-2.34
		c-1.65,0-2.98,1.34-2.98,2.98v5.72C61.93,43.93,63.27,45.27,64.91,45.27z M64.76,36.56c0-0.08,0.07-0.15,0.15-0.15h2.34
		c0.08,0,0.15,0.07,0.15,0.15v5.72c0,0.08-0.07,0.15-0.15,0.15h-2.34c-0.08,0-0.15-0.07-0.15-0.15V36.56z"/>
	<path class="st1terrace" d="M77.91,33.58h-2.35c-1.65,0-2.98,1.34-2.98,2.98v5.72c0,1.65,1.34,2.98,2.98,2.98h2.35
		c1.65,0,2.98-1.34,2.98-2.98v-5.72C80.9,34.92,79.56,33.58,77.91,33.58z M78.06,42.28c0,0.08-0.07,0.15-0.15,0.15h-2.35
		c-0.08,0-0.15-0.07-0.15-0.15v-5.72c0-0.08,0.07-0.15,0.15-0.15h2.35c0.08,0,0.15,0.07,0.15,0.15V42.28z"/>
	<path class="st1terrace" d="M67.26,49.53h-2.34c-1.65,0-2.98,1.34-2.98,2.98v5.72c0,1.65,1.34,2.98,2.98,2.98h2.34
		c1.65,0,2.98-1.34,2.98-2.98v-5.72C70.24,50.86,68.9,49.53,67.26,49.53z M67.41,58.23c0,0.08-0.07,0.15-0.15,0.15h-2.34
		c-0.08,0-0.15-0.07-0.15-0.15v-5.72c0-0.08,0.07-0.15,0.15-0.15h2.34c0.08,0,0.15,0.07,0.15,0.15V58.23z"/>
</g>
</svg>
