<svg version="1.1" id="Layer_1" xmlns="http://www.w3.org/2000/svg" xmlns:xlink="http://www.w3.org/1999/xlink" x="0px" y="0px"
	 viewBox="0 0 90 90" style="enable-background:new 0 0 90 90;" xml:space="preserve">
<style type="text/css">
	.st0ensuite{fill:#FFFFFF;}
	.st1ensuite{fill:#A38244;}
</style>
<g>
	<path class="st0ensuite" d="M4.62,45.87v3.48h19.19c1.17,0,2.13,0.95,2.13,2.13s-0.95,2.13-2.13,2.13H9.66l1.59,5.45h57.43
		c1.17,0,2.13,0.95,2.13,2.13s-0.95,2.13-2.13,2.13H12.49l2.59,8.89c0.4,1.31,1.62,2.2,3.02,2.2h45.28c0,0,0,0,0.01,0h8.72
		c1.4,0,2.65-0.94,3.04-2.28l5.24-18.52H35.77c-1.17,0-2.13-0.95-2.13-2.13s0.95-2.13,2.13-2.13h49.78v-3.48
		C85.55,45.87,4.62,45.87,4.62,45.87z M28.63,49.35h2.45c1.17,0,2.13,0.95,2.13,2.13s-0.95,2.13-2.13,2.13h-2.45
		c-1.17,0-2.13-0.95-2.13-2.13S27.45,49.35,28.63,49.35z"/>
	<path class="st1ensuite" d="M41.27,8.97c0.25,0,0.46-0.21,0.46-0.46s-0.21-0.46-0.46-0.46S40.8,8.26,40.8,8.51S41.01,8.97,41.27,8.97z"/>
	<path class="st1ensuite" d="M81.88,20.58c0.25,0,0.46-0.21,0.46-0.46s-0.21-0.46-0.46-0.46s-0.46,0.21-0.46,0.46S81.62,20.58,81.88,20.58z
		"/>
	<path class="st1ensuite" d="M16.32,18.38v1.55h7.35v-1.55c0-2.03-1.65-3.68-3.68-3.68S16.32,16.35,16.32,18.38z"/>
	<path class="st1ensuite" d="M87.68,41.62H36.03c0.04-0.16,0.07-0.33,0.07-0.5c0-2.85,2.32-5.17,5.17-5.17c1.5,0,2.92,0.65,3.91,1.8
		c0.49,0.57,1.24,0.84,1.98,0.7c0.74-0.13,1.35-0.65,1.62-1.35c0.75-2.02,2.7-3.37,4.84-3.37c1.04,0,2.04,0.31,2.9,0.89
		c0.52,0.35,1.17,0.46,1.78,0.28c0.61-0.17,1.1-0.61,1.36-1.19c1.51-3.44,4.92-5.67,8.67-5.67c5.23,0,9.48,4.25,9.48,9.48
		c0,1.17,0.95,2.13,2.13,2.13s2.13-0.95,2.13-2.13c0-7.57-6.16-13.73-13.73-13.73c-4.69,0-9,2.39-11.5,6.24
		c-1.02-0.37-2.11-0.56-3.21-0.56c-2.93,0-5.66,1.39-7.42,3.62c-1.47-0.91-3.18-1.4-4.94-1.4c-5.2,0-9.43,4.23-9.43,9.43
		c0,0.17,0.03,0.34,0.07,0.5H10.52V12.58c0-2.03,1.65-3.68,3.68-3.68c1.41,0,2.63,0.81,3.24,1.98c-3.12,1.07-5.37,4.02-5.37,7.5
		v3.67c0,1.17,0.95,2.13,2.13,2.13h11.6c1.17,0,2.13-0.95,2.13-2.13v-3.67c0-3.72-2.58-6.84-6.04-7.69
		c-0.85-3.46-3.97-6.04-7.69-6.04c-3.6,0-6.64,2.41-7.6,5.71c-0.2,0.32-0.32,0.7-0.32,1.11v30.15H2.5c-1.17,0-2.13,0.95-2.13,2.13
		v7.74c0,1.17,0.95,2.13,2.13,2.13h2.74l5.77,19.81c0.97,3.13,3.82,5.23,7.09,5.23h7.84l-3.07,3.07c-0.83,0.83-0.83,2.18,0,3.01
		c0.42,0.42,0.96,0.62,1.5,0.62s1.09-0.21,1.5-0.62l6.08-6.08H62.5l6.08,6.08c0.42,0.42,0.96,0.62,1.5,0.62s1.09-0.21,1.5-0.62
		c0.83-0.83,0.83-2.18,0-3.01l-3.07-3.07h3.59c3.27,0,6.2-2.19,7.13-5.35l5.57-19.7h2.87c1.17,0,2.13-0.95,2.13-2.13v-7.74
		C89.8,42.57,88.85,41.62,87.68,41.62z M23.67,18.38v1.55h-7.35v-1.55c0-2.03,1.65-3.68,3.68-3.68S23.67,16.35,23.67,18.38z
		 M85.55,49.35H35.77c-1.17,0-2.13,0.95-2.13,2.13s0.95,2.13,2.13,2.13h44.62l-5.24,18.52c-0.39,1.34-1.65,2.28-3.04,2.28h-8.72
		c0,0,0,0-0.01,0H18.1c-1.4,0-2.62-0.9-3.02-2.2l-2.59-8.89h56.19c1.17,0,2.13-0.95,2.13-2.13s-0.95-2.13-2.13-2.13H11.25
		l-1.59-5.45h14.15c1.17,0,2.13-0.95,2.13-2.13s-0.95-2.13-2.13-2.13H4.62v-3.48h80.93V49.35z"/>
	<path class="st1ensuite" d="M28.63,53.61h2.45c1.17,0,2.13-0.95,2.13-2.13s-0.95-2.13-2.13-2.13h-2.45c-1.17,0-2.13,0.95-2.13,2.13
		S27.45,53.61,28.63,53.61z"/>
	<path class="st1ensuite" d="M14,27.27v6.25c0,1.17,0.95,2.13,2.13,2.13s2.13-0.95,2.13-2.13v-6.25c0-1.17-0.95-2.13-2.13-2.13
		S14,26.1,14,27.27z"/>
	<path class="st1ensuite" d="M19.8,31.2v6.42c0,1.17,0.95,2.13,2.13,2.13s2.13-0.95,2.13-2.13V31.2c0-1.17-0.95-2.13-2.13-2.13
		S19.8,30.03,19.8,31.2z"/>
	<path class="st1ensuite" d="M41.27,12.3c2.09,0,3.79-1.7,3.79-3.79s-1.7-3.79-3.79-3.79s-3.79,1.7-3.79,3.79S39.18,12.3,41.27,12.3z
		 M41.27,8.05c0.25,0,0.46,0.21,0.46,0.46s-0.21,0.46-0.46,0.46s-0.47-0.2-0.47-0.46S41.01,8.05,41.27,8.05z"/>
	<path class="st1ensuite" d="M81.88,23.9c2.09,0,3.79-1.7,3.79-3.79s-1.7-3.79-3.79-3.79s-3.79,1.7-3.79,3.79
		C78.08,22.2,79.79,23.9,81.88,23.9z M81.88,19.65c0.25,0,0.46,0.21,0.46,0.46s-0.21,0.46-0.46,0.46s-0.46-0.21-0.46-0.46
		S81.62,19.65,81.88,19.65z"/>
</g>
</svg>
