<svg viewBox="0 0 20 20" version="1.1" xmlns="http://www.w3.org/2000/svg" xmlns:xlink="http://www.w3.org/1999/xlink">
    <g id="Desktop" stroke="none" stroke-width="1" fill="none" fill-rule="evenodd">
        <g id="Home-Page" transform="translate(-1307.000000, -3369.000000)" fill="#FFFFFF">
            <g id="Footer" transform="translate(0.000000, 3230.000000)">
                <g id="Group-8" transform="translate(1307.000000, 139.000000)">
                    <path fill="currentColor" d="M8.43745801,20 C3.65936674,19.2443563 0,15.0793043 0,10.0610553 C0,4.50795296 4.48072014,0 10,0 C15.5190559,0 20,4.50795296 20,10.0610553 C20,15.0793043 16.3404093,19.2443563 11.5623181,20 L11.5623181,12.9694048 L13.8924717,12.9694048 L14.3358413,10.0610553 L11.5623181,10.0610553 L11.5623181,8.17374848 C11.5623181,7.37822737 11.9499306,6.60253233 13.1920373,6.60253233 L14.4529536,6.60253233 L14.4529536,4.12652638 C14.4529536,4.12652638 13.3087017,3.93006804 12.2146088,3.93006804 C9.93035962,3.93006804 8.43745801,5.32284955 8.43745801,7.84436534 L8.43745801,10.0610553 L5.89838327,10.0610553 L5.89838327,12.9694048 L8.43745801,12.9694048 L8.43745801,20 Z M11.1542308,19.6153846 L11.1080769,19.6184615 L11.1580769,19.6153846 L11.1996154,19.6123077 L11.1542308,19.6153846 Z M8.84269231,19.6153846 L8.89192308,19.6184615 L8.84576923,19.6153846 L8.80038462,19.6123077 L8.84269231,19.6153846 Z M9.61961538,19.6161538 L9.66269231,19.6176923 L9.61346154,19.6161538 L9.56807692,19.6130769 L9.61961538,19.6161538 Z M10.3861538,19.6161538 L10.3376923,19.6176923 L10.3807692,19.6161538 L10.4315385,19.6130769 L10.3861538,19.6161538 Z" id="Fill-6"></path>
                </g>
            </g>
        </g>
    </g>
</svg>