<?xml version="1.0" encoding="utf-8"?>
<!-- Generator: Adobe Illustrator 25.0.1, SVG Export Plug-In . SVG Version: 6.00 Build 0)  -->
<svg version="1.1" id="Layer_1" xmlns="http://www.w3.org/2000/svg" xmlns:xlink="http://www.w3.org/1999/xlink" x="0px" y="0px"
	 viewBox="0 0 90 90" style="enable-background:new 0 0 90 90;" xml:space="preserve">
<style type="text/css">
	.st0{fill:#A38244;}
</style>
<g>
	<path class="st0" d="M58.47,26.52c0.79,0,1.43,0.64,1.43,1.43v1.43h2.86v-1.43c0-2.36-1.92-4.28-4.28-4.28s-4.28,1.92-4.28,4.28
		v1.43h2.86v-1.43C57.04,27.16,57.68,26.52,58.47,26.52z"/>
	<path class="st0" d="M69.9,23.66c-2.36,0-4.28,1.92-4.28,4.28v1.43h2.86v-1.43c0-0.79,0.64-1.43,1.43-1.43s1.43,0.64,1.43,1.43
		v1.43h2.86v-1.43C74.18,25.59,72.26,23.66,69.9,23.66z"/>
	<path class="st0" d="M68.47,34.86c-0.62,1.85-2.34,3.09-4.28,3.09s-3.67-1.24-4.28-3.09l-0.07-0.22l-2.71,0.91l0.07,0.22
		c1,3.02,3.81,5.04,6.99,5.04s5.99-2.03,6.99-5.04l0.07-0.22l-2.71-0.91L68.47,34.86z"/>
	<circle class="st0" cx="19.91" cy="25.09" r="1.43"/>
	<circle class="st0" cx="31.34" cy="25.09" r="1.43"/>
	<path class="st0" d="M18.48,30.8c0,3.94,3.2,7.14,7.14,7.14s7.14-3.2,7.14-7.14v-1.43H18.48V30.8z M29.67,32.23
		c-0.59,1.66-2.18,2.86-4.04,2.86c-1.86,0-3.45-1.19-4.04-2.86H29.67z"/>
	<path class="st0" d="M77.2,51.25l-2.27-0.76c-1.46-0.48-2.54-1.72-2.85-3.22l-0.29-1.44c3.28-1.28,5.77-4.26,6.29-7.9l0.41-2.84
		h1.41c3.15,0,5.71-2.56,5.71-5.71c0-1.23-0.4-2.36-1.07-3.3l2.85-15.65l-7.76,1.55l-1.48-8.86l-7.91,3.17l-6.06-6.06l-6.06,6.06
		l-7.91-3.17l-1.48,8.86l-6.15-1.23c-2.13-4.23-6.49-7.08-11.48-7.08H20.14c-6.56,0-12.05,4.92-12.77,11.43L4.25,43.15
		c-0.03,0.29-0.05,0.58-0.05,0.86c0,2.97,1.65,5.64,4.3,6.96C4,54.47,1.35,59.8,1.35,65.6v2.33c0,11.81,9.61,21.42,21.42,21.42
		h67.12V68.86C89.89,60.86,84.79,53.78,77.2,51.25z M87.03,68.86v0.5h-5.71v-5.71h-2.86V86.5H61.24c-0.55-5.14-4.03-9.54-9.02-11.2
		l-3.98-1.33l-0.74-2.95c2.73-1.48,4.68-4.18,5.14-7.37h0.11c2.12,0,3.94-1.17,4.93-2.88l0.56,0.84l5.94-5.93l5.93,5.94l5.29-7.94
		l0.88,0.29C82.72,56.1,87.03,62.09,87.03,68.86z M12.77,64.05l3.73,1.49l1.21-3.62c0.35-1.04,1.05-1.92,1.98-2.5
		c1.68-1.04,2.77-2.75,3.03-4.76c0.54,0.15,1.09,0.27,1.65,0.34c0.05,0.34,0.12,0.68,0.19,1.02c-0.22,0.6-0.36,1.24-0.36,1.92
		c0,3.15,2.56,5.71,5.71,5.71h0.11c0.46,3.19,2.41,5.89,5.14,7.37l-0.74,2.95l-3.57,1.19l0,0.01c-1.26,0.22-2.37,0.98-2.96,2.16
		l-0.3,0.6h-4.83c-5.51,0-10-4.48-10-10V64.05z M48.66,26.52l0.82,5.71h-1.01c-1.58,0-2.86-1.28-2.86-2.86s1.28-2.86,2.86-2.86
		H48.66z M71,51.23c0.49,0.54,1.06,0.99,1.7,1.36l-3.02,4.54l-3.19-3.19L71,51.23z M52.76,55.08c1.58,0,2.86,1.28,2.86,2.86
		s-1.28,2.86-2.86,2.86V55.08z M58.26,56.47c-0.04-0.15-0.09-0.3-0.14-0.45c0.22-1.03,0.35-2.08,0.35-3.13
		c0-0.35-0.03-0.69-0.05-1.03l3.46,2.08l-3.19,3.19L58.26,56.47z M46.04,34.52c0.74,0.35,1.56,0.57,2.43,0.57h1.41l0.41,2.84
		c0.09,0.66,0.26,1.29,0.47,1.89c-1.33-0.74-2.78-1.28-4.31-1.59L46.04,34.52z M55.62,52.89c0,0.04-0.01,0.08-0.01,0.13
		c-0.84-0.49-1.81-0.79-2.85-0.79h-1.25c-2.63-0.66-4.46-3-4.46-5.71h-2.86c0,3.7,2.3,6.95,5.71,8.2v7.51c0,3.94-3.2,7.14-7.14,7.14
		h-2.86c-3.94,0-7.14-3.2-7.14-7.14v-8.74c0-1.85,1.18-3.48,2.93-4.06l0.38-0.13l-0.9-2.71l-0.38,0.13
		c-2.51,0.84-4.31,2.97-4.76,5.51h-0.12c-1.04,0-2.01,0.3-2.85,0.79c0-0.04-0.01-0.08-0.01-0.13c0-6.66,5.42-12.09,12.09-12.09h4.39
		C50.19,40.8,55.62,46.22,55.62,52.89z M47.16,76.62l0.82,0.27l-0.49,1.96l-2.67-1.07L47.16,76.62z M45.38,74.31l-4.05,2.03
		l-4.05-2.03l0.58-2.3c0.66,0.14,1.34,0.21,2.05,0.21h2.86c0.7,0,1.39-0.07,2.05-0.21L45.38,74.31z M29.91,60.8
		c-1.58,0-2.86-1.28-2.86-2.86s1.28-2.86,2.86-2.86V60.8z M27.8,40.35c-1.38,0.59-2.97,0.59-4.36,0c-4.75-2.04-7.82-6.69-7.82-11.86
		v-5.16c0-1.78,1.12-3.39,2.78-4.01l4.74-1.78c1.15,1.29,2.77,2.16,4.62,2.34l3.99,0.4c2.2,0.22,3.86,2.05,3.86,4.26v3.95
		C35.62,33.66,32.55,38.31,27.8,40.35z M20.77,44.42l1.2-1.61c0.12,0.05,0.23,0.11,0.34,0.16c1.05,0.45,2.16,0.68,3.3,0.68
		c0.67,0,1.33-0.09,1.98-0.25c-1.97,2.39-3.19,5.4-3.36,8.68c-0.71-0.13-1.4-0.36-2.05-0.67c-0.26-0.5-0.57-0.97-0.99-1.37
		c-0.82-0.79-1.28-1.9-1.28-3.03C19.91,46.06,20.21,45.17,20.77,44.42z M35.51,76.62l2.34,1.17l-0.84,0.34
		c-0.45-0.11-0.91-0.19-1.39-0.19h-0.19c-0.13-0.4-0.31-0.77-0.55-1.11L35.51,76.62z M41.27,79.5l0.07,0.03l0.07-0.03l8.06,3.23
		l1.23-4.93l0.63,0.21c3.82,1.27,6.5,4.59,7.04,8.5H40.54c0.49-0.84,0.79-1.81,0.79-2.86c0-1.39-0.52-2.64-1.34-3.64L41.27,79.5z
		 M69.27,47.83c0.06,0.33,0.15,0.64,0.26,0.95l-5.35,3.21l-5.38-3.23c0.11-0.31,0.23-0.61,0.29-0.93l0.27-1.35
		c0.27,0.02,0.55,0.04,0.83,0.04h7.99c0.28,0,0.55-0.02,0.83-0.04L69.27,47.83z M77.01,25.19l-1.76,12.34
		c-0.5,3.49-3.54,6.13-7.07,6.13h-7.99c-3.53,0-6.57-2.64-7.07-6.13l-1.76-12.35c-0.02-0.13-0.03-0.25-0.03-0.38
		c0-1.04,0.58-1.97,1.5-2.43l7.06-3.53c1.48,1.4,3.43,2.32,5.6,2.48l8.9,0.64c1.48,0.11,2.64,1.35,2.64,2.84
		C77.04,24.92,77.03,25.06,77.01,25.19z M79.89,32.23h-1.01l0.82-5.71h0.19c1.58,0,2.86,1.28,2.86,2.86S81.47,32.23,79.89,32.23z
		 M51.07,15.36l1.38-8.27l6.37,2.55l5.37-5.37l5.37,5.37l6.37-2.55l1.38,8.27l6.53-1.31L82,24.08c-0.65-0.26-1.36-0.41-2.11-0.41
		h-0.12c-0.5-2.46-2.59-4.38-5.18-4.56l-2.32-0.17c-2.35-1.41-3.81-3.94-3.81-6.69h-2.86c0,2.34,0.78,4.56,2.13,6.37l-2.04-0.15
		c-3.25-0.23-5.8-2.97-5.8-6.23h-2.86c0,1.54,0.39,3,1.08,4.29l-6.57,3.28c-1.55,0.78-2.61,2.2-2.95,3.85h-0.13
		c-0.75,0-1.46,0.15-2.11,0.41l-1.82-10.03L51.07,15.36z M7.09,43.47l3.12-28.05c0.56-5.07,4.83-8.89,9.94-8.89h10.97
		c5.1,0,9.37,3.82,9.94,8.89l2.5,22.53c-0.01,0-0.01,0-0.02,0h-4.39c-1.51,0-2.96,0.23-4.34,0.65c2.32-2.78,3.67-6.33,3.67-10.1
		v-3.95c0-3.68-2.76-6.74-6.43-7.11l-3.99-0.4c-2.2-0.22-3.86-2.05-3.86-4.26v-3.4h-2.86v3.4c0,0.79,0.13,1.55,0.36,2.26l-4.3,1.61
		c-2.77,1.04-4.63,3.73-4.63,6.69v5.16c0,5.21,2.56,9.98,6.71,12.89l-0.99,1.32c-0.94,1.25-1.43,2.74-1.43,4.3
		c0,1.9,0.78,3.76,2.17,5.1c0.44,0.43,0.69,1.02,0.69,1.78c0,1.27-0.65,2.43-1.73,3.1c-1.5,0.92-2.63,2.35-3.18,4.02l-0.25,0.75
		l-3.26-1.31c-0.95-0.38-1.57-1.29-1.57-2.32c0-0.67,0.26-1.29,0.73-1.77l0.9-0.9c0.79-0.79,1.23-1.85,1.23-2.97
		c0-1.6-0.89-3.04-2.32-3.75l-0.67-0.33c-1.68-0.84-2.73-2.53-2.73-4.41C7.06,43.83,7.07,43.65,7.09,43.47z M4.2,65.6
		c0-3.6,1.22-6.97,3.35-9.69c-0.32,0.69-0.5,1.44-0.5,2.22c0,2.01,1.11,3.8,2.86,4.72v5.08c0,0.07,0.01,0.14,0.01,0.22L4.26,69.1
		c-0.03-0.39-0.06-0.77-0.06-1.16V65.6z M22.77,86.5c-8.87,0-16.29-6.25-18.12-14.57l5.65-0.94c1.37,5.62,6.44,9.8,12.47,9.8h6.59
		l1.09-2.18c0.21-0.42,0.63-0.68,1.09-0.68c0.67,0,1.22,0.55,1.22,1.22v1.64h2.86c1.58,0,2.86,1.28,2.86,2.86s-1.28,2.86-2.86,2.86
		H22.77z M81.32,86.5V72.22h5.71V86.5H81.32z"/>
	<circle class="st0" cx="37.05" cy="56.51" r="1.43"/>
	<circle class="st0" cx="45.62" cy="56.51" r="1.43"/>
	<path class="st0" d="M41.33,63.65c-1.22,0-2.31-0.68-2.86-1.77l-0.15-0.3l-2.55,1.28l0.15,0.3c1.03,2.06,3.1,3.34,5.41,3.34
		c2.31,0,4.38-1.28,5.41-3.34l0.15-0.3l-2.55-1.28l-0.15,0.3C43.65,62.97,42.55,63.65,41.33,63.65z"/>
	<path class="st0" d="M41.33,46.51h-2.86v1.67c0,2.99,1.16,5.79,3.27,7.91l2.02-2.02c-1.57-1.57-2.44-3.66-2.44-5.89V46.51z"/>
</g>
</svg>
