<svg version="1.1" id="Layer_1" xmlns="http://www.w3.org/2000/svg" xmlns:xlink="http://www.w3.org/1999/xlink" x="0px" y="0px"
	 viewBox="0 0 90 90" style="enable-background:new 0 0 90 90;" xml:space="preserve">
<style type="text/css">
	.st0ceilgin{fill:none;}
	.st1ceiling{fill:#A38244;}
</style>
<g>
	<polygon class="st0ceilgin" points="58.01,17.56 42.15,4.94 25.74,17.56 	"/>
	<polygon class="st0ceilgin" points="58.08,8.23 55.98,8.23 55.98,10.51 58.08,12.18 	"/>
	<path class="st0ceilgin" d="M52.81,37.25h0.87C53.4,37.19,53.09,37.19,52.81,37.25z"/>
	<rect x="21.61" y="53.77" class="st0ceilgin" width="18.25" height="31.73"/>
	<polygon class="st0ceilgin" points="21.61,49.52 39.87,49.52 39.87,44.94 39.87,21.81 21.61,21.81 	"/>
	<path class="st0ceilgin" d="M55.37,21.81v11.51c2.5,0.88,4.29,3.26,4.29,6.05c0,1.17-0.95,2.13-2.13,2.13h-8.59
		c-1.17,0-2.13-0.95-2.13-2.13c0-2.79,1.8-5.17,4.3-6.05V21.81h-7v23.12v6.71V85.5h18.25V21.81H55.37z"/>
	<path class="st1ceiling" d="M80.15,85.5H66.63V20c0-0.05-0.01-0.1-0.02-0.15c0-0.06,0.02-0.11,0.02-0.17c0-1.04-0.75-1.9-1.73-2.09
		l-2.56-2.04V6.1c0-1.17-0.95-2.13-2.13-2.13h-6.36c-1.17,0-2.13,0.95-2.13,2.13v1.02L43.5,0.58c-0.76-0.61-1.85-0.62-2.62-0.02
		L18.19,18c-0.03,0.02-0.05,0.05-0.08,0.07c-0.08,0.06-0.15,0.13-0.21,0.21c-0.04,0.04-0.07,0.09-0.11,0.13
		c-0.06,0.08-0.11,0.16-0.16,0.25c-0.03,0.05-0.05,0.09-0.08,0.14c-0.05,0.1-0.08,0.2-0.11,0.31c-0.01,0.04-0.03,0.08-0.04,0.12
		c-0.03,0.15-0.05,0.3-0.05,0.46V85.5h-4.82c-1.17,0-2.13,0.95-2.13,2.13s0.95,2.13,2.13,2.13h6.94H64.5h15.65
		c1.17,0,2.13-0.95,2.13-2.13S81.33,85.5,80.15,85.5z M55.98,8.23h2.1v3.95l-2.1-1.67V8.23z M42.15,4.94l15.86,12.61H25.74
		L42.15,4.94z M53.68,37.25h-0.87C53.09,37.19,53.4,37.19,53.68,37.25z M39.87,44.94v4.58H21.61V21.81h18.25V44.94z M21.61,53.77
		h18.25V85.5H21.61V53.77z M44.12,85.5V51.64v-6.71V21.81h7v11.51c-2.5,0.88-4.3,3.26-4.3,6.05c0,1.17,0.95,2.13,2.13,2.13h8.59
		c1.17,0,2.13-0.95,2.13-2.13c0-2.79-1.8-5.17-4.29-6.05V21.81h7V85.5H44.12z"/>
	<path class="st1ceiling" d="M70.84,78.72c-0.83,0.83-0.83,2.18,0,3.01l2.69,2.69c0.42,0.42,0.96,0.62,1.5,0.62s1.09-0.21,1.5-0.62
		l2.69-2.69c0.83-0.83,0.83-2.18,0-3.01c-0.56-0.56-1.36-0.73-2.07-0.54V25.2c0.19,0.05,0.38,0.09,0.57,0.09
		c0.54,0,1.09-0.21,1.5-0.62c0.83-0.83,0.83-2.18,0-3.01l-2.69-2.69c-0.4-0.4-0.94-0.62-1.5-0.62c-0.56,0-1.1,0.22-1.5,0.62
		l-2.69,2.69c-0.83,0.83-0.83,2.18,0,3.01c0.56,0.56,1.36,0.73,2.07,0.54v52.98C72.2,77.99,71.41,78.16,70.84,78.72z"/>
</g>
</svg>
