<svg version="1.1" id="Layer_1" xmlns="http://www.w3.org/2000/svg" xmlns:xlink="http://www.w3.org/1999/xlink" x="0px" y="0px"
	 viewBox="0 0 90 90" style="enable-background:new 0 0 90 90;" xml:space="preserve">
<path fill="#A38244" d="M88.9,41.4c0,0,0-0.1,0-0.1c0-0.1-0.1-0.2-0.1-0.3c0,0,0-0.1-0.1-0.1c-0.1-0.1-0.1-0.2-0.2-0.3
	c0,0,0-0.1-0.1-0.1c-0.1-0.1-0.2-0.2-0.4-0.3c0,0,0,0,0,0c0,0-0.1,0-0.1,0c-0.1,0-0.2-0.1-0.2-0.1L45.4,22.1c-0.5-0.2-1.1-0.2-1.7,0
	L1.7,39.8c-0.1,0-0.2,0.1-0.3,0.1c0,0-0.1,0-0.1,0c0,0,0,0,0,0c-0.1,0.1-0.3,0.2-0.4,0.3c0,0,0,0.1-0.1,0.1
	c-0.1,0.1-0.2,0.2-0.2,0.3c0,0,0,0.1-0.1,0.1c-0.1,0.1-0.1,0.2-0.1,0.3c0,0,0,0.1,0,0.1c0,0.2-0.1,0.3-0.1,0.5v8.7
	c0,0.8,0.5,1.6,1.2,1.9l42.1,19.9c0.1,0,0.1,0,0.2,0.1c0.1,0,0.1,0,0.2,0.1c0.2,0,0.4,0.1,0.5,0.1c0.2,0,0.4,0,0.5-0.1
	c0.1,0,0.1,0,0.2,0c0.1,0,0.1,0,0.2-0.1l42.2-18.9c0.8-0.3,1.3-1.1,1.3-1.9l0-9.6C88.9,41.7,88.9,41.5,88.9,41.4z M44.6,26.4
	l36.9,15.6L44.7,58.4L7.8,41.8L44.6,26.4z M4.6,45.1l37.9,17V67L4.6,49.1V45.1z M84.6,50.1l-37.9,17l0-4.9l37.9-17L84.6,50.1z"/>
</svg>
