<?xml version="1.0" encoding="utf-8"?>
<!-- Generator: Adobe Illustrator 25.0.1, SVG Export Plug-In . SVG Version: 6.00 Build 0)  -->
<svg version="1.1" id="Layer_1" xmlns="http://www.w3.org/2000/svg" xmlns:xlink="http://www.w3.org/1999/xlink" x="0px" y="0px"
	 viewBox="0 0 90 90" style="enable-background:new 0 0 90 90;" xml:space="preserve">
<style type="text/css">
	.st0french{fill:none;}
	.st1french{fill:#A38244;}
</style>
<g>
	<rect x="30.08" y="45.53" class="st0french" width="7.42" height="10.42"/>
	<rect x="18.63" y="45.53" class="st0french" width="7.2" height="10.42"/>
	<rect x="53.2" y="65.82" class="st0french" width="18.87" height="13.49"/>
	<path class="st0french" d="M43.22,11.51h-30.2v73.97h30.2V11.51z M41.75,81.44c0,1.17-0.95,2.13-2.13,2.13H16.5
		c-1.17,0-2.13-0.95-2.13-2.13V63.7c0-1.17,0.95-2.13,2.13-2.13h23.12c1.17,0,2.13,0.95,2.13,2.13
		C41.75,63.7,41.75,81.44,41.75,81.44z M41.75,58.08c0,1.17-0.95,2.13-2.13,2.13H16.5c-1.17,0-2.13-0.95-2.13-2.13V14.54
		c0-1.17,0.95-2.13,2.13-2.13h23.12c1.17,0,2.13,0.95,2.13,2.13C41.75,14.54,41.75,58.08,41.75,58.08z"/>
	<rect x="18.63" y="16.67" class="st0french" width="7.2" height="10.41"/>
	<rect x="53.31" y="31.33" class="st0french" width="7.2" height="9.94"/>
	<rect x="18.63" y="65.82" class="st0french" width="18.87" height="13.49"/>
	<rect x="30.08" y="16.67" class="st0french" width="7.42" height="10.41"/>
	<rect x="30.08" y="31.33" class="st0french" width="7.42" height="9.94"/>
	<rect x="18.63" y="31.33" class="st0french" width="7.2" height="9.94"/>
	<rect x="64.76" y="45.53" class="st0french" width="7.42" height="10.42"/>
	<path class="st0french" d="M47.47,11.51v73.97h30.05V11.51H47.47z M76.32,81.44c0,1.17-0.95,2.13-2.13,2.13H51.07
		c-1.17,0-2.13-0.95-2.13-2.13V63.7c0-1.17,0.95-2.13,2.13-2.13h23.12c1.17,0,2.13,0.95,2.13,2.13V81.44z M76.43,58.08
		c0,1.17-0.95,2.13-2.13,2.13H51.18c-1.17,0-2.13-0.95-2.13-2.13V14.54c0-1.17,0.95-2.13,2.13-2.13H74.3c1.17,0,2.13,0.95,2.13,2.13
		V58.08z"/>
	<rect x="53.31" y="45.53" class="st0french" width="7.2" height="10.42"/>
	<path class="st0french" d="M6.64,85.48h2.14V9.39c0-1.17,0.95-2.13,2.13-2.13h68.75c1.17,0,2.13,0.95,2.13,2.13v76.09h1.58V4.93H6.64
		V85.48z"/>
	<rect x="64.76" y="31.33" class="st0french" width="7.42" height="9.94"/>
	<rect x="64.76" y="16.67" class="st0french" width="7.42" height="10.41"/>
	<rect x="53.31" y="16.67" class="st0french" width="7.2" height="10.41"/>
	<path class="st1french" d="M85.49,0.68H4.51c-1.17,0-2.13,0.95-2.13,2.13v84.8c0,1.17,0.95,2.13,2.13,2.13h6.39h68.75h5.84
		c1.17,0,2.13-0.95,2.13-2.13V2.81C87.61,1.63,86.66,0.68,85.49,0.68z M13.03,85.48V11.51h30.2v73.97H13.03z M47.47,85.48V11.51
		h30.05v73.97H47.47z M83.36,85.48h-1.58V9.39c0-1.17-0.95-2.13-2.13-2.13H10.9c-1.17,0-2.13,0.95-2.13,2.13v76.09H6.64V4.93h76.72
		V85.48z"/>
	<path class="st1french" d="M74.3,12.42H51.18c-1.17,0-2.13,0.95-2.13,2.13v43.53c0,1.17,0.95,2.13,2.13,2.13H74.3
		c1.17,0,2.13-0.95,2.13-2.13V14.54C76.43,13.37,75.48,12.42,74.3,12.42z M53.31,31.33h7.2v9.94h-7.2V31.33z M64.76,31.33h7.42v9.94
		h-7.42V31.33z M72.18,27.08h-7.42V16.67h7.42V27.08z M60.51,16.67v10.41h-7.2V16.67H60.51z M53.31,45.53h7.2v10.42h-7.2V45.53z
		 M64.76,55.95V45.53h7.42v10.42C72.18,55.95,64.76,55.95,64.76,55.95z"/>
	<path class="st1french" d="M39.62,61.57H16.5c-1.17,0-2.13,0.95-2.13,2.13v17.74c0,1.17,0.95,2.13,2.13,2.13h23.12
		c1.17,0,2.13-0.95,2.13-2.13V63.7C41.75,62.52,40.8,61.57,39.62,61.57z M37.5,79.31H18.63V65.82H37.5V79.31z"/>
	<path class="st1french" d="M74.19,61.57H51.07c-1.17,0-2.13,0.95-2.13,2.13v17.74c0,1.17,0.95,2.13,2.13,2.13h23.12
		c1.17,0,2.13-0.95,2.13-2.13V63.7C76.32,62.52,75.37,61.57,74.19,61.57z M72.07,79.31H53.2V65.82h18.87V79.31z"/>
	<path class="st1french" d="M39.62,12.42H16.5c-1.17,0-2.13,0.95-2.13,2.13v43.53c0,1.17,0.95,2.13,2.13,2.13h23.12
		c1.17,0,2.13-0.95,2.13-2.13V14.54C41.75,13.37,40.8,12.42,39.62,12.42z M18.63,31.33h7.2v9.94h-7.2
		C18.63,41.27,18.63,31.33,18.63,31.33z M30.08,31.33h7.42v9.94h-7.42V31.33z M37.5,27.08h-7.42V16.67h7.42V27.08z M25.83,16.67
		v10.41h-7.2V16.67H25.83z M18.63,45.53h7.2v10.42h-7.2C18.63,55.95,18.63,45.53,18.63,45.53z M30.08,55.95V45.53h7.42v10.42
		C37.5,55.95,30.08,55.95,30.08,55.95z"/>
</g>
</svg>
