<?xml version="1.0" encoding="utf-8"?>
<!-- Generator: Adobe Illustrator 25.0.1, SVG Export Plug-In . SVG Version: 6.00 Build 0)  -->
<svg version="1.1" id="Layer_1" xmlns="http://www.w3.org/2000/svg" xmlns:xlink="http://www.w3.org/1999/xlink" x="0px" y="0px"
	 viewBox="0 0 90 90" style="enable-background:new 0 0 90 90;" xml:space="preserve">
<style type="text/css">
	.ashjkwuiwjkl{fill:#A38244;}
</style>
<g>
	<path class="ashjkwuiwjkl" d="M88.74,68.27H85.9V15.55c0-0.61-0.41-1.01-1.01-1.01H4.69c-0.61,0-1.01,0.41-1.01,1.01v52.72H1.45
		c-0.61,0-1.01,0.41-1.01,1.01v4.77c0,0.61,0.41,1.01,1.01,1.01h87.29c0.61,0,1.01-0.41,1.01-1.01v-4.77
		C89.75,68.68,89.35,68.27,88.74,68.27z M31.76,21.13v15.01h-9.83V21.13H31.76z M43.83,21.13v15.01H33.79V21.13H43.83z M55.69,21.13
		v15.01h-9.83V21.13H55.69z M67.86,21.13v15.01H57.72V21.13H67.86z M79.72,21.13v15.01h-9.83V21.13H79.72z M9.96,38.16h21.8v18.15
		l0,0H9.96V38.16z M55.69,38.16v22.81h-21.9V38.16H55.69z M79.72,38.16v18.15h-22V38.16H79.72z M33.79,67.97V63.1h21.9v4.87
		c0,0.1,0,0.1,0,0.2h-21.9C33.79,68.07,33.79,67.97,33.79,67.97z M57.72,68.07c0-0.1,0-0.1,0-0.2v-9.63h22v9.73h-22V68.07z
		 M19.9,36.13H9.96V21.13h9.94V36.13z M9.96,58.34h21.8l0,0v9.63c0,0.1,0,0.1,0,0.2H9.96V58.34z M5.71,16.56h78.27v51.5h-2.23V20.11
		c0-0.61-0.41-1.01-1.01-1.01H8.95c-0.61,0-1.01,0.41-1.01,1.01v47.96H5.71V16.56z M87.73,73.04H2.46V70.3h85.27V73.04z"/>
	<path class="ashjkwuiwjkl" d="M14.02,46.98c-0.3-0.51-0.91-0.61-1.42-0.3c-0.51,0.3-0.61,0.91-0.3,1.42l2.53,3.85
		c0.2,0.3,0.51,0.51,0.81,0.51c0.2,0,0.41-0.1,0.51-0.2c0.51-0.3,0.61-0.91,0.3-1.42L14.02,46.98z"/>
	<path class="ashjkwuiwjkl" d="M60.66,48.1l2.53,3.85c0.2,0.3,0.51,0.51,0.81,0.51c0.2,0,0.41-0.1,0.51-0.2c0.51-0.3,0.61-0.91,0.3-1.42
		l-2.53-3.85c-0.3-0.51-0.91-0.61-1.32-0.3C60.45,46.98,60.35,47.59,60.66,48.1z"/>
	<path class="ashjkwuiwjkl" d="M15.34,43.13c-0.3-0.51-0.91-0.61-1.42-0.3c-0.51,0.3-0.61,0.91-0.3,1.42l5.78,8.82
		c0.2,0.3,0.51,0.51,0.81,0.51c0.2,0,0.41-0.1,0.51-0.2c0.51-0.3,0.61-0.91,0.3-1.42L15.34,43.13z"/>
</g>
</svg>
