<svg version="1.1" id="Layer_1" xmlns="http://www.w3.org/2000/svg" xmlns:xlink="http://www.w3.org/1999/xlink" x="0px" y="0px"
	 viewBox="0 0 90 90" style="enable-background:new 0 0 90 90;" xml:space="preserve">
<g>
	<path fill="#FFF" d="M88.96,44.99c0,24.36-19.74,44.1-44.1,44.1c-24.36,0-44.1-19.74-44.1-44.1c0-24.36,19.74-44.1,44.1-44.1
		C69.21,0.89,88.96,20.64,88.96,44.99"/>
	<path fill="#016367" d="M44.85,1.94C21.11,1.94,1.8,21.26,1.8,45c0,23.74,19.32,43.06,43.06,43.06c23.74,0,43.06-19.31,43.06-43.06
		C87.91,21.26,68.6,1.94,44.85,1.94 M44.85,90.15C19.96,90.15-0.29,69.89-0.29,45c0-24.89,20.25-45.15,45.15-45.15
		C69.75-0.15,90,20.11,90,45C90,69.89,69.75,90.15,44.85,90.15"/>
	<g>
		<path fill="#016367" d="M42.07,17.26h-3.9v2.15l3.9,4.16V17.26z M31.98,35.13v15.33h-0.63H20.69h-1.1v-1.66V35.13h-3.52l-1.13-2.61
			l15.91-16.98l1.13-1.2l1.13,1.2l15.9,16.98l-1.13,2.61H44.3H31.98z"/>
		<polygon fill="#016367" points="41.67,50.46 41.67,45.06 37.26,45.06 37.26,50.46 33.81,50.46 33.81,36.96 37.26,36.96 37.26,42.03 
			41.67,42.03 41.67,36.96 45.12,36.96 45.12,50.46 		"/>
		<path fill="#039394" d="M51.85,42.54c-1.09,0-2.06,0.64-2.3,1.73h4.6C53.91,43.18,52.94,42.54,51.85,42.54 M57.1,46.32h-7.59
			c0.18,1.2,1.19,1.92,2.37,1.92c0.82,0,1.35-0.33,1.84-0.95h3.1c-0.88,2.02-2.66,3.5-4.94,3.5c-2.96,0-5.36-2.41-5.36-5.36
			c0-2.94,2.33-5.44,5.31-5.44c3.1,0,5.35,2.48,5.35,5.53C57.18,45.79,57.16,46.04,57.1,46.32"/>
		<rect x="58.49" y="36.96" fill="#039394" width="3.03" height="13.5"/>
		<path fill="#039394" d="M68.61,42.81c-1.46,0-2.54,1.15-2.54,2.59c0,1.42,1.1,2.57,2.54,2.57c1.44,0,2.54-1.15,2.54-2.57
			C71.14,43.96,70.07,42.81,68.61,42.81 M69.25,50.8c-1.2,0-2.23-0.37-3.05-1.26v4.29h-3.03v-13.5h2.84v1.11h0.02h0.03
			c0.78-0.99,1.92-1.46,3.16-1.46c3.14,0,4.94,2.57,4.94,5.51C74.17,48.32,72.2,50.8,69.25,50.8"/>
		<polygon fill="#039394" points="24.11,58.99 24.11,66.81 21.09,66.81 21.09,58.99 19.59,58.99 19.59,56.69 21.09,56.69 21.09,53.32 
			24.11,53.32 24.11,56.69 25.57,56.69 25.57,58.99 		"/>
		<path fill="#039394" d="M31.29,59.19c-1.41,0-2.43,1.19-2.43,2.55c0,1.37,1.02,2.55,2.43,2.55c1.4,0,2.43-1.19,2.43-2.55
			C33.72,60.38,32.69,59.19,31.29,59.19 M31.29,67.13c-3.1,0-5.45-2.28-5.45-5.38c0-3.1,2.35-5.38,5.45-5.38
			c3.1,0,5.45,2.28,5.45,5.38C36.74,64.84,34.39,67.13,31.29,67.13"/>
		<path fill="#039394" d="M46.69,61.14H44.7v2.83h1.97c0.98,0,1.86-0.34,1.86-1.49C48.53,61.37,47.61,61.14,46.69,61.14 M46.3,56.13
			h-1.6v2.52h1.58c0.9,0,1.65-0.26,1.65-1.3C47.93,56.33,47.16,56.13,46.3,56.13 M50.37,65.65c-1.39,1.19-2.66,1.17-4.41,1.17h-4.29
			v-13.5h4.16c1.62,0,3.16,0.02,4.32,1.31c0.57,0.62,0.8,1.39,0.8,2.23c0,1.15-0.57,2.15-1.57,2.72c1.48,0.51,2.23,1.61,2.23,3.14
			C51.61,63.79,51.21,64.94,50.37,65.65"/>
		<path fill="#039394" d="M59.21,66.81v-1.08h-0.04c-0.53,1.09-1.5,1.41-2.63,1.41c-1.11,0-2.24-0.38-2.97-1.28
			c-0.82-1.02-0.91-1.86-0.91-3.12v-6.06h3.03v5.6c0,1.15,0.26,2.03,1.62,2.03c1.26,0,1.73-0.89,1.73-2.06v-5.56h3.03v10.12H59.21z"
			/>
		<polygon fill="#039394" points="68.25,70.19 65.04,70.19 66.64,66.3 62.88,56.69 66.11,56.69 68.14,62.57 68.17,62.57 70.11,56.69 
			73.32,56.69 		"/>
	</g>
	<path fill="#039394" d="M44.85,5.09C22.85,5.09,4.94,22.99,4.94,45c0,22.01,17.9,39.91,39.91,39.91c22.01,0,39.91-17.9,39.91-39.91
		C84.77,22.99,66.86,5.09,44.85,5.09z M44.85,82.82c-20.89,0-37.83-16.94-37.83-37.83c0-20.9,16.94-37.83,37.83-37.83
		c20.89,0,37.83,16.93,37.83,37.83C82.68,65.88,65.75,82.82,44.85,82.82z"/>
</g>
</svg>
