<svg id="Layer_1" data-name="Layer 1" xmlns="http://www.w3.org/2000/svg" viewBox="0 0 90 90"><defs><style>.cls-1{fill:#006769;}.cls-2{fill:#fff;}.cls-3{fill:#009796;}</style></defs><path class="cls-1" d="M23.76,79.48H26a1.16,1.16,0,0,0,1.27-1.21c0-.89-.71-1.13-1.47-1.13H23.76Zm0-3.1h1.8c1,0,1.45-.37,1.45-1.08,0-.94-.67-1.07-1.45-1.07h-1.8Zm-.9-2.91h2.46a4.16,4.16,0,0,1,1.79.24,1.61,1.61,0,0,1,.8,1.42,1.55,1.55,0,0,1-1,1.51v0a1.55,1.55,0,0,1,1.29,1.63,1.92,1.92,0,0,1-2.06,1.95H22.86Z"/><path class="cls-1" d="M32.26,77.71A4.44,4.44,0,0,1,30.8,78c-.53.09-1,.28-1,.88s.46.72,1,.72c1.06,0,1.5-.66,1.5-1.11Zm1.31,2.51a1,1,0,0,1-.58.13c-.42,0-.68-.22-.68-.76a2.17,2.17,0,0,1-1.73.76C29.69,80.35,29,80,29,79s.82-1.35,1.66-1.51,1.65-.11,1.65-.72-.58-.82-1.09-.82c-.69,0-1.19.21-1.23.93h-.8c.05-1.21,1-1.64,2.08-1.64.88,0,1.84.2,1.84,1.35v2.52c0,.38,0,.55.25.55a.68.68,0,0,0,.25,0Z"/><path class="cls-1" d="M37.64,76.91a1.14,1.14,0,0,0-1.21-1c-1.17,0-1.53.92-1.53,1.92s.41,1.79,1.44,1.79a1.26,1.26,0,0,0,1.34-1.19h.83a2,2,0,0,1-2.16,1.9,2.23,2.23,0,0,1-2.3-2.5c0-1.47.76-2.63,2.31-2.63a1.89,1.89,0,0,1,2.12,1.69Z"/><polygon class="cls-1" points="39.45 73.47 40.26 73.47 40.26 77.48 42.5 75.34 43.58 75.34 41.64 77.12 43.72 80.24 42.7 80.24 41.02 77.68 40.26 78.38 40.26 80.24 39.45 80.24 39.45 73.47"/><path class="cls-1" d="M47.73,77.32a1.41,1.41,0,0,0-1.41-1.39,1.39,1.39,0,0,0-1.4,1.39Zm.78,1.36a2,2,0,0,1-2.1,1.67c-1.56,0-2.3-1.08-2.35-2.58a2.36,2.36,0,0,1,2.31-2.55c1.73,0,2.26,1.62,2.22,2.81H44.92a1.44,1.44,0,0,0,1.52,1.61,1.17,1.17,0,0,0,1.27-1Z"/><path class="cls-1" d="M51.53,79.64c1.08,0,1.49-.93,1.49-1.85s-.43-1.86-1.54-1.86S50,76.87,50,77.83s.47,1.81,1.52,1.81m2.27.6H53v-.66h0a1.66,1.66,0,0,1-1.57.77,2.29,2.29,0,0,1-2.25-2.58,2.26,2.26,0,0,1,2.23-2.55A1.88,1.88,0,0,1,53,76h0V73.47h.8Z"/><path class="cls-1" d="M60,75.93c-1.08,0-1.49.93-1.49,1.85s.43,1.86,1.54,1.86,1.47-.94,1.47-1.89S61,75.93,60,75.93m-2.27-2.46h.8V76h0a1.66,1.66,0,0,1,1.57-.78,2.29,2.29,0,0,1,2.25,2.58,2.25,2.25,0,0,1-2.23,2.55,1.89,1.89,0,0,1-1.59-.76h0v.65h-.8Z"/><path class="cls-1" d="M65.23,80.89c-.37,1-.71,1.31-1.43,1.31a1.85,1.85,0,0,1-.56-.08v-.74a2.08,2.08,0,0,0,.48.11.69.69,0,0,0,.66-.44l.33-.84-1.94-4.87h.91l1.43,4h0l1.38-4h.85Z"/><polygon class="cls-1" points="10.39 82.57 11.29 82.57 11.29 85.48 14.86 85.48 14.86 82.57 15.76 82.57 15.76 89.34 14.86 89.34 14.86 86.24 11.29 86.24 11.29 89.34 10.39 89.34 10.39 82.57"/><polygon class="cls-1" points="17.26 82.57 18.49 82.57 20.63 88.26 22.77 82.57 24 82.57 24 89.34 23.15 89.34 23.15 83.71 23.13 83.71 21.01 89.34 20.25 89.34 18.13 83.71 18.11 83.71 18.11 89.34 17.26 89.34 17.26 82.57"/><path class="cls-1" d="M33.2,88.5a2.65,2.65,0,0,1-2.17,1,3.25,3.25,0,0,1-3.23-3.41c0-2,1.08-3.68,3.23-3.68a2.63,2.63,0,0,1,2.91,2.25H33a1.83,1.83,0,0,0-2-1.49c-1.64,0-2.33,1.42-2.33,2.87A2.44,2.44,0,0,0,31,88.74a2,2,0,0,0,2.17-2.21H31v-.75h3v3.56h-.56Z"/><path class="cls-1" d="M37.31,88.74c.85,0,1.53-.66,1.53-1.84S38.16,85,37.31,85s-1.52.66-1.52,1.86.68,1.84,1.52,1.84m0-4.41a2.57,2.57,0,1,1-2.38,2.57,2.32,2.32,0,0,1,2.38-2.57"/><polygon class="cls-1" points="42.85 89.34 41.99 89.34 40.17 84.44 41.07 84.44 42.44 88.53 42.46 88.53 43.8 84.44 44.64 84.44 42.85 89.34"/><path class="cls-1" d="M48.79,86.42A1.41,1.41,0,0,0,47.37,85,1.39,1.39,0,0,0,46,86.42Zm.77,1.37a2,2,0,0,1-2.09,1.67c-1.57,0-2.31-1.09-2.35-2.58a2.35,2.35,0,0,1,2.3-2.55c1.74,0,2.27,1.62,2.22,2.8H46a1.44,1.44,0,0,0,1.53,1.61,1.19,1.19,0,0,0,1.27-.95Z"/><path class="cls-1" d="M50.45,84.44h.75v1h0A1.78,1.78,0,0,1,53,84.33v.85c-1.29,0-1.77.74-1.77,2v2.18h-.8Z"/><path class="cls-1" d="M53.8,84.44h.76v.78h0a1.7,1.7,0,0,1,1.59-.89c1.29,0,1.69.74,1.69,1.79v3.22h-.81V86a.92.92,0,0,0-1-1,1.37,1.37,0,0,0-1.45,1.53v2.77H53.8Z"/><path class="cls-1" d="M59.07,84.44h.76v.72h0a1.8,1.8,0,0,1,1.58-.83,1.3,1.3,0,0,1,1.35.83,1.81,1.81,0,0,1,1.54-.83c1,0,1.63.4,1.63,1.42v3.59h-.81V86.13c0-.61-.16-1.09-1-1.09a1.19,1.19,0,0,0-1.28,1.25v3h-.8V86.13c0-.64-.2-1.09-.92-1.09a1.32,1.32,0,0,0-1.31,1.25v3h-.81Z"/><path class="cls-1" d="M70.57,86.42A1.41,1.41,0,0,0,69.15,85a1.39,1.39,0,0,0-1.4,1.38Zm.77,1.37a2,2,0,0,1-2.09,1.67c-1.57,0-2.31-1.09-2.35-2.58a2.35,2.35,0,0,1,2.3-2.55c1.73,0,2.27,1.62,2.22,2.8H67.75a1.44,1.44,0,0,0,1.53,1.61,1.19,1.19,0,0,0,1.27-.95Z"/><path class="cls-1" d="M72.25,84.44H73v.78h0a1.7,1.7,0,0,1,1.59-.89c1.29,0,1.69.74,1.69,1.79v3.22h-.8V86a.92.92,0,0,0-1-1,1.37,1.37,0,0,0-1.45,1.53v2.77h-.81Z"/><path class="cls-1" d="M78.64,84.44h1v.71h-1v3c0,.37.11.44.61.44h.37v.71H79c-.83,0-1.16-.17-1.16-1.07V85.15H77v-.71h.84V83h.8Z"/><path class="cls-2" d="M78.81,35.11A33.82,33.82,0,1,1,45,1.29,33.82,33.82,0,0,1,78.81,35.11"/><path class="cls-1" d="M45,69.73A34.62,34.62,0,1,1,79.62,35.11,34.66,34.66,0,0,1,45,69.73M45,2.1a33,33,0,1,0,33,33,33.05,33.05,0,0,0-33-33"/><path class="cls-1" d="M35.13,27.55V39.3H25.62V27.55H22.93l-.86-2,12.19-13,.87-.93.86.93,12.19,13-.86,2H35.13Zm7.73-13.71h-3v1.65l3,3.19Z"/><polygon class="cls-1" points="42.56 39.3 42.56 35.16 39.17 35.16 39.17 39.3 36.53 39.3 36.53 28.95 39.17 28.95 39.17 32.84 42.56 32.84 42.56 28.95 45.2 28.95 45.2 39.3 42.56 39.3"/><path class="cls-3" d="M54.39,36.12H48.57a1.74,1.74,0,0,0,1.82,1.47,1.65,1.65,0,0,0,1.41-.73h2.38a4.09,4.09,0,1,1-3.83-5.59,4.1,4.1,0,0,1,4.1,4.24,3.15,3.15,0,0,1-.06.61m-4-2.89a1.72,1.72,0,0,0-1.76,1.33h3.52a1.72,1.72,0,0,0-1.76-1.33"/><rect class="cls-3" x="55.45" y="28.95" width="2.32" height="10.35"/><path class="cls-3" d="M63.7,39.57a3,3,0,0,1-2.34-1v3.29H59V31.54h2.18v.85h.05a3,3,0,0,1,2.42-1.12c2.4,0,3.79,2,3.79,4.22a3.87,3.87,0,0,1-3.78,4.08m-.49-6.13a2,2,0,1,0,1.95,2,1.93,1.93,0,0,0-1.95-2"/><polygon class="cls-3" points="29.09 45.84 29.09 51.84 26.77 51.84 26.77 45.84 25.63 45.84 25.63 44.08 26.77 44.08 26.77 41.49 29.09 41.49 29.09 44.08 30.21 44.08 30.21 45.84 29.09 45.84"/><path class="cls-3" d="M34.6,52.08A4.13,4.13,0,1,1,38.78,48a4.06,4.06,0,0,1-4.18,4.13m0-6.08a2,2,0,1,0,1.86,2,1.9,1.9,0,0,0-1.86-2"/><path class="cls-3" d="M49.23,51c-1.06.91-2,.89-3.39.89H42.56V41.49h3.19c1.24,0,2.42,0,3.31,1a2.45,2.45,0,0,1,.62,1.7,2.34,2.34,0,0,1-1.21,2.09,2.35,2.35,0,0,1,1.71,2.4,3,3,0,0,1-1,2.26m-3.12-7.3H44.88v1.94h1.21c.69,0,1.26-.21,1.26-1s-.59-.94-1.24-.94m.29,3.84H44.88v2.17h1.51c.75,0,1.43-.26,1.43-1.14s-.71-1-1.42-1"/><path class="cls-3" d="M56,51.84V51h0a2,2,0,0,1-2,1.08,2.89,2.89,0,0,1-2.28-1,3.27,3.27,0,0,1-.7-2.39V44.08h2.33v4.29c0,.88.19,1.56,1.24,1.56s1.33-.69,1.33-1.58V44.08H58.2v7.76Z"/><polygon class="cls-3" points="62.94 54.43 60.47 54.43 61.7 51.45 58.82 44.08 61.3 44.08 62.85 48.58 62.88 48.58 64.36 44.08 66.82 44.08 62.94 54.43"/><path class="cls-3" d="M45,64.12a29,29,0,1,1,29-29,29,29,0,0,1-29,29M45,4.51a30.61,30.61,0,1,0,30.6,30.6A30.64,30.64,0,0,0,45,4.51"/></svg>
