<svg id="Layer_1" data-name="Layer 1" xmlns="http://www.w3.org/2000/svg" viewBox="0 0 16.37 16.37"><defs><style>.cls-1{fill:#dbdbdb;fill-rule:evenodd;}</style></defs><path class="cls-1" d="M32.89,28.49a.45.45,0,0,0-.47.49v6.81H29.07V33a.47.47,0,0,0-.42-.49H26.22a.52.52,0,0,0-.51.49v2.76H22.4V29.23a.47.47,0,0,0-.47-.49.45.45,0,0,0-.47.49v7.11a.48.48,0,0,0,.47.49h4.29a.47.47,0,0,0,.42-.49V33.52h1.49v2.82a.52.52,0,0,0,.52.49h4.24a.51.51,0,0,0,.47-.49V29a.47.47,0,0,0-.47-.49Zm2.57.37h0c-3.08-3.31-5-5.33-7.75-8.22a.36.36,0,0,0-.28-.18.47.47,0,0,0-.37.18l-7.7,8.16a.6.6,0,0,0-.13.37.35.35,0,0,0,.13.3.38.38,0,0,0,.66,0l7.41-7.78,7.37,7.9a.44.44,0,0,0,.33.13.52.52,0,0,0,.33-.13.54.54,0,0,0,0-.73Z" transform="translate(-19.23 -20.46)"/></svg>