<svg xmlns="http://www.w3.org/2000/svg" xmlns:xlink="http://www.w3.org/1999/xlink" width="52" height="50" viewBox="0 0 52 50">
  <defs>
    <polygon id="home-icon-a" points="0 .259 52 .259 52 49.259 0 49.259"/>
  </defs>
  <g fill="none" fill-rule="evenodd">
    <mask id="home-icon-b" fill="#fff">
      <use xlink:href="#home-icon-a"/>
    </mask>
    <path fill="#DEDEDE" d="M22.4925772,46.5381534 L31.5074228,46.5381534 L31.5074228,31.9803651 L22.4925772,31.9803651 L22.4925772,46.5381534 Z M50.6059382,46.5381534 L46.0985154,46.5381534 L46.0985154,30.6198122 C46.0985154,29.8685003 45.4749252,29.2592593 44.7044537,29.2592593 C43.9346378,29.2592593 43.3103919,29.8685003 43.3103919,30.6198122 L43.3103919,46.5381534 L34.2955463,46.5381534 L34.2955463,30.6198122 C34.2955463,29.8685003 33.6719561,29.2592593 32.9014846,29.2592593 L21.0985154,29.2592593 C20.3286996,29.2592593 19.7044537,29.8685003 19.7044537,30.6198122 L19.7044537,46.5381534 L10.6896081,46.5381534 L10.6896081,30.6198122 C10.6896081,29.8685003 10.0660179,29.2592593 9.29554635,29.2592593 C8.52573047,29.2592593 7.90148455,29.8685003 7.90148455,30.6198122 L7.90148455,46.5381534 L3.3940618,46.5381534 C2.62424592,46.5381534 2,47.1473944 2,47.8987063 C2,48.6500183 2.62424592,49.2592593 3.3940618,49.2592593 L50.6059382,49.2592593 C51.3764098,49.2592593 52,48.6500183 52,47.8987063 C52,47.1473944 51.3764098,46.5381534 50.6059382,46.5381534 L50.6059382,46.5381534 Z" mask="url(#home-icon-b)"/>
    <path fill="#DEDEDE" d="M40.1968283,14.1418296 L43.5980617,14.1418296 L43.4033121,20.848569 L40.1968283,17.6899486 L40.1968283,14.1418296 Z M51.5913209,28.9150009 L46.1147252,23.5201547 L46.4255378,12.8079745 C46.4366851,12.437208 46.2943932,12.0774224 46.0314485,11.8119433 C45.7698151,11.5451723 45.4085119,11.3953155 45.0321271,11.3953155 L38.8027619,11.3953155 C38.0329435,11.3953155 37.4086955,12.0102452 37.4086955,12.7685725 L37.4086955,14.9434345 L27.9853053,5.66135358 C27.4410555,5.12522782 26.5584528,5.12522782 26.014203,5.66135358 L2.40818735,28.9150009 C1.86393755,29.4511267 1.86393755,30.3205547 2.40818735,30.8566805 C2.95243716,31.3934522 3.83503985,31.3934522 4.37928966,30.8566805 L26.9997541,8.57451884 L49.6202186,30.8566805 C49.8923435,31.1247434 50.2490566,31.2592593 50.6057697,31.2592593 C50.9624828,31.2592593 51.319196,31.1247434 51.5913209,30.8566805 C52.1362264,30.3205547 52.1362264,29.4511267 51.5913209,28.9150009 L51.5913209,28.9150009 Z" mask="url(#home-icon-b)"/>
  </g>
</svg>
