<svg xmlns="http://www.w3.org/2000/svg" xmlns:xlink="http://www.w3.org/1999/xlink" width="73" height="73" viewBox="0 0 73 73">
  <defs>
    <polygon id="houses-icon-a" points="0 .748 50.328 .748 50.328 32 0 32"/>
    <polygon id="houses-icon-c" points=".076 .748 65.328 .748 65.328 58 .076 58"/>
  </defs>
  <g fill="none" fill-rule="evenodd">
    <g transform="translate(0 40.252)">
      <mask id="houses-icon-b" fill="#fff">
        <use xlink:href="#houses-icon-a"/>
      </mask>
      <path fill="#DEDEDE" d="M41.0762,27.748 L36.3282,27.748 L36.3282,18.874 C36.3282,17.7 35.3762,16.748 34.2022,16.748 C33.0282,16.748 32.0762,17.7 32.0762,18.874 L32.0762,27.748 L27.7432,27.748 L27.7432,13.799 L34.3322,6.011 L41.0762,12.755 L41.0762,27.748 Z M9.3282,18 L23.2022,18 C23.3002,18 23.3952,17.981 23.4912,17.968 L23.4912,27.748 L9.3282,27.748 L9.3282,18 Z M14.1622,5 L29.6182,5 L24.2532,11.34 C24.0692,11.496 23.9132,11.679 23.7912,11.887 L22.2162,13.748 L6.5822,13.748 C8.5552,11.419 11.4022,8.139 14.1622,5 L14.1622,5 Z M35.7052,1.371 C35.5972,1.262 35.4782,1.169 35.3542,1.089 C35.3402,1.08 35.3252,1.074 35.3102,1.066 C35.1692,0.979 35.0202,0.914 34.8662,0.863 C34.8242,0.849 34.7822,0.837 34.7382,0.825 C34.5622,0.779 34.3832,0.748 34.2022,0.748 L13.2022,0.748 C12.5922,0.748 12.0112,1.01 11.6072,1.468 C-0.4628,15.159 -0.4628,15.159 0.2522,16.742 C0.5962,17.504 1.3672,18 2.2022,18 L5.0762,18 L5.0762,29.874 C5.0762,31.048 6.0282,32 7.2022,32 L25.6172,32 L43.2022,32 C44.3762,32 45.3282,31.048 45.3282,29.874 L45.3282,17.007 L46.6992,18.377 C47.1142,18.792 47.6582,19 48.2022,19 C48.7462,19 49.2902,18.792 49.7052,18.377 C50.5352,17.547 50.5352,16.201 49.7052,15.371 L35.7052,1.371 Z" mask="url(#houses-icon-b)"/>
    </g>
    <g transform="translate(7 .252)">
      <mask id="houses-icon-d" fill="#fff">
        <use xlink:href="#houses-icon-c"/>
      </mask>
      <path fill="#DEDEDE" d="M28.2476,18.748 L7.3346,18.748 L21.0826,5 L40.4676,5 L28.2476,18.748 Z M64.7056,19.371 L59.7056,14.371 L46.7086,1.374 C46.3246,0.988 45.7906,0.748 45.2026,0.748 L20.2026,0.748 C19.6386,0.748 19.0976,0.972 18.6986,1.371 L0.6986,19.371 C0.0906,19.978 -0.0914,20.893 0.2376,21.687 C0.5666,22.482 1.3426,23 2.2026,23 L6.0766,23 L6.0766,34.874 C6.0766,36.048 7.0276,37 8.2026,37 C9.3766,37 10.3286,36.048 10.3286,34.874 L10.3286,23 L27.0766,23 L27.0766,34.874 C27.0766,36.048 28.0276,37 29.2026,37 C30.3766,37 31.3286,36.048 31.3286,34.874 L31.3286,21.683 L45.2926,5.972 L56.0766,16.755 L56.0766,53.748 L48.2026,53.748 C47.0276,53.748 46.0766,54.7 46.0766,55.874 C46.0766,57.048 47.0276,58 48.2026,58 L58.2026,58 C59.3766,58 60.3286,57.048 60.3286,55.874 L60.3286,21.007 L61.6986,22.377 C62.5286,23.207 63.8756,23.207 64.7056,22.377 C65.5356,21.547 65.5356,20.201 64.7056,19.371 L64.7056,19.371 Z" mask="url(#houses-icon-d)"/>
    </g>
    <path fill="#DEDEDE" d="M47.2021 28.252C48.3761 28.252 49.3281 27.3 49.3281 26.126L49.3281 21.126C49.3281 19.952 48.3761 19 47.2021 19 46.0281 19 45.0761 19.952 45.0761 21.126L45.0761 26.126C45.0761 27.3 46.0281 28.252 47.2021 28.252M56.2021 28.252C57.3761 28.252 58.3281 27.3 58.3281 26.126L58.3281 21.126C58.3281 19.952 57.3761 19 56.2021 19 55.0281 19 54.0761 19.952 54.0761 21.126L54.0761 26.126C54.0761 27.3 55.0281 28.252 56.2021 28.252M54.0762 38.126C54.0762 39.3 55.0282 40.252 56.2022 40.252 57.3762 40.252 58.3282 39.3 58.3282 38.126L58.3282 33.126C58.3282 31.952 57.3762 31 56.2022 31 55.0282 31 54.0762 31.952 54.0762 33.126L54.0762 38.126zM45.0762 38.126C45.0762 39.3 46.0282 40.252 47.2022 40.252 48.3762 40.252 49.3282 39.3 49.3282 38.126L49.3282 33.126C49.3282 31.952 48.3762 31 47.2022 31 46.0282 31 45.0762 31.952 45.0762 33.126L45.0762 38.126zM54.0762 50.126C54.0762 51.3 55.0282 52.252 56.2022 52.252 57.3762 52.252 58.3282 51.3 58.3282 50.126L58.3282 45.126C58.3282 43.952 57.3762 43 56.2022 43 55.0282 43 54.0762 43.952 54.0762 45.126L54.0762 50.126z"/>
  </g>
</svg>
