<?xml version="1.0" encoding="utf-8"?>
<!-- Generator: Adobe Illustrator 25.0.1, SVG Export Plug-In . SVG Version: 6.00 Build 0)  -->
<svg version="1.1" id="Layer_1" xmlns="http://www.w3.org/2000/svg" xmlns:xlink="http://www.w3.org/1999/xlink" x="0px" y="0px"
	 viewBox="0 0 90 90" style="enable-background:new 0 0 90 90;" xml:space="preserve">
<style type="text/css">
	.st0g87dsa{fill:none;}
	.n89e32{fill:#A38244;}
</style>
<g>
	<path class="st0g87dsa" d="M58.7,38.38H42.92c-4.18,5.67-10.89,9.35-18.45,9.35c-2.06,0-4.05-0.28-5.95-0.79L8.48,58.12l34.03-0.26
		L58.7,38.38z"/>
	<path class="st0g87dsa" d="M44.58,61.8c-0.32,0.19-0.67,0.3-1.05,0.3l-28.6,0.22V83.7h29.66V61.8z"/>
	<path class="st0g87dsa" d="M48.76,57c0.05,0.17,0.08,0.35,0.08,0.54V83.7h12.32V63.02c0-1.17,0.95-2.13,2.13-2.13s2.13,0.95,2.13,2.13
		V83.7h12.78V54.59L63.13,39.7L48.76,57z"/>
	<path class="n89e32" d="M89.07,59.37L64.99,35.55c-0.29-0.83-1.08-1.43-2.01-1.43H45.4c1.27-2.85,1.99-6,1.99-9.31
		c0-12.64-10.28-22.92-22.92-22.92C11.83,1.9,1.55,12.18,1.55,24.81c0,8.97,5.18,16.75,12.71,20.51L2.1,58.86
		c-0.56,0.63-0.7,1.53-0.36,2.29s1.09,1.26,1.95,1.25l6.98-0.05v23.47c0,1.17,0.95,2.13,2.13,2.13h33.13
		c0.24,0.09,0.5,0.15,0.78,0.15s0.54-0.06,0.78-0.15h32.83c1.17,0,2.13-0.95,2.13-2.13V58.8l3.63,3.6c0.41,0.41,0.96,0.61,1.5,0.61
		c0.55,0,1.1-0.21,1.51-0.63C89.91,61.54,89.9,60.2,89.07,59.37z M43.13,24.81c0,10.29-8.37,18.66-18.66,18.66
		c-10.29,0-18.66-8.37-18.66-18.66c0-10.29,8.37-18.66,18.66-18.66C34.76,6.15,43.13,14.52,43.13,24.81z M18.52,46.94
		c1.9,0.51,3.89,0.79,5.95,0.79c7.56,0,14.28-3.68,18.45-9.35H58.7L42.51,57.86L8.48,58.12L18.52,46.94z M14.93,62.32l28.6-0.22
		c0.38,0,0.73-0.12,1.05-0.3v21.9H14.93V62.32z M78.19,83.7H65.41V63.02c0-1.17-0.95-2.13-2.13-2.13s-2.13,0.95-2.13,2.13V83.7
		H48.84V57.54c0-0.19-0.03-0.37-0.08-0.54l14.38-17.3l15.05,14.89V83.7z"/>
	<path class="n89e32" d="M18.78,33.92c-1.17,0-2.13,0.95-2.13,2.13s0.95,2.13,2.13,2.13h5.69h5.54c1.17,0,2.13-0.95,2.13-2.13
		s-0.95-2.13-2.13-2.13H26.6V12.36c0-0.85-0.5-1.62-1.28-1.95c-0.78-0.34-1.68-0.18-2.3,0.41l-5.51,5.2
		c-0.85,0.81-0.89,2.15-0.09,3.01c0.81,0.85,2.15,0.89,3.01,0.09l1.92-1.82v16.64H18.78z"/>
</g>
</svg>
