<svg xmlns="http://www.w3.org/2000/svg" width="36" height="36" viewBox="0 0 36 36">
  <g fill="none" fill-rule="evenodd">
    <circle cx="18" cy="18" r="18" fill="#FFF"/>
    <path fill="#4A4A4A" fill-rule="nonzero" d="M18.0830078,12.3574219 C18.5270182,12.3574219 18.8725586,12.2338867 19.1196289,11.9868164 C19.3666992,11.7397461 19.4902344,11.4013672 19.4902344,10.9716797 C19.4902344,10.5205078 19.3666992,10.1731771 19.1196289,9.9296875 C18.8725586,9.68619792 18.5270182,9.56445312 18.0830078,9.56445312 C17.6246745,9.56445312 17.2719727,9.68619792 17.0249023,9.9296875 C16.777832,10.1731771 16.6542969,10.5205078 16.6542969,10.9716797 C16.6542969,11.4013672 16.777832,11.7397461 17.0249023,11.9868164 C17.2719727,12.2338867 17.6246745,12.3574219 18.0830078,12.3574219 Z M19.3291016,26 L19.3291016,14.1191406 L16.8046875,14.1191406 L16.8046875,26 L19.3291016,26 Z"/>
  </g>
</svg>
