<svg viewBox="0 0 20 21" version="1.1" xmlns="http://www.w3.org/2000/svg" xmlns:xlink="http://www.w3.org/1999/xlink">
    <defs>
        <polygon id="path-1" points="0 0.488179669 20 0.488179669 20 20.7104019 0 20.7104019"></polygon>
    </defs>
    <g stroke="none" stroke-width="1" fill="none" fill-rule="evenodd">
        <path d="M14.0863237,7.22597705 C14.0863237,7.64483942 13.7504339,7.98423114 13.3361697,7.98423114 C12.9221295,7.98423114 12.5864636,7.64483942 12.5864636,7.22597705 C12.5864636,6.80688827 12.9221295,6.46749655 13.3361697,6.46749655 C13.7504339,6.46749655 14.0863237,6.80688827 14.0863237,7.22597705 M10.000112,12.7056025 C8.84935341,12.7056025 7.91669932,11.7625961 7.91669932,10.5990644 C7.91669932,9.43598546 8.84935341,8.4927527 10.000112,8.4927527 C11.1506466,8.4927527 12.0833007,9.43598546 12.0833007,10.5990644 C12.0833007,11.7625961 11.1506466,12.7056025 10.000112,12.7056025 M10.000112,7.35389988 C8.22750938,7.35389988 6.79057269,8.80678626 6.79057269,10.5990644 C6.79057269,12.3913425 8.22750938,13.8442289 10.000112,13.8442289 C11.7724906,13.8442289 13.2094273,12.3913425 13.2094273,10.5990644 C13.2094273,8.80678626 11.7724906,7.35389988 10.000112,7.35389988 M10.000112,5.41852934 C11.6688126,5.41852934 11.8665398,5.42486888 12.5255556,5.45543451 C13.1348598,5.48350961 13.4658232,5.5863007 13.6861669,5.67301653 C13.9779432,5.78735463 14.185971,5.92456036 14.4047472,6.14576497 C14.6232996,6.36674317 14.758999,6.57730642 14.8723059,6.87232137 C14.9578458,7.09488445 15.0597324,7.42929511 15.0874993,8.04558882 C15.1175055,8.7119196 15.1239993,8.91184147 15.1239993,10.5990644 C15.1239993,12.2867401 15.1175055,12.4862091 15.0874993,13.1527663 C15.0597324,13.7688336 14.9578458,14.1034707 14.8723059,14.3260338 C14.758999,14.6210487 14.6232996,14.8318384 14.4047472,15.0528166 C14.185971,15.2740212 13.9779432,15.4107741 13.6861669,15.525565 C13.4658232,15.6120545 13.1348598,15.715072 12.5255556,15.7431471 C11.8665398,15.7734863 11.6690366,15.7798258 10.000112,15.7798258 C8.33118737,15.7798258 8.13346023,15.7734863 7.47444438,15.7431471 C6.86514023,15.715072 6.53417679,15.6120545 6.31383306,15.525565 C6.02205677,15.4107741 5.814029,15.2740212 5.59525276,15.0528166 C5.37647652,14.8318384 5.24100095,14.6210487 5.12769412,14.3260338 C5.04215417,14.1034707 4.94026759,13.7688336 4.9125007,13.1527663 C4.88227062,12.4862091 4.87600067,12.2867401 4.87600067,10.5990644 C4.87600067,8.91184147 4.88227062,8.7119196 4.9125007,8.04558882 C4.94026759,7.42929511 5.04215417,7.09488445 5.12769412,6.87232137 C5.24100095,6.57730642 5.37647652,6.36674317 5.59525276,6.14576497 C5.814029,5.92456036 6.02205677,5.78735463 6.31383306,5.67301653 C6.53417679,5.5863007 6.86514023,5.48350961 7.47444438,5.45543451 C8.13346023,5.42486888 8.33118737,5.41852934 10.000112,5.41852934 M10.000112,4.27967653 C8.30252477,4.27967653 8.08979455,4.28714813 7.4231652,4.31771376 C6.75787942,4.3485058 6.30353244,4.45537231 5.90606281,4.61159665 C5.49493366,4.77302847 5.14628002,4.9890256 4.79896994,5.34041717 C4.45165986,5.69180873 4.23781,6.04410594 4.07815037,6.45979854 C3.92341712,6.86168 3.81794771,7.32107013 3.7874937,7.99374045 C3.75703969,8.66776924 3.75009797,8.88286073 3.75009797,10.5990644 C3.75009797,12.3154944 3.75703969,12.5308123 3.7874937,13.2046147 C3.81794771,13.877285 3.92341712,14.3366751 4.07815037,14.738783 C4.23781,15.1542492 4.45165986,15.5065464 4.79896994,15.857938 C5.14628002,16.2093295 5.49493366,16.4253267 5.90606281,16.5869849 C6.30353244,16.7429828 6.75787942,16.8498493 7.4231652,16.8806414 C8.08979455,16.911207 8.30252477,16.9186786 10.000112,16.9186786 C11.6974752,16.9186786 11.9102055,16.911207 12.5768348,16.8806414 C13.2421206,16.8498493 13.6964676,16.7429828 14.0939372,16.5869849 C14.5050663,16.4253267 14.8534961,16.2093295 15.201254,15.857938 C15.5483401,15.5065464 15.76219,15.1542492 15.9218496,14.738783 C16.076359,14.3366751 16.1820523,13.877285 16.2122824,13.2046147 C16.2429603,12.5308123 16.250126,12.3154944 16.250126,10.5990644 C16.250126,8.88286073 16.2429603,8.66776924 16.2122824,7.99374045 C16.1820523,7.32107013 16.076359,6.86168 15.9218496,6.45979854 C15.76219,6.04410594 15.5483401,5.69180873 15.201254,5.34041717 C14.8534961,4.9890256 14.5050663,4.77302847 14.0939372,4.61159665 C13.6964676,4.45537231 13.2421206,4.3485058 12.5768348,4.31771376 C11.9102055,4.28714813 11.6974752,4.27967653 10.000112,4.27967653 M10.000112,0.488179669 C15.5190058,0.488179669 20,5.01868559 20,10.5990644 C20,16.1796696 15.5190058,20.7104019 10.000112,20.7104019 C4.48077031,20.7104019 0,16.1796696 0,10.5990644 C0,5.01868559 4.48077031,0.488179669 10.000112,0.488179669" id="Fill-3" fill="currentColor" mask="url(#mask-2)"></path>
    </g>
</svg>