<?xml version="1.0" encoding="utf-8"?>
<!-- Generator: Adobe Illustrator 25.0.1, SVG Export Plug-In . SVG Version: 6.00 Build 0)  -->
<svg version="1.1" id="Layer_1" xmlns="http://www.w3.org/2000/svg" xmlns:xlink="http://www.w3.org/1999/xlink" x="0px" y="0px"
	 viewBox="0 0 90 90" style="enable-background:new 0 0 90 90;" xml:space="preserve">
<style type="text/css">
	.huidsada{fill:none;}
	.n7h897w1d{fill:#A38244;}
</style>
<g>
	<rect x="54.46" y="69.13" class="huidsada" width="21.49" height="1.2"/>
	<rect x="54.46" y="58.04" class="huidsada" width="21.49" height="1.39"/>
	<rect x="54.46" y="74.59" class="huidsada" width="21.49" height="1.2"/>
	<polygon class="huidsada" points="40.89,12.17 39.45,12.17 39.45,13.88 40.89,15.03 	"/>
	<rect x="55.53" y="32.71" class="huidsada" width="4.08" height="9.21"/>
	<path class="huidsada" d="M31.15,57.11v9.92c0.22-1.07,1.16-1.87,2.29-1.87c1.29,0,2.34,1.05,2.34,2.34c0,1.29-1.05,2.34-2.34,2.34
		c-1.13,0-2.07-0.8-2.29-1.87v12.95h6.94V57.11H31.15z"/>
	<rect x="54.46" y="63.68" class="huidsada" width="21.49" height="1.2"/>
	<path class="huidsada" d="M48.99,80.93h1.21V57.48c0-2.04,1.66-3.69,3.69-3.69H76.5c2.04,0,3.69,1.66,3.69,3.69v23.45h1.72V25.7H48.99
		V80.93z M67.47,32.16c0-2.04,1.66-3.69,3.69-3.69h5.19c2.04,0,3.69,1.66,3.69,3.69v10.33c0,2.04-1.66,3.69-3.69,3.69h-5.19
		c-2.04,0-3.69-1.66-3.69-3.69V32.16z M51.27,32.16c0-2.04,1.66-3.69,3.69-3.69h5.19c2.04,0,3.69,1.66,3.69,3.69v10.33
		c0,2.04-1.66,3.69-3.69,3.69h-5.19c-2.04,0-3.69-1.66-3.69-3.69V32.16z"/>
	<rect x="71.72" y="32.71" class="huidsada" width="4.08" height="9.21"/>
	<rect x="32.58" y="32.71" class="huidsada" width="4.08" height="9.21"/>
	<rect x="54.46" y="80.04" class="huidsada" width="21.49" height="0.89"/>
	<rect x="16.38" y="32.71" class="huidsada" width="4.08" height="9.21"/>
	<path class="huidsada" d="M26.85,9.29L8.68,23.26v57.67H26.9V56.55c0-2.04,1.66-3.69,3.69-3.69h8.06c2.04,0,3.69,1.66,3.69,3.69v24.38
		h2.4V23.52L26.85,9.29z M12.13,32.16c0-2.04,1.66-3.69,3.69-3.69h5.19c2.04,0,3.69,1.66,3.69,3.69v10.33
		c0,2.04-1.66,3.69-3.69,3.69h-5.19c-2.04,0-3.69-1.66-3.69-3.69C12.13,42.49,12.13,32.16,12.13,32.16z M24.71,66.72
		c0,2.04-1.66,3.69-3.69,3.69h-5.19c-2.04,0-3.69-1.66-3.69-3.69V56.39c0-2.04,1.66-3.69,3.69-3.69h5.19c2.04,0,3.69,1.66,3.69,3.69
		V66.72z M40.91,42.48c0,2.04-1.66,3.69-3.69,3.69h-5.19c-2.04,0-3.69-1.66-3.69-3.69V32.16c0-2.04,1.66-3.69,3.69-3.69h5.19
		c2.04,0,3.69,1.66,3.69,3.69V42.48z"/>
	<rect x="16.39" y="56.95" class="huidsada" width="4.08" height="9.21"/>
	<path class="n7h897w1d" d="M87.75,80.93h-1.58V23.58c0-1.17-0.95-2.13-2.13-2.13H48.7c-0.13-0.23-0.3-0.45-0.52-0.62l-3.04-2.42v-8.36
		c0-1.17-0.95-2.13-2.13-2.13h-5.69c-1.17,0-2.13,0.95-2.13,2.13v0.46l-7.01-5.57c-0.76-0.61-1.84-0.62-2.62-0.02l-20.3,15.6
		c-0.52,0.4-0.83,1.03-0.83,1.69v58.72H2.11c-1.17,0-2.13,0.95-2.13,2.13s0.95,2.13,2.13,2.13h4.44h24.04h8.06h8.22h7.03h22.6h11.25
		c1.17,0,2.13-0.95,2.13-2.13S88.93,80.93,87.75,80.93z M81.92,80.93H80.2V57.48c0-2.04-1.66-3.69-3.69-3.69H53.9
		c-2.04,0-3.69,1.66-3.69,3.69v23.45H49V25.7h32.93v55.23H81.92z M75.94,64.88H54.46v-1.2h21.49L75.94,64.88L75.94,64.88z
		 M54.46,69.13h21.49v1.2H54.46V69.13z M75.94,59.43H54.46v-1.39h21.49L75.94,59.43L75.94,59.43z M54.46,74.59h21.49v1.2H54.46
		V74.59z M39.45,12.17h1.44v2.86l-1.44-1.14V12.17z M31.15,80.93V67.98c0.22,1.06,1.16,1.87,2.29,1.87c1.29,0,2.34-1.05,2.34-2.34
		c0-1.29-1.05-2.34-2.34-2.34c-1.13,0-2.07,0.8-2.29,1.87v-9.92h6.94v23.82h-6.94V80.93z M42.34,80.93V56.55
		c0-2.04-1.66-3.69-3.69-3.69h-8.06c-2.04,0-3.69,1.66-3.69,3.69v24.38H8.68V23.26L26.85,9.29l17.89,14.23v57.41H42.34z
		 M54.46,80.93v-0.89h21.49v0.89H54.46z"/>
	<path class="n7h897w1d" d="M15.83,46.17h5.19c2.04,0,3.69-1.66,3.69-3.69V32.16c0-2.04-1.66-3.69-3.69-3.69h-5.19
		c-2.04,0-3.69,1.66-3.69,3.69v10.33C12.13,44.52,13.79,46.17,15.83,46.17z M16.38,32.71h4.08v9.21h-4.08V32.71z"/>
	<path class="n7h897w1d" d="M37.21,28.46h-5.19c-2.04,0-3.69,1.66-3.69,3.69v10.33c0,2.04,1.66,3.69,3.69,3.69h5.19
		c2.04,0,3.69-1.66,3.69-3.69V32.16C40.91,30.12,39.25,28.46,37.21,28.46z M36.66,41.92h-4.08v-9.21h4.08
		C36.66,32.71,36.66,41.92,36.66,41.92z"/>
	<path class="n7h897w1d" d="M54.97,46.17h5.19c2.04,0,3.69-1.66,3.69-3.69V32.16c0-2.04-1.66-3.69-3.69-3.69h-5.19
		c-2.04,0-3.69,1.66-3.69,3.69v10.33C51.27,44.52,52.93,46.17,54.97,46.17z M55.53,32.71h4.08v9.21h-4.08V32.71z"/>
	<path class="n7h897w1d" d="M71.16,46.17h5.19c2.04,0,3.69-1.66,3.69-3.69V32.16c0-2.04-1.66-3.69-3.69-3.69h-5.19
		c-2.04,0-3.69,1.66-3.69,3.69v10.33C67.47,44.52,69.13,46.17,71.16,46.17z M71.72,32.71h4.08v9.21h-4.08V32.71z"/>
	<path class="n7h897w1d" d="M21.02,52.7h-5.19c-2.04,0-3.69,1.66-3.69,3.69v10.33c0,2.04,1.66,3.69,3.69,3.69h5.19
		c2.04,0,3.69-1.66,3.69-3.69V56.39C24.71,54.36,23.06,52.7,21.02,52.7z M20.46,66.16h-4.08v-9.21h4.08V66.16z"/>
</g>
</svg>
