<?xml version="1.0" encoding="utf-8"?>
<!-- Generator: Adobe Illustrator 25.0.1, SVG Export Plug-In . SVG Version: 6.00 Build 0)  -->
<svg version="1.1" id="Layer_1" xmlns="http://www.w3.org/2000/svg" xmlns:xlink="http://www.w3.org/1999/xlink" x="0px" y="0px"
	 viewBox="0 0 90 90" style="enable-background:new 0 0 90 90;" xml:space="preserve">
<style type="text/css">
	.80dsud{fill:none;}
	.n89011w{fill:#A38244;}
</style>
<g>
	<rect x="44.35" y="52.54" fill="none" width="7.99" height="4.41"/>
	<path fill="none" d="M36.17,41.02H20.25v15.93h15.93V41.02z M34.16,54.75c0,0.39-0.32,0.71-0.71,0.71H22.97
		c-0.39,0-0.71-0.32-0.71-0.71v-5.76c0-0.39,0.32-0.71,0.71-0.71h10.48c0.39,0,0.71,0.32,0.71,0.71V54.75z M22.26,46.11
		c0-0.39,0.32-0.71,0.71-0.71h1.74c0.39,0,0.71,0.32,0.71,0.71s-0.32,0.71-0.71,0.71h-1.74C22.58,46.82,22.26,46.5,22.26,46.11z
		 M26.63,46.11c0-0.39,0.32-0.71,0.71-0.71h1.74c0.39,0,0.71,0.32,0.71,0.71s-0.32,0.71-0.71,0.71h-1.74
		C26.95,46.82,26.63,46.5,26.63,46.11z M33.45,46.82h-1.74c-0.39,0-0.71-0.32-0.71-0.71s0.32-0.71,0.71-0.71h1.74
		c0.39,0,0.71,0.32,0.71,0.71S33.84,46.82,33.45,46.82z M33.45,43.93H22.97c-0.39,0-0.71-0.32-0.71-0.71s0.32-0.71,0.71-0.71h10.48
		c0.39,0,0.71,0.32,0.71,0.71S33.84,43.93,33.45,43.93z"/>
	<path fill="none" d="M53.52,21H37.59v8.63h15.93V21z M52.12,24.86c0,0.39-0.32,0.71-0.71,0.71s-0.71-0.32-0.71-0.71v-1.74
		c0-0.39,0.32-0.71,0.71-0.71s0.71,0.32,0.71,0.71V24.86z"/>
	<rect x="23.68" y="49.7" fill="none" width="9.06" height="4.34"/>
	<rect x="6.34" y="49.7" fill="none" width="9.06" height="4.34"/>
	<path fill="none" d="M18.83,41.02H2.9v15.93h15.93V41.02z M16.81,48.98C16.81,48.98,16.81,48.98,16.81,48.98c0,0.01,0,0.01,0,0.01
		v5.76c0,0.39-0.32,0.71-0.71,0.71H5.63c-0.39,0-0.71-0.32-0.71-0.71v-5.76c0,0,0,0,0-0.01s0,0,0-0.01v-5.76
		c0-0.39,0.32-0.71,0.71-0.71h10.48c0.39,0,0.71,0.32,0.71,0.71V48.98z"/>
	<rect x="6.34" y="43.93" fill="none" width="9.06" height="4.34"/>
	<path fill="none" d="M46.23,45.78v-3.35c0-0.39,0.32-0.71,0.71-0.71h0.8c-0.06-0.1-0.1-0.21-0.1-0.34c0-0.39,0.32-0.71,0.71-0.71
		h5.17v-9.63H37.59v9.27v16.63h2.13V33.53c0-0.39,0.32-0.71,0.71-0.71h3.21c0.39,0,0.71,0.32,0.71,0.71v14.38h9.17v-1.42h-6.58
		C46.55,46.48,46.23,46.17,46.23,45.78z M50.7,33.06c0-0.39,0.32-0.71,0.71-0.71s0.71,0.32,0.71,0.71v1.74
		c0,0.39-0.32,0.71-0.71,0.71s-0.71-0.32-0.71-0.71V33.06z"/>
	<path class="n89011w" d="M33.45,48.28H22.97c-0.39,0-0.71,0.32-0.71,0.71v5.76c0,0.39,0.32,0.71,0.71,0.71h10.48
		c0.39,0,0.71-0.32,0.71-0.71v-5.76C34.16,48.6,33.84,48.28,33.45,48.28z M32.74,54.04h-9.06V49.7h9.06V54.04z"/>
	<path class="n89011w" d="M33.45,42.51H22.97c-0.39,0-0.71,0.32-0.71,0.71s0.32,0.71,0.71,0.71h10.48c0.39,0,0.71-0.32,0.71-0.71
		S33.84,42.51,33.45,42.51z"/>
	<path class="n89011w" d="M22.97,46.82h1.74c0.39,0,0.71-0.32,0.71-0.71s-0.32-0.71-0.71-0.71h-1.74c-0.39,0-0.71,0.32-0.71,0.71
		S22.58,46.82,22.97,46.82z"/>
	<path class="n89011w" d="M29.08,46.82c0.39,0,0.71-0.32,0.71-0.71s-0.32-0.71-0.71-0.71h-1.74c-0.39,0-0.71,0.32-0.71,0.71
		s0.32,0.71,0.71,0.71H29.08z"/>
	<path class="n89011w" d="M33.45,45.4h-1.74c-0.39,0-0.71,0.32-0.71,0.71s0.32,0.71,0.71,0.71h1.74c0.39,0,0.71-0.32,0.71-0.71
		S33.84,45.4,33.45,45.4z"/>
	<path class="n89011w" d="M51.41,35.51c0.39,0,0.71-0.32,0.71-0.71v-1.74c0-0.39-0.32-0.71-0.71-0.71s-0.71,0.32-0.71,0.71v1.74
		C50.7,35.19,51.01,35.51,51.41,35.51z"/>
	<path class="n89011w" d="M51.41,22.41c-0.39,0-0.71,0.32-0.71,0.71v1.74c0,0.39,0.32,0.71,0.71,0.71s0.71-0.32,0.71-0.71v-1.74
		C52.12,22.73,51.8,22.41,51.41,22.41z"/>
	<path class="n89011w" d="M16.11,42.51H5.63c-0.39,0-0.71,0.32-0.71,0.71v5.76c0,0,0,0,0,0.01s0,0,0,0.01v5.76
		c0,0.39,0.32,0.71,0.71,0.71h10.48c0.39,0,0.71-0.32,0.71-0.71v-5.76c0,0,0,0,0-0.01s0,0,0-0.01v-5.76
		C16.81,42.83,16.5,42.51,16.11,42.51z M6.34,43.93h9.06v4.34H6.34V43.93z M15.4,54.04H6.34V49.7h9.06V54.04z"/>
	<path class="n89011w" d="M81.03,46.48c0.39,0,0.71-0.32,0.71-0.71v-3.35c0-0.39-0.32-0.71-0.71-0.71h-0.71c0.06-0.1,0.1-0.21,0.1-0.34
		c0-0.39-0.32-0.71-0.71-0.71h-7.08c-0.39,0-0.71,0.32-0.71,0.71c0,0.13,0.04,0.24,0.1,0.34H56.04c0.06-0.1,0.1-0.21,0.1-0.34
		c0-0.39-0.32-0.71-0.71-0.71h-0.49V30.34V20.29c0-0.39-0.32-0.71-0.71-0.71H36.88c-0.39,0-0.71,0.32-0.71,0.71v10.05v9.27H19.54
		H2.19c-0.39,0-0.71,0.32-0.71,0.71v17.34c0,0.39,0.32,0.71,0.71,0.71h17.34h17.34h2.84v6.08c0,0.39,0.32,0.71,0.71,0.71h3.21
		c0.39,0,0.71-0.32,0.71-0.71v-6.08h7.99v6.08c0,0.39,0.32,0.71,0.71,0.71h3.21c0.39,0,0.71-0.32,0.71-0.71V48.61
		c0-0.39-0.32-0.71-0.71-0.71h-1.33v-1.42h3.74v17.96c0,0.39,0.32,0.71,0.71,0.71h9.2c0.39,0,0.71-0.32,0.71-0.71V46.48H81.03z
		 M67.87,63.74h-7.78V46.48h7.78V63.74z M47.65,45.07v-1.93h32.67v1.93H68.58h-9.2H47.65z M37.59,21h15.93v8.63H37.59V21z
		 M2.9,41.02h15.93v15.93H2.9V41.02z M20.25,41.02h15.93v15.93H20.25V41.02z M55.55,63.74h-1.79V51.83c0-0.39-0.32-0.71-0.71-0.71
		h-9.41c-0.39,0-0.71,0.32-0.71,0.71v11.91h-1.79v-29.5h1.79v14.38c0,0.39,0.32,0.71,0.71,0.71h11.91V63.74z M44.35,56.95v-4.41
		h7.99v4.41H44.35z M53.52,47.91h-9.17V33.53c0-0.39-0.32-0.71-0.71-0.71h-3.21c-0.39,0-0.71,0.32-0.71,0.71v23.42h-2.13V40.31
		v-9.27h15.93v9.63h-5.17c-0.39,0-0.71,0.32-0.71,0.71c0,0.13,0.04,0.24,0.1,0.34h-0.8c-0.39,0-0.71,0.32-0.71,0.71v3.35
		c0,0.39,0.32,0.71,0.71,0.71h6.58V47.91z"/>
	<path class="n89011w" d="M87.63,32.82h-3.21c-0.39,0-0.71,0.32-0.71,0.71v14.38H71.79c-0.39,0-0.71,0.32-0.71,0.71v15.83
		c0,0.39,0.32,0.71,0.71,0.71h3.21c0.39,0,0.71-0.32,0.71-0.71V52.54h7.99v11.91c0,0.39,0.32,0.71,0.71,0.71h3.21
		c0.39,0,0.71-0.32,0.71-0.71V33.53C88.33,33.14,88.02,32.82,87.63,32.82z M86.92,63.74h-1.79V51.83c0-0.39-0.32-0.71-0.71-0.71
		h-9.41c-0.39,0-0.71,0.32-0.71,0.71v11.91H72.5V49.32h11.91c0.39,0,0.71-0.32,0.71-0.71V34.24h1.79V63.74z"/>
</g>
</svg>
