<svg xmlns="http://www.w3.org/2000/svg" xmlns:xlink="http://www.w3.org/1999/xlink" width="78" height="110" viewBox="0 0 78 110">
  <defs>
    <polygon id="lightbulb-icon-a" points="0 .919 77.321 .919 77.321 78.24 0 78.24"/>
    <polygon id="lightbulb-icon-c" points=".829 .924 36.173 .924 36.173 14 .829 14"/>
  </defs>
  <g fill="none" fill-rule="evenodd">
    <g transform="translate(0 .081)">
      <mask id="lightbulb-icon-b" fill="#fff">
        <use xlink:href="#lightbulb-icon-a"/>
      </mask>
      <path fill="#A38244" d="M41.7543,71.9006 L41.7543,55.2696 L50.6923,46.3326 C51.9013,45.1246 51.9013,43.1656 50.6923,41.9576 C49.4833,40.7486 47.5253,40.7486 46.3173,41.9576 L38.6563,49.6196 L30.9953,41.9576 C29.7873,40.7486 27.8283,40.7486 26.6203,41.9576 C25.4113,43.1656 25.4113,45.1246 26.6203,46.3326 L35.5673,55.2796 L35.5673,71.9006 C19.1073,70.3376 6.1883,56.4416 6.1883,39.5796 C6.1883,21.6736 20.7543,7.1066 38.6603,7.1066 C56.5673,7.1066 71.1343,21.6736 71.1343,39.5796 C71.1343,56.4416 58.2143,70.3376 41.7543,71.9006 M38.6603,0.9186 C17.3433,0.9186 0.0003,18.2616 0.0003,39.5796 C0.0003,60.8976 17.3433,78.2396 38.6603,78.2396 C59.9783,78.2396 77.3213,60.8976 77.3213,39.5796 C77.3213,18.2616 59.9783,0.9186 38.6603,0.9186" mask="url(#lightbulb-icon-b)"/>
    </g>
    <path fill="#A38244" d="M53.0795,82.8664 L23.9225,82.8664 C22.2145,82.8664 20.8285,84.2524 20.8285,85.9604 C20.8285,87.6684 22.2145,89.0534 23.9225,89.0534 L53.0795,89.0534 C54.7875,89.0534 56.1735,87.6684 56.1735,85.9604 C56.1735,84.2524 54.7875,82.8664 53.0795,82.8664"/>
    <g transform="translate(20 95.081)">
      <mask id="lightbulb-icon-d" fill="#fff">
        <use xlink:href="#lightbulb-icon-c"/>
      </mask>
      <path fill="#A38244" d="M33.0795,0.9241 L3.9225,0.9241 C2.2145,0.9241 0.8285,2.3101 0.8285,4.0181 C0.8285,5.7261 2.2145,7.1111 3.9225,7.1111 L15.2475,7.1111 L15.2475,10.9061 C15.2475,12.6141 16.6325,14.0001 18.3415,14.0001 C20.0495,14.0001 21.4345,12.6141 21.4345,10.9061 L21.4345,7.1111 L33.0795,7.1111 C34.7875,7.1111 36.1735,5.7261 36.1735,4.0181 C36.1735,2.3101 34.7875,0.9241 33.0795,0.9241" mask="url(#lightbulb-icon-d)"/>
    </g>
  </g>
</svg>
