<svg xmlns="http://www.w3.org/2000/svg" xmlns:xlink="http://www.w3.org/1999/xlink" style="background: none; shape-rendering: auto;" width="200px" height="200px" viewBox="0 0 100 100" preserveAspectRatio="xMidYMid">
<g transform="rotate(0 50 50)">
  <rect x="47" y="2" rx="0" ry="0" width="6" height="12" fill="#be5960">
    <animate attributeName="opacity" values="1;0" keyTimes="0;1" dur="1s" begin="-0.967741935483871s" repeatCount="indefinite"></animate>
  </rect>
</g><g transform="rotate(11.612903225806452 50 50)">
  <rect x="47" y="2" rx="0" ry="0" width="6" height="12" fill="#be5960">
    <animate attributeName="opacity" values="1;0" keyTimes="0;1" dur="1s" begin="-0.9354838709677419s" repeatCount="indefinite"></animate>
  </rect>
</g><g transform="rotate(23.225806451612904 50 50)">
  <rect x="47" y="2" rx="0" ry="0" width="6" height="12" fill="#be5960">
    <animate attributeName="opacity" values="1;0" keyTimes="0;1" dur="1s" begin="-0.9032258064516129s" repeatCount="indefinite"></animate>
  </rect>
</g><g transform="rotate(34.83870967741935 50 50)">
  <rect x="47" y="2" rx="0" ry="0" width="6" height="12" fill="#be5960">
    <animate attributeName="opacity" values="1;0" keyTimes="0;1" dur="1s" begin="-0.8709677419354839s" repeatCount="indefinite"></animate>
  </rect>
</g><g transform="rotate(46.45161290322581 50 50)">
  <rect x="47" y="2" rx="0" ry="0" width="6" height="12" fill="#be5960">
    <animate attributeName="opacity" values="1;0" keyTimes="0;1" dur="1s" begin="-0.8387096774193549s" repeatCount="indefinite"></animate>
  </rect>
</g><g transform="rotate(58.064516129032256 50 50)">
  <rect x="47" y="2" rx="0" ry="0" width="6" height="12" fill="#be5960">
    <animate attributeName="opacity" values="1;0" keyTimes="0;1" dur="1s" begin="-0.8064516129032258s" repeatCount="indefinite"></animate>
  </rect>
</g><g transform="rotate(69.6774193548387 50 50)">
  <rect x="47" y="2" rx="0" ry="0" width="6" height="12" fill="#be5960">
    <animate attributeName="opacity" values="1;0" keyTimes="0;1" dur="1s" begin="-0.7741935483870968s" repeatCount="indefinite"></animate>
  </rect>
</g><g transform="rotate(81.29032258064517 50 50)">
  <rect x="47" y="2" rx="0" ry="0" width="6" height="12" fill="#be5960">
    <animate attributeName="opacity" values="1;0" keyTimes="0;1" dur="1s" begin="-0.7419354838709677s" repeatCount="indefinite"></animate>
  </rect>
</g><g transform="rotate(92.90322580645162 50 50)">
  <rect x="47" y="2" rx="0" ry="0" width="6" height="12" fill="#be5960">
    <animate attributeName="opacity" values="1;0" keyTimes="0;1" dur="1s" begin="-0.7096774193548387s" repeatCount="indefinite"></animate>
  </rect>
</g><g transform="rotate(104.51612903225806 50 50)">
  <rect x="47" y="2" rx="0" ry="0" width="6" height="12" fill="#be5960">
    <animate attributeName="opacity" values="1;0" keyTimes="0;1" dur="1s" begin="-0.6774193548387096s" repeatCount="indefinite"></animate>
  </rect>
</g><g transform="rotate(116.12903225806451 50 50)">
  <rect x="47" y="2" rx="0" ry="0" width="6" height="12" fill="#be5960">
    <animate attributeName="opacity" values="1;0" keyTimes="0;1" dur="1s" begin="-0.6451612903225806s" repeatCount="indefinite"></animate>
  </rect>
</g><g transform="rotate(127.74193548387096 50 50)">
  <rect x="47" y="2" rx="0" ry="0" width="6" height="12" fill="#be5960">
    <animate attributeName="opacity" values="1;0" keyTimes="0;1" dur="1s" begin="-0.6129032258064516s" repeatCount="indefinite"></animate>
  </rect>
</g><g transform="rotate(139.3548387096774 50 50)">
  <rect x="47" y="2" rx="0" ry="0" width="6" height="12" fill="#be5960">
    <animate attributeName="opacity" values="1;0" keyTimes="0;1" dur="1s" begin="-0.5806451612903226s" repeatCount="indefinite"></animate>
  </rect>
</g><g transform="rotate(150.96774193548387 50 50)">
  <rect x="47" y="2" rx="0" ry="0" width="6" height="12" fill="#be5960">
    <animate attributeName="opacity" values="1;0" keyTimes="0;1" dur="1s" begin="-0.5483870967741935s" repeatCount="indefinite"></animate>
  </rect>
</g><g transform="rotate(162.58064516129033 50 50)">
  <rect x="47" y="2" rx="0" ry="0" width="6" height="12" fill="#be5960">
    <animate attributeName="opacity" values="1;0" keyTimes="0;1" dur="1s" begin="-0.5161290322580645s" repeatCount="indefinite"></animate>
  </rect>
</g><g transform="rotate(174.19354838709677 50 50)">
  <rect x="47" y="2" rx="0" ry="0" width="6" height="12" fill="#be5960">
    <animate attributeName="opacity" values="1;0" keyTimes="0;1" dur="1s" begin="-0.4838709677419355s" repeatCount="indefinite"></animate>
  </rect>
</g><g transform="rotate(185.80645161290323 50 50)">
  <rect x="47" y="2" rx="0" ry="0" width="6" height="12" fill="#be5960">
    <animate attributeName="opacity" values="1;0" keyTimes="0;1" dur="1s" begin="-0.45161290322580644s" repeatCount="indefinite"></animate>
  </rect>
</g><g transform="rotate(197.41935483870967 50 50)">
  <rect x="47" y="2" rx="0" ry="0" width="6" height="12" fill="#be5960">
    <animate attributeName="opacity" values="1;0" keyTimes="0;1" dur="1s" begin="-0.41935483870967744s" repeatCount="indefinite"></animate>
  </rect>
</g><g transform="rotate(209.03225806451613 50 50)">
  <rect x="47" y="2" rx="0" ry="0" width="6" height="12" fill="#be5960">
    <animate attributeName="opacity" values="1;0" keyTimes="0;1" dur="1s" begin="-0.3870967741935484s" repeatCount="indefinite"></animate>
  </rect>
</g><g transform="rotate(220.6451612903226 50 50)">
  <rect x="47" y="2" rx="0" ry="0" width="6" height="12" fill="#be5960">
    <animate attributeName="opacity" values="1;0" keyTimes="0;1" dur="1s" begin="-0.3548387096774194s" repeatCount="indefinite"></animate>
  </rect>
</g><g transform="rotate(232.25806451612902 50 50)">
  <rect x="47" y="2" rx="0" ry="0" width="6" height="12" fill="#be5960">
    <animate attributeName="opacity" values="1;0" keyTimes="0;1" dur="1s" begin="-0.3225806451612903s" repeatCount="indefinite"></animate>
  </rect>
</g><g transform="rotate(243.8709677419355 50 50)">
  <rect x="47" y="2" rx="0" ry="0" width="6" height="12" fill="#be5960">
    <animate attributeName="opacity" values="1;0" keyTimes="0;1" dur="1s" begin="-0.2903225806451613s" repeatCount="indefinite"></animate>
  </rect>
</g><g transform="rotate(255.48387096774192 50 50)">
  <rect x="47" y="2" rx="0" ry="0" width="6" height="12" fill="#be5960">
    <animate attributeName="opacity" values="1;0" keyTimes="0;1" dur="1s" begin="-0.25806451612903225s" repeatCount="indefinite"></animate>
  </rect>
</g><g transform="rotate(267.0967741935484 50 50)">
  <rect x="47" y="2" rx="0" ry="0" width="6" height="12" fill="#be5960">
    <animate attributeName="opacity" values="1;0" keyTimes="0;1" dur="1s" begin="-0.22580645161290322s" repeatCount="indefinite"></animate>
  </rect>
</g><g transform="rotate(278.7096774193548 50 50)">
  <rect x="47" y="2" rx="0" ry="0" width="6" height="12" fill="#be5960">
    <animate attributeName="opacity" values="1;0" keyTimes="0;1" dur="1s" begin="-0.1935483870967742s" repeatCount="indefinite"></animate>
  </rect>
</g><g transform="rotate(290.3225806451613 50 50)">
  <rect x="47" y="2" rx="0" ry="0" width="6" height="12" fill="#be5960">
    <animate attributeName="opacity" values="1;0" keyTimes="0;1" dur="1s" begin="-0.16129032258064516s" repeatCount="indefinite"></animate>
  </rect>
</g><g transform="rotate(301.93548387096774 50 50)">
  <rect x="47" y="2" rx="0" ry="0" width="6" height="12" fill="#be5960">
    <animate attributeName="opacity" values="1;0" keyTimes="0;1" dur="1s" begin="-0.12903225806451613s" repeatCount="indefinite"></animate>
  </rect>
</g><g transform="rotate(313.5483870967742 50 50)">
  <rect x="47" y="2" rx="0" ry="0" width="6" height="12" fill="#be5960">
    <animate attributeName="opacity" values="1;0" keyTimes="0;1" dur="1s" begin="-0.0967741935483871s" repeatCount="indefinite"></animate>
  </rect>
</g><g transform="rotate(325.16129032258067 50 50)">
  <rect x="47" y="2" rx="0" ry="0" width="6" height="12" fill="#be5960">
    <animate attributeName="opacity" values="1;0" keyTimes="0;1" dur="1s" begin="-0.06451612903225806s" repeatCount="indefinite"></animate>
  </rect>
</g><g transform="rotate(336.7741935483871 50 50)">
  <rect x="47" y="2" rx="0" ry="0" width="6" height="12" fill="#be5960">
    <animate attributeName="opacity" values="1;0" keyTimes="0;1" dur="1s" begin="-0.03225806451612903s" repeatCount="indefinite"></animate>
  </rect>
</g><g transform="rotate(348.38709677419354 50 50)">
  <rect x="47" y="2" rx="0" ry="0" width="6" height="12" fill="#be5960">
    <animate attributeName="opacity" values="1;0" keyTimes="0;1" dur="1s" begin="0s" repeatCount="indefinite"></animate>
  </rect>
</g>
<!-- [ldio] generated by https://loading.io/ --></svg>