<svg xmlns="http://www.w3.org/2000/svg" viewBox="0 0 18 27">
  <g fill="#DEDEDE" fill-rule="evenodd">
    <path d="M9,5.61455314 C7.04849547,5.61455314 5.46070698,7.20234163 5.46070698,9.15384615 C5.46070698,11.1053507 7.04849547,12.6931392 9,12.6931392 C10.9515045,12.6931392 12.539293,11.1053507 12.539293,9.15384615 C12.539293,7.20234163 10.9515045,5.61455314 9,5.61455314 M9,14.1538462 C6.24218522,14.1538462 4,11.9102002 4,9.15384615 C4,6.39749208 6.24218522,4.15384615 9,4.15384615 C11.7578148,4.15384615 14,6.39749208 14,9.15384615 C14,11.9102002 11.7578148,14.1538462 9,14.1538462"/>
    <path d="M8.96807058,1.62274339 C8.87142296,1.62274339 8.77328846,1.62421329 8.67664084,1.62862298 C6.24112082,1.73004583 3.91414351,3.04560321 2.60270965,5.06230121 C0.577570289,8.17407211 1.67637938,11.6180396 2.97294438,14.87974 C4.4092767,18.486866 5.75490894,21.1914756 7.47523658,23.9210734 C8.05809607,24.8456383 9.65501213,24.8735663 10.2646356,23.9960381 C11.7455745,21.8661581 13.1878544,19.239453 14.5468686,16.1879479 C15.4211578,14.2315156 16.4337275,11.669486 16.5080718,9.21181904 C16.5601128,7.51849827 16.1705486,6.10886752 15.3170758,4.90502228 C13.8837172,2.88979418 11.4169726,1.62274339 8.96807058,1.62274339 M8.89223937,26.1538462 L8.89223937,26.1538462 C7.80383849,26.1538462 6.77639994,25.5967554 6.21138309,24.6971787 C4.4419882,21.8882065 3.05918379,19.111572 1.59013997,15.4177221 C0.213283107,11.9605255 -1.05205727,7.96240701 1.35075125,4.2670872 C2.92090335,1.85498704 5.70286792,0.280727881 8.61270472,0.160196368 C11.7173236,0.044074544 14.7342163,1.52720012 16.5333489,4.06130169 C17.5637612,5.51355944 18.0559206,7.26126638 17.9949583,9.25591594 C17.9116926,11.9693449 16.8351868,14.7018825 15.9073697,16.781786 C14.5111833,19.9156054 13.0242968,22.6246246 11.48983,24.8294694 C10.9129181,25.658491 9.94198121,26.1538462 8.89223937,26.1538462"/>
  </g>
</svg>
