<svg xmlns="http://www.w3.org/2000/svg" viewBox="0 0 92 56">
  <g fill="currentColor" fill-rule="evenodd" transform="translate(.504)">
    <path d="M4.22668873 39.7280144C4.45111299 39.7400344 4.70213569 39.7486201 4.97476961 39.7486201 5.31722441 39.7486201 5.65302961 39.7280144 5.9871724 39.6919543 6.31466558 39.6524599 6.62719715 39.5820569 6.9247671 39.4652909 7.21734985 39.3519593 7.49330857 39.1871132 7.74765607 38.9741871 8.00200357 38.7612609 8.23307744 38.4796489 8.43422808 38.1276339 8.75340925 37.5712784 8.97118391 37.0114887 9.09918886 36.4345275 9.2188818 35.854132 9.28039067 35.2222221 9.28039067 34.528495 9.28039067 33.707699 9.20724499 32.9658917 9.05762881 32.301356 8.90801263 31.6419718 8.66530195 31.0890506 8.33115916 30.6322897 7.99701636 30.1772459 7.55647984 29.8252309 6.99957519 29.5745275 6.44599534 29.322107 5.75111132 29.1916038 4.91492314 29.1916038 4.66390044 29.1916038 4.43448897 29.2019067 4.22668873 29.2087753 4.07541015 29.217361 3.92246917 29.2259468 3.7778402 29.2328154L3.7778402 39.70054C3.91249476 39.7108429 4.06211094 39.7228629 4.22668873 39.7280144M4.49599785 40.2895212C4.32310804 40.2878041 4.14689344 40.2775012 3.97234123 40.2671983 3.80111383 40.2568955 3.63487363 40.2534612 3.46697104 40.2483097 3.30073084 40.239724 3.14446506 40.239724 2.99318648 40.239724L.238586441 40.239724.238586441 39.8482146.238586441 39.6833685 1.93257403 39.6833685 1.93257403 29.2396839.238586441 29.2396839.238586441 28.6833285 3.23755957 28.6833285C3.38052613 28.6833285 3.5218303 28.6833285 3.65814726 28.6764599 3.79612662 28.6747428 3.93576839 28.6678742 4.07707255 28.6575713L4.08372216 28.6575713 4.09037177 28.6575713C4.22835113 28.6575713 4.3713177 28.654137 4.51095946 28.6489856 4.65725084 28.642117 4.8002174 28.6386827 4.94318397 28.6386827 5.24740353 28.6386827 5.52336225 28.642117 5.76607294 28.6575713 6.00878362 28.6678742 6.23487029 28.6850456 6.44932014 28.71252 6.6654324 28.7399943 6.86824544 28.7777715 7.06274646 28.8258516 7.25558509 28.8722146 7.46504774 28.935749 7.67783519 29.0113035 8.31287273 29.2259468 8.86645258 29.5161445 9.33524994 29.8784624 9.80238488 30.2424975 10.1863997 30.6649155 10.4856321 31.140565 10.7881892 31.6162146 11.0076263 32.1416614 11.1472681 32.7031683 11.291897 33.2612409 11.3600555 33.848505 11.3600555 34.4615262 11.3600555 35.1689906 11.275273 35.8094862 11.1090328 36.3744274 10.9411302 36.94452 10.7100564 37.4476439 10.4141488 37.8889505 10.1215661 38.3302572 9.77911126 38.7080294 9.38512199 39.0274186 8.98947033 39.3450907 8.57054504 39.6043798 8.12169651 39.7967002 7.87233622 39.9134662 7.63461274 40.0044749 7.40686367 40.0731608 7.180777 40.1366952 6.94637833 40.1882096 6.71197965 40.2191182 6.47758098 40.2500269 6.22157107 40.2723498 5.94228755 40.2843698 5.66466642 40.2929555 5.34714765 40.298107 4.98806882 40.298107L4.93985917 40.298107C4.80187981 40.298107 4.65725084 40.298107 4.49599785 40.2895212M14.6482866 35.0814161L17.5392036 35.0814161 16.0912515 31.1388479 14.6482866 35.0814161zM17.6090245 40.2380068L17.6090245 39.6833685 19.2265416 39.6833685 17.7503286 35.6394887 14.4354991 35.6394887 12.954299 39.6833685 14.5768033 39.6833685 14.5768033 40.2380068 10.9727159 40.2380068 10.9727159 39.8482146 10.9727159 39.6833685 12.3658087 39.6833685 16.4819159 28.4017165 17.073731 28.4017165 21.2230863 39.6833685 22.6261536 39.6833685 22.6261536 40.2380068 17.6090245 40.2380068z" />
    <polygon points="26.137 40.474 21.989 29.241 20.568 29.241 20.568 29.074 20.568 28.853 20.568 28.684 25.6 28.684 25.6 29.241 23.984 29.241 27.134 37.742 30.243 29.241 28.649 29.241 28.649 28.684 32.269 28.684 32.269 29.241 30.846 29.241 26.743 40.474" />
    <polygon points="32.201 40.24 32.201 39.848 32.201 39.683 33.893 39.683 33.893 29.241 32.201 29.241 32.201 28.685 37.434 28.685 37.434 29.241 35.742 29.241 35.742 39.683 37.434 39.683 37.434 40.24" />
    <path d="M42.5731484 39.7280144C42.8008974 39.7400344 43.0485953 39.7486201 43.3195669 39.7486201 43.6586968 39.7486201 43.9978268 39.7280144 44.3319696 39.6919543 44.6594628 39.6524599 44.970332 39.5820569 45.2695643 39.4652909 45.5571599 39.3519593 45.8364434 39.1871132 46.0891285 38.9741871 46.3451384 38.7612609 46.5762123 38.4779317 46.7806877 38.1276339 47.0965441 37.5712784 47.3176436 37.0114887 47.4389989 36.4345275 47.5620166 35.854132 47.6268503 35.2170707 47.6268503 34.528495 47.6268503 33.707699 47.5537046 32.9658917 47.4024261 32.301356 47.2528099 31.6419718 47.0100992 31.0890506 46.6759564 30.6322897 46.3451384 30.1772459 45.9012771 29.8252309 45.34271 29.5745275 44.792455 29.322107 44.097571 29.1916038 43.258058 29.1916038 43.0070353 29.1916038 42.7759614 29.2019067 42.5731484 29.2087753 42.4202074 29.217361 42.2689288 29.2259468 42.1226374 29.2328154L42.1226374 39.6971057C42.2539672 39.7108429 42.4035834 39.7228629 42.5731484 39.7280144M42.8424575 40.2895212C42.6679053 40.2878041 42.4933531 40.2775012 42.3188009 40.2671983 42.1475735 40.2568955 41.9813333 40.2534612 41.8134307 40.2483097 41.6471905 40.239724 41.4909247 40.239724 41.3363213 40.239724L38.5833837 40.239724 38.5833837 39.8482146 38.5833837 39.6833685 40.2757089 39.6833685 40.2757089 29.2396839 38.5833837 29.2396839 38.5833837 28.6833285 41.5806944 28.6833285C41.723661 28.6833285 41.8649651 28.6833285 42.0012821 28.6764599 42.1442487 28.6747428 42.282228 28.6678742 42.4235322 28.6575713L42.4285194 28.6575713 42.435169 28.6575713C42.5764732 28.6575713 42.7144525 28.654137 42.8540943 28.6489856 43.0003857 28.6403998 43.1450146 28.6386827 43.2896436 28.6386827 43.5955256 28.6386827 43.8681595 28.6455513 44.1108702 28.6575713 44.3552433 28.6678742 44.5829923 28.6850456 44.7941174 28.71252 45.011892 28.7399943 45.2147051 28.7777715 45.4058813 28.8258516 45.6037071 28.8722146 45.809845 28.935749 46.0226324 29.0113035 46.6543452 29.2259468 47.2095874 29.5161445 47.6783848 29.8784624 48.1471821 30.2424975 48.5295346 30.6649155 48.8320917 31.140565 49.1313241 31.6162146 49.3507611 32.1416614 49.4904029 32.7031683 49.6333695 33.2612409 49.7031904 33.848505 49.7031904 34.4615262 49.7031904 35.1689906 49.6217327 35.8094862 49.4521677 36.3761445 49.2842651 36.94452 49.0531912 37.4442096 48.758946 37.8889505 48.4663633 38.3302572 48.1222461 38.7080294 47.7282568 39.0308529 47.3375924 39.3433736 46.9153423 39.6043798 46.4664938 39.7967002 46.2154711 39.9134662 45.9744228 40.0044749 45.7516609 40.0731608 45.520587 40.1366952 45.2945004 40.1882096 45.0551145 40.2191182 44.8240406 40.2500269 44.5663683 40.2723498 44.2854224 40.2843698 44.0094637 40.2929555 43.6919449 40.298107 43.3361909 40.298107 43.1815875 40.298107 43.0170097 40.298107 42.8424575 40.2895212M54.3341435 40.4626096C54.1645785 40.4574582 54.0099751 40.443721 53.8586965 40.4231152 53.7173924 40.4025095 53.5760882 40.3801866 53.426472 40.3509951 53.2768558 40.3252379 53.1172653 40.2840264 52.9377258 40.2307948 52.7299256 40.1655433 52.5088261 40.0899888 52.2760899 40.0075658 52.0500032 39.9285771 51.8621518 39.8907998 51.7191852 39.8907998 51.5828682 39.8890827 51.5246842 39.9234256 51.5246842 39.9285771 51.4847865 39.9766572 51.4465513 40.0401916 51.4116408 40.1363518L51.366756 40.2393806 50.8680354 40.2393806 50.8680354 36.6866046 50.8680354 36.5166071 51.3301831 36.5166071 51.358444 36.6522617C51.4665001 37.2051828 51.6094667 37.6705295 51.7790317 38.0483017 51.9535839 38.4243568 52.1430977 38.7300088 52.3409235 38.9669751 52.5470614 39.2108098 52.756524 39.3911102 52.9726363 39.5147448 53.1937357 39.6452479 53.4148352 39.7362567 53.6409219 39.7997911 53.8703333 39.8581741 54.0914328 39.8959513 54.2959082 39.904537 54.5120205 39.916557 54.7164959 39.9199913 54.9043474 39.916557 55.4296664 39.9199913 55.8469293 39.8392854 56.164448 39.6830251 56.4919412 39.5216134 56.7462887 39.3241415 56.9291529 39.0906096 57.1203292 38.8502091 57.2499965 38.5926371 57.3248046 38.3161766 57.4062623 38.027696 57.4411727 37.7666897 57.4411727 37.5383092 57.4411727 37.1880113 57.3829887 36.8995307 57.2616333 36.6659988 57.1386156 36.4204469 56.9840122 36.2143893 56.7961608 36.0426747 56.6049846 35.8692429 56.3971843 35.730154 56.1694352 35.6219738 55.9400238 35.5103593 55.7189243 35.4262191 55.5111241 35.3609675L53.7589524 34.8080464C52.917777 34.5401715 52.2727651 34.1864394 51.8289037 33.7296784 51.366756 33.2660489 51.1406693 32.6324219 51.1406693 31.8785946 51.1406693 31.3840564 51.230439 30.922144 51.400004 30.5014431 51.569569 30.0755908 51.8139421 29.7064043 52.1231489 29.397318 52.4356804 29.0882316 52.8063961 28.8409625 53.2369582 28.6692479 53.6675203 28.4906647 54.1396425 28.4030902 54.646675 28.4030902 55.0107411 28.4030902 55.3232726 28.435716 55.5776201 28.5026847 55.8236556 28.5696534 56.0347807 28.6417736 56.2226321 28.7224794 56.3955219 28.8049025 56.5484629 28.8735883 56.6864422 28.9371227 56.8061352 28.9903543 56.9191785 29.0178286 57.0421963 29.0178286 57.1286412 29.0178286 57.2466717 28.9886371 57.3580526 28.7688424L57.4029375 28.6847022 57.86841 28.6847022 57.86841 31.871726 57.3879759 31.871726 57.3680354 31.73092C57.309843 31.3703192 57.2100989 31.0131528 57.0671323 30.6783092 56.9274905 30.3400314 56.7462887 30.0463993 56.5218645 29.7905445 56.3024274 29.5398411 56.0414303 29.3406521 55.7272363 29.186109 55.4246792 29.0367172 55.0639379 28.9577285 54.646675 28.9577285 54.418926 28.9577285 54.1579289 28.9903543 53.8736581 29.0538887 53.596037 29.1225746 53.3367023 29.2273205 53.0973164 29.3870151 52.867905 29.5449926 52.6750663 29.7476159 52.5188005 29.9983192 52.3708468 30.2404369 52.2893891 30.5512404 52.2893891 30.9496184 52.2893891 31.2638562 52.3542228 31.5145595 52.4689285 31.7257685 52.586959 31.9404118 52.7432248 32.1241465 52.9327386 32.270104 53.1322269 32.4280814 53.3533263 32.5568674 53.6026866 32.6616134 53.8553717 32.7715107 54.1163688 32.8642366 54.3723787 32.9483768L56.2176449 33.5493781C56.4154707 33.6129125 56.6581814 33.6970526 56.9557514 33.7983643 57.2666205 33.9134131 57.5675153 34.0782592 57.8567732 34.2963368 58.1609928 34.5195658 58.4136779 34.8200664 58.6198157 35.1823843 58.835928 35.5601565 58.9389969 36.0306547 58.9389969 36.5887272 58.9389969 37.1038712 58.8475648 37.5966922 58.6613758 38.0654732 58.4735243 38.5273856 58.20754 38.9412179 57.8567732 39.3018186 57.5026816 39.6572679 57.0787691 39.9423142 56.5850357 40.1552404 56.0813279 40.3664494 55.5244233 40.4746296 54.9043474 40.4746296 54.6882351 40.4746296 54.4987213 40.4711953 54.3341435 40.4626096M62.1688777 36.8890562C62.2935578 37.5776319 62.4863964 38.1442902 62.7590303 38.5976169 63.0316643 39.0457921 63.3741191 39.3754842 63.7947068 39.5901275 64.2119697 39.8047708 64.7389511 39.9198196 65.383963 39.9198196 66.0173382 39.9198196 66.5426572 39.8047708 66.9682321 39.5901275 67.3921446 39.3754842 67.7362618 39.0457921 68.0072333 38.5976169 68.2765424 38.1442902 68.4776931 37.5776319 68.597386 36.8890562 68.7154165 36.2004804 68.7736006 35.3831187 68.7736006 34.4438396 68.7736006 33.7260724 68.7303782 33.0357796 68.6439333 32.3643753 68.5508388 31.7032739 68.3796114 31.1211613 68.1319135 30.6060174 67.8842156 30.0994592 67.5417608 29.699364 67.0995618 29.405732 66.6756494 29.1103828 66.1037831 28.9575568 65.383963 28.9575568 64.664143 28.9575568 64.0922767 29.1103828 63.663377 29.405732 63.2245029 29.699364 62.8870353 30.0994592 62.637675 30.6060174 62.3883147 31.1211613 62.2187497 31.7032739 62.1273176 32.3643753 62.0392103 33.0357796 61.992663 33.7260724 61.992663 34.4438396 61.992663 35.3831187 62.0508471 36.2004804 62.1688777 36.8890562L62.1688777 36.8890562zM65.383963 40.4761751C64.6009717 40.4761751 63.8678524 40.3027433 63.1912549 39.9661826 62.5279565 39.6347733 61.9477782 39.1865981 61.4573696 38.6302426 60.9719482 38.0773215 60.5929206 37.4299573 60.3236115 36.7036043 60.0509776 35.9772514 59.9179854 35.2234241 59.9179854 34.4438396 59.9179854 33.5835493 60.0792384 32.783359 60.4117188 32.0449861 60.7358872 31.3134817 61.1597997 30.6781375 61.6801315 30.1406707 62.1938137 29.5963353 62.7789792 29.1739172 63.4223287 28.866548 64.0739903 28.5574617 64.7306391 28.4029185 65.383963 28.4029185 66.078847 28.4029185 66.7587694 28.5557445 67.4120934 28.866548 68.0654174 29.1739172 68.6472581 29.5963353 69.1609403 30.1406707 69.6712977 30.6798547 70.0835734 31.316916 70.3894553 32.0467032 70.6986621 32.7867933 70.8532655 33.5835493 70.8532655 34.4438396 70.8532655 35.2011012 70.7102989 35.9411913 70.4310154 36.6658271 70.1500694 37.3887458 69.7610674 38.0309585 69.2706588 38.5907483 68.7819126 39.1522552 68.2000719 39.6055818 67.5417608 39.9524454 66.8718128 40.299309 66.1503303 40.4761751 65.3889502 40.4761751L65.383963 40.4761751z" />
    <polygon points="79.76 40.457 73.556 30.247 73.556 39.681 75.252 39.681 75.252 40.239 71.314 40.239 71.314 39.85 71.314 39.681 73.006 39.681 73.006 29.241 71.314 29.241 71.314 28.686 74.83 28.686 79.762 36.9 79.762 29.241 78.066 29.241 78.066 28.686 82.005 28.686 82.005 29.241 80.312 29.241 80.312 40.457" />
    <path d="M86.3596522,40.4626096 C86.1900872,40.4574582 86.0354838,40.443721 85.8808804,40.4265495 C85.7395762,40.4025095 85.5982721,40.3801866 85.4469935,40.3509951 C85.3007021,40.3252379 85.1394491,40.2840264 84.9632345,40.2307948 C84.7554343,40.1655433 84.5326724,40.0899888 84.303261,40.0075658 C84.0755119,39.9285771 83.8859981,39.8907998 83.7397067,39.8907998 C83.6067145,39.8907998 83.5501929,39.9234256 83.5468681,39.9285771 C83.5086328,39.97494 83.4670728,40.0401916 83.4321623,40.1363518 L83.3922647,40.2393806 L82.8935441,40.2393806 L82.8935441,36.6866046 L82.8935441,36.5166071 L83.352367,36.5166071 L83.3806279,36.6505445 C83.4903464,37.2051828 83.6349754,37.6705295 83.8012156,38.0483017 C83.9757678,38.4243568 84.1636192,38.7300088 84.369757,38.9704093 C84.5709077,39.2108098 84.7803703,39.3911102 84.9948202,39.5147448 C85.217582,39.6452479 85.4386815,39.7362567 85.6647682,39.7997911 C85.895842,39.8581741 86.1136167,39.8959513 86.3197545,39.904537 C86.532542,39.916557 86.7370174,39.916557 86.929856,39.916557 C87.4518503,39.9199913 87.872438,39.8392854 88.1866319,39.6830251 C88.5174499,39.5216134 88.7684726,39.3224244 88.956324,39.0906096 C89.1441754,38.8502091 89.2755052,38.59092 89.3519757,38.3161766 C89.431771,38.027696 89.4683438,37.7649725 89.4683438,37.5365921 C89.4683438,37.1880113 89.406835,36.8995307 89.2888044,36.6659988 C89.1641243,36.4204469 89.0078585,36.2143893 88.8233319,36.0426747 C88.6271684,35.8692429 88.4210306,35.7284369 88.1932815,35.6219738 C87.9622077,35.5103593 87.744433,35.4262191 87.5382952,35.3592504 L85.7794739,34.8080464 C84.9449481,34.5401715 84.2982737,34.1864394 83.8477628,33.7262441 C83.3922647,33.2660489 83.166178,32.6324219 83.1678404,31.8785946 C83.1678404,31.3874907 83.2509605,30.9238612 83.4255127,30.5014431 C83.5934153,30.0755908 83.8344636,29.7064043 84.15032,29.3990351 C84.4545395,29.0882316 84.8335672,28.8409625 85.2608045,28.6692479 C85.6897042,28.4906647 86.1634887,28.4030902 86.6721837,28.4030902 C87.0345874,28.4030902 87.3471189,28.435716 87.6031288,28.5026847 C87.8491643,28.5696534 88.0602894,28.6417736 88.244816,28.7276309 C88.4177058,28.8049025 88.5723092,28.8735883 88.7136133,28.9371227 C88.8299815,28.9903543 88.9463496,29.0178286 89.0660426,29.0178286 C89.1508251,29.0178286 89.2106715,29.0058086 89.2256331,28.9955057 L89.2356076,28.9955057 C89.2389324,28.9955057 89.3070908,28.9096484 89.3818989,28.7671252 L89.4267838,28.6847022 L89.8972435,28.6847022 L89.8972435,31.871726 L89.415147,31.871726 L89.3918733,31.7343543 C89.3336893,31.3686021 89.2339452,31.0131528 89.092641,30.6783092 C88.9496744,30.3400314 88.7684726,30.0463993 88.5473731,29.7905445 C88.3279361,29.5398411 88.0652766,29.3406521 87.7544074,29.186109 C87.4452006,29.0367172 87.0861218,28.9577285 86.6721837,28.9577285 C86.4411099,28.9577285 86.1851,28.9903543 85.895842,29.0538887 C85.6182209,29.1225746 85.3638734,29.2273205 85.1244875,29.3870151 C84.8917512,29.5449926 84.6989126,29.7476159 84.5426468,30.0000364 C84.3913683,30.2404369 84.3182226,30.5495232 84.3165602,30.9496184 C84.3182226,31.2638562 84.3747442,31.5145595 84.4911124,31.7257685 C84.6108053,31.9404118 84.7654087,32.1241465 84.9599097,32.270104 C85.1577356,32.4280814 85.378835,32.5568674 85.6232081,32.6616134 C85.879218,32.7715107 86.1368903,32.8642366 86.3945626,32.9483768 L88.2414912,33.5442266 C88.439317,33.6129125 88.6836901,33.6970526 88.9829225,33.7983643 C89.2904668,33.9134131 89.5946864,34.0782592 89.8839443,34.2963368 C90.1815143,34.5195658 90.4375242,34.8166321 90.643662,35.1823843 C90.8597743,35.5584394 90.9645056,36.0306547 90.9645056,36.5887272 C90.9645056,37.1038712 90.8697487,37.5966922 90.6835597,38.0654732 C90.4973706,38.5308199 90.2263991,38.9395007 89.8772947,39.3018186 C89.5265279,39.6572679 89.100953,39.9423142 88.6072196,40.1552404 C88.1068366,40.3664494 87.5466072,40.4746296 86.929856,40.4746296 C86.7137438,40.4746296 86.52423,40.4711953 86.3596522,40.4626096" />
    <polygon points="23.224 55.633 23.224 55.487 23.224 55.12 24.892 55.12 24.892 50.085 20.17 50.085 20.17 55.12 21.839 55.12 21.839 55.268 21.839 55.633 16.708 55.633 16.708 55.487 16.708 55.268 16.708 55.12 18.377 55.12 18.378 44.786 16.708 44.786 16.708 44.64 16.708 44.275 21.839 44.275 21.839 44.42 21.839 44.786 20.17 44.786 20.17 49.57 24.893 49.57 24.893 44.786 23.224 44.786 23.224 44.64 23.224 44.275 28.353 44.275 28.353 44.42 28.353 44.786 26.687 44.786 26.687 55.12 28.353 55.12 28.353 55.268 28.353 55.633" />
    <path d="M31.5564106,52.3483538 C31.6744412,53.0300609 31.8689422,53.5950021 32.1382513,54.039743 C32.4075604,54.4862011 32.745028,54.8124589 33.1639533,55.0288194 C33.5778914,55.2417455 34.1032104,55.35336 34.738248,55.35336 C35.3649735,55.35336 35.8853053,55.2417455 36.3075554,55.0288194 C36.7281431,54.8124589 37.0705979,54.4862011 37.339907,54.039743 C37.6108785,53.5950021 37.8053796,53.0300609 37.9250725,52.3483538 C38.0414406,51.6700809 38.1029495,50.8647393 38.1029495,49.9409145 C38.1012871,49.2300159 38.0580647,48.5465916 37.9666326,47.8854902 C37.8785336,47.2295403 37.7089603,46.6508619 37.4629248,46.1443037 C37.2152269,45.6411798 36.8794217,45.244519 36.4438724,44.9491698 C36.0166351,44.6572549 35.4530808,44.5078632 34.738248,44.5078632 C34.0234151,44.5078632 33.4615233,44.6572549 33.0359484,44.9491698 C32.5987366,45.244519 32.2629315,45.6411798 32.016896,46.1443037 C31.7691981,46.6508619 31.6012955,47.2295403 31.5148506,47.8854902 C31.4200937,48.5465916 31.3785336,49.2300159 31.3785336,49.9409145 C31.3785336,50.8647393 31.4400425,51.6700809 31.5564106,52.3483538 L31.5564106,52.3483538 Z M34.738248,55.8651207 C33.9685559,55.868504 33.2470734,55.6985065 32.5870998,55.3705315 C31.9287887,55.0408394 31.3585848,54.6012499 30.879813,54.0534802 C30.4010413,53.5074276 30.0303256,52.8738006 29.7610165,52.1594677 C29.4950322,51.4451348 29.3603776,50.6998932 29.3603776,49.9409145 C29.3603776,49.0926441 29.523293,48.3044739 29.8491238,47.5746867 C30.1699674,46.8586366 30.5872303,46.230161 31.0942629,45.6995628 C31.6046203,45.1689645 32.1748241,44.751698 32.8115241,44.447763 C33.4515488,44.1438281 34.0948984,43.9910021 34.738248,43.9910021 C35.4214952,43.9910021 36.0881183,44.1438281 36.7347927,44.447763 C37.3731551,44.751698 37.9483461,45.1689645 38.4537163,45.6995628 C38.9574241,46.230161 39.358063,46.8620709 39.6606201,47.5815553 C39.9665021,48.3061911 40.1177807,49.0926441 40.1177807,49.9409145 C40.1177807,50.6844389 39.9781389,51.412509 39.7005178,52.1216904 C39.4245591,52.8325891 39.0422066,53.464499 38.5601101,54.015703 C38.0780135,54.566907 37.509472,55.013365 36.8578105,55.35336 C36.2028241,55.693355 35.4996281,55.8651207 34.74656,55.8651207 L34.738248,55.8651207 Z" />
    <polygon points="43.407 45.627 43.407 55.118 45.076 55.118 45.076 55.268 45.076 55.635 41.226 55.635 41.226 55.487 41.226 55.268 41.226 55.118 42.893 55.118 42.893 44.786 41.226 44.786 41.226 44.64 41.226 44.274 44.853 44.274 47.551 52.372 50.247 44.274 53.815 44.274 53.815 44.42 53.815 44.786 52.146 44.786 52.146 55.118 53.815 55.118 53.815 55.268 53.815 55.635 48.685 55.635 48.685 55.487 48.685 55.118 50.356 55.118 50.356 45.524 46.874 55.956" />
    <path d="M55.1059967 55.6334266L55.1059967 55.4874692 55.1059967 55.2676744 55.1059967 55.1199998 56.7750483 55.1199998 56.7750483 44.7862126 55.1059967 44.7862126 55.1059967 44.6402552 55.1059967 44.274503 63.99486 44.274503 63.99486 47.2554692 63.8518934 47.2554692 63.5842467 47.2554692 63.5493362 47.159309C63.4213313 46.7592139 63.2833519 46.4071988 63.1370606 46.1118496 62.9957564 45.8147833 62.8228666 45.5709485 62.6250407 45.3717595 62.4272149 45.1760048 62.1978034 45.0300474 61.9268319 44.9338872 61.654198 44.8360098 61.3200552 44.7862126 60.9177539 44.7862126L58.56878 44.7862126 58.56878 49.2954391 59.399981 49.2954391C59.7208245 49.2954391 59.9901337 49.2628134 60.2062459 49.2044304 60.4123837 49.1477645 60.5852736 49.0447358 60.7348897 48.8936269 60.8828435 48.742518 61.0141733 48.5244404 61.1238918 48.2411112 61.2369351 47.9577821 61.348316 47.5851613 61.4563722 47.1180975L61.4829706 47.0064829 61.5960139 47.0064829 61.9052207 47.0064829 61.9052207 52.1355993 61.7605917 52.1355993 61.4829706 52.1355993 61.4563722 52.0239848C61.3865513 51.7286356 61.3117432 51.4384379 61.2385975 51.158543 61.1687766 50.8941025 61.0673701 50.6554191 60.94269 50.4527958 60.8180098 50.2570411 60.6584192 50.102498 60.4489566 49.9840149 60.256118 49.8706832 59.9868088 49.8054316 59.6393668 49.8054316L58.5637928 49.8054316 58.5637928 55.1199998 61.2651959 55.1199998C61.7955022 55.1199998 62.2227395 55.0015167 62.5635319 54.7782877 62.9176235 54.5447558 63.2002318 54.2682952 63.4196689 53.9454717 63.6424307 53.620931 63.8053461 53.2895217 63.9100775 52.9392239 64.0181336 52.5820574 64.0879545 52.2884254 64.1145529 52.0634792L64.1328393 51.9381275 64.2591819 51.9381275 64.5667262 51.9381275 64.5667262 55.6334266 55.1059967 55.6334266zM70.5312582 55.8666151C70.3184708 55.8666151 70.1322817 55.8597465 69.9693663 55.8580294 69.8047885 55.8545951 69.6501852 55.8408579 69.5022314 55.818535 69.3609272 55.7996464 69.2196231 55.7738892 69.0766565 55.748132 68.9303651 55.7189405 68.7674497 55.6811633 68.5962223 55.6262146 68.3917469 55.5643973 68.1756346 55.4922772 67.941236 55.4064199 67.7217989 55.3291483 67.5339475 55.2930882 67.3876561 55.2930882 67.2530015 55.2896539 67.1898303 55.3274311 67.1831807 55.3342997 67.1449454 55.3823798 67.1050478 55.4476314 67.0684749 55.5403573L67.0352269 55.6348003 66.9354828 55.6348003 66.5664295 55.6348003 66.5664295 52.1438416 66.5664295 51.996167 66.7093961 51.996167 66.9936668 51.996167 67.0169405 52.112933C67.1249966 52.6658542 67.2646384 53.1243322 67.432541 53.4935187 67.6037684 53.8661395 67.7916198 54.1735087 67.9927704 54.4087578 68.1939211 54.6474411 68.4017213 54.8277415 68.6161712 54.9530932 68.8356082 55.0818792 69.0600325 55.1746051 69.2811319 55.2347052 69.5055562 55.2948053 69.7249933 55.3291483 69.9261439 55.337734 70.1422561 55.3463197 70.3434068 55.3531883 70.5312582 55.3531883 71.0499276 55.3531883 71.4655281 55.2724824 71.7780597 55.1179393 72.1022281 54.9616789 72.3565755 54.7642071 72.5411022 54.5306752 72.7289536 54.2868404 72.8602833 54.0327027 72.9350914 53.7579593 73.0132243 53.472913 73.0481348 53.2170582 73.0481348 52.9800919 73.0481348 52.640097 72.9866259 52.3533335 72.8685954 52.1163673 72.74724 51.8759668 72.5926366 51.6716264 72.4047852 51.503346 72.213609 51.3281971 72.0107959 51.1891082 71.7847093 51.0826451 71.5569602 50.9710306 71.340848 50.8886076 71.1347101 50.8250732L69.4058121 50.2807378C68.5779359 50.0197315 67.9428984 49.6677165 67.5040242 49.2212584 67.0568381 48.7679317 66.8357387 48.1480419 66.8357387 47.4096689 66.8357387 46.9219993 66.9221836 46.4669555 67.0900862 46.0479718 67.2563264 45.6289881 67.4923874 45.2701045 67.7982694 44.9661695 68.1041514 44.6639518 68.4682174 44.4235513 68.8904675 44.2484023 69.3160424 44.0784048 69.7781901 43.9908304 70.2735859 43.9908304 70.6326647 43.9908304 70.9368843 44.0251733 71.1895694 44.092142 71.4322801 44.1522421 71.6434051 44.2243623 71.8229445 44.3085025 71.9925095 44.3840569 72.1487753 44.4561771 72.2817675 44.5179943 72.399798 44.5746602 72.5161661 44.5987002 72.6375215 44.5987002 72.7538896 44.6021345 72.8104113 44.5780945 72.8120737 44.5746602 72.8220481 44.5695087 72.8885442 44.4836514 72.9633523 44.3428454L73.0049123 44.2741595 73.0847076 44.2741595 73.442124 44.2741595 73.442124 47.3839117 73.2974951 47.3839117 72.9966003 47.3839117 72.9766515 47.2568429C72.9184674 46.894525 72.8170609 46.5476614 72.6790815 46.2111007 72.5377774 45.8779743 72.358238 45.5860594 72.1388009 45.335356 71.9210262 45.0880869 71.6583667 44.8854637 71.3474976 44.7343548 71.0466028 44.5832459 70.6891864 44.5059743 70.2735859 44.5059743 70.0458368 44.5059743 69.7931517 44.5386001 69.5072186 44.6055688 69.2329223 44.6673861 68.9802372 44.7772834 68.7441761 44.9335438 68.5097774 45.0898041 68.3152764 45.2907102 68.1623354 45.5414136 68.016044 45.7818141 67.9379112 46.0943348 67.9379112 46.4892784 67.9379112 46.8017991 67.9977576 47.0542196 68.1141258 47.2619943 68.2338187 47.4783548 68.3884221 47.6620894 68.5779359 47.809764 68.7740993 47.9608729 68.9935364 48.0896589 69.2362471 48.1926877 69.492257 48.3025851 69.7449421 48.3935938 70.000952 48.4742997L71.8229445 49.0684324C72.0157831 49.1285325 72.2568314 49.216107 72.5460894 49.3191358 72.8536337 49.4238817 73.1495413 49.5887277 73.4354744 49.7999368 73.7280572 50.0231658 73.9774175 50.3150807 74.1818929 50.6739643 74.3946803 51.0431508 74.4944245 51.503346 74.4944245 52.0493986 74.4944245 52.5559568 74.4029924 53.0419092 74.2217905 53.496953 74.0389263 53.9554311 73.7712796 54.364112 73.4288248 54.7109756 73.0830452 55.0612734 72.6674447 55.3446026 72.1820233 55.5540945 71.6916148 55.7618692 71.1446845 55.8666151 70.5412326 55.8666151L70.5312582 55.8666151zM44.741253 23.1620159C38.6817979 23.1620159 33.7677377 18.086131 33.7677377 11.8219808 33.7677377 5.56298206 38.6817979.488814351 44.741253.488814351 50.8040329.488814351 55.7164307 5.56298206 55.7164307 11.8219808 55.7164307 18.086131 50.8040329 23.1620159 44.741253 23.1620159M44.741253.0457905715C38.4457368.0457905715 33.3421628 5.31743012 33.3421628 11.8219808 33.3421628 18.3282486 38.4457368 23.6016053 44.741253 23.6016053 51.0417564 23.6016053 56.143668 18.3282486 56.143668 11.8219808 56.143668 5.31743012 51.0417564.0457905715 44.741253.0457905715" />
    <path d="M48.2828341,12.2000965 C48.2379493,12.3580739 48.1764404,12.5246371 48.0966451,12.7032204 C48.0168498,12.8800864 47.9137809,13.0414982 47.7841135,13.1943242 C47.7076431,13.2870501 47.6178733,13.3643217 47.5197916,13.4364419 L47.5197916,12.5040314 C47.5796381,12.4817085 47.641147,12.4593856 47.7026558,12.4353455 C47.9287425,12.3374682 48.1382052,12.206965 48.327719,12.0472704 L48.2828341,12.2000965 Z M47.0011222,12.0798962 C46.9745238,12.0953505 46.946263,12.1090877 46.9163397,12.1228249 C46.8199204,12.1090877 46.7102019,12.0884819 46.5888465,12.042119 C46.4226063,11.9820189 46.2663406,11.9305045 46.1200492,11.8875758 C45.995369,11.8480814 45.8823257,11.8223242 45.7825816,11.8000013 C45.6811751,11.7828299 45.5781061,11.7639413 45.4766996,11.7484869 C45.3736307,11.7347498 45.2655746,11.726164 45.1458816,11.7244469 C45.0926848,11.7227297 45.0328383,11.7175783 44.969667,11.7175783 C44.9680046,11.7175783 44.9680046,11.7175783 44.9663422,11.714144 C44.9680046,11.7107097 44.969667,11.7089926 44.9713294,11.7055583 C45.3104594,11.6832354 45.6196662,11.6145495 45.9006121,11.4960664 C46.2297677,11.3569776 46.5073888,11.1698086 46.7434499,10.939711 C46.9662118,10.9585996 47.2089225,11.0152654 47.4732444,11.1131428 C47.5746509,11.1526371 47.6810446,11.2007172 47.7891007,11.2539488 C47.7209423,11.4153605 47.6178733,11.573338 47.4682572,11.7244469 C47.3469018,11.8515157 47.1922984,11.971716 47.0011222,12.0798962 L47.0011222,12.0798962 Z M45.1658305,11.8875758 L45.1857793,11.8875758 C45.3437075,11.8927272 45.5049605,11.9184844 45.6761879,11.9614131 C45.8490777,12.0112103 46.0203051,12.0833305 46.1848829,12.1777736 C46.2380797,12.206965 46.2862894,12.2430251 46.3361614,12.2790852 C46.1183868,12.2962567 45.8906377,12.2619137 45.6462646,12.1691878 C45.4883364,12.112522 45.3287459,12.0146446 45.1658305,11.8875758 L45.1658305,11.8875758 Z M46.665317,13.7129025 C46.4940896,13.7129025 46.301251,13.6802767 46.0917884,13.6236108 C46.0618651,13.613308 46.0336043,13.6012879 46.003681,13.5927022 C45.9421722,13.5119963 45.8806633,13.4158361 45.825804,13.2939187 C45.7476711,13.132507 45.6745255,12.9796809 45.6013798,12.8405921 C45.5398709,12.7238261 45.478362,12.6225145 45.420178,12.53494 C45.3603315,12.4473655 45.300485,12.3615082 45.2389761,12.2756509 C45.1774673,12.1897936 45.1043216,12.1022191 45.0245263,12.0163618 C44.9896159,11.9734331 44.9463934,11.9287873 44.903171,11.8824244 L44.903171,11.8755558 C44.9064958,11.8755558 44.9098206,11.8755558 44.9148078,11.8772729 C45.1658305,12.1090877 45.4334772,12.2859538 45.7127607,12.406154 C46.0402539,12.5452429 46.3694095,12.617363 46.6902531,12.6259488 C46.8332196,12.804532 46.9662118,13.0226096 47.0859047,13.285333 C47.1307896,13.3849275 47.174012,13.496542 47.2122473,13.613308 C47.0543191,13.6768424 46.8747797,13.7129025 46.665317,13.7129025 L46.665317,13.7129025 Z M46.9146773,14.6418787 C46.7750356,14.7243017 46.615445,14.798139 46.437568,14.8633906 C46.2630158,14.9303593 46.0751643,14.9681365 45.8823257,14.9818737 C45.7642952,14.9938937 45.6446022,14.9801565 45.5265717,14.9578336 L46.1682588,14.2984494 C46.2247805,14.329358 46.2829646,14.3585495 46.342811,14.3825896 C46.5705601,14.4804669 46.809946,14.5422842 47.0543191,14.5680414 L46.9146773,14.6418787 Z M44.9247822,12.1451478 C44.9314318,12.1520164 44.9347566,12.1537335 44.9397438,12.1606021 C45.0477999,12.2790852 45.1442192,12.4164569 45.2356513,12.5744344 C45.3237586,12.7324118 45.3969043,12.9058436 45.445114,13.098164 C45.461738,13.1496784 45.4667252,13.2132128 45.4766996,13.2715958 C45.3154466,13.1256384 45.1791297,12.9350351 45.0694111,12.6980689 C44.9979279,12.5400914 44.9547054,12.3546396 44.9247822,12.1451478 L44.9247822,12.1451478 Z M45.3270835,14.5371327 C45.2905106,14.6401615 45.2439634,14.7500589 45.1907665,14.8633906 C45.0345007,14.7929876 44.8832221,14.6830902 44.7369308,14.5319813 C44.6122506,14.4031953 44.4975449,14.2435007 44.3928136,14.0494632 C44.3778519,14.0219888 44.3645527,13.9927973 44.3512535,13.9618887 C44.3628903,13.8605771 44.3845015,13.7489625 44.427724,13.6236108 C44.4842457,13.4518962 44.5374425,13.2904844 44.580665,13.1376584 C44.6155754,13.0088724 44.6438362,12.8938236 44.6604603,12.7873605 C44.6787467,12.6826146 44.6953707,12.5778687 44.7136571,12.4731227 C44.7236315,12.3683768 44.733606,12.253328 44.7402556,12.1348449 C44.7402556,12.0764619 44.7402556,12.0163618 44.741918,11.9493931 C44.7435804,11.9493931 44.7435804,11.9493931 44.7452428,11.9476759 C44.75023,11.9493931 44.7518924,11.9511102 44.7535548,11.9545445 C44.775166,12.3031252 44.8416621,12.6225145 44.9580302,12.9109951 C45.0926848,13.2492729 45.2722242,13.5394707 45.494986,13.7815883 C45.4766996,14.0116859 45.4218404,14.2623893 45.3270835,14.5371327 L45.3270835,14.5371327 Z M44.274783,15.3716659 C44.121842,15.3235858 43.960589,15.2617685 43.7860368,15.1793455 C43.6164718,15.0969225 43.4585437,14.9887423 43.3139147,14.8582391 C43.2258074,14.7775332 43.1476745,14.681373 43.0778536,14.5800614 L43.9805379,14.5800614 C44.0021491,14.6418787 44.0220979,14.7071302 44.0470339,14.7706647 C44.1434533,15.0041966 44.2681334,15.2222742 44.4243992,15.4180289 L44.274783,15.3716659 Z M44.580665,12.1520164 L44.580665,12.170905 C44.572353,12.335751 44.5457545,12.5057485 44.5041945,12.6791803 C44.4593096,12.8577635 44.3894887,13.0329125 44.2963942,13.2046271 C44.266471,13.2561415 44.233223,13.309373 44.1966501,13.3591703 C44.1816885,13.1376584 44.2149365,12.9006922 44.3030438,12.6534231 C44.3612279,12.4851428 44.4559848,12.3168624 44.580665,12.1520164 L44.580665,12.1520164 Z M42.8102069,13.7025996 C42.8102069,13.5222992 42.8401301,13.3231102 42.8949894,13.1084669 C42.9066262,13.0792754 42.9166006,13.0483668 42.926575,13.0191753 C43.0063703,12.9539237 43.09614,12.8921065 43.2125082,12.8337235 C43.3720988,12.7530176 43.5200525,12.675746 43.6530447,12.6001916 C43.7694128,12.53494 43.8674945,12.476557 43.9506146,12.4130226 C44.0387219,12.3546396 44.121842,12.2893881 44.2016373,12.2275708 C44.2847574,12.1640364 44.3695399,12.0901991 44.4543224,12.0094932 C44.4942201,11.9682817 44.5357801,11.9270702 44.580665,11.8807072 L44.5856522,11.8807072 L44.5856522,11.8927272 C44.3628903,12.1571678 44.1900005,12.4284769 44.0752948,12.7186747 C43.9406402,13.0569525 43.8708193,13.3900789 43.8608449,13.7266396 C43.6912799,13.8743142 43.4818173,14.0116859 43.2258074,14.1370376 C43.1260633,14.1851177 43.0196695,14.2263292 42.9066262,14.2658236 C42.8434549,14.1026947 42.8102069,13.9155257 42.8102069,13.7025996 L42.8102069,13.7025996 Z M44.3296423,11.9047473 C44.3263175,11.9116159 44.3213303,11.913333 44.3146807,11.9184844 C44.1983125,12.0283818 44.0653204,12.1314106 43.9140418,12.2241365 C43.7627632,12.3134281 43.5915358,12.3889826 43.4070092,12.4439312 C43.3538123,12.4576684 43.2956283,12.4628199 43.2374442,12.4731227 C43.3804108,12.3065595 43.5649374,12.1657535 43.7926864,12.0558562 C43.9456274,11.9820189 44.1268292,11.9339388 44.3296423,11.9047473 L44.3296423,11.9047473 Z M42.0139164,12.3168624 C41.9125098,12.2808023 41.8061161,12.2344394 41.69806,12.1777736 C41.7645561,12.0163618 41.8709498,11.8601015 42.0189036,11.7089926 C42.1419213,11.5819237 42.2948623,11.4617235 42.4843761,11.3518261 C42.5126369,11.3363718 42.5392354,11.3226346 42.5691586,11.3123317 C42.6689027,11.3209175 42.7752965,11.3432404 42.8949894,11.3878862 C43.0645544,11.4497035 43.2224826,11.5012179 43.3687739,11.5458637 C43.4917917,11.585358 43.604835,11.6111152 43.7062415,11.631721 C43.8076481,11.6506096 43.9090546,11.6660639 44.0121235,11.6832354 C44.11353,11.6969725 44.224911,11.7072754 44.3396167,11.7107097 C44.394476,11.714144 44.45266,11.714144 44.5158313,11.7158612 C44.5158313,11.7175783 44.5191561,11.7175783 44.5208185,11.7227297 C44.5191561,11.7227297 44.5158313,11.7244469 44.5158313,11.726164 C44.1750389,11.7467698 43.8641697,11.8154557 43.5865486,11.9390902 C43.257393,12.0764619 42.9797719,12.2636309 42.7437108,12.4937285 C42.5226114,12.4748399 42.2815631,12.4164569 42.0139164,12.3168624 L42.0139164,12.3168624 Z M42.1585453,13.3711903 C42.0671132,13.6030051 42.0089292,13.8468399 41.9839931,14.1026947 L41.909185,13.9567373 C41.8310521,13.8142141 41.7595689,13.6510852 41.69806,13.4673505 C41.6332263,13.2818987 41.5933287,13.0912955 41.5800294,12.8921065 C41.5733798,12.7701891 41.5850167,12.6499888 41.6033031,12.5246371 L42.2433278,13.1840214 C42.215067,13.2458386 42.1851438,13.309373 42.1585453,13.3711903 L42.1585453,13.3711903 Z M41.1594418,11.386169 L41.2043266,11.2316259 C41.2475491,11.0736484 41.3107203,10.9070852 41.3905156,10.7302191 C41.4703109,10.553353 41.5733798,10.3867898 41.7030472,10.2356809 C41.7778553,10.1463893 41.8726122,10.0656834 41.9706939,9.99356329 L41.9706939,10.9294081 C41.9075226,10.9482967 41.8476762,10.9723368 41.7845049,10.9963768 C41.5600806,11.0959713 41.3489556,11.2264744 41.1594418,11.386169 L41.1594418,11.386169 Z M44.3246551,11.5458637 L44.3013814,11.5458637 C44.1434533,11.5389951 43.9805379,11.5132379 43.8109729,11.4651578 C43.6397455,11.4222291 43.4685181,11.3518261 43.3022779,11.2522316 C43.2507434,11.2247573 43.2008714,11.1886972 43.1509993,11.1526371 C43.3687739,11.1354657 43.5981854,11.1715257 43.8375713,11.2625345 C43.9988243,11.3192003 44.1600773,11.4187948 44.3246551,11.5458637 L44.3246551,11.5458637 Z M42.8218437,9.71881986 C42.9947335,9.71881986 43.1892345,9.75144564 43.39371,9.80982862 C43.4236332,9.8166972 43.4535564,9.82871723 43.4818173,9.84073725 C43.5449886,9.92144314 43.604835,10.0176033 43.6613567,10.1360864 C43.741152,10.3009325 43.8142977,10.4537585 43.885781,10.5911302 C43.9489522,10.7096134 44.0104611,10.810925 44.0686452,10.8984995 C44.1268292,10.9860739 44.1866757,11.0736484 44.2481846,11.1577886 C44.3130183,11.2419287 44.3811767,11.3260689 44.4593096,11.4187948 C44.4975449,11.4582892 44.5407673,11.502935 44.5823274,11.5510151 L44.5823274,11.5561665 L44.5773402,11.5561665 C44.3213303,11.3226346 44.055346,11.1457685 43.7727376,11.0255683 C43.4469068,10.8864794 43.1210761,10.8126421 42.7985701,10.8057736 C42.6522787,10.6323418 42.5192866,10.4108299 42.401256,10.1463893 C42.3547088,10.0467948 42.3131487,9.93689746 42.2749135,9.8166972 C42.4328416,9.75316279 42.6140435,9.71881986 42.8218437,9.71881986 L42.8218437,9.71881986 Z M42.5741458,8.78984364 C42.7104628,8.7108549 42.868391,8.63701761 43.0479304,8.56833175 C43.2258074,8.50136304 43.4119964,8.46358582 43.604835,8.4481315 C43.7212032,8.44298006 43.8425585,8.45328294 43.9622514,8.47217155 L43.3205643,9.13499007 C43.2623802,9.10408144 43.2041962,9.07488995 43.1426873,9.0508499 C42.9149382,8.94953826 42.6788771,8.89115528 42.4328416,8.86711523 L42.5741458,8.78984364 Z M44.5623786,11.2900088 C44.5573913,11.2831403 44.5540665,11.2779888 44.5457545,11.2711202 C44.4410232,11.1543543 44.3429415,11.0152654 44.2548342,10.8572879 C44.1617397,10.7010276 44.0919188,10.5275958 44.0403843,10.3335583 C44.0270851,10.2803267 44.0220979,10.2185095 44.0121235,10.1618436 C44.1717141,10.3078011 44.3063687,10.4984043 44.4160872,10.7336534 C44.4859081,10.8916309 44.5341177,11.0787998 44.5623786,11.2900088 L44.5623786,11.2900088 Z M44.1600773,8.89630672 C44.1966501,8.79156078 44.2431974,8.67994627 44.2980566,8.56833175 C44.45266,8.6404519 44.605601,8.74691498 44.7518924,8.89802386 C44.8749101,9.02680985 44.9912783,9.18993876 45.0943472,9.38225916 C45.1109712,9.41145065 45.1209456,9.44235928 45.1359072,9.46811648 C45.1242704,9.57114526 45.1043216,9.68275978 45.0610991,9.80982862 C45.0012527,9.98154326 44.9513806,10.1463893 44.9064958,10.2957811 C44.8715853,10.4228499 44.8433245,10.5378987 44.8267005,10.6443618 C44.808414,10.7491077 44.79179,10.8555708 44.7768284,10.9585996 C44.7635292,11.0650627 44.7535548,11.1783943 44.75023,11.2985946 C44.75023,11.3552604 44.7469052,11.4153605 44.7452428,11.478895 C44.7435804,11.4806121 44.741918,11.4840464 44.741918,11.4857635 C44.7402556,11.4806121 44.7369308,11.478895 44.7352684,11.4771778 C44.7136571,11.1303142 44.6471611,10.8092078 44.5307929,10.5190101 C44.3961384,10.1824494 44.2149365,9.89225165 43.9921747,9.65185115 C44.0104611,9.42175353 44.0653204,9.169333 44.1600773,8.89630672 L44.1600773,8.89630672 Z M45.2140401,8.0600564 C45.3653187,8.10641936 45.5298965,8.16823663 45.6977991,8.2523768 C45.8690265,8.33651698 46.0286171,8.44298006 46.173246,8.57520033 C46.2630158,8.65418907 46.3411486,8.75034927 46.4109695,8.84994376 L45.5032981,8.84994376 C45.4850116,8.78984364 45.4634004,8.72459207 45.4384644,8.65934051 C45.3437075,8.42580859 45.2190273,8.21288244 45.0627615,8.01369345 L45.2140401,8.0600564 Z M44.9064958,11.279706 L44.9064958,11.2573831 C44.9148078,11.0959713 44.9397438,10.9276909 44.9846286,10.7508249 C45.0278511,10.5756759 45.0960096,10.400527 45.1907665,10.2270952 C45.2206897,10.1738637 45.2522754,10.1240664 45.2888482,10.072552 C45.3054722,10.2992154 45.2705618,10.5327473 45.1841169,10.7817335 C45.1275952,10.9465796 45.0328383,11.1114256 44.9064958,11.279706 L44.9064958,11.279706 Z M46.2513789,10.9585996 C46.1084124,11.1251628 45.9238858,11.2676859 45.6944743,11.3775833 C45.5415333,11.4514206 45.3603315,11.4995007 45.155856,11.5304093 C45.1625057,11.5218236 45.1658305,11.5183893 45.1724801,11.5132379 C45.2871858,11.4050577 45.4218404,11.3020289 45.5747813,11.209303 C45.7243975,11.1165771 45.8956249,11.0427398 46.0801515,10.9895082 C46.1333484,10.9740539 46.1931949,10.9671853 46.2513789,10.9585996 L46.2513789,10.9585996 Z M46.6786162,9.73255703 C46.6786162,9.90942311 46.648693,10.1086121 46.5888465,10.3232554 C46.5821969,10.3558812 46.5688977,10.3816384 46.5605857,10.412547 C46.4807904,10.4760814 46.3910207,10.5396159 46.2729902,10.599716 C46.1133996,10.6787047 45.9687706,10.7559763 45.8324536,10.8315307 C45.7194103,10.8950652 45.6196662,10.9568824 45.5365461,11.0186997 C45.4501012,11.0787998 45.3653187,11.1423343 45.283861,11.2075858 C45.2024033,11.2694031 45.1192832,11.3415232 45.0328383,11.4239463 C44.9929407,11.4634406 44.9513806,11.5080864 44.9048334,11.5527322 L44.8981837,11.5527322 L44.8981837,11.5424294 C45.1209456,11.279706 45.2954978,11.0066797 45.4102035,10.7147648 C45.5481829,10.3764869 45.6180038,10.0382091 45.6279782,9.70508269 C45.792556,9.55740809 46.0070059,9.42003638 46.2630158,9.29983613 C46.3610975,9.25003888 46.4658288,9.20539307 46.5821969,9.16418156 C46.6437058,9.32731047 46.6786162,9.51791373 46.6786162,9.73255703 L46.6786162,9.73255703 Z M47.3252906,10.0639663 C47.4200475,9.82871723 47.4782316,9.58488244 47.5064924,9.32902762 L47.5796381,9.47498506 C47.6561086,9.61922537 47.7242671,9.78235428 47.7907631,9.96608894 C47.8539344,10.1463893 47.8921697,10.3387097 47.9038065,10.5396159 C47.9137809,10.6615332 47.9004817,10.7817335 47.8821953,10.9070852 L47.2421705,10.2442667 C47.2737561,10.1858837 47.3003546,10.1275007 47.3252906,10.0639663 L47.3252906,10.0639663 Z M52.6649257,12.6414031 C52.7231097,12.5143343 52.769657,12.3615082 52.8162043,12.1812078 C52.8577643,12.0094932 52.8810379,11.7862642 52.8810379,11.5235408 C52.8810379,11.16294 52.8195291,10.8315307 52.7098105,10.5258787 C52.5884552,10.2219438 52.4288646,9.95922036 52.2243892,9.73942562 C52.0215761,9.52306516 51.7805278,9.35306767 51.4995819,9.23286742 C51.218636,9.11266717 50.912754,9.05428419 50.5869232,9.05428419 C50.0832154,9.05428419 49.6859014,9.21054451 49.3850066,9.51963087 C49.2536769,9.66043688 49.1356463,9.83215152 49.0242654,10.0261891 C48.9860302,9.85447443 48.9394829,9.69306266 48.8646748,9.54538807 C48.7715803,9.3393305 48.6884602,9.169333 48.6219641,9.03539558 L47.980277,7.76642436 C47.8871825,7.58612399 47.8040624,7.40067217 47.7242671,7.21006892 C47.6477966,7.01774852 47.5962621,6.82714526 47.5696637,6.63654201 C47.5430653,6.44078732 47.5547021,6.25361836 47.6062365,6.06473225 C47.6561086,5.87412899 47.7608399,5.69382862 47.9254177,5.52383112 C48.1315555,5.31433926 48.3426806,5.18040184 48.5637801,5.13232174 C48.7815547,5.08080734 48.997667,5.0790902 49.2071296,5.1271703 C49.4182547,5.17353325 49.6160805,5.25767343 49.7972823,5.37787368 C49.9801465,5.49979107 50.1364123,5.62170847 50.2577676,5.7487773 C50.4805295,5.97715778 50.6367953,6.21755828 50.7215778,6.4734131 C50.8080227,6.72926792 50.8462579,6.98683988 50.8346211,7.24441185 C50.8196595,7.50541811 50.7648002,7.76127292 50.6683809,8.0154106 C50.5702992,8.27126542 50.4439567,8.51166592 50.2876909,8.73317781 L50.3807854,8.82762086 L51.7805278,7.38521786 L51.6724717,7.27188619 C51.557766,7.30451197 51.4796331,7.316532 51.438073,7.31309771 C51.3981754,7.30622912 51.3449785,7.2684519 51.27682,7.19976604 C51.2053368,7.12592874 51.1504775,7.03835428 51.1105799,6.93360834 C51.0723446,6.83057956 51.0291222,6.7138136 50.9792501,6.58331047 C50.9310404,6.4510902 50.8612196,6.30856704 50.7697875,6.15402386 C50.6800177,5.99604639 50.5453632,5.82433175 50.3641614,5.63716279 C50.1181259,5.38130797 49.8504792,5.19070471 49.5595588,5.05848444 C49.2686385,4.92969846 48.9760557,4.86272975 48.6818106,4.85586116 C48.3875654,4.85242687 48.1016323,4.9090927 47.8223488,5.02585866 C47.5397405,5.14777605 47.285393,5.32635928 47.0543191,5.56504264 C46.6985651,5.93251197 46.5240129,6.33604139 46.5240129,6.77391373 C46.5240129,6.96795127 46.5589233,7.17572599 46.615445,7.39208644 C46.470816,7.29936053 46.326187,7.22380609 46.173246,7.16714026 C45.962121,7.09158582 45.7875688,7.03320284 45.6495894,6.98683988 L44.3296423,6.56270471 C44.1401285,6.50260459 43.9506146,6.43220159 43.7677504,6.3514957 C43.579899,6.27250697 43.4136588,6.17462962 43.2623802,6.05958081 C43.1144264,5.94281485 42.9914087,5.79685741 42.8949894,5.62857705 C42.8035573,5.45857956 42.7553476,5.25423913 42.7553476,5.01383863 C42.7553476,4.71333801 42.8168565,4.46435177 42.9365494,4.27031423 C43.05458,4.07455953 43.2091834,3.91486491 43.3903852,3.79638181 C43.5699246,3.67618156 43.7677504,3.58860709 43.9805379,3.54224414 C44.1900005,3.49416404 44.3828391,3.47012399 44.5590537,3.47012399 C44.8715853,3.47012399 45.1458816,3.52507267 45.3819427,3.64527292 C45.6180038,3.76032174 45.8208168,3.91486491 45.9887194,4.10546817 C46.156622,4.29778857 46.2946014,4.52101761 46.3976703,4.77343813 C46.504064,5.02414151 46.5788721,5.28858206 46.623757,5.5564569 L46.7517619,5.5564569 L46.7517619,3.51305265 L46.6004833,3.51305265 C46.5439617,3.61779858 46.495752,3.68476729 46.4658288,3.71395878 C46.4325808,3.73628169 46.3677471,3.75001886 46.2729902,3.75001886 C46.1699212,3.75001886 46.0718395,3.72769595 45.9737578,3.68305015 C45.8740137,3.63668719 45.7626328,3.58860709 45.639615,3.53022411 C45.5149349,3.47355828 45.3686435,3.42547818 45.1974161,3.37739808 C45.0245263,3.33275227 44.8134012,3.31214652 44.5590537,3.31214652 C44.2099493,3.31214652 43.885781,3.36881235 43.5915358,3.49072975 C43.2989531,3.61264714 43.0429432,3.7774932 42.8334805,3.98698506 C42.6223555,4.19991122 42.4577777,4.4506146 42.3397471,4.73737806 C42.2250414,5.02585866 42.1651949,5.34353075 42.1651949,5.68009145 C42.1651949,6.19866967 42.3164735,6.61250196 42.6173683,6.92330547 C42.7520228,7.05724289 42.9199254,7.17916028 43.1077768,7.29420909 C42.943199,7.33370346 42.7852709,7.38521786 42.6423043,7.45390371 C42.4411537,7.5569325 42.2782383,7.64278982 42.1502333,7.71319282 L40.9217183,8.37257705 C40.7455037,8.4704544 40.5659643,8.55802887 40.3797752,8.63873475 C40.1952486,8.71600634 40.0090596,8.77095503 39.824533,8.79842937 C39.638344,8.82418657 39.4521549,8.8104494 39.2709531,8.76236929 C39.0880889,8.7108549 38.9135367,8.59924038 38.7506213,8.42924289 C38.5461459,8.21631673 38.4181409,7.99823913 38.3682689,7.7715758 C38.3200592,7.54491247 38.3167344,7.32340058 38.3649441,7.10532299 C38.4098289,6.88724539 38.4912866,6.68290496 38.6076548,6.495736 C38.7240229,6.3068499 38.8437158,6.14887242 38.9667336,6.02008644 C39.187833,5.79342311 39.4222317,5.63372849 39.6682672,5.54271973 C39.9176275,5.44999383 40.163663,5.4122166 40.4163481,5.42595378 C40.664046,5.4379738 40.9117439,5.49635678 41.1594418,5.59595127 C41.4071396,5.69726291 41.6365511,5.82776604 41.8543258,5.98917781 L41.9474203,5.89130046 L40.5493402,4.4506146 L40.4412841,4.56051197 C40.4712073,4.67727793 40.486169,4.75454952 40.4795194,4.79919533 C40.4728697,4.84212399 40.4396217,4.89707267 40.3731256,4.96747568 C40.3016423,5.04131297 40.213535,5.09969595 40.1121285,5.13919032 C40.0123844,5.17696754 39.8993411,5.2233305 39.7729985,5.27484489 C39.6449936,5.32464214 39.5086766,5.39847943 39.3557356,5.48948819 C39.2061195,5.5822141 39.0382169,5.72473725 38.8603398,5.91018907 C38.6109796,6.1626096 38.4247905,6.44078732 38.298448,6.74128794 C38.170443,7.04178857 38.1072718,7.34744063 38.1006222,7.64794126 C38.0972974,7.95015903 38.1521566,8.24894251 38.2685248,8.53570597 C38.3815681,8.82762086 38.5577827,9.09034426 38.7888566,9.33074476 C39.146273,9.6982141 39.5336126,9.88023162 39.9591875,9.87679733 C40.147039,9.87508018 40.3465272,9.84417155 40.5593146,9.78235428 C40.4695449,9.93346316 40.3947369,10.084572 40.34154,10.2356809 C40.2683943,10.4554757 40.2118726,10.6374932 40.1686502,10.7800164 L39.7497249,12.1485821 C39.6932032,12.3409025 39.6283696,12.53494 39.5502367,12.7238261 C39.4721038,12.9178637 39.3773469,13.0912955 39.2643035,13.2458386 C39.1512602,13.4003818 39.0132808,13.5240164 38.8503654,13.6236108 C38.6891124,13.719771 38.4862994,13.7678511 38.2568879,13.7678511 C37.9643052,13.7678511 37.7249193,13.707751 37.5337431,13.5841165 C37.3458917,13.4553305 37.1912883,13.3042216 37.0749201,13.1153355 C36.9602144,12.9281665 36.8787567,12.7238261 36.8322095,12.5057485 C36.7823374,12.2876709 36.7574014,12.0901991 36.7574014,11.9098987 C36.7574014,11.585358 36.8155854,11.3020289 36.9286288,11.0564769 C37.0416721,10.810925 37.1912883,10.6031503 37.3741525,10.4297185 C37.5620039,10.2562867 37.7764538,10.1154807 38.0224893,10.0073005 C38.2651999,9.89740309 38.517885,9.81841435 38.7805446,9.77720284 L38.7805446,9.63983112 L36.8039486,9.63983112 L36.8039486,9.79780859 C36.9036927,9.85962587 36.9685264,9.90427167 36.9934625,9.94033175 C37.0200609,9.97124038 37.0316977,10.0382091 37.0316977,10.1360864 C37.0316977,10.2408324 37.0100865,10.3455783 36.9685264,10.4468899 C36.9219792,10.5464844 36.8754319,10.6632504 36.8172478,10.7903192 C36.7657134,10.9173881 36.7158413,11.0736484 36.6709565,11.2470802 C36.6293964,11.4239463 36.6044604,11.6454582 36.6044604,11.9098987 C36.6044604,12.2704995 36.6643069,12.6001916 36.780675,12.9058436 C36.8953807,13.2114957 37.0582961,13.472502 37.2611092,13.6905796 C37.467247,13.9086572 37.7082953,14.0786547 37.9892412,14.1971378 C38.2685248,14.317338 38.5727443,14.3791553 38.9018999,14.3791553 C39.4022829,14.3791553 39.8029218,14.222895 40.1021541,13.9086572 C40.2334839,13.7712854 40.3515144,13.5995708 40.4612329,13.4055332 C40.4994682,13.5755307 40.5510026,13.7369425 40.6191611,13.8846171 C40.7155804,14.0923918 40.8003629,14.2641065 40.866859,14.3963267 L41.5068838,15.6670151 C41.5983159,15.8455983 41.6864232,16.029333 41.7612313,16.2268048 C41.8393642,16.4174081 41.8908986,16.6045771 41.9158346,16.8003317 C41.9424331,16.9892179 41.9324587,17.1798211 41.8825866,17.3669901 C41.8343769,17.5558762 41.7279832,17.7378937 41.561743,17.9044569 C41.3556052,18.1173831 41.1428177,18.2496033 40.9233807,18.3011177 C40.7072684,18.3526321 40.4928186,18.3543493 40.2800311,18.3062692 C40.0689061,18.2581891 39.8694178,18.1740489 39.6865536,18.0538486 C39.5053518,17.9353655 39.3524108,17.811731 39.2293931,17.682945 C39.0082936,17.4545645 38.8520278,17.2124469 38.7655829,16.9583092 C38.6774756,16.7024544 38.6409028,16.4448824 38.654202,16.1890276 C38.6658388,15.9297385 38.7223605,15.6704494 38.8204422,15.4180289 C38.9201863,15.1656083 39.0448665,14.9234907 39.196145,14.7002617 L39.1047129,14.6041015 L37.7082953,16.0465045 L37.8163514,16.158119 C37.9293948,16.1254932 38.0058652,16.1151903 38.0457629,16.1186246 C38.0889853,16.1254932 38.1405198,16.1632704 38.2120031,16.2336734 C38.281824,16.3057936 38.3366832,16.3950852 38.3765809,16.4998311 C38.4148161,16.6011428 38.459701,16.7196259 38.509573,16.8484118 C38.5561203,16.9823493 38.6242788,17.1248724 38.7157109,17.2811327 C38.8054806,17.4373931 38.9401351,17.6073906 39.121337,17.7945595 C39.3673724,18.0504144 39.638344,18.2427348 39.9276019,18.374955 C40.2185222,18.503741 40.511105,18.5724269 40.8036877,18.5775783 C41.0979329,18.5827297 41.383866,18.5277811 41.6648119,18.4058637 C41.9457579,18.2856634 42.2034302,18.105363 42.4361665,17.870114 C42.7902581,17.5009275 42.9648103,17.0956809 42.9614855,16.6595257 C42.9614855,16.4654882 42.9282374,16.2559963 42.8717158,16.0396359 C43.0163447,16.1306446 43.1642985,16.2113505 43.3139147,16.2628649 C43.5250397,16.3367022 43.6995919,16.3985195 43.8359089,16.4431653 L45.1575185,16.8724519 C45.3470323,16.9342692 45.5365461,17.002955 45.7227351,17.0802266 C45.9055993,17.1609325 46.0751643,17.2570927 46.2231181,17.3772929 C46.3727343,17.4923418 46.495752,17.6331478 46.5888465,17.8014281 C46.6869282,17.9697085 46.7318131,18.1774832 46.7318131,18.4178837 C46.7318131,18.7201015 46.6703042,18.9673705 46.5506113,19.1631252 C46.4325808,19.3588799 46.2813022,19.5168574 46.0967756,19.6353405 C45.9172361,19.7555408 45.7194103,19.8413981 45.5082853,19.8911953 C45.2988226,19.9375583 45.1043216,19.9615983 44.928107,19.9615983 C44.6155754,19.9615983 44.3412791,19.9049325 44.1035556,19.7898837 C43.8674945,19.6714006 43.6680063,19.5185746 43.4984413,19.324537 C43.3288763,19.1339338 43.1925593,18.9124219 43.087828,18.6600013 C42.9830967,18.4058637 42.9082886,18.1482917 42.8650662,17.8752654 L42.732074,17.8752654 L42.732074,19.9186697 L42.8866774,19.9186697 C42.9465239,19.8122066 42.9897463,19.7486722 43.0229943,19.7211978 C43.05458,19.6954406 43.1210761,19.6799863 43.2125082,19.6799863 C43.3139147,19.6799863 43.418646,19.7005921 43.5134029,19.7486722 C43.613147,19.7950351 43.724528,19.8448324 43.8492081,19.9014982 C43.9705635,19.958164 44.1185172,20.0079613 44.291407,20.0543242 C44.4593096,20.09897 44.6737595,20.1178587 44.928107,20.1178587 C45.2772114,20.1178587 45.6013798,20.0611928 45.8956249,19.9409926 C46.1915325,19.8207923 46.4442176,19.6559463 46.6553426,19.4447373 C46.8664677,19.2352454 47.0293831,18.9828249 47.1474136,18.6943443 C47.2621193,18.4041465 47.3219658,18.0916259 47.3219658,17.7499137 C47.3219658,17.2347698 47.1706872,16.8175032 46.8697925,16.5118511 C46.7351379,16.3761966 46.5672353,16.2508449 46.3777215,16.1392304 C46.5439617,16.099736 46.7002275,16.0465045 46.843194,15.9761015 C47.0460071,15.8782241 47.2089225,15.7889325 47.3402522,15.7219638 L48.5654425,15.0591453 C48.7399947,14.9629851 48.9228589,14.8754106 49.1073855,14.798139 C49.2902497,14.7174331 49.4781011,14.6642016 49.6642902,14.6350101 C49.8488168,14.6092529 50.0350058,14.6212729 50.2162076,14.6710702 C50.3990718,14.7208674 50.5702992,14.8324819 50.7365394,15.0041966 C50.9426773,15.2154056 51.0690198,15.4369175 51.1188919,15.6601465 C51.1687639,15.8850927 51.1687639,16.1083217 51.1205543,16.3281165 C51.0773318,16.5427598 50.9958741,16.7488174 50.879506,16.9377035 C50.7631378,17.1265896 50.6417825,17.284567 50.5204272,17.4099187 C50.2976653,17.6400164 50.0632666,17.8014281 49.8172311,17.8907197 C49.5711956,17.9817285 49.3218353,18.0195057 49.0708127,18.0057685 C48.8231148,17.9920314 48.5720921,17.9370827 48.3243942,17.8340539 C48.0783587,17.7344594 47.8456224,17.6056734 47.6311726,17.4442617 L47.5397405,17.5404219 L48.9394829,18.9828249 L49.0458766,18.8729275 C49.014291,18.7527272 49.0009918,18.6754557 49.0093038,18.632527 C49.0109662,18.5913155 49.0458766,18.5346496 49.1140351,18.4659638 C49.1888432,18.3904093 49.2736257,18.3337435 49.3733698,18.2942491 C49.4747763,18.2496033 49.5878197,18.2083918 49.7141622,18.1585946 C49.8388424,18.1070802 49.9784841,18.03496 50.1297627,17.9422341 C50.2827037,17.8512254 50.4489439,17.7087022 50.6301457,17.5232504 C50.8761812,17.2691127 51.0623702,16.990935 51.1887127,16.6887172 C51.3150553,16.3882166 51.379889,16.0859988 51.3865386,15.7837811 C51.3931882,15.4815633 51.3333417,15.1862141 51.2202984,14.8942992 C51.1022678,14.6041015 50.929378,14.3413781 50.6983042,14.1009776 C50.3442125,13.7369425 49.9535481,13.5497736 49.5296356,13.5566421 C49.3401218,13.5566421 49.1389711,13.5927022 48.9278461,13.649368 C49.0159534,13.5016935 49.0940863,13.3488674 49.1472831,13.1943242 C49.217104,12.9745295 49.2769505,12.7959463 49.3201729,12.6534231 L49.7357734,11.2882917 C49.7922951,11.0908199 49.8604536,10.8967823 49.9352617,10.7078962 C50.0133946,10.5155758 50.1081515,10.342144 50.2211948,10.1858837 C50.3342381,10.0330577 50.4722175,9.90942311 50.6384577,9.80982862 C50.7980483,9.71195127 50.9991989,9.66215403 51.2319352,9.66215403 C51.5211931,9.66215403 51.7622414,9.72568844 51.9517552,9.84932299 C52.1412691,9.97124038 52.2958724,10.1275007 52.4105782,10.318104 C52.5269463,10.5069901 52.6100664,10.7096134 52.6549513,10.9259738 C52.7048233,11.1440514 52.728097,11.3432404 52.728097,11.5235408 C52.728097,11.8480814 52.6699129,12.1314106 52.558532,12.3786797 C52.4454886,12.6225145 52.2958724,12.828572 52.1130082,13.0020038 C51.9234944,13.1737185 51.710707,13.3145245 51.4663339,13.4244219 C51.2219608,13.5360364 50.9692757,13.6098737 50.7066162,13.6579538 L50.7066162,13.7918912 L52.6832121,13.7918912 L52.6832121,13.6339137 C52.583468,13.5738136 52.5169719,13.5240164 52.4936983,13.496542 C52.4670998,13.4553305 52.455463,13.3917961 52.455463,13.2939187 C52.455463,13.1908899 52.4754119,13.0878612 52.5202967,12.9831152 C52.5635192,12.8835207 52.6117288,12.7684719 52.6649257,12.6414031 L52.6649257,12.6414031 Z" />
  </g>
</svg>
