<?xml version="1.0" encoding="utf-8"?>
<!-- Generator: Adobe Illustrator 25.0.1, SVG Export Plug-In . SVG Version: 6.00 Build 0)  -->
<svg version="1.1" id="Layer_1" xmlns="http://www.w3.org/2000/svg" xmlns:xlink="http://www.w3.org/1999/xlink" x="0px" y="0px"
	 viewBox="0 0 90 90" style="enable-background:new 0 0 90 90;" xml:space="preserve">
<style type="text/css">
	.j89e012ew{fill:none;}
	.kasdjiods{fill:#A38244;}
</style>
<g>
	<path class="j89e012ew" d="M61.35,56.86l-1.25,0.1c-0.78,0.07-1.46-0.52-1.52-1.3c-0.06-0.78,0.52-1.46,1.3-1.52l2.47-0.19
		c0.02,0,0.03,0.01,0.05,0.01c0.06,0,0.11-0.01,0.17-0.01c0.05,0,1.98,0.11,3.53-0.5h-9.56v5.34h5.24L61.35,56.86z"/>
	<path class="j89e012ew" d="M74.04,34.33c0.09-1.04,0.68-1.93,1.54-2.44c-0.22-0.06-0.43-0.16-0.61-0.34l-1.16-1.16
		c-0.55-0.55-0.55-1.45,0-2c0.55-0.55,1.45-0.55,2,0l1.16,1.16c0.52,0.52,0.53,1.34,0.07,1.9c0.05,0,0.1-0.02,0.15-0.02
		c1.64,0,2.97,1.25,3.15,2.84c0.25-0.22,0.57-0.36,0.93-0.36h5.76v-7.8h-4.73c0.17,0.07,0.33,0.17,0.46,0.31l2.06,2.07
		c0.55,0.55,0.55,1.45,0,2c-0.28,0.28-0.64,0.41-1,0.41c-0.36,0-0.73-0.14-1-0.42l-2.06-2.07c-0.55-0.55-0.55-1.45,0-2
		c0.14-0.14,0.29-0.24,0.46-0.31h-3.25c0.25,0.06,0.49,0.16,0.68,0.35l3.75,3.75c0.55,0.55,0.55,1.45,0,2
		c-0.28,0.28-0.64,0.41-1,0.41c-0.36,0-0.73-0.14-1-0.42l-3.75-3.75c-0.55-0.55-0.55-1.45,0-2c0.19-0.19,0.43-0.29,0.68-0.35h-5.34
		v7.8h0.9c0.46,0,0.86,0.22,1.12,0.56C74.03,34.42,74.03,34.37,74.04,34.33z"/>
	<path class="j89e012ew" d="M56.54,49.78v0.82h0.69c-0.33-0.2-0.57-0.54-0.65-0.94l-0.52-2.64l0.45,2.51
		C56.54,49.61,56.54,49.69,56.54,49.78z"/>
	<rect x="76.85" y="48.4" class="j89e012ew" width="5.43" height="7.62"/>
	<path class="j89e012ew" d="M62.68,41.92h2.93c0.01,0,0.02,0,0.04,0v-1.67h-3v1.67C62.65,41.92,62.66,41.92,62.68,41.92z"/>
	<path class="j89e012ew" d="M75.43,45.57h8.24c1.1,0,1.99-0.89,1.99-1.99v-2.13H73.36v2.13c0,1.1,0.89,1.99,1.99,1.99H75.43z"/>
	<rect x="6.04" y="55.57" class="j89e012ew" width="33.03" height="3.21"/>
	<path class="kasdjiods" d="M88.73,58.77h-1.38c-0.33-1.13-1.15-2.04-2.23-2.47v-8.15c1.95-0.62,3.37-2.42,3.37-4.57v-3.55
		c0-0.78-0.63-1.42-1.42-1.42h-7.81c-0.05-0.74-0.66-1.33-1.41-1.33c-0.39,0-0.75,0.16-1.01,0.42v-3.09c0-0.19,0.16-0.35,0.35-0.35
		s0.35,0.16,0.35,0.35c0,0.78,0.63,1.42,1.42,1.42c0.36,0,0.69-0.14,0.94-0.37c0.15,0.62,0.71,1.08,1.37,1.08h7.18
		c0.78,0,1.42-0.63,1.42-1.42V24.69c0-0.78-0.63-1.42-1.42-1.42H70.59c-0.78,0-1.42,0.63-1.42,1.42v10.63
		c0,0.78,0.63,1.42,1.42,1.42h2.32c0.45,0,0.84-0.21,1.1-0.54v2.4h-2.07c-0.78,0-1.42,0.63-1.42,1.42v3.55
		c0,2.19,1.48,4.03,3.49,4.61v8.16c-1.02,0.45-1.8,1.34-2.12,2.43h-7.21l-0.46-2.04c2.05-0.18,5.17-0.95,6.28-3.82
		c0.59-0.47,0.98-1.1,1.08-1.78c0.08-0.6-0.02-1.53-0.95-2.56c-0.35-0.38-0.85-0.6-1.37-0.6H59.14l-2.27-11.59
		c-0.13-0.67-0.71-1.15-1.39-1.15h-2.73c-0.42,0-0.82,0.19-1.09,0.51s-0.38,0.75-0.31,1.16l2.35,13v8.87h-5.97V19.2
		c0-0.78-0.63-1.42-1.42-1.42s-1.42,0.63-1.42,1.42v39.57h-3V46.55c0-2.12-1.43-3.89-3.36-4.46v-7.8c0-2.03-1.82-3.68-4.06-3.68
		H10.67c-2.24,0-4.06,1.65-4.06,3.68v7.79c-1.96,0.55-3.41,2.34-3.41,4.48v12.22H1.4c-0.78,0-1.42,0.63-1.42,1.42
		s0.63,1.42,1.42,1.42h44.92c0,0,0.01,0,0.01,0h17.22c0,0,0,0,0.01,0c0,0,0.01,0,0.01,0h25.17c0.78,0,1.42-0.63,1.42-1.42
		S89.51,58.77,88.73,58.77z M76.85,48.4h5.43v7.62h-5.43V48.4z M72.91,33.91h-0.9v-7.8h5.34c-0.25,0.06-0.49,0.16-0.68,0.35
		c-0.55,0.55-0.55,1.45,0,2l3.75,3.75c0.28,0.28,0.64,0.42,1,0.42c0.36,0,0.72-0.14,1-0.41c0.55-0.55,0.55-1.45,0-2l-3.75-3.75
		c-0.19-0.19-0.43-0.3-0.68-0.35h3.25c-0.17,0.07-0.33,0.17-0.46,0.31c-0.55,0.55-0.55,1.45,0,2l2.06,2.07
		c0.28,0.28,0.64,0.42,1,0.42c0.36,0,0.72-0.14,1-0.41c0.55-0.55,0.55-1.45,0-2l-2.06-2.07c-0.14-0.14-0.29-0.24-0.46-0.31h4.73v7.8
		h-5.76c-0.36,0-0.68,0.14-0.93,0.36c-0.18-1.59-1.51-2.84-3.15-2.84c-0.05,0-0.1,0.01-0.15,0.02c0.46-0.56,0.45-1.37-0.07-1.9
		l-1.16-1.16c-0.55-0.56-1.45-0.55-2,0c-0.55,0.55-0.56,1.45,0,2l1.16,1.16c0.17,0.17,0.39,0.27,0.61,0.34
		c-0.85,0.51-1.44,1.4-1.54,2.44c-0.01,0.04-0.01,0.09-0.01,0.14C73.77,34.13,73.37,33.91,72.91,33.91z M73.36,43.58v-2.13h12.29
		v2.13c0,1.1-0.89,1.99-1.99,1.99h-8.24h-0.08C74.25,45.57,73.36,44.67,73.36,43.58z M56.59,49.66c0.08,0.4,0.32,0.73,0.65,0.94
		h-0.69v-0.82c0-0.08-0.01-0.17-0.02-0.25l-0.45-2.51L56.59,49.66z M56.54,53.43h9.56c-1.56,0.61-3.49,0.51-3.53,0.5
		c-0.06,0-0.12,0-0.17,0.01c-0.02,0-0.03-0.01-0.05-0.01l-2.47,0.19c-0.78,0.06-1.36,0.74-1.3,1.52c0.06,0.78,0.74,1.37,1.52,1.3
		l1.25-0.1l0.43,1.91h-5.24V53.43z M10.67,33.44h23.81c0.72,0,1.22,0.44,1.22,0.84v7.59h-0.83v-2.19c0-1.33-1.01-2.4-2.25-2.4h-7.5
		c-1.24,0-2.25,1.08-2.25,2.4v2.19h-0.68v-2.19c0-1.33-1.01-2.4-2.25-2.4h-7.5c-1.24,0-2.25,1.08-2.25,2.4v2.19H9.45v-7.59
		C9.45,33.89,9.95,33.44,10.67,33.44z M19.36,41.88h-6.32v-1.76h6.32V41.88z M32.04,41.88h-6.32v-1.76h6.32V41.88z M6.04,46.55
		c0-1.01,0.82-1.84,1.84-1.84h29.35c1.01,0,1.84,0.82,1.84,1.84v6.18H6.04V46.55z M39.07,55.57v3.21H6.04v-3.21H39.07z"/>
	<path class="kasdjiods" d="M59.4,42.67h0.41v0.83c0,0.78,0.63,1.42,1.42,1.42h0.04v0.98c0,0.78,0.63,1.42,1.42,1.42h2.93
		c0.78,0,1.42-0.63,1.42-1.42v-0.98h0.04c0.78,0,1.42-0.63,1.42-1.42v-0.83h0.41c0.78,0,1.42-0.63,1.42-1.42s-0.63-1.42-1.42-1.42
		h-0.41v-1.01c0-0.78-0.63-1.42-1.42-1.42h-5.84c-0.78,0-1.42,0.63-1.42,1.42v1.01H59.4c-0.78,0-1.42,0.63-1.42,1.42
		S58.61,42.67,59.4,42.67z M62.64,40.24h3v1.67c-0.01,0-0.02,0-0.04,0h-2.93c-0.01,0-0.02,0-0.04,0V40.24z"/>
</g>
</svg>
