<svg version="1.1" id="Layer_1" xmlns="http://www.w3.org/2000/svg" xmlns:xlink="http://www.w3.org/1999/xlink" x="0px" y="0px"
	 viewBox="0 0 90 90" style="enable-background:new 0 0 90 90;" xml:space="preserve">
<style type="text/css">
	.kopasid901{fill:none;}
	.091w8djks{fill:#A38244;}
</style>
<g>
	<path class="kopasid901" d="M2.67,54.15H23V9.8H2.67V54.15z M5.72,19.48c0-3.92,3.18-7.11,7.11-7.11c3.92,0,7.11,3.18,7.11,7.11v25.01
		c0,3.92-3.18,7.11-7.11,7.11c-3.92,0-7.11-3.18-7.11-7.11V19.48z"/>
	<path class="kopasid901" d="M2.67,65.83h6.38H23v-9.01H2.67V65.83z M10.03,59.99h5.58c0.74,0,1.33,0.6,1.33,1.33s-0.6,1.33-1.33,1.33
		h-5.58c-0.74,0-1.33-0.59-1.33-1.33S9.3,59.99,10.03,59.99z"/>
	<polygon class="kopasid901" points="2.67,71.07 6.11,71.07 7.12,68.5 2.67,68.5 	"/>
	<path class="kopasid901" d="M25.67,9.8v44.35h1.44c0.93-2.04,2.75-3.58,4.96-4.15V36.98c0-3.23,2.91-5.86,6.49-5.86h7.45V9.8H25.67z
		 M31.25,36.82c0,0.74-0.6,1.33-1.33,1.33s-1.33-0.6-1.33-1.33v-9.7c0-0.74,0.59-1.33,1.33-1.33s1.33,0.6,1.33,1.33V36.82z"/>
	<path class="kopasid901" d="M25.67,65.83h0.76v-8.57c0-0.15,0.01-0.29,0.02-0.44h-0.78V65.83z"/>
	<path class="kopasid901" d="M12.83,48.93c2.44,0,4.44-1.99,4.44-4.44V19.48c0-2.44-1.99-4.44-4.44-4.44c-2.44,0-4.44,1.99-4.44,4.44v25.01
		C8.39,46.93,10.39,48.93,12.83,48.93z"/>
	<path fill="#A38244" d="M10.03,62.66h5.58c0.74,0,1.33-0.59,1.33-1.33s-0.6-1.33-1.33-1.33h-5.58c-0.74,0-1.33,0.6-1.33,1.33
		S9.3,62.66,10.03,62.66z"/>
	<path fill="#A38244" d="M29.91,25.79c-0.74,0-1.33,0.6-1.33,1.33v9.7c0,0.74,0.59,1.33,1.33,1.33s1.33-0.6,1.33-1.33v-9.7
		C31.25,26.38,30.65,25.79,29.91,25.79z"/>
	<path fill="#A38244" d="M25.67,65.83v-9.01h0.78c0.06-0.95,0.28-1.85,0.66-2.67h-1.44V9.8h20.34v21.32h2.65V8.48
		c0-0.74-0.6-1.33-1.33-1.33h-23h-23C0.6,7.15,0,7.74,0,8.48v47.01v11.68v5.24c0,0.74,0.6,1.33,1.33,1.33h5.69
		c0.55,0,1.05-0.34,1.24-0.85l1.7-4.39h16.45v-2.67H25.67z M6.11,71.07H2.67V68.5h4.45L6.11,71.07z M23,65.83H9.05H2.67v-9.01H23
		V65.83z M23,54.15H2.67V9.8H23V54.15z"/>
	<path fill="#A38244" d="M40.4,72.89c0.19,0.51,0.69,0.85,1.24,0.85h5.69c0.74-0.02,1.33-0.61,1.33-1.35v-0.44h-8.63L40.4,72.89z"/>
	<path fill="#A38244" d="M12.83,51.6c3.92,0,7.11-3.18,7.11-7.11V19.48c0-3.92-3.18-7.11-7.11-7.11c-3.92,0-7.11,3.18-7.11,7.11v25.01
		C5.72,48.41,8.91,51.6,12.83,51.6z M8.39,19.48c0-2.44,1.99-4.44,4.44-4.44c2.44,0,4.44,1.99,4.44,4.44v25.01
		c0,2.44-1.99,4.44-4.44,4.44c-2.44,0-4.44-1.99-4.44-4.44V19.48z"/>
	<path fill="#A38244" d="M84.41,50.02V36.98c0-3.23-2.91-5.86-6.49-5.86H48.66h-2.65h-7.45c-3.58,0-6.49,2.63-6.49,5.86V50
		c-2.21,0.57-4.02,2.11-4.96,4.15c-0.38,0.82-0.61,1.72-0.66,2.67c-0.01,0.15-0.02,0.29-0.02,0.44v8.57v2.67v9.87
		c0,1.17,0.95,2.13,2.13,2.13s2.13-0.95,2.13-2.13v-6.42h9.36h8.63h37.06v7.27c0,1.17,0.95,2.13,2.13,2.13s2.13-0.95,2.13-2.13
		V57.26C89.97,53.8,87.61,50.88,84.41,50.02z M30.68,67.7V57.26c0-1.79,1.46-3.26,3.26-3.26h48.53c1.79,0,3.26,1.46,3.26,3.26V67.7
		H30.68z M38.55,35.37h39.37c1.21,0,2.24,0.74,2.24,1.61v12.77h-1.81v-3.83c0-2.07-1.57-3.76-3.5-3.76H62.46
		c-1.93,0-3.5,1.69-3.5,3.76v3.83h-1.57v-3.83c0-2.07-1.57-3.76-3.5-3.76h-12.4c-1.93,0-3.5,1.69-3.5,3.76v3.83h-1.68V36.98
		C36.31,36.11,37.34,35.37,38.55,35.37z M53.14,49.76H42.25v-3.34h10.89V49.76z M74.1,49.76H63.21v-3.34H74.1V49.76z"/>
</g>
</svg>
