<svg width="25px" height="25px" viewBox="0 0 25 25" version="1.1" xmlns="http://www.w3.org/2000/svg" xmlns:xlink="http://www.w3.org/1999/xlink">
    <title>Money Icon</title>
    <g id="Desktop" stroke="none" stroke-width="1" fill="none" fill-rule="evenodd">
        <g id="Home-Page" transform="translate(-543.000000, -669.000000)">
            <g id="Group-35" transform="translate(543.000000, 670.000000)">
                <path d="M13.684,20.0521 C13.684,21.8681 10.733,23.3401 7.092,23.3401 C3.452,23.3401 0.5,21.8681 0.5,20.0521 C0.5,18.2371 3.452,16.7651 7.092,16.7651 C10.733,16.7651 13.684,18.2371 13.684,20.0521" id="Fill-1" fill="#FEFEFE"></path>
                <path d="M13.684,20.0521 C13.684,21.8681 10.733,23.3401 7.092,23.3401 C3.452,23.3401 0.5,21.8681 0.5,20.0521 C0.5,18.2371 3.452,16.7651 7.092,16.7651 C10.733,16.7651 13.684,18.2371 13.684,20.0521 Z" id="Stroke-3" stroke="#DEDEDE"></path>
                <path d="M13.684,16.7562 C13.684,18.5722 10.733,20.0442 7.092,20.0442 C3.452,20.0442 0.5,18.5722 0.5,16.7562 C0.5,14.9412 3.452,13.4682 7.092,13.4682 C10.733,13.4682 13.684,14.9412 13.684,16.7562" id="Fill-5" fill="#FEFEFE"></path>
                <path d="M13.684,16.7562 C13.684,18.5722 10.733,20.0442 7.092,20.0442 C3.452,20.0442 0.5,18.5722 0.5,16.7562 C0.5,14.9412 3.452,13.4682 7.092,13.4682 C10.733,13.4682 13.684,14.9412 13.684,16.7562 Z" id="Stroke-7" stroke="#DEDEDE"></path>
                <path d="M13.684,13.7469 C13.684,15.5629 10.733,17.0349 7.092,17.0349 C3.452,17.0349 0.5,15.5629 0.5,13.7469 C0.5,11.9319 3.452,10.4589 7.092,10.4589 C10.733,10.4589 13.684,11.9319 13.684,13.7469" id="Fill-9" fill="#FEFEFE"></path>
                <path d="M13.684,13.7469 C13.684,15.5629 10.733,17.0349 7.092,17.0349 C3.452,17.0349 0.5,15.5629 0.5,13.7469 C0.5,11.9319 3.452,10.4589 7.092,10.4589 C10.733,10.4589 13.684,11.9319 13.684,13.7469 Z" id="Stroke-11" stroke="#DEDEDE"></path>
                <g id="Group-16" transform="translate(13.000000, 12.839900)">
                    <line x1="0.684" y1="7.2122" x2="0.684" y2="0.9072" id="Fill-13" fill="#FEFEFE"></line>
                    <line x1="0.684" y1="7.2122" x2="0.684" y2="0.9072" id="Stroke-15" stroke="#DEDEDE"></line>
                </g>
                <g id="Group-20" transform="translate(0.000000, 12.839900)">
                    <line x1="0.5004" y1="0.907" x2="0.5004" y2="7.212" id="Fill-17" fill="#FEFEFE"></line>
                    <line x1="0.5004" y1="0.907" x2="0.5004" y2="7.212" id="Stroke-19" stroke="#DEDEDE"></line>
                </g>
                <path d="M15.8334,15.5467 L21.7414,15.5467 C22.7134,15.5467 23.5004,14.7597 23.5004,13.7887 L23.5004,2.2577 C23.5004,1.2867 22.7134,0.4997 21.7414,0.4997 L3.2614,0.4997 C2.2904,0.4997 1.5034,1.2867 1.5034,2.2577 L1.5034,9.4567" id="Stroke-21" stroke="#DEDEDE"></path>
                <g id="Group-26" transform="translate(9.000000, 4.839900)">
                    <path d="M0.1693,3.3982 C0.1693,1.5782 1.6463,0.1022 3.4663,0.1022 C5.2863,0.1022 6.7623,1.5782 6.7623,3.3982 C6.7623,4.6542 6.0593,5.7462 5.0253,6.3022" id="Fill-23" fill="#FEFEFE"></path>
                    <path d="M0.1693,3.3982 C0.1693,1.5782 1.6463,0.1022 3.4663,0.1022 C5.2863,0.1022 6.7623,1.5782 6.7623,3.3982 C6.7623,4.6542 6.0593,5.7462 5.0253,6.3022" id="Stroke-25" stroke="#DEDEDE"></path>
                </g>
                <path d="M21.0375,11.8148 C21.0375,12.4238 20.5435,12.9178 19.9345,12.9178 C19.3255,12.9178 18.8325,12.4238 18.8325,11.8148 C18.8325,11.2058 19.3255,10.7118 19.9345,10.7118 C20.5435,10.7118 21.0375,11.2058 21.0375,11.8148" id="Fill-27" fill="#FEFEFE"></path>
                <path d="M21.0375,11.8148 C21.0375,12.4238 20.5435,12.9178 19.9345,12.9178 C19.3255,12.9178 18.8325,12.4238 18.8325,11.8148 C18.8325,11.2058 19.3255,10.7118 19.9345,10.7118 C20.5435,10.7118 21.0375,11.2058 21.0375,11.8148 Z" id="Stroke-29" stroke="#DEDEDE"></path>
                <path d="M6.0228,4.3285 C6.0228,4.9375 5.5298,5.4315 4.9198,5.4315 C4.3118,5.4315 3.8178,4.9375 3.8178,4.3285 C3.8178,3.7195 4.3118,3.2255 4.9198,3.2255 C5.5298,3.2255 6.0228,3.7195 6.0228,4.3285" id="Fill-31" fill="#FEFEFE"></path>
                <path d="M6.0228,4.3285 C6.0228,4.9375 5.5298,5.4315 4.9198,5.4315 C4.3118,5.4315 3.8178,4.9375 3.8178,4.3285 C3.8178,3.7195 4.3118,3.2255 4.9198,3.2255 C5.5298,3.2255 6.0228,3.7195 6.0228,4.3285 Z" id="Stroke-33" stroke="#DEDEDE"></path>
            </g>
        </g>
    </g>
</svg>