<svg xmlns="http://www.w3.org/2000/svg" xmlns:xlink="http://www.w3.org/1999/xlink" width="54" height="54" viewBox="0 0 54 54">
  <defs>
    <filter id="moive-in-icon-a" width="166.7%" height="166.7%" x="-33.3%" y="-33.3%" filterUnits="objectBoundingBox">
      <feOffset dy="2" in="SourceAlpha" result="shadowOffsetOuter1"/>
      <feGaussianBlur in="shadowOffsetOuter1" result="shadowBlurOuter1" stdDeviation="2"/>
      <feColorMatrix in="shadowBlurOuter1" result="shadowMatrixOuter1" values="0 0 0 0 0   0 0 0 0 0   0 0 0 0 0  0 0 0 0.5 0"/>
      <feMerge>
        <feMergeNode in="shadowMatrixOuter1"/>
        <feMergeNode in="SourceGraphic"/>
      </feMerge>
    </filter>
    <polygon id="moive-in-icon-b" points="0 0 12.66 0 12.66 22.066 0 22.066"/>
  </defs>
  <g fill="none" fill-rule="evenodd" filter="url(#moive-in-icon-a)" transform="translate(9 9)">
    <circle cx="18" cy="18" r="18" fill="#000" fill-rule="nonzero"/>
    <circle cx="18" cy="18" r="18" fill="#A75A4A"/>
    <g transform="translate(11 7)">
      <mask id="moive-in-icon-c" fill="#fff">
        <use xlink:href="#moive-in-icon-b"/>
      </mask>
      <path fill="#FEFEFE" fill-rule="nonzero" d="M10.0273,19.7828 L9.1753,19.4788 L7.9123,13.2188 C10.0983,11.5808 10.5433,8.4798 8.9053,6.2938 C8.4753,5.7198 7.9253,5.2458 7.2943,4.9048 C9.3933,4.6038 11.3393,6.0618 11.6393,8.1618 C11.8663,9.7388 11.0943,11.2918 9.7013,12.0648 L9.3813,12.2388 L9.7203,13.9268 L9.4713,15.4988 L10.2193,16.5808 L9.9553,17.9118 L10.6613,19.0328 L10.0273,19.7828 Z M4.0903,8.4508 C4.0903,7.9798 4.4703,7.5968 4.9413,7.59579607 C5.4123,7.5948 5.7953,7.9748 5.79630393,8.4458 C5.7973,8.9168 5.4173,9.2998 4.9463,9.3018 L4.9413,9.3018 C4.4713,9.3018 4.0903,8.9208 4.0903,8.4508 L4.0903,8.4508 Z M6.1423,13.0268 L5.7933,13.1368 L5.7933,14.8958 L5.2153,16.4218 L5.7513,17.6678 L5.2173,18.9528 L5.6993,20.2148 L4.9033,20.8488 L4.0903,20.3688 L4.0903,13.1408 L3.7423,13.0318 C1.6663,12.3748 0.5153,10.1598 1.1733,8.0838 C1.3083,7.6558 1.5153,7.2538 1.7863,6.8958 C2.1183,7.4488 2.5643,7.9258 3.0943,8.2948 L3.0943,8.4508 C3.0903,9.4748 3.9163,10.3088 4.9403,10.3128 C5.9653,10.3178 6.7983,9.4918 6.8023,8.4678 C6.8073,7.4428 5.9803,6.6098 4.9573,6.6048 C4.3783,6.6018 3.8313,6.8708 3.4783,7.3298 C3.0813,7.0078 2.7573,6.6028 2.5283,6.1458 C4.2473,4.8018 6.7293,5.1038 8.0743,6.8228 C9.4183,8.5408 9.1153,11.0238 7.3963,12.3678 C7.0213,12.6618 6.5963,12.8848 6.1423,13.0268 L6.1423,13.0268 Z M5.6963,1.0238 C7.4583,1.0268 8.9513,2.3228 9.2033,4.0668 C8.4483,3.8418 7.6493,3.8038 6.8783,3.9608 C6.4643,4.0448 6.0623,4.1828 5.6833,4.3718 C5.4363,4.3338 5.1863,4.3128 4.9363,4.3108 C3.9603,4.3098 3.0053,4.6008 2.1943,5.1458 C2.1623,4.9578 2.1453,4.7648 2.1443,4.5728 C2.1473,2.6138 3.7363,1.0258 5.6963,1.0238 L5.6963,1.0238 Z M11.2733,16.3608 L10.5103,15.2638 L10.7353,13.9088 L10.4863,12.7448 C12.7153,11.2768 13.3313,8.2798 11.8633,6.0518 C11.4483,5.4218 10.8903,4.8968 10.2373,4.5208 C10.2243,2.0118 8.1803,-0.0122 5.6723,-0.000305702464 C3.1623,0.0118 1.1383,2.0558 1.1503,4.5658 C1.1523,5.0098 1.2193,5.4498 1.3493,5.8748 C-0.5247,7.8568 -0.4357,10.9828 1.5473,12.8568 C1.9963,13.2818 2.5203,13.6178 3.0943,13.8488 L3.0943,20.9338 L4.9813,22.0658 L6.8843,20.5438 L6.2893,18.9688 L6.8333,17.6518 L6.2893,16.4058 L6.7883,15.0878 L6.7883,13.8508 L7.0023,13.7568 L8.3073,20.2368 L10.3493,20.9618 L11.8843,19.1248 L11.0053,17.7218 L11.2733,16.3608 Z" mask="url(#moive-in-icon-c)"/>
    </g>
  </g>
</svg>
