<svg version="1.1" id="Layer_1" xmlns="http://www.w3.org/2000/svg" xmlns:xlink="http://www.w3.org/1999/xlink" x="0px" y="0px"
	 viewBox="0 0 90 90" style="enable-background:new 0 0 90 90;" xml:space="preserve">
<path fill="#A38244" d="M69.6,65.7c0.2-0.1,0.5-0.2,0.8-0.2c0.8,0,1.4-0.6,1.4-1.4v-2.5c0-0.8-0.6-1.4-1.4-1.4c-0.9,0-1.7-0.9-1.7-2
	s0.7-2,1.7-2c0.8,0,1.4-0.6,1.4-1.4v-2.5c0-0.8-0.6-1.4-1.4-1.4c-0.9,0-1.7-0.9-1.7-2c0-1.1,0.7-2,1.7-2c0.8,0,1.4-0.6,1.4-1.4v-2.5
	c0-0.8-0.6-1.4-1.4-1.4c-0.9,0-1.7-0.9-1.7-2c0-1.1,0.7-2,1.7-2c0.8,0,1.4-0.6,1.4-1.4v-2.5c0-0.8-0.6-1.4-1.4-1.4
	c-0.9,0-1.7-0.9-1.7-2c0-1.1,0.7-2,1.7-2c0.8,0,1.4-0.6,1.4-1.4v-2.5c0-0.8-0.6-1.4-1.4-1.4c-0.3,0-0.5-0.1-0.8-0.2L87,5.1
	c0.8-0.8,0.8-2.2,0-3c-0.8-0.8-2.2-0.8-3,0L71.8,14.3c-0.2-0.6-0.7-1-1.4-1c-0.9,0-1.7-0.9-1.7-2c0-0.8-0.6-1.4-1.4-1.4H65
	c-0.8,0-1.4,0.6-1.4,1.4c0,1.1-0.7,2-1.7,2c-0.9,0-1.7-0.9-1.7-2c0-0.8-0.6-1.4-1.4-1.4h-2.3c-0.8,0-1.4,0.6-1.4,1.4
	c0,1.1-0.7,2-1.7,2c-0.9,0-1.7-0.9-1.7-2c0-0.8-0.6-1.4-1.4-1.4h-2.3c-0.8,0-1.4,0.6-1.4,1.4c0,1.1-0.7,2-1.7,2
	c-0.9,0-1.7-0.9-1.7-2c0-0.8-0.6-1.4-1.4-1.4h-2.3c-0.8,0-1.4,0.6-1.4,1.4c0,1.1-0.7,2-1.7,2c-0.9,0-1.7-0.9-1.7-2
	c0-0.8-0.6-1.4-1.4-1.4h-2.3c-0.8,0-1.4,0.6-1.4,1.4c0,1.1-0.7,2-1.7,2c-0.9,0-1.7-0.9-1.7-2c0-0.8-0.6-1.4-1.4-1.4h-2.3
	c-0.8,0-1.4,0.6-1.4,1.4c0,1.1-0.7,2-1.7,2c-0.7,0-1.2,0.5-1.4,1.1L6,2.1c-0.8-0.8-2.2-0.8-3,0C2.2,3,2.2,4.3,3,5.1l17.4,17.4
	c-0.2,0.1-0.4,0.2-0.7,0.2c-0.8,0-1.4,0.6-1.4,1.4v2.5c0,0.8,0.6,1.4,1.4,1.4c0.9,0,1.7,0.9,1.7,2c0,1.1-0.7,2-1.7,2
	c-0.8,0-1.4,0.6-1.4,1.4V36c0,0.8,0.6,1.4,1.4,1.4c0.9,0,1.7,0.9,1.7,2c0,1.1-0.7,2-1.7,2c-0.8,0-1.4,0.6-1.4,1.4v2.5
	c0,0.8,0.6,1.4,1.4,1.4c0.9,0,1.7,0.9,1.7,2c0,1.1-0.7,2-1.7,2c-0.8,0-1.4,0.6-1.4,1.4v2.5c0,0.8,0.6,1.4,1.4,1.4
	c0.9,0,1.7,0.9,1.7,2s-0.7,2-1.7,2c-0.8,0-1.4,0.6-1.4,1.4v2.5c0,0.8,0.6,1.4,1.4,1.4c0.2,0,0.5,0.1,0.7,0.2L3,83
	c-0.8,0.8-0.8,2.2,0,3c0.4,0.4,1,0.6,1.5,0.6s1.1-0.2,1.5-0.6l12.3-12.3c0.1,0.6,0.7,1.1,1.4,1.1c0.9,0,1.7,0.9,1.7,2
	c0,0.8,0.6,1.4,1.4,1.4h2.3c0.8,0,1.4-0.6,1.4-1.4c0-1.1,0.7-2,1.7-2c0.9,0,1.7,0.9,1.7,2c0,0.8,0.6,1.4,1.4,1.4h2.3
	c0.8,0,1.4-0.6,1.4-1.4c0-1.1,0.7-2,1.7-2c0.9,0,1.7,0.9,1.7,2c0,0.8,0.6,1.4,1.4,1.4H42c0.8,0,1.4-0.6,1.4-1.4c0-1.1,0.7-2,1.7-2
	c0.9,0,1.7,0.9,1.7,2c0,0.8,0.6,1.4,1.4,1.4h2.3c0.8,0,1.4-0.6,1.4-1.4c0-1.1,0.7-2,1.7-2c0.9,0,1.7,0.9,1.7,2
	c0,0.8,0.6,1.4,1.4,1.4h2.3c0.8,0,1.4-0.6,1.4-1.4c0-1.1,0.7-2,1.7-2s1.7,0.9,1.7,2c0,0.8,0.6,1.4,1.4,1.4h2.3
	c0.8,0,1.4-0.6,1.4-1.4c0-1.1,0.7-2,1.7-2c0.6,0,1.2-0.4,1.4-1L84,86.1c0.4,0.4,1,0.6,1.5,0.6s1.1-0.2,1.5-0.6c0.8-0.8,0.8-2.2,0-3
	L69.6,65.7z M69,62.7v0.2c-0.5,0.2-0.9,0.5-1.3,0.8l-1.2-1.2v-2.1C66.9,61.5,67.9,62.3,69,62.7z M26.6,59.5V28.6L39,41.1
	c0.4,2,0.7,3.8,0.9,5.1l-1.1,1.1c-0.2,0.1-0.4,0.2-0.5,0.4c-0.1,0.1-0.2,0.3-0.3,0.5l-3.3,3.3H32c-1.2,0-2.1,1-2.1,2.1v2.7
	L26.6,59.5z M42.2,35.9c0-0.2-0.1-0.3-0.1-0.4c-0.2-0.4-0.3-0.9-0.3-1.3c0-1.8,1.4-3.2,3.2-3.2s3.2,1.4,3.2,3.2
	c0,0.5-0.1,0.9-0.3,1.3c-0.1,0.1-0.1,0.3-0.1,0.4c-0.2,1-0.4,2-0.6,3.1L45,41.1L42.9,39C42.7,37.9,42.4,36.9,42.2,35.9z M41.6,51.2
	h0.8h5.2h0.8c0,0.1,0,0.1,0.1,0.2h-6.9C41.6,51.3,41.6,51.3,41.6,51.2z M36.4,55.7h17.1l1.7,1.7H45.1H34.7L36.4,55.7z M60.2,53.5
	c0-1.2-1-2.1-2.1-2.1h-2.8l-3.2-3.2c-0.1-0.2-0.2-0.4-0.4-0.6c-0.2-0.2-0.4-0.3-0.7-0.5l-1-1c0.2-1.4,0.5-3.1,0.9-5.1l12.5-12.5
	v31.1l-3.4-3.4V53.5z M69,53.4v0.2c-1.1,0.4-2,1.3-2.6,2.4v-5C66.9,52.1,67.9,53,69,53.4z M69,44v0.2c-1.1,0.4-2,1.3-2.6,2.4v-5
	C66.9,42.7,67.9,43.6,69,44z M69,34.6v0.2c-1.1,0.4-2,1.3-2.6,2.4v-5C66.9,33.4,67.9,34.2,69,34.6z M69,25.3v0.2
	c-1.1,0.4-2,1.3-2.6,2.4v-2.1l1.2-1.2C68,24.8,68.5,25.1,69,25.3z M66.2,13c0.5,1.4,1.5,2.5,2.8,2.9v0.2c-1.1,0.4-2,1.3-2.6,2.4
	v-1.3c0-0.8-0.6-1.4-1.4-1.4h-1.4C64.8,15.3,65.7,14.3,66.2,13z M57.7,13c0.4,1.3,1.4,2.3,2.6,2.8h-5.1C56.4,15.3,57.3,14.3,57.7,13
	z M49.3,13c0.4,1.3,1.4,2.3,2.6,2.8h-5.1C47.9,15.3,48.8,14.3,49.3,13z M40.8,13c0.4,1.3,1.4,2.3,2.6,2.8h-5.1
	C39.5,15.3,40.4,14.3,40.8,13z M32.4,13c0.4,1.3,1.4,2.3,2.6,2.8h-5.1C31,15.3,32,14.3,32.4,13z M21.1,15.9c1.3-0.5,2.3-1.5,2.8-2.9
	c0.4,1.3,1.4,2.3,2.6,2.8h-1.4c-0.8,0-1.4,0.6-1.4,1.4v1.3c-0.5-1.1-1.5-2-2.6-2.4V15.9z M26.6,18.6h37v3.9L52.5,33.6
	c-0.2-3.9-3.5-7-7.5-7c-4,0-7.2,3.1-7.5,7l-11-11V18.6z M21.1,25.5v-0.2c0.5-0.2,0.9-0.4,1.3-0.7l1.3,1.3v2
	C23.2,26.7,22.3,25.9,21.1,25.5z M21.1,34.8v-0.2c1.1-0.4,2-1.3,2.6-2.4v5C23.2,36.1,22.3,35.2,21.1,34.8z M21.1,44.2V44
	c1.1-0.4,2-1.3,2.6-2.4v5C23.2,45.5,22.3,44.6,21.1,44.2z M21.1,53.6v-0.2c1.1-0.4,2-1.3,2.6-2.4v5C23.2,54.8,22.3,54,21.1,53.6z
	 M21.1,62.9v-0.2c1.1-0.4,2-1.3,2.6-2.4v2l-1.3,1.3C22,63.4,21.6,63.1,21.1,62.9z M23.9,75.2c-0.5-1.4-1.5-2.5-2.8-2.9v-0.2
	c1.1-0.4,2-1.3,2.6-2.4V71c0,0.8,0.6,1.4,1.4,1.4h1.4C25.3,72.9,24.4,73.9,23.9,75.2z M32.4,75.2c-0.4-1.3-1.4-2.3-2.6-2.8h5.1
	C33.8,72.9,32.8,73.9,32.4,75.2z M40.8,75.2c-0.4-1.3-1.4-2.3-2.6-2.8h5.1C42.2,72.9,41.3,73.9,40.8,75.2z M49.3,75.2
	c-0.4-1.3-1.4-2.3-2.6-2.8h5.1C50.7,72.9,49.7,73.9,49.3,75.2z M57.7,75.2c-0.4-1.3-1.4-2.3-2.6-2.8h5.1
	C59.1,72.9,58.2,73.9,57.7,75.2z M69,72.3c-1.3,0.5-2.3,1.6-2.8,2.9c-0.4-1.3-1.4-2.3-2.6-2.8H65c0.8,0,1.4-0.6,1.4-1.4v-1.3
	c0.5,1.1,1.5,2,2.6,2.4V72.3z M63.6,69.5h-37v-4l4.3-4.3c0.3,0.2,0.7,0.4,1.2,0.4h26.1c0.4,0,0.8-0.1,1.1-0.3l4.4,4.4V69.5z"/>
</svg>
