<svg version="1.1" id="Layer_1" xmlns="http://www.w3.org/2000/svg" xmlns:xlink="http://www.w3.org/1999/xlink" x="0px" y="0px"
	 viewBox="0 0 90 90" style="enable-background:new 0 0 90 90;" xml:space="preserve">
<g>
	<path fill="#A38244" d="M87.7,0.1h-9.28c-1.17,0-2.13,0.95-2.13,2.13s0.95,2.13,2.13,2.13h7.16v26.52h-29c-1.17,0-2.13,0.95-2.13,2.13
		v14.6c0,1.17,0.95,2.13,2.13,2.13s2.13-0.95,2.13-2.13V35.13h26.86v50.43H58.71v-16.3c0-1.17-0.95-2.13-2.13-2.13
		s-2.13,0.95-2.13,2.13v18.25c0,0.03,0.01,0.06,0.01,0.09s-0.01,0.06-0.01,0.09c0,1.17,0.95,2.13,2.13,2.13H87.7
		c1.17,0,2.13-0.95,2.13-2.13V2.23C89.83,1.05,88.88,0.1,87.7,0.1z"/>
	<path fill="#A38244" d="M56.2,2.23c0-1.17-0.95-2.13-2.13-2.13H46H25.65H2.24c-1.17,0-2.13,0.95-2.13,2.13v85.46
		c0,1.17,0.95,2.13,2.13,2.13h32.84c1.17,0,2.13-0.95,2.13-2.13s-0.95-2.13-2.13-2.13H4.37V61.94h28.59v2.59
		c0,1.17,0.95,2.13,2.13,2.13s2.13-0.95,2.13-2.13v-4.72c0-1.17-0.95-2.13-2.13-2.13H4.37V4.35h21.28h5.93V33
		c0,1.17,0.95,2.13,2.13,2.13h5.96c1.17,0,2.13-0.95,2.13-2.13s-0.95-2.13-2.13-2.13h-3.84V4.35H46h8.07
		C55.25,4.35,56.2,3.4,56.2,2.23z"/>
</g>
</svg>
