<svg version="1.1" id="Layer_1" xmlns="http://www.w3.org/2000/svg" xmlns:xlink="http://www.w3.org/1999/xlink" x="0px" y="0px"
	 viewBox="0 0 90 90" style="enable-background:new 0 0 90 90;" xml:space="preserve">
<g>
	<path fill="none" d="M67.6,48.5c8,1.1,11.2,2.6,11.2,5.2s-3.1,4.1-11.2,5.2c-6.1,0.9-14.2,1.3-22.9,1.3S28,59.8,21.9,59
		c-8-1.1-11.2-2.6-11.2-5.2s3.1-4.1,11.2-5.2c2.8-0.4,6-0.7,9.5-0.9c-0.3-0.5-0.5-1.1-0.7-1.6c-16.6,1.5-25.5,5.5-25.5,7.8
		c0,2.8,14,8.4,39.5,8.4s39.5-5.5,39.5-8.4c0-2.3-8.9-6.3-25.5-7.8c-0.2,0.6-0.4,1.1-0.7,1.6C61.6,47.8,64.8,48.1,67.6,48.5z"/>
	<path fill="none" d="M34.4,51.7C25.8,52.1,20,52.9,17,53.7c4.1,1.1,13.5,2.3,27.8,2.3s23.6-1.2,27.8-2.3c-3-0.8-8.9-1.7-17.4-2.1
		c-2.7,2.6-6.4,4.2-10.4,4.2S37.1,54.3,34.4,51.7z"/>
	<path fill="#A38244" d="M74.7,44.2c-4.3-1.1-9.5-1.9-15-2.5c0-0.3,0-0.6,0-0.9c0-6.2-7.7-18-12.4-24.5c-0.6-0.9-1.6-1.4-2.6-1.4
		s-2,0.5-2.6,1.4c-4.6,6.5-12.4,18.3-12.4,24.5c0,0.3,0,0.6,0,0.9c-5.6,0.5-10.7,1.4-15,2.5c-9.2,2.3-13.8,5.5-13.8,9.5
		s4.6,7.2,13.8,9.5c8,2,18.7,3.1,30,3.1s22-1.1,30-3.1c9.2-2.3,13.8-5.5,13.8-9.5S83.9,46.5,74.7,44.2z M44.7,20
		c6.6,9.4,10.7,17.5,10.7,20.9c0,0.2,0,0.4,0,0.6c-0.1,1.5-0.5,2.9-1.1,4.2c-0.3,0.6-0.7,1.2-1.1,1.7c-1.6,2.1-4,3.6-6.7,4.1
		c-0.6,0.1-1.2,0.2-1.9,0.2s-1.3-0.1-1.9-0.2c-2.7-0.5-5.1-2-6.7-4.1c-0.4-0.5-0.8-1.1-1.1-1.7c-0.6-1.3-1-2.7-1.1-4.2
		c0-0.2,0-0.4,0-0.6C34,37.5,38.2,29.4,44.7,20z M55.1,51.7c8.5,0.4,14.4,1.3,17.4,2.1C68.4,54.8,59.1,56,44.7,56S21.1,54.8,17,53.7
		c3-0.8,8.9-1.7,17.4-2.1c2.7,2.6,6.4,4.2,10.4,4.2S52.4,54.3,55.1,51.7z M44.7,62.1c-25.6,0-39.5-5.5-39.5-8.4
		c0-2.3,8.9-6.3,25.5-7.8c0.2,0.6,0.4,1.1,0.7,1.6c-3.5,0.2-6.7,0.5-9.5,0.9c-8,1.1-11.2,2.6-11.2,5.2s3.1,4.1,11.2,5.2
		c6.1,0.9,14.2,1.3,22.9,1.3s16.7-0.5,22.9-1.3c8-1.1,11.2-2.6,11.2-5.2s-3.1-4.1-11.2-5.2c-2.8-0.4-6-0.7-9.5-0.9
		c0.3-0.5,0.5-1.1,0.7-1.6c16.6,1.5,25.5,5.5,25.5,7.8C84.3,56.6,70.3,62.1,44.7,62.1z"/>
	<path fill="#A38244" d="M42.8,29.6c-1-0.6-2.3-0.3-2.9,0.7c-2.7,4.6-4.1,8-4.1,10.2c0,0.3,0,0.6,0,0.9c0.1,1.5,0.5,2.9,1.2,4.2
		c0.3,0.6,0.7,1.2,1.2,1.7c0.2,0.3,0.5,0.6,0.7,0.8c0.4,0.4,1,0.6,1.5,0.6s1.1-0.2,1.5-0.6c0.3-0.3,0.4-0.6,0.5-0.9
		c0.2-0.6,0.1-1.3-0.3-1.8c-0.1-0.1-0.1-0.2-0.2-0.3c-1.1-1.1-1.7-2.4-1.9-3.9c0-0.2,0-0.4,0-0.7c0-0.7,0.3-2.8,3.5-8
		C44.1,31.5,43.8,30.2,42.8,29.6z"/>
</g>
</svg>
