<?xml version="1.0" encoding="utf-8"?>
<!-- Generator: Adobe Illustrator 25.0.1, SVG Export Plug-In . SVG Version: 6.00 Build 0)  -->
<svg version="1.1" id="Layer_1" xmlns="http://www.w3.org/2000/svg" xmlns:xlink="http://www.w3.org/1999/xlink" x="0px" y="0px"
	 viewBox="0 0 90 90" style="enable-background:new 0 0 90 90;" xml:space="preserve">
<style type="text/css">
	.jioe1w8989s{fill:none;}
	.lfdopd{fill:#A38244;}
</style>
<g>
	<path class="jioe1w8989s" d="M66,16.3h3.24c0.43,0,0.79-0.36,0.79-0.79s-0.36-0.79-0.79-0.79H66c-0.43,0-0.79,0.36-0.79,0.79
		S65.57,16.3,66,16.3z"/>
	<circle class="jioe1w8989s" cx="59.8" cy="25.72" r="1.66"/>
	<path class="jioe1w8989s" d="M20.76,16.3H24c0.43,0,0.79-0.36,0.79-0.79s-0.36-0.79-0.79-0.79h-3.24c-0.43,0-0.79,0.36-0.79,0.79
		S20.34,16.3,20.76,16.3z"/>
	<path class="jioe1w8989s" d="M59.8,31.63c-3.26,0-5.91-2.65-5.91-5.91c0-2.67,1.79-4.94,4.23-5.67c-1.59-0.75-3.32-1.24-5.15-1.39H36.71
		c-1.79,0.15-3.49,0.62-5.05,1.34c2.53,0.67,4.41,2.97,4.41,5.71c0,3.26-2.65,5.91-5.91,5.91c-2.76,0-5.09-1.91-5.73-4.48
		c-0.74,1.54-1.23,3.23-1.4,5.01h43.64c-0.16-1.63-0.59-3.18-1.23-4.62C64.65,29.91,62.42,31.63,59.8,31.63z M50.78,27.78H38.99
		c-1.17,0-2.13-0.95-2.13-2.13s0.95-2.13,2.13-2.13h11.79c1.17,0,2.13,0.95,2.13,2.13S51.95,27.78,50.78,27.78z"/>
	<path class="jioe1w8989s" d="M61.03,36.41v3.07c0,0.6,0.5,1.1,1.1,1.1h3.49c0.6,0,1.1-0.5,1.1-1.1v-3.07H61.03z"/>
	<path class="jioe1w8989s" d="M28.49,25.72c0,0.92,0.75,1.66,1.66,1.66c0.92,0,1.66-0.75,1.66-1.66s-0.75-1.66-1.66-1.66
		C29.23,24.06,28.49,24.8,28.49,25.72z"/>
	<circle class="jioe1w8989s" cx="59.8" cy="68.84" r="1.66"/>
	<path class="jioe1w8989s" d="M22.94,39.48c0,0.6,0.5,1.1,1.1,1.1h3.49c0.6,0,1.1-0.5,1.1-1.1v-3.07h-5.69V39.48z"/>
	<path class="jioe1w8989s" d="M37.94,14.35h13.78c0.39,0,0.78,0.04,1.17,0.06h7.5c-1-5.33-5.69-9.38-11.31-9.38h-8.49
		c-5.62,0-10.31,4.05-11.31,9.38h7.5C37.17,14.39,37.55,14.35,37.94,14.35z"/>
	<path class="jioe1w8989s" d="M59.8,74.75c-3.26,0-5.91-2.65-5.91-5.91c0-2.67,1.79-4.94,4.23-5.67c-1.59-0.75-3.33-1.24-5.16-1.39H36.72
		c-1.8,0.15-3.5,0.61-5.06,1.34c2.53,0.67,4.41,2.97,4.41,5.71c0,3.26-2.65,5.91-5.91,5.91c-2.76,0-5.09-1.91-5.73-4.48
		c-0.74,1.54-1.23,3.23-1.4,5.01h43.64c-0.16-1.63-0.59-3.18-1.23-4.62C64.65,73.03,62.42,74.75,59.8,74.75z M50.78,70.91H38.99
		c-1.17,0-2.13-0.95-2.13-2.13s0.95-2.13,2.13-2.13h11.79c1.17,0,2.13,0.95,2.13,2.13S51.95,70.91,50.78,70.91z"/>
	<path class="jioe1w8989s" d="M61.03,79.53v3.07c0,0.6,0.5,1.1,1.1,1.1h3.49c0.6,0,1.1-0.5,1.1-1.1v-3.07H61.03z"/>
	<path class="jioe1w8989s" d="M22.94,82.6c0,0.6,0.5,1.1,1.1,1.1h3.49c0.6,0,1.1-0.5,1.1-1.1v-3.07h-5.69V82.6z"/>
	<path class="jioe1w8989s" d="M69.24,57.85H66c-0.43,0-0.79,0.36-0.79,0.79s0.36,0.79,0.79,0.79h3.24c0.43,0,0.79-0.36,0.79-0.79
		S69.66,57.85,69.24,57.85z"/>
	<path class="jioe1w8989s" d="M37.94,57.48h13.78c0.39,0,0.77,0.04,1.16,0.06h7.51c-1-5.33-5.69-9.38-11.31-9.38h-8.49
		c-5.62,0-10.31,4.05-11.31,9.38h7.51C37.17,57.51,37.55,57.48,37.94,57.48z"/>
	<path class="jioe1w8989s" d="M28.49,68.84c0,0.92,0.75,1.66,1.66,1.66c0.92,0,1.66-0.75,1.66-1.66s-0.75-1.66-1.66-1.66
		C29.23,67.18,28.49,67.92,28.49,68.84z"/>
	<path class="jioe1w8989s" d="M24.79,58.63c0-0.43-0.36-0.79-0.79-0.79h-3.24c-0.43,0-0.79,0.36-0.79,0.79s0.36,0.79,0.79,0.79H24
		C24.43,59.42,24.79,59.06,24.79,58.63z"/>
	<path class="lfdopd" d="M69.24,53.59H66c-0.79,0-1.53,0.2-2.19,0.52c-2.25-5.96-8-10.21-14.73-10.21h-8.49
		c-6.68,0-12.39,4.19-14.68,10.07c-0.59-0.24-1.23-0.38-1.91-0.38h-3.24c-2.78,0-5.04,2.26-5.04,5.04c0,2.78,2.26,5.04,5.04,5.04
		h3.08c-3.18,3.44-5.15,8.02-5.15,13.06v0.68v5.19c0,2.95,2.4,5.35,5.35,5.35h3.49c2.95,0,5.35-2.4,5.35-5.35v-3.07h23.89v3.07
		c0,2.95,2.4,5.35,5.35,5.35h3.49c2.95,0,5.35-2.4,5.35-5.35v-5.19v-0.68c0-5.05-1.97-9.64-5.16-13.08c0.06,0,0.12,0.02,0.19,0.02
		h3.24c2.78,0,5.04-2.26,5.04-5.04C74.27,55.85,72.01,53.59,69.24,53.59z M61.46,68.84c0,0.92-0.75,1.66-1.66,1.66
		s-1.66-0.75-1.66-1.66s0.75-1.66,1.66-1.66S61.46,67.92,61.46,68.84z M40.59,48.16h8.49c5.62,0,10.31,4.05,11.31,9.38h-7.51
		c-0.38-0.02-0.77-0.06-1.16-0.06H37.94c-0.39,0-0.77,0.04-1.16,0.06h-7.51C30.28,52.2,34.97,48.16,40.59,48.16z M31.81,68.84
		c0,0.92-0.75,1.66-1.66,1.66c-0.92,0-1.66-0.75-1.66-1.66s0.75-1.66,1.66-1.66C31.06,67.18,31.81,67.92,31.81,68.84z M19.98,58.63
		c0-0.43,0.36-0.79,0.79-0.79H24c0.43,0,0.79,0.36,0.79,0.79s-0.36,0.79-0.79,0.79h-3.24C20.34,59.42,19.98,59.06,19.98,58.63z
		 M28.64,82.6c0,0.6-0.5,1.1-1.1,1.1h-3.49c-0.6,0-1.1-0.5-1.1-1.1v-3.07h5.69V82.6z M65.62,83.7h-3.49c-0.6,0-1.1-0.5-1.1-1.1
		v-3.07h5.69v3.07C66.72,83.2,66.22,83.7,65.62,83.7z M23.01,75.28c0.17-1.78,0.66-3.46,1.4-5.01c0.64,2.57,2.97,4.48,5.73,4.48
		c3.26,0,5.91-2.65,5.91-5.91c0-2.74-1.87-5.04-4.41-5.71c1.56-0.73,3.26-1.19,5.06-1.34h16.23c1.83,0.15,3.57,0.63,5.16,1.39
		c-2.44,0.73-4.23,2.99-4.23,5.67c0,3.26,2.65,5.91,5.91,5.91c2.62,0,4.85-1.72,5.62-4.09c0.64,1.44,1.07,2.99,1.23,4.62H23.01
		V75.28z M69.24,59.42H66c-0.43,0-0.79-0.36-0.79-0.79s0.36-0.79,0.79-0.79h3.24c0.43,0,0.79,0.36,0.79,0.79
		S69.66,59.42,69.24,59.42z"/>
	<path class="lfdopd" d="M50.78,66.65H38.99c-1.17,0-2.13,0.95-2.13,2.13s0.95,2.13,2.13,2.13h11.79c1.17,0,2.13-0.95,2.13-2.13
		S51.95,66.65,50.78,66.65z"/>
	<path class="lfdopd" d="M20.76,20.55h3.08c-3.18,3.44-5.15,8.02-5.15,13.06v0.68v5.19c0,2.95,2.4,5.35,5.35,5.35h3.49
		c2.95,0,5.35-2.4,5.35-5.35v-3.07h23.89v3.07c0,2.95,2.4,5.35,5.35,5.35h3.49c2.95,0,5.35-2.4,5.35-5.35v-5.19v-0.68
		c0-5.05-1.97-9.64-5.16-13.08c0.06,0,0.12,0.02,0.19,0.02h3.24c2.78,0,5.04-2.26,5.04-5.04s-2.26-5.04-5.04-5.04H66
		c-0.79,0-1.53,0.2-2.19,0.52c-2.25-5.96-8-10.21-14.73-10.21h-8.49c-6.68,0-12.39,4.19-14.68,10.07c-0.59-0.24-1.23-0.38-1.91-0.38
		h-3.24c-2.78,0-5.04,2.26-5.04,5.04S17.99,20.55,20.76,20.55z M31.81,25.72c0,0.92-0.75,1.66-1.66,1.66
		c-0.92,0-1.66-0.75-1.66-1.66s0.75-1.66,1.66-1.66S31.81,24.8,31.81,25.72z M28.64,39.48c0,0.6-0.5,1.1-1.1,1.1h-3.49
		c-0.6,0-1.1-0.5-1.1-1.1v-3.07h5.69V39.48z M65.62,40.58h-3.49c-0.6,0-1.1-0.5-1.1-1.1v-3.07h5.69v3.07
		C66.72,40.08,66.22,40.58,65.62,40.58z M23.01,32.16c0.17-1.78,0.66-3.46,1.4-5.01c0.64,2.57,2.97,4.48,5.73,4.48
		c3.26,0,5.91-2.65,5.91-5.91c0-2.74-1.87-5.04-4.41-5.71c1.56-0.72,3.26-1.19,5.05-1.34h16.25c1.83,0.15,3.57,0.63,5.15,1.39
		c-2.44,0.73-4.23,2.99-4.23,5.67c0,3.26,2.65,5.91,5.91,5.91c2.62,0,4.85-1.72,5.62-4.09c0.64,1.44,1.07,2.99,1.23,4.62
		L23.01,32.16L23.01,32.16z M61.46,25.72c0,0.92-0.75,1.66-1.66,1.66s-1.66-0.75-1.66-1.66s0.75-1.66,1.66-1.66
		S61.46,24.8,61.46,25.72z M66,14.73h3.24c0.43,0,0.79,0.36,0.79,0.79s-0.36,0.79-0.79,0.79H66c-0.43,0-0.79-0.36-0.79-0.79
		S65.57,14.73,66,14.73z M40.59,5.03h8.49c5.62,0,10.31,4.05,11.31,9.38h-7.5c-0.39-0.02-0.77-0.06-1.17-0.06H37.94
		c-0.39,0-0.78,0.04-1.17,0.06h-7.5C30.28,9.08,34.97,5.03,40.59,5.03z M20.76,14.73H24c0.43,0,0.79,0.36,0.79,0.79
		S24.43,16.3,24,16.3h-3.24c-0.43,0-0.79-0.36-0.79-0.79S20.34,14.73,20.76,14.73z"/>
	<path class="lfdopd" d="M50.78,23.53H38.99c-1.17,0-2.13,0.95-2.13,2.13s0.95,2.13,2.13,2.13h11.79c1.17,0,2.13-0.95,2.13-2.13
		S51.95,23.53,50.78,23.53z"/>
</g>
</svg>
