<svg version="1.1" id="Layer_1" xmlns="http://www.w3.org/2000/svg" xmlns:xlink="http://www.w3.org/1999/xlink" x="0px" y="0px"
	 viewBox="0 0 90 90" style="enable-background:new 0 0 90 90;" xml:space="preserve">
<g>
	<polygon fill="none" points="28.52,69.48 10.65,69.62 10.65,82.09 28.52,82.09 	"/>
	<path fill="none" d="M32.75,65.64c0,0.05,0.01,0.09,0.01,0.13v16.32h6.56V69.34c0-1.17,0.95-2.13,2.13-2.13s2.13,0.95,2.13,2.13
		v12.75h6.86V64.17l-9.03-8.95L32.75,65.64z"/>
	<polygon fill="none" points="60.66,6.1 35.89,6.1 18.42,23.57 45.25,23.57 	"/>
	<path fill="none" d="M8.52,65.03c0.42,0,0.82,0.13,1.15,0.34l17.88-0.14L36.88,54H17.6L7.4,65.36C7.73,65.16,8.11,65.03,8.52,65.03
		z"/>
	<path fill="#A38244" d="M89.18,24.59L66.96,2.37c-0.42-0.42-0.98-0.63-1.57-0.62c-0.19,0.01-0.37,0.04-0.55,0.1H35.01
		c-0.56,0-1.1,0.22-1.5,0.62L11.78,24.19c-0.61,0.61-0.79,1.52-0.46,2.32c0.33,0.79,1.1,1.31,1.96,1.31h5.43v15.73
		c0,1.17,0.95,2.13,2.13,2.13s2.13-0.95,2.13-2.13V27.82h20.74v15.73c0,1.17,0.95,2.13,2.13,2.13s2.13-0.95,2.13-2.13V26.93
		L65.6,7.02l13.01,13.01v45.4H67.44c-1.17,0-2.13,0.95-2.13,2.13s0.95,2.13,2.13,2.13h13.29c1.17,0,2.13-0.95,2.13-2.13V24.28
		l3.31,3.31c0.42,0.42,0.96,0.62,1.5,0.62s1.09-0.21,1.5-0.62C90.01,26.77,90.01,25.42,89.18,24.59z M35.89,6.1h24.77L45.25,23.57
		H18.42L35.89,6.1z"/>
	<path fill="#A38244" d="M43.19,51.01c-0.33-0.74-1.08-1.25-1.94-1.25h-24.6c-0.6,0-1.18,0.26-1.58,0.71L0.99,66.13
		c-0.56,0.63-0.7,1.53-0.36,2.29s1.1,1.25,1.94,1.25c0.01,0,0.01,0,0.02,0l3.81-0.03v14.57c0,1.17,0.95,2.13,2.13,2.13h21.51
		c0.19,0.06,0.39,0.1,0.61,0.1s0.41-0.04,0.61-0.1h21.31c1.17,0,2.13-0.95,2.13-2.13V68.38l3.72,3.69c0.41,0.41,0.96,0.62,1.5,0.62
		c0.55,0,1.09-0.21,1.51-0.63c0.83-0.83,0.82-2.18-0.01-3.01L43.19,51.01z M17.6,54.01h19.28l-9.33,11.23L9.67,65.38
		c-0.33-0.21-0.73-0.34-1.15-0.34c-0.41,0-0.79,0.12-1.12,0.32L17.6,54.01z M10.65,69.62l17.87-0.14v12.61H10.65V69.62z
		 M50.44,82.09h-6.86V69.34c0-1.17-0.95-2.13-2.13-2.13s-2.13,0.95-2.13,2.13v12.75h-6.56V65.77c0-0.05-0.01-0.09-0.01-0.13
		l8.65-10.41l9.03,8.95v17.91H50.44z"/>
	<path fill="#A38244" d="M70.19,33.95c1.17,0,2.13-0.95,2.13-2.13V25c0-1.17-0.95-2.13-2.13-2.13s-2.13,0.95-2.13,2.13v6.82
		C68.07,33,69.02,33.95,70.19,33.95z"/>
	<path fill="#A38244" d="M60.27,22.88c-1.17,0-2.13,0.95-2.13,2.13v6.82c0,1.17,0.95,2.13,2.13,2.13S62.4,33,62.4,31.82V25
		C62.4,23.83,61.45,22.88,60.27,22.88z"/>
	<path fill="#A38244" d="M68.07,46.7c0,1.17,0.95,2.13,2.13,2.13s2.13-0.95,2.13-2.13v-6.82c0-1.17-0.95-2.13-2.13-2.13
		s-2.13,0.95-2.13,2.13V46.7z"/>
	<path fill="#A38244" d="M68.07,60.98c0,1.17,0.95,2.13,2.13,2.13s2.13-0.95,2.13-2.13v-6.82c0-1.17-0.95-2.13-2.13-2.13
		s-2.13,0.95-2.13,2.13V60.98z"/>
	<path fill="#A38244" d="M60.27,37.76c-1.17,0-2.13,0.95-2.13,2.13v6.82c0,1.17,0.95,2.13,2.13,2.13s2.13-0.95,2.13-2.13v-6.82
		C62.4,38.71,61.45,37.76,60.27,37.76z"/>
</g>
</svg>
