<svg xmlns="http://www.w3.org/2000/svg" xmlns:xlink="http://www.w3.org/1999/xlink" width="24" height="24" viewBox="0 0 24 24">
  <defs>
    <polygon id="phone_icon-a" points="0 .482 22.608 .482 22.608 24 0 24"/>
    <polygon id="phone_icon-c" points=".007 .285 12.609 .285 12.609 13.632 .007 13.632"/>
  </defs>
  <g fill="none" fill-rule="evenodd">
    <mask id="phone_icon-b" fill="#fff">
      <use xlink:href="#phone_icon-a"/>
    </mask>
    <path fill="#DEDEDE" d="M4.50790588,1.88950588 C4.40484706,1.88950588 4.30037647,1.9248 4.20014118,2.01091765 C3.45755294,2.6928 1.67590588,4.3248 1.55308235,5.3568 C0.858494118,7.66785882 3.12578824,12.1219765 7.0392,16.3106824 C10.9314353,20.4753882 15.1893176,23.0236235 17.4029647,22.5097412 C18.0255529,22.4631529 19.0406118,22.0142118 21.0128471,20.0391529 C21.1455529,19.9233882 21.1921412,19.8344471 21.1963765,19.7313882 C21.2020235,19.5732706 21.1088471,19.3869176 20.9380235,19.2146824 L17.6500235,15.6231529 C17.4820235,15.4551529 17.0274353,15.4749176 16.9229647,15.5695059 L14.5977882,17.7168 L14.1827294,17.5473882 C10.6872,16.1172706 7.40061176,12.6302118 6.18508235,9.06974118 L6.03825882,8.63491765 L8.35072941,6.50174118 C8.46367059,6.38597647 8.56955294,5.89044706 8.36908235,5.65609412 L5.05284706,2.19021176 C4.90602353,2.02362353 4.70978824,1.88950588 4.50790588,1.88950588 M16.7210824,24.0005647 C13.5022588,24.0005647 9.02696471,20.5064471 6.0072,17.2735059 C2.68390588,13.7172706 -0.837035294,8.38785882 0.178023529,5.06597647 C0.336141176,3.63868235 2.24061176,1.89232941 3.26272941,0.954917647 C4.10978824,0.226447059 5.31825882,0.354917647 6.09331765,1.23727059 L9.4152,4.7088 C10.1450824,5.55868235 9.96155294,6.88291765 9.32767059,7.51821176 L7.67872941,9.04150588 C8.82367059,11.9539765 11.4594353,14.7450353 14.3083765,16.0622118 L15.9460235,14.5516235 C16.2312,14.2650353 16.7041412,14.0885647 17.2236706,14.0885647 C17.7883765,14.0885647 18.3149647,14.2932706 18.6707294,14.6490353 L21.9573176,18.2405647 C22.3907294,18.6711529 22.6293176,19.2288 22.6067294,19.7864471 C22.5883765,20.2819765 22.3610824,20.7408 21.9714353,21.0753882 C20.7234353,22.3262118 19.0603765,23.8170353 17.6034353,23.9017412 C17.3224941,23.9680941 17.0274353,24.0005647 16.7210824,24.0005647" mask="url(#phone_icon-b)"/>
    <path fill="#DEDEDE" d="M17.9591488,12.5212127 C17.87757,13.2190037 16.6599314,13.1425927 16.7399994,12.3669489 C17.1463826,9.26437386 14.9528201,7.01385356 11.6201763,7.169559 C10.8074101,7.169559 10.8074101,6.00609334 11.5385976,6.00609334 C15.6840076,5.85182962 18.3670427,8.64299381 17.9591488,12.5212127"/>
    <g transform="translate(11)">
      <mask id="phone_icon-d" fill="#fff">
        <use xlink:href="#phone_icon-c"/>
      </mask>
      <path fill="#DEDEDE" d="M0.57052,1.3419 C-0.18128,1.4175 -0.18128,0.2877 0.57052,0.2877 C8.32932,0.1365 13.22512,5.4089 12.54752,13.1663 C12.47192,13.8453 11.41772,13.7697 11.49332,13.0165 C12.09392,6.0109 7.65172,1.2663 0.57052,1.3419" mask="url(#phone_icon-d)"/>
    </g>
    <path fill="#DEDEDE" d="M11.5609075,4.12192634 C10.8530402,4.12192634 10.7740633,3.00819319 11.5609075,3.00819319 C17.3042855,2.78461851 21.6319288,7.16640628 20.9240615,12.5114973 C20.8450846,13.2539861 19.7437951,13.1063164 19.8213095,12.3638276 C20.3726855,7.75984526 16.5964181,3.89835166 11.5609075,4.12192634"/>
  </g>
</svg>
