<svg version="1.1" id="Layer_1" xmlns="http://www.w3.org/2000/svg" xmlns:xlink="http://www.w3.org/1999/xlink" x="0px" y="0px"
	 viewBox="0 0 90 90" style="enable-background:new 0 0 90 90;" xml:space="preserve">
<g>
	<path fill="none" d="M59.43,18.31c0.46,0,0.84-0.38,0.84-0.84s-0.38-0.84-0.84-0.84s-0.84,0.38-0.84,0.84S58.96,18.31,59.43,18.31z
		"/>
	<path fill="none" d="M49.72,18.31c0.46,0,0.84-0.38,0.84-0.84s-0.38-0.84-0.84-0.84s-0.84,0.38-0.84,0.84S49.26,18.31,49.72,18.31z
		"/>
	<circle fill="none" cx="20.6" cy="17.47" r="0.84"/>
	<circle fill="none" cx="69.14" cy="17.47" r="0.84"/>
	<path fill="none" d="M40.02,18.31c0.46,0,0.84-0.38,0.84-0.84s-0.38-0.84-0.84-0.84s-0.84,0.38-0.84,0.84S39.55,18.31,40.02,18.31z
		"/>
	<rect x="20.91" y="4.65" fill="none" width="10.57" height="0.6"/>
	<path fill="none" d="M80.02,23.11v-3.73c0-5.44-4.43-9.87-9.87-9.87H55.9h-5.88H39.49h-5.88H19.6c-5.44,0-9.87,4.43-9.87,9.87v3.73
		H80.02z M69.14,14.06c1.88,0,3.41,1.53,3.41,3.41s-1.53,3.41-3.41,3.41s-3.41-1.53-3.41-3.41S67.26,14.06,69.14,14.06z
		 M59.43,14.06c1.88,0,3.41,1.53,3.41,3.41s-1.53,3.41-3.41,3.41c-1.88,0-3.41-1.53-3.41-3.41S57.55,14.06,59.43,14.06z
		 M49.72,14.06c1.88,0,3.41,1.53,3.41,3.41s-1.53,3.41-3.41,3.41c-1.88,0-3.41-1.53-3.41-3.41S47.84,14.06,49.72,14.06z
		 M40.02,14.06c1.88,0,3.41,1.53,3.41,3.41s-1.53,3.41-3.41,3.41c-1.88,0-3.41-1.53-3.41-3.41S38.14,14.06,40.02,14.06z
		 M30.31,14.06c1.88,0,3.41,1.53,3.41,3.41s-1.53,3.41-3.41,3.41c-1.88,0-3.41-1.53-3.41-3.41S28.43,14.06,30.31,14.06z M20.6,14.06
		c1.88,0,3.41,1.53,3.41,3.41s-1.53,3.41-3.41,3.41s-3.41-1.53-3.41-3.41S18.72,14.06,20.6,14.06z"/>
	<path fill="none" d="M65.6,84.13v0.4c0,0.04,0.04,0.09,0.09,0.09h4.95c0.04,0,0.09-0.05,0.09-0.09v-0.4c0-0.04-0.04-0.09-0.09-0.09
		h-0.5h-4.45C65.64,84.04,65.6,84.09,65.6,84.13z"/>
	<rect x="58.03" y="4.65" fill="none" width="10.57" height="0.6"/>
	<rect x="41.61" y="4.65" fill="none" width="6.29" height="0.6"/>
	<path fill="none" d="M30.31,18.31c0.46,0,0.84-0.38,0.84-0.84s-0.38-0.84-0.84-0.84s-0.84,0.38-0.84,0.84S29.85,18.31,30.31,18.31z
		"/>
	<path fill="none" d="M67.57,71.27c1.97,0,3.58-1.61,3.58-3.58V39.01c0-1.97-1.61-3.58-3.58-3.58h-45.4c-1.97,0-3.58,1.61-3.58,3.58
		v28.68c0,1.97,1.61,3.58,3.58,3.58H67.57z M34.36,38.64h21.1c1.17,0,2.13,0.95,2.13,2.13s-0.95,2.13-2.13,2.13h-21.1
		c-1.17,0-2.13-0.95-2.13-2.13S33.19,38.64,34.36,38.64z M22.94,54.1c0-4.32,3.51-7.83,7.83-7.83h28.19c4.32,0,7.83,3.51,7.83,7.83
		v7.51c0,4.32-3.51,7.83-7.83,7.83h-6.88c-0.13,0.03-0.27,0.04-0.42,0.04s-0.28-0.02-0.42-0.04H38.49
		c-0.13,0.03-0.27,0.04-0.42,0.04s-0.28-0.02-0.42-0.04h-6.88c-4.32,0-7.83-3.51-7.83-7.83V54.1z"/>
	<path fill="none" d="M18.59,84.13v0.4c0,0.05,0.04,0.09,0.09,0.09h4.95c0.05,0,0.09-0.04,0.09-0.09v-0.4
		c0-0.04-0.05-0.09-0.09-0.09H19.6h-0.92C18.63,84.04,18.59,84.09,18.59,84.13z"/>
	<path fill="none" d="M53.79,65.19h5.17c1.97,0,3.58-1.61,3.58-3.58V54.1c0-1.97-1.61-3.58-3.58-3.58h-5.17V65.19z"/>
	<path fill="none" d="M30.78,65.19h5.17V50.51h-5.17c-1.97,0-3.58,1.61-3.58,3.58v7.51C27.2,63.58,28.8,65.19,30.78,65.19z"/>
	<path fill="none" d="M27.9,85.23h33.52c-0.04-0.23-0.07-0.45-0.07-0.69v-0.4c0-0.03,0.01-0.06,0.01-0.09H27.96
		c0,0.03,0.01,0.06,0.01,0.09v0.4C27.97,84.78,27.94,85,27.9,85.23z"/>
	<path fill="none" d="M23.63,79.79h42.06h4.45c5.44,0,9.87-4.43,9.87-9.87V27.36H9.72v42.56c0,5.44,4.43,9.87,9.87,9.87H23.63z
		 M14.34,67.68V39.01c0-4.32,3.51-7.83,7.83-7.83h45.4c4.32,0,7.83,3.51,7.83,7.83v28.68c0,4.32-3.51,7.83-7.83,7.83h-45.4
		C17.85,75.52,14.34,72,14.34,67.68z"/>
	<rect x="40.2" y="50.51" fill="none" width="9.34" height="14.68"/>
	<path fill="#A38244" d="M67.57,75.52c4.32,0,7.83-3.51,7.83-7.83V39.01c0-4.32-3.51-7.83-7.83-7.83h-45.4c-4.32,0-7.83,3.51-7.83,7.83
		v28.68c0,4.32,3.51,7.83,7.83,7.83H67.57z M18.59,67.68V39.01c0-1.97,1.61-3.58,3.58-3.58h45.4c1.97,0,3.58,1.61,3.58,3.58v28.68
		c0,1.97-1.61,3.58-3.58,3.58h-45.4C20.19,71.27,18.59,69.66,18.59,67.68z"/>
	<path fill="#A38244" d="M30.78,69.44h6.88c0.13,0.03,0.27,0.04,0.42,0.04s0.28-0.02,0.42-0.04h12.76c0.13,0.03,0.27,0.04,0.42,0.04
		s0.28-0.02,0.42-0.04h6.88c4.32,0,7.83-3.51,7.83-7.83V54.1c0-4.32-3.51-7.83-7.83-7.83H30.78c-4.32,0-7.83,3.51-7.83,7.83v7.51
		C22.94,65.93,26.46,69.44,30.78,69.44z M40.2,65.19V50.51h9.34v14.68H40.2z M62.54,54.1v7.51c0,1.97-1.61,3.58-3.58,3.58h-5.17
		V50.51h5.17C60.94,50.51,62.54,52.12,62.54,54.1z M27.2,54.1c0-1.97,1.61-3.58,3.58-3.58h5.17v14.68h-5.17
		c-1.97,0-3.58-1.61-3.58-3.58V54.1z"/>
	<path fill="#A38244" d="M34.36,42.89h21.1c1.17,0,2.13-0.95,2.13-2.13s-0.95-2.13-2.13-2.13h-21.1c-1.17,0-2.13,0.95-2.13,2.13
		S33.19,42.89,34.36,42.89z"/>
	<path fill="#A38244" d="M20.6,20.88c1.88,0,3.41-1.53,3.41-3.41s-1.53-3.41-3.41-3.41s-3.41,1.53-3.41,3.41S18.72,20.88,20.6,20.88z
		 M20.6,16.63c0.46,0,0.84,0.38,0.84,0.84s-0.38,0.84-0.84,0.84s-0.84-0.38-0.84-0.84S20.14,16.63,20.6,16.63z"/>
	<path fill="#A38244" d="M30.31,20.88c1.88,0,3.41-1.53,3.41-3.41s-1.53-3.41-3.41-3.41c-1.88,0-3.41,1.53-3.41,3.41
		S28.43,20.88,30.31,20.88z M30.31,16.63c0.46,0,0.84,0.38,0.84,0.84s-0.38,0.84-0.84,0.84s-0.84-0.38-0.84-0.84
		S29.85,16.63,30.31,16.63z"/>
	<path fill="#A38244" d="M40.02,20.88c1.88,0,3.41-1.53,3.41-3.41s-1.53-3.41-3.41-3.41c-1.88,0-3.41,1.53-3.41,3.41
		S38.14,20.88,40.02,20.88z M40.02,16.63c0.46,0,0.84,0.38,0.84,0.84s-0.38,0.84-0.84,0.84s-0.84-0.38-0.84-0.84
		S39.55,16.63,40.02,16.63z"/>
	<path fill="#A38244" d="M49.72,20.88c1.88,0,3.41-1.53,3.41-3.41s-1.53-3.41-3.41-3.41c-1.88,0-3.41,1.53-3.41,3.41
		S47.84,20.88,49.72,20.88z M49.72,16.63c0.46,0,0.84,0.38,0.84,0.84s-0.38,0.84-0.84,0.84s-0.84-0.38-0.84-0.84
		S49.26,16.63,49.72,16.63z"/>
	<path fill="#A38244" d="M59.43,20.88c1.88,0,3.41-1.53,3.41-3.41s-1.53-3.41-3.41-3.41c-1.88,0-3.41,1.53-3.41,3.41
		S57.55,20.88,59.43,20.88z M59.43,16.63c0.46,0,0.84,0.38,0.84,0.84s-0.38,0.84-0.84,0.84s-0.84-0.38-0.84-0.84
		S58.96,16.63,59.43,16.63z"/>
	<path fill="#A38244" d="M69.14,20.88c1.88,0,3.41-1.53,3.41-3.41s-1.53-3.41-3.41-3.41s-3.41,1.53-3.41,3.41S67.26,20.88,69.14,20.88z
		 M69.14,16.63c0.46,0,0.84,0.38,0.84,0.84s-0.38,0.84-0.84,0.84s-0.84-0.38-0.84-0.84S68.67,16.63,69.14,16.63z"/>
	<path fill="#A38244" d="M82.71,85.23h-7.8c0.04-0.23,0.07-0.45,0.07-0.69v-0.4c0-0.32-0.04-0.63-0.1-0.92
		c5.46-1.95,9.39-7.17,9.39-13.29V19.38c0-6.86-4.92-12.59-11.42-13.86V2.52c0-1.17-0.95-2.13-2.13-2.13H55.9
		c-1.17,0-2.13,0.95-2.13,2.13v2.72h-1.62V2.52c0-1.17-0.95-2.13-2.13-2.13H39.49c-1.17,0-2.13,0.95-2.13,2.13v2.72h-1.62V2.52
		c0-1.17-0.95-2.13-2.13-2.13H18.79c-1.17,0-2.13,0.95-2.13,2.13v3.04C10.28,6.92,5.47,12.59,5.47,19.38v50.54
		c0,5.98,3.75,11.1,9.01,13.15c-0.09,0.34-0.15,0.69-0.15,1.06v0.4c0,0.24,0.03,0.46,0.07,0.69H6.49c-1.17,0-2.13,0.95-2.13,2.13
		s0.95,2.13,2.13,2.13h76.22c1.17,0,2.13-0.95,2.13-2.13S83.89,85.23,82.71,85.23z M70.64,84.04c0.04,0,0.09,0.04,0.09,0.09v0.4
		c0,0.04-0.04,0.09-0.09,0.09h-4.95c-0.04,0-0.09-0.05-0.09-0.09v-0.4c0-0.04,0.04-0.09,0.09-0.09h4.45H70.64z M58.03,4.65H68.6v0.6
		H58.03V4.65z M41.61,4.65h6.29v0.6h-6.29V4.65z M20.91,4.65h10.57v0.6H20.91V4.65z M19.6,9.5h14.01h5.88h10.54h5.88h14.24
		c5.44,0,9.87,4.43,9.87,9.87v3.73H9.72v-3.73C9.72,13.93,14.15,9.5,19.6,9.5z M9.72,69.92V27.36h70.29v42.56
		c0,5.44-4.43,9.87-9.87,9.87h-4.45H23.63H19.6C14.15,79.79,9.72,75.36,9.72,69.92z M23.63,84.04c0.04,0,0.09,0.04,0.09,0.09v0.4
		c0,0.05-0.04,0.09-0.09,0.09h-4.95c-0.05,0-0.09-0.04-0.09-0.09v-0.4c0-0.04,0.05-0.09,0.09-0.09h0.92H23.63z M27.96,84.04h33.39
		c0,0.03-0.01,0.06-0.01,0.09v0.4c0,0.24,0.03,0.46,0.07,0.69H27.9c0.04-0.23,0.07-0.45,0.07-0.69v-0.4
		C27.97,84.1,27.96,84.08,27.96,84.04z"/>
</g>
</svg>
