<svg xmlns="http://www.w3.org/2000/svg" xmlns:xlink="http://www.w3.org/1999/xlink" width="23" height="24" viewBox="0 0 23 24">
  <defs>
    <polygon id="placemakers-green-a" points="0 .528 22.472 .528 22.472 23 0 23"/>
  </defs>
  <g fill="none" fill-rule="evenodd">
    <path fill="#4E878F" d="M11.2359,4.6939 C15.3949,4.6939 18.7779,8.0779 18.7779,12.2359 C18.7779,16.3949 15.3949,19.7789 11.2359,19.7789 C7.0769,19.7789 3.6939,16.3949 3.6939,12.2359 C3.6939,8.0779 7.0769,4.6939 11.2359,4.6939 M11.2359,1.6829 C5.4079,1.6829 0.6829,6.4079 0.6829,12.2359 C0.6829,18.0639 5.4079,22.7899 11.2359,22.7899 C17.0649,22.7899 21.7889,18.0639 21.7889,12.2359 C21.7889,6.4079 17.0649,1.6829 11.2359,1.6829"/>
    <g transform="translate(0 .472)">
      <mask id="placemakers-green-b" fill="#fff">
        <use xlink:href="#placemakers-green-a"/>
      </mask>
      <path fill="#4E878F" d="M11.2359,22.9998 C5.0409,22.9998 -0.0001,17.9598 -0.0001,11.7638 C-0.0001,5.5678 5.0409,0.5278 11.2359,0.5278 C17.4319,0.5278 22.4719,5.5678 22.4719,11.7638 C22.4719,17.9598 17.4319,22.9998 11.2359,22.9998 M11.2359,0.7978 C5.1899,0.7978 0.2699,5.7168 0.2699,11.7638 C0.2699,17.8108 5.1899,22.7288 11.2359,22.7288 C17.2829,22.7288 22.2019,17.8108 22.2019,11.7638 C22.2019,5.7168 17.2829,0.7978 11.2359,0.7978" mask="url(#placemakers-green-b)"/>
    </g>
    <path fill="#FFF" d="M2.0689 12.6314C2.0639 12.5034 2.1629 12.3934 2.2929 12.3884 2.4199 12.3824 2.5319 12.4834 2.5369 12.6124 2.5429 12.7424 2.4419 12.8514 2.3119 12.8564 2.1829 12.8614 2.0739 12.7604 2.0689 12.6314M2.8545 11.4634C2.8715 11.3414 2.8425 11.3084 2.7305 11.2904L2.0655 11.1884C1.9585 11.1714 1.9255 11.1924 1.9045 11.3174L1.8395 11.3074C1.8585 11.2244 1.8725 11.1594 1.8795 11.1094 1.8945 11.0104 1.8995 10.9154 1.9135 10.8304 1.9585 10.5344 2.0655 10.4014 2.2395 10.4294 2.3705 10.4484 2.4415 10.5624 2.4385 10.7604 2.5035 10.5304 2.6145 10.4164 2.7845 10.4424 2.9735 10.4724 3.0505 10.6484 3.0025 10.9624 2.9895 11.0504 2.9655 11.1484 2.9485 11.2574 2.9385 11.3224 2.9305 11.3954 2.9235 11.4744L2.8545 11.4634zM2.3805 10.9434C2.4045 10.7854 2.3535 10.7174 2.2025 10.6934 2.0785 10.6744 2.0085 10.7304 1.9885 10.8624 1.9795 10.9154 1.9855 10.9214 2.0095 10.9254L2.3735 10.9814C2.3755 10.9684 2.3785 10.9554 2.3805 10.9434L2.3805 10.9434zM2.7195 11.0344C2.8505 11.0554 2.9065 11.0334 2.9205 10.9384 2.9395 10.8174 2.8735 10.7464 2.7215 10.7234 2.5645 10.6984 2.4835 10.7674 2.4565 10.9404 2.4545 10.9554 2.4515 10.9734 2.4505 10.9924L2.7195 11.0344zM2.3555 9.8911C2.2215 9.8491 2.1775 9.8531 2.1285 9.9791L2.0685 9.9601C2.1015 9.8691 2.1305 9.7811 2.1555 9.7021 2.1835 9.6171 2.2105 9.5241 2.2385 9.4211L2.3005 9.4411C2.2675 9.5711 2.2935 9.6051 2.4225 9.6461L2.8245 9.7741C3.0525 9.8471 3.1705 9.8131 3.2345 9.6121 3.2725 9.4951 3.2625 9.3931 3.2125 9.3281 3.1625 9.2621 3.0805 9.2271 2.9625 9.1901L2.6065 9.0771C2.4855 9.0371 2.4325 9.0541 2.3855 9.1631L2.3285 9.1461C2.3495 9.0891 2.3705 9.0301 2.3915 8.9641 2.4155 8.8891 2.4335 8.8261 2.4455 8.7781L2.5055 8.7971C2.4835 8.9101 2.5155 8.9541 2.6345 8.9931L2.9895 9.1061C3.1235 9.1491 3.2225 9.1931 3.2875 9.2771 3.3655 9.3781 3.3795 9.5261 3.3235 9.7021 3.2725 9.8641 3.1975 9.9691 3.0835 10.0271 2.9945 10.0721 2.8835 10.0601 2.7325 10.0121L2.3555 9.8911zM3.5137 8.9234C3.5677 8.7994 3.5477 8.7694 3.4347 8.7164L2.8397 8.4374C2.7397 8.3904 2.7007 8.3934 2.6507 8.5004 2.6477 8.5054 2.6467 8.5094 2.6437 8.5154L2.5837 8.4874C2.6307 8.3934 2.6727 8.3074 2.7087 8.2314 2.7457 8.1504 2.7857 8.0634 2.8257 7.9704L2.8857 7.9984C2.8827 8.0044 2.8797 8.0104 2.8777 8.0154 2.8347 8.1074 2.8567 8.1544 2.9507 8.1984L3.5467 8.4784C3.6537 8.5284 3.6997 8.5164 3.7557 8.4064L3.8147 8.4344C3.7567 8.5504 3.7147 8.6354 3.6887 8.6904 3.6557 8.7604 3.6167 8.8484 3.5727 8.9504L3.5137 8.9234zM3.8384 8.2261C3.8414 8.2211 3.8434 8.2191 3.8454 8.2141 3.9024 8.1221 3.8824 8.0781 3.7794 8.0141L3.2084 7.6621C3.1254 7.6101 3.0814 7.6221 3.0244 7.7141 3.0244 7.7151 3.0224 7.7181 3.0204 7.7211L2.9644 7.6871C3.0234 7.5991 3.0744 7.5201 3.1164 7.4511 3.1484 7.4001 3.1964 7.3171 3.2604 7.2081L3.3164 7.2421C3.3144 7.2451 3.3124 7.2471 3.3114 7.2501 3.2494 7.3491 3.2604 7.3901 3.3514 7.4471L3.8564 7.7581C3.9944 7.8431 4.0594 7.8361 4.1464 7.6971 4.2414 7.5421 4.2294 7.4201 4.1024 7.3041L4.1374 7.2471 4.4094 7.4231C4.3234 7.5611 4.2344 7.7011 4.1464 7.8441 4.0764 7.9581 3.9934 8.0981 3.8964 8.2611L3.8384 8.2261zM4.4488 7.2505C4.5258 7.1565 4.5198 7.1175 4.4298 7.0415L3.9278 6.6195C3.8388 6.5445 3.7988 6.5335 3.7158 6.6335L3.6658 6.5915C3.7078 6.5465 3.7498 6.4965 3.7898 6.4485 3.8488 6.3795 3.9048 6.3075 3.9608 6.2405 4.2398 5.9095 4.5398 5.8675 4.8238 6.1075 4.9518 6.2155 5.0168 6.3425 5.0208 6.4885 5.0238 6.6415 4.9528 6.7585 4.8328 6.9005 4.7708 6.9745 4.7048 7.0445 4.6398 7.1215 4.5958 7.1735 4.5518 7.2305 4.5008 7.2945L4.4488 7.2505zM4.7978 6.8135C4.9198 6.6685 4.8608 6.5105 4.6248 6.3135 4.3708 6.0995 4.1948 6.0795 4.0238 6.2805 3.9948 6.3155 3.9928 6.3355 4.0168 6.3545L4.5738 6.8235C4.6618 6.8985 4.7238 6.9015 4.7978 6.8135L4.7978 6.8135zM5.3038 6.271C5.4058 6.18 5.3848 6.132 5.2768 6.01L4.8798 5.561C4.8038 5.475 4.7508 5.465 4.6708 5.536 4.6678 5.54 4.6648 5.542 4.6608 5.544L4.6188 5.498C4.7088 5.427 4.7938 5.356 4.8748 5.285 4.9608 5.209 5.1008 5.083 5.2898 4.904L5.4778 5.117 5.4278 5.161C5.2798 5.054 5.2038 5.091 5.0468 5.229 4.9868 5.283 4.9808 5.292 5.0118 5.327L5.2488 5.594C5.2558 5.587 5.2628 5.582 5.2688 5.576 5.3648 5.492 5.3698 5.426 5.2998 5.307L5.3498 5.261C5.3918 5.318 5.4378 5.373 5.4848 5.426 5.5398 5.488 5.5918 5.542 5.6398 5.589L5.5918 5.632C5.4828 5.545 5.4128 5.548 5.3138 5.636 5.3088 5.641 5.3038 5.645 5.2978 5.65L5.4908 5.868C5.5668 5.954 5.6368 5.95 5.7338 5.864 5.8758 5.739 5.9018 5.642 5.8038 5.478L5.8478 5.438 6.0668 5.684C5.8798 5.84 5.7318 5.972 5.6178 6.073 5.5938 6.094 5.5708 6.115 5.5458 6.136 5.4768 6.198 5.4088 6.257 5.3488 6.322L5.3038 6.271zM6.1514 5.5259C6.2644 5.4519 6.2724 5.4079 6.2044 5.3029L5.8344 4.7429C5.7764 4.6539 5.7394 4.6489 5.6224 4.7239L5.5864 4.6699C5.6584 4.6269 5.7164 4.5879 5.7644 4.5559 5.8504 4.4999 5.9404 4.4339 6.0404 4.3689 6.2904 4.2039 6.4584 4.1939 6.5644 4.3529 6.6434 4.4739 6.6184 4.6099 6.4884 4.7309 6.5374 4.7219 6.6024 4.7499 6.6974 4.7859L6.9504 4.8829C7.0234 4.9119 7.0854 4.9149 7.1344 4.8889L7.1684 4.9389C7.1344 4.9579 7.0754 4.9949 6.9914 5.0489 6.9564 5.0729 6.9224 5.0959 6.8894 5.1209L6.4654 4.9519C6.3784 4.9169 6.3264 4.8979 6.2754 4.9319 6.2714 4.9339 6.2684 4.9379 6.2624 4.9419L6.4164 5.1739C6.4794 5.2689 6.5274 5.2779 6.6234 5.2139 6.6264 5.2139 6.6274 5.2129 6.6304 5.2109L6.6674 5.2669C6.5154 5.3639 6.4144 5.4279 6.3644 5.4619 6.3134 5.4959 6.2534 5.5349 6.1884 5.5829L6.1514 5.5259zM6.2684 4.8509C6.4094 4.7579 6.4364 4.6569 6.3504 4.5269 6.2624 4.3929 6.1634 4.3769 6.0334 4.4629 5.9844 4.4959 5.9784 4.5099 6.0074 4.5549L6.2214 4.8799C6.2384 4.8709 6.2554 4.8599 6.2684 4.8509L6.2684 4.8509zM7.1856 4.7593C7.1556 4.6963 7.1256 4.6403 7.0996 4.5933L7.1666 4.5613C7.2916 4.7143 7.4206 4.7603 7.5506 4.6973 7.6616 4.6423 7.6986 4.5483 7.6516 4.4523 7.6036 4.3553 7.5146 4.3533 7.3566 4.3583 7.1256 4.3653 6.9916 4.3323 6.9136 4.1703 6.8316 4.0033 6.8966 3.8363 7.0726 3.7503 7.1686 3.7033 7.2536 3.6883 7.3476 3.7103L7.3346 3.6393 7.4026 3.6063C7.4436 3.6893 7.4896 3.7803 7.5426 3.8773L7.4776 3.9093C7.3806 3.7843 7.2476 3.7523 7.1256 3.8123 7.0376 3.8553 7.0086 3.9383 7.0456 4.0133 7.0856 4.0963 7.1606 4.0923 7.2886 4.0893 7.5616 4.0823 7.7186 4.0953 7.8076 4.2753 7.8976 4.4623 7.8216 4.6533 7.6096 4.7563 7.5016 4.8093 7.4086 4.8233 7.3016 4.7893L7.3186 4.8693 7.2496 4.9033C7.2306 4.8553 7.2086 4.8073 7.1856 4.7593M8.8824 4.2524C8.7334 4.2894 8.6114 4.2254 8.5784 4.0924 8.5464 3.9654 8.6104 3.8374 8.7654 3.6884 8.6744 3.6064 8.6174 3.5244 8.5974 3.4424 8.5584 3.2854 8.6504 3.1394 8.8064 3.1004 8.9514 3.0644 9.0704 3.1334 9.0994 3.2514 9.1254 3.3564 9.0864 3.4584 8.9794 3.5604 9.0544 3.6194 9.1414 3.6834 9.2404 3.7524 9.3194 3.5274 9.3604 3.3984 9.4974 3.3644 9.5914 3.3414 9.6644 3.3844 9.6844 3.4664 9.7024 3.5384 9.6644 3.6004 9.5914 3.6184 9.5454 3.6304 9.5044 3.6204 9.4794 3.5894 9.4584 3.5634 9.4634 3.5184 9.4274 3.5264 9.3894 3.5364 9.3694 3.6324 9.3104 3.7974 9.4444 3.8824 9.5284 3.9284 9.6104 3.9074 9.6674 3.8944 9.7064 3.8564 9.7314 3.7944L9.7984 3.8244C9.7384 3.9784 9.6564 4.0604 9.5244 4.0934 9.4254 4.1174 9.3194 4.0904 9.2024 4.0134 9.1124 4.1424 9.0094 4.2214 8.8824 4.2524M8.9604 3.2954C8.9364 3.2004 8.8784 3.1554 8.8144 3.1714 8.7564 3.1864 8.7244 3.2424 8.7394 3.3034 8.7584 3.3774 8.8204 3.4384 8.9194 3.5134 8.9634 3.4414 8.9764 3.3594 8.9604 3.2954M8.8204 3.7434C8.7684 3.8004 8.7494 3.8714 8.7664 3.9434 8.7914 4.0434 8.8974 4.1104 8.9864 4.0884 9.0514 4.0714 9.1014 4.0314 9.1294 3.9744 9.0494 3.9324 8.9454 3.8564 8.8204 3.7434M10.5562 3.8491C10.6702 3.8381 10.6982 3.8101 10.6962 3.7151L10.6792 3.0181C10.6772 2.9171 10.6532 2.8941 10.5332 2.8881L10.5322 2.8251C10.5982 2.8281 10.6582 2.8271 10.7082 2.8261 10.7762 2.8241 10.8682 2.8191 10.9872 2.8161 11.3292 2.8071 11.4942 2.8841 11.5002 3.0931 11.5052 3.3041 11.3512 3.4041 11.0242 3.4121 10.9992 3.4121 10.9732 3.4121 10.9452 3.4121L10.9522 3.7011C10.9542 3.8061 10.9882 3.8391 11.1092 3.8361 11.1122 3.8351 11.1162 3.8351 11.1182 3.8351L11.1202 3.9021C11.0232 3.9021 10.9002 3.9031 10.7472 3.9071 10.6732 3.9091 10.6102 3.9101 10.5582 3.9151L10.5562 3.8491zM10.9872 3.3321C11.1592 3.3281 11.2262 3.2601 11.2232 3.0951 11.2192 2.9591 11.1482 2.8891 11.0182 2.8931 10.9532 2.8941 10.9322 2.9031 10.9332 2.9381L10.9422 3.3321C10.9572 3.3331 10.9722 3.3331 10.9872 3.3321L10.9872 3.3321zM11.6905 3.8345C11.6945 3.8355 11.6985 3.8355 11.7035 3.8365 11.8115 3.8485 11.8435 3.8115 11.8565 3.6905L11.9315 3.0235C11.9415 2.9275 11.9115 2.8935 11.8055 2.8815 11.8035 2.8815 11.8005 2.8805 11.7975 2.8805L11.8045 2.8155C11.9085 2.8305 12.0025 2.8425 12.0825 2.8525 12.1425 2.8585 12.2375 2.8675 12.3635 2.8785L12.3565 2.9425C12.3525 2.9415 12.3495 2.9415 12.3465 2.9415 12.2305 2.9285 12.1975 2.9555 12.1865 3.0625L12.1205 3.6515C12.1025 3.8135 12.1365 3.8685 12.2995 3.8865 12.4795 3.9065 12.5845 3.8435 12.6355 3.6805L12.7015 3.6875 12.6585 4.0085C12.4975 3.9885 12.3345 3.9695 12.1665 3.9495 12.0325 3.9355 11.8715 3.9205 11.6825 3.9025L11.6905 3.8345zM12.7613 3.9565C12.8403 3.9695 12.8973 3.9425 12.9493 3.8735L13.5583 3.0795 13.6363 3.1005 13.7613 4.0795C13.7733 4.1695 13.7983 4.2165 13.8873 4.2455L13.8713 4.3105C13.7803 4.2835 13.6903 4.2585 13.6003 4.2355 13.5113 4.2125 13.4213 4.1905 13.3293 4.1705L13.3453 4.1065C13.4443 4.1265 13.4853 4.1295 13.4983 4.0785 13.5033 4.0585 13.5053 4.0135 13.4983 3.9515L13.4883 3.8595 13.1363 3.7695 13.0933 3.8235C13.0553 3.8725 13.0363 3.9165 13.0323 3.9335 13.0163 3.9935 13.0503 4.0305 13.1383 4.0535L13.1213 4.1175C13.0563 4.0975 12.9923 4.0785 12.9293 4.0625 12.8683 4.0475 12.8073 4.0325 12.7443 4.0195L12.7613 3.9565zM13.4773 3.7745L13.4333 3.3735 13.1893 3.7005 13.4773 3.7745zM15.0547 4.3843L14.9087 4.7343 14.8467 4.7083 14.8497 4.6093C14.7167 4.6433 14.5967 4.6353 14.4767 4.5853 14.1737 4.4583 14.0527 4.1633 14.1777 3.8633 14.2307 3.7363 14.3097 3.6393 14.4157 3.5753 14.5767 3.4803 14.7527 3.4673 14.9297 3.5413 15.0457 3.5893 15.1287 3.6603 15.1837 3.7583L15.2447 3.6853 15.3107 3.7123 15.1847 4.0393 15.1217 4.0133C15.1457 3.8273 15.0797 3.6923 14.9487 3.6373 14.7657 3.5603 14.5707 3.6743 14.4527 3.9563 14.3357 4.2383 14.3887 4.4433 14.5757 4.5213 14.7267 4.5843 14.8707 4.5293 14.9927 4.3573L15.0547 4.3843zM15.1177 4.772C15.2347 4.842 15.2747 4.807 15.3567 4.668L15.6637 4.152C15.7227 4.053 15.7157 4.001 15.6247 3.946 15.6197 3.943 15.6177 3.942 15.6137 3.939L15.6447 3.885C15.7397 3.948 15.8327 4.007 15.9267 4.063 16.0257 4.122 16.1877 4.216 16.4147 4.342L16.2697 4.586 16.2127 4.552C16.2687 4.378 16.2107 4.317 16.0317 4.21 15.9617 4.168 15.9507 4.167 15.9277 4.208L15.7447 4.513C15.7537 4.519 15.7617 4.524 15.7687 4.528 15.8787 4.593 15.9427 4.578 16.0347 4.474L16.0927 4.509C16.0517 4.566 16.0137 4.626 15.9777 4.687 15.9347 4.758 15.8997 4.825 15.8687 4.885L15.8127 4.852C15.8627 4.721 15.8397 4.657 15.7247 4.588 15.7197 4.585 15.7137 4.582 15.7067 4.578L15.5587 4.827C15.4997 4.926 15.5247 4.992 15.6357 5.058 15.7997 5.156 15.8987 5.15 16.0257 5.006L16.0767 5.038 15.9087 5.321C15.7027 5.19 15.5327 5.089 15.4017 5.011 15.3737 4.995 15.3477 4.979 15.3197 4.962 15.2407 4.916 15.1617 4.869 15.0827 4.831L15.1177 4.772zM16.1065 5.355C16.2045 5.433 16.2605 5.396 16.3665 5.269L16.8035 4.75C16.8055 4.705 16.7785 4.663 16.7275 4.616L16.7665 4.57C16.7985 4.604 16.8385 4.637 16.8835 4.674 16.9405 4.722 16.9985 4.769 17.0595 4.815L16.8175 5.597 17.5315 5.212C17.5685 5.248 17.6055 5.281 17.6445 5.313 17.6995 5.36 17.7625 5.409 17.8335 5.463L17.7925 5.512C17.6865 5.424 17.6435 5.44 17.5655 5.533L17.1405 6.04C17.0715 6.122 17.0745 6.166 17.1705 6.252L17.1285 6.302C17.0375 6.219 16.9625 6.152 16.9015 6.101 16.8525 6.06 16.7885 6.008 16.7065 5.946L16.7485 5.896C16.8625 5.975 16.8885 5.957 16.9635 5.868L17.3455 5.412 16.5645 5.825 16.5065 5.776 16.7805 4.91 16.4325 5.325C16.3275 5.45 16.3045 5.515 16.3965 5.6L16.3535 5.651C16.2855 5.588 16.2395 5.545 16.2105 5.521 16.1725 5.489 16.1235 5.451 16.0635 5.406L16.1065 5.355zM17.2462 6.3374C17.3032 6.3934 17.3652 6.4034 17.4472 6.3784L18.4012 6.0794 18.4542 6.1414 17.9922 7.0134C17.9502 7.0934 17.9432 7.1464 17.9992 7.2224L17.9492 7.2654C17.8902 7.1914 17.8302 7.1184 17.7702 7.0484 17.7102 6.9784 17.6492 6.9084 17.5862 6.8394L17.6372 6.7964C17.7052 6.8694 17.7382 6.8954 17.7782 6.8614 17.7942 6.8484 17.8212 6.8124 17.8502 6.7574L17.8952 6.6764 17.6602 6.3994 17.5932 6.4204C17.5352 6.4384 17.4942 6.4624 17.4802 6.4744 17.4332 6.5144 17.4392 6.5644 17.4982 6.6334L17.4482 6.6764C17.4062 6.6224 17.3642 6.5704 17.3222 6.5224 17.2812 6.4734 17.2392 6.4264 17.1952 6.3804L17.2462 6.3374zM17.9352 6.6024L18.1302 6.2484 17.7422 6.3744 17.9352 6.6024zM18.0728 7.311C18.1398 7.415 18.1818 7.42 18.2738 7.365L18.8558 7.014C18.9468 6.958 18.9588 6.914 18.9008 6.81L18.9518 6.779C18.9928 6.857 19.0398 6.937 19.0908 7.021 19.1328 7.09 19.1798 7.166 19.2338 7.246L19.1798 7.278C19.1768 7.274 19.1758 7.271 19.1738 7.268 19.1168 7.174 19.0688 7.182 18.9658 7.245L18.6618 7.428 18.8848 7.467C19.0878 7.504 19.2028 7.517 19.2418 7.495 19.2768 7.473 19.2738 7.43 19.2328 7.364L19.2858 7.332C19.3298 7.416 19.3688 7.486 19.4008 7.539 19.4318 7.589 19.4648 7.638 19.4998 7.685L19.4468 7.717C19.3968 7.641 19.3378 7.618 19.2448 7.602L18.9408 7.55 18.7008 8.171C18.6728 8.242 18.6718 8.296 18.6958 8.339L18.6358 8.374C18.5798 8.272 18.5348 8.196 18.5028 8.141 18.4538 8.061 18.4038 7.981 18.3528 7.906L18.4108 7.871C18.4148 7.876 18.4188 7.883 18.4228 7.889 18.4538 7.942 18.4878 7.959 18.5138 7.944 18.5248 7.937 18.5438 7.917 18.5538 7.888L18.7078 7.508 18.5668 7.486 18.4128 7.579C18.3158 7.637 18.2898 7.661 18.3588 7.784L18.3008 7.819C18.2688 7.758 18.2238 7.679 18.1648 7.582 18.1048 7.483 18.0558 7.404 18.0138 7.345L18.0728 7.311zM18.7452 8.4448C18.8002 8.5698 18.8522 8.5638 19.0012 8.4998L19.5502 8.2588C19.6562 8.2138 19.6822 8.1668 19.6392 8.0688 19.6372 8.0638 19.6352 8.0608 19.6332 8.0558L19.6912 8.0308C19.7312 8.1378 19.7722 8.2398 19.8162 8.3398 19.8622 8.4448 19.9382 8.6168 20.0502 8.8508L19.7902 8.9648 19.7642 8.9038C19.9112 8.7958 19.8992 8.7118 19.8152 8.5198 19.7832 8.4458 19.7762 8.4388 19.7322 8.4568L19.4062 8.5998C19.4102 8.6088 19.4132 8.6178 19.4172 8.6258 19.4682 8.7428 19.5292 8.7678 19.6642 8.7368L19.6912 8.7988C19.6242 8.8208 19.5582 8.8478 19.4932 8.8768 19.4172 8.9098 19.3502 8.9428 19.2902 8.9748L19.2642 8.9158C19.3812 8.8378 19.3992 8.7708 19.3462 8.6498 19.3432 8.6438 19.3412 8.6368 19.3382 8.6308L19.0722 8.7468C18.9662 8.7928 18.9482 8.8608 19.0002 8.9788 19.0762 9.1528 19.1602 9.2068 19.3462 9.1648L19.3702 9.2188 19.0692 9.3508C18.9772 9.1258 18.8982 8.9438 18.8372 8.8048 18.8242 8.7748 18.8112 8.7468 18.7992 8.7168 18.7622 8.6318 18.7252 8.5488 18.6832 8.4718L18.7452 8.4448zM19.1934 9.482C19.2294 9.614 19.2694 9.634 19.3894 9.602L20.0374 9.423C20.1404 9.395 20.1564 9.362 20.1214 9.227L20.1834 9.211C20.2024 9.293 20.2214 9.36 20.2364 9.415 20.2634 9.514 20.2974 9.62 20.3294 9.735 20.4094 10.024 20.3664 10.188 20.1824 10.239 20.0434 10.276 19.9204 10.211 19.8454 10.049 19.8394 10.099 19.7934 10.152 19.7294 10.232L19.5584 10.442C19.5074 10.503 19.4864 10.561 19.4954 10.616L19.4374 10.631C19.4304 10.595 19.4134 10.527 19.3864 10.43 19.3754 10.389 19.3644 10.349 19.3504 10.31L19.6424 9.96C19.7034 9.887 19.7364 9.844 19.7204 9.785 19.7194 9.78 19.7164 9.776 19.7154 9.769L19.4454 9.843C19.3364 9.874 19.3134 9.918 19.3434 10.028 19.3444 10.031 19.3444 10.033 19.3454 10.036L19.2794 10.054C19.2354 9.879 19.2054 9.763 19.1894 9.706 19.1724 9.646 19.1534 9.577 19.1284 9.501L19.1934 9.482zM19.7994 9.803C19.8444 9.965 19.9324 10.023 20.0824 9.981 20.2374 9.939 20.2834 9.85 20.2424 9.701 20.2264 9.642 20.2144 9.632 20.1624 9.646L19.7874 9.75C19.7904 9.769 19.7964 9.788 19.7994 9.803L19.7994 9.803zM19.6011 10.6987C19.6701 10.6887 19.7331 10.6777 19.7851 10.6687L19.7951 10.7417C19.6101 10.8127 19.5271 10.9217 19.5471 11.0637 19.5631 11.1857 19.6411 11.2507 19.7471 11.2357 19.8551 11.2207 19.8841 11.1367 19.9291 10.9857 19.9931 10.7637 20.0671 10.6467 20.2451 10.6227 20.4281 10.5977 20.5661 10.7117 20.5931 10.9057 20.6081 11.0107 20.5971 11.0957 20.5461 11.1787L20.6181 11.1887 20.6281 11.2637C20.5371 11.2767 20.4351 11.2927 20.3271 11.3117L20.3171 11.2397C20.4651 11.1857 20.5381 11.0697 20.5191 10.9367 20.5061 10.8397 20.4361 10.7867 20.3531 10.7987 20.2611 10.8097 20.2421 10.8817 20.2051 11.0047 20.1261 11.2657 20.0651 11.4117 19.8671 11.4387 19.6611 11.4677 19.5041 11.3357 19.4721 11.1017 19.4551 10.9827 19.4711 10.8887 19.5371 10.7997L19.4551 10.7907 19.4451 10.7157C19.4971 10.7117 19.5481 10.7057 19.6011 10.6987M20.4014 12.6431C20.3954 12.7711 20.2874 12.8721 20.1574 12.8661 20.0294 12.8601 19.9274 12.7491 19.9334 12.6211 19.9394 12.4911 20.0494 12.3921 20.1794 12.3981 20.3084 12.4041 20.4074 12.5141 20.4014 12.6431M1.7842 14.1529C1.8202 14.2599 1.8542 14.2819 1.9472 14.2579L2.6222 14.0869C2.7202 14.0609 2.7382 14.0329 2.7162 13.9159L2.7772 13.8989C2.7892 13.9659 2.8042 14.0229 2.8162 14.0719 2.8332 14.1379 2.8592 14.2269 2.8882 14.3409 2.9722 14.6739 2.9342 14.8519 2.7312 14.9029 2.5272 14.9559 2.3962 14.8279 2.3152 14.5099 2.3092 14.4869 2.3022 14.4609 2.2972 14.4329L2.0172 14.5049C1.9152 14.5309 1.8902 14.5699 1.9202 14.6879 1.9212 14.6919 1.9222 14.6949 1.9232 14.6979L1.8582 14.7149C1.8382 14.6189 1.8082 14.4989 1.7712 14.3509 1.7522 14.2789 1.7372 14.2179 1.7192 14.1689L1.7842 14.1529zM2.3842 14.4569C2.4262 14.6229 2.5082 14.6739 2.6682 14.6329 2.8002 14.5999 2.8522 14.5139 2.8202 14.3889 2.8042 14.3259 2.7912 14.3069 2.7562 14.3159L2.3742 14.4139C2.3762 14.4279 2.3802 14.4429 2.3842 14.4569L2.3842 14.4569zM2.0411 15.1655C2.0761 15.2365 2.1311 15.2685 2.2181 15.2705L3.2181 15.3025 3.2471 15.3775 2.5231 16.0495C2.4581 16.1115 2.4341 16.1595 2.4621 16.2495L2.4001 16.2725C2.3691 16.1845 2.3361 16.0965 2.3031 16.0105 2.2701 15.9245 2.2341 15.8385 2.1971 15.7515L2.2591 15.7275C2.3001 15.8195 2.3221 15.8545 2.3711 15.8365 2.3911 15.8285 2.4281 15.8035 2.4741 15.7615L2.5421 15.6995 2.4111 15.3605 2.3421 15.3575C2.2811 15.3555 2.2331 15.3655 2.2171 15.3715 2.1601 15.3945 2.1491 15.4435 2.1821 15.5285L2.1201 15.5525C2.0991 15.4875 2.0761 15.4255 2.0521 15.3645 2.0291 15.3055 2.0051 15.2475 1.9791 15.1895L2.0411 15.1655zM2.6051 15.6425L2.9061 15.3725 2.4981 15.3635 2.6051 15.6425zM2.6978 16.4976C2.7588 16.4646 2.8128 16.4326 2.8588 16.4036L2.8938 16.4696C2.7478 16.6016 2.7088 16.7316 2.7778 16.8576 2.8368 16.9666 2.9328 16.9986 3.0268 16.9466 3.1218 16.8946 3.1188 16.8066 3.1058 16.6476 3.0868 16.4186 3.1138 16.2826 3.2718 16.1966 3.4328 16.1066 3.6028 16.1636 3.6978 16.3356 3.7488 16.4296 3.7688 16.5136 3.7508 16.6076L3.8218 16.5906 3.8588 16.6576C3.7778 16.7026 3.6888 16.7526 3.5938 16.8096L3.5588 16.7466C3.6788 16.6436 3.7048 16.5096 3.6398 16.3916 3.5918 16.3056 3.5088 16.2806 3.4348 16.3216 3.3538 16.3656 3.3608 16.4396 3.3708 16.5676 3.3908 16.8396 3.3868 16.9966 3.2108 17.0936 3.0288 17.1936 2.8348 17.1266 2.7208 16.9206 2.6638 16.8156 2.6438 16.7236 2.6738 16.6146L2.5938 16.6366 2.5578 16.5686C2.6048 16.5466 2.6508 16.5226 2.6978 16.4976M4.1377 17.2612C4.1247 17.2402 4.1127 17.2242 4.0997 17.2062 3.9957 17.0642 3.9107 17.0352 3.7557 17.1152L3.7177 17.0622 3.9777 16.8882C4.0507 16.9982 4.1317 17.1142 4.2207 17.2352 4.3567 17.4222 4.4817 17.5902 4.5947 17.7382L4.3517 17.9332 4.3147 17.8822C4.4327 17.7612 4.4357 17.6652 4.3377 17.5312 4.3237 17.5112 4.3067 17.4902 4.2887 17.4702L3.6397 17.9432C3.5567 18.0022 3.5557 18.0472 3.6307 18.1562L3.5767 18.1952C3.5247 18.1152 3.4717 18.0402 3.4217 17.9712 3.3777 17.9102 3.3147 17.8262 3.2327 17.7232L3.2867 17.6842C3.3677 17.7852 3.4057 17.7942 3.4877 17.7342L4.1377 17.2612zM3.8999 18.5747C3.8769 18.5627 3.8579 18.5487 3.8439 18.5307 3.7919 18.4707 3.8009 18.4037 3.8629 18.3507 3.9199 18.3027 4.0009 18.3097 4.0509 18.3697 4.1109 18.4397 4.0959 18.5347 4.0019 18.6137 3.8759 18.7207 3.7299 18.7267 3.5519 18.6347L3.5769 18.5837C3.7129 18.6427 3.8199 18.6407 3.8999 18.5747M4.647 19.2788C4.739 19.3458 4.779 19.3438 4.84 19.2708L5.292 18.7398C5.356 18.6628 5.355 18.6298 5.269 18.5458L5.31 18.4978C5.357 18.5448 5.403 18.5828 5.441 18.6158 5.493 18.6598 5.566 18.7168 5.656 18.7938 5.917 19.0138 5.989 19.1818 5.854 19.3408 5.718 19.5028 5.537 19.4738 5.288 19.2628 5.269 19.2468 5.248 19.2288 5.228 19.2108L5.041 19.4298C4.973 19.5098 4.976 19.5568 5.068 19.6358L5.076 19.6418 5.033 19.6928C4.96 19.6278 4.868 19.5468 4.752 19.4488 4.695 19.3998 4.647 19.3588 4.604 19.3298L4.647 19.2788zM5.312 19.1788C5.442 19.2908 5.539 19.2848 5.646 19.1588 5.734 19.0548 5.727 18.9558 5.627 18.8718 5.578 18.8298 5.557 18.8218 5.534 18.8488L5.279 19.1498C5.289 19.1608 5.3 19.1698 5.312 19.1788L5.312 19.1788zM5.6368 20.0913C5.7528 20.1643 5.7958 20.1533 5.8628 20.0473L6.2198 19.4803C6.2768 19.3903 6.2668 19.3543 6.1498 19.2793L6.1838 19.2243C6.2538 19.2723 6.3128 19.3093 6.3608 19.3393 6.4488 19.3943 6.5448 19.4483 6.6458 19.5133 6.8988 19.6723 6.9778 19.8213 6.8758 19.9843 6.7988 20.1063 6.6638 20.1403 6.5008 20.0703 6.5288 20.1123 6.5308 20.1823 6.5368 20.2833L6.5528 20.5543C6.5558 20.6333 6.5798 20.6903 6.6228 20.7243L6.5908 20.7763C6.5608 20.7533 6.5028 20.7143 6.4178 20.6603 6.3828 20.6383 6.3468 20.6153 6.3108 20.5973L6.2898 20.1413C6.2858 20.0463 6.2828 19.9923 6.2298 19.9593 6.2258 19.9573 6.2208 19.9553 6.2158 19.9523L6.0668 20.1883C6.0058 20.2833 6.0178 20.3323 6.1158 20.3933 6.1178 20.3953 6.1198 20.3963 6.1218 20.3983L6.0858 20.4553C5.9358 20.3573 5.8348 20.2913 5.7838 20.2593 5.7318 20.2263 5.6718 20.1893 5.6008 20.1493L5.6368 20.0913zM6.3008 19.9203C6.4438 20.0103 6.5468 19.9923 6.6298 19.8613 6.7148 19.7253 6.6898 19.6283 6.5578 19.5453 6.5068 19.5143 6.4908 19.5153 6.4628 19.5603L6.2558 19.8893C6.2708 19.9013 6.2868 19.9113 6.3008 19.9203L6.3008 19.9203zM6.8482 20.8257C6.9722 20.8817 7.0082 20.8427 7.0742 20.6937L7.3192 20.1467C7.3662 20.0427 7.3542 19.9907 7.2572 19.9467 7.2522 19.9447 7.2492 19.9427 7.2442 19.9417L7.2702 19.8837C7.3712 19.9357 7.4712 19.9837 7.5702 20.0287 7.6752 20.0757 7.8472 20.1507 8.0862 20.2507L7.9712 20.5097 7.9102 20.4807C7.9462 20.3027 7.8812 20.2487 7.6912 20.1627 7.6172 20.1297 7.6062 20.1287 7.5872 20.1717L7.4412 20.4967C7.4502 20.5007 7.4592 20.5047 7.4662 20.5087 7.5832 20.5607 7.6442 20.5387 7.7242 20.4257L7.7862 20.4527C7.7522 20.5137 7.7212 20.5777 7.6922 20.6427 7.6582 20.7187 7.6302 20.7877 7.6072 20.8517L7.5482 20.8257C7.5822 20.6897 7.5512 20.6277 7.4302 20.5737 7.4242 20.5707 7.4182 20.5677 7.4102 20.5647L7.2922 20.8297C7.2452 20.9337 7.2772 20.9977 7.3952 21.0507 7.5682 21.1277 7.6662 21.1107 7.7762 20.9547L7.8302 20.9787 7.6962 21.2787C7.4772 21.1737 7.2962 21.0927 7.1572 21.0307 7.1282 21.0167 7.1002 21.0047 7.0702 20.9907 6.9862 20.9537 6.9032 20.9167 6.8202 20.8877L6.8482 20.8257zM8.0674 21.2368C8.0884 21.1708 8.1054 21.1098 8.1174 21.0568L8.1894 21.0798C8.1754 21.2778 8.2384 21.3988 8.3764 21.4408 8.4944 21.4768 8.5854 21.4338 8.6174 21.3318 8.6494 21.2278 8.5854 21.1658 8.4654 21.0608 8.2924 20.9098 8.2174 20.7938 8.2704 20.6218 8.3244 20.4448 8.4854 20.3668 8.6734 20.4248 8.7754 20.4558 8.8484 20.5018 8.9014 20.5828L8.9414 20.5218 9.0134 20.5448C8.9864 20.6328 8.9584 20.7308 8.9304 20.8378L8.8604 20.8158C8.8744 20.6598 8.7994 20.5448 8.6714 20.5058 8.5764 20.4758 8.4994 20.5168 8.4744 20.5968 8.4474 20.6858 8.5044 20.7338 8.6004 20.8198 8.8034 21.0008 8.9104 21.1168 8.8514 21.3088 8.7904 21.5078 8.6044 21.5938 8.3794 21.5248 8.2644 21.4898 8.1864 21.4368 8.1314 21.3388L8.0894 21.4088 8.0164 21.3858C8.0344 21.3378 8.0514 21.2888 8.0674 21.2368M9.0826 21.6372C9.2166 21.6602 9.2416 21.6142 9.2696 21.4542L9.3746 20.8642C9.3946 20.7502 9.3706 20.7032 9.2646 20.6852 9.2606 20.6842 9.2566 20.6842 9.2516 20.6832L9.2636 20.6202C9.3736 20.6472 9.4816 20.6692 9.5886 20.6882 9.7016 20.7082 9.8876 20.7402 10.1436 20.7772L10.0936 21.0562 10.0286 21.0442C10.0196 20.8622 9.9446 20.8252 9.7386 20.7882 9.6586 20.7752 9.6486 20.7762 9.6406 20.8232L9.5786 21.1732C9.5876 21.1752 9.5976 21.1772 9.6046 21.1782 9.7306 21.2002 9.7856 21.1642 9.8346 21.0342L9.9016 21.0472C9.8826 21.1142 9.8686 21.1842 9.8566 21.2542 9.8416 21.3352 9.8326 21.4092 9.8246 21.4782L9.7616 21.4662C9.7616 21.3252 9.7166 21.2742 9.5856 21.2502 9.5796 21.2492 9.5726 21.2482 9.5646 21.2462L9.5146 21.5332C9.4946 21.6462 9.5406 21.6992 9.6686 21.7212 9.8546 21.7542 9.9456 21.7142 10.0136 21.5352L10.0726 21.5462 10.0156 21.8692C9.7766 21.8212 9.5826 21.7862 9.4326 21.7602 9.4006 21.7542 9.3706 21.7482 9.3386 21.7432 9.2476 21.7272 9.1576 21.7112 9.0706 21.7032L9.0826 21.6372zM10.3819 21.8482C10.5059 21.8372 10.5309 21.7862 10.5349 21.6562L10.5529 20.9742 10.5349 20.9492C10.5019 20.9062 10.4659 20.8902 10.3979 20.8852L10.4009 20.8222C10.4449 20.8282 10.4979 20.8292 10.5589 20.8312 10.6109 20.8322 10.6739 20.8342 10.7439 20.8312L11.3699 21.5882 11.3829 21.1042C11.3869 20.9692 11.3509 20.9132 11.2379 20.9092L11.2389 20.8452C11.3169 20.8502 11.3789 20.8542 11.4259 20.8562 11.4679 20.8572 11.5329 20.8572 11.6259 20.8562L11.6229 20.9192C11.4979 20.9242 11.4729 20.9782 11.4689 21.1152L11.4449 21.9652 11.3549 21.9622 10.6399 21.0782 10.6239 21.6592C10.6199 21.7912 10.6639 21.8542 10.7669 21.8592L10.7659 21.9252C10.6569 21.9172 10.5759 21.9152 10.5229 21.9132 10.4709 21.9122 10.4239 21.9122 10.3799 21.9162L10.3819 21.8482zM12.2208 20.8784C12.1968 20.8804 12.1758 20.8834 12.1548 20.8854 11.9798 20.9074 11.9138 20.9694 11.9088 21.1434L11.8438 21.1504 11.8168 20.8394C11.9488 20.8284 12.0878 20.8124 12.2378 20.7934 12.4678 20.7634 12.6748 20.7344 12.8588 20.7064L12.9128 21.0134 12.8498 21.0224C12.8018 20.8584 12.7188 20.8114 12.5528 20.8324 12.5288 20.8364 12.5038 20.8404 12.4758 20.8464L12.5788 21.6434C12.5918 21.7444 12.6308 21.7674 12.7618 21.7534L12.7698 21.8184C12.6748 21.8264 12.5838 21.8364 12.4988 21.8474 12.4258 21.8574 12.3208 21.8724 12.1918 21.8944L12.1828 21.8274C12.3108 21.8054 12.3368 21.7764 12.3238 21.6764L12.2208 20.8784zM14.2339 21.4878C14.0889 21.5408 13.9619 21.4888 13.9149 21.3608 13.8699 21.2378 13.9199 21.1038 14.0579 20.9398 13.9589 20.8688 13.8939 20.7928 13.8639 20.7138 13.8089 20.5608 13.8849 20.4058 14.0359 20.3508 14.1749 20.2998 14.3009 20.3548 14.3429 20.4688 14.3799 20.5718 14.3519 20.6768 14.2559 20.7898 14.3379 20.8408 14.4309 20.8938 14.5369 20.9528 14.5899 20.7198 14.6179 20.5888 14.7499 20.5398 14.8409 20.5068 14.9189 20.5428 14.9469 20.6208 14.9729 20.6908 14.9419 20.7568 14.8709 20.7818 14.8259 20.7988 14.7839 20.7928 14.7559 20.7648 14.7329 20.7418 14.7329 20.6958 14.6979 20.7088 14.6619 20.7218 14.6519 20.8188 14.6099 20.9898 14.7519 21.0598 14.8419 21.0958 14.9209 21.0678 14.9749 21.0478 15.0109 21.0068 15.0279 20.9418L15.0989 20.9648C15.0549 21.1238 14.9829 21.2148 14.8549 21.2608 14.7589 21.2958 14.6509 21.2798 14.5259 21.2158 14.4499 21.3528 14.3579 21.4428 14.2339 21.4878M14.2099 20.5288C14.1759 20.4368 14.1129 20.3978 14.0509 20.4208 13.9949 20.4418 13.9699 20.5008 13.9909 20.5598 14.0179 20.6318 14.0849 20.6838 14.1919 20.7488 14.2279 20.6738 14.2319 20.5918 14.2099 20.5288M14.1189 20.9878C14.0719 21.0508 14.0609 21.1238 14.0869 21.1928 14.1219 21.2888 14.2339 21.3448 14.3199 21.3128 14.3819 21.2908 14.4279 21.2448 14.4489 21.1848 14.3659 21.1508 14.2549 21.0868 14.1189 20.9878M16.0064 20.6196C16.1244 20.5386 16.1174 20.4946 16.0434 20.3806L15.7074 19.8566C15.6404 19.7526 15.5954 19.7396 15.4854 19.8076L15.4494 19.7526C15.5684 19.6836 15.6994 19.6006 15.8484 19.5056 15.9764 19.4236 16.0974 19.3446 16.2074 19.2666L16.3694 19.5016 16.3134 19.5366C16.1994 19.4116 16.0984 19.4336 15.9104 19.5556 15.8534 19.5916 15.8434 19.6086 15.8694 19.6496L16.0614 19.9486C16.0694 19.9436 16.0764 19.9386 16.0844 19.9336 16.1884 19.8676 16.2074 19.7896 16.1534 19.6726L16.2124 19.6346C16.2564 19.7066 16.2964 19.7706 16.3334 19.8286 16.3804 19.9016 16.4214 19.9626 16.4514 20.0086L16.3934 20.0456C16.3024 19.9406 16.2334 19.9256 16.1264 19.9936 16.1184 19.9986 16.1114 20.0056 16.1014 20.0116L16.2554 20.2506C16.3264 20.3616 16.3534 20.3896 16.4934 20.3076L16.5294 20.3626C16.4794 20.3896 16.4194 20.4256 16.3514 20.4696 16.1804 20.5796 16.0784 20.6466 16.0424 20.6756L16.0064 20.6196zM16.629 19.2779C16.537 19.1709 16.498 19.1519 16.39 19.2319L16.349 19.1849C16.425 19.1239 16.496 19.0649 16.559 19.0109 16.627 18.9539 16.7 18.8889 16.777 18.8169L16.819 18.8659C16.723 18.9589 16.728 19.0019 16.816 19.1039L17.089 19.4249C17.245 19.6079 17.363 19.6419 17.524 19.5049 17.617 19.4249 17.663 19.3329 17.655 19.2519 17.647 19.1699 17.595 19.0959 17.515 19.0029L17.273 18.7179C17.19 18.6209 17.136 18.6069 17.038 18.6749L16.999 18.6309C17.047 18.5929 17.096 18.5529 17.148 18.5089 17.209 18.4579 17.258 18.4139 17.293 18.3799L17.334 18.4269C17.256 18.5109 17.259 18.5669 17.34 18.6619L17.582 18.9459C17.673 19.0529 17.734 19.1419 17.745 19.2479 17.758 19.3749 17.692 19.5069 17.551 19.6289 17.422 19.7379 17.303 19.7889 17.176 19.7779 17.076 19.7679 16.989 19.7009 16.886 19.5799L16.629 19.2779zM17.7466 18.0034C17.7296 18.0214 17.7156 18.0364 17.7026 18.0524 17.5866 18.1864 17.5786 18.2754 17.6906 18.4084L17.6486 18.4574 17.4196 18.2434C17.5106 18.1494 17.6036 18.0424 17.7016 17.9284 17.8526 17.7524 17.9886 17.5924 18.1056 17.4474L18.3516 17.6404 18.3106 17.6884C18.1656 17.6004 18.0716 17.6194 17.9626 17.7454 17.9476 17.7644 17.9316 17.7854 17.9146 17.8074L18.5246 18.3314C18.6026 18.3984 18.6466 18.3894 18.7346 18.2914L18.7856 18.3354C18.7196 18.4044 18.6586 18.4724 18.6026 18.5374 18.5546 18.5944 18.4866 18.6754 18.4046 18.7774L18.3536 18.7344C18.4336 18.6324 18.4346 18.5944 18.3566 18.5274L17.7466 18.0034zM18.5181 17.3032C18.3981 17.2292 18.3541 17.2232 18.2771 17.3332L18.2231 17.2992C18.2771 17.2192 18.3271 17.1412 18.3711 17.0712 18.4171 16.9952 18.4671 16.9112 18.5181 16.8202L18.5741 16.8532C18.5111 16.9702 18.5281 17.0102 18.6431 17.0802L19.0011 17.3032C19.2051 17.4292 19.3281 17.4252 19.4381 17.2462 19.5031 17.1412 19.5181 17.0402 19.4871 16.9652 19.4541 16.8892 19.3821 16.8352 19.2771 16.7712L18.9601 16.5742C18.8511 16.5062 18.7961 16.5102 18.7241 16.6052L18.6731 16.5742C18.7071 16.5242 18.7421 16.4712 18.7781 16.4132 18.8201 16.3462 18.8531 16.2882 18.8761 16.2452L18.9301 16.2792C18.8811 16.3822 18.9001 16.4342 19.0071 16.4992L19.3241 16.6962C19.4441 16.7702 19.5291 16.8362 19.5711 16.9332 19.6221 17.0512 19.6011 17.1982 19.5031 17.3552 19.4141 17.4992 19.3151 17.5832 19.1911 17.6122 19.0941 17.6332 18.9901 17.5952 18.8541 17.5122L18.5181 17.3032zM19.8951 16.4859C19.9481 16.3609 19.9301 16.3199 19.8151 16.2709L19.1961 16.0109C19.0981 15.9689 19.0641 15.9859 19.0091 16.1129L18.9491 16.0889C18.9851 16.0109 19.0121 15.9469 19.0341 15.8949 19.0751 15.7989 19.1131 15.6959 19.1601 15.5859 19.2761 15.3089 19.4101 15.2079 19.5861 15.2819 19.7191 15.3389 19.7751 15.4649 19.7331 15.6369 19.7691 15.6029 19.8381 15.5899 19.9371 15.5669L20.2011 15.5069C20.2791 15.4909 20.3311 15.4589 20.3581 15.4099L20.4141 15.4329C20.3961 15.4659 20.3681 15.5299 20.3291 15.6229 20.3121 15.6619 20.2961 15.7009 20.2841 15.7389L19.8371 15.8339C19.7451 15.8529 19.6911 15.8659 19.6681 15.9229 19.6661 15.9269 19.6661 15.9319 19.6631 15.9389L19.9201 16.0469C20.0241 16.0899 20.0691 16.0709 20.1141 15.9649L20.1181 15.9579 20.1801 15.9839C20.1071 16.1479 20.0591 16.2579 20.0361 16.3139 20.0121 16.3709 19.9841 16.4359 19.9571 16.5119L19.8951 16.4859zM19.6171 15.8589C19.6831 15.7049 19.6491 15.6049 19.5051 15.5449 19.3571 15.4829 19.2671 15.5229 19.2061 15.6669 19.1831 15.7219 19.1871 15.7379 19.2361 15.7579L19.5941 15.9099C19.6031 15.8919 19.6111 15.8749 19.6171 15.8589L19.6171 15.8589zM20.4229 15.1704C20.4579 15.0384 20.4139 15.0104 20.2569 14.9684L19.6769 14.8154C19.5659 14.7854 19.5159 14.8064 19.4889 14.9094 19.4879 14.9134 19.4869 14.9174 19.4859 14.9214L19.4239 14.9054C19.4599 14.7974 19.4909 14.6914 19.5189 14.5864 19.5479 14.4764 19.5949 14.2934 19.6529 14.0404L19.9279 14.1124 19.9109 14.1774C19.7279 14.1704 19.6859 14.2424 19.6319 14.4454 19.6109 14.5244 19.6119 14.5334 19.6569 14.5464L20.0019 14.6374C20.0049 14.6284 20.0069 14.6184 20.0089 14.6104 20.0419 14.4864 20.0099 14.4304 19.8849 14.3694L19.9019 14.3044C19.9679 14.3284 20.0369 14.3484 20.1059 14.3664 20.1859 14.3874 20.2589 14.4024 20.3259 14.4164L20.3099 14.4794C20.1699 14.4674 20.1139 14.5074 20.0799 14.6364 20.0779 14.6434 20.0759 14.6494 20.0739 14.6564L20.3549 14.7314C20.4659 14.7604 20.5229 14.7184 20.5559 14.5934 20.6049 14.4094 20.5719 14.3154 20.3999 14.2334L20.4149 14.1754 20.7339 14.2594C20.6649 14.4924 20.6139 14.6844 20.5749 14.8314 20.5669 14.8624 20.5589 14.8924 20.5499 14.9234 20.5269 15.0134 20.5039 15.1014 20.4889 15.1874L20.4229 15.1704z"/>
    <path fill="#FFF" d="M11.2349,4.5708 C7.0039,4.5708 3.5719,8.0038 3.5719,12.2348 C3.5719,16.4688 7.0039,19.9008 11.2349,19.9008 C15.4699,19.9008 18.9009,16.4688 18.9009,12.2348 C18.9009,8.0038 15.4699,4.5708 11.2349,4.5708 M11.2349,19.6148 C7.1619,19.6148 3.8589,16.3108 3.8589,12.2348 C3.8589,8.1628 7.1619,4.8588 11.2349,4.8588 C15.3099,4.8588 18.6119,8.1628 18.6119,12.2348 C18.6119,16.3108 15.3099,19.6148 11.2349,19.6148"/>
    <path fill="#4E878F" d="M16.5616,12.7681 C16.6006,12.6851 16.6326,12.5861 16.6636,12.4701 C16.6916,12.3571 16.7066,12.2121 16.7066,12.0411 C16.7066,11.8071 16.6666,11.5901 16.5906,11.3921 C16.5096,11.1931 16.4026,11.0231 16.2656,10.8801 C16.1286,10.7391 15.9666,10.6281 15.7776,10.5501 C15.5886,10.4721 15.3836,10.4331 15.1646,10.4331 C14.8266,10.4331 14.5586,10.5351 14.3566,10.7371 C14.2686,10.8281 14.1886,10.9401 14.1146,11.0681 C14.0886,10.9551 14.0556,10.8501 14.0076,10.7541 C13.9436,10.6201 13.8886,10.5081 13.8436,10.4221 L13.4126,9.5961 C13.3496,9.4781 13.2936,9.3581 13.2396,9.2341 C13.1886,9.1091 13.1536,8.9841 13.1356,8.8601 C13.1186,8.7341 13.1256,8.6121 13.1606,8.4881 C13.1926,8.3651 13.2646,8.2471 13.3746,8.1371 C13.5146,8.0001 13.6556,7.9131 13.8056,7.8811 C13.9516,7.8471 14.0956,7.8461 14.2366,7.8771 C14.3786,7.9091 14.5116,7.9631 14.6336,8.0411 C14.7576,8.1201 14.8616,8.2001 14.9436,8.2831 C15.0926,8.4311 15.1966,8.5871 15.2546,8.7551 C15.3136,8.9211 15.3386,9.0881 15.3306,9.2561 C15.3206,9.4251 15.2846,9.5921 15.2186,9.7581 C15.1526,9.9241 15.0686,10.0801 14.9636,10.2241 L15.0256,10.2871 L15.9666,9.3471 L15.8946,9.2731 C15.8176,9.2951 15.7646,9.3041 15.7356,9.3001 C15.7096,9.2971 15.6736,9.2721 15.6286,9.2281 C15.5816,9.1781 15.5426,9.1221 15.5176,9.0531 C15.4906,8.9871 15.4616,8.9101 15.4296,8.8251 C15.3946,8.7411 15.3486,8.6481 15.2886,8.5451 C15.2276,8.4421 15.1366,8.3311 15.0156,8.2101 C14.8506,8.0431 14.6686,7.9191 14.4736,7.8331 C14.2786,7.7481 14.0826,7.7061 13.8836,7.7021 C13.6866,7.6981 13.4946,7.7371 13.3056,7.8131 C13.1166,7.8901 12.9456,8.0081 12.7906,8.1631 C12.5516,8.4021 12.4336,8.6641 12.4346,8.9501 C12.4346,9.0761 12.4566,9.2111 12.4946,9.3531 C12.3976,9.2931 12.2996,9.2421 12.1986,9.2061 C12.0556,9.1571 11.9386,9.1191 11.8456,9.0881 L10.9586,8.8111 C10.8306,8.7721 10.7036,8.7261 10.5796,8.6751 C10.4546,8.6231 10.3416,8.5601 10.2406,8.4851 C10.1416,8.4091 10.0596,8.3151 9.9946,8.2041 C9.9326,8.0941 9.8996,7.9611 9.8996,7.8041 C9.8996,7.6091 9.9406,7.4471 10.0206,7.3211 C10.1006,7.1931 10.2046,7.0891 10.3266,7.0121 C10.4476,6.9331 10.5796,6.8771 10.7226,6.8471 C10.8636,6.8151 10.9946,6.7991 11.1116,6.7991 C11.3216,6.7991 11.5066,6.8361 11.6666,6.9131 C11.8236,6.9891 11.9606,7.0881 12.0736,7.2131 C12.1866,7.3381 12.2786,7.4841 12.3486,7.6481 C12.4196,7.8111 12.4706,7.9831 12.5006,8.1581 L12.5866,8.1581 L12.5866,6.8291 L12.4846,6.8291 C12.4456,6.8961 12.4156,6.9401 12.3936,6.9581 C12.3716,6.9731 12.3286,6.9821 12.2646,6.9821 C12.1956,6.9821 12.1286,6.9681 12.0636,6.9381 C11.9966,6.9081 11.9216,6.8771 11.8386,6.8391 C11.7556,6.8021 11.6556,6.7701 11.5416,6.7411 C11.4246,6.7101 11.2836,6.6971 11.1116,6.6971 C10.8776,6.6971 10.6606,6.7351 10.4616,6.8131 C10.2656,6.8921 10.0926,6.9991 9.9526,7.1361 C9.8106,7.2741 9.6996,7.4381 9.6206,7.6251 C9.5436,7.8131 9.5036,8.0191 9.5036,8.2391 C9.5036,8.5761 9.6056,8.8451 9.8076,9.0461 C9.8976,9.1341 10.0106,9.2131 10.1366,9.2881 C10.0266,9.3141 9.9206,9.3471 9.8246,9.3931 C9.6896,9.4591 9.5796,9.5141 9.4926,9.5601 L8.6666,9.9901 C8.5486,10.0531 8.4276,10.1111 8.3026,10.1641 C8.1786,10.2131 8.0536,10.2501 7.9296,10.2661 C7.8046,10.2841 7.6796,10.2761 7.5576,10.2441 C7.4356,10.2091 7.3176,10.1381 7.2076,10.0271 C7.0706,9.8881 6.9846,9.7471 6.9516,9.5991 C6.9186,9.4521 6.9166,9.3071 6.9486,9.1651 C6.9786,9.0241 7.0336,8.8911 7.1116,8.7691 C7.1896,8.6461 7.2696,8.5421 7.3526,8.4591 C7.5016,8.3111 7.6596,8.2061 7.8256,8.1481 C7.9916,8.0891 8.1586,8.0631 8.3276,8.0731 C8.4946,8.0811 8.6606,8.1191 8.8266,8.1841 C8.9936,8.2491 9.1476,8.3341 9.2936,8.4391 L9.3566,8.3751 L8.4166,7.4381 L8.3436,7.5101 C8.3646,7.5851 8.3746,7.6361 8.3706,7.6641 C8.3656,7.6931 8.3426,7.7291 8.2976,7.7741 C8.2506,7.8221 8.1906,7.8611 8.1226,7.8861 C8.0556,7.9111 7.9796,7.9401 7.8956,7.9741 C7.8096,8.0071 7.7176,8.0541 7.6156,8.1141 C7.5136,8.1741 7.4006,8.2671 7.2816,8.3871 C7.1136,8.5521 6.9886,8.7341 6.9046,8.9291 C6.8186,9.1231 6.7746,9.3221 6.7706,9.5181 C6.7686,9.7161 6.8056,9.9101 6.8836,10.0971 C6.9596,10.2871 7.0786,10.4571 7.2336,10.6141 C7.4726,10.8531 7.7336,10.9711 8.0206,10.9691 C8.1466,10.9681 8.2816,10.9471 8.4246,10.9071 C8.3636,11.0061 8.3126,11.1031 8.2766,11.2031 C8.2286,11.3451 8.1896,11.4631 8.1606,11.5571 L7.8796,12.4471 C7.8416,12.5741 7.7976,12.6991 7.7456,12.8221 C7.6926,12.9481 7.6296,13.0601 7.5536,13.1611 C7.4776,13.2631 7.3856,13.3431 7.2756,13.4081 C7.1656,13.4701 7.0306,13.5011 6.8756,13.5011 C6.6796,13.5011 6.5186,13.4621 6.3906,13.3821 C6.2636,13.2991 6.1606,13.2001 6.0816,13.0771 C6.0046,12.9551 5.9496,12.8211 5.9176,12.6791 C5.8846,12.5381 5.8686,12.4091 5.8686,12.2911 C5.8686,12.0811 5.9076,11.8961 5.9836,11.7361 C6.0586,11.5771 6.1596,11.4421 6.2836,11.3291 C6.4086,11.2161 6.5526,11.1251 6.7186,11.0531 C6.8816,10.9841 7.0516,10.9321 7.2276,10.9051 L7.2276,10.8151 L5.8986,10.8151 L5.8986,10.9171 C5.9666,10.9571 6.0106,10.9871 6.0266,11.0091 C6.0446,11.0311 6.0536,11.0751 6.0536,11.1381 C6.0536,11.2061 6.0376,11.2751 6.0106,11.3401 C5.9786,11.4061 5.9466,11.4811 5.9086,11.5641 C5.8736,11.6461 5.8396,11.7471 5.8106,11.8611 C5.7816,11.9761 5.7656,12.1201 5.7656,12.2911 C5.7656,12.5271 5.8056,12.7431 5.8836,12.9401 C5.9606,13.1391 6.0696,13.3101 6.2066,13.4521 C6.3456,13.5921 6.5076,13.7041 6.6956,13.7821 C6.8836,13.8591 7.0876,13.8991 7.3096,13.8991 C7.6456,13.8991 7.9156,13.7971 8.1176,13.5941 C8.2056,13.5031 8.2846,13.3921 8.3586,13.2651 C8.3836,13.3751 8.4176,13.4821 8.4646,13.5781 C8.5286,13.7131 8.5846,13.8251 8.6306,13.9111 L9.0616,14.7371 C9.1226,14.8541 9.1826,14.9751 9.2316,15.1011 C9.2836,15.2251 9.3186,15.3491 9.3356,15.4741 C9.3536,15.5981 9.3466,15.7221 9.3136,15.8431 C9.2806,15.9671 9.2086,16.0851 9.0976,16.1951 C8.9596,16.3321 8.8156,16.4191 8.6686,16.4521 C8.5226,16.4851 8.3786,16.4861 8.2366,16.4551 C8.0936,16.4241 7.9596,16.3701 7.8376,16.2911 C7.7156,16.2131 7.6126,16.1321 7.5306,16.0501 C7.3806,15.9011 7.2756,15.7441 7.2186,15.5781 C7.1586,15.4121 7.1336,15.2441 7.1426,15.0781 C7.1506,14.9091 7.1876,14.7411 7.2536,14.5751 C7.3206,14.4101 7.4046,14.2541 7.5076,14.1081 L7.4466,14.0461 L6.5076,14.9851 L6.5796,15.0581 C6.6566,15.0371 6.7076,15.0291 6.7346,15.0321 C6.7636,15.0361 6.7976,15.0611 6.8456,15.1051 C6.8926,15.1531 6.9296,15.2111 6.9566,15.2781 C6.9826,15.3451 7.0126,15.4231 7.0456,15.5061 C7.0766,15.5921 7.1236,15.6861 7.1846,15.7881 C7.2456,15.8891 7.3346,16.0001 7.4566,16.1211 C7.6226,16.2891 7.8046,16.4141 7.9986,16.4991 C8.1946,16.5831 8.3916,16.6281 8.5886,16.6321 C8.7856,16.6341 8.9786,16.5991 9.1666,16.5191 C9.3566,16.4421 9.5286,16.3251 9.6856,16.1701 C9.9236,15.9311 10.0406,15.6671 10.0386,15.3831 C10.0386,15.2571 10.0166,15.1221 9.9786,14.9801 C10.0756,15.0391 10.1746,15.0911 10.2756,15.1241 C10.4166,15.1741 10.5346,15.2141 10.6256,15.2431 L11.5146,15.5221 C11.6426,15.5621 11.7696,15.6071 11.8946,15.6571 C12.0176,15.7091 12.1316,15.7731 12.2306,15.8491 C12.3316,15.9251 12.4146,16.0181 12.4776,16.1261 C12.5426,16.2371 12.5736,16.3721 12.5736,16.5281 C12.5736,16.7241 12.5316,16.8851 12.4516,17.0121 C12.3716,17.1391 12.2696,17.2421 12.1466,17.3211 C12.0246,17.3981 11.8926,17.4551 11.7496,17.4861 C11.6096,17.5171 11.4796,17.5321 11.3606,17.5321 C11.1506,17.5321 10.9656,17.4971 10.8056,17.4201 C10.6476,17.3431 10.5126,17.2441 10.3996,17.1191 C10.2856,16.9941 10.1946,16.8501 10.1246,16.6851 C10.0536,16.5201 10.0026,16.3521 9.9746,16.1741 L9.8846,16.1741 L9.8846,17.5041 L9.9886,17.5041 C10.0276,17.4351 10.0576,17.3931 10.0806,17.3751 C10.1006,17.3591 10.1446,17.3501 10.2076,17.3501 C10.2766,17.3501 10.3456,17.3631 10.4106,17.3941 C10.4766,17.4241 10.5506,17.4561 10.6356,17.4941 C10.7176,17.5301 10.8166,17.5631 10.9326,17.5931 C11.0456,17.6221 11.1896,17.6351 11.3606,17.6351 C11.5956,17.6351 11.8126,17.5961 12.0116,17.5191 C12.2086,17.4411 12.3786,17.3321 12.5206,17.1951 C12.6636,17.0591 12.7726,16.8961 12.8526,16.7071 C12.9296,16.5181 12.9686,16.3141 12.9686,16.0941 C12.9686,15.7571 12.8676,15.4881 12.6656,15.2881 C12.5756,15.1981 12.4626,15.1191 12.3356,15.0441 C12.4476,15.0181 12.5526,14.9851 12.6466,14.9381 C12.7836,14.8741 12.8946,14.8171 12.9826,14.7731 L13.8066,14.3411 C13.9236,14.2801 14.0466,14.2231 14.1696,14.1711 C14.2936,14.1191 14.4186,14.0831 14.5436,14.0661 C14.6676,14.0491 14.7926,14.0571 14.9146,14.0901 C15.0386,14.1221 15.1546,14.1951 15.2656,14.3061 C15.4046,14.4431 15.4886,14.5871 15.5216,14.7331 C15.5566,14.8801 15.5566,15.0251 15.5236,15.1671 C15.4936,15.3091 15.4396,15.4421 15.3616,15.5641 C15.2836,15.6881 15.2026,15.7891 15.1196,15.8721 C14.9706,16.0211 14.8136,16.1251 14.6466,16.1851 C14.4826,16.2441 14.3136,16.2681 14.1446,16.2601 C13.9786,16.2511 13.8106,16.2151 13.6446,16.1491 C13.4786,16.0811 13.3226,15.9981 13.1776,15.8941 L13.1166,15.9561 L14.0556,16.8961 L14.1286,16.8241 C14.1086,16.7471 14.0986,16.6951 14.1036,16.6661 C14.1046,16.6391 14.1286,16.6041 14.1736,16.5591 C14.2246,16.5101 14.2816,16.4731 14.3486,16.4471 C14.4176,16.4191 14.4926,16.3921 14.5776,16.3581 C14.6626,16.3261 14.7556,16.2801 14.8566,16.2181 C14.9606,16.1591 15.0726,16.0661 15.1936,15.9451 C15.3586,15.7811 15.4846,15.5991 15.5696,15.4021 C15.6536,15.2071 15.6976,15.0111 15.7016,14.8131 C15.7056,14.6171 15.6676,14.4241 15.5906,14.2351 C15.5116,14.0461 15.3946,13.8741 15.2396,13.7191 C15.0016,13.4811 14.7396,13.3611 14.4536,13.3641 C14.3266,13.3641 14.1906,13.3861 14.0496,13.4241 C14.1086,13.3281 14.1606,13.2281 14.1966,13.1281 C14.2446,12.9861 14.2836,12.8691 14.3136,12.7761 L14.5916,11.8871 C14.6306,11.7591 14.6766,11.6321 14.7266,11.5091 C14.7786,11.3841 14.8426,11.2721 14.9186,11.1711 C14.9946,11.0711 15.0876,10.9911 15.1986,10.9251 C15.3066,10.8621 15.4416,10.8311 15.5976,10.8311 C15.7936,10.8311 15.9556,10.8711 16.0826,10.9511 C16.2096,11.0311 16.3136,11.1321 16.3906,11.2561 C16.4696,11.3781 16.5246,11.5111 16.5546,11.6531 C16.5886,11.7931 16.6036,11.9241 16.6036,12.0411 C16.6036,12.2521 16.5646,12.4361 16.4906,12.5961 C16.4146,12.7551 16.3136,12.8901 16.1896,13.0031 C16.0626,13.1161 15.9196,13.2071 15.7556,13.2791 C15.5916,13.3511 15.4216,13.4001 15.2456,13.4281 L15.2456,13.5171 L16.5736,13.5171 L16.5736,13.4141 C16.5066,13.3751 16.4626,13.3431 16.4466,13.3251 C16.4296,13.2991 16.4206,13.2571 16.4206,13.1931 C16.4206,13.1241 16.4346,13.0591 16.4646,12.9911 C16.4936,12.9261 16.5256,12.8521 16.5616,12.7681 L16.5616,12.7681 Z M12.9726,11.0891 C13.0366,10.9381 13.0756,10.7801 13.0936,10.6131 L13.1426,10.7071 C13.1946,10.8011 13.2396,10.9071 13.2846,11.0271 C13.3276,11.1451 13.3536,11.2691 13.3616,11.4011 C13.3676,11.4801 13.3586,11.5581 13.3466,11.6391 L12.9156,11.2081 C12.9366,11.1701 12.9566,11.1321 12.9726,11.0891 L12.9726,11.0891 Z M12.5376,10.8751 C12.5376,10.9911 12.5166,11.1211 12.4776,11.2591 C12.4726,11.2811 12.4636,11.2981 12.4576,11.3181 C12.4046,11.3601 12.3436,11.4011 12.2646,11.4401 C12.1576,11.4911 12.0596,11.5411 11.9686,11.5901 C11.8926,11.6321 11.8266,11.6721 11.7696,11.7111 C11.7106,11.7511 11.6546,11.7921 11.6006,11.8351 C11.5446,11.8751 11.4886,11.9221 11.4316,11.9761 C11.4036,12.0021 11.3756,12.0301 11.3446,12.0601 L11.3406,12.0601 L11.3406,12.0531 C11.4906,11.8821 11.6066,11.7041 11.6846,11.5141 C11.7776,11.2941 11.8236,11.0751 11.8306,10.8571 C11.9426,10.7611 12.0856,10.6711 12.2576,10.5921 C12.3236,10.5601 12.3946,10.5321 12.4726,10.5051 C12.5146,10.6131 12.5376,10.7351 12.5376,10.8751 L12.5376,10.8751 Z M12.2506,11.6741 C12.1546,11.7821 12.0296,11.8741 11.8756,11.9471 C11.7726,11.9951 11.6506,12.0251 11.5146,12.0451 C11.5186,12.0401 11.5206,12.0381 11.5246,12.0351 C11.6016,11.9631 11.6916,11.8971 11.7946,11.8361 C11.8966,11.7771 12.0116,11.7281 12.1356,11.6931 C12.1706,11.6831 12.2106,11.6781 12.2506,11.6741 L12.2506,11.6741 Z M11.3466,11.8821 L11.3466,11.8681 C11.3506,11.7631 11.3686,11.6531 11.3986,11.5391 C11.4286,11.4241 11.4736,11.3091 11.5376,11.1971 C11.5566,11.1631 11.5796,11.1301 11.6036,11.0971 C11.6136,11.2441 11.5906,11.3971 11.5326,11.5581 C11.4936,11.6641 11.4316,11.7731 11.3466,11.8821 L11.3466,11.8821 Z M11.5526,9.7881 C11.6546,9.8171 11.7646,9.8581 11.8786,9.9131 C11.9936,9.9661 12.1016,10.0371 12.1986,10.1221 C12.2586,10.1731 12.3096,10.2361 12.3576,10.3011 L11.7476,10.3011 C11.7346,10.2611 11.7206,10.2181 11.7036,10.1781 C11.6396,10.0251 11.5566,9.8851 11.4506,9.7571 L11.5526,9.7881 Z M10.8446,10.3311 C10.8696,10.2621 10.9006,10.1911 10.9366,10.1181 C11.0406,10.1641 11.1436,10.2331 11.2426,10.3331 C11.3256,10.4171 11.4026,10.5221 11.4716,10.6471 C11.4826,10.6651 11.4906,10.6861 11.5006,10.7041 C11.4926,10.7711 11.4796,10.8431 11.4486,10.9251 C11.4106,11.0381 11.3756,11.1441 11.3466,11.2421 C11.3216,11.3241 11.3036,11.4001 11.2926,11.4691 C11.2806,11.5381 11.2686,11.6061 11.2586,11.6741 C11.2496,11.7431 11.2436,11.8171 11.2416,11.8941 C11.2396,11.9311 11.2386,11.9711 11.2376,12.0121 C11.2366,12.0131 11.2356,12.0151 11.2356,12.0161 C11.2336,12.0131 11.2326,12.0121 11.2306,12.0111 C11.2156,11.7851 11.1706,11.5761 11.0936,11.3871 C11.0026,11.1671 10.8816,10.9801 10.7316,10.8221 C10.7426,10.6721 10.7806,10.5081 10.8446,10.3311 L10.8446,10.3311 Z M11.1156,11.8881 C11.1116,11.8841 11.1076,11.8811 11.1036,11.8771 C11.0336,11.8001 10.9676,11.7091 10.9066,11.6081 C10.8466,11.5051 10.7986,11.3931 10.7646,11.2671 C10.7546,11.2321 10.7516,11.1921 10.7436,11.1551 C10.8526,11.2501 10.9426,11.3731 11.0166,11.5281 C11.0636,11.6301 11.0956,11.7511 11.1156,11.8881 L11.1156,11.8881 Z M9.7776,10.2611 C9.8706,10.2091 9.9766,10.1631 10.0966,10.1181 C10.2166,10.0741 10.3406,10.0491 10.4706,10.0391 C10.5496,10.0361 10.6306,10.0421 10.7116,10.0551 L10.2796,10.4871 C10.2406,10.4671 10.2026,10.4471 10.1596,10.4301 C10.0076,10.3671 9.8486,10.3281 9.6836,10.3111 L9.7776,10.2611 Z M9.9446,10.8661 C10.0606,10.8661 10.1906,10.8871 10.3296,10.9251 C10.3486,10.9301 10.3686,10.9391 10.3886,10.9451 C10.4306,10.9981 10.4716,11.0601 10.5096,11.1381 C10.5616,11.2461 10.6116,11.3451 10.6606,11.4341 C10.7026,11.5111 10.7426,11.5771 10.7836,11.6341 C10.8216,11.6901 10.8626,11.7471 10.9036,11.8021 C10.9466,11.8581 10.9926,11.9141 11.0456,11.9721 C11.0716,11.9991 11.1006,12.0271 11.1286,12.0581 L11.1286,12.0621 L11.1246,12.0621 C10.9516,11.9111 10.7736,11.7941 10.5836,11.7161 C10.3646,11.6261 10.1456,11.5781 9.9286,11.5741 C9.8316,11.4601 9.7416,11.3171 9.6616,11.1451 C9.6306,11.0801 9.6026,11.0081 9.5766,10.9311 C9.6836,10.8891 9.8056,10.8661 9.9446,10.8661 L9.9446,10.8661 Z M10.9546,12.0561 L10.9396,12.0561 C10.8326,12.0511 10.7226,12.0351 10.6096,12.0031 C10.4946,11.9751 10.3796,11.9291 10.2676,11.8651 C10.2326,11.8461 10.1996,11.8241 10.1656,11.7991 C10.3116,11.7891 10.4666,11.8121 10.6276,11.8711 C10.7356,11.9091 10.8446,11.9721 10.9546,12.0561 L10.9546,12.0561 Z M8.8266,11.9521 L8.8576,11.8511 C8.8866,11.7471 8.9286,11.6391 8.9816,11.5241 C9.0366,11.4101 9.1056,11.3021 9.1916,11.2031 C9.2426,11.1441 9.3066,11.0921 9.3716,11.0451 L9.3716,11.6541 C9.3296,11.6671 9.2896,11.6831 9.2476,11.6981 C9.0956,11.7631 8.9546,11.8471 8.8266,11.9521 L8.8266,11.9521 Z M9.4996,13.2431 C9.4376,13.3951 9.3976,13.5531 9.3816,13.7191 L9.3316,13.6251 C9.2786,13.5331 9.2316,13.4241 9.1876,13.3061 C9.1446,13.1861 9.1186,13.0601 9.1106,12.9321 C9.1056,12.8521 9.1126,12.7731 9.1266,12.6941 L9.5566,13.1221 C9.5366,13.1631 9.5166,13.2031 9.4996,13.2431 L9.4996,13.2431 Z M9.4006,12.5581 C9.3326,12.5341 9.2616,12.5021 9.1876,12.4671 C9.2336,12.3621 9.3056,12.2591 9.4046,12.1621 C9.4876,12.0791 9.5906,12.0001 9.7176,11.9291 C9.7356,11.9191 9.7546,11.9111 9.7746,11.9031 C9.8416,11.9101 9.9136,11.9241 9.9946,11.9531 C10.1076,11.9941 10.2126,12.0271 10.3116,12.0561 C10.3946,12.0811 10.4706,12.0981 10.5386,12.1111 C10.6066,12.1221 10.6756,12.1341 10.7436,12.1451 C10.8126,12.1551 10.8866,12.1611 10.9646,12.1631 C11.0006,12.1641 11.0406,12.1641 11.0836,12.1651 C11.0836,12.1661 11.0856,12.1671 11.0866,12.1691 C11.0856,12.1691 11.0836,12.1711 11.0826,12.1711 C10.8546,12.1871 10.6466,12.2311 10.4586,12.3101 C10.2366,12.4011 10.0506,12.5221 9.8926,12.6721 C9.7436,12.6601 9.5806,12.6221 9.4006,12.5581 L9.4006,12.5581 Z M10.9586,12.2891 C10.9556,12.2931 10.9516,12.2941 10.9486,12.2981 C10.8716,12.3711 10.7806,12.4361 10.6786,12.4961 C10.5766,12.5561 10.4616,12.6051 10.3386,12.6391 C10.3016,12.6491 10.2636,12.6531 10.2236,12.6591 C10.3196,12.5501 10.4436,12.4591 10.5976,12.3871 C10.7006,12.3381 10.8216,12.3071 10.9586,12.2891 L10.9586,12.2891 Z M9.9366,13.4591 C9.9366,13.3411 9.9576,13.2121 9.9946,13.0731 C10.0016,13.0531 10.0086,13.0341 10.0156,13.0141 C10.0686,12.9721 10.1286,12.9321 10.2076,12.8941 C10.3146,12.8401 10.4146,12.7911 10.5036,12.7431 C10.5816,12.7001 10.6476,12.6621 10.7036,12.6201 C10.7626,12.5811 10.8186,12.5391 10.8726,12.4971 C10.9286,12.4561 10.9836,12.4091 11.0426,12.3571 C11.0676,12.3311 11.0956,12.3031 11.1276,12.2731 L11.1316,12.2731 L11.1316,12.2821 C10.9796,12.4531 10.8646,12.6301 10.7876,12.8191 C10.6966,13.0391 10.6496,13.2561 10.6436,13.4751 C10.5296,13.5711 10.3886,13.6591 10.2166,13.7421 C10.1496,13.7731 10.0776,13.8001 10.0016,13.8271 C9.9586,13.7191 9.9366,13.5981 9.9366,13.4591 L9.9366,13.4591 Z M11.1276,12.4491 L11.1276,12.4631 C11.1216,12.5701 11.1036,12.6791 11.0756,12.7931 C11.0456,12.9091 10.9996,13.0231 10.9366,13.1351 C10.9156,13.1691 10.8936,13.2041 10.8706,13.2361 C10.8586,13.0911 10.8816,12.9361 10.9396,12.7751 C10.9796,12.6671 11.0436,12.5581 11.1276,12.4491 L11.1276,12.4491 Z M10.9216,14.5441 C10.8186,14.5151 10.7096,14.4731 10.5936,14.4191 C10.4786,14.3671 10.3716,14.2961 10.2756,14.2111 C10.2156,14.1581 10.1636,14.0961 10.1176,14.0301 L10.7246,14.0301 C10.7386,14.0721 10.7516,14.1131 10.7686,14.1551 C10.8326,14.3061 10.9166,14.4471 11.0216,14.5751 L10.9216,14.5441 Z M11.6286,14.0021 C11.6036,14.0691 11.5726,14.1411 11.5376,14.2141 C11.4326,14.1681 11.3296,14.0971 11.2326,13.9991 C11.1476,13.9151 11.0716,13.8111 11.0006,13.6851 C10.9906,13.6661 10.9826,13.6481 10.9736,13.6281 C10.9796,13.5621 10.9956,13.4891 11.0236,13.4081 C11.0616,13.2951 11.0976,13.1911 11.1276,13.0911 C11.1506,13.0081 11.1696,12.9331 11.1806,12.8631 C11.1926,12.7951 11.2046,12.7271 11.2146,12.6591 C11.2236,12.5891 11.2296,12.5161 11.2336,12.4391 C11.2336,12.4011 11.2336,12.3621 11.2356,12.3191 C11.2366,12.3181 11.2366,12.3171 11.2376,12.3161 C11.2396,12.3181 11.2426,12.3201 11.2436,12.3211 C11.2576,12.5481 11.3016,12.7561 11.3806,12.9441 C11.4716,13.1641 11.5916,13.3541 11.7416,13.5101 C11.7296,13.6591 11.6916,13.8241 11.6286,14.0021 L11.6286,14.0021 Z M11.3586,12.4451 C11.3626,12.4491 11.3646,12.4521 11.3686,12.4551 C11.4406,12.5331 11.5056,12.6221 11.5656,12.7241 C11.6266,12.8271 11.6756,12.9401 11.7076,13.0661 C11.7186,13.1001 11.7226,13.1411 11.7296,13.1791 C11.6206,13.0831 11.5296,12.9601 11.4566,12.8051 C11.4076,12.7041 11.3776,12.5811 11.3586,12.4451 L11.3586,12.4451 Z M12.6966,14.0721 C12.6026,14.1221 12.4946,14.1711 12.3766,14.2141 C12.2576,14.2571 12.1326,14.2831 12.0006,14.2921 C11.9236,14.2991 11.8426,14.2891 11.7636,14.2771 L12.1936,13.8461 C12.2326,13.8671 12.2706,13.8851 12.3116,13.9031 C12.4646,13.9651 12.6246,14.0051 12.7906,14.0221 L12.6966,14.0721 Z M12.5286,13.4661 C12.4126,13.4661 12.2836,13.4451 12.1426,13.4081 C12.1226,13.4011 12.1036,13.3941 12.0836,13.3871 C12.0426,13.3341 12.0006,13.2731 11.9636,13.1931 C11.9126,13.0861 11.8616,12.9891 11.8126,12.8981 C11.7706,12.8211 11.7306,12.7551 11.6906,12.6991 C11.6506,12.6411 11.6106,12.5851 11.5696,12.5301 C11.5286,12.4741 11.4796,12.4171 11.4246,12.3611 C11.4016,12.3331 11.3726,12.3041 11.3446,12.2751 L11.3446,12.2701 L11.3506,12.2701 C11.5206,12.4221 11.7006,12.5371 11.8886,12.6151 C12.1086,12.7061 12.3286,12.7531 12.5456,12.7591 C12.6416,12.8731 12.7296,13.0151 12.8116,13.1871 C12.8416,13.2531 12.8706,13.3251 12.8956,13.4011 C12.7906,13.4431 12.6696,13.4661 12.5286,13.4661 L12.5286,13.4661 Z M11.5196,12.2771 L11.5336,12.2771 C11.6396,12.2821 11.7496,12.2981 11.8636,12.3281 C11.9796,12.3571 12.0936,12.4051 12.2056,12.4671 C12.2406,12.4861 12.2726,12.5101 12.3066,12.5331 C12.1616,12.5431 12.0076,12.5221 11.8436,12.4611 C11.7376,12.4231 11.6296,12.3601 11.5196,12.2771 L11.5196,12.2771 Z M12.7546,12.4031 C12.7366,12.4141 12.7176,12.4221 12.6976,12.4301 C12.6316,12.4221 12.5596,12.4081 12.4776,12.3791 C12.3656,12.3391 12.2596,12.3061 12.1616,12.2771 C12.0776,12.2521 12.0006,12.2351 11.9346,12.2201 C11.8656,12.2091 11.7976,12.1981 11.7296,12.1881 C11.6606,12.1781 11.5866,12.1711 11.5076,12.1711 C11.4716,12.1691 11.4316,12.1671 11.3896,12.1671 C11.3876,12.1661 11.3876,12.1661 11.3866,12.1641 C11.3876,12.1631 11.3886,12.1621 11.3906,12.1601 C11.6176,12.1451 11.8266,12.1011 12.0146,12.0231 C12.2356,11.9321 12.4216,11.8111 12.5816,11.6611 C12.7296,11.6731 12.8936,11.7091 13.0706,11.7741 C13.1396,11.7991 13.2116,11.8311 13.2836,11.8661 C13.2376,11.9701 13.1676,12.0741 13.0676,12.1711 C12.9866,12.2531 12.8826,12.3321 12.7546,12.4031 L12.7546,12.4031 Z M13.6166,12.4821 C13.5856,12.5841 13.5436,12.6941 13.4906,12.8081 C13.4366,12.9241 13.3676,13.0291 13.2806,13.1281 C13.2296,13.1881 13.1676,13.2391 13.1026,13.2861 L13.1026,12.6781 C13.1426,12.6641 13.1846,12.6511 13.2256,12.6341 C13.3776,12.5721 13.5186,12.4851 13.6466,12.3811 L13.6166,12.4821 Z"/>
  </g>
</svg>
