<svg xmlns="http://www.w3.org/2000/svg" xmlns:xlink="http://www.w3.org/1999/xlink" width="128" height="128" viewBox="0 0 128 128">
  <defs>
    <polygon id="placeholders-icon-a" points="0 .509 127.492 .509 127.492 128 0 128"/>
  </defs>
  <g fill="none" fill-rule="evenodd">
    <path fill="#B0851E" d="M63,21.1180895 C86.6447592,21.1180895 105.882153,40.354056 105.882153,64.0008499 C105.882153,87.645944 86.6447592,106.88361 63,106.88361 C39.3552408,106.88361 20.117847,87.645944 20.117847,64.0008499 C20.117847,40.354056 39.3552408,21.1180895 63,21.1180895 M63,4 C29.8623229,4 3,30.8610037 3,64.0008499 C3,97.1372966 29.8623229,124 63,124 C96.1376771,124 123,97.1372966 123,64.0008499 C123,30.8610037 96.1376771,4 63,4"/>
    <mask id="placeholders-icon-b" fill="#fff">
      <use xlink:href="#placeholders-icon-a"/>
    </mask>
    <path fill="#B0851E" d="M63.744969,128.000509 C28.5955902,128.000509 -0.000169607116,99.4030529 -0.000169607116,64.2536741 C-0.000169607116,29.1025993 28.5955902,0.508535508 63.744969,0.508535508 C98.8943478,0.508535508 127.491804,29.1025993 127.491804,64.2536741 C127.491804,99.4030529 98.8943478,128.000509 63.744969,128.000509 M63.744969,2.04008777 C29.4402337,2.04008777 1.53138265,29.9472427 1.53138265,64.2536741 C1.53138265,98.5584095 29.4402337,126.46726 63.744969,126.46726 C98.0514004,126.46726 125.958555,98.5584095 125.958555,64.2536741 C125.958555,29.9472427 98.0514004,2.04008777 63.744969,2.04008777" mask="url(#placeholders-icon-b)"/>
    <path fill="#FFF" d="M12.0013409 66.5584168C11.9668887 65.7406073 12.6004262 65.0357973 13.4311069 65.0013229 14.2483895 64.9668485 14.9623155 65.6103707 14.9986817 66.4415869 15.0331339 67.2708878 14.3881123 67.9642064 13.5574316 67.9986808 12.7286649 68.0331552 12.0377071 67.3877177 12.0013409 66.5584168M16.1743171 58.9384289C16.2611652 58.2406229 16.1133711 58.047358 15.5420022 57.9481601L12.1549271 57.3598138C11.6079366 57.2640365 11.440335 57.3854684 11.3336795 58.0986672L11 58.042227C11.0975136 57.5701818 11.1660779 57.1973345 11.2056928 56.9117129 11.2818753 56.3438904 11.3062538 55.8051431 11.374818 55.3194154 11.6079366 53.6262096 12.1549271 52.8668325 13.0355971 53.01905 13.7060033 53.1336407 14.0686321 53.7784271 14.051872 54.9123619 14.3855514 53.600555 14.9508258 52.9489273 15.8162593 53.0994345 16.7776828 53.2653344 17.1753555 54.270996 16.9285242 56.0668203 16.8599599 56.5713614 16.7395915 57.1306324 16.6527434 57.7566055 16.6024629 58.1294528 16.562848 58.5467682 16.5232331 59L16.1743171 58.9384289zM13.7578074 55.9676224C13.8827468 55.0594484 13.6191552 54.6677877 12.852759 54.5360939 12.2143495 54.4232135 11.8623862 54.7396207 11.758778 55.4989978 11.7161157 55.8017225 11.7465888 55.8342183 11.8684808 55.8564523L13.7212398 56.1779904C13.7303817 56.1027368 13.7501892 56.0326142 13.7578074 55.9676224L13.7578074 55.9676224zM15.4841035 56.4807151C16.152986 56.6004367 16.436385 56.4790048 16.5125676 55.9299956 16.6070339 55.2424515 16.2687835 54.8371083 15.494769 54.7002836 14.6963761 54.5634589 14.2819432 54.951699 14.1463383 55.9419678 14.1341491 56.0343245 14.1189126 56.1318121 14.1112944 56.2464028L15.4841035 56.4807151zM13.5598684 50.1040929C12.829441 49.8697613 12.5908347 49.8943415 12.3262576 50.5825882L12 50.4793512C12.1769258 49.9762757 12.3376198 49.4961416 12.4739663 49.0635294 12.6216749 48.5981435 12.7742531 48.0885132 12.9235849 47.5297225L13.2579584 47.6362368C13.0794095 48.3457864 13.225495 48.5309576 13.9218358 48.7570958L16.1033791 49.4584519C17.3434827 49.8599292 17.9846356 49.6731194 18.3319945 48.5702859 18.534891 47.9279223 18.4813263 47.3691316 18.2151261 47.0135374 17.94081 46.6546659 17.4928145 46.46294 16.8549078 46.256466L14.9249562 45.6354053C14.262702 45.4240152 13.9754005 45.5157815 13.7205625 46.1155393L13.4105366 46.0155797C13.5257818 45.7075073 13.6394039 45.3797708 13.7514027 45.0241767 13.8828797 44.6095899 13.9835163 44.2605505 14.0484432 44L14.3747008 44.1048757C14.2545861 44.7193817 14.4250192 44.9701001 15.0710417 45.1782128L16.9993702 45.7992736C17.7297976 46.0368825 18.2654444 46.2728529 18.6176728 46.7333227 19.0429439 47.2888361 19.1208561 48.0983453 18.8140766 49.0635294 18.534891 49.9533341 18.129098 50.5334278 17.5122926 50.8447775 17.0285873 51.0922186 16.4280136 51.0283099 15.6066885 50.7628433L13.5598684 50.1040929zM20.2895312 44.831656C20.5989798 44.0777676 20.4850619 43.8874657 19.8440612 43.5672461L16.4554287 41.8581885C15.8875395 41.5727356 15.6648045 41.5910339 15.3791596 42.2479414 15.3672577 42.273559 15.3587564 42.2991766 15.3400534 42.3376029L15 42.1655993C15.2686422 41.589204 15.5083799 41.0622141 15.712412 40.5956084 15.9266456 40.1015554 16.1493806 39.5672461 16.3738159 39L16.7155696 39.1738335C16.7019675 39.21043 16.6849648 39.2451967 16.6730629 39.2726441 16.4282244 39.8380604 16.5557445 40.1326624 17.0879281 40.399817L20.4765606 42.1107045C21.0869565 42.4181153 21.3436969 42.3394328 21.6667476 41.6678866L22 41.8362306C21.6701482 42.5480329 21.4304105 43.073193 21.2858878 43.4062214 21.1005587 43.8362306 20.8778237 44.3723696 20.6227836 45L20.2895312 44.831656zM21.8367474 40.7956287C21.8516449 40.7717854 21.8632319 40.7581607 21.874819 40.7326142 22.1909787 40.2063582 22.0800745 39.9508941 21.5073453 39.5881351L18.345748 37.5801873C17.8855783 37.2872552 17.6422512 37.3621913 17.329402 37.8799319 17.3260915 37.8884473 17.317815 37.9054783 17.3078833 37.9208061L17 37.7249503C17.3227809 37.2242407 17.6041796 36.7746239 17.8392303 36.3795061 18.0130354 36.0899801 18.2845024 35.6199262 18.6370784 35L18.9416511 35.1907465C18.9333747 35.2094806 18.923443 35.2248084 18.9151666 35.2384332 18.5741775 35.8038603 18.6354231 36.0371842 19.1386303 36.3607721L21.9377198 38.135396C22.6991517 38.6207777 23.0616594 38.5782004 23.538382 37.7845586 24.0680737 36.9023559 24.0002069 36.2108998 23.2983654 35.5466932L23.4903786 35.2248084 25 36.2262276C24.5199669 37.0079478 24.0316574 37.8032926 23.5416925 38.6241839 23.1510449 39.2747658 22.6958411 40.0701107 22.157873 41L21.8367474 40.7956287zM24.6238317 34.7703222C25.081095 34.2812803 25.045785 34.0781639 24.5126055 33.6781808L21.5483392 31.4720239C21.0204562 31.079853 20.7838798 31.0251678 20.2913067 31.5423335L20 31.3235927C20.2471693 31.09079 20.4943386 30.831426 20.734446 30.5767492 21.0787175 30.2142646 21.4123961 29.8424053 21.7425437 29.4908576 23.3897506 27.764368 25.1605422 27.5425024 26.8412936 28.7986993 27.5969255 29.3580507 27.9800379 30.0205227 27.9994584 30.7876778 28.0171133 31.5860816 27.602222 32.1954309 26.8907274 32.9391495 26.5270355 33.3219458 26.136861 33.6953676 25.7555141 34.0953507 25.4942208 34.3672142 25.234693 34.6703264 24.9327934 35L24.6238317 34.7703222zM26.6841645 32.4876061C27.4044865 31.7298256 27.053153 30.9017355 25.6637083 29.8674042 24.1630375 28.7487014 23.1213954 28.6471432 22.1150632 29.7017862 21.9438101 29.884591 21.9349826 29.9877116 22.0726913 30.0908323L25.3582777 32.5391664C25.8843952 32.9313373 26.2463217 32.9469617 26.6841645 32.4876061L26.6841645 32.4876061zM29.7818182 29.7131407C30.3471074 29.2018561 30.2297521 28.9301835 29.6347107 28.245096L27.4363636 25.7106096C27.014876 25.2229487 26.7272727 25.1672643 26.2859504 25.5671799 26.2644628 25.5857414 26.2495868 25.5975533 26.231405 25.6144273L26 25.3478169C26.4942149 24.9512761 26.9619835 24.5513605 27.4099174 24.1446952 27.8876033 23.7144062 28.6595041 23.0040076 29.7041322 22L30.7421488 23.1997469 30.4677686 23.4494832C29.6479339 22.8470787 29.2280992 23.0546298 28.3636364 23.8358996 28.0264463 24.1379456 28 24.1885678 28.1702479 24.3876819L29.4760331 25.894537C29.5190083 25.8591015 29.5570248 25.8219785 29.5933884 25.7932926 30.1206612 25.3140688 30.1504132 24.9462139 29.7586777 24.2712508L30.0396694 24.0181396C30.2694215 24.3353723 30.5239669 24.6458553 30.7834711 24.9462139 31.0859504 25.2955073 31.3752066 25.5992407 31.6429752 25.8692259L31.3768595 26.1105252C30.7719008 25.6178022 30.3867769 25.6346762 29.8380165 26.1324615 29.8115702 26.1577726 29.7834711 26.1797089 29.7504132 26.2100823L30.8132231 27.4351403C31.2363636 27.9228011 31.6231405 27.9025522 32.1603306 27.4182662 32.9454545 26.7095549 33.0859504 26.1645223 32.5454545 25.2381354L32.7917355 25.0137102 34 26.4041341C32.9702479 27.2866484 32.1504132 28.0274204 31.5190083 28.5960768 31.385124 28.7175701 31.2578512 28.8323139 31.1239669 28.9538072 30.738843 29.2997258 30.3652893 29.6388947 30.031405 30L29.7818182 29.7131407zM35.2165942 25.7056965C35.8612739 25.3148489 35.9054999 25.0875033 35.5159705 24.5424968L33.4118314 21.6274903C33.0784351 21.1603418 32.8726139 21.13387 32.2041202 21.5262748L32 21.2444285C32.4133434 21.0170829 32.7433377 20.8162091 33.013797 20.6558214 33.5036855 20.3552892 34.013986 20.0204995 34.5838216 19.6748096 36.00756 18.8152564 36.963523 18.7638701 37.5639766 19.5953944 38.016443 20.2229305 37.8735589 20.9345534 37.1370251 21.5636466 37.4125874 21.5184889 37.7817048 21.6601907 38.3226233 21.84705L39.7616708 22.3562419C40.1801172 22.5057294 40.5305235 22.5181867 40.8128898 22.3873851L41 22.6474311C40.8128898 22.742418 40.4777925 22.935506 39.999811 23.2220237 39.7973918 23.3434823 39.5983746 23.4649409 39.4163674 23.5957425L37.004347 22.7128319C36.5076545 22.5290868 36.2150822 22.4309856 35.9242109 22.6100592 35.8986959 22.6240737 35.8816859 22.6427596 35.8510679 22.6630027L36.7236817 23.8744744C37.0808921 24.3680947 37.3564544 24.4148095 37.9024759 24.0831341 37.9177849 24.0737911 37.9262899 24.0691196 37.9415989 24.0597767L38.1542242 24.3587517C37.2901153 24.8586006 36.7151767 25.1965046 36.4294084 25.3662352 36.1385371 25.5437517 35.7983368 25.7477398 35.4292194 26L35.2165942 25.7056965zM35.8850879 22.1865113C36.6845587 21.7053483 36.8359478 21.1790277 36.3494613 20.5016624 35.8476658 19.8024969 35.2880363 19.716853 34.5463995 20.1622012 34.2623323 20.3366033 34.2334152 20.4160185 34.4001134 20.6449213L35.6163296 22.3391131C35.7149877 22.2908411 35.8085428 22.2347833 35.8850879 22.1865113L35.8850879 22.1865113z"/>
    <path fill="#FFF" d="M39.9079273 21.2249135C39.7186378 20.8858131 39.5367714 20.5854671 39.3734628 20.3303345L39.7910132 20.1543253C40.5685849 20.9859285 41.3665701 21.2297578 42.17569 20.8874279 42.8604727 20.5951557 43.0924452 20.08812 42.8010878 19.5697809 42.504163 19.0401384 41.9529965 19.0336794 40.9675775 19.0595156 39.5367714 19.1031142 38.7072379 18.9190311 38.2154563 18.0454441 37.7106842 17.1476355 38.1133884 16.2433679 39.2082984 15.7799308 39.8058594 15.5280277 40.3310451 15.4408304 40.9137599 15.5635525L40.8321056 15.177624 41.2589349 15C41.5094651 15.4472895 41.7989668 15.9397924 42.1237282 16.4645905L41.7191682 16.6357555C41.1160399 15.9640138 40.2902179 15.7912341 39.5386272 16.1077278 38.9856048 16.3434833 38.8093058 16.7875433 39.0394224 17.1960784 39.2899527 17.6465975 39.7501861 17.6256055 40.5500271 17.6110727 42.2424981 17.5723183 43.2186382 17.6369089 43.7660932 18.6122261 44.3302502 19.6214533 43.8551706 20.6532872 42.5431344 21.2087659 41.8750537 21.4929642 41.2923389 21.5753172 40.6298256 21.3896194L40.735605 21.8207612 40.3087757 22C40.1862943 21.7416378 40.0526781 21.4848904 39.9079273 21.2249135M50.7790456 17.9472775C49.9270622 18.13697 49.2352516 17.8034784 49.0444073 17.1288462 48.8654908 16.475631 49.2284358 15.8208859 50.1110906 15.0590564 49.5981966 14.6460163 49.2710349 14.220738 49.1551652 13.8015787 48.9319455 12.9984452 49.4567673 12.2473241 50.346238 12.0499828 51.169254 11.8633498 51.8508407 12.2167286 52.0178295 12.820991 52.1643706 13.3610026 51.939447 13.882657 51.3311308 14.4043113 51.7588265 14.710267 52.2580888 15.0345799 52.8238058 15.3864289 53.2668372 14.2360357 53.5036886 13.5767014 54.2841054 13.4007769 54.8225589 13.2814542 55.2366229 13.5063316 55.3524926 13.923961 55.4564346 14.2941673 55.2366229 14.6093016 54.8242629 14.6995585 54.5550361 14.7607496 54.3215927 14.7117967 54.1835713 14.5526998 54.0608857 14.4180793 54.0898532 14.1886126 53.8853771 14.234506 53.6706773 14.2819291 53.5582155 14.7714581 53.2191261 15.6158956 53.9790953 16.0534122 54.4647259 16.2859385 54.9299088 16.1834433 55.2519586 16.1115438 55.4785861 15.9249108 55.6166075 15.6021276L56 15.7551054C55.6592066 16.5414114 55.1923197 16.9621004 54.4374624 17.1319058 53.8734494 17.2573476 53.273653 17.116608 52.6022901 16.7188657 52.0893961 17.3827894 51.5066394 17.7866508 50.7790456 17.9472775M51.222077 13.0504577C51.0891676 12.565518 50.758598 12.3314619 50.3888372 12.4155997 50.0582676 12.4905589 49.8793511 12.7766274 49.9662534 13.0902319 50.0718994 13.4696169 50.4229165 13.7755725 50.9886335 14.1626064 51.2408206 13.7985192 51.3123872 13.3808898 51.222077 13.0504577M50.4280284 15.3405356C50.1281303 15.6296636 50.0190764 15.9968104 50.1213144 16.3670167 50.2627436 16.8749031 50.86254 17.2191031 51.37373 17.1043698 51.7417869 17.0232915 52.0246454 16.8152417 52.1848182 16.5215243 51.733267 16.3073554 51.1419905 15.9187917 50.4280284 15.3405356M59.1537318 15.6367002C59.8557117 15.57968 60.0335219 15.4232819 60.0168522 14.905213L59.9131296 11.1060416C59.8983121 10.5586482 59.7538413 10.4299455 59.0092609 10.3989917L59 10.0552417C59.4130383 10.0731623 59.7834763 10.0633874 60.0946442 10.0568708 60.5150913 10.0487251 61.0892701 10.0210296 61.8208851 10.0031089 63.9397903 9.95912197 64.9696079 10.3778128 64.9992429 11.519845 65.0307301 12.6683939 64.0805568 13.2092707 62.0524089 13.2516286 61.9005293 13.2548869 61.7338322 13.256516 61.5597264 13.2516286L61.6023267 14.8253848C61.6189964 15.3988447 61.8264417 15.5813092 62.580283 15.5650177 62.5988049 15.5633885 62.619179 15.5617594 62.6377009 15.5633885L62.6506662 15.9250592C62.0468523 15.9218009 61.2818979 15.9283175 60.3409855 15.9478673 59.877938 15.9576422 59.4871259 15.9657879 59.1629927 16L59.1537318 15.6367002zM61.819033 12.8215337C62.8858943 12.8019839 63.3063414 12.4289092 63.2822629 11.5296199 63.2600367 10.7850996 62.8192155 10.4055083 62.0135129 10.4250581 61.6134399 10.434833 61.4837866 10.4804491 61.487491 10.6726885L61.546761 12.8199046C61.6375183 12.8264211 61.7301278 12.824792 61.819033 12.8215337L61.819033 12.8215337zM66.0440399 15.9789474C66.0722255 15.9824561 66.0916031 15.9842105 66.1197886 15.9877193 66.7557252 16.0596491 66.9442161 15.8403509 67.023488 15.1333333L67.4638873 11.2210526C67.5273048 10.654386 67.3493834 10.4526316 66.7222548 10.3824561 66.7134469 10.3824561 66.6940693 10.3807018 66.6746917 10.377193L66.7187317 10C67.3317675 10.0877193 67.8813858 10.1578947 68.3552554 10.2105263 68.7075749 10.2508772 69.2677628 10.3017544 70.0093952 10.3666667L69.9688784 10.7438596C69.9477393 10.7421053 69.9283617 10.7403509 69.9089841 10.7385965 69.227246 10.6614035 69.0352319 10.822807 68.9665297 11.445614L68.5772167 14.9035088C68.4697592 15.8491228 68.6723429 16.177193 69.6324134 16.2842105 70.6928949 16.4035088 71.3112155 16.0315789 71.6124486 15.0684211L72 15.1140351 71.7498532 17C70.8021139 16.8842105 69.8367587 16.7666667 68.8502642 16.6561404 68.0628303 16.5684211 67.1115678 16.4807018 66 16.377193L66.0440399 15.9789474zM72.0863196 16.9868837C72.5006539 17.0633957 72.8004185 16.9086714 73.0766414 16.5193102L76.2688988 12 76.6832331 12.1156182 77.3376929 17.6873937C77.3989014 18.2008744 77.530735 18.4661161 78 18.6344426L77.9121109 19C77.4365681 18.8486762 76.9610254 18.7058538 76.4933298 18.5783337 76.0240649 18.4457129 75.5485221 18.3232937 75.0667015 18.2076755L75.1545906 17.842118C75.6709391 17.9577362 75.8875229 17.9696381 75.9581481 17.6839932 75.9832592 17.568375 75.9911065 17.313335 75.9534397 16.9596794L75.9016479 16.4410979 74.0528381 15.9242167 73.8299765 16.2336653C73.632226 16.5125091 73.5302119 16.7590479 73.5066702 16.8576633 73.4266283 17.1977168 73.6055454 17.4102502 74.0669631 17.5377702L73.9775046 17.9050279C73.6369343 17.7894098 73.3010725 17.6856935 72.9714884 17.5955793 72.6497515 17.5054651 72.3264452 17.4238523 72 17.3524411L72.0863196 16.9868837zM75.8467172 15.9599223L75.6160084 13.6747632 74.3321998 15.5365557 75.8467172 15.9599223zM85.70076 18.0253715L84.958554 20 84.6474043 19.8565441 84.6610645 19.2979099C83.9826063 19.4886219 83.373967 19.4447412 82.7683633 19.1612048 81.2262748 18.445613 80.6115643 16.7815244 81.2490418 15.0836814 81.5192109 14.3664019 81.9199111 13.8195817 82.4556958 13.4634735 83.273792 12.9234041 84.1662605 12.8508323 85.0693537 13.269386 85.6552259 13.5411084 86.0741398 13.9444727 86.357969 14.4929806L86.6645654 14.07949 87 14.23476 86.3594868 16.0794342 86.0407481 15.9309152C86.165208 14.8879063 85.8297734 14.1199952 85.1634575 13.8077677 84.2360795 13.3773999 83.2449537 14.0187322 82.6454212 15.6153122 82.0504422 17.2017658 82.3190934 18.3595394 83.2692385 18.8000335 84.0357294 19.1561417 84.7688286 18.8422264 85.3820213 17.8751648L85.70076 18.0253715zM86.1822671 20.9462724C86.7982043 21.332778 87.0056117 21.1395252 87.4424242 20.361516L89.0529742 17.4893794C89.362514 16.9379425 89.3279461 16.6430654 88.8455668 16.3381924 88.8251403 16.3248646 88.8094276 16.3165348 88.7874299 16.301541L88.9571268 16C89.4520763 16.3531862 89.9438833 16.6813828 90.4325477 16.9929196 90.9526375 17.3211162 91.8058361 17.8475635 93 18.5489379L92.2379349 19.9083715 91.9378227 19.7184506C92.2347924 18.7488546 91.9283951 18.4089963 90.9856341 17.8142441 90.6163861 17.5793419 90.5645342 17.5693461 90.4372615 17.7959184L89.4819304 19.5035402C89.5243547 19.5318617 89.5683502 19.5601833 89.6060606 19.5818409 90.182716 19.9450229 90.5189675 19.8633903 90.9997755 19.2852978L91.3093154 19.4802166C91.0909091 19.7950854 90.891358 20.1316118 90.7012346 20.4731362 90.4781145 20.8696377 90.2927048 21.2361516 90.1340067 21.57601L89.8386083 21.392753C90.0994388 20.6630571 89.9753086 20.2998751 89.3750842 19.9216993 89.3468013 19.9033736 89.315376 19.8850479 89.2808081 19.8600583L88.501459 21.2511454C88.1903479 21.8025823 88.3223345 22.1690962 88.9068462 22.5389421 89.7647587 23.0803832 90.2864198 23.0503957 90.9526375 22.2523948L91.2244669 22.422324 90.3398429 24C89.2588103 23.273636 88.36633 22.7122032 87.6765432 22.2773844 87.528844 22.1857559 87.3921437 22.0957934 87.2444444 22.0058309 86.8264871 21.7426072 86.4163861 21.4827155 86 21.272803L86.1822671 20.9462724zM91.2415541 24.5325974C91.7939189 24.9827527 92.1148649 24.7688858 92.7128378 24.0375992L95.1807432 21.0382891C95.1908784 20.7761297 95.0405405 20.5381166 94.75 20.2638841L94.9679054 20C95.1537162 20.1966195 95.3783784 20.3897896 95.6334459 20.6071059 95.9543919 20.8830631 96.2820946 21.1503967 96.625 21.4177303L95.2601351 25.9279062 99.2972973 23.7081752C99.5033784 23.9116937 99.714527 24.1048637 99.9324324 24.2894101 100.244932 24.5619179 100.601351 24.8413246 101 25.1569507L100.77027 25.4363574C100.16723 24.9327354 99.9290541 25.0206968 99.4864865 25.5588134L97.0827703 28.4787858C96.6959459 28.9530873 96.7094595 29.2100724 97.2550676 29.7119696L97.0185811 30C96.5033784 29.5205243 96.0810811 29.1307347 95.7364865 28.8375302 95.4560811 28.5960676 95.0929054 28.2994136 94.6334459 27.9406692L94.8682432 27.6543636C95.5118243 28.1079683 95.6587838 28.0027596 96.0827703 27.4887892L98.2449324 24.8585719 93.8327703 27.2421525 93.5016892 26.9592963 95.0523649 21.9644705 93.0844595 24.35495C92.4898649 25.0793377 92.3597973 25.4536047 92.8766892 25.9451535L92.6351351 26.2400828C92.2550676 25.8761642 91.9915541 25.6295274 91.8310811 25.4898241 91.6131757 25.3018282 91.3412162 25.0810624 91 24.8275267L91.2415541 24.5325974zM97.2809309 30.3025719C97.5934457 30.5869894 97.9392068 30.6429652 98.3996675 30.5143722L103.705771 29 104 29.3131619 101.426739 33.7261725C101.194016 34.1316188 101.157445 34.397882 101.468297 34.7806354L101.187366 35C100.863215 34.6263238 100.530753 34.2586989 100.196628 33.9016641 99.8641653 33.5476551 99.5250534 33.1951589 99.1726431 32.8456884L99.453574 32.6263238C99.835906 32.9984871 100.017098 33.1270802 100.236523 32.9561271 100.326288 32.8880484 100.475896 32.7065053 100.640465 32.4281392L100.88815 32.0226929 99.5799098 30.6217852 99.2125386 30.7231467C98.8850629 30.8154312 98.6573261 30.9379728 98.5808597 30.9969743 98.3198765 31.2012103 98.3547851 31.4538578 98.6822607 31.8018154L98.4013299 32.02118C98.1702683 31.7473525 97.9375445 31.4856278 97.7031584 31.2360061 97.4754215 30.9909228 97.2410354 30.7534039 97 30.5219365L97.2809309 30.3025719zM101.114225 31.6444781L102.198053 29.8547655 100.038708 30.4931921 101.114225 31.6444781zM103.314073 34.9971905C103.678075 35.59056 103.905174 35.61416 104.398027 35.3056752L107.530703 33.3232815C108.023555 33.0131111 108.089591 32.7568833 107.777129 32.1753137L108.052547 32C108.273203 32.4382843 108.524461 32.8883686 108.799879 33.3654242 109.023757 33.7581944 109.279847 34.1846788 109.56815 34.6297059L109.278236 34.8151339C109.263741 34.7898483 109.255688 34.7746769 109.247634 34.7595055 108.938393 34.2268215 108.680693 34.2740214 108.126636 34.6229631L106.490236 35.6596741 107.690155 35.880502C108.782162 36.0895299 109.403866 36.1637011 109.613247 36.0322158 109.800081 35.9142161 109.783974 35.6697883 109.564929 35.2938753L109.85001 35.1151901C110.085162 35.5956172 110.299376 35.9833302 110.470103 36.280015 110.637608 36.5716426 110.814778 36.8413561 111 37.1093838L110.714918 37.2880689C110.447554 36.8598989 110.128649 36.7300993 109.629354 36.6424424L107.992953 36.3508148 106.698007 39.8503465C106.546608 40.2448024 106.543386 40.5566586 106.670626 40.7960292L106.3485 41C106.047312 40.4201161 105.805718 39.9868889 105.630159 39.6817756 105.369237 39.2283199 105.098651 38.7782356 104.823233 38.3551227L105.137306 38.156209C105.156634 38.1899232 105.179183 38.2270088 105.1969 38.2590373 105.367626 38.555722 105.548017 38.6551789 105.691363 38.5658363 105.749346 38.527065 105.850815 38.4208653 105.908798 38.2573516L106.733441 36.1131298 105.974834 35.9833302 105.145359 36.5075857C104.621905 36.8396704 104.485001 36.9694699 104.853835 37.663982L104.539762 37.8628957C104.372257 37.5190111 104.127441 37.0756696 103.811758 36.5294999 103.48641 35.9664731 103.222267 35.5248174 103 35.1944184L103.314073 34.9971905zM106.365544 42.1975085C106.685614 42.8586636 106.991692 42.8285391 107.859204 42.4860702L111.073896 41.211325C111.693048 40.9671574 111.843463 40.7182333 111.589856 40.198188 111.579362 40.1759909 111.574115 40.1601359 111.561871 40.1347678L111.901181 40C112.132051 40.5676104 112.373415 41.1082673 112.628771 41.6362401 112.896371 42.1975085 113.347617 43.1060023 114 44.3490374L112.478356 44.9515289 112.320944 44.6280861C113.18146 44.0541336 113.113249 43.611778 112.623524 42.59547 112.434631 42.202265 112.392654 42.1626274 112.142545 42.2609287L110.23087 43.0203851C110.253607 43.0679502 110.274596 43.1139298 110.295584 43.1535674 110.596415 43.7766704 110.949716 43.9082673 111.740271 43.7449604L111.899432 44.0763307C111.507652 44.1920725 111.124617 44.3363533 110.741583 44.4853907 110.299082 44.6629672 109.905553 44.8373726 109.550503 45.005436L109.398338 44.6899207C110.083953 44.2792752 110.192392 43.9272933 109.881067 43.2819932 109.865326 43.2502831 109.849585 43.218573 109.830345 43.1773499L108.27547 43.7956965C107.656318 44.0398641 107.553126 44.401359 107.857455 45.0308041 108.299956 45.9503964 108.79143 46.2373726 109.882816 46.0106455L110.022737 46.3023783 108.259729 47C107.722781 45.80453 107.261041 44.8453001 106.902492 44.1048698 106.827285 43.9479049 106.753826 43.797282 106.678618 43.6387316 106.46174 43.1916195 106.24836 42.7508494 106 42.3417894L106.365544 42.1975085zM108.369637 48.5293375C108.573866 49.2696109 108.796661 49.3890641 109.476861 49.2023134L113.132725 48.2012618C113.71503 48.0414301 113.807862 47.8563617 113.608696 47.0942166L113.961455 47C114.067789 47.4609884 114.172435 47.8412198 114.258515 48.1474238 114.412109 48.711041 114.604523 49.3032597 114.783434 49.9543638 115.234087 51.5812829 114.992726 52.4998948 113.953016 52.7859096 113.164794 52.9995794 112.476155 52.6311251 112.054195 51.7242902 112.015374 52.0002103 111.755447 52.2980021 111.394249 52.7488959L110.428803 53.9316509C110.143558 54.2731861 110.025409 54.5995794 110.072669 54.9091483L109.745228 55C109.706407 54.7930599 109.611888 54.4094637 109.46167 53.8660358 109.397533 53.6338591 109.335082 53.4067298 109.255754 53.1913775L110.906463 51.2161935C111.249094 50.8090431 111.438133 50.5684543 111.348677 50.2336488 111.33855 50.2050473 111.323359 50.1814932 111.31492 50.1478444L109.794175 50.5650894C109.178113 50.7333333 109.044774 50.9772871 109.218621 51.6014721 109.221997 51.619979 109.223685 51.6300736 109.230436 51.6485804L108.857423 51.7478444C108.609311 50.7652997 108.435463 50.1125131 108.346007 49.7861199 108.254864 49.4529968 108.146842 49.0643533 108 48.6336488L108.369637 48.5293375zM111.794267 50.33796C112.045755 51.2515247 112.543669 51.5728707 113.390965 51.340694 114.265267 51.1001052 114.525194 50.602103 114.29396 49.7575184 114.202816 49.4311251 114.130239 49.3772871 113.839931 49.4563617L111.720002 50.0368034C111.740256 50.1461619 111.772325 50.2487907 111.794267 50.33796L111.794267 50.33796zM111.791709 56.3827827C112.142063 56.3377586 112.45905 56.2883772 112.724469 56.2360911L112.777553 56.594832C111.838726 56.9434061 111.415571 57.4662673 111.515672 58.1619631 111.600607 58.7530867 111.993428 59.0682558 112.53185 58.9970886 113.077856 58.9230166 113.226491 58.5163468 113.452477 57.7785316 113.781598 56.702309 114.154702 56.1358761 115.058645 56.0167799 115.986855 55.894779 116.68908 56.446688 116.824065 57.3907429 116.898382 57.9063421 116.840748 58.3173691 116.582912 58.7182293L116.946916 58.7661583 117 59.1321611C116.535895 59.1946139 116.023256 59.2672335 115.4727 59.3659962L115.424166 59.0145173C116.174924 58.7559915 116.541962 58.1895586 116.447927 57.5446965 116.379676 57.0697642 116.027806 56.8126908 115.604651 56.8678817 115.139029 56.9274298 115.040445 57.2745515 114.852376 57.8714847 114.453488 59.1408754 114.147118 59.8496428 113.138524 59.9818105 112.095046 60.1183353 111.29727 59.4778304 111.134985 58.3464169 111.053084 57.7669125 111.128918 57.3137661 111.464105 56.8736913L111.051567 56.8315719 111 56.4655691C111.26087 56.4452356 111.523256 56.4190925 111.791709 56.3827827M115.998357 66.5736503C115.960058 67.3931596 115.266843 68.0384275 114.437667 67.9982179 113.618066 67.9637525 112.965066 67.2552983 113.00145 66.4262153 113.039749 65.5971323 113.744453 64.9633529 114.573629 65.0016477 115.40089 65.0399426 116.036656 65.7445674 115.998357 66.5736503M10.375046 74.4977449C10.5807163 75.13358 10.7777451 75.260747 11.3152534 75.1212166L15.221262 74.1038804C15.7846951 73.9572851 15.8866661 73.7930277 15.7604986 73.0953753L16.1148047 73C16.1839376 73.3903321 16.2686254 73.7329766 16.3412149 74.0191024 16.4397293 74.4112007 16.5900934 74.9357647 16.7560123 75.6139888 17.2451276 77.5727141 17.0256306 78.6289069 15.853828 78.9326948 14.6716555 79.2417813 13.9146503 78.4893764 13.4462749 76.6118966 13.4117084 76.4741324 13.3702287 76.3151736 13.3425756 76.1544486L11.7248658 76.5765725C11.1337795 76.7302326 10.9903287 76.9633722 11.1648893 77.6627908 11.168346 77.6822191 11.1735309 77.6981149 11.1769876 77.715777L10.8053982 77.8146847C10.686144 77.2530304 10.5184967 76.5447807 10.3007281 75.6722737 10.1935721 75.2466174 10.1036993 74.8845446 10 74.5931202L10.375046 74.4977449zM13.8420607 76.2939791C14.0840259 77.2759911 14.5593145 77.579779 15.4856953 77.3378084 16.2461572 77.139993 16.5468853 76.6366236 16.3636831 75.8948159 16.2686254 75.5221459 16.1943075 75.4144072 15.9955505 75.4656272L13.7884827 76.0414113C13.7988527 76.1261893 13.8195925 76.2109673 13.8420607 76.2939791L13.8420607 76.2939791zM11.3416647 80C11.5347795 80.3885591 11.8417826 80.5569347 12.3187927 80.5731247L17.8398963 80.7398813 18 81.1494873 14.005659 84.7889908C13.6425371 85.127361 13.5104928 85.3831624 13.6656449 85.8704803L13.3223296 86C13.1539731 85.5191581 12.9724122 85.0415542 12.7875501 84.5752833 12.6043386 84.1090124 12.4095732 83.6443605 12.2049045 83.1764706L12.5465692 83.0469509C12.7726951 83.5439827 12.8948361 83.7334053 13.1638764 83.6314085 13.2711625 83.5909336 13.4774817 83.4565569 13.7333176 83.2250405L14.1112945 82.8931462 13.3850507 81.0604425 13.0054232 81.0458716C12.6654091 81.0345386 12.4062721 81.0863465 12.3154916 81.1187264 11.9952841 81.2417701 11.9375147 81.5089045 12.1223768 81.9670804L11.7790615 82.0949811C11.6585711 81.7452779 11.533129 81.4069077 11.4043858 81.0782515 11.2789436 80.7609282 11.1435982 80.443605 11 80.1311387L11.3416647 80zM14.4595614 82.583918L16.1183683 81.1219644 13.8620608 81.0766325 14.4595614 82.583918zM15.7529304 87.0890154C16.0811308 86.884996 16.3755459 86.6900846 16.6184785 86.5170325L16.8115376 86.9141416C16.0216042 87.7229327 15.8108481 88.5189725 16.1840956 89.2876883 16.5042519 89.9452865 17.0174672 90.143841 17.5226385 89.828704 18.034245 89.5117453 18.0181567 88.9670865 17.9505861 88.0089241 17.8476212 86.6081126 17.9940244 85.7829271 18.8418754 85.2546627 19.7122501 84.7118254 20.626063 85.0561081 21.1344519 86.103529 21.4127787 86.6718686 21.52057 87.181917 21.4208228 87.7593647L21.8005056 87.657355 22 88.0653938C21.5640083 88.3368124 21.0845783 88.644663 20.579407 88.9944105L20.3895656 88.6045878C21.0330958 87.9797785 21.1714548 87.1618794 20.8207309 86.4423468 20.5665364 85.915904 20.1160653 85.7683543 19.7186854 86.0160921 19.2843025 86.2875107 19.3229143 86.7356247 19.3743967 87.5152701 19.4805792 89.1711058 19.4612733 90.1310898 18.513675 90.7212887 17.5339003 91.3315252 16.4913813 90.9216649 15.8816364 89.668403 15.5711331 89.0290209 15.4649506 88.4625029 15.6226155 87.8030831L15.1978855 87.9324168 15 87.5261997C15.2509768 87.3895796 15.5003447 87.2456731 15.7529304 87.0890154M23.3134197 91.9990847C23.2361081 91.8885584 23.1640676 91.797254 23.0902702 91.7043478 22.4788052 90.9418764 21.9815506 90.7897025 21.0713815 91.2125858L20.8464749 90.9306636 22.3768944 90C22.8003514 90.5894737 23.2800351 91.2061785 23.8001318 91.8581236 24.6031188 92.8608696 25.3340655 93.7610984 26 94.5540046L24.5732484 95.5967963 24.3553701 95.3244851C25.051175 94.6789474 25.0652317 94.1647597 24.4889084 93.4407323 24.4045684 93.3366133 24.3079288 93.2292906 24.2042609 93.1139588L20.386119 95.6480549C19.9029212 95.9700229 19.8923787 96.2118993 20.3316495 96.7885584L20.0171316 97C19.709642 96.5707094 19.4021524 96.1718535 19.1052054 95.8018307 18.8469141 95.4782609 18.4761696 95.0265446 18 94.473913L18.3145179 94.2640732C18.7924445 94.805492 19.0085658 94.8535469 19.4952778 94.5331808L23.3134197 91.9990847zM22.9514905 99.3451619C22.8222861 99.2807135 22.7182513 99.2052617 22.6377083 99.1156628 22.3457398 98.7949928 22.3960792 98.4444565 22.741743 98.1678001 23.0605592 97.9131504 23.5152917 97.9508763 23.8005483 98.2636867 24.1378222 98.6346578 24.0488893 99.12981 23.5220036 99.5510823 22.8155741 100.113827 21.993364 100.145265 21 99.6579723L21.1392723 99.3891754C21.9010752 99.7019858 22.5034699 99.6925543 22.9514905 99.3451619M27.2304853 104.57275C27.7184783 104.9665 27.9282994 104.95425 28.2573371 104.52725L30.6559738 101.41575C31.0024965 100.96775 30.9929592 100.7735 30.5335781 100.28175L30.7529365 100C31.0056756 100.273 31.2472878 100.5005 31.4507507 100.69125 31.7257435 100.9485 32.1135946 101.2845 32.5936399 101.73075 33.9797308 103.0275 34.3644028 104.00925 33.6443349 104.942 32.9226775 105.88175 31.962587 105.719 30.6353096 104.48 30.5335781 104.38725 30.4238989 104.284 30.3158092 104.172L29.3239277 105.46C28.9646885 105.93075 28.9789945 106.2055 29.4685771 106.66575 29.4844726 106.678 29.497189 106.69025 29.5099055 106.7025L29.2810097 107C28.8979272 106.61675 28.403576 106.1425 27.7868291 105.56675 27.4832244 105.28325 27.2288957 105.047 27 104.87025L27.2304853 104.57275zM30.7640634 103.99175C31.4586984 104.64275 31.9689452 104.6095 32.539595 103.871 33.0085134 103.26375 32.9687745 102.681 32.4426322 102.18925 32.1803559 101.94425 32.0690871 101.9005 31.9451019 102.05975L30.5892125 103.8185C30.6432573 103.87975 30.7036604 103.93575 30.7640634 103.99175L30.7640634 103.99175z"/>
    <path fill="#FFF" d="M31.1920714 109.03334C31.804795 109.454808 32.0349631 109.390634 32.3873586 108.778377L34.2874366 105.486414C34.5890363 104.960879 34.5350658 104.756215 33.9144054 104.317402L34.0969526 104C34.466809 104.275776 34.7795203 104.490846 35.0350863 104.667759 35.5001848 104.98863 36.0097295 105.304298 36.5478469 105.675467 37.8939339 106.603392 38.3114113 107.468876 37.7701193 108.407208 37.3605786 109.114858 36.647851 109.312584 35.777974 108.913664 35.9271865 109.149547 35.9351233 109.555406 35.9716327 110.146849L36.0541758 111.714781C36.0732242 112.174407 36.1986262 112.503951 36.427207 112.705146L36.2573587 113C36.0986221 112.869917 35.7906729 112.646175 35.3398607 112.333976 35.1493767 112.203893 34.9604801 112.07381 34.7699961 111.96454L34.6604678 109.321257C34.6382446 108.773174 34.6176089 108.457506 34.3398197 108.268452 34.3175965 108.252843 34.2921987 108.245905 34.2636261 108.225092L33.4731174 109.591829C33.150882 110.148584 33.215964 110.427828 33.7350329 110.783388 33.7477319 110.793795 33.7540813 110.798998 33.7683676 110.80767L33.5762963 111.142417C32.7778508 110.570052 32.2429082 110.19021 31.9746432 110.00636 31.696854 109.813837 31.3777933 109.595298 31 109.368086L31.1920714 109.03334zM34.7160256 108.037772C35.4731996 108.559838 36.0208411 108.457506 36.4605417 107.694353 36.9145286 106.908653 36.7811898 106.346695 36.081161 105.866256 35.8113087 105.680671 35.7271782 105.687608 35.574791 105.951243L34.4747459 107.86086C34.5572889 107.928503 34.6430067 107.987474 34.7160256 108.037772L34.7160256 108.037772zM39.1536464 113.400772C39.8409252 113.721389 40.0358744 113.495071 40.4009913 112.648093L41.7590276 109.508787C42.0184093 108.908701 41.9506726 108.610373 41.412084 108.361766 41.3889544 108.349764 41.3707812 108.341192 41.3459995 108.330904L41.4880812 108C42.0464952 108.298328 42.5949965 108.576082 43.1418456 108.831547 43.7233892 109.099014 44.6733538 109.53279 46 110.098586L45.3573283 111.583369 45.0219495 111.427347C45.2218551 110.400343 44.8649988 110.090013 43.8109511 109.599657 43.4012273 109.411059 43.3450555 109.404201 43.2409724 109.649378L42.4314373 111.513073C42.4810007 111.537077 42.5305641 111.56108 42.5718669 111.57994 43.2161907 111.879983 43.5565258 111.751393 43.9976398 111.101586L44.3396271 111.262752C44.1479821 111.609087 43.9794666 111.98114 43.8175596 112.353193 43.6292188 112.785255 43.4772245 113.183026 43.3483597 113.55165L43.0212414 113.397342C43.2112344 112.62066 43.0410668 112.267467 42.3703092 111.953708 42.3372669 111.938277 42.3042247 111.924561 42.2629219 111.905701L41.6070333 113.42306C41.3476516 114.023146 41.5277319 114.383198 42.1803163 114.688384 43.1352372 115.134162 43.67713 115.036434 44.2818032 114.139734L44.5841397 114.280326 43.8390371 116C42.6296908 115.394771 41.631815 114.931847 40.8635827 114.575225 40.7016757 114.498071 40.5463772 114.426061 40.382818 114.348907 39.9169224 114.132876 39.4609393 113.920274 39 113.757394L39.1536464 113.400772zM46.3059388 114.366738C46.4283143 114.016696 46.5326935 113.698048 46.6064787 113.423352L47.0365927 113.539509C46.9574085 114.577077 47.3353329 115.214373 48.164967 115.437269 48.8740252 115.625633 49.4229154 115.399597 49.6136773 114.862761 49.8062388 114.318077 49.4211158 113.991581 48.704859 113.442188 47.6574685 112.644783 47.2093581 112.035742 47.5278944 111.131598 47.8554289 110.203909 48.8254349 109.795789 49.9556089 110.09874 50.5710858 110.263558 51.0065987 110.50529 51.3269346 110.930678L51.5626875 110.61046 52 110.728187C51.8380324 111.191247 51.6670666 111.707676 51.4979004 112.268057L51.0785843 112.156609C51.164967 111.332519 50.7132573 110.729757 49.9394121 110.522557 49.3689262 110.368727 48.9064187 110.585345 48.7570486 111.007593 48.5932813 111.470652 48.9334133 111.721803 49.5110978 112.172306 50.7366527 113.12511 51.3791242 113.732582 51.0245951 114.741895 50.6574685 115.784172 49.5362927 116.239383 48.1829634 115.876784 47.4937013 115.693129 47.0185963 115.413724 46.6910618 114.897295L46.4373125 115.267742 46 115.148446C46.1115777 114.894155 46.2105579 114.635156 46.3059388 114.366738M51.0651992 116.693155C51.8141544 116.825515 51.9545834 116.565821 52.1117303 115.67281L52.700195 112.36381C52.812204 111.728818 52.6751184 111.465773 52.0849819 111.358545 52.0599053 111.353518 52.039844 111.351843 52.0147673 111.348492L52.076623 111C52.6968515 111.145764 53.2970187 111.273097 53.8955141 111.37865 54.5291167 111.49258 55.5656172 111.666826 57 111.876257L56.7224854 113.44112 56.3580385 113.377453C56.3112288 112.352082 55.8849262 112.146003 54.7347451 111.941599 54.2883812 111.862853 54.2332126 111.87123 54.1847311 112.129248L53.837002 114.097894C53.888827 114.106271 53.9456673 114.116324 53.9874617 114.124701 54.6929507 114.250359 54.9972137 114.045955 55.2730566 113.320488L55.6475341 113.387506C55.5422123 113.764481 55.4636389 114.156534 55.3934244 114.551939 55.3131792 115.005984 55.2580106 115.421494 55.217888 115.801819L54.8617999 115.738152C54.8617999 114.95237 54.6093619 114.659167 53.8804681 114.530158 53.843689 114.523456 53.8085818 114.516754 53.7634439 114.508377L53.4792421 116.108425C53.3672332 116.745093 53.6280301 117.039971 54.341878 117.165629 55.3850655 117.353279 55.8949568 117.12877 56.2727779 116.126855L56.6037894 116.185495 56.2811368 118C54.950404 117.726903 53.8620786 117.532551 53.0228476 117.383437 52.8456395 117.353279 52.6751184 117.31977 52.4962385 117.289612 51.9880189 117.199138 51.4881583 117.11034 51 117.071805L51.0651992 116.693155zM59.0117591 118.386506C59.7055436 118.326883 59.850012 118.058577 59.8701704 117.377615L59.9760019 113.797071 59.8701704 113.666841C59.6837053 113.442469 59.487161 113.35931 59.1041517 113.331067L59.1159107 113C59.3695704 113.03295 59.6618671 113.040795 60.0079194 113.050209 60.2985361 113.058054 60.6529878 113.0659 61.0460763 113.051778L64.5637149 117.021444 64.6393089 114.479603C64.6594672 113.775105 64.4595632 113.478556 63.8228942 113.455021L63.8312935 113.123954C64.2680586 113.149059 64.6141109 113.167887 64.8778498 113.177301 65.1147108 113.182008 65.4792417 113.183577 66 113.180439L65.9865611 113.511506C65.2843772 113.535042 65.1399088 113.819038 65.1214303 114.534519L64.9887209 119 64.4797216 118.985879 60.4614831 114.346234 60.3707703 117.391736C60.350612 118.089958 60.5941925 118.419456 61.1787857 118.441423L61.1687065 118.789749C60.5589153 118.748954 60.1019918 118.73954 59.8029758 118.730126 59.512359 118.72228 59.2469402 118.723849 59 118.744247L59.0117591 118.386506zM69.2117326 112.868799C69.0791269 112.876354 68.9628922 112.889952 68.8482947 112.90204 67.8889495 113.016872 67.53206 113.325107 67.500955 114.202972L67.1489768 114.245278 67 112.669353C67.7186903 112.616469 68.4848568 112.531856 69.3034106 112.436666 70.5623465 112.287081 71.6968622 112.143541 72.7053206 112L73 113.548728 72.6562074 113.591035C72.3909959 112.770587 71.9375171 112.527323 71.0289222 112.636112 70.8979536 112.651221 70.7587995 112.676908 70.6098226 112.702594L71.1729877 116.730798C71.2450205 117.243012 71.4578445 117.357844 72.1732606 117.289851L72.2190996 117.622261C71.6968622 117.660035 71.2024557 117.709897 70.7358799 117.765802 70.3315143 117.812642 69.7601637 117.8897 69.0496589 118L69.005457 117.666079C69.704502 117.549736 69.8452933 117.409217 69.7748977 116.898514L69.2117326 112.868799zM80.1671755 115.895203C79.3586421 116.16499 78.6469991 115.9013 78.3847269 115.248935 78.1308073 114.620958 78.4081142 113.939633 79.1815666 113.101313 78.6319643 112.738549 78.2627786 112.351398 78.1024084 111.947481 77.7900205 111.17013 78.216004 110.379061 79.0579478 110.098605 79.8397528 109.834915 80.5430432 110.121468 80.775246 110.703719 80.9823909 111.223477 80.8236912 111.761526 80.2907942 112.334632 80.7451766 112.596797 81.2680505 112.869632 81.8594158 113.166854 82.156769 111.984062 82.3087866 111.308833 83.0504991 111.06191 83.5583382 110.891198 83.9893333 111.074104 84.1530446 111.476497 84.2950391 111.834688 84.1179636 112.163919 83.7287316 112.295002 83.4731415 112.378834 83.2409387 112.352922 83.0872506 112.21117 82.9519382 112.089233 82.9552792 111.859076 82.759828 111.923093 82.5560241 111.990159 82.5008968 112.485529 82.2720351 113.354333 83.0605222 113.712524 83.5616792 113.898479 84.004368 113.752154 84.3084033 113.650031 84.5071956 113.442738 84.6040859 113.111983L85 113.226299C84.754433 114.038707 84.3518369 114.49902 83.6351823 114.738322 83.1022853 114.915132 82.4992263 114.834348 81.7992769 114.506641 81.3766345 115.209306 80.8554311 115.665047 80.1671755 115.895203M80.0301925 111.007038C79.8430939 110.53758 79.492284 110.339431 79.1448151 110.455272 78.8274156 110.561967 78.6887621 110.863762 78.8107104 111.164033 78.9560459 111.529845 79.3352547 111.798107 79.9282906 112.127338 80.1320945 111.743235 80.1554818 111.324076 80.0301925 111.007038M79.5206829 113.348236C79.2634222 113.663749 79.1999423 114.037182 79.3436074 114.393849 79.5390586 114.881599 80.1638344 115.165103 80.6466157 115.003536 80.9957551 114.887696 81.2496747 114.65449 81.3699524 114.348123 80.9055469 114.178935 80.2807711 113.851228 79.5206829 113.348236M91.0938798 111.68231C91.7468845 111.220217 91.708668 110.97388 91.2999169 110.321512L89.4322902 107.346783C89.0617557 106.757273 88.8108557 106.682523 88.1993908 107.071565L88 106.753876C88.6563279 106.366532 89.3890889 105.895944 90.2148989 105.352304 90.9277209 104.886812 91.5973415 104.434912 92.2121296 104L93.109388 105.326821 92.7986707 105.530686C92.1672667 104.817159 91.6056494 104.944574 90.5605096 105.63092 90.2414844 105.839881 90.1866519 105.941814 90.3345334 106.174559L91.3996123 107.871735C91.4444752 107.841155 91.4826918 107.815672 91.5275547 107.786791 92.1041263 107.406243 92.210468 106.966235 91.9097203 106.300276L92.2353919 106.086218C92.4829687 106.492249 92.7039601 106.862604 92.9083356 107.187089 93.1692052 107.606711 93.396843 107.949883 93.5696483 108.209811L93.2423151 108.42217C92.7388535 107.824166 92.3533647 107.737524 91.7618388 108.124867 91.7169759 108.155447 91.6770978 108.191123 91.6222653 108.228499L92.4746608 109.5842C92.8734423 110.21958 93.0229853 110.372478 93.8006092 109.906987L94 110.224676C93.7191914 110.374177 93.388535 110.58144 93.0096926 110.831174 92.0625865 111.452962 91.4909997 111.838607 91.2932706 112L91.0938798 111.68231zM94.6033201 103.137133C94.078006 102.523821 93.8521381 102.412775 93.2344235 102.877458L93 102.604115C93.4329135 102.253895 93.8435825 101.91905 94.204629 101.61154 94.5930534 101.28182 95.0122779 100.912807 95.452036 100.501085L95.693304 100.78297C95.1423231 101.314279 95.1714122 101.556871 95.6710594 102.144558L97.2367349 103.977662C98.1282287 105.023197 98.8041214 105.216246 99.7229932 104.433802 100.260285 103.975953 100.520375 103.451477 100.477597 102.986795 100.429686 102.516987 100.131951 102.098431 99.6750818 101.560288L98.2907852 99.9407327C97.8150936 99.3820887 97.5053808 99.3052111 96.9458443 99.693016L96.7233986 99.4333404C96.9954668 99.2249167 97.2778017 98.9959922 97.5755367 98.7448587 97.9211831 98.4510153 98.203518 98.1947566 98.4054303 98L98.6381427 98.2767594C98.1949624 98.755109 98.2069403 99.0711615 98.6723651 99.6127216L100.056662 101.23911C100.581976 101.850714 100.929333 102.359815 100.990934 102.961169 101.064512 103.688944 100.689776 104.450886 99.8838386 105.13766 99.1429233 105.766348 98.4601862 106.053357 97.734671 105.991855 97.1648678 105.938895 96.6635094 105.549382 96.0714617 104.8609L94.6033201 103.137133z"/>
    <path fill="#FFF" d="M99.9155176 96.9211236C99.8157146 97.0155056 99.7351718 97.0957303 99.65638 97.1806742 98.9805209 97.8853933 98.9314949 98.3557303 99.5898446 99.0557303L99.3429634 99.3137079 98 98.1905618C98.5305318 97.685618 99.0768221 97.1303371 99.654629 96.5262921 100.538849 95.6013483 101.33202 94.7613483 102.020136 94L103.4594 95.0098876 103.221274 95.261573C102.370322 94.7991011 101.822281 94.9044944 101.184942 95.5698876 101.092143 95.6658427 100.997592 95.7759551 100.901291 95.8923596L104.47494 98.6530337C104.928431 99.0006742 105.189319 98.9534831 105.705844 98.4422472L106 98.668764C105.613044 99.0352809 105.259357 99.3907865 104.930182 99.7337079 104.64478 100.032584 104.250821 100.458876 103.769315 101L103.473408 100.770337C103.942657 100.230787 103.946159 100.032584 103.489166 99.6802247L99.9155176 96.9211236zM105.715447 92.167303C105.019525 91.7367423 104.762034 91.6983927 104.311425 92.3433622L104 92.146385C104.311425 91.6757316 104.603712 91.2207667 104.855984 90.812867 105.129133 90.3718473 105.41968 89.8820191 105.718927 89.3468688L106.040791 89.5438459C105.673692 90.2289081 105.774601 90.4590054 106.440946 90.8721345L108.525231 92.1655598C109.711778 92.90466 110.426838 92.8785126 111.072305 91.8361024 111.449843 91.2225098 111.540312 90.6333215 111.352414 90.1957881 111.161035 89.7530252 110.746962 89.4392563 110.13455 89.0627336L108.290358 87.9174769C107.655329 87.5235226 107.333465 87.5461836 106.914172 88.0952793L106.618406 87.9122474C106.816743 87.626369 107.018561 87.3160864 107.227337 86.9761701 107.47091 86.585702 107.665768 86.249272 107.799733 86L108.111158 86.1917477C107.82931 86.7966245 107.940657 87.0999345 108.558288 87.4816867L110.40248 88.6286865C111.103622 89.0609904 111.595986 89.4444858 111.844778 90.0127562 112.142285 90.6960752 112.013539 91.550224 111.446363 92.4671266 110.926161 93.3108165 110.355506 93.8023878 109.633487 93.9645018 109.066311 94.0917525 108.459119 93.8721143 107.672727 93.3822861L105.715447 92.167303zM112.165136 87.8515112C112.454174 87.1507773 112.354562 86.9222046 111.725862 86.6519215L108.35048 85.198733C107.811594 84.9668235 107.630333 85.0569178 107.326597 85.770999L107 85.6308522C107.195958 85.2020698 107.342927 84.8433608 107.463768 84.5513884 107.684221 84.0174959 107.893244 83.4418931 108.147989 82.82458 108.783221 81.2829655 109.516432 80.7173732 110.479894 81.1311398 111.206573 81.4431332 111.508675 82.1522091 111.283323 83.114884 111.477648 82.9246848 111.853235 82.8512746 112.39702 82.7228067L113.837314 82.3907923C114.26189 82.2990296 114.547663 82.115504 114.697898 81.845221L115 81.9770257C114.903654 82.1622196 114.74852 82.5175918 114.536232 83.0331317 114.444785 83.2500255 114.356603 83.4669193 114.288018 83.6804763L111.849969 84.2110319C111.343744 84.3211473 111.054705 84.3928891 110.925699 84.7065509 110.914268 84.7332455 110.911002 84.7599401 110.897938 84.7966452L112.302307 85.3989427C112.872219 85.6458679 113.1188 85.5340842 113.362115 84.9434657 113.37028 84.9251131 113.373546 84.916771 113.381711 84.9000869L113.723005 85.0469073C113.326189 85.9662034 113.063278 86.5785113 112.935905 86.8905047 112.805266 87.2041666 112.655032 87.5712176 112.50643 88L112.165136 87.8515112zM110.648091 84.3528471C111.005715 83.4886087 110.821188 82.9363637 110.037355 82.5993441 109.229026 82.252314 108.730966 82.4775499 108.402735 83.280057 108.275362 83.5870451 108.296591 83.6738027 108.566034 83.7905916L110.523984 84.6331407C110.571341 84.5380411 110.613799 84.4362678 110.648091 84.3528471L110.648091 84.3528471zM115.340338 79.9093278C115.52741 79.2214695 115.289173 79.0713913 114.449749 78.8525274L111.349475 78.0505472C110.753084 77.8973424 110.490863 78.0020844 110.343764 78.5461178 110.337369 78.5695675 110.332572 78.5852006 110.324577 78.6102137L110 78.5257947C110.187072 77.9614382 110.356556 77.4064617 110.505254 76.8577384 110.660347 76.2777488 110.911375 75.3210005 111.22476 74L112.692554 74.3814487 112.601416 74.7175612C111.624486 74.681605 111.395843 75.059927 111.109639 76.1182908 110.997716 76.5294424 111.000914 76.5825951 111.243947 76.646691L113.089082 77.1235018C113.101873 77.0750391 113.113065 77.025013 113.127455 76.9843669 113.301736 76.3371548 113.132252 76.0369984 112.46391 75.7227723L112.556647 75.3804065C112.908406 75.5070349 113.274555 75.6102137 113.642302 75.7055758 114.072407 75.8165711 114.46254 75.8994268 114.820694 75.9682126L114.732755 76.293382C113.984468 76.2324127 113.685473 76.4434601 113.504797 77.1172486 113.495203 77.1500782 113.48561 77.1829078 113.474418 77.2219906L114.974189 77.6112559C115.57058 77.7675873 115.872773 77.5455967 116.050251 76.8890047 116.309274 75.9322564 116.138191 75.4398124 115.215624 75.005211L115.297168 74.7050547 117 75.1427827C116.632252 76.3637311 116.362037 77.3658155 116.152581 78.1349661 116.106213 78.3006774 116.06624 78.4554455 116.021471 78.6211569 115.895158 79.0885878 115.772042 79.5466389 115.693696 80L115.340338 79.9093278z"/>
    <path fill="#FFF" d="M64.4949097,20 C40.4771814,20 21,39.7025683 21,63.9957097 C21,88.3008639 40.4771814,108 64.4949097,108 C88.5313024,108 108,88.3008639 108,63.9957097 C108,39.7025683 88.5313024,20 64.4949097,20 M64.4949097,106.35769 C41.3764676,106.35769 22.627199,87.3930459 22.627199,63.9957097 C22.627199,40.6189668 41.3764676,21.6543224 64.4949097,21.6543224 C87.6235324,21.6543224 106.364317,40.6189668 106.364317,63.9957097 C106.364317,87.3930459 87.6235324,106.35769 64.4949097,106.35769"/>
    <path fill="#B0851E" d="M93.1800645,67.4126264 C93.4002951,66.9432632 93.5798678,66.384094 93.7543582,65.7249522 C93.9152959,65.0810604 94,64.2643345 94,63.2968024 C94,61.9649631 93.7729931,60.7398743 93.3426963,59.6147581 C92.8819061,58.4862531 92.278813,57.5238043 91.4995355,56.7172451 C90.7270343,55.9140749 89.8071479,55.2854332 88.7381824,54.8431812 C87.6675228,54.4009292 86.5070769,54.1806505 85.2619269,54.1806505 C83.3442265,54.1806505 81.8280234,54.7550697 80.6845183,55.9022137 C80.1864583,56.4139382 79.7341385,57.0544411 79.3106181,57.7762777 C79.1683152,57.1391637 78.9802721,56.5427166 78.7041368,56.0038808 C78.3466856,55.2362941 78.0298923,54.6059579 77.7757801,54.1162613 L75.3312203,49.4395737 C74.9788513,48.7685706 74.662058,48.0874009 74.3554293,47.3842033 C74.0640472,46.6759224 73.8675337,45.9642525 73.7658888,45.2661383 C73.6693262,44.5459962 73.7116782,43.8563542 73.9048035,43.1565455 C74.0911525,42.4584313 74.494344,41.7925116 75.1228482,41.1689533 C75.9105962,40.3928942 76.7135909,39.8981142 77.5589376,39.7151134 C78.3856495,39.5236403 79.2072791,39.5168625 80.0051915,39.69478 C80.8081862,39.871003 81.5620526,40.1827822 82.2532379,40.6233397 C82.9545877,41.0689806 83.5458222,41.5247882 84.0100005,41.9941514 C84.8570414,42.8329052 85.4482759,43.7191036 85.7718455,44.6679967 C86.1055795,45.6151954 86.2512706,46.5590052 86.2038363,47.5095928 C86.1479316,48.4652637 85.9429477,49.4124624 85.5685557,50.3545778 C85.1975518,51.2966931 84.7181267,52.1828915 84.1251981,52.9962285 L84.475873,53.350369 L89.8071479,48.0280951 L89.3988743,47.607871 C88.9618012,47.7298715 88.6636428,47.7790107 88.4993169,47.7603717 C88.3536259,47.7417327 88.1469479,47.5993987 87.8911416,47.3469254 C87.6234767,47.0690353 87.4066342,46.7487838 87.2592491,46.3607543 C87.111864,45.9828915 86.945844,45.5457229 86.7611891,45.0661929 C86.5697579,44.5849686 86.3071753,44.0647718 85.9615826,43.4801858 C85.6193781,42.8955999 85.1043773,42.2669582 84.4182742,41.5807051 C83.4814471,40.6368953 82.4548336,39.9336977 81.3469042,39.4440011 C80.2440571,38.9644712 79.1293513,38.7204701 78.002787,38.6984422 C76.8880813,38.6781088 75.7970927,38.8949986 74.7281272,39.3321673 C73.6574676,39.7693359 72.6867588,40.4352555 71.8075305,41.3146761 C70.4539592,42.6685433 69.7881851,44.1579667 69.7915733,45.7744739 C69.7915733,46.4861438 69.9169354,47.2571194 70.1337778,48.0585952 C69.5848953,47.7180104 69.0292366,47.4282591 68.4532488,47.2266193 C67.6468659,46.9453403 66.9810919,46.7318393 66.4542325,46.5590052 L61.4295863,44.9899426 C60.7011312,44.7679694 59.9845347,44.5053293 59.2814908,44.2172725 C58.5699765,43.9275212 57.9346959,43.563214 57.3604022,43.1362121 C56.7979671,42.7075157 56.3320946,42.1720689 55.9678671,41.5451216 C55.61211,40.9249522 55.4291491,40.1726155 55.4291491,39.2796392 C55.4291491,38.1714676 55.6629324,37.2547691 56.1169463,36.5380159 C56.567572,35.8144848 57.1571124,35.2298989 57.8499918,34.7893414 C58.5344008,34.3403116 59.2814908,34.0268379 60.0929559,33.8540038 C60.8908684,33.671003 61.629488,33.5828915 62.2986502,33.5828915 C63.4862014,33.5828915 64.534838,33.7913091 65.4394776,34.2301722 C66.3322586,34.6571741 67.108148,35.2248155 67.7451227,35.9280131 C68.3871796,36.639683 68.9106509,37.4614922 69.307066,38.3934408 C69.7085633,39.3186116 69.9982513,40.2929216 70.1676594,41.2807871 L70.657249,41.2807871 L70.657249,33.7489478 L70.0744849,33.7489478 C69.8576425,34.131894 69.681458,34.3809784 69.5611782,34.4877289 C69.4358162,34.570757 69.1884802,34.6198961 68.831029,34.6198961 C68.4396962,34.6198961 68.0602219,34.5419514 67.689218,34.3691172 C67.3097437,34.199672 66.8862233,34.0268379 66.4135745,33.8099481 C65.9443139,33.599836 65.3801847,33.4185297 64.7330455,33.2490844 C64.0723537,33.0813337 63.2710531,33 62.2986502,33 C60.9704902,33 59.7371988,33.2168899 58.6140226,33.6608363 C57.4993169,34.113255 56.5235259,34.7164799 55.7290016,35.4925389 C54.9243128,36.2753758 54.2958085,37.20563 53.8434887,38.2646625 C53.4098038,39.3321673 53.186185,40.4945614 53.186185,41.7416781 C53.186185,43.6547144 53.7604787,45.1780268 54.907372,46.3234764 C55.4155965,46.8199508 56.0542653,47.2655917 56.7725559,47.6858158 C56.1457457,47.8349276 55.5477348,48.0280951 55.0005465,48.2839574 C54.2365157,48.6618202 53.6147877,48.9719049 53.1218099,49.2328505 L48.4444505,51.6660836 C47.7735942,52.0286964 47.085797,52.3506423 46.379365,52.6505603 C45.6763211,52.9352282 44.968195,53.1436458 44.2651511,53.2351462 C43.5553309,53.33173 42.8488988,53.2893687 42.1577135,53.1080623 C41.461446,52.9132003 40.7956719,52.5065318 40.1739439,51.8795846 C39.3946664,51.0933588 38.9084649,50.2901886 38.722116,49.4531293 C38.5374611,48.61607 38.5239084,47.7993441 38.7051751,46.9927849 C38.8779715,46.1963925 39.1846003,45.4423613 39.6318378,44.7459415 C40.072299,44.0478273 40.528007,43.4615469 40.9972676,42.9955726 C41.8409203,42.1534299 42.7353954,41.5620661 43.6739166,41.2299535 C44.6175201,40.8961465 45.5611236,40.7487292 46.5199738,40.8012572 C47.4669654,40.8453129 48.4088748,41.0588139 49.3490901,41.4298989 C50.2960818,41.8026783 51.1668397,42.2872916 51.9969397,42.8786554 L52.354391,42.521126 L47.0265042,37.20563 L46.6131483,37.610604 C46.731734,38.0409948 46.7859446,38.3290517 46.7605334,38.4900246 C46.7351221,38.6493031 46.6063719,38.8543318 46.3505656,39.1068051 C46.0829007,39.3796119 45.7457785,39.5998907 45.3595278,39.7422247 C44.9800536,39.8828642 44.5514509,40.0506149 44.0737199,40.242088 C43.5807421,40.4284777 43.0606591,40.6962011 42.4846713,41.036786 C41.9069895,41.3756764 41.2700148,41.9009565 40.5923821,42.5872096 C39.6420023,43.5191582 38.9338762,44.5459962 38.4544511,45.6558623 C37.9682496,46.760645 37.7209137,47.8840667 37.7005847,48.9956272 C37.6870321,50.1173545 37.892016,51.210276 38.3358653,52.2743919 C38.7712443,53.350369 39.4421007,54.3179011 40.319635,55.202405 C41.6765943,56.5596611 43.1572217,57.2306641 44.7801519,57.2171085 C45.4984425,57.2120251 46.2573911,57.0934135 47.0671621,56.8646625 C46.7266517,57.428915 46.4335756,57.9796119 46.2302858,58.5455589 C45.9558446,59.3504236 45.7390021,60.0231211 45.5729821,60.5517901 L43.9822395,65.5910905 C43.7687852,66.3112326 43.5197552,67.0245969 43.2215968,67.7193222 C42.9200503,68.434381 42.5659872,69.0714949 42.1323023,69.6408308 C41.7053937,70.218639 41.1802284,70.6727521 40.5585005,71.0387538 C39.9333843,71.3962831 39.1710476,71.5725061 38.2935133,71.5725061 C37.1821957,71.5725061 36.2690857,71.3505329 35.5457129,70.8964198 C34.8206459,70.4270566 34.2395759,69.8594151 33.7957265,69.1646898 C33.3569594,68.46827 33.0435543,67.7159333 32.8639816,66.9127631 C32.6776327,66.1095928 32.5861522,65.3775895 32.5861522,64.7133643 C32.5861522,63.5170812 32.8046888,62.4732987 33.2366796,61.563378 C33.6618941,60.6636239 34.2361878,59.8994261 34.9375376,59.2589232 C35.6456637,58.6201148 36.4639051,58.1016125 37.4007323,57.6983329 C38.3240068,57.3001366 39.2879392,57.0086909 40.2891415,56.8528013 L40.2891415,56.3427712 L32.7555604,56.3427712 L32.7555604,56.9256627 C33.1435051,57.1527193 33.3874529,57.3204701 33.4823214,57.447554 C33.5839663,57.5695545 33.6314006,57.8152501 33.6314006,58.1744739 C33.6314006,58.5641979 33.5450025,58.9488385 33.3874529,59.3233124 C33.2146565,59.6927029 33.0266135,60.1197048 32.8114651,60.5890681 C32.6115635,61.0516535 32.4235204,61.6243782 32.2541122,62.2733534 C32.0897863,62.9291063 32,63.7373599 32,64.7133643 C32,66.0452036 32.228701,67.268598 32.6708563,68.3903252 C33.1096235,69.5171358 33.7262692,70.4829735 34.5004645,71.2878382 C35.2865184,72.0876196 36.2064047,72.7162613 37.2736762,73.1585133 C38.3358653,73.5973763 39.4980054,73.8227385 40.7499317,73.8227385 C42.6540795,73.8227385 44.1855293,73.2449303 45.3273403,72.0960918 C45.8254003,71.5843673 46.276026,70.9489478 46.6961583,70.2321946 C46.8401552,70.8591418 47.0332805,71.4606723 47.2941691,72.002897 C47.6617848,72.7704837 47.9785781,73.4008199 48.2360785,73.8905165 L50.6806383,78.573982 C51.0228428,79.2382072 51.3616591,79.9210713 51.6445707,80.639519 C51.9393409,81.3427166 52.1341603,82.0408308 52.2324171,82.7525007 C52.3306738,83.4556983 52.2950981,84.1588959 52.107055,84.8451489 C51.920706,85.5449576 51.5141265,86.2159606 50.8839281,86.8344356 C50.1029564,87.6189669 49.284715,88.1069691 48.4529209,88.2933588 C47.6279032,88.4831375 46.8096617,88.4882208 46.0032789,88.3086089 C45.1952019,88.1357748 44.4396415,87.8273845 43.745068,87.3834381 C43.0521886,86.9428806 42.4677305,86.4802952 42.0035521,86.0160153 C41.1548172,85.1704837 40.5618886,84.2775075 40.2349309,83.3370866 C39.8944205,82.3949713 39.7555058,81.4443837 39.8063282,80.5039628 C39.8520684,79.544903 40.0638286,78.5977043 40.4365266,77.6538945 C40.8160009,76.718557 41.2903437,75.8374419 41.8748019,75.0088549 L41.5258211,74.6564089 L36.2064047,79.9769882 L36.6129843,80.392129 C37.0483633,80.2718229 37.3397453,80.2294616 37.4922127,80.2430172 C37.6565386,80.268434 37.8530521,80.4073791 38.120717,80.6598524 C38.3866878,80.9292703 38.5967539,81.2613829 38.7492213,81.6409401 C38.8966064,82.0204974 39.0660145,82.4627494 39.2540576,82.9338071 C39.4319362,83.4235037 39.6962129,83.9538672 40.0401115,84.5316753 C40.3857041,85.1044001 40.8956227,85.7347363 41.586808,86.4176004 C42.5219411,87.3698825 43.5553309,88.076469 44.658178,88.5610823 C45.7661074,89.0423066 46.8791191,89.2913911 47.998907,89.313419 C49.1136128,89.3269746 50.2062954,89.1270292 51.2735669,88.676305 C52.3493087,88.2357475 53.3250997,87.5732167 54.2127985,86.6954906 C55.5646757,85.3399289 56.2304498,83.8454222 56.2168971,82.2373873 C56.2168971,81.5206341 56.089841,80.7530473 55.8746926,79.9515715 C56.4269632,80.2921563 56.9843161,80.5819076 57.5586098,80.7716863 C58.3582163,81.0495764 59.0239904,81.2783274 59.5440734,81.4409948 L64.5788841,83.023613 C65.302257,83.2489751 66.0222417,83.5048374 66.7320619,83.7878109 C67.4300235,84.08434 68.0737745,84.4486472 68.6395978,84.8807324 C69.2071151,85.3094288 69.6780698,85.8330145 70.0355211,86.449795 C70.4031368,87.0750478 70.5776272,87.8392457 70.5776272,88.7254441 C70.5776272,89.8370046 70.3438439,90.7469254 69.88983,91.4670675 C69.4358162,92.1905985 68.8632166,92.7701011 68.1635609,93.2174365 C67.4706815,93.657994 66.7202033,93.9748565 65.9138204,94.1561629 C65.115908,94.3323859 64.3806765,94.4171085 63.7098202,94.4171085 C62.5188808,94.4171085 61.4702443,94.2120798 60.5639106,93.7850779 C59.6660473,93.3462148 58.9037106,92.7836567 58.2616536,92.0719869 C57.6145145,91.3654004 57.0995136,90.5486745 56.6997104,89.6167259 C56.3016012,88.6830828 56.0153014,87.7291063 55.8543636,86.7209074 L55.3410569,86.7209074 L55.3410569,94.2561356 L55.9322914,94.2561356 C56.152522,93.8647171 56.3202361,93.6291883 56.4506804,93.5275212 C56.567572,93.4343263 56.8199902,93.3851872 57.1723591,93.3851872 C57.5619979,93.3851872 57.9550249,93.4563542 58.3209465,93.6359661 C58.6987267,93.8054113 59.120553,93.9901066 59.59659,94.1968297 C60.0624624,94.4018584 60.6232035,94.5933315 61.278813,94.7627767 C61.9225641,94.9220552 62.7391114,95 63.7098202,95 C65.0379802,95 66.2678835,94.7814157 67.3944478,94.3425526 C68.5159298,93.9003006 69.47478,93.2852145 70.282857,92.5040722 C71.0892398,91.7364854 71.7092737,90.813009 72.1582054,89.7438098 C72.5952784,88.6695272 72.8205913,87.510522 72.8205913,86.2684887 C72.8205913,84.3571468 72.2496858,82.828751 71.1027925,81.6934682 C70.5894858,81.186827 69.9542051,80.7361028 69.2308323,80.3175731 C69.8644188,80.1684613 70.4607356,79.9769882 70.9977594,79.7160426 C71.7719548,79.350041 72.3953768,79.0264007 72.896825,78.7773162 L77.5674081,76.3339164 C78.2280999,75.9831648 78.9260615,75.6595245 79.6274113,75.3697732 C80.325373,75.0698552 81.0351932,74.8716043 81.7467075,74.7716316 C82.4463632,74.6767423 83.1544893,74.7191036 83.8456746,74.9088822 C84.5470244,75.0851052 85.2043281,75.4985515 85.8345265,76.1305821 C86.6205804,76.9083356 87.0983114,77.723367 87.2863544,78.5502596 C87.4811738,79.3873189 87.4811738,80.2074337 87.2965189,81.0156873 C87.1254167,81.8137743 86.8238702,82.5694999 86.3766326,83.2625307 C85.9361714,83.9640339 85.4753812,84.5384531 85.0044265,85.0112052 C84.1624679,85.8533479 83.273075,86.4430172 82.3311656,86.7819076 C81.3977267,87.1140202 80.4439587,87.2512708 79.4851085,87.2072151 C78.5448932,87.1546871 77.587737,86.9496584 76.6475217,86.5751845 C75.7090005,86.1956272 74.826384,85.726264 74.0047544,85.1298169 L73.6574676,85.4822629 L78.9802721,90.813009 L79.3902399,90.4029516 C79.2767364,89.9708664 79.2225258,89.6726428 79.247937,89.5116699 C79.2581015,89.3557803 79.3902399,89.1558349 79.6494344,88.9016671 C79.9340401,88.6271659 80.2576097,88.4136649 80.6387781,88.2662476 C81.0284169,88.110358 81.4553254,87.952774 81.9364446,87.7613009 C82.4158697,87.5799945 82.9478114,87.31566 83.520411,86.9699918 C84.1048691,86.6311014 84.7384557,86.1075157 85.4262528,85.4212626 C86.3630799,84.4876196 87.0745942,83.4641705 87.5557134,82.3441377 C88.0317504,81.239355 88.2841685,80.1277945 88.3061916,79.0060672 C88.3282147,77.8945067 88.1113722,76.8015851 87.6742991,75.728997 C87.2287557,74.6581033 86.5646757,73.6837934 85.6888355,72.8060672 C84.3403465,71.4522001 82.8529428,70.7710303 81.2317067,70.7896693 C80.513416,70.7896693 79.745997,70.9201421 78.9446964,71.1319486 C79.2784305,70.5880295 79.5748948,70.0186936 79.7764905,69.45783 C80.0458495,68.6478819 80.2711624,67.9836567 80.4405705,67.4583766 L82.0143724,62.4224652 C82.2379911,61.6938508 82.4971856,60.978792 82.7817914,60.2772889 C83.0748675,59.5690079 83.437401,58.931894 83.8676977,58.3625581 C84.2996885,57.7915277 84.8265479,57.3408035 85.4567463,56.9697185 C86.0666157,56.6071058 86.8306465,56.4325772 87.7166512,56.4325772 C88.8262747,56.4325772 89.7444669,56.6596338 90.4627575,57.1154414 C91.1844363,57.5695545 91.7739767,58.1405849 92.2093557,58.8454769 C92.6548992,59.5402022 92.9716924,60.2874556 93.1394065,61.0923203 C93.3325318,61.8904072 93.4172359,62.6308828 93.4172359,63.2968024 C93.4172359,64.4896966 93.1970053,65.5334791 92.7734849,66.4433998 C92.3465763,67.3431539 91.7739767,68.1073517 91.0709328,68.7478546 C90.3526422,69.3832741 89.539483,69.9051653 88.6094322,70.3084449 C87.6827696,70.7168079 86.7205312,70.994698 85.7193289,71.1573654 L85.7193289,71.6606177 L93.2478278,71.6606177 L93.2478278,71.0726428 C92.8666594,70.8557529 92.6193235,70.676141 92.526149,70.5660016 C92.4278922,70.4270566 92.3804579,70.1881388 92.3804579,69.8204427 C92.3804579,69.4358021 92.4600798,69.0630227 92.629488,68.6783821 C92.7921198,68.310686 92.9750806,67.887073 93.1800645,67.4126264 L93.1800645,67.4126264 Z M72.8409203,57.9033616 C73.2017597,57.0408855 73.4219903,56.1445204 73.5253293,55.1990161 L73.8031586,55.734463 C74.0979288,56.2682154 74.3554293,56.8646625 74.6078474,57.5492211 C74.8517952,58.2168352 74.9991803,58.9200328 75.0432264,59.6672861 C75.0788021,60.112927 75.0296738,60.5585679 74.9602164,61.0177644 L72.5190448,58.5743646 C72.6393246,58.3591692 72.7477458,58.1405849 72.8409203,57.9033616 L72.8409203,57.9033616 Z M70.3743374,56.6850506 C70.3743374,57.3408035 70.2574458,58.0745012 70.0355211,58.8641159 C70.0101098,58.984422 69.9558992,59.0827002 69.9220176,59.1962285 C69.6221651,59.4334518 69.2765725,59.6672861 68.831029,59.8875649 C68.2228537,60.1756218 67.6671949,60.4602897 67.1521941,60.7398743 C66.7202033,60.9754031 66.3475053,61.2007652 66.0222417,61.4261274 C65.6918957,61.6531839 65.3717143,61.881935 65.0667796,62.1276305 C64.7499863,62.3563815 64.4298049,62.620716 64.1079294,62.9291063 C63.9503798,63.0765236 63.7911361,63.2290243 63.6166457,63.3984695 L63.5963167,63.3984695 L63.5963167,63.3611916 C64.4433576,62.3953539 65.1040494,61.3820716 65.5445106,60.307789 C66.07137,59.0606723 66.3322586,57.8152501 66.3695284,56.5833834 C67.0065031,56.0394643 67.8179682,55.5311287 68.7920651,55.0854878 C69.163069,54.9007926 69.5679545,54.7398196 70.0101098,54.5924023 C70.2438931,55.1956272 70.3743374,55.8886581 70.3743374,56.6850506 L70.3743374,56.6850506 Z M68.7514072,61.2126264 C68.2059129,61.8209347 67.4960927,62.3512982 66.6236406,62.7579667 C66.0442647,63.0307734 65.3513853,63.2036075 64.57719,63.3171358 C64.5992131,63.291719 64.6144598,63.2747745 64.6381769,63.2544411 C65.0735559,62.852856 65.5851686,62.4749932 66.1696268,62.1377972 C66.7456145,61.7955179 67.3944478,61.5193222 68.0974917,61.3176824 C68.2973933,61.2668489 68.5227062,61.2380432 68.7514072,61.2126264 L68.7514072,61.2126264 Z M63.6268102,62.3953539 L63.6268102,62.3123258 C63.6505274,61.7192676 63.7521722,61.0940148 63.9215804,60.4450396 C64.0892945,59.7960645 64.3467949,59.1470894 64.7110225,58.508281 C64.8194437,58.3151134 64.9481939,58.1304181 65.0820263,57.9406395 C65.1430133,58.7726155 65.0091808,59.6418694 64.680529,60.5585679 C64.4619925,61.1584039 64.1079294,61.77349 63.6268102,62.3953539 L63.6268102,62.3953539 Z M64.7957265,50.5206341 C65.3717143,50.6883848 65.9951363,50.9188303 66.6422755,51.228915 C67.2928029,51.5322219 67.9043664,51.9304181 68.4532488,52.413337 C68.7954533,52.7098661 69.0851413,53.0623121 69.3561943,53.4333971 L65.8985737,53.4333971 C65.8274223,53.2063405 65.7461063,52.9640339 65.6478496,52.7335884 C65.2870102,51.8677234 64.8143614,51.0747199 64.2180447,50.3511888 L64.7957265,50.5206341 Z M60.780753,53.6028423 C60.9213618,53.2114239 61.1026286,52.8047554 61.3042243,52.394698 C61.8971528,52.6556436 62.4782229,53.047062 63.0355757,53.613009 C63.5065304,54.0925389 63.9452976,54.6855972 64.3366304,55.3938781 C64.4010055,55.5006286 64.4433576,55.6124624 64.4992623,55.7141295 C64.4535221,56.0919923 64.3806765,56.5037442 64.2078802,56.9697185 C63.9910378,57.6068325 63.7911361,58.2083629 63.6268102,58.7641432 C63.4862014,59.2301175 63.3845565,59.6571194 63.3201814,60.0536212 C63.2507241,60.4416507 63.186349,60.8296802 63.1287502,61.2126264 C63.0779278,61.6006559 63.040658,62.02088 63.0321876,62.4614376 C63.0237171,62.6681607 63.0152467,62.8952173 63.0084704,63.1324406 C63.0050822,63.1358295 62.9966118,63.1476906 62.9966118,63.1544684 C62.9898355,63.1358295 62.979671,63.1324406 62.9712006,63.1222738 C62.8848024,61.8378792 62.6323843,60.6585406 62.1936171,59.5893414 C61.6786163,58.3439191 60.9908192,57.2781088 60.1437783,56.3851325 C60.2064594,55.5379065 60.4199137,54.6059579 60.780753,53.6028423 L60.780753,53.6028423 Z M62.315591,62.429243 C62.293568,62.4072151 62.2766271,62.3868817 62.2512159,62.3682427 C61.8548008,61.9310741 61.4821028,61.4159606 61.1365102,60.836458 C60.7959998,60.2586499 60.5198645,59.618147 60.3301273,58.9081716 C60.2725286,58.7065318 60.2555877,58.4811697 60.2115416,58.2693632 C60.8264933,58.8098934 61.3398,59.5097021 61.7565441,60.3857338 C62.0275971,60.963542 62.2037816,61.6531839 62.315591,62.429243 L62.315591,62.429243 Z M54.7362697,53.2063405 C55.2614351,52.9132003 55.862834,52.6471714 56.5438549,52.394698 C57.2265698,52.1422247 57.9296136,52.0032796 58.6614569,51.9490571 C59.1103885,51.9270292 59.5694847,51.9693905 60.0285808,52.0371686 L57.5789387,54.4822629 C57.3604022,54.3755124 57.1435598,54.2552063 56.9030002,54.1670948 C56.0424067,53.8061766 55.136073,53.5842033 54.2009399,53.489314 L54.7362697,53.2063405 Z M55.6832614,56.6325225 C56.3405651,56.6325225 57.0791847,56.7528286 57.8635445,56.9697185 C57.9702716,56.9968297 58.0871632,57.0442744 58.2023608,57.0815523 C58.4361441,57.3848593 58.6682332,57.7322219 58.8850757,58.1744739 C59.18154,58.7827822 59.4610634,59.3470347 59.7371988,59.8553703 C59.9777583,60.2874556 60.2064594,60.6636239 60.4351604,60.9855698 C60.6520028,61.3058213 60.8857861,61.6243782 61.1178753,61.9412408 C61.3618231,62.2564089 61.6210175,62.5698825 61.9225641,62.9019951 C62.0699492,63.0578847 62.232581,63.2137743 62.3935188,63.3916917 L62.3935188,63.4137196 L62.3681075,63.4137196 C61.3906224,62.5512435 60.3809498,61.897185 59.306902,61.454933 C58.0634461,60.9432085 56.8216842,60.6704017 55.5934751,60.644985 C55.0412044,60.0027876 54.534674,59.1911451 54.077272,58.2168352 C53.9044757,57.8457502 53.7418438,57.4390817 53.5961528,57.0019131 C54.2009399,56.7646898 54.8938193,56.6325225 55.6832614,56.6325225 L55.6832614,56.6325225 Z M61.4041751,63.3764417 L61.319471,63.3764417 C60.718072,63.3510249 60.0929559,63.2544411 59.450899,63.0799125 C58.7986775,62.9189396 58.1481502,62.6596884 57.5128696,62.2936868 C57.314662,62.1869363 57.1266189,62.0598524 56.9334936,61.9209074 C57.7618996,61.863296 58.6394338,61.9971577 59.5525439,62.3292703 C60.1674955,62.5427712 60.780753,62.9019951 61.4041751,63.3764417 L61.4041751,63.3764417 Z M49.345702,62.7884668 L49.5218864,62.215742 C49.6862124,61.6243782 49.9233838,61.0177644 50.2283185,60.360317 C50.5383354,59.7164253 50.9313624,59.1047281 51.4192579,58.5455589 C51.7055577,58.2117518 52.064703,57.9169172 52.437401,57.6508882 L52.437401,61.0990981 C52.1985354,61.173654 51.9715285,61.2617655 51.732663,61.3481826 C50.8703754,61.7175731 50.072463,62.1920197 49.345702,62.7884668 L49.345702,62.7884668 Z M53.1607738,70.1017218 C52.8100989,70.9692812 52.5864801,71.8639519 52.4916116,72.8077617 L52.2053118,72.2740093 C51.9105416,71.7470347 51.6411826,71.1353375 51.3955407,70.4626401 C51.1532871,69.7831648 50.9991256,69.0714949 50.9550795,68.3411861 C50.9313624,67.8887674 50.9686322,67.4431265 51.0465599,66.9907078 L53.4809552,69.423941 C53.3674518,69.6476086 53.2556424,69.8746652 53.1607738,70.1017218 L53.1607738,70.1017218 Z M52.6017269,66.2231211 C52.2171703,66.084176 51.8122848,65.907953 51.3955407,65.7097021 C51.6564293,65.113255 52.0630089,64.5303635 52.625444,63.9779721 C53.0913165,63.5069145 53.6791628,63.0663569 54.3974534,62.6596884 C54.4990983,62.605466 54.6075195,62.5512435 54.7176348,62.5122711 C55.1004973,62.5461602 55.508771,62.6308828 55.9678671,62.7918557 C56.609924,63.0239956 57.2028526,63.2120798 57.7618996,63.3764417 C58.2362424,63.5170812 58.6614569,63.6187483 59.0510957,63.6899153 C59.4339581,63.7559989 59.8286792,63.8220825 60.2115416,63.8830828 C60.6028745,63.9356108 61.0230067,63.9694999 61.465162,63.9847499 C61.6701459,63.9949166 61.8971528,63.9949166 62.1394065,64 C62.1394065,64.0033889 62.1478769,64.0101667 62.1546533,64.0203334 C62.1478769,64.0220279 62.1394065,64.0305001 62.1326302,64.033889 C60.8400459,64.1203061 59.6609651,64.371085 58.5970818,64.8201148 C57.3400732,65.3318393 56.2829663,66.0214813 55.3884912,66.8737907 C54.5414504,66.7992348 53.6181759,66.5874283 52.6017269,66.2231211 L52.6017269,66.2231211 Z M61.4295863,64.6998087 C61.4126455,64.7218366 61.3906224,64.7320033 61.3719875,64.7506423 C60.9332204,65.1590052 60.4199137,65.5334791 59.8439259,65.870675 C59.2662441,66.2129544 58.6140226,66.4874556 57.9143669,66.6806231 C57.709383,66.7416234 57.4874583,66.7619568 57.2638396,66.7958459 C57.8093338,66.1773709 58.5089896,65.6622574 59.3814416,65.255589 C59.9675939,64.9810877 60.6520028,64.8031703 61.4295863,64.6998087 L61.4295863,64.6998087 Z M55.6409093,71.331894 C55.6409093,70.660891 55.7561069,69.9322766 55.9678671,69.1409675 C56.0085251,69.0274392 56.0441008,68.9206887 56.0847587,68.8105493 C56.3846112,68.573326 56.7268157,68.3411861 57.1723591,68.1293796 C57.7822285,67.8260727 58.3463577,67.5464881 58.8495,67.268598 C59.2899612,67.0262913 59.6660473,66.8094015 59.9845347,66.5704837 C60.3165747,66.3586772 60.6367561,66.118065 60.9383026,65.8842307 C61.25679,65.6503963 61.5735833,65.3775895 61.9039292,65.0810604 C62.0496202,64.9336431 62.2071698,64.7794479 62.3850484,64.6116972 L62.4070714,64.6116972 L62.4070714,64.6557529 C61.5515602,65.6283684 60.8959506,66.6331785 60.4605716,67.6989888 C59.9455708,68.9477999 59.6762118,70.181361 59.6423302,71.4200055 C58.9985792,71.9639246 58.1955845,72.4637879 57.2231816,72.9297622 C56.8437073,73.1076797 56.4337395,73.2618748 56.0085251,73.4109866 C55.7645773,72.8077617 55.6409093,72.1181197 55.6409093,71.331894 L55.6409093,71.331894 Z M62.3850484,65.608035 L62.3850484,65.6859798 C62.3511667,66.2892047 62.2512159,66.9127631 62.0936663,67.5566548 C61.9225641,68.2124078 61.6582873,68.8596884 61.3008361,69.4968024 C61.1839445,69.686581 61.0602765,69.881443 60.9264441,70.0661383 C60.8603749,69.2443291 60.9925133,68.3682973 61.3245533,67.4515988 C61.548172,66.8415961 61.9090114,66.2231211 62.3850484,65.608035 L62.3850484,65.608035 Z M61.2178261,77.4844493 C60.6367561,77.3166986 60.0201104,77.0777808 59.3594185,76.7761684 C58.7088912,76.4762503 58.104104,76.0746652 57.5586098,75.5917464 C57.2180993,75.2918284 56.919941,74.9427712 56.6607465,74.5682973 L60.1014263,74.5682973 C60.1810481,74.8004373 60.2555877,75.0376606 60.3504563,75.2765783 C60.718072,76.1305821 61.1924149,76.9303635 61.7870375,77.6538945 L61.2178261,77.4844493 Z M65.2277174,74.4090189 C65.0871086,74.7885761 64.9109241,75.200328 64.7110225,75.6137743 C64.1130116,75.3545231 63.5319416,74.9461602 62.979671,74.3954632 C62.5002459,73.9159333 62.0699492,73.3245696 61.6684518,72.6112052 C61.6074649,72.5061492 61.5634188,72.3993987 61.5125963,72.2892594 C61.5515602,71.913091 61.6379584,71.4996447 61.797202,71.0387538 C62.0140445,70.4033342 62.2156402,69.8085816 62.3850484,69.2443291 C62.5188808,68.7766603 62.6239139,68.3513528 62.6865949,67.9514621 C62.7526641,67.5668215 62.8221214,67.1804865 62.8814143,66.7958459 C62.9322367,66.402733 62.9644243,65.9875922 62.9881414,65.5470347 C62.9898355,65.3318393 62.9898355,65.113255 62.9966118,64.8675594 C63.0050822,64.8624761 63.0050822,64.8556983 63.0084704,64.8523094 C63.0237171,64.8624761 63.0355757,64.8726428 63.042352,64.8811151 C63.123668,66.1705931 63.374392,67.3465428 63.8216296,68.4089642 C64.3349363,69.6594698 65.0176512,70.7337524 65.8663861,71.6216453 C65.7969288,72.4637879 65.5851686,73.397431 65.2277174,74.4090189 L65.2277174,74.4090189 Z M63.6979616,65.5792293 C63.7182906,65.6029516 63.7318433,65.6198961 63.7521722,65.6368407 C64.1587518,66.0807871 64.5280616,66.5908172 64.8719602,67.1652364 C65.2141647,67.7481279 65.4936882,68.3903252 65.676649,69.1019951 C65.7376359,69.2951626 65.7579649,69.5256081 65.7969288,69.742498 C65.178589,69.2019678 64.6635882,68.5038535 64.2485382,67.6261274 C63.9740969,67.0466248 63.8063829,66.3586772 63.6979616,65.5792293 L63.6979616,65.5792293 Z M71.2772829,74.8004373 C70.7436472,75.0935775 70.1337778,75.3697732 69.4646156,75.6137743 C68.7920651,75.8543864 68.0805508,76.0001093 67.336849,76.0577207 C66.8946937,76.0916097 66.4372917,76.0390817 65.98836,75.9662203 L68.4278376,73.5228204 C68.6497623,73.6414321 68.8666047,73.7464881 69.0969998,73.8430719 C69.9626756,74.2006013 70.8723974,74.4293523 71.8075305,74.5208527 L71.2772829,74.8004373 Z M70.3269031,71.3691719 C69.6662113,71.3691719 68.9377562,71.2539492 68.1381496,71.0387538 C68.0229521,71.0014758 67.917919,70.9641979 67.8044155,70.923531 C67.5706323,70.6253075 67.3351549,70.2728614 67.1233947,69.8204427 C66.8320127,69.2206067 66.547407,68.6648265 66.2678835,68.1531019 C66.0341002,67.7159333 65.8070933,67.3431539 65.5800863,67.0245969 C65.3513853,66.6941787 65.1226843,66.3790107 64.8905951,66.065537 C64.6568118,65.750369 64.3806765,65.4267286 64.0723537,65.1098661 C63.9385212,64.9505876 63.7758894,64.7862257 63.6132576,64.6218639 L63.6132576,64.5896693 C63.6268102,64.5896693 63.6386688,64.5896693 63.6505274,64.5930582 C64.6144598,65.4521454 65.634297,66.1062039 66.6964861,66.5467614 C67.9450243,67.0618748 69.1935625,67.3329872 70.4200776,67.3634873 C70.9655719,68.0141569 71.4636319,68.8139382 71.9295043,69.7899426 C72.0989125,70.1644165 72.2615443,70.571085 72.4089294,71.0014758 C71.8075305,71.2403936 71.1248156,71.3691719 70.3269031,71.3691719 L70.3269031,71.3691719 Z M64.6093776,64.6303362 L64.6839172,64.6303362 C65.2870102,64.6557529 65.9070441,64.7506423 66.5575715,64.9150041 C67.213181,65.0861438 67.8620143,65.3555616 68.4939068,65.7097021 C68.6921143,65.818147 68.8767692,65.9537032 69.0682004,66.0807871 C68.2431827,66.1400929 67.3707306,66.0163979 66.444068,65.679202 C65.8409749,65.4640066 65.2311055,65.1013938 64.6093776,64.6303362 L64.6093776,64.6303362 Z M71.6042407,65.3453949 C71.5025958,65.4047007 71.3958686,65.4521454 71.2823652,65.4995901 C70.9096672,65.4572288 70.4996994,65.3708117 70.0355211,65.2081443 C69.4002405,64.9844766 68.8005355,64.7930036 68.2465709,64.6303362 C67.7705339,64.4896966 67.336849,64.3914184 66.9573747,64.3083903 C66.56943,64.2456955 66.1814853,64.1796119 65.7969288,64.1287784 C65.4055959,64.0694725 64.9888518,64.033889 64.5399202,64.0305001 C64.3349363,64.0220279 64.1079294,64.0101667 63.8690639,64.0101667 C63.8572053,64.0033889 63.8572053,64.0033889 63.8521231,63.9949166 C63.8572053,63.9847499 63.8656757,63.9779721 63.8741461,63.966111 C65.1633423,63.8847773 66.3475053,63.6323039 67.4147768,63.1883575 C68.6667031,62.6732441 69.7187278,61.9903799 70.6250615,61.1380705 C71.4636319,61.2092375 72.3919886,61.4159606 73.396579,61.7802678 C73.7879119,61.9209074 74.1961856,62.0988248 74.6044593,62.2987702 C74.3435707,62.8901339 73.9488497,63.4781088 73.3813323,64.0305001 C72.918848,64.4981689 72.3310017,64.9455042 71.6042407,65.3453949 L71.6042407,65.3453949 Z M76.4899721,65.7927303 C76.3171758,66.3722329 76.0800044,66.9907078 75.7801519,67.6430719 C75.470135,68.2971304 75.0788021,68.8935775 74.5875184,69.45783 C74.2978305,69.795026 73.9488497,70.0796939 73.5778458,70.3474173 L73.5778458,66.9059852 C73.8031586,66.8297349 74.0420242,66.7484012 74.2741133,66.6552063 C75.1364009,66.2993714 75.9360074,65.8130637 76.6593803,65.2233944 L76.4899721,65.7927303 Z"/>
  </g>
</svg>
