<?xml version="1.0" encoding="utf-8"?>
<!-- Generator: Adobe Illustrator 25.0.1, SVG Export Plug-In . SVG Version: 6.00 Build 0)  -->
<svg version="1.1" id="Layer_1" xmlns="http://www.w3.org/2000/svg" xmlns:xlink="http://www.w3.org/1999/xlink" x="0px" y="0px"
	 viewBox="0 0 90 90" style="enable-background:new 0 0 90 90;" xml:space="preserve">
<style type="text/css">
	.mkods891{fill:none;}
	.jko12w9ds{fill:#A38244;}
</style>
<g>
	<path class="mkods891" d="M42.84,64.51c0,0.04,0,0.08,0,0.12c0,5.92-4.82,10.73-10.73,10.73c-5.92,0-10.73-4.82-10.73-10.73V39.36H10.75
		v23.42c0,5.8,2.26,11.26,6.36,15.36c4.1,4.1,9.56,6.36,15.36,6.36c11.98,0,21.73-9.75,21.73-21.73c0-1.29,0.07-2.51,0.17-3.68
		H43.01C42.74,62.28,42.84,64.45,42.84,64.51z"/>
	<rect x="10.75" y="5.31" class="mkods891" width="10.63" height="29.8"/>
	<path class="mkods891" d="M67.78,31.93c-7.06,0-12.73,2.21-16.86,6.58c-4.41,4.66-6.43,11.06-7.35,16.34h11.41
		c0.88-4.03,2.51-7.14,4.89-9.29c3.41-3.08,7.17-3.04,7.97-3h12.7V31.93H67.78z"/>
	<path class="jko12w9ds" d="M82.66,22.87c-1.17,0-2.13,0.95-2.13,2.13v2.68H67.78c-8.28,0-15,2.67-19.97,7.93
		c-5.34,5.66-7.62,13.23-8.58,19.24h-2.95c-1.17,0-2.13,0.95-2.13,2.13s0.95,2.13,2.13,2.13h2.44c-0.24,3.01-0.16,5.12-0.13,5.58
		c-0.03,3.55-2.93,6.43-6.48,6.43c-3.57,0-6.48-2.91-6.48-6.48V39.36h2.33c1.17,0,2.13-0.95,2.13-2.13s-0.95-2.13-2.13-2.13h-2.33
		V5.31h2.33c1.17,0,2.13-0.95,2.13-2.13s-0.95-2.13-2.13-2.13H23.5H8.62H3.49c-1.17,0-2.13,0.95-2.13,2.13s0.95,2.13,2.13,2.13H6.5
		l0,29.8H3.49c-1.17,0-2.13,0.95-2.13,2.13s0.95,2.13,2.13,2.13H6.5l0,23.42c0,14.33,11.65,25.98,25.98,25.98
		S58.46,77.1,58.46,62.78c0-1.3,0.07-2.52,0.18-3.68h2.12c1.17,0,2.13-0.95,2.13-2.13s-0.95-2.13-2.13-2.13h-1.38
		c0.7-2.63,1.79-4.7,3.27-6.07c2.31-2.13,4.79-1.99,4.94-1.98c0.03,0,0.06,0,0.1,0c0.03,0,0.06,0.01,0.1,0.01h12.75v2.66
		c0,1.17,0.95,2.13,2.13,2.13s2.13-0.95,2.13-2.13v-4.79V29.8V25C84.79,23.82,83.84,22.87,82.66,22.87z M10.75,5.31h10.63v29.8
		H10.75V5.31z M54.21,62.78c0,11.98-9.75,21.73-21.73,21.73c-5.8,0-11.26-2.26-15.36-6.36c-4.1-4.1-6.36-9.56-6.36-15.36V39.36
		h10.63v25.27c0,5.92,4.82,10.73,10.73,10.73c5.92,0,10.73-4.82,10.73-10.73c0-0.04,0-0.08,0-0.12c0-0.06-0.11-2.23,0.17-5.41h11.36
		C54.27,60.27,54.21,61.49,54.21,62.78z M67.84,42.56c-0.79-0.05-4.56-0.08-7.97,3c-2.38,2.15-4.01,5.26-4.89,9.29H43.57
		c0.92-5.28,2.94-11.67,7.35-16.34c4.13-4.37,9.81-6.58,16.86-6.58h12.75v10.63H67.84z"/>
</g>
</svg>
