<?xml version="1.0" encoding="utf-8"?>
<!-- Generator: Adobe Illustrator 25.0.1, SVG Export Plug-In . SVG Version: 6.00 Build 0)  -->
<svg version="1.1" id="Layer_1" xmlns="http://www.w3.org/2000/svg" xmlns:xlink="http://www.w3.org/1999/xlink" x="0px" y="0px"
	 viewBox="0 0 90 90" style="enable-background:new 0 0 90 90;" xml:space="preserve">
<style type="text/css">
	.jio19shdsjii{fill:none;}
	.naksdhjihu99{fill:#A38244;}
</style>
<g>
	<path class="jio19shdsjii" d="M60.34,38.3c0.27-0.13,0.57-0.2,0.89-0.2c4.37,0,8.09-3.27,8.64-7.6c0.06-0.43,0.08-0.79,0.08-1.12
		c0-4.81-3.91-8.72-8.72-8.72c-0.7,0-1.44,0.1-2.18,0.29c0,0,0,0,0,0c-3.85,0.99-6.54,4.46-6.54,8.44c0,0.16-0.02,0.32-0.06,0.48
		C55.98,31.64,58.8,34.63,60.34,38.3z"/>
	<path class="jio19shdsjii" d="M61.42,47.1c5.78,0.09,10.74,4.01,12.27,9.45h9.55V32.9h-9.55c-1.53,5.44-6.49,9.36-12.26,9.45
		c0.11,0.77,0.19,1.55,0.19,2.35C61.62,45.51,61.54,46.31,61.42,47.1z"/>
	<path class="jio19shdsjii" d="M33.61,17.36c4.56,1.83,7.73,6.1,8.1,11.04c1.06-0.21,2.16-0.33,3.29-0.33s2.23,0.12,3.29,0.33
		c0.37-4.94,3.53-9.21,8.1-11.04V5.17H33.61V17.36z"/>
	<path class="jio19shdsjii" d="M32.63,44.69c0,6.82,5.55,12.36,12.37,12.36s12.37-5.55,12.37-12.36c0-6.82-5.55-12.37-12.37-12.37
		S32.63,37.87,32.63,44.69z"/>
	<path class="jio19shdsjii" d="M29.68,51.13c-0.28,0.13-0.58,0.21-0.91,0.21c-4.37,0-8.09,3.27-8.64,7.6c-0.06,0.43-0.08,0.79-0.08,1.12
		c0,4.81,3.91,8.72,8.72,8.72c0.71,0,1.44-0.1,2.18-0.29c0,0,0,0,0,0c3.85-0.99,6.54-4.46,6.54-8.44c0-0.18,0.03-0.36,0.07-0.53
		C34.05,57.76,31.22,54.78,29.68,51.13z"/>
	<path class="jio19shdsjii" d="M52.43,59.54c0.04,0.17,0.07,0.34,0.07,0.53c0,3.97,2.69,7.44,6.54,8.44c0,0,0,0,0,0
		c0.74,0.19,1.47,0.29,2.18,0.29c4.81,0,8.72-3.91,8.72-8.72c0-0.33-0.03-0.69-0.08-1.12c-0.56-4.33-4.27-7.6-8.64-7.6
		c-0.33,0-0.63-0.08-0.91-0.21C58.78,54.78,55.95,57.76,52.43,59.54z"/>
	<path class="jio19shdsjii" d="M37.56,29.86c-0.04-0.15-0.06-0.31-0.06-0.48c0-3.97-2.69-7.44-6.54-8.44c0,0,0,0,0,0
		c-0.74-0.19-1.48-0.29-2.18-0.29c-4.81,0-8.72,3.91-8.72,8.72c0,0.33,0.03,0.69,0.08,1.12c0.56,4.33,4.27,7.6,8.64,7.6
		c0.32,0,0.62,0.07,0.89,0.2C31.2,34.63,34.02,31.64,37.56,29.86z"/>
	<path class="jio19shdsjii" d="M28.57,42.35c-5.77-0.09-10.73-4.01-12.26-9.45H6.76v23.65h9.55c1.53-5.44,6.49-9.36,12.27-9.45
		c-0.11-0.79-0.19-1.59-0.19-2.4C28.38,43.89,28.46,43.11,28.57,42.35z"/>
	<path class="jio19shdsjii" d="M29.36,16.42V5.17H6.76v23.48h9.06C16.21,21.64,22.18,16.08,29.36,16.42z"/>
	<path class="jio19shdsjii" d="M41.71,60.98c-0.35,4.96-3.52,9.26-8.1,11.1v12.19h22.77V72.08c-4.58-1.84-7.75-6.14-8.1-11.1
		c-1.06,0.21-2.16,0.33-3.29,0.33S42.78,61.19,41.71,60.98z"/>
	<path class="jio19shdsjii" d="M60.64,16.42c7.17-0.33,13.15,5.22,13.54,12.23h9.06V5.17H60.64V16.42z"/>
	<path class="jio19shdsjii" d="M15.82,60.8H6.76v23.48h22.61V73.03C22.21,73.38,16.21,67.81,15.82,60.8z"/>
	<path class="jio19shdsjii" d="M60.64,73.03v11.25h22.61V60.8h-9.06C73.79,67.8,67.8,73.37,60.64,73.03z"/>
	<path class="naksdhjihu99" d="M4.63,56.55h2.13V32.9H4.63c-1.17,0-2.13-0.95-2.13-2.13v27.9C2.5,57.5,3.46,56.55,4.63,56.55z"/>
	<path class="naksdhjihu99" d="M56.39,86.4v-2.13H33.61v2.13c0,1.17-0.95,2.13-2.13,2.13h27.02C57.34,88.53,56.39,87.57,56.39,86.4z"/>
	<path class="naksdhjihu99" d="M33.61,3.04v2.13h22.77V3.04c0-1.17,0.95-2.13,2.13-2.13H31.49C32.66,0.92,33.61,1.87,33.61,3.04z"/>
	<path class="naksdhjihu99" d="M85.37,32.9h-2.13v23.65h2.13c1.17,0,2.13,0.95,2.13,2.13v-27.9C87.5,31.94,86.54,32.9,85.37,32.9z"/>
	<path class="naksdhjihu99" d="M41.71,28.4c0.02,0.32,0.04,0.65,0.04,0.97c0,1.17-0.95,2.13-2.13,2.13c-1.01,0-1.85-0.71-2.07-1.65
		c-3.54,1.78-6.36,4.78-7.89,8.45c0.73,0.34,1.24,1.07,1.24,1.93c0,1.17-0.95,2.13-2.13,2.13c-0.07,0-0.14-0.01-0.21-0.01
		c-0.11,0.77-0.19,1.55-0.19,2.35c0,0.82,0.08,1.62,0.19,2.4c0.07,0,0.13-0.01,0.2-0.01c1.17,0,2.13,0.95,2.13,2.13
		c0,0.85-0.5,1.58-1.22,1.92c1.54,3.66,4.36,6.63,7.89,8.41c0.24-0.92,1.06-1.6,2.05-1.6c1.17,0,2.13,0.95,2.13,2.13
		c0,0.31-0.02,0.61-0.04,0.92c1.06,0.21,2.16,0.33,3.29,0.33s2.22-0.12,3.29-0.33c-0.02-0.3-0.04-0.61-0.04-0.92
		c0-1.17,0.95-2.13,2.13-2.13c0.99,0,1.82,0.68,2.05,1.6c3.53-1.77,6.35-4.75,7.89-8.41c-0.72-0.34-1.22-1.07-1.22-1.92
		c0-1.17,0.95-2.13,2.13-2.13c0.07,0,0.13,0.01,0.2,0.01c0.11-0.79,0.19-1.59,0.19-2.4c0-0.8-0.08-1.58-0.19-2.35
		c-0.07,0-0.14,0.01-0.21,0.01c-1.17,0-2.13-0.95-2.13-2.13c0-0.86,0.51-1.59,1.24-1.93c-1.54-3.67-4.36-6.67-7.89-8.45
		c-0.22,0.94-1.06,1.65-2.07,1.65c-1.17,0-2.13-0.95-2.13-2.13c0-0.33,0.02-0.65,0.04-0.97c-1.06-0.21-2.16-0.33-3.29-0.33
		S42.77,28.19,41.71,28.4z M57.37,44.69c0,6.82-5.55,12.36-12.37,12.36s-12.37-5.55-12.37-12.36c0-6.82,5.55-12.37,12.37-12.37
		S57.37,37.87,57.37,44.69z"/>
	<path class="naksdhjihu99" d="M4.63,32.9h2.13h9.55c1.53,5.44,6.49,9.36,12.26,9.45c0.07,0,0.14,0.01,0.21,0.01c1.17,0,2.13-0.95,2.13-2.13
		c0-0.86-0.51-1.59-1.24-1.93c-0.27-0.13-0.57-0.2-0.89-0.2c-4.37,0-8.09-3.27-8.64-7.6c-0.06-0.44-0.08-0.79-0.08-1.12
		c0-4.81,3.91-8.72,8.72-8.72c0.71,0,1.44,0.1,2.18,0.29c0,0,0,0,0,0c3.85,0.99,6.54,4.46,6.54,8.44c0,0.16,0.02,0.32,0.06,0.48
		c0.22,0.94,1.06,1.65,2.07,1.65c1.17,0,2.13-0.95,2.13-2.13c0-0.33-0.02-0.65-0.04-0.97c-0.37-4.94-3.53-9.21-8.1-11.04V5.17V3.04
		c0-1.17-0.95-2.13-2.13-2.13H4.63c-1.17,0-2.13,0.95-2.13,2.13v27.73C2.5,31.94,3.46,32.9,4.63,32.9z M6.76,5.17h22.61v11.25
		c-7.18-0.34-13.15,5.22-13.54,12.23H6.76V5.17z"/>
	<path class="naksdhjihu99" d="M85.37,0.92H58.51c-1.17,0-2.13,0.95-2.13,2.13v2.13v12.19c-4.56,1.83-7.73,6.1-8.1,11.04
		c-0.02,0.32-0.04,0.65-0.04,0.97c0,1.17,0.95,2.13,2.13,2.13c1.01,0,1.85-0.71,2.07-1.65c0.04-0.15,0.06-0.31,0.06-0.48
		c0-3.97,2.69-7.44,6.54-8.44c0,0,0,0,0,0c0.74-0.19,1.48-0.29,2.18-0.29c4.81,0,8.72,3.91,8.72,8.72c0,0.33-0.03,0.69-0.08,1.12
		c-0.56,4.33-4.27,7.6-8.64,7.6c-0.32,0-0.62,0.07-0.89,0.2c-0.73,0.34-1.24,1.07-1.24,1.93c0,1.17,0.95,2.13,2.13,2.13
		c0.07,0,0.14-0.01,0.21-0.01c5.77-0.09,10.73-4.01,12.26-9.45h9.55h2.13c1.17,0,2.13-0.95,2.13-2.13V3.04
		C87.5,1.87,86.54,0.92,85.37,0.92z M83.24,28.64h-9.06c-0.39-7.01-6.38-12.56-13.54-12.23V5.17h22.61V28.64z"/>
	<path class="naksdhjihu99" d="M33.61,86.4v-2.13V72.08c4.58-1.84,7.75-6.14,8.1-11.1c0.02-0.3,0.04-0.61,0.04-0.92
		c0-1.17-0.95-2.13-2.13-2.13c-0.99,0-1.82,0.68-2.05,1.6c-0.04,0.17-0.07,0.34-0.07,0.53c0,3.97-2.69,7.44-6.54,8.44c0,0,0,0,0,0
		c-0.74,0.19-1.47,0.29-2.18,0.29c-4.81,0-8.72-3.91-8.72-8.72c0-0.33,0.03-0.69,0.08-1.12c0.56-4.33,4.27-7.6,8.64-7.6
		c0.33,0,0.63-0.08,0.91-0.21c0.72-0.34,1.22-1.07,1.22-1.92c0-1.17-0.95-2.13-2.13-2.13c-0.07,0-0.13,0.01-0.2,0.01
		c-5.78,0.09-10.74,4.01-12.27,9.45H6.76H4.63c-1.17,0-2.13,0.95-2.13,2.13V86.4c0,1.17,0.95,2.13,2.13,2.13h26.86
		C32.66,88.53,33.61,87.57,33.61,86.4z M6.76,84.27V60.8h9.06c0.39,7.01,6.39,12.58,13.54,12.23v11.25H6.76z"/>
	<path class="naksdhjihu99" d="M85.37,56.55h-2.13h-9.55c-1.53-5.44-6.49-9.36-12.27-9.45c-0.07,0-0.13-0.01-0.2-0.01
		c-1.17,0-2.13,0.95-2.13,2.13c0,0.85,0.5,1.58,1.22,1.92c0.28,0.13,0.58,0.21,0.91,0.21c4.37,0,8.09,3.27,8.64,7.6
		c0.06,0.43,0.08,0.79,0.08,1.12c0,4.81-3.91,8.72-8.72,8.72c-0.71,0-1.44-0.1-2.18-0.29c0,0,0,0,0,0
		c-3.85-0.99-6.54-4.46-6.54-8.44c0-0.18-0.03-0.36-0.07-0.53c-0.24-0.92-1.06-1.6-2.05-1.6c-1.17,0-2.13,0.95-2.13,2.13
		c0,0.31,0.02,0.61,0.04,0.92c0.35,4.96,3.52,9.26,8.1,11.1v12.19v2.13c0,1.17,0.95,2.13,2.13,2.13h26.86
		c1.17,0,2.13-0.95,2.13-2.13V58.67C87.5,57.5,86.54,56.55,85.37,56.55z M83.24,84.27H60.64V73.03c7.16,0.35,13.15-5.22,13.54-12.23
		h9.06V84.27z"/>
</g>
</svg>
