<?xml version="1.0" encoding="utf-8"?>
<!-- Generator: Adobe Illustrator 25.0.1, SVG Export Plug-In . SVG Version: 6.00 Build 0)  -->
<svg version="1.1" id="Layer_1" xmlns="http://www.w3.org/2000/svg" xmlns:xlink="http://www.w3.org/1999/xlink" x="0px" y="0px"
	 viewBox="0 0 90 90" style="enable-background:new 0 0 90 90;" xml:space="preserve">
<style type="text/css">
	.i9012uidshaji{fill:none;}
	.njo1hw9udsui{fill:#A38244;}
</style>
<g>
	<rect x="11.38" y="5.86" class="i9012uidshaji" width="12.12" height="11.55"/>
	<rect x="73.12" y="18.42" class="i9012uidshaji" width="6.55" height="5.91"/>
	<rect x="4.46" y="21.66" class="i9012uidshaji" width="25.34" height="19.55"/>
	<rect x="67.51" y="28.6" class="i9012uidshaji" width="17.77" height="12.6"/>
	<path class="i9012uidshaji" d="M36.89,82.84c3.1,1.39,6.49,2.24,10.05,2.46c8.94-0.59,16.05-8.04,16.05-17.13c0-9.48-7.71-17.19-17.19-17.19
		S28.6,58.69,28.6,68.16C28.6,74.38,31.93,79.82,36.89,82.84z"/>
	<path class="njo1hw9udsui" d="M87.41,24.35h-3.48V16.3c0-1.17-0.95-2.13-2.13-2.13h-10.8c-1.17,0-2.13,0.95-2.13,2.13v8.05h-3.48
		c-1.17,0-2.13,0.95-2.13,2.13v16.86c0,1.17,0.95,2.13,2.13,2.13h9.46V56.3c0,8.84-3.97,16.76-10.21,22.09
		c1.66-3.04,2.6-6.53,2.6-10.23c0-11.82-9.62-21.44-21.44-21.44c-11.82,0-21.44,9.62-21.44,21.44c0,1.65,0.21,3.26,0.56,4.8
		c-3.32-4.72-5.28-10.47-5.28-16.67V45.46h12.29c1.17,0,2.13-0.95,2.13-2.13v-23.8c0-1.17-0.95-2.13-2.13-2.13h-4.17V3.73
		c0-1.17-0.95-2.13-2.13-2.13H9.26c-1.17,0-2.13,0.95-2.13,2.13v13.67H2.34c-1.17,0-2.13,0.95-2.13,2.13v23.8
		c0,1.17,0.95,2.13,2.13,2.13h13.05V56.3c0,13.46,8.03,25.07,19.54,30.32c3.19,1.89,6.9,2.99,10.86,2.99c0.49,0,0.97-0.02,1.45-0.04
		c0.48,0.02,0.96,0.04,1.45,0.04c0.34,0,0.65-0.09,0.94-0.23C66.19,87.47,79.1,73.37,79.1,56.3V45.46h8.31
		c1.17,0,2.13-0.95,2.13-2.13V26.48C89.53,25.3,88.58,24.35,87.41,24.35z M73.12,18.42h6.55v5.91h-6.55V18.42z M11.38,5.86H23.5
		v11.55H11.38V5.86z M4.46,21.66H29.8v19.55H4.46V21.66z M45.79,50.98c9.48,0,17.19,7.71,17.19,17.19c0,9.09-7.1,16.54-16.05,17.13
		c-3.56-0.21-6.94-1.07-10.05-2.46c-4.96-3.02-8.28-8.46-8.28-14.67C28.6,58.69,36.32,50.98,45.79,50.98z M85.28,41.21H67.51V28.6
		h17.77V41.21z"/>
</g>
</svg>
