<?xml version="1.0" encoding="utf-8"?>
<!-- Generator: Adobe Illustrator 25.0.1, SVG Export Plug-In . SVG Version: 6.00 Build 0)  -->
<svg version="1.1" id="Layer_1" xmlns="http://www.w3.org/2000/svg" xmlns:xlink="http://www.w3.org/1999/xlink" x="0px" y="0px"
	 viewBox="0 0 90 90" style="enable-background:new 0 0 90 90;" xml:space="preserve">
<style type="text/css">
	.jidos91whuei{fill:none;}
	.nmkaskjdoo{fill:#A38243;}
	.ko1289ds{fill:#FFFFFF;}
</style>
<g>
	<path class="jidos91whuei" d="M22.27,47.51c0-0.43-0.36-0.79-0.79-0.79h-3.24c-0.43,0-0.79,0.36-0.79,0.79s0.36,0.79,0.79,0.79h3.24
		C21.91,48.29,22.27,47.94,22.27,47.51z"/>
	<path class="jidos91whuei" d="M20.43,71.48c0,0.6,0.5,1.1,1.1,1.1h3.49c0.6,0,1.1-0.5,1.1-1.1v-3.07h-5.69V71.48z"/>
	<path class="jidos91whuei" d="M58.51,71.48c0,0.6,0.5,1.1,1.1,1.1h3.49c0.6,0,1.1-0.5,1.1-1.1v-3.07h-5.69V71.48z"/>
	<path class="jidos91whuei" d="M35.43,46.35H49.2c0.35,0,0.7,0.03,1.05,0.05c-0.07-0.03-0.14-0.05-0.21-0.09c-0.79-0.47-1.19-1.4-0.98-2.3
		l1.44-6.29c-1.23-0.45-2.56-0.7-3.94-0.7h-8.49c-5.62,0-10.31,4.05-11.31,9.38h7.51C34.65,46.39,35.04,46.35,35.43,46.35z"/>
	<path class="jidos91whuei" d="M63.48,48.29h3.24c0.43,0,0.79-0.36,0.79-0.79s-0.36-0.79-0.79-0.79h-3.24c-0.43,0-0.79,0.36-0.79,0.79
		S63.05,48.29,63.48,48.29z"/>
	<path class="jidos91whuei" d="M27.63,59.38c0.92,0,1.66-0.75,1.66-1.66s-0.75-1.66-1.66-1.66c-0.92,0-1.66,0.75-1.66,1.66
		S26.71,59.38,27.63,59.38z"/>
	<circle class="jidos91whuei" cx="57.28" cy="57.72" r="1.66"/>
	<path class="jidos91whuei" d="M52.02,46.41h5.84c-0.25-1.34-0.74-2.6-1.41-3.74l-3.92,3.42C52.37,46.23,52.2,46.33,52.02,46.41z"/>
	<path class="jidos91whuei" d="M51.37,57.72c0-2.67,1.79-4.94,4.23-5.67c-1.59-0.75-3.33-1.24-5.16-1.39H34.2c-1.8,0.15-3.5,0.61-5.06,1.34
		c2.53,0.67,4.41,2.97,4.41,5.71c0,3.26-2.65,5.91-5.91,5.91c-2.76,0-5.09-1.91-5.73-4.48c-0.74,1.54-1.23,3.23-1.4,5.01h43.64
		c-0.16-1.63-0.59-3.18-1.23-4.62c-0.77,2.37-3,4.09-5.62,4.09C54.02,63.63,51.37,60.98,51.37,57.72z M48.26,59.78H36.47
		c-1.17,0-2.13-0.95-2.13-2.13s0.95-2.13,2.13-2.13h11.79c1.17,0,2.13,0.95,2.13,2.13S49.43,59.78,48.26,59.78z"/>
	<path class="nmkaskjdoo" d="M48.26,55.53H36.47c-1.17,0-2.13,0.95-2.13,2.13s0.95,2.13,2.13,2.13h11.79c1.17,0,2.13-0.95,2.13-2.13
		S49.43,55.53,48.26,55.53z"/>
	<path class="ko1289ds" d="M62.59,22.93l-2.82-6.61l-1.61,7c-0.2,0.88-0.94,1.54-1.85,1.64l-6.75,0.72l5.76,3.63
		c0.76,0.48,1.14,1.39,0.94,2.27l-1.61,7l5.41-4.72c0.7-0.61,1.7-0.69,2.49-0.22l6.16,3.69l-2.82-6.61
		c-0.36-0.85-0.13-1.83,0.56-2.44l5.41-4.72l-7.15,0.64C63.81,24.29,62.95,23.77,62.59,22.93z"/>
	<path class="nmkaskjdoo" d="M80.17,20.04c-0.36-0.85-1.22-1.36-2.14-1.28L65.9,19.84L61.12,8.63c-0.36-0.85-1.22-1.36-2.14-1.28
		c-0.92,0.08-1.68,0.74-1.88,1.64l-2.73,11.9l-11.32,1.21c-0.9,0.1-1.64,0.75-1.84,1.63c-0.2,0.88,0.17,1.8,0.94,2.28l9.65,6.09
		l-0.33,1.46c-1.54-0.51-3.19-0.78-4.9-0.78h-8.49c-6.68,0-12.39,4.19-14.68,10.07c-0.59-0.24-1.23-0.38-1.91-0.38h-3.24
		c-2.78,0-5.04,2.26-5.04,5.04c0,2.78,2.26,5.04,5.04,5.04h3.08c-3.18,3.44-5.15,8.02-5.15,13.06v0.68v5.19
		c0,2.95,2.4,5.35,5.35,5.35h3.49c2.95,0,5.35-2.4,5.35-5.35v-3.07h23.89v3.07c0,2.95,2.4,5.35,5.35,5.35h3.49
		c2.95,0,5.35-2.4,5.35-5.35v-5.19V65.6c0-5.05-1.97-9.64-5.16-13.08c0.06,0,0.12,0.02,0.19,0.02h3.24c2.78,0,5.04-2.26,5.04-5.04
		c0-2.78-2.26-5.04-5.04-5.04h-3.24c-0.79,0-1.53,0.2-2.19,0.52c-0.42-1.11-0.96-2.16-1.61-3.14l2.03-1.77l10.45,6.26
		c0.79,0.47,1.79,0.39,2.49-0.22c0.69-0.6,0.92-1.59,0.56-2.44l-4.78-11.21l9.18-8C80.31,21.88,80.53,20.89,80.17,20.04z
		 M66.47,28.29c-0.69,0.6-0.92,1.59-0.56,2.44l2.82,6.61l-6.16-3.69c-0.79-0.47-1.79-0.38-2.49,0.22l-5.41,4.72l1.61-7
		c0.2-0.88-0.17-1.79-0.94-2.27l-5.76-3.63l6.75-0.72c0.9-0.1,1.64-0.75,1.85-1.64l1.61-7l2.82,6.61c0.36,0.85,1.22,1.36,2.14,1.28
		l7.15-0.64L66.47,28.29z M38.07,37.03h8.49c1.38,0,2.71,0.25,3.94,0.7l-1.44,6.29c-0.21,0.9,0.19,1.83,0.98,2.3
		c0.07,0.04,0.14,0.06,0.21,0.09c-0.35-0.02-0.69-0.05-1.05-0.05H35.43c-0.39,0-0.77,0.04-1.16,0.06h-7.51
		C27.76,41.08,32.45,37.03,38.07,37.03z M27.63,56.05c0.92,0,1.66,0.75,1.66,1.66s-0.75,1.66-1.66,1.66c-0.92,0-1.66-0.75-1.66-1.66
		S26.71,56.05,27.63,56.05z M18.25,48.29c-0.43,0-0.79-0.36-0.79-0.79s0.36-0.79,0.79-0.79h3.24c0.43,0,0.79,0.36,0.79,0.79
		s-0.36,0.79-0.79,0.79H18.25z M26.12,71.48c0,0.6-0.5,1.1-1.1,1.1h-3.49c-0.6,0-1.1-0.5-1.1-1.1v-3.07h5.69V71.48z M64.2,71.48
		c0,0.6-0.5,1.1-1.1,1.1h-3.49c-0.6,0-1.1-0.5-1.1-1.1v-3.07h5.69V71.48z M63.48,46.72h3.24c0.43,0,0.79,0.36,0.79,0.79
		s-0.36,0.79-0.79,0.79h-3.24c-0.43,0-0.79-0.36-0.79-0.79S63.05,46.72,63.48,46.72z M62.9,59.54c0.64,1.44,1.07,2.99,1.23,4.62
		H20.5c0.17-1.78,0.66-3.46,1.4-5.01c0.64,2.57,2.97,4.48,5.73,4.48c3.26,0,5.91-2.65,5.91-5.91c0-2.74-1.87-5.04-4.41-5.71
		c1.56-0.73,3.26-1.19,5.06-1.34h16.23c1.83,0.15,3.57,0.63,5.16,1.39c-2.44,0.73-4.23,2.99-4.23,5.67c0,3.26,2.65,5.91,5.91,5.91
		C59.91,63.63,62.13,61.91,62.9,59.54z M55.62,57.72c0-0.92,0.75-1.66,1.66-1.66s1.66,0.75,1.66,1.66s-0.75,1.66-1.66,1.66
		S55.62,58.63,55.62,57.72z M57.87,46.41h-5.84c0.18-0.08,0.35-0.18,0.5-0.32l3.92-3.42C57.13,43.81,57.61,45.07,57.87,46.41z"/>
</g>
</svg>
