<svg version="1.1" id="Layer_1" xmlns="http://www.w3.org/2000/svg" xmlns:xlink="http://www.w3.org/1999/xlink" x="0px" y="0px"
	 viewBox="0 0 90 90" style="enable-background:new 0 0 90 90;" xml:space="preserve">
<g>
	<path fill="#A38244" d="M13.3,46.3h5.4c2,0,3.7-1.7,3.7-3.7V32c0-2-1.7-3.7-3.7-3.7h-5.4c-2,0-3.7,1.7-3.7,3.7v10.6
		C9.6,44.7,11.3,46.3,13.3,46.3z M13.9,32.6h4.3v9.5h-4.3V32.6z"/>
	<path fill="#A38244" d="M29.9,46.3h5.4c2,0,3.7-1.7,3.7-3.7V32c0-2-1.7-3.7-3.7-3.7h-5.4c-2,0-3.7,1.7-3.7,3.7v10.6
		C26.2,44.7,27.9,46.3,29.9,46.3z M30.5,32.6h4.3v9.5h-4.3V32.6z"/>
	<path fill="#A38244" d="M18.7,53.1h-5.4c-2,0-3.7,1.7-3.7,3.7v10.6c0,2,1.7,3.7,3.7,3.7h5.4c2,0,3.7-1.7,3.7-3.7V56.8
		C22.4,54.8,20.8,53.1,18.7,53.1z M18.2,66.9h-4.3v-9.5h4.3V66.9z"/>
	<path fill="#A38244" d="M31.4,65.9c-1.3,0-2.3,1.1-2.3,2.3c0,1.3,1.1,2.3,2.3,2.3s2.3-1.1,2.3-2.3C33.8,66.9,32.7,65.9,31.4,65.9z"/>
	<path fill="#A38244" d="M87.7,20.5l-1.2-0.9c0-0.2,0.1-0.3,0.1-0.5V9.4c0-1.2-1-2.1-2.1-2.1h-5.8c-1.2,0-2.1,1-2.1,2.1v2.2l-9.3-7.4
		c-0.8-0.6-1.8-0.6-2.6,0L45,19.3L43.3,18V9.4c0-1.2-1-2.1-2.1-2.1h-5.8c-1.2,0-2.1,1-2.1,2.1V10L26,4.2c-0.8-0.6-1.8-0.6-2.6,0
		l-20.8,16c-0.5,0.4-0.8,1-0.8,1.7v62.3c0,1.2,1,2.1,2.1,2.1h24.6h8.3h8.4h24.6H78h8.4c1.2,0,2.1-1,2.1-2.1v-62
		C88.5,21.5,88.3,20.9,87.7,20.5z M80.8,14.4v-2.9h1.6v4.7l-1.6-1.3C80.8,14.7,80.8,14.6,80.8,14.4z M37.5,11.5h1.6v3.1l-1.6-1.3
		V11.5z M6,22.9L24.7,8.6L43,23.2V82h-2.6V57c0-2-1.7-3.7-3.7-3.7h-8.3c-2,0-3.7,1.7-3.7,3.7v25H6V22.9z M29,82V57.5h7.2V82H29z
		 M70.3,82V57.5h7.2V82H70.3z M84.3,82h-2.6V57c0-2-1.7-3.7-3.7-3.7h-8.3c-2,0-3.7,1.7-3.7,3.7v25H47.3V22.9L65.9,8.6l18.4,14.6V82z
		"/>
	<path fill="#A38244" d="M54.6,46.3H60c2,0,3.7-1.7,3.7-3.7V32c0-2-1.7-3.7-3.7-3.7h-5.4c-2,0-3.7,1.7-3.7,3.7v10.6
		C50.9,44.7,52.6,46.3,54.6,46.3z M55.2,32.6h4.3v9.5h-4.3V32.6z"/>
	<path fill="#A38244" d="M71.2,46.3h5.4c2,0,3.7-1.7,3.7-3.7V32c0-2-1.7-3.7-3.7-3.7h-5.4c-2,0-3.7,1.7-3.7,3.7v10.6
		C67.5,44.7,69.2,46.3,71.2,46.3z M71.7,32.6H76v9.5h-4.3V32.6z"/>
	<path fill="#A38244" d="M60,53.1h-5.4c-2,0-3.7,1.7-3.7,3.7v10.6c0,2,1.7,3.7,3.7,3.7H60c2,0,3.7-1.7,3.7-3.7V56.8
		C63.7,54.8,62,53.1,60,53.1z M59.4,66.9h-4.3v-9.5h4.3V66.9z"/>
	<path fill="#A38244" d="M72.7,65.9c-1.3,0-2.3,1.1-2.3,2.3c0,1.3,1.1,2.3,2.3,2.3c1.3,0,2.3-1.1,2.3-2.3C75,66.9,74,65.9,72.7,65.9z"
		/>
</g>
</svg>
