<?xml version="1.0" encoding="utf-8"?>
<!-- Generator: Adobe Illustrator 25.0.1, SVG Export Plug-In . SVG Version: 6.00 Build 0)  -->
<svg version="1.1" id="Layer_1" xmlns="http://www.w3.org/2000/svg" xmlns:xlink="http://www.w3.org/1999/xlink" x="0px" y="0px"
	 viewBox="0 0 90 90" style="enable-background:new 0 0 90 90;" xml:space="preserve">
<style type="text/css">
	.gh123{fill:none;}
	.gh1234{fill:#A38244;}
</style>
<g>
	<path class="gh123" d="M6.09,44.46V19.31H4.54v51.64h1.55V50.26c0-1.17,0.95-2.13,2.13-2.13h17.01c1.17,0,2.13,0.95,2.13,2.13v20.69
		h1.55V46.58H8.22C7.05,46.58,6.09,45.63,6.09,44.46z"/>
	<polygon class="gh123" points="53.31,37.2 73.68,37.2 73.68,35.4 16.3,35.4 16.3,37.2 36.67,37.2 	"/>
	<rect x="38.8" y="41.45" class="gh123" width="12.38" height="29.5"/>
	<path class="gh123" d="M84.06,44.46c0,1.17-0.95,2.13-2.13,2.13H61.24v24.37h1.55V50.26c0-1.17,0.95-2.13,2.13-2.13h17.01
		c1.17,0,2.13,0.95,2.13,2.13v20.69h1.55V19.31h-1.55V44.46z"/>
	<path class="gh1234" d="M75.81,41.45c1.17,0,2.13-0.95,2.13-2.13v-6.05c0-1.17-0.95-2.13-2.13-2.13h-0.28c-0.12-1.06-1.01-1.9-2.1-1.9
		h-12.8c-1.1,0-1.99,0.83-2.1,1.9H31.63c-0.12-1.06-1.01-1.9-2.1-1.9h-12.8c-1.1,0-1.99,0.83-2.1,1.9h-0.45
		c-1.17,0-2.13,0.95-2.13,2.13v6.05c0,1.17,0.95,2.13,2.13,2.13h20.37v31.63c0,1.17,0.95,2.13,2.13,2.13h16.64
		c1.17,0,2.13-0.95,2.13-2.13V41.45H75.81z M16.3,35.4h57.38v1.8H53.31H36.67H16.3V35.4z M51.18,70.95H38.8v-29.5h12.38V70.95z"/>
	<path class="gh1234" d="M87.74,15.06h-5.81c-1.17,0-2.13,0.95-2.13,2.13v25.15H59.12c-1.17,0-2.13,0.95-2.13,2.13v28.62
		c0,1.17,0.95,2.13,2.13,2.13h5.81c1.17,0,2.13-0.95,2.13-2.13V52.39H79.8v20.69c0,1.17,0.95,2.13,2.13,2.13h5.81
		c1.17,0,2.13-0.95,2.13-2.13v-55.9C89.86,16.01,88.91,15.06,87.74,15.06z M85.61,70.95h-1.55V50.26c0-1.17-0.95-2.13-2.13-2.13
		H64.92c-1.17,0-2.13,0.95-2.13,2.13v20.69h-1.55V46.58h20.69c1.17,0,2.13-0.95,2.13-2.13V19.31h1.55V70.95z"/>
	<path class="gh1234" d="M31.04,42.33H10.35V17.18c0-1.17-0.95-2.13-2.13-2.13H2.41c-1.17,0-2.13,0.95-2.13,2.13v55.9
		c0,1.17,0.95,2.13,2.13,2.13h5.81c1.17,0,2.13-0.95,2.13-2.13V52.39H23.1v20.69c0,1.17,0.95,2.13,2.13,2.13h5.81
		c1.17,0,2.13-0.95,2.13-2.13V44.46C33.16,43.28,32.21,42.33,31.04,42.33z M28.91,70.95h-1.55V50.26c0-1.17-0.95-2.13-2.13-2.13
		H8.22c-1.17,0-2.13,0.95-2.13,2.13v20.69H4.54V19.31h1.55v25.15c0,1.17,0.95,2.13,2.13,2.13h20.69V70.95z"/>
</g>
</svg>
