<?xml version="1.0" encoding="utf-8"?>
<!-- Generator: Adobe Illustrator 25.0.1, SVG Export Plug-In . SVG Version: 6.00 Build 0)  -->
<svg version="1.1" id="Layer_1" xmlns="http://www.w3.org/2000/svg" xmlns:xlink="http://www.w3.org/1999/xlink" x="0px" y="0px"
	 viewBox="0 0 90 90" style="enable-background:new 0 0 90 90;" xml:space="preserve">
<style type="text/css">
	.jk123{fill:none;}
	.jk1234{fill:#A38244;}
</style>
<g>
	<polygon class="jk123" points="70.14,73.46 67.54,73.46 60.28,73.46 57.68,73.46 57.68,75.94 70.14,75.94 	"/>
	<path class="jk123" d="M48.72,28.69c-0.22-3.8-3.37-6.82-7.22-6.82c-0.33,0-0.64,0.04-0.96,0.07c-0.51,0.06-1.02-0.11-1.39-0.45
		c-0.38-0.34-0.6-0.83-0.6-1.34c0-0.07,0.01-0.14,0.01-0.21c-0.07-3.94-3.29-7.12-7.24-7.12c-1.79,0-3.51,0.67-4.85,1.88
		c-0.69,0.62-1.73,0.62-2.42,0c-1.34-1.21-3.06-1.88-4.85-1.88c-4,0-7.25,3.25-7.25,7.24c0,0.53,0.06,1.06,0.18,1.58
		c0.12,0.51,0.01,1.05-0.3,1.47s-0.79,0.69-1.31,0.73c-2.83,0.23-5.14,2.23-5.87,4.84h44.07V28.69z"/>
	<circle class="jk123" cx="47.88" cy="8.38" r="1.77"/>
	<path class="jk123" d="M65.74,5.43c0-1.01-0.82-1.83-1.83-1.83c-1.01,0-1.83,0.82-1.83,1.83v64.43h3.66V5.43z"/>
	<path class="jk123" d="M5.37,7.51c0.97,0,1.77-0.79,1.77-1.77c0-0.97-0.79-1.76-1.77-1.76C4.4,3.98,3.6,4.77,3.6,5.74
		C3.6,6.72,4.39,7.51,5.37,7.51z"/>
	<circle class="jk123" cx="38.84" cy="41.62" r="2.25"/>
	<path class="jk123" d="M77.74,79.54h-5.8H55.88h-5.8c-4.16,0-7.64,2.95-8.47,6.86h4.47v-1.91c0-0.99,0.81-1.8,1.8-1.8
		s1.8,0.81,1.8,1.8v1.91h2.81v-1.91c0-0.99,0.81-1.8,1.8-1.8c0.99,0,1.8,0.81,1.8,1.8v1.91h2.81v-1.91c0-0.99,0.81-1.8,1.8-1.8
		s1.8,0.81,1.8,1.8v1.91h2.81v-1.91c0-0.99,0.81-1.8,1.8-1.8c0.99,0,1.8,0.81,1.8,1.8v1.91h2.81v-1.91c0-0.99,0.81-1.8,1.8-1.8
		s1.8,0.81,1.8,1.8v1.91h2.81v-1.91c0-0.99,0.81-1.8,1.8-1.8s1.8,0.81,1.8,1.8v1.91h4.47C85.38,82.48,81.9,79.54,77.74,79.54z"/>
	<path class="jk123" d="M48.79,76.01V32.29H3.6v46.46c0,4.22,3.43,7.65,7.65,7.65h26.72C38.78,80.91,43.23,76.59,48.79,76.01z
		 M11.75,50.41v-3.22C9.4,46.43,7.7,44.22,7.7,41.62c0-3.23,2.62-5.85,5.85-5.85s5.85,2.62,5.85,5.85c0,2.6-1.7,4.8-4.05,5.56v3.22
		c0,5.98,4.87,10.85,10.85,10.85s10.85-4.87,10.85-10.85v-3.22C34.7,46.42,33,44.21,33,41.62c0-3.23,2.62-5.85,5.85-5.85
		s5.85,2.62,5.85,5.85c0,2.6-1.7,4.8-4.05,5.56v3.22c0,7.96-6.48,14.45-14.45,14.45C18.23,64.86,11.75,58.38,11.75,50.41z"/>
	<circle class="jk123" cx="13.55" cy="41.62" r="2.25"/>
	<path class="jk1234" d="M5.37,11.11c2.96,0,5.37-2.41,5.37-5.37S8.33,0.38,5.37,0.38C2.41,0.38,0,2.78,0,5.74S2.41,11.11,5.37,11.11z
		 M5.37,3.98c0.97,0,1.77,0.79,1.77,1.76S6.35,7.51,5.37,7.51C4.4,7.51,3.6,6.72,3.6,5.74C3.6,4.77,4.39,3.98,5.37,3.98z"/>
	<path class="jk1234" d="M47.88,13.75c2.96,0,5.37-2.41,5.37-5.37s-2.41-5.37-5.37-5.37s-5.37,2.41-5.37,5.37
		C42.51,11.34,44.92,13.75,47.88,13.75z M47.88,6.61c0.97,0,1.77,0.79,1.77,1.77s-0.79,1.77-1.77,1.77s-1.77-0.79-1.77-1.77
		S46.91,6.61,47.88,6.61z"/>
	<path class="jk1234" d="M40.64,50.41v-3.22c2.35-0.76,4.05-2.97,4.05-5.56c0-3.23-2.62-5.85-5.85-5.85s-5.85,2.62-5.85,5.85
		c0,2.6,1.7,4.8,4.05,5.56v3.22c0,5.98-4.87,10.85-10.85,10.85s-10.85-4.87-10.85-10.85v-3.22c2.35-0.76,4.05-2.97,4.05-5.56
		c0-3.23-2.62-5.85-5.85-5.85S7.7,38.4,7.7,41.62c0,2.6,1.7,4.8,4.05,5.56v3.22c0,7.96,6.48,14.45,14.45,14.45
		C34.16,64.86,40.64,58.38,40.64,50.41z M38.84,39.38c1.24,0,2.25,1.01,2.25,2.25s-1.01,2.25-2.25,2.25s-2.25-1.01-2.25-2.25
		S37.6,39.38,38.84,39.38z M13.55,39.38c1.24,0,2.25,1.01,2.25,2.25s-1.01,2.25-2.25,2.25s-2.25-1.01-2.25-2.25
		S12.31,39.38,13.55,39.38z"/>
	<path class="jk1234" d="M77.74,75.94h-4v-4.28c0-0.99-0.81-1.8-1.8-1.8h-2.6V5.43c0-2.99-2.43-5.43-5.43-5.43
		c-2.99,0-5.43,2.43-5.43,5.43v64.43h-2.6c-0.99,0-1.8,0.81-1.8,1.8v4.28h-1.69V30.49c0-0.18-0.03-0.35-0.08-0.51
		c0.02-0.29,0.04-0.58,0.04-0.86c0-5.81-4.59-10.56-10.33-10.83c-0.85-5.13-5.33-9.06-10.7-9.06c-2.17,0-4.28,0.65-6.06,1.86
		c-1.78-1.21-3.89-1.86-6.06-1.86c-5.98,0-10.85,4.86-10.85,10.84c0,0.17,0,0.35,0.01,0.52c-3.87,1.06-6.82,4.36-7.43,8.33
		C0.38,29.22,0,29.81,0,30.49v48.26C0,84.95,5.05,90,11.25,90h28.37h1.52H88.2c0.99,0,1.8-0.81,1.8-1.8
		C90,81.44,84.5,75.94,77.74,75.94z M62.08,5.43c0-1.01,0.82-1.83,1.83-1.83s1.83,0.82,1.83,1.83v64.43h-3.66
		C62.08,69.86,62.08,5.43,62.08,5.43z M57.68,73.46h2.6h7.26h2.6v2.48H57.68V73.46z M10.53,23.84c0.52-0.04,1-0.31,1.31-0.73
		s0.42-0.96,0.3-1.47c-0.12-0.52-0.18-1.05-0.18-1.58c0-3.99,3.25-7.24,7.25-7.24c1.79,0,3.51,0.67,4.85,1.88
		c0.69,0.62,1.73,0.62,2.42,0c1.34-1.21,3.06-1.88,4.85-1.88c3.95,0,7.18,3.18,7.24,7.12c-0.01,0.07-0.01,0.14-0.01,0.21
		c0,0.51,0.22,1,0.6,1.34c0.38,0.34,0.88,0.51,1.39,0.45c0.31-0.03,0.63-0.07,0.96-0.07c3.85,0,7,3.02,7.22,6.82H4.66
		C5.39,26.08,7.7,24.07,10.53,23.84z M3.6,78.75V32.29h45.19v43.72c-5.56,0.59-10.01,4.9-10.82,10.39H11.25
		C7.03,86.4,3.6,82.97,3.6,78.75z M81.74,86.4v-1.91c0-0.99-0.81-1.8-1.8-1.8s-1.8,0.81-1.8,1.8v1.91h-2.81v-1.91
		c0-0.99-0.81-1.8-1.8-1.8s-1.8,0.81-1.8,1.8v1.91h-2.81v-1.91c0-0.99-0.81-1.8-1.8-1.8c-0.99,0-1.8,0.81-1.8,1.8v1.91h-2.81v-1.91
		c0-0.99-0.81-1.8-1.8-1.8s-1.8,0.81-1.8,1.8v1.91H56.1v-1.91c0-0.99-0.81-1.8-1.8-1.8c-0.99,0-1.8,0.81-1.8,1.8v1.91h-2.81v-1.91
		c0-0.99-0.81-1.8-1.8-1.8s-1.8,0.81-1.8,1.8v1.91h-4.47c0.83-3.92,4.32-6.86,8.47-6.86h5.8h16.05h5.8c4.16,0,7.64,2.95,8.47,6.86
		H81.74z"/>
</g>
</svg>
