<?xml version="1.0" encoding="utf-8"?>
<!-- Generator: Adobe Illustrator 25.0.1, SVG Export Plug-In . SVG Version: 6.00 Build 0)  -->
<svg version="1.1" id="Layer_1" xmlns="http://www.w3.org/2000/svg" xmlns:xlink="http://www.w3.org/1999/xlink" x="0px" y="0px"
	 viewBox="0 0 90 90" style="enable-background:new 0 0 90 90;" xml:space="preserve">
<style type="text/css">
	.kl123{fill:none;}
	.kl1243{fill:#A38244;}
</style>
<g>
	<path class="kl123" d="M38.47,33.4h17.84c-0.96-4.03-4.6-7.04-8.92-7.04S39.43,29.37,38.47,33.4z"/>
	<path class="kl1243" d="M47.39,85.79H5.58V24.24c0-10.94,8.9-19.85,19.85-19.85c10.29,0,18.78,7.88,19.75,17.92
		c-6.34,1.06-11.2,6.58-11.2,13.22c0,1.17,0.95,2.13,2.13,2.13h22.59c1.17,0,2.13-0.95,2.13-2.13c0-6.7-4.95-12.26-11.38-13.25
		c-1-12.38-11.38-22.14-24.01-22.14C13.13,0.14,2.96,9.39,1.51,21.3c-0.12,0.26-0.19,0.55-0.19,0.86v65.76
		c0,1.17,0.95,2.13,2.13,2.13h43.94c1.17,0,2.13-0.95,2.13-2.13S48.57,85.79,47.39,85.79z M56.31,33.4H38.47
		c0.96-4.03,4.6-7.04,8.92-7.04S55.35,29.37,56.31,33.4z"/>
	<path class="kl1243" d="M34.56,42.63v3.6c0,1.17,0.95,2.13,2.13,2.13s2.13-0.95,2.13-2.13v-3.6c0-1.17-0.95-2.13-2.13-2.13
		S34.56,41.46,34.56,42.63z"/>
	<path class="kl1243" d="M41.99,42.63v3.6c0,1.17,0.95,2.13,2.13,2.13s2.13-0.95,2.13-2.13v-3.6c0-1.17-0.95-2.13-2.13-2.13
		S41.99,41.46,41.99,42.63z"/>
	<path class="kl1243" d="M51.55,40.51c-1.17,0-2.13,0.95-2.13,2.13v3.6c0,1.17,0.95,2.13,2.13,2.13s2.13-0.95,2.13-2.13v-3.6
		C53.68,41.46,52.73,40.51,51.55,40.51z"/>
	<path class="kl1243" d="M58.99,40.51c-1.17,0-2.13,0.95-2.13,2.13v3.6c0,1.17,0.95,2.13,2.13,2.13s2.13-0.95,2.13-2.13v-3.6
		C61.11,41.46,60.16,40.51,58.99,40.51z"/>
</g>
</svg>
