<svg xmlns="http://www.w3.org/2000/svg" xmlns:xlink="http://www.w3.org/1999/xlink" width="126" height="34" viewBox="0 0 126 34">
  <defs>
    <polygon id="signature-logo-a" points="0 .027 32.969 .027 32.969 33 0 33"/>
  </defs>
  <g fill="none" fill-rule="evenodd">
    <g transform="translate(0 .26)">
      <mask id="signature-logo-b" fill="#fff">
        <use xlink:href="#signature-logo-a"/>
      </mask>
      <path fill="#FEFEFE" d="M16.4814073,32.3840671 C7.7207122,32.3840671 0.614443902,25.2786037 0.614443902,16.5106646 C0.614443902,7.74996951 7.7207122,0.647323171 16.4814073,0.647323171 C25.2489439,0.647323171 32.3479683,7.74996951 32.3479683,16.5106646 C32.3479683,25.2786037 25.2489439,32.3840671 16.4814073,32.3840671 M16.4814073,0.0267621951 C7.3794439,0.0267621951 -8.04878049e-05,7.40668902 -8.04878049e-05,16.5106646 C-8.04878049e-05,25.6174573 7.3794439,33.0002012 16.4814073,33.0002012 C25.5914195,33.0002012 32.9685293,25.6174573 32.9685293,16.5106646 C32.9685293,7.40668902 25.5914195,0.0267621951 16.4814073,0.0267621951" mask="url(#signature-logo-b)"/>
    </g>
    <path fill="#FEFEFE" d="M22.2200144 17.95306C22.1539382 18.1772286 22.0624166 18.4169987 21.94586 18.6699069 21.8272513 18.9244573 21.6762201 19.1547844 21.4849687 19.3727945 21.3721057 19.5041754 21.2399535 19.6142069 21.0946681 19.7172587L21.0946681 18.3849746C21.182496 18.3545928 21.2740176 18.3233898 21.3643079 18.2876707 21.6979719 18.1488996 22.0070112 17.9616819 22.2865009 17.7334076L22.2200144 17.95306zM20.3304833 17.7806226C20.2910838 17.8044354 20.2496323 17.8225003 20.205308 17.8413863 20.0616642 17.8233214 19.9020144 17.7912973 19.7238962 17.7268386 19.4755977 17.6418516 19.244126 17.5675393 19.0294812 17.5059545 18.8472588 17.4497071 18.6802216 17.4119351 18.5316529 17.3790899 18.3822634 17.3560982 18.2316427 17.3290009 18.0818427 17.3080621 17.9316324 17.2858916 17.7695202 17.273164 17.5950956 17.2715218 17.5167071 17.2686478 17.4284688 17.2633105 17.335716 17.2633105 17.3324327 17.2616682 17.3303807 17.2616682 17.3299702 17.2575626 17.3303807 17.2530463 17.3340744 17.2514041 17.3381785 17.2464773 17.8376483 17.2152743 18.2948459 17.1163281 18.70854 16.945533 19.1932351 16.7468194 19.6003625 16.4811837 19.9512637 16.1514999 20.2771299 16.1794183 20.635008 16.259068 21.0257191 16.4015341 21.1751086 16.4557287 21.3331167 16.5242931 21.4919457 16.6018899 21.3901638 16.8305747 21.2399535 17.0563856 21.0187421 17.2715218 20.8385718 17.4534022 20.6116146 17.6262501 20.3304833 17.7806226L20.3304833 17.7806226zM17.6225931 17.5059545L17.6517323 17.5059545C17.8860768 17.5133447 18.1245255 17.549885 18.3761073 17.6122909 18.6309723 17.6800342 18.8825541 17.7843177 19.1263381 17.9202148 19.2047266 17.962503 19.276138 18.0150554 19.3491911 18.0651443 19.0294812 18.0893677 18.6917131 18.0392787 18.3317829 17.9078979 18.1003112 17.8274271 17.8639146 17.6857821 17.6225931 17.5059545L17.6225931 17.5059545zM19.8347071 20.1134542C19.5814836 20.1134542 19.2978898 20.0670603 18.9884401 19.9857684 18.9449366 19.9697563 18.9030747 19.9545654 18.8591607 19.9385534 18.7688703 19.8248268 18.6765279 19.6885192 18.5964978 19.5132078 18.4824036 19.2824702 18.3736448 19.0665129 18.2657068 18.8665676 18.1737748 18.6982359 18.0855364 18.5549486 17.998119 18.4309579 17.9094702 18.3032722 17.823284 18.1809237 17.7309416 18.0589859 17.6422928 17.9374585 17.5331236 17.8126467 17.4141044 17.6882455 17.3623927 17.6278924 17.3000103 17.5646653 17.2355758 17.5002066L17.2355758 17.4883002C17.2413215 17.4883002 17.2454256 17.4883002 17.2515818 17.490353 17.6242348 17.8225003 18.0182291 18.0741768 18.4311023 18.2462036 18.9145662 18.4457383 19.3972092 18.5496113 19.8708232 18.5615177 20.0821848 18.8131941 20.2771299 19.1244026 20.4552481 19.5013014 20.5209138 19.6454098 20.5853483 19.8026563 20.6423954 19.9697563 20.4092821 20.0629546 20.1425151 20.1134542 19.8347071 20.1134542L19.8347071 20.1134542zM20.2028455 21.4395798C19.9976401 21.5553592 19.7608331 21.661285 19.4998119 21.755715 19.2404323 21.8505556 18.9654571 21.9047502 18.6802216 21.9260996 18.5078491 21.9404694 18.3301412 21.9211728 18.1565375 21.8916121L19.1017135 20.9473121C19.1846164 20.9924743 19.2712131 21.0335308 19.3602722 21.0704817 19.694757 21.208021 20.0477103 21.2975242 20.4076405 21.3332434L20.2028455 21.4395798zM17.2700503 17.8721787C17.2778481 17.8816217 17.282773 17.8849062 17.2901604 17.8935281 17.448579 18.0651443 17.5918123 18.2618051 17.7256062 18.4859737 17.8569377 18.711374 17.9640549 18.9593554 18.0358767 19.2348446 18.0596806 19.3083358 18.0662471 19.3986601 18.0818427 19.4832366 17.8450357 19.2734377 17.6427032 19.0016436 17.482643 18.6633378 17.3763467 18.4383481 17.3123226 18.1718913 17.2700503 17.8721787L17.2700503 17.8721787zM17.8614522 21.2893129C17.807278 21.4371164 17.7391498 21.5943629 17.6599405 21.755715 17.4301105 21.6538948 17.206847 21.4987012 16.9926126 21.2827439 16.8071069 21.0984001 16.6388385 20.870947 16.4828825 20.5925838 16.4619515 20.5531695 16.4418414 20.5129341 16.4233729 20.4690036 16.4397893 20.3236636 16.4722118 20.1639537 16.5341838 19.9857684 16.618318 19.7381976 16.6950648 19.5086916 16.7603201 19.2906815 16.8124423 19.1071588 16.8547146 18.9437539 16.8793392 18.7889708 16.9043743 18.6411673 16.9298198 18.4917216 16.9556756 18.3426864 16.9725025 18.1911878 16.986046 18.0294252 16.9942542 17.85863 16.9942542 17.7748747 16.9942542 17.6898877 16.9975375 17.5958683 17.0008208 17.5938155 17.0008208 17.5921732 17.0036937 17.5901204 17.0094394 17.5938155 17.013954 17.5983317 17.0168268 17.6012056 17.0476076 18.0992212 17.144875 18.5549486 17.3176579 18.966335 17.5167071 19.451623 17.7810117 19.8658833 18.1089299 20.2103476 18.0818427 20.537568 18.0009918 20.8980443 17.8614522 21.2893129L17.8614522 21.2893129zM16.3092787 22.4795415C16.0856048 22.4134405 15.8463354 22.3235267 15.5910599 22.2065156 15.3394781 22.0886834 15.1047231 21.9339003 14.8933616 21.7479143 14.7616198 21.632956 14.6467047 21.4970589 14.5436916 21.349666L15.8767058 21.349666C15.9070762 21.4395798 15.9366257 21.5323675 15.9735627 21.623513 16.1163856 21.9552497 16.3002497 22.2664581 16.5300797 22.5468742L16.3092787 22.4795415zM16.7603201 17.8816217L16.7603201 17.9115929C16.7480078 18.1452045 16.71025 18.3886697 16.6478676 18.6366511 16.5830227 18.8903804 16.48042 19.1412357 16.3421116 19.3871643 16.298608 19.4618872 16.2489483 19.5378417 16.1955949 19.6080484 16.1717911 19.2906815 16.2230924 18.9519652 16.3511406 18.598058 16.4369164 18.359109 16.5760457 18.1205706 16.7603201 17.8816217L16.7603201 17.8816217zM14.1509286 20.0974421C14.1509286 19.8396072 14.1956633 19.5563172 14.2756934 19.2492144 14.2929307 19.2073367 14.3081159 19.1638168 14.3220698 19.1219392 14.4394473 19.0291514 14.5724204 18.9408799 14.7447929 18.8583563 14.9795479 18.7421664 15.1970656 18.6333666 15.395294 18.5245668 15.5635624 18.4317791 15.7096686 18.3463815 15.831971 18.2556466 15.9604296 18.1718913 16.0856048 18.0799247 16.2005199 17.9896003 16.3252847 17.899276 16.4488184 17.7945819 16.5760457 17.6788025 16.6326824 17.6213233 16.6938336 17.5605597 16.7603201 17.4965115L16.7681179 17.4965115 16.7681179 17.5133447C16.4397893 17.889833 16.1841034 18.2782277 16.0154246 18.6916668 15.8167858 19.1753127 15.7137727 19.6528 15.6994083 20.131519 15.4506994 20.3429601 15.1396081 20.537568 14.7644926 20.7165745 14.617976 20.7867811 14.459147 20.8454919 14.2929307 20.9033816 14.199357 20.6701806 14.1509286 20.4024921 14.1509286 20.0974421L14.1509286 20.0974421zM16.3917713 17.5318201C16.3843839 17.5396209 16.3774069 17.5433159 16.3691987 17.549885 16.1984678 17.7067209 16.0006498 17.8528821 15.7765655 17.9854947 15.5545333 18.1156439 15.3021307 18.2223908 15.0320804 18.2995771 14.9512295 18.3205159 14.8658641 18.3291378 14.778857 18.3426864 14.990629 18.1037375 15.2623209 17.9033816 15.5988577 17.7457246 15.8254044 17.6397988 16.0909402 17.5716449 16.3917713 17.5318201L16.3917713 17.5318201zM12.9751017 18.1205706C12.8265331 18.0680183 12.6685249 17.9990433 12.5088751 17.9202148 12.6090154 17.6898877 12.7657923 17.4653086 12.98331 17.2514041 13.1643011 17.068292 13.3924895 16.8974969 13.670748 16.7410715 13.7101474 16.7193116 13.7520093 16.700015 13.794692 16.6844135 13.9424399 16.697141 14.0979856 16.7295757 14.2756934 16.791571 14.5252232 16.8818954 14.7571052 16.9545654 14.9742125 17.0190242 15.1552037 17.0728082 15.3210096 17.112633 15.4712199 17.1393198 15.6210199 17.1660065 15.7716406 17.1906404 15.921851 17.2136321 16.0724717 17.2345709 16.2349944 17.247709 16.4061356 17.2530463 16.4857553 17.2575626 16.5731728 17.2575626 16.6667465 17.2596154 16.6667465 17.2616682 16.6700298 17.2633105 16.6729026 17.2686478 16.6700298 17.2686478 16.6667465 17.2715218 16.6646944 17.273164 16.1648141 17.3064198 15.7055645 17.4045449 15.2951537 17.5773929 14.8092274 17.7748747 14.3988166 18.0421527 14.05243 18.371426 13.7265638 18.3439181 13.3703273 18.2601628 12.9751017 18.1205706L12.9751017 18.1205706zM13.1909778 19.6232393C13.054311 19.9570288 12.9681248 20.304367 12.9328294 20.6701806L12.8211977 20.462024C12.7079243 20.2592048 12.6028592 20.0223087 12.5088751 19.7611892 12.4157119 19.4967852 12.3553815 19.2237594 12.3365026 18.9408799 12.3270632 18.7668003 12.3430692 18.5935418 12.3713875 18.4169987L13.3157427 19.3588353C13.2722391 19.4471068 13.2270939 19.5353784 13.1909778 19.6232393L13.1909778 19.6232393zM11.7151407 16.7899288L11.7812169 16.5686341C11.8468826 16.3415916 11.9388146 16.1055166 12.0557817 15.8509661 12.1743904 15.6009319 12.3270632 15.3640358 12.5166729 15.1472574 12.6287151 15.0195716 12.7657923 14.9037922 12.9110777 14.8007403L12.9110777 16.1379512C12.8195561 16.1658697 12.7300865 16.1991254 12.6373337 16.2336129 12.304901 16.3756685 11.9946305 16.5604228 11.7151407 16.7899288L11.7151407 16.7899288zM16.3831526 17.0190242L16.3499094 17.0190242C16.1163856 17.00876 15.8750641 16.970988 15.625124 16.9040659 15.3727214 16.8408389 15.12155 16.7410715 14.8748931 16.599016 14.7993775 16.5579594 14.7263244 16.5086916 14.6524505 16.4557287 14.9742125 16.4310948 15.312391 16.4832366 15.6649338 16.6125646 15.9033825 16.6954988 16.1410103 16.835091 16.3831526 17.0190242L16.3831526 17.0190242zM14.167345 14.4078294C14.4226205 14.4078294 14.7078559 14.455455 15.0103287 14.5392103 15.0550634 14.5482427 15.0981566 14.5667182 15.1408393 14.5823196 15.2344129 14.698099 15.3226513 14.833175 15.4055542 15.0047912 15.5217005 15.239224 15.6296385 15.4588764 15.7363453 15.6530737 15.8290981 15.8234583 15.9197989 15.9683878 16.0076268 16.0936102 16.0909402 16.2176009 16.1808201 16.3415916 16.2707001 16.4631189 16.3650946 16.5850567 16.4660556 16.7053523 16.5830227 16.835091 16.6388385 16.8950335 16.7016314 16.9566183 16.7644242 17.0251826L16.7644242 17.033394 16.754164 17.033394C16.3774069 16.700015 15.9842334 16.4454646 15.5688977 16.2746694 15.0878963 16.0780087 14.6081261 15.9704406 14.1349225 15.9614082 13.9186361 15.7121951 13.7212285 15.3981127 13.5472143 15.0195716 13.4782653 14.8771055 13.4158829 14.719859 13.3596566 14.549885 13.594822 14.4583289 13.861589 14.4078294 14.167345 14.4078294L14.167345 14.4078294zM13.8024898 13.0821144C14.0040015 12.9675667 14.2379356 12.8641042 14.4997777 12.7659791 14.7644926 12.6694963 15.038647 12.6161228 15.3210096 12.5943629 15.4946134 12.585741 15.6719108 12.6021636 15.8492082 12.6280292L14.9023906 13.5752032C14.817846 13.5320938 14.7312494 13.4881634 14.6405486 13.4540864 14.305243 13.3116203 13.9563939 13.2270439 13.594822 13.1905036L13.8024898 13.0821144zM16.7348747 16.6515683C16.726256 16.643357 16.7209207 16.6355563 16.71025 16.6265238 16.556346 16.457371 16.4102397 16.259068 16.2784979 16.0348994 16.144704 15.8107308 16.0396388 15.5643916 15.9657649 15.2880812 15.9440131 15.2096633 15.9366257 15.1226235 15.921851 15.0417421 16.1578371 15.2503092 16.3560655 15.5221034 16.5177674 15.8591774 16.6216013 16.0845777 16.6921919 16.3502134 16.7348747 16.6515683L16.7348747 16.6515683zM16.1410103 13.2336129C16.1955949 13.0829355 16.2645439 12.925689 16.3437532 12.7659791 16.5731728 12.8677993 16.7972571 13.020119 17.013954 13.2381291 17.1949451 13.4220624 17.365676 13.6544423 17.5179384 13.9282893 17.5413318 13.9685246 17.5573378 14.0124551 17.5786792 14.05228 17.5618523 14.1980306 17.5331236 14.358151 17.4686891 14.5392103 17.3820924 14.7847283 17.3073977 15.0179293 17.2425528 15.2326549 17.1891994 15.4137142 17.1485687 15.579172 17.1243545 15.7306705 17.0972673 15.881348 17.0722323 16.0307937 17.0500701 16.1810606 17.02996 16.331738 17.0155956 16.4935007 17.0114915 16.6630641 17.0094394 16.7451772 17.0061562 16.8313959 17.0036937 16.9233625 17.0008208 16.9254153 16.9975375 16.9286998 16.9975375 16.9323949 16.9942542 16.9254153 16.9926126 16.9233625 16.9880981 16.9192568 16.9556756 16.423294 16.8588187 15.9667455 16.6876774 15.5524852 16.4882178 15.0704817 16.2230924 14.6574531 15.8943534 14.3121677 15.9197989 13.9849473 16.0006498 13.6240604 16.1410103 13.2336129L16.1410103 13.2336129zM17.6935942 12.0400999C17.917268 12.107022 18.1606416 12.1952935 18.4093505 12.314768 18.6613427 12.4342425 18.8965081 12.5869727 19.1103321 12.7741904 19.2420739 12.8883276 19.3553473 13.0250458 19.4591812 13.1683331L18.1228838 13.1683331C18.0945655 13.0821144 18.0613222 12.9872738 18.0247956 12.8965389 17.8860768 12.5611071 17.7022128 12.2568783 17.4723828 11.9760517L17.6935942 12.0400999zM17.2413215 16.6371985C17.2413215 16.6265238 17.2425528 16.6199548 17.2425528 16.6072273 17.2515818 16.3777213 17.2901604 16.1346667 17.3578782 15.8829902 17.4214918 15.6313138 17.5216321 15.3812795 17.6599405 15.1337087 17.7042649 15.0602175 17.7522829 14.9867264 17.8048155 14.9140563 17.8290297 15.23635 17.7769076 15.5730135 17.6500906 15.9273313 17.565546 16.1597112 17.4284688 16.3966073 17.2413215 16.6371985L17.2413215 16.6371985zM19.2256575 16.1810606C19.0147064 16.4159039 18.740552 16.6199548 18.4031944 16.7792541 18.1774684 16.8843588 17.9094702 16.9516915 17.60946 16.995622 17.6193098 16.9849473 17.6242348 16.9783782 17.6340846 16.970988 17.8027634 16.8153838 18.0009918 16.6696332 18.2267177 16.5374312 18.4495708 16.4052292 18.6999213 16.3001245 18.9724341 16.2233488 19.0495913 16.2019994 19.1378296 16.1921458 19.2256575 16.1810606L19.2256575 16.1810606zM19.853586 14.4279471C19.853586 14.6816764 19.8092616 14.9661981 19.7238962 15.2712481 19.7132255 15.3180525 19.6931154 15.3558245 19.6799822 15.3989338 19.5626047 15.4909005 19.4304525 15.5820459 19.2556175 15.6682646 19.021273 15.7803489 18.8078594 15.8895593 18.6051165 15.9971274 18.4397209 16.089094 18.2948459 16.1773655 18.1700811 16.2627631 18.0436745 16.3502134 17.917268 16.4397167 17.7982489 16.5345572 17.678409 16.6220076 17.5540545 16.7258806 17.4284688 16.844534 17.3673176 16.9007814 17.3073977 16.9623662 17.2384486 17.0268249L17.2294196 17.0268249 17.2294196 17.0124551C17.5573378 16.6371985 17.8158966 16.246751 17.984165 15.8300273 18.1877287 15.3463815 18.289921 14.8660202 18.303875 14.3885329 18.549711 14.1783235 18.864496 13.9812522 19.2404323 13.8088148 19.3848969 13.7386081 19.5412634 13.67456 19.7132255 13.6166703 19.802695 13.851103 19.853586 14.1200232 19.853586 14.4279471L19.853586 14.4279471zM20.8090222 14.9000971C20.9473306 14.565897 21.0339273 14.2173272 21.074558 13.8527453L21.182496 14.0609018C21.2961798 14.2661844 21.3954992 14.4977432 21.4931769 14.7621472 21.5863402 15.0195716 21.6442081 15.2934186 21.6622662 15.5820459 21.6762201 15.7565361 21.6556996 15.9273313 21.6302541 16.1055166L20.6846677 15.1591638C20.7322754 15.0766402 20.7720852 14.9916532 20.8090222 14.9000971L20.8090222 14.9000971zM28.6823421 18.5808142C28.7668867 18.3985233 28.8366565 18.1821554 28.9043743 17.9263733 28.9667567 17.6788025 29 17.3614356 29 16.9865895 29 16.4713302 28.9097096 15.9971274 28.7467766 15.5619282 28.5682479 15.1250869 28.3334929 14.7522936 28.031841 14.4398535 27.7326516 14.1298768 27.3760047 13.8868222 26.9619002 13.7147953 26.5477958 13.5440002 26.0975752 13.4594238 25.6161633 13.4594238 24.8741407 13.4594238 24.2872533 13.6819501 23.8448305 14.1257711 23.6507062 14.323253 23.4766921 14.5712344 23.3133486 14.8495976 23.2558911 14.6024373 23.1861213 14.3729314 23.0777728 14.1614903 22.9402852 13.8654728 22.817162 13.6240604 22.7198947 13.4331476L21.7738979 11.6200916C21.6364103 11.3638989 21.5141079 11.0990844 21.3954992 10.825648 21.2826362 10.5526221 21.207531 10.2787751 21.1669004 10.0061598 21.1291426 9.72984941 21.145559 9.46010806 21.221485 9.18995615 21.2945381 8.92021481 21.449263 8.66196929 21.6909949 8.41932525 21.9963405 8.11879152 22.3074319 7.92787869 22.6341188 7.85890374 22.9542392 7.78335974 23.2731284 7.78171748 23.5821677 7.85069243 23.8928486 7.91966739 24.1846506 8.03914187 24.4526489 8.20993699 24.7226991 8.38237438 24.9517083 8.55891742 25.1314682 8.74079781 25.4602073 9.0643232 25.6900373 9.40796628 25.8148021 9.77542215 25.9432607 10.1412357 25.999487 10.5078705 25.9822497 10.8761475 25.9600876 11.2464773 25.8792366 11.613112 25.7360033 11.9768728 25.5923595 12.3414547 25.406033 12.6842767 25.176203 13.0008224L25.3136906 13.1371301 27.3760047 11.0765033 27.2167653 10.9135089C27.0497281 10.961545 26.9331714 10.9791993 26.8720202 10.9742726 26.8129211 10.9648296 26.7353535 10.9089927 26.633982 10.8116887 26.5293273 10.7053523 26.4468347 10.58013 26.3897876 10.4302737 26.3331509 10.2841124 26.2695373 10.1161913 26.1960737 9.92979466 26.1238414 9.74216636 26.02247 9.54016828 25.8874449 9.31599967 25.7548822 9.09100994 25.5554226 8.84631307 25.2894764 8.58026681 24.9283149 8.21527434 24.5310373 7.94142735 24.1021581 7.75215678 23.6753309 7.56740244 23.2431684 7.47379357 22.8073122 7.46352944 22.3739184 7.45819209 21.9524266 7.53907344 21.5395533 7.70822631 21.1250385 7.87984256 20.7491022 8.13644582 20.4076405 8.47639382 19.8847772 9.00191729 19.6266288 9.57794028 19.6266288 10.2036417 19.6266288 10.4807732 19.6783406 10.7767907 19.7608331 11.087178 19.5474195 10.954976 19.3331851 10.8441234 19.1103321 10.7657054 18.8000616 10.6573162 18.5398611 10.5747926 18.3367078 10.5078705L16.3917713 9.90023397C16.1106399 9.81401528 15.831971 9.71383736 15.5619207 9.59970023 15.2853039 9.48761593 15.038647 9.34720263 14.817846 9.18256598 14.5995075 9.01669763 14.4193372 8.80895164 14.2756934 8.56836042 14.1410787 8.32571638 14.068436 8.03462565 14.068436 7.68975087 14.068436 7.26071023 14.1599576 6.90433962 14.3364342 6.62802923 14.5112692 6.34761319 14.7369951 6.12057063 15.0049933 5.9522389 15.2701187 5.77898038 15.5619207 5.65663194 15.8750641 5.58847812 16.1841034 5.51868203 16.4693389 5.48501569 16.7291289 5.48501569 17.1891994 5.48501569 17.5934539 5.56466534 17.9439447 5.73340764 18.289921 5.89927598 18.5887 6.1197495 18.8365881 6.3923648 19.085297 6.66826463 19.2876295 6.9860421 19.4411232 7.34610779 19.5950272 7.70453122 19.7074797 8.08225121 19.7743767 8.46448743L19.9631656 8.46448743 19.9631656 5.5474216 19.738671 5.5474216C19.6541263 5.69686733 19.5855877 5.79252903 19.5396217 5.83276442 19.4907829 5.8672519 19.3951572 5.88531677 19.2556175 5.88531677 19.1058176 5.88531677 18.9601218 5.85411381 18.8152468 5.78924451 18.6679093 5.72273294 18.503745 5.65457912 18.3215226 5.57205551 18.1388898 5.49117416 17.9217826 5.42137808 17.6702008 5.35404538 17.4141044 5.28999721 17.1030131 5.25961538 16.7291289 5.25961538 16.2140634 5.25961538 15.7363453 5.34213899 15.3021307 5.51539751 14.8711994 5.6878349 14.4936215 5.92349933 14.1841718 6.2236225 13.8718492 6.52661963 13.631759 6.88586419 13.4556927 7.29560827 13.2870139 7.70822631 13.2004173 8.15943747 13.2004173 8.6418516 13.2004173 9.38210067 13.4228599 9.97372514 13.8661035 10.4159039 14.0647423 10.6076378 14.3126304 10.7825386 14.5900681 10.9438907 14.3458737 11.0038333 14.114402 11.0765033 13.9038613 11.1754495 13.6079551 11.3216107 13.3662232 11.443138 13.1753822 11.5429054L11.366702 12.4835103C11.1056808 12.626387 10.8409658 12.7503777 10.5668115 12.8661571 10.2938883 12.9761885 10.0201443 13.0554276 9.748042 13.0919679 9.47388762 13.1305611 9.20014364 13.1120856 8.93214542 13.0435212 8.66291597 12.9675667 8.40312596 12.8107308 8.16344608 12.5656233 7.86220459 12.2626262 7.6754677 11.9518283 7.60118335 11.6262501 7.53018229 11.304367 7.52525736 10.9882318 7.59461678 10.6766128 7.66192414 10.3662255 7.78217449 10.0739031 7.9541366 9.80580397 8.1260987 9.53647319 8.30093368 9.30943063 8.48274565 9.12755024 8.81025343 8.80156146 9.15705051 8.5745189 9.51862239 8.44395916 9.88429837 8.31339943 10.2479223 8.25756256 10.6209857 8.27768025 10.9862512 8.29697682 11.3519272 8.37908986 11.7151407 8.52196655 12.0812271 8.66566438 12.4210472 8.85288212 12.7403468 9.0819775L12.8782448 8.94402759 10.817162 6.88586419 10.6554602 7.04187897C10.7030678 7.2102107 10.7231779 7.32065275 10.7133281 7.38387979 10.7042991 7.44546457 10.6538185 7.52429309 10.5553199 7.62282874 10.4518964 7.728344 10.3213858 7.81292043 10.1719963 7.86834674 10.0242484 7.92295191 9.85844249 7.98741065 9.67293683 8.06172295 9.48414788 8.13357186 9.28181538 8.23826599 9.05814152 8.36964686 8.83528848 8.50184886 8.58863162 8.70425751 8.32514792 8.96948264 7.95906153 9.33160115 7.68367591 9.72984941 7.49817025 10.1572478 7.31102295 10.5858779 7.21580765 11.021077 7.20759944 11.4513493 7.20144328 11.8849062 7.28188379 12.3094306 7.4542563 12.720817 7.62129348 13.1371301 7.88026266 13.5119761 8.22049318 13.8556192 8.74746058 14.3782687 9.31834194 14.6393882 9.94709121 14.6344614 10.2237081 14.6336403 10.5179726 14.5868359 10.8315264 14.4977432 10.7001949 14.7153428 10.5877424 14.9292472 10.5097644 15.1472574 10.4038784 15.4605186 10.3197442 15.720817 10.2557201 15.9244573L9.63805192 17.8766949C9.55555936 18.154237 9.45829201 18.4309579 9.34214576 18.6982359 9.22682034 18.975778 9.08851192 19.2237594 8.92147474 19.4462857 8.75607921 19.6675803 8.55210507 19.844534 8.31160436 19.9857684 8.0723349 20.1212549 7.77519751 20.191051 7.43619823 20.191051 7.00649817 20.191051 6.65313451 20.1040112 6.3703615 19.9286998 6.09292383 19.7468194 5.86596669 19.5288093 5.69400458 19.2602997 5.52532576 18.9913794 5.40425459 18.6982359 5.33448476 18.3886697 5.26307329 18.0770507 5.22695715 17.7945819 5.22695715 17.5367469 5.22695715 17.0728082 5.31150176 16.6696332 5.47977017 16.3177788 5.6451657 15.9683878 5.86596669 15.6719597 6.13683779 15.4239783 6.4122234 15.1776392 6.72823968 14.9764622 7.09104279 14.8200369 7.44933137 14.6648432 7.82157393 14.5519378 8.20900168 14.4924059L8.20900168 14.2957451 5.29262287 14.2957451 5.29262287 14.5207349C5.4428332 14.6081852 5.53681726 14.6742862 5.57457505 14.7239646 5.61356408 14.7703585 5.63203256 14.8660202 5.63203256 15.0047912 5.63203256 15.1558792 5.5991997 15.3045038 5.53681726 15.4477911 5.46827867 15.5923101 5.39932966 15.7573573 5.31437464 15.9375954 5.23721742 16.1194758 5.16252266 16.3415916 5.09767776 16.5916258 5.03570574 16.844534 5 17.1594375 5 17.5367469 5 18.0515957 5.08823831 18.5245668 5.25896918 18.9593554 5.42846883 19.3961967 5.66896953 19.7706322 5.96774856 20.0810195 6.27227333 20.3914068 6.62768905 20.6332297 7.04179349 20.8052566 7.4542563 20.9768728 7.90119361 21.0630915 8.38835117 21.0630915 9.12380724 21.0630915 9.71726119 20.8389229 10.1576319 20.3930491 10.3521666 20.1967989 10.527412 19.9504598 10.6866514 19.6741494 10.7441089 19.9159723 10.8192141 20.1462994 10.9197647 20.3593827 11.0625876 20.6541686 11.1857109 20.8988654 11.2842094 21.088136L12.2297958 22.9024237C12.364821 23.1577952 12.4936899 23.4221992 12.6045008 23.7017941 12.718595 23.9739989 12.794521 24.2437402 12.8326892 24.51964 12.8708574 24.7914342 12.8569035 25.0636389 12.7842607 25.3305063 12.7112076 25.6006582 12.5527891 25.8589037 12.3094155 26.0999055 12.0073532 26.4037238 11.6901057 26.5913521 11.3687541 26.6644327 11.0494545 26.7391556 10.7334382 26.7412084 10.419474 26.6710017 10.1071514 26.6040796 9.81452854 26.4846051 9.54488868 26.3117572 9.27730087 26.1421937 9.05321659 25.9648296 8.87140463 25.7833597 8.54512808 25.454497 8.31365642 25.1100328 8.18724991 24.7450403 8.05673929 24.3816901 8.00338589 24.0134131 8.02185437 23.6496523 8.03868121 23.2772697 8.12117377 22.9094033 8.26604877 22.5468742 8.41297582 22.1855768 8.59766066 21.8411126 8.8205137 21.522514L8.68754061 21.3853852 6.62768905 23.4451909 6.78569719 23.6044902C6.954376 23.5572752 7.06723896 23.5429054 7.12510688 23.5482427 7.18872054 23.5572752 7.26587777 23.6106486 7.36930128 23.7100054 7.47477684 23.8138784 7.55316529 23.9423853 7.61472691 24.0914205 7.67054277 24.2375817 7.73497726 24.406324 7.80720955 24.5894361 7.8778002 24.7803489 7.97917165 24.9839893 8.11337597 25.2077473 8.24593864 25.4298631 8.44375663 25.6753811 8.71052362 25.9397851 9.07373713 26.3072409 9.47388762 26.5810879 9.90112521 26.7683057 10.3300044 26.9542917 10.7601149 27.0515957 11.191867 27.059807 11.6256712 27.066376 12.0479839 26.9879581 12.4612675 26.8134679 12.8766032 26.6418516 13.2550019 26.3856589 13.5985157 26.0481743 14.121379 25.5226508 14.3782961 24.9421116 14.3733712 24.3201053 14.3733712 24.0446161 14.3245323 23.7449035 14.2412189 23.4353373 14.4542221 23.565897 14.6717398 23.6796236 14.8933616 23.7531148 15.2040425 23.8598617 15.4605493 23.9481332 15.6620609 24.0113603L17.6119224 24.6243341C17.8910017 24.711374 18.1700811 24.8107308 18.4450563 24.9211728 18.7151065 25.0348994 18.9638155 25.1753127 19.1817436 25.3436444 19.4037758 25.5086916 19.5855877 25.7111003 19.7238962 25.9508703 19.8650775 26.1922827 19.9327952 26.4887108 19.9327952 26.8311222 19.9327952 27.2626262 19.8437361 27.6157123 19.6672595 27.8948966 19.4907829 28.1749021 19.2695715 28.3994813 18.9966483 28.5702764 18.7319334 28.7423032 18.4397209 28.8650622 18.1278087 28.9340372 17.818359 29.0009593 17.5331236 29.0342151 17.273744 29.0342151 16.8124423 29.0342151 16.4085981 28.954976 16.0576969 28.7903393 15.7096686 28.6207759 15.4137624 28.4019447 15.1658743 28.1264554 14.9151134 27.8538401 14.7148329 27.538526 14.5605185 27.1764075 14.4066145 26.8155207 14.2941619 26.4451909 14.2317795 26.0555645L14.0351927 26.0555645 14.0351927 28.9734514 14.2633811 28.9734514C14.3495674 28.8211317 14.4156435 28.7291651 14.4644824 28.6918037 14.5112692 28.655674 14.6064845 28.6343246 14.7447929 28.6343246 14.8933616 28.6343246 15.0468552 28.6638853 15.1868053 28.7336813 15.3345532 28.7981401 15.4974862 28.869989 15.6809398 28.9496386 15.8611102 29.03052 16.0794487 29.1023689 16.3334929 29.169291 16.5830227 29.231697 16.8978077 29.2596154 17.273744 29.2596154 17.7883991 29.2596154 18.2657068 29.1775023 18.7011526 29.0058861 19.1353671 28.8367332 19.5076097 28.5977843 19.8178802 28.2964294 20.1306132 27.9979485 20.3715243 27.6391145 20.5447177 27.2260859 20.7142173 26.811415 20.8020452 26.3643095 20.8020452 25.879432 20.8020452 25.1404146 20.5791922 24.547969 20.1355382 24.1086642 19.9368993 23.9140563 19.6910633 23.7383344 19.4111632 23.5757506 19.6561784 23.518682 19.8872396 23.4451909 20.0961387 23.3441918 20.3957386 23.2037785 20.6370601 23.0769139 20.8295427 22.9816627L22.6382229 22.0340782C22.8951401 21.8981811 23.1631383 21.7725482 23.4360614 21.661285 23.7061117 21.5455056 23.9814973 21.4691405 24.2560621 21.4297262 24.5285748 21.3927754 24.8027292 21.409198 25.0707275 21.481868 25.3403673 21.5512535 25.5944116 21.7109634 25.838606 21.9552497 26.1410787 22.2566046 26.3265844 22.5723292 26.4008687 22.8925701 26.475153 23.2160955 26.475153 23.5334624 26.4025103 23.8467236 26.3388967 24.1546475 26.2211088 24.4477911 26.0466842 24.7163008 25.877595 24.9880949 25.6990663 25.2122635 25.5180752 25.3925017 25.1905674 25.7209538 24.8458224 25.9492281 24.4821984 26.0793773 24.121037 26.2078842 23.7520777 26.2624893 23.3810664 26.2419611 23.0174425 26.2238962 22.647252 26.143836 22.2819864 25.9984959 21.9187729 25.8543875 21.5760799 25.671686 21.2600636 25.4401272L21.1250385 25.5780771 23.1861213 27.6391145 23.3453606 27.4806363C23.2989842 27.3114835 23.2788741 27.1977569 23.288724 27.1369932 23.2936489 27.0774613 23.3453606 26.9982222 23.4455009 26.9000971 23.555491 26.7933502 23.6810766 26.7108266 23.8275933 26.6545791 23.9778036 26.5929943 24.1431992 26.5322307 24.3291152 26.4607923 24.5142105 26.3889434 24.7202367 26.2858916 24.9418585 26.1520473 25.1684052 26.0214876 25.4142413 25.8186683 25.6801874 25.5530327 26.0434009 25.1909141 26.3183761 24.793487 26.5042922 24.3623935 26.6893875 23.934174 26.7874756 23.5014383 26.7960943 23.0687026 26.8047129 22.6392514 26.7177058 22.2171903 26.5514894 21.8000561 26.3778857 21.3866169 26.1205582 21.0088969 25.7819693 20.6681278 25.2595164 20.1442466 24.6837101 19.8806637 24.0574233 19.888875 23.7787544 19.888875 23.4824378 19.9385534 23.1717569 20.0202559 23.3022675 19.8100465 23.4155409 19.5912152 23.4931085 19.3727945 23.5973529 19.0583016 23.6851808 18.8012878 23.7500257 18.5992897L24.3607169 16.6495155C24.4464927 16.3686889 24.5445809 16.0907362 24.656623 15.8197632 24.769486 15.5442739 24.9114881 15.2983454 25.0785253 15.0766402 25.2439208 14.8565772 25.4474845 14.6816764 25.6920893 14.5392103 25.9284859 14.3975653 26.2239817 14.3294115 26.5683163 14.3294115 26.9959643 14.3294115 27.3517904 14.4168619 27.6300489 14.5950472 27.9095386 14.7703585 28.1364958 14.9916532 28.3064058 15.2638579 28.4783679 15.5340098 28.5994391 15.8234583 28.6671569 16.1330244 28.74021 16.4438223 28.7738637 16.7295757 28.7738637 16.9865895 28.7738637 17.4497071 28.6884982 17.8528821 28.5235131 18.2059682 28.3589384 18.5549486 28.1364958 18.8489133 27.8668559 19.0973053 27.5873662 19.3432338 27.273402 19.5456425 26.9130613 19.7004256 26.5535415 19.860546 26.181299 19.967293 25.794692 20.0321623L25.794692 20.2251279 28.708198 20.2251279 28.708198 19.9984959C28.5608605 19.9139195 28.4648244 19.844534 28.4282978 19.8026563 28.3901296 19.7468194 28.3720715 19.6540317 28.3720715 19.5132078 28.3720715 19.3658149 28.4028524 19.2180114 28.4689285 19.0714397 28.5309005 18.9297947 28.6019016 18.7643369 28.6823421 18.5808142L28.6823421 18.5808142zM53.6807134 6.25961538C55.4035668 6.25961538 56 7.21854503 56 8.48979577 56 10.1184984 55.0060765 12.2596154 54.2988998 13.3970713 53.7689127 13.2856421 53.5703653 12.9285896 53.5703653 12.4381416 53.5703653 11.1888572 54.8735797 9.04774026 54.8735797 7.75412381 54.8735797 7.1518473 54.5864375 6.79479478 53.6364159 6.79479478 50.8535884 6.79479478 48.7771466 9.85050935 48.7771466 11.7016709 48.7771466 15.0253746 55.3814181 14.9582774 55.3814181 19.5085004 55.3814181 22.5865807 52.3332015 24.2596154 49.6164246 24.2596154 47.2089386 24.2596154 45 22.9659989 45 20.2669375 45 17.9472943 46.6125054 17.2779206 47.827125 17.2779206 47.0321444 18.1481862 46.6125054 19.2409107 46.6125054 20.2669375 46.6125054 21.9176065 47.6946282 23.3897492 49.9917661 23.3897492 51.9800086 23.3897492 54.1003524 22.2742596 54.1003524 20.1331426 54.1003524 16.2966253 47.3853373 16.2075619 47.3853373 12.214884 47.3853373 9.73908021 49.8371207 6.25961538 53.6807134 6.25961538M60.416024 12.4087663C60.416024 11.7898709 61.3139459 11.2596154 62.0146386 11.2596154 62.4526206 11.2596154 62.7372892 11.4361034 62.7372892 11.9445948 62.7372892 12.4970103 62.0146386 13.1380655 61.3139459 13.1380655 60.8320481 13.1380655 60.416024 12.9168619 60.416024 12.4087663M60.6352111 15.6793351C60.6352111 16.4086343 58.3574696 19.0828635 58.3574696 21.1599616 58.3574696 22.2208685 58.708012 22.4859963 59.4306627 22.4859963 60.416024 22.4859963 61.5546987 21.6241331 62.8027709 19.1046278L63 19.3258314C62.145994 21.867101 60.3940661 23.2596154 58.6860541 23.2596154 57.5473794 23.2596154 57 22.4416764 57 21.4029295 57 19.7235231 58.6640962 15.1933994 60.1533133 15.1933994 60.416024 15.1933994 60.6352111 15.3698874 60.6352111 15.6793351"/>
    <path fill="#FEFEFE" d="M66.1818256,24.6374604 C64.386359,25.5306266 62.7044317,26.4909602 62.7044317,27.763542 C62.7044317,28.2325143 62.9319171,28.5447626 63.2497457,28.5447626 C63.841045,28.5447626 64.9772515,27.4952724 66.1818256,24.6374604 M68.2499491,16.086014 C65.8635901,16.086014 63.6815204,19.2788632 63.6815204,21.1543522 C63.6815204,21.8688052 64.0001628,22.2482209 64.477516,22.2482209 C65.3410654,22.2482209 66.681968,20.9308608 67.8409637,19.3012523 L68.1136206,18.1178271 C68.2043707,17.6936331 68.5226061,16.9791802 69.2726163,16.9791802 C69.4089448,16.9791802 69.5680625,17.0011695 69.7499695,17.0459477 C69.7499695,17.7827898 69.0455378,20.5066668 68.0000814,23.1637762 C69.4773125,22.4717124 71.0229113,21.0875847 71.7045538,19.390409 L72,19.6139004 C71.2951614,21.6233244 69.159077,23.1413871 67.7502136,23.8114616 C66.4772718,26.8255976 65.0228299,29.2596154 63.3181134,29.2596154 C62.6592602,29.2596154 62,28.8797999 62,27.9642446 C62,26.1559229 64.5226875,24.9724977 66.4316933,24.0345533 C66.8410857,23.0074521 67.227282,21.8020376 67.590689,20.3503427 C66.4316933,21.980351 65.1591584,23.2085545 63.8862166,23.2085545 C62.7955887,23.2085545 62.181907,22.3377774 62.181907,21.0428064 C62.181907,17.9391139 65.7500509,15.2596154 68.2043707,15.2596154 C69.0679201,15.2596154 69.431734,15.5946527 69.431734,15.9744682 C69.431734,16.2419383 69.2270378,16.3986621 69.159077,16.4206515 C68.9999593,16.1975598 68.7045131,16.086014 68.2499491,16.086014"/>
    <path fill="#FEFEFE" d="M72.5954664,17.1346154 C72.7753336,16.9329395 73.2022668,16.6633688 73.6291999,16.6633688 C74.0335994,16.6633688 74.2360003,16.8879441 74.2360003,17.2467022 C74.2360003,17.7179487 73.9213332,18.9746062 73.5169338,20.2083642 C74.7080008,18.3908711 76.4829321,16.2596154 78.191067,16.2596154 C79.3596003,16.2596154 79.8541345,17.2691999 79.8541345,18.2787843 C79.8541345,19.6700263 78.9326672,20.7246062 78.9326672,21.8237798 C78.9326672,22.4521085 79.2248005,22.6762821 79.6066662,22.6762821 C80.7301321,22.6762821 81.9211991,20.836693 82.7529341,19.1762821 L83,19.4679487 C82.0564013,21.6666976 80.7977332,23.2596154 79.112132,23.2596154 C78.0562672,23.2596154 77.5391992,22.6537843 77.5391992,21.8237798 C77.5391992,20.9037843 78.191067,19.7596154 78.191067,18.7050355 C78.191067,17.8750309 77.8092013,17.6058619 77.2921333,17.6058619 C75.4270673,17.6058619 73.3591979,21.1733551 72.191067,23.1475286 C71.7190665,23.1475286 71.2470659,22.9904464 71,22.6537843 C71,22.3846154 72.5729327,19.086693 72.5954664,17.1346154"/>
    <path fill="#FEFEFE" d="M89.7356698 18.8596154C89.7356698 19.3906071 88.4389853 20.9596154 88.4389853 22.0674666 88.4389853 22.5286236 88.6623722 23.0827559 89.1992212 23.0827559 90.0038942 23.0827559 91.4350912 21.8827559 92.7762128 19.4364749L93 19.6674666C92.0608145 22.1596154 90.1604251 23.8674666 88.5730975 23.8674666 87.4773811 23.8674666 86.9633512 23.0596154 86.9633512 22.2517641 86.9633512 22.0674666 86.9857699 21.8364749 87.0306074 21.5827559 85.7335226 23.3596154 84.7498999 24.2596154 83.6545838 24.2596154 82.7153983 24.2596154 82 23.6364749 82 22.3443261 82 19.5980451 85.2867489 15.2596154 88.1927794 15.2596154 89.3557521 15.2596154 90.2276813 15.9517641 90.2276813 16.9901939 90.2276813 17.7517641 89.7805073 17.9827559 89.1319649 17.9827559 89.1992212 17.7286236 89.2436583 17.4290369 89.2436583 17.1749046 89.2436583 16.4827559 88.9530152 15.8823427 88.1483422 15.8823427 86.0465844 15.8823427 83.5424901 20.1749046 83.5424901 22.4137476 83.5424901 23.0364749 83.7438585 23.3133344 84.1465953 23.3133344 85.5325545 23.3133344 87.7460058 19.9443261 88.8413218 18.2827559 89.1099465 18.3286236 89.7356698 18.5133344 89.7356698 18.8596154M99.716517 16.164795C98.1245607 16.3515118 96.8598204 16.4446613 95.8785631 16.4446613L95.5513471 16.4446613C94.8754393 18.1008852 94.3522062 19.8740682 94.3522062 21.5302921 94.3522062 22.8832578 94.7008981 23.3962069 95.5732136 23.3962069 97.0780945 23.3962069 98.6044514 21.856942 99.716517 19.4074851L100 19.6405678C98.9531433 22.2767415 96.9906287 24.2596154 94.9410387 24.2596154 93.6759078 24.2596154 93 23.4897741 93 21.9500916 93 20.573734 93.5236236 18.450927 94.2647403 16.32812 93.9812573 16.2813364 93.7196408 16.2345527 93.4798907 16.1414032L93.4798907 15.7216037C93.6977743 15.7449955 94.0249902 15.7913614 94.4392815 15.8147532 95.6602889 12.4555218 97.3397111 9.25961538 98.233893 9.25961538 98.4517766 9.25961538 98.6915267 9.44633218 98.6915267 9.77298213 98.6915267 10.5891893 97.056228 13.0156722 95.7914877 15.8849287L96.5982038 15.8849287C97.5575947 15.8849287 98.6263178 15.8615369 99.716517 15.7449955L99.716517 16.164795z"/>
    <path fill="#FEFEFE" d="M106.582956,17.3907432 C106.582956,17.6253758 105.01482,20.3358792 105.01482,21.7658388 C105.01482,22.2779034 105.225609,22.6195346 105.787154,22.6195346 C106.770277,22.6195346 108.548783,21.3603906 109.69576,19.1619519 L110,19.3541672 C108.993409,21.6588402 106.957598,23.2596154 105.295592,23.2596154 C104.055164,23.2596154 103.657473,22.5553354 103.657473,21.6802399 C103.657473,21.3389909 103.727875,20.97596 103.821327,20.6133112 C102.955541,22.0218711 101.925483,23.2596154 100.755457,23.2596154 C99.7023506,23.2596154 99,22.2565037 99,21.1039761 C99,19.4821834 100.357766,16.2596154 101.059698,16.2596154 C101.223551,16.2596154 101.668178,16.430431 101.925483,16.6864633 C101.410873,17.412143 100.357766,19.5463825 100.357766,20.97596 C100.357766,21.3389909 100.42775,22.4059196 101.200084,22.4059196 C102.651301,22.4059196 104.570193,18.4366544 105.459446,16.8358792 C105.71717,16.8786786 106.582956,17.0280945 106.582956,17.3907432"/>
    <path fill="#FEFEFE" d="M109,19.742286 C109.425087,18.9375606 110.228311,17.3285213 110.913103,15.3745409 C110.771407,15.2366468 110.677084,15.0526507 110.677084,14.8229644 C110.677084,13.9033957 111.409249,13.2596154 111.669377,13.2596154 C111.999718,13.2596154 111.999718,13.6506584 111.999718,13.8116035 C111.999718,13.972137 111.740013,14.5702271 111.740013,14.6620193 C111.740013,15.512435 114.149262,15.9034781 114.149262,17.8574585 C114.149262,19.2598624 112.968324,20.7766978 112.968324,21.7423683 C112.968324,22.2939448 113.299088,22.431839 113.677225,22.431839 C115.165241,22.431839 117.10203,20.3399644 117.692922,19.0067134 L118,19.2363998 C117.10203,21.1907918 115.070918,23.2596154 113.062647,23.2596154 C111.999718,23.2596154 111.338613,22.6619369 111.338613,21.7654193 C111.338613,20.4091173 112.63756,18.6848233 112.63756,17.4664154 C112.63756,16.4781055 111.905395,16.1331644 111.314926,15.719482 C110.582762,17.5355683 109.708478,19.3055527 109.212332,20.1333291 L109,19.742286 Z"/>
    <path fill="#FEFEFE" d="M118.733582 19.516895C120.419541 18.9600542 123.459369 17.3784826 123.459369 15.4626469 123.459369 15.1287817 123.364547 14.950481 122.960597 14.950481 121.440896 14.950481 119.374799 17.40082 118.733582 19.516895M118.614949 19.9405089C118.543513 20.2296992 118.520127 20.5192883 118.520127 20.742264 118.520127 21.6553074 118.923651 22.6134247 120.396154 22.6134247 122.414202 22.6134247 124.527922 20.8088775 125.715109 18.670465L126 18.8711032C124.717991 21.5444179 122.24837 23.2596154 119.897383 23.2596154 117.973731 23.2596154 117 22.1231974 117 20.6752516 117 18.0242743 120.229897 14.2596154 123.031607 14.2596154 123.768071 14.2596154 124.50411 14.5268671 124.50411 15.6186102 124.50411 17.8906485 121.321837 19.6951958 118.614949 19.9405089M94.1599109 28.5088265C94.3180401 28.5088265 94.4712695 28.4992766 94.6187082 28.4793463 94.7665924 28.4598313 94.898441 28.4154035 95.0142539 28.346478 95.1305122 28.2779678 95.2240535 28.1795622 95.2953229 28.0516765 95.3665924 27.9237908 95.4022272 27.7494011 95.4022272 27.5280924 95.4022272 27.3412463 95.3665924 27.1863717 95.2953229 27.0634686 95.2240535 26.9405654 95.1318486 26.8434055 95.0182628 26.7719887 94.9046771 26.7009872 94.7799555 26.6503312 94.6423163 26.6208511 94.5051225 26.5913709 94.3710468 26.5768384 94.2391982 26.5768384L93.8592428 26.5768384C93.6587973 26.5768384 93.5585746 26.7142741 93.5585746 26.9895606L93.5585746 28.3983797C93.57951 28.4718725 93.6427617 28.5088265 93.7487751 28.5088265L94.1599109 28.5088265zM97 30.5367288C97 30.5956891 96.9857461 30.6671058 96.9567929 30.7505637 96.9273942 30.8344368 96.8828508 30.9133274 96.8222717 30.9868202 96.7612472 31.0607282 96.6877506 31.1242558 96.6004454 31.1786488 96.5135857 31.2326265 96.4146993 31.2596154 96.3037862 31.2596154 95.9821826 31.2596154 95.7447661 31.2089593 95.5919822 31.1084777 95.4391982 31.0079961 95.3256125 30.844402 95.2516704 30.6181107 95.1884187 30.4312646 95.125167 30.2307165 95.0619154 30.0168816 94.9986637 29.8030467 94.9233853 29.6066508 94.8365256 29.4268634 94.7492205 29.2474912 94.6423163 29.0975991 94.5158129 28.9771872 94.3893096 28.8567753 94.2311804 28.7965694 94.0414254 28.7965694L93.8040089 28.7965694C93.6614699 28.7965694 93.57951 28.8235583 93.5585746 28.877536L93.5585746 30.4777685C93.5585746 30.7974828 93.8013363 30.95734 94.2864143 30.95734L94.2864143 31.1786488 92.0556793 31.1786488 92.0556793 30.95734C92.5193764 30.95734 92.7518931 30.7974828 92.7518931 30.4777685L92.7518931 26.9895606C92.7518931 26.6748288 92.5011136 26.5178781 92 26.5178781L92 26.2890955 92.9893096 26.2890955C93.163029 26.2890955 93.3109131 26.2878499 93.4320713 26.2853586 93.5532294 26.2828673 93.6708241 26.2791304 93.7844098 26.2745631 93.8975501 26.2695805 94.0187082 26.2658436 94.1483296 26.2633523 94.2775056 26.260861 94.4342984 26.2596154 94.6187082 26.2596154 94.8454343 26.2596154 95.0592428 26.2903412 95.2596882 26.3517928 95.4601336 26.4132443 95.6329621 26.4979479 95.7777283 26.6063186 95.9229399 26.7142741 96.0374165 26.8421598 96.122049 26.9895606 96.2062361 27.1373766 96.2485523 27.2972337 96.2485523 27.4691321 96.2485523 27.6414456 96.2142539 27.7934138 96.145657 27.9262821 96.0770601 28.0591503 95.9808463 28.1745797 95.8570156 28.2729853 95.7331849 28.3713908 95.586637 28.4548487 95.4178174 28.5237742 95.2489978 28.5926996 95.0619154 28.6466773 94.8561247 28.6857074L94.8561247 28.7077137C95.1091314 28.821067 95.318931 28.9622395 95.485078 29.1320618 95.6512249 29.3018841 95.7634744 29.465063 95.8213808 29.6224289 95.8530067 29.7208345 95.8899777 29.8387551 95.932294 29.9766059 95.9741648 30.1140416 96.0231626 30.2444186 96.0783964 30.3673217 96.1340757 30.4902249 96.1986637 30.5948587 96.2721604 30.6808079 96.3461024 30.7667571 96.4356347 30.8099393 96.5412027 30.8099393 96.667706 30.8099393 96.7599109 30.6990773 96.8182628 30.4777685L97 30.5367288zM100.305882 26.2993098L99.6491597 27.8476406C99.5945378 27.9659765 99.5672269 28.0494344 99.5672269 28.0984295 99.5672269 28.1723375 99.6592437 28.2092915 99.8432773 28.2092915L100.783613 28.2092915C100.932773 28.2092915 101.007563 28.1798114 101.007563 28.1208511 101.007563 28.0963535 100.979832 28.0149716 100.92521 27.877536L100.305882 26.2993098zM100.955042 30.2596154L100.955042 30.0383066C101.02479 30.0283415 101.098319 30.0187916 101.17521 30.0088265 101.252521 29.9988614 101.321849 29.986405 101.384454 29.9718725 101.446218 29.95734 101.498739 29.9386554 101.540756 29.9166491 101.583193 29.8942276 101.604622 29.8684843 101.604622 29.8390042 101.59958 29.8194892 101.595798 29.7912546 101.593277 29.7543007 101.590756 29.7173467 101.576891 29.6720884 101.552101 29.6176954L101.216387 28.7108693C101.161765 28.5829836 101.010084 28.5190407 100.760924 28.5190407L99.6491597 28.5190407C99.460084 28.5190407 99.3457983 28.5825684 99.3058824 28.7100389L99.0521008 29.4732012C99.0323529 29.5172138 99.0222689 29.5807414 99.0222689 29.6637841 99.0222689 29.8888298 99.2411765 30.0013526 99.6789916 30.0013526L99.6789916 30.2596154 98 30.2596154 98 30.0013526C98.1441176 29.9918027 98.2672269 29.9423923 98.3693277 29.8543671 98.4714286 29.7659266 98.5571429 29.6380409 98.6268908 29.4711251L100.418067 25.2596154 100.641597 25.3476406 102.410504 29.7285574C102.479832 29.8315303 102.534874 29.8958884 102.57437 29.920386 102.584454 29.9303511 102.62563 29.943638 102.697479 29.9606617 102.769748 29.9781007 102.870588 30.0038439 103 30.0383066L103 30.2596154 100.955042 30.2596154zM110.171279 31.2596154L107.067136 27.0828549 107.067136 30.07258C107.067136 30.6610856 107.308319 30.9555472 107.790685 30.9555472L107.790685 31.1781686 106.105172 31.1781686 106.105172 30.9555472C106.498577 30.9555472 106.695081 30.6606679 106.695081 30.071327L106.695081 26.7942407C106.695081 26.5862381 106.463388 26.4822367 106 26.4822367L106 26.2596154 107.283805 26.2596154 110.030919 29.9614782 110.030919 27.3000464C110.030919 26.7545615 109.792108 26.4822367 109.314487 26.4822367L109.314487 26.2596154 111 26.2596154 111 26.4822367C110.569034 26.4822367 110.353946 26.7545615 110.353946 27.2996288L110.353946 31.2074059 110.171279 31.2596154zM117.152134 30.2307724L116.621076 29.8485007C116.453745 29.9736225 116.253612 30.0731513 116.020262 30.1478994 115.786497 30.2222413 115.546919 30.2596154 115.301113 30.2596154 114.961883 30.2596154 114.652134 30.1970544 114.371865 30.0719326 114.091596 29.9472169 113.849527 29.7749713 113.645657 29.556008 113.441372 29.3374509 113.28276 29.0811136 113.169822 28.7878084 113.056469 28.4945033 113 28.1792611 113 27.8424883 113 27.5105904 113.05813 27.1896609 113.173559 26.8792936 113.288989 26.5689264 113.452583 26.293902 113.663926 26.0530018 113.87527 25.8129141 114.127304 25.6203564 114.419615 25.475735 114.71234 25.3315198 115.032885 25.2596154 115.382079 25.2596154 115.593423 25.2596154 115.796462 25.2957707 115.990782 25.3676752 116.184687 25.4399859 116.37527 25.5240775 116.562116 25.6203564 116.738997 25.4472982 116.916293 25.3461445 117.093174 25.3173014 117.26009 25.7166352 117.343963 26.2646528 117.343963 26.9621666L117.093174 26.9621666C116.984803 26.5392709 116.79339 26.1964045 116.518103 25.9339735 116.242402 25.6719488 115.893622 25.5407334 115.470935 25.5407334 115.170736 25.5407334 114.917456 25.6020756 114.711095 25.72476 114.504733 25.8474444 114.336157 26.0111591 114.20578 26.2154977 114.075403 26.4202426 113.982395 26.654643 113.925511 26.9191051 113.869042 27.1835673 113.840807 27.4553417 113.840807 27.7340223 113.840807 28.0374834 113.874024 28.3234763 113.940458 28.5928133 114.006893 28.8621503 114.10862 29.0977694 114.246471 29.3000769 114.383906 29.5019781 114.553729 29.6632553 114.755522 29.7835023 114.956901 29.9037493 115.195233 29.9638728 115.470935 29.9638728 115.632868 29.9638728 115.784421 29.9447795 115.924348 29.9061867 116.064275 29.8675939 116.188424 29.8074704 116.296795 29.7258162 116.40475 29.644162 116.489454 29.5393521 116.550905 29.4117928 116.612357 29.2842335 116.643083 29.1294561 116.643083 28.946242 116.643083 28.4461607 116.392294 28.195917 115.891131 28.195917L115.891131 27.9793911 118 27.9793911 118 28.195917C117.56278 28.195917 117.343963 28.3787249 117.343963 28.7443408L117.343963 30.2307724 117.152134 30.2307724zM121.049559 30.2596154L121.049559 30.0333076C121.481316 30.0333076 121.697393 29.8698396 121.697393 29.5424788L121.697393 26.1202642C121.697393 25.6973701 121.465061 25.4859231 121 25.4859231L121 25.2596154 124.704232 25.2596154 124.760531 26.6701113 124.542472 26.7002574C124.50005 26.4289428 124.436614 26.2174958 124.352166 26.0667655 124.267717 25.9160352 124.165428 25.8039428 124.045693 25.7309129 123.925959 25.6583076 123.78878 25.6154238 123.63376 25.6031106 123.478739 25.5903729 123.309842 25.584004 123.126673 25.584004L122.929626 25.584004C122.572802 25.584004 122.39439 25.6969455 122.39439 25.9232533L122.39439 27.2734571C122.39439 27.4241874 122.450689 27.4997648 122.563287 27.4997648L122.802755 27.4997648C122.920111 27.4997648 123.029537 27.493396 123.130241 27.4806582 123.231341 27.468345 123.320547 27.4356514 123.397859 27.3825773 123.475567 27.3299279 123.538606 27.2496799 123.588165 27.1414089 123.637328 27.0331378 123.671424 26.8862288 123.690058 26.7002574L123.95054 26.7002574 123.95054 28.6533824 123.690058 28.6533824C123.671424 28.4674109 123.643275 28.3205019 123.60561 28.2122309 123.567945 28.1039598 123.514025 28.0211643 123.44385 27.9634197 123.373278 27.9056752 123.286451 27.8678864 123.182972 27.8500536 123.079889 27.8326453 122.953018 27.8237288 122.802755 27.8237288L122.718307 27.8237288C122.502627 27.8237288 122.39439 27.9065244 122.39439 28.07254L122.39439 29.513182C122.39439 29.7997818 122.582317 29.9428695 122.957776 29.9428695L123.176232 29.9428695C123.471999 29.9428695 123.709882 29.9190923 123.891069 29.8711133 124.071464 29.823559 124.218158 29.7479816 124.330756 29.6448056 124.443751 29.5420542 124.534146 29.4125536 124.601943 29.2567282 124.670136 29.1009027 124.739518 28.9170542 124.809694 28.7060318L125 28.7663239 124.809694 30.2596154 121.049559 30.2596154z"/>
  </g>
</svg>
