<svg version="1.1" id="Layer_1" xmlns="http://www.w3.org/2000/svg" xmlns:xlink="http://www.w3.org/1999/xlink" x="0px" y="0px"
	 viewBox="0 0 90 90" style="enable-background:new 0 0 90 90;" xml:space="preserve">
<g>
	<path fill="#A38244" d="M45.9,48.4c-9.4,0-17-7.6-17-17s7.6-17,17-17s17,7.6,17,17S55.2,48.4,45.9,48.4z M45.9,18.7
		c-7,0-12.8,5.7-12.8,12.8c0,7,5.7,12.8,12.8,12.8s12.8-5.7,12.8-12.8C58.6,24.4,52.9,18.7,45.9,18.7z"/>
	<path fill="#A38244" d="M45.5,89.6c-3.6,0-7-1.9-8.8-4.8C30.6,75,25.9,65.4,20.8,52.7c-4.7-11.9-9-25.6-0.9-38.2
		c5.3-8.2,14.7-13.6,24.5-14C54.9,0,65.2,5.1,71.3,13.7c3.5,5,5.1,10.9,4.9,17.7c-0.3,9.3-3.9,18.7-7.1,25.9
		C64.3,68.2,59.2,77.6,54,85.2C52.1,88,48.9,89.6,45.5,89.6L45.5,89.6C45.5,89.6,45.5,89.6,45.5,89.6z M45.5,87.5L45.5,87.5
		L45.5,87.5z M45.7,4.6c-0.3,0-0.7,0-1,0c-8.5,0.4-16.6,5-21.1,12.1c-7,10.9-3.2,23,1.2,34.4c4.9,12.5,9.5,21.9,15.4,31.4
		c1.1,1.8,3.1,2.8,5.2,2.8c0,0,0,0,0,0h0c2.1,0,3.9-1,5-2.6c5.1-7.4,10-16.5,14.7-27.1c3-6.8,6.5-15.7,6.8-24.3
		c0.2-6-1.2-10.9-4.2-15.2C62.8,9.1,54.2,4.6,45.7,4.6z"/>
</g>
</svg>
