<?xml version="1.0" encoding="utf-8"?>
<!-- Generator: Adobe Illustrator 25.0.1, SVG Export Plug-In . SVG Version: 6.00 Build 0)  -->
<svg version="1.1" id="Layer_1" xmlns="http://www.w3.org/2000/svg" xmlns:xlink="http://www.w3.org/1999/xlink" x="0px" y="0px"
	 viewBox="0 0 90 90" style="enable-background:new 0 0 90 90;" xml:space="preserve">
<style type="text/css">
	.poi123{fill:#A38244;}
</style>
<g>
	<path class="poi123" d="M79.86,30.16C79.62,19.93,73.76,10.1,64.83,5.23c-5.55-3.03-12.52-4.42-21.29-4.27
		C35.59,1.1,29.51,2.38,24.39,5c-8.72,4.46-13.51,13.14-13.95,25.13c-5.7,0.91-10.07,5.85-10.07,11.81c0,3.54,1.57,6.88,4.26,9.15
		v36.57c0,1.17,0.95,2.13,2.13,2.13h15.44c1.17,0,2.13-0.95,2.13-2.13v-1.24h41.5v1.24c0,1.17,0.95,2.13,2.13,2.13h15.44
		c1.17,0,2.13-0.95,2.13-2.13V51.07c2.68-2.26,4.25-5.6,4.25-9.14C89.75,36.04,85.47,31.15,79.86,30.16z M24.31,52.52
		c6.5-3.17,13.47-4.79,20.75-4.79c7.28,0,14.25,1.62,20.75,4.79V62.7h-41.5V52.52z M71.01,32.07C71,32.08,71,32.08,70.99,32.09
		c-3.12,2.16-5.17,5.76-5.18,9.84v5.89c-3.58-1.57-7.29-2.72-11.09-3.44l4.08-9.04c0.48-1.07,0.01-2.33-1.06-2.81
		c-1.07-0.48-2.33-0.01-2.81,1.06l-4.59,10.17c-1.74-0.17-3.5-0.28-5.27-0.28c-1.76,0-3.5,0.11-5.22,0.28l-4.59-10.17
		c-0.48-1.07-1.74-1.55-2.81-1.06c-1.07,0.48-1.55,1.74-1.06,2.81l4.08,9.03c-3.82,0.72-7.54,1.87-11.14,3.45v-5.89
		c0-0.07,0-0.13-0.01-0.2c-0.07-3.99-2.11-7.51-5.18-9.64c-0.05-0.04-0.1-0.08-0.16-0.12c-1.28-0.85-2.72-1.47-4.28-1.78
		c0.3-7.58,2.69-16.83,11.64-21.42c4.52-2.31,10.01-3.45,17.28-3.57c8.02-0.14,14.3,1.09,19.19,3.76
		c7.59,4.14,12.58,12.5,12.81,21.2C73.93,30.48,72.37,31.14,71.01,32.07z M12.34,34.22c4.25,0,7.71,3.46,7.72,7.71
		c0,0.06,0,0.12,0.01,0.18v22.72v19.45v1.24H8.88V50.04c0-0.7-0.34-1.35-0.92-1.75c-2.09-1.45-3.34-3.82-3.34-6.35
		C4.62,37.68,8.08,34.22,12.34,34.22z M82.17,48.28c-0.57,0.4-0.92,1.05-0.92,1.75v35.5H70.06v-1.24V64.83v-22.9
		c0-4.25,3.46-7.71,7.72-7.71c4.26,0,7.72,3.46,7.72,7.72C85.5,44.46,84.25,46.83,82.17,48.28z M24.31,82.16v-15.2h41.5v15.2H24.31z
		"/>
</g>
</svg>
