<?xml version="1.0" encoding="utf-8"?>
<!-- Generator: Adobe Illustrator 25.0.1, SVG Export Plug-In . SVG Version: 6.00 Build 0)  -->
<svg version="1.1" id="Layer_1" xmlns="http://www.w3.org/2000/svg" xmlns:xlink="http://www.w3.org/1999/xlink" x="0px" y="0px"
	 viewBox="0 0 90 90" style="enable-background:new 0 0 90 90;" xml:space="preserve">
<style type="text/css">
	.ui123{fill:none;}
	.ui1234{fill:#A38244;}
</style>
<g>
	<rect x="35.31" y="60.3" class="ui123" width="18.23" height="2.1"/>
	<path class="ui123" d="M22.71,25.07L5.6,7.97v15.09l11.71,7.87c0.59,0.4,0.94,1.06,0.94,1.76V57.4c0,0.67-0.32,1.31-0.86,1.71
		L5.6,67.83v12.92l17.1-17.1V25.07z"/>
	<rect x="35.31" y="34.83" class="ui123" width="18.23" height="21.22"/>
	<polygon class="ui123" points="14,33.82 5.6,28.18 5.6,62.54 14,56.33 	"/>
	<path class="ui123" d="M67.29,25.07v38.58l2,2V32.69c0-0.55,0.21-1.08,0.59-1.47l8.18-8.5c0.6-0.62,1.52-0.82,2.33-0.5
		c0.8,0.32,1.33,1.1,1.33,1.97v53.89l2.67,2.67V7.97L67.29,25.07z"/>
	<path class="ui123" d="M63.04,26.32H26.96V62.4h4.1V32.7c0-1.17,0.95-2.13,2.13-2.13h22.48c1.17,0,2.13,0.95,2.13,2.13v29.7h5.25
		V26.32z"/>
	<polygon class="ui123" points="73.54,62.4 77.47,62.4 77.47,29.46 73.54,33.55 	"/>
	<path class="ui123" d="M78.1,80.46c-0.1-0.1-0.19-0.21-0.27-0.33c-0.04-0.05-0.06-0.11-0.09-0.16c-0.04-0.07-0.08-0.13-0.11-0.2
		c-0.03-0.07-0.05-0.15-0.07-0.23c-0.02-0.06-0.04-0.11-0.05-0.17c-0.03-0.14-0.04-0.28-0.04-0.42v-12.3h-3.93v4.12
		c0,0.14-0.01,0.28-0.04,0.42c-0.01,0.06-0.03,0.11-0.05,0.17c-0.02,0.08-0.04,0.16-0.07,0.23c-0.03,0.07-0.07,0.13-0.11,0.2
		c-0.03,0.05-0.05,0.11-0.09,0.16c-0.16,0.23-0.36,0.43-0.59,0.59c-0.05,0.03-0.1,0.05-0.15,0.08c-0.07,0.04-0.14,0.08-0.22,0.12
		c-0.07,0.03-0.14,0.04-0.21,0.06c-0.06,0.02-0.12,0.04-0.19,0.06c-0.14,0.03-0.28,0.04-0.42,0.04s-0.28-0.01-0.42-0.04
		c-0.07-0.01-0.13-0.04-0.19-0.06c-0.07-0.02-0.14-0.04-0.21-0.06c-0.08-0.03-0.15-0.08-0.22-0.12c-0.05-0.03-0.1-0.05-0.15-0.08
		c-0.12-0.08-0.23-0.17-0.33-0.27l-5.62-5.62h-8.62H33.18h-7.47l-17.1,17.1h72.78L78.1,80.46z"/>
	<polygon class="ui123" points="8.61,4.96 25.71,22.07 64.29,22.07 81.39,4.96 	"/>
	<path class="ui1234" d="M88.49,86.69c0.03-0.06,0.04-0.13,0.06-0.2c0.02-0.07,0.05-0.13,0.06-0.2c0.03-0.13,0.04-0.26,0.04-0.39
		c0-0.01,0-0.02,0-0.03V2.84c0-0.14-0.01-0.28-0.04-0.42c-0.01-0.06-0.03-0.11-0.05-0.17c-0.02-0.08-0.04-0.15-0.07-0.23
		c-0.03-0.07-0.07-0.13-0.1-0.2c-0.03-0.06-0.05-0.11-0.09-0.17c-0.16-0.23-0.36-0.43-0.59-0.59c-0.05-0.03-0.11-0.06-0.16-0.09
		c-0.07-0.04-0.13-0.08-0.2-0.11c-0.07-0.03-0.15-0.05-0.22-0.07C87.06,0.79,87,0.77,86.94,0.75c-0.14-0.03-0.28-0.04-0.42-0.04
		H3.48c-0.14,0-0.28,0.01-0.42,0.04C3,0.77,2.94,0.79,2.88,0.81C2.81,0.83,2.74,0.84,2.66,0.87c-0.07,0.03-0.13,0.07-0.2,0.1
		C2.41,1.01,2.35,1.03,2.3,1.07C2.19,1.14,2.08,1.23,1.99,1.32c0,0-0.01,0.01-0.01,0.01c0,0-0.01,0.01-0.01,0.01
		c-0.09,0.1-0.18,0.2-0.25,0.31C1.67,1.71,1.65,1.77,1.62,1.82c-0.04,0.07-0.08,0.13-0.11,0.2C1.48,2.09,1.47,2.17,1.45,2.24
		C1.43,2.3,1.41,2.36,1.39,2.42C1.37,2.56,1.35,2.7,1.35,2.84v21.35v42.57v19.12c0,0.14,0.01,0.28,0.04,0.42
		c0.01,0.06,0.04,0.12,0.05,0.18c0.02,0.07,0.04,0.15,0.07,0.22c0.03,0.07,0.07,0.14,0.11,0.2c0.03,0.05,0.05,0.11,0.09,0.16
		c0.16,0.23,0.36,0.43,0.59,0.59c0.05,0.03,0.1,0.05,0.15,0.08c0.07,0.04,0.14,0.08,0.21,0.11c0.07,0.03,0.14,0.04,0.21,0.06
		c0.06,0.02,0.12,0.04,0.19,0.06c0.14,0.03,0.28,0.04,0.42,0.04h83.05c0.14,0,0.28-0.01,0.42-0.04c0.07-0.01,0.13-0.04,0.19-0.06
		c0.07-0.02,0.14-0.04,0.21-0.06c0.08-0.03,0.15-0.08,0.22-0.12c0.05-0.03,0.1-0.05,0.15-0.08c0.23-0.16,0.44-0.36,0.59-0.59
		c0.03-0.05,0.05-0.09,0.08-0.14C88.41,86.85,88.45,86.77,88.49,86.69z M5.6,28.18l8.4,5.64v22.5l-8.4,6.21V28.18z M5.6,67.83
		l11.79-8.72c0.54-0.4,0.86-1.04,0.86-1.71V32.69c0-0.71-0.35-1.37-0.94-1.76L5.6,23.06V7.97l17.1,17.1v38.57L5.6,80.75V67.83z
		 M53.54,56.05H35.31V34.83h18.23V56.05z M35.31,60.3h18.23v2.1H35.31V60.3z M57.79,32.7c0-1.17-0.95-2.13-2.13-2.13H33.18
		c-1.17,0-2.13,0.95-2.13,2.13v29.7h-4.1V26.32h36.08V62.4h-5.25V32.7z M64.29,22.07H25.71L8.61,4.96h72.78L64.29,22.07z
		 M25.71,66.65h7.47h22.48h8.62l5.62,5.62c0.1,0.1,0.21,0.19,0.33,0.27c0.05,0.03,0.1,0.05,0.15,0.08c0.07,0.04,0.14,0.08,0.22,0.12
		c0.07,0.03,0.14,0.04,0.21,0.06c0.06,0.02,0.12,0.04,0.19,0.06c0.14,0.03,0.28,0.04,0.42,0.04s0.28-0.01,0.42-0.04
		c0.07-0.01,0.13-0.04,0.19-0.06c0.07-0.02,0.14-0.04,0.21-0.06c0.08-0.03,0.15-0.08,0.22-0.12c0.05-0.03,0.1-0.05,0.15-0.08
		c0.23-0.16,0.43-0.36,0.59-0.59c0.04-0.05,0.06-0.11,0.09-0.16c0.04-0.07,0.08-0.13,0.11-0.2c0.03-0.07,0.05-0.15,0.07-0.23
		c0.02-0.06,0.04-0.11,0.05-0.17c0.03-0.14,0.04-0.28,0.04-0.42v-4.12h3.93v12.3c0,0.14,0.01,0.28,0.04,0.42
		c0.01,0.06,0.03,0.11,0.05,0.17c0.02,0.08,0.04,0.16,0.07,0.23c0.03,0.07,0.07,0.13,0.11,0.2c0.03,0.05,0.05,0.11,0.09,0.16
		c0.08,0.12,0.17,0.23,0.27,0.33l3.29,3.29H8.61L25.71,66.65z M77.47,62.4h-3.93V33.55l3.93-4.08V62.4z M81.72,78.08V24.19
		c0-0.87-0.53-1.65-1.33-1.97c-0.8-0.32-1.72-0.13-2.33,0.5l-8.18,8.5c-0.38,0.4-0.59,0.92-0.59,1.47v32.96l-2-2V25.07l17.1-17.1
		v72.78L81.72,78.08z"/>
</g>
</svg>
