<svg xmlns="http://www.w3.org/2000/svg" xmlns:xlink="http://www.w3.org/1999/xlink" width="48" height="51" viewBox="0 0 48 51">
  <defs>
    <polygon id="spec-icon-a" points="0 .343 45.571 .343 45.571 50.474 0 50.474"/>
  </defs>
  <g fill="none" fill-rule="evenodd">
    <g transform="translate(0 .06)">
      <mask id="spec-icon-b" fill="#fff">
        <use xlink:href="#spec-icon-a"/>
      </mask>
      <path fill="#DEDEDE" d="M27.8242993,16.3759557 L40.4837996,16.3759557 L27.8242993,3.84993339 L27.8242993,16.3759557 Z M18.3102474,50.4741527 L1.48986897,50.4741527 C0.6670372,50.4741527 9.53455119e-05,49.8132746 9.53455119e-05,48.9995596 L9.53455119e-05,1.81776859 C9.53455119e-05,1.00311013 0.6670372,0.343175463 1.48986897,0.343175463 L27.8776928,0.343175463 C28.2724232,0.343175463 28.6518984,0.498842683 28.9312607,0.77479821 L45.134277,16.8080502 C45.5604714,17.2292951 45.6882344,17.863757 45.4570215,18.4147246 C45.2267621,18.9656922 44.6837694,19.3246702 44.0811858,19.3246702 L26.3345257,19.3246702 C25.5116939,19.3246702 24.8442753,18.6647356 24.8442753,17.8500771 L24.8442753,3.29188999 L2.98011932,3.29188999 L2.98011932,47.5254382 L18.3102474,47.5254382 C19.1330792,47.5254382 19.8004978,48.1853729 19.8004978,48.9995596 C19.8004978,49.8132746 19.1330792,50.4741527 18.3102474,50.4741527 L18.3102474,50.4741527 Z" mask="url(#spec-icon-b)"/>
    </g>
    <path fill="#DEDEDE" d="M26.7145138 40.6521446L25.3944866 46.7614658 30.5982029 45.8513266 44.0736786 32.4863041C45.3206345 31.2495689 45.3486294 29.2834047 44.1386835 28.0113746 43.5346595 27.3774772 42.7194882 27.0193511 41.8431077 27.0033507 40.9581865 26.9708794 40.1425407 27.3125345 39.5176392 27.9219607 29.6663073 37.5259529 27.2848491 40.0116588 26.7145138 40.6521446M23.4827721 50.060838C23.0837272 50.060838 22.6974935 49.9008342 22.4151728 49.610945 22.0730666 49.2589367 21.929771 48.7601013 22.032735 48.2819724L23.7892917 40.1528387C23.6588074 39.4172918 24.4075504 38.6728036 28.9820948 34.1291666 31.7070827 31.4227495 35.0854414 28.1186713 37.4389047 25.8235581 38.6365139 24.6574128 40.2103925 24.028692 41.8986229 24.0621046 43.578787 24.0931642 45.1408034 24.779298 46.2952341 25.9925033 48.6154833 28.4302081 48.5609171 32.1959443 46.1704436 34.5658828L32.3642494 48.258913C32.1497805 48.4725651 31.8731537 48.6151567 31.5737514 48.6678639L23.7404194 50.0387199C23.654537 50.053779 23.5686546 50.060838 23.4827721 50.060838M31.4405737 29.060838L22.5589275 29.060838C21.6983995 29.060838 21 28.3894255 21 27.561078 21 26.7327305 21.6983995 26.060838 22.5589275 26.060838L31.4405737 26.060838C32.3016005 26.060838 33 26.7327305 33 27.561078 33 28.3894255 32.3016005 29.060838 31.4405737 29.060838M10.969621 29.060838C10.5949674 29.060838 10.2315778 28.9250225 9.95046515 28.6770744L5.51143149 24.765489C4.88064207 24.2101434 4.82579081 23.2550844 5.38899566 22.632556 5.95269025 22.010511 6.92042309 21.9568614 7.55072277 22.5117236L10.7869468 25.3643342 16.2759902 18.624788C16.8063822 17.9737432 17.7711766 17.872244 18.4279224 18.3942398 19.0871169 18.916719 19.191922 19.8674281 18.6625095 20.5175062L12.1631256 28.4967925C11.8996436 28.8196566 11.5137259 29.0216883 11.0954851 29.0560047 11.0533672 29.0598714 11.0112492 29.060838 10.969621 29.060838M10.969621 43.060838C10.5949674 43.060838 10.2320676 42.9255098 9.95046515 42.677086L5.51143149 38.7661014C4.88064207 38.2107726 4.82579081 37.2557422 5.38899566 36.6332326 5.95269025 36.0112063 6.92042309 35.957075 7.55072277 36.5124039L10.7869468 39.363962 16.2759902 32.6246184C16.8063822 31.9740765 17.7711766 31.8720971 18.4279224 32.3940772 19.0871169 32.917024 19.191922 33.8677045 18.6625095 34.5177631L12.1631256 42.4968095C11.8996436 42.8191806 11.5137259 43.0212062 11.0954851 43.0560049 11.0533672 43.0593881 11.0122287 43.060838 10.969621 43.060838"/>
  </g>
</svg>
