<svg xmlns="http://www.w3.org/2000/svg" xmlns:xlink="http://www.w3.org/1999/xlink" width="54" height="54" viewBox="0 0 54 54">
  <defs>
    <filter id="stamp-duty-icon-a" width="166.7%" height="166.7%" x="-33.3%" y="-33.3%" filterUnits="objectBoundingBox">
      <feOffset dy="2" in="SourceAlpha" result="shadowOffsetOuter1"/>
      <feGaussianBlur in="shadowOffsetOuter1" result="shadowBlurOuter1" stdDeviation="2"/>
      <feColorMatrix in="shadowBlurOuter1" result="shadowMatrixOuter1" values="0 0 0 0 0   0 0 0 0 0   0 0 0 0 0  0 0 0 0.5 0"/>
      <feMerge>
        <feMergeNode in="shadowMatrixOuter1"/>
        <feMergeNode in="SourceGraphic"/>
      </feMerge>
    </filter>
    <polygon id="stamp-duty-icon-b" points="0 .835 18.165 .835 18.165 19 0 19"/>
  </defs>
  <g fill="none" fill-rule="evenodd" filter="url(#stamp-duty-icon-a)" transform="translate(9 9)">
    <circle cx="18" cy="18" r="18" fill="#000" fill-rule="nonzero"/>
    <circle cx="18" cy="18" r="18" fill="#608189"/>
    <g transform="translate(9 8)">
      <g transform="translate(0 .165)">
        <mask id="stamp-duty-icon-c" fill="#fff">
          <use xlink:href="#stamp-duty-icon-b"/>
        </mask>
        <path fill="#FEFEFE" fill-rule="nonzero" d="M17.408,7.2308 L17.408,8.0628 C16.385,8.2708 15.722,9.2698 15.93,10.2938 C16.082,11.0388 16.664,11.6208 17.408,11.7718 L17.408,12.6048 C16.385,12.8118 15.722,13.8108 15.93,14.8348 C16.082,15.5798 16.664,16.1618 17.408,16.3128 L17.408,17.1078 C17.408,17.7348 16.9,18.2438 16.273,18.2438 L15.478,18.2438 C15.27,17.2188 14.271,16.5568 13.247,16.7648 C12.503,16.9168 11.921,17.4988 11.769,18.2438 L10.937,18.2438 C10.729,17.2188 9.73,16.5568 8.706,16.7648 C7.962,16.9168 7.38,17.4988 7.228,18.2438 L6.395,18.2438 C6.187,17.2188 5.189,16.5568 4.165,16.7648 C3.42,16.9168 2.838,17.4988 2.687,18.2438 L1.892,18.2438 C1.265,18.2438 0.757,17.7348 0.757,17.1078 L0.757,16.3128 C1.781,16.1048 2.442,15.1058 2.235,14.0828 C2.084,13.3368 1.502,12.7548 0.757,12.6048 L0.757,11.7718 C1.781,11.5638 2.442,10.5648 2.235,9.5418 C2.084,8.7958 1.502,8.2138 0.757,8.0628 L0.757,7.2308 C1.781,7.0228 2.442,6.0238 2.235,4.9998 C2.084,4.2548 1.502,3.6728 0.757,3.5218 L0.757,2.7268 C0.757,2.0998 1.265,1.5918 1.892,1.5918 L2.687,1.5918 C2.895,2.6158 3.893,3.2778 4.918,3.0698 C5.663,2.9188 6.244,2.3358 6.395,1.5918 L7.228,1.5918 C7.436,2.6158 8.435,3.2778 9.459,3.0698 C10.204,2.9188 10.786,2.3358 10.937,1.5918 L11.769,1.5918 C11.977,2.6158 12.976,3.2778 14.001,3.0698 C14.745,2.9188 15.327,2.3358 15.478,1.5918 L16.273,1.5918 C16.9,1.5918 17.408,2.0998 17.408,2.7268 L17.408,3.5218 C16.385,3.7298 15.722,4.7288 15.93,5.7518 C16.082,6.4978 16.664,7.0798 17.408,7.2308 M17.787,4.2408 C17.996,4.2408 18.165,4.0718 18.165,3.8628 L18.165,2.7268 C18.164,1.6828 17.317,0.8358 16.273,0.8348 L15.137,0.8348 C14.929,0.8348 14.76,1.0038 14.76,1.2128 C14.76,1.8398 14.251,2.3488 13.624,2.3488 C12.997,2.3488 12.488,1.8398 12.488,1.2128 C12.488,1.0038 12.319,0.8348 12.11,0.8348 L10.596,0.8348 C10.387,0.8348 10.218,1.0038 10.218,1.2128 C10.218,1.8398 9.71,2.3488 9.083,2.3488 C8.456,2.3488 7.947,1.8398 7.947,1.2128 C7.947,1.0038 7.778,0.8348 7.569,0.8348 L6.055,0.8348 C5.846,0.8348 5.677,1.0038 5.677,1.2128 C5.677,1.8398 5.169,2.3488 4.541,2.3488 C3.914,2.3488 3.406,1.8398 3.406,1.2128 C3.406,1.0038 3.236,0.8348 3.027,0.8348 L1.892,0.8348 C0.847,0.8358 0.001,1.6828 0,2.7268 L0,3.8628 C0,4.0718 0.17,4.2408 0.379,4.2408 C1.006,4.2408 1.513,4.7498 1.513,5.3768 C1.513,6.0028 1.006,6.5108 0.379,6.5108 C0.17,6.5108 0,6.6808 0,6.8898 L0,8.4038 C0,8.6128 0.17,8.7828 0.379,8.7828 C1.006,8.7828 1.513,9.2908 1.513,9.9178 C1.513,10.5438 1.006,11.0528 0.379,11.0528 C0.17,11.0528 0,11.2218 0,11.4308 L0,12.9448 C0,13.1538 0.17,13.3238 0.379,13.3238 C1.006,13.3238 1.513,13.8318 1.513,14.4588 C1.513,15.0848 1.006,15.5938 0.379,15.5938 C0.17,15.5938 0,15.7628 0,15.9718 L0,17.1078 C0.001,18.1528 0.847,18.9988 1.892,19.0008 L3.027,19.0008 C3.236,19.0008 3.406,18.8308 3.406,18.6218 C3.406,17.9948 3.914,17.4868 4.541,17.4868 C5.169,17.4868 5.677,17.9948 5.677,18.6218 C5.677,18.8308 5.846,19.0008 6.055,19.0008 L7.569,19.0008 C7.778,19.0008 7.947,18.8308 7.947,18.6218 C7.947,17.9948 8.456,17.4868 9.083,17.4868 C9.71,17.4868 10.218,17.9948 10.218,18.6218 C10.218,18.8308 10.387,19.0008 10.596,19.0008 L12.11,19.0008 C12.319,19.0008 12.488,18.8308 12.488,18.6218 C12.488,17.9948 12.997,17.4868 13.624,17.4868 C14.251,17.4868 14.76,17.9948 14.76,18.6218 C14.76,18.8308 14.929,19.0008 15.137,19.0008 L16.273,19.0008 C17.317,18.9988 18.164,18.1528 18.165,17.1078 L18.165,15.9718 C18.165,15.7628 17.996,15.5938 17.787,15.5938 C17.16,15.5938 16.651,15.0848 16.651,14.4588 C16.651,13.8318 17.16,13.3238 17.787,13.3238 C17.996,13.3238 18.165,13.1538 18.165,12.9448 L18.165,11.4308 C18.165,11.2218 17.996,11.0528 17.787,11.0528 C17.16,11.0528 16.651,10.5438 16.651,9.9178 C16.651,9.2908 17.16,8.7828 17.787,8.7828 C17.996,8.7828 18.165,8.6128 18.165,8.4038 L18.165,6.8898 C18.165,6.6808 17.996,6.5108 17.787,6.5108 C17.16,6.5108 16.651,6.0028 16.651,5.3768 C16.651,4.7498 17.16,4.2408 17.787,4.2408" mask="url(#stamp-duty-icon-c)"/>
      </g>
      <path fill="#FEFEFE" fill-rule="nonzero" d="M9.4803,5.1625 L10.9973,5.1625 C11.1753,6.7425 12.4223,7.9895 14.0023,8.1685 L14.0023,9.6845 C11.5873,9.4965 9.6683,7.5775 9.4803,5.1625 L9.4803,5.1625 Z M14.0023,7.4025 C12.8413,7.2345 11.9303,6.3225 11.7613,5.1625 L14.0023,5.1625 L14.0023,7.4025 Z M14.0023,4.4055 L4.1633,4.4055 C3.7453,4.4055 3.4063,4.7445 3.4063,5.1625 L3.4063,8.1895 C3.4063,8.3985 3.5753,8.5685 3.7843,8.5685 C3.9933,8.5685 4.1633,8.3985 4.1633,8.1895 L4.1633,5.1625 L8.7233,5.1625 C8.9163,7.9945 11.1703,10.2495 14.0023,10.4415 L14.0023,15.0025 L10.5963,15.0025 C10.3873,15.0025 10.2173,15.1715 10.2173,15.3805 C10.2173,15.5895 10.3873,15.7595 10.5963,15.7595 L14.0023,15.7595 C14.4203,15.7595 14.7593,15.4205 14.7593,15.0025 L14.7593,5.1625 C14.7593,4.7445 14.4203,4.4055 14.0023,4.4055 L14.0023,4.4055 Z"/>
      <path fill="#FEFEFE" fill-rule="nonzero" d="M9.0828 12.353C8.9358 12.353 8.8698 12.292 8.7038 12.104 8.3568 11.582 7.6528 11.439 7.1308 11.786 7.0038 11.87 6.8948 11.978 6.8118 12.104 6.6468 12.293 6.5818 12.353 6.4338 12.353 6.2848 12.353 6.2208 12.292 6.0558 12.104 5.8368 11.795 5.4858 11.608 5.1088 11.596 4.7308 11.608 4.3808 11.795 4.1628 12.104 3.9978 12.293 3.9328 12.353 3.7838 12.353 3.5748 12.353 3.4058 12.523 3.4058 12.732 3.4058 12.941 3.5748 13.11 3.7838 13.11 4.1618 13.099 4.5128 12.911 4.7298 12.602 4.8958 12.413 4.9618 12.353 5.1088 12.353 5.2568 12.353 5.3218 12.415 5.4868 12.603 5.7058 12.912 6.0578 13.099 6.4358 13.11 6.8128 13.099 7.1638 12.911 7.3818 12.602 7.5458 12.413 7.6118 12.353 7.7608 12.353 7.9088 12.353 7.9728 12.415 8.1368 12.602 8.3538 12.911 8.7048 13.099 9.0828 13.11 9.2918 13.11 9.4608 12.941 9.4608 12.732 9.4608 12.523 9.2918 12.353 9.0828 12.353M9.0828 9.7045C8.9358 9.7045 8.8698 9.6425 8.7038 9.4555 8.3568 8.9335 7.6528 8.7895 7.1308 9.1365 7.0038 9.2205 6.8948 9.3285 6.8118 9.4555 6.6468 9.6435 6.5818 9.7045 6.4338 9.7045 6.2848 9.7045 6.2208 9.6425 6.0558 9.4555 5.8368 9.1465 5.4858 8.9585 5.1088 8.9475 4.7308 8.9585 4.3808 9.1455 4.1628 9.4545 3.9978 9.6435 3.9328 9.7045 3.7838 9.7045 3.5748 9.7045 3.4058 9.8735 3.4058 10.0825 3.4058 10.2915 3.5748 10.4615 3.7838 10.4615 4.1618 10.4495 4.5128 10.2615 4.7298 9.9535 4.8958 9.7645 4.9618 9.7045 5.1088 9.7045 5.2568 9.7045 5.3218 9.7655 5.4868 9.9535 5.7058 10.2625 6.0578 10.4505 6.4358 10.4615 6.8128 10.4495 7.1638 10.2615 7.3818 9.9535 7.5458 9.7645 7.6118 9.7045 7.7608 9.7045 7.9088 9.7045 7.9728 9.7655 8.1368 9.9535 8.3538 10.2615 8.7048 10.4495 9.0828 10.4615 9.2918 10.4615 9.4608 10.2915 9.4608 10.0825 9.4608 9.8735 9.2918 9.7045 9.0828 9.7045M9.0828 15.0024C8.9358 15.0024 8.8698 14.9404 8.7038 14.7534 8.3568 14.2314 7.6528 14.0884 7.1308 14.4354 7.0038 14.5194 6.8948 14.6264 6.8118 14.7534 6.6468 14.9424 6.5818 15.0024 6.4338 15.0024 6.2848 15.0024 6.2208 14.9404 6.0558 14.7534 5.8368 14.4444 5.4858 14.2574 5.1088 14.2454 4.7308 14.2564 4.3808 14.4444 4.1628 14.7534 3.9978 14.9414 3.9328 15.0024 3.7838 15.0024 3.5748 15.0024 3.4058 15.1714 3.4058 15.3804 3.4058 15.5894 3.5748 15.7594 3.7838 15.7594 4.1618 15.7474 4.5128 15.5604 4.7298 15.2514 4.8958 15.0624 4.9618 15.0024 5.1088 15.0024 5.2568 15.0024 5.3218 15.0634 5.4868 15.2514 5.7058 15.5614 6.0578 15.7484 6.4358 15.7594 6.8128 15.7474 7.1638 15.5604 7.3818 15.2514 7.5458 15.0624 7.6118 15.0024 7.7608 15.0024 7.9088 15.0024 7.9728 15.0634 8.1368 15.2514 8.3538 15.5604 8.7048 15.7474 9.0828 15.7594 9.2918 15.7594 9.4608 15.5894 9.4608 15.3804 9.4608 15.1714 9.2918 15.0024 9.0828 15.0024"/>
    </g>
  </g>
</svg>
