<?xml version="1.0" encoding="utf-8"?>
<!-- Generator: Adobe Illustrator 25.0.1, SVG Export Plug-In . SVG Version: 6.00 Build 0)  -->
<svg version="1.1" id="Layer_1" xmlns="http://www.w3.org/2000/svg" xmlns:xlink="http://www.w3.org/1999/xlink" x="0px" y="0px"
	 viewBox="0 0 90 90" style="enable-background:new 0 0 90 90;" xml:space="preserve">
<style type="text/css">
	.ty78asds{fill:#A38244;}
</style>
<path class="ty78asds" d="M80.64,30.49H69.02c-0.8,0-1.45,0.65-1.45,1.45v5.81c0,0.8,0.65,1.45,1.45,1.45h4.36v10.16
	c0,0.8-0.65,1.45-1.45,1.45h-1.66c-0.66-2.56-2.96-4.35-5.6-4.36H53.05v-2.9h10.16c0.8,0,1.45-0.65,1.45-1.45V18.87
	C64.67,8.45,56.22,0,45.79,0S26.92,8.45,26.92,18.87V42.1c0,0.8,0.65,1.45,1.45,1.45h10.16v2.9H26.92c-2.64,0.01-4.94,1.8-5.6,4.36
	h-1.66c-0.8,0-1.45-0.65-1.45-1.45V39.2h4.36c0.8,0,1.45-0.65,1.45-1.45v-5.81c0-0.8-0.65-1.45-1.45-1.45H10.95
	c-0.8,0-1.45,0.65-1.45,1.45v5.81c0,0.8,0.65,1.45,1.45,1.45h4.36v10.16c0,2.41,1.95,4.36,4.36,4.36h1.66
	c0.66,2.56,2.96,4.35,5.6,4.36h8.71v4.36c0,0.8,0.65,1.45,1.45,1.45h4.36v10.16l-13.4,4.36c-3.2,0.18-5.65,2.93-5.46,6.13
	c0.18,3.2,2.93,5.65,6.13,5.46c3.07-0.18,5.47-2.71,5.47-5.79h23.23c0.01,3.21,2.61,5.8,5.82,5.8c3.21-0.01,5.8-2.61,5.8-5.82
	c-0.01-3.07-2.4-5.61-5.47-5.79l-13.4-4.36V63.88h4.36c0.8,0,1.45-0.65,1.45-1.45v-4.36h8.71c2.64-0.01,4.94-1.8,5.6-4.36h1.66
	c2.41,0,4.36-1.95,4.36-4.36V39.2h4.36c0.8,0,1.45-0.65,1.45-1.45v-5.81C82.09,31.14,81.44,30.49,80.64,30.49z M12.4,33.39h8.71v2.9
	H12.4V33.39z M29.82,18.87c0-8.82,7.15-15.97,15.97-15.97s15.97,7.15,15.97,15.97v21.78H29.82V18.87z M41.44,43.55h8.71v2.9h-8.71
	V43.55z M28.37,87.11c-1.6,0-2.9-1.3-2.9-2.9s1.3-2.9,2.9-2.9c1.6,0,2.9,1.3,2.9,2.9S29.98,87.11,28.37,87.11z M58.22,81.3H33.37
	c-0.26-0.47-0.58-0.9-0.97-1.26l13.4-4.47l13.4,4.47C58.81,80.4,58.48,80.83,58.22,81.3z M66.12,84.2c0,1.6-1.3,2.9-2.9,2.9
	c-1.6,0-2.9-1.3-2.9-2.9s1.3-2.9,2.9-2.9C64.82,81.3,66.12,82.6,66.12,84.2z M47.25,72.99l-0.99-0.33c-0.3-0.1-0.63-0.1-0.93,0
	l-0.99,0.33v-9.12h2.9V72.99z M53.05,60.97H38.54v-2.9h14.52V60.97z M64.67,55.17H26.92c-1.6,0-2.9-1.3-2.9-2.9
	c0-1.6,1.3-2.9,2.9-2.9h37.75c1.6,0,2.9,1.3,2.9,2.9C67.57,53.87,66.27,55.17,64.67,55.17z M79.18,36.29h-8.71v-2.9h8.71V36.29z"/>
</svg>
