<svg version="1.1" id="Layer_1" xmlns="http://www.w3.org/2000/svg" xmlns:xlink="http://www.w3.org/1999/xlink" x="0px" y="0px"
	 viewBox="0 0 90 90" style="enable-background:new 0 0 90 90;" xml:space="preserve">
<g>
	<path fill="none" d="M40.19,64.08h-4.35c-0.08,0-0.15,0.07-0.15,0.15v8.96c0,0.08,0.07,0.15,0.15,0.15h4.35
		c0.08,0,0.15-0.07,0.15-0.15v-8.96C40.34,64.14,40.27,64.08,40.19,64.08z"/>
	<path fill="none" d="M35.84,34.65h4.35c0.08,0,0.15-0.07,0.15-0.15v-8.96c0-0.08-0.07-0.15-0.15-0.15h-4.35
		c-0.08,0-0.15,0.07-0.15,0.15v8.96C35.69,34.58,35.76,34.65,35.84,34.65z"/>
	<path fill="none" d="M54.74,44.73h-4.35c-0.08,0-0.15,0.07-0.15,0.15v8.96c0,0.08,0.07,0.15,0.15,0.15h4.35
		c0.08,0,0.15-0.07,0.15-0.15v-8.96C54.89,44.8,54.82,44.73,54.74,44.73z"/>
	<polygon fill="none" points="58.69,6.94 56.41,6.94 56.41,9.2 58.69,11.02 	"/>
	<path fill="none" d="M56.17,86.45V64.37c0-0.08-0.07-0.15-0.15-0.15H49.1c-0.08,0-0.15,0.07-0.15,0.15v22.08
		c0,0.08,0.07,0.15,0.15,0.15h6.92C56.1,86.6,56.17,86.53,56.17,86.45z M51.51,75.66c-0.89,0-1.61-0.72-1.61-1.61
		s0.72-1.61,1.61-1.61s1.61,0.72,1.61,1.61S52.39,75.66,51.51,75.66z"/>
	<path fill="none" d="M35.84,53.99h4.35c0.08,0,0.15-0.07,0.15-0.15v-8.96c0-0.08-0.07-0.15-0.15-0.15h-4.35
		c-0.08,0-0.15,0.07-0.15,0.15v8.96C35.69,53.92,35.76,53.99,35.84,53.99z"/>
	<path fill="none" d="M54.74,25.39h-4.35c-0.08,0-0.15,0.07-0.15,0.15v8.96c0,0.08,0.07,0.15,0.15,0.15h4.35
		c0.08,0,0.15-0.07,0.15-0.15v-8.96C54.89,25.46,54.82,25.39,54.74,25.39z"/>
	<path fill="none" d="M45.59,4.21L28.77,17.14V86.6h17.37c0-0.05-0.02-0.1-0.02-0.15V64.37c0-1.65,1.34-2.98,2.98-2.98h6.92
		c1.65,0,2.98,1.34,2.98,2.98v22.08c0,0.05-0.01,0.1-0.02,0.15h3.16V17.38L45.59,4.21z M32.85,25.54c0-1.65,1.34-2.98,2.98-2.98
		h4.35c1.65,0,2.98,1.34,2.98,2.98v8.96c0,1.65-1.34,2.98-2.98,2.98h-4.35c-1.65,0-2.98-1.34-2.98-2.98V25.54z M32.85,44.88
		c0-1.65,1.34-2.98,2.98-2.98h4.35c1.65,0,2.98,1.34,2.98,2.98v8.96c0,1.65-1.34,2.98-2.98,2.98h-4.35c-1.65,0-2.98-1.34-2.98-2.98
		V44.88z M43.17,73.18c0,1.65-1.34,2.98-2.98,2.98h-4.35c-1.65,0-2.98-1.34-2.98-2.98v-8.96c0-1.65,1.34-2.98,2.98-2.98h4.35
		c1.65,0,2.98,1.34,2.98,2.98V73.18z M57.72,53.84c0,1.65-1.34,2.98-2.98,2.98h-4.35c-1.65,0-2.98-1.34-2.98-2.98v-8.96
		c0-1.65,1.34-2.98,2.98-2.98h4.35c1.65,0,2.98,1.34,2.98,2.98V53.84z M57.72,34.5c0,1.65-1.34,2.98-2.98,2.98h-4.35
		c-1.65,0-2.98-1.34-2.98-2.98v-8.96c0-1.65,1.34-2.98,2.98-2.98h4.35c1.65,0,2.98,1.34,2.98,2.98V34.5z"/>
	<path fill="#A38244" d="M69.61,86.6h-4.63V16.7c0-0.43-0.2-0.84-0.54-1.11l-2.92-2.32V5.52c0-0.78-0.63-1.42-1.42-1.42H55
		c-0.78,0-1.42,0.63-1.42,1.42v1.43l-7.1-5.64c-0.51-0.41-1.23-0.41-1.75-0.01L26.48,15.32c-0.35,0.27-0.55,0.68-0.55,1.12V86.6
		h-4.17c-0.78,0-1.42,0.63-1.42,1.42s0.63,1.42,1.42,1.42h5.59H49.1h6.92h7.54h6.05c0.78,0,1.42-0.63,1.42-1.42
		S70.4,86.6,69.61,86.6z M56.41,6.94h2.28v4.08L56.41,9.2V6.94z M49.1,86.6c-0.08,0-0.15-0.07-0.15-0.15V64.37
		c0-0.08,0.07-0.15,0.15-0.15h6.92c0.08,0,0.15,0.07,0.15,0.15v22.08c0,0.08-0.07,0.15-0.15,0.15H49.1z M58.99,86.6
		c0-0.05,0.02-0.1,0.02-0.15V64.37c0-1.65-1.34-2.98-2.98-2.98H49.1c-1.65,0-2.98,1.34-2.98,2.98v22.08c0,0.05,0.01,0.1,0.02,0.15
		H28.77V17.14L45.59,4.21l16.56,13.17V86.6H58.99z"/>
	<path fill="#A38244" d="M35.84,37.48h4.35c1.65,0,2.98-1.34,2.98-2.98v-8.96c0-1.65-1.34-2.98-2.98-2.98h-4.35
		c-1.65,0-2.98,1.34-2.98,2.98v8.96C32.85,36.15,34.19,37.48,35.84,37.48z M35.69,25.54c0-0.08,0.07-0.15,0.15-0.15h4.35
		c0.08,0,0.15,0.07,0.15,0.15v8.96c0,0.08-0.07,0.15-0.15,0.15h-4.35c-0.08,0-0.15-0.07-0.15-0.15V25.54z"/>
	<path fill="#A38244" d="M54.74,22.56h-4.35c-1.65,0-2.98,1.34-2.98,2.98v8.96c0,1.65,1.34,2.98,2.98,2.98h4.35
		c1.65,0,2.98-1.34,2.98-2.98v-8.96C57.72,23.9,56.38,22.56,54.74,22.56z M54.89,34.5c0,0.08-0.07,0.15-0.15,0.15h-4.35
		c-0.08,0-0.15-0.07-0.15-0.15v-8.96c0-0.08,0.07-0.15,0.15-0.15h4.35c0.08,0,0.15,0.07,0.15,0.15V34.5z"/>
	<path fill="#A38244" d="M35.84,56.83h4.35c1.65,0,2.98-1.34,2.98-2.98v-8.96c0-1.65-1.34-2.98-2.98-2.98h-4.35
		c-1.65,0-2.98,1.34-2.98,2.98v8.96C32.85,55.49,34.19,56.83,35.84,56.83z M35.69,44.88c0-0.08,0.07-0.15,0.15-0.15h4.35
		c0.08,0,0.15,0.07,0.15,0.15v8.96c0,0.08-0.07,0.15-0.15,0.15h-4.35c-0.08,0-0.15-0.07-0.15-0.15V44.88z"/>
	<path fill="#A38244" d="M54.74,41.9h-4.35c-1.65,0-2.98,1.34-2.98,2.98v8.96c0,1.65,1.34,2.98,2.98,2.98h4.35
		c1.65,0,2.98-1.34,2.98-2.98v-8.96C57.72,43.24,56.38,41.9,54.74,41.9z M54.89,53.84c0,0.08-0.07,0.15-0.15,0.15h-4.35
		c-0.08,0-0.15-0.07-0.15-0.15v-8.96c0-0.08,0.07-0.15,0.15-0.15h4.35c0.08,0,0.15,0.07,0.15,0.15V53.84z"/>
	<path fill="#A38244" d="M40.19,61.24h-4.35c-1.65,0-2.98,1.34-2.98,2.98v8.96c0,1.65,1.34,2.98,2.98,2.98h4.35
		c1.65,0,2.98-1.34,2.98-2.98v-8.96C43.17,62.58,41.83,61.24,40.19,61.24z M40.34,73.18c0,0.08-0.07,0.15-0.15,0.15h-4.35
		c-0.08,0-0.15-0.07-0.15-0.15v-8.96c0-0.08,0.07-0.15,0.15-0.15h4.35c0.08,0,0.15,0.07,0.15,0.15V73.18z"/>
	<circle fill="#A38244" cx="51.51" cy="74.05" r="1.61"/>
</g>
</svg>
