<?xml version="1.0" encoding="utf-8"?>
<!-- Generator: Adobe Illustrator 25.0.1, SVG Export Plug-In . SVG Version: 6.00 Build 0)  -->
<svg version="1.1" id="Layer_1" xmlns="http://www.w3.org/2000/svg" xmlns:xlink="http://www.w3.org/1999/xlink" x="0px" y="0px"
	 viewBox="0 0 90 90" style="enable-background:new 0 0 90 90;" xml:space="preserve">
<style type="text/css">
	.9120i3oklesa{fill:none;}
	.sdhui81hjsd{fill:#A38244;}
</style>
<g>
	<path class="9120i3oklesa" d="M50.23,59.9c-7.15,0-13.08-5.28-14.11-12.14h-2.48c1.05,8.22,8.09,14.6,16.59,14.6
		c6.21,0,11.82-3.37,14.74-8.83v-5.77h-0.63C63.32,54.62,57.38,59.9,50.23,59.9z"/>
	<path class="9120i3oklesa" d="M42.48,70.34c0.47,0.18,0.94,0.35,1.42,0.51c0.2,0.06,0.4,0.13,0.6,0.19c4.38,1.27,9.15,1.27,13.53,0
		c0.21-0.06,0.41-0.13,0.62-0.19c0.47-0.15,0.94-0.32,1.4-0.5c0.12-0.05,0.25-0.1,0.37-0.15H42.12
		C42.24,70.24,42.36,70.29,42.48,70.34z"/>
	<path class="9120i3oklesa" d="M35.94,33.45c-4.79,0-8.81,3.39-9.79,7.89h19.57C44.75,36.84,40.73,33.45,35.94,33.45z"/>
	<path class="9120i3oklesa" d="M61.91,32.28c1.23,2.86,2.01,5.91,2.25,9.07h2.13c-0.2-2.91-0.81-5.73-1.81-8.42
		c-0.29,0.13-0.59,0.21-0.88,0.21C62.94,33.13,62.32,32.82,61.91,32.28z"/>
	<path class="9120i3oklesa" d="M29.36,47.76h-3.08c0.53,6.02,3.32,11.63,7.84,15.71h5.12C33.84,60.12,30.04,54.4,29.36,47.76z"/>
	<path class="9120i3oklesa" d="M50.23,55.65c4.79,0,8.81-3.39,9.79-7.89H40.45C41.43,52.26,45.44,55.65,50.23,55.65z"/>
	<path class="9120i3oklesa" d="M35.94,29.2c7.15,0,13.08,5.28,14.11,12.14h2.48c-1.05-8.22-8.09-14.6-16.59-14.6
		c-6.21,0-11.82,3.37-14.74,8.83v5.77h0.63C22.86,34.48,28.79,29.2,35.94,29.2z"/>
	<path class="9120i3oklesa" d="M45.09,19.88c-0.46-0.18-0.93-0.35-1.4-0.5c-0.21-0.07-0.42-0.14-0.63-0.2c-4.38-1.26-9.14-1.26-13.52,0
		c-0.21,0.06-0.42,0.13-0.62,0.2c-0.47,0.15-0.94,0.32-1.4,0.5c-0.12,0.05-0.24,0.1-0.37,0.15h18.31
		C45.33,19.98,45.21,19.93,45.09,19.88z"/>
	<path class="9120i3oklesa" d="M32.03,79.59C32.03,79.59,32.03,79.59,32.03,79.59l1.72-1.7c-0.33-0.19-0.65-0.38-0.97-0.58
		c-0.15-0.09-0.29-0.2-0.44-0.29c-0.37-0.24-0.74-0.49-1.1-0.75c-0.19-0.14-0.38-0.28-0.57-0.43c-0.31-0.23-0.62-0.46-0.92-0.7
		c-0.2-0.16-0.4-0.33-0.6-0.49c-0.28-0.24-0.56-0.47-0.84-0.72c-0.2-0.18-0.4-0.36-0.59-0.54c-0.27-0.25-0.53-0.5-0.79-0.75
		c-0.19-0.19-0.38-0.38-0.57-0.58c-0.11-0.12-0.23-0.23-0.35-0.35V75c0.12,0.11,0.23,0.22,0.35,0.33c0.22,0.2,0.44,0.4,0.66,0.59
		c0.23,0.2,0.46,0.39,0.69,0.58c0.22,0.19,0.45,0.37,0.68,0.55c0.24,0.19,0.48,0.37,0.72,0.55c0.23,0.17,0.46,0.35,0.7,0.51
		c0.25,0.18,0.49,0.35,0.74,0.52c0.24,0.16,0.47,0.32,0.72,0.48C31.51,79.28,31.77,79.43,32.03,79.59z"/>
	<path class="9120i3oklesa" d="M15.63,47.76h-2.34c0.32,5.51,1.87,10.88,4.54,15.71h2.68C17.63,58.7,15.97,53.36,15.63,47.76z"/>
	<path class="9120i3oklesa" d="M68.08,70.71c-0.3,0.22-0.6,0.45-0.92,0.66c-0.36,0.24-0.73,0.47-1.1,0.69c-0.32,0.19-0.63,0.39-0.96,0.58
		c-0.38,0.21-0.77,0.41-1.16,0.6c-0.33,0.16-0.65,0.33-0.98,0.49c-0.4,0.18-0.82,0.34-1.23,0.51c-0.33,0.13-0.66,0.27-1,0.39
		c-0.43,0.15-0.87,0.28-1.31,0.41c-0.33,0.1-0.66,0.21-0.99,0.3c-0.46,0.12-0.93,0.21-1.4,0.31c-0.32,0.07-0.63,0.15-0.95,0.2
		c-0.53,0.09-1.06,0.15-1.59,0.21c-0.27,0.03-0.53,0.08-0.8,0.1c-0.8,0.07-1.61,0.11-2.43,0.11c-0.81,0-1.62-0.04-2.42-0.11
		c-0.27-0.02-0.53-0.07-0.8-0.1c-0.53-0.06-1.06-0.12-1.59-0.21c-0.32-0.06-0.64-0.14-0.96-0.2c-0.47-0.1-0.93-0.19-1.39-0.31
		c-0.34-0.09-0.67-0.2-1-0.3c-0.11-0.03-0.22-0.06-0.33-0.1l-1.72,1.7c0.06,0.02,0.11,0.04,0.17,0.06c1,0.35,2.01,0.64,3.04,0.89
		c0.16,0.04,0.32,0.07,0.48,0.1c0.36,0.08,0.72,0.15,1.08,0.22c0.19,0.03,0.38,0.07,0.58,0.1c0.34,0.05,0.69,0.1,1.03,0.15
		c0.2,0.02,0.39,0.05,0.59,0.07c0.37,0.04,0.73,0.07,1.1,0.09c0.17,0.01,0.34,0.03,0.51,0.04c0.54,0.03,1.08,0.05,1.62,0.05
		c0.54,0,1.08-0.02,1.62-0.05c0.17-0.01,0.34-0.02,0.51-0.04c0.37-0.03,0.74-0.06,1.1-0.09c0.2-0.02,0.39-0.05,0.59-0.07
		c0.35-0.04,0.69-0.09,1.03-0.15c0.19-0.03,0.38-0.06,0.58-0.1c0.36-0.07,0.72-0.14,1.08-0.22c0.16-0.04,0.32-0.07,0.48-0.1
		c1.03-0.24,2.05-0.54,3.04-0.89c0.16-0.05,0.31-0.11,0.47-0.17c0.34-0.13,0.68-0.26,1.02-0.39c0.18-0.07,0.35-0.15,0.53-0.22
		c0.32-0.14,0.63-0.28,0.94-0.42c0.17-0.08,0.35-0.16,0.52-0.25c0.33-0.16,0.65-0.33,0.97-0.51c0.14-0.08,0.29-0.15,0.43-0.23
		c0.46-0.26,0.91-0.53,1.36-0.81c0.01,0,0.01-0.01,0.02-0.01c0.44-0.28,0.87-0.57,1.29-0.87c0.14-0.1,0.27-0.2,0.4-0.3
		c0.29-0.22,0.58-0.44,0.87-0.66c0.15-0.12,0.3-0.24,0.45-0.37c0.27-0.22,0.53-0.45,0.79-0.68c0.14-0.13,0.29-0.25,0.43-0.39
		c0.08-0.07,0.15-0.15,0.23-0.22h-3.23C68.57,70.37,68.32,70.53,68.08,70.71z"/>
	<path class="9120i3oklesa" d="M19.5,19.5c0.3-0.22,0.6-0.45,0.9-0.65c0.36-0.25,0.73-0.47,1.1-0.7c0.31-0.19,0.63-0.39,0.95-0.57
		c0.38-0.21,0.77-0.41,1.17-0.6c0.33-0.16,0.65-0.33,0.98-0.49c0.4-0.18,0.82-0.34,1.23-0.51c0.33-0.13,0.66-0.27,1-0.39
		c0.43-0.15,0.87-0.28,1.3-0.41c0.33-0.1,0.66-0.21,1-0.3c0.46-0.12,0.93-0.21,1.4-0.31c0.32-0.07,0.63-0.15,0.96-0.2
		c0.53-0.09,1.06-0.15,1.59-0.21c0.27-0.03,0.54-0.08,0.81-0.1c0.8-0.07,1.61-0.11,2.43-0.11c0.81,0,1.62,0.04,2.42,0.11
		c0.27,0.02,0.53,0.07,0.8,0.1c0.53,0.06,1.07,0.12,1.6,0.21c0.32,0.05,0.62,0.13,0.94,0.2c0.47,0.1,0.95,0.19,1.41,0.31
		c0.33,0.09,0.65,0.2,0.98,0.3c0.44,0.13,0.88,0.26,1.32,0.42c0.33,0.12,0.65,0.26,0.98,0.39c0.42,0.17,0.84,0.33,1.25,0.51
		c0.33,0.15,0.65,0.32,0.97,0.48c0.4,0.2,0.79,0.39,1.18,0.61c0.32,0.18,0.63,0.38,0.94,0.57c0.37,0.23,0.75,0.46,1.11,0.7
		c0.31,0.21,0.61,0.43,0.91,0.66c0.24,0.18,0.49,0.34,0.73,0.53h3.23c-0.08-0.07-0.15-0.15-0.23-0.22
		c-0.14-0.13-0.28-0.26-0.43-0.38c-0.26-0.23-0.53-0.46-0.8-0.68c-0.15-0.12-0.29-0.24-0.44-0.36c-0.29-0.23-0.59-0.45-0.88-0.67
		c-0.13-0.1-0.26-0.2-0.39-0.29c-0.86-0.61-1.76-1.18-2.68-1.7c-0.14-0.08-0.28-0.15-0.42-0.23c-0.33-0.18-0.65-0.35-0.99-0.51
		c-0.17-0.08-0.34-0.16-0.51-0.24c-0.31-0.15-0.63-0.29-0.95-0.43c-0.17-0.07-0.35-0.15-0.52-0.22c-0.34-0.14-0.68-0.27-1.03-0.4
		c-0.15-0.06-0.3-0.11-0.46-0.17c-1-0.35-2.01-0.64-3.05-0.89c-0.16-0.04-0.32-0.07-0.48-0.1c-0.36-0.08-0.72-0.15-1.09-0.22
		c-0.19-0.03-0.38-0.07-0.58-0.1c-0.34-0.05-0.69-0.1-1.03-0.15c-0.19-0.02-0.39-0.05-0.58-0.07c-0.37-0.04-0.73-0.07-1.1-0.09
		c-0.17-0.01-0.34-0.03-0.51-0.04c-0.54-0.03-1.08-0.05-1.62-0.05c-0.54,0-1.08,0.02-1.62,0.05c-0.17,0.01-0.34,0.02-0.51,0.04
		c-0.37,0.03-0.74,0.06-1.1,0.09c-0.2,0.02-0.39,0.04-0.59,0.07c-0.35,0.04-0.69,0.09-1.03,0.15c-0.19,0.03-0.38,0.06-0.58,0.1
		c-0.36,0.07-0.72,0.14-1.08,0.22c-0.16,0.03-0.32,0.07-0.48,0.1c-1.03,0.24-2.05,0.54-3.05,0.89c-0.15,0.05-0.3,0.11-0.45,0.17
		c-0.35,0.13-0.69,0.26-1.03,0.4c-0.17,0.07-0.35,0.15-0.52,0.22c-0.32,0.14-0.64,0.28-0.95,0.43c-0.17,0.08-0.34,0.16-0.5,0.24
		c-0.33,0.17-0.66,0.34-0.99,0.52c-0.14,0.07-0.28,0.15-0.41,0.22c-0.92,0.52-1.82,1.09-2.68,1.7c-0.13,0.09-0.25,0.19-0.38,0.28
		c-0.3,0.22-0.6,0.45-0.89,0.68c-0.15,0.12-0.29,0.24-0.44,0.36c-0.27,0.23-0.54,0.46-0.81,0.69c-0.14,0.12-0.28,0.25-0.42,0.38
		c-0.08,0.07-0.15,0.15-0.23,0.22h3.23C19.01,19.85,19.26,19.68,19.5,19.5z"/>
	<path class="9120i3oklesa" d="M38.5,73.2c-0.36-0.18-0.71-0.36-1.06-0.55c-0.32-0.18-0.64-0.38-0.95-0.57c-0.37-0.23-0.74-0.45-1.1-0.7
		c-0.31-0.21-0.6-0.43-0.9-0.65c-0.24-0.18-0.5-0.34-0.73-0.53h-3.23c0.08,0.07,0.15,0.15,0.23,0.22c0.14,0.13,0.29,0.26,0.44,0.39
		c0.26,0.23,0.52,0.46,0.79,0.68c0.15,0.12,0.3,0.25,0.45,0.37c0.29,0.23,0.58,0.45,0.87,0.66c0.14,0.1,0.27,0.2,0.4,0.3
		c0.43,0.3,0.86,0.6,1.3,0.88c0,0,0.01,0.01,0.01,0.01c0.45,0.28,0.9,0.55,1.36,0.81c0.14,0.08,0.29,0.16,0.43,0.23
		c0.03,0.02,0.07,0.04,0.1,0.05L38.5,73.2z"/>
	<path class="9120i3oklesa" d="M66.44,26.98l2.02-1.13c-0.04-0.07-0.08-0.15-0.12-0.22h-2.68C65.94,26.08,66.2,26.53,66.44,26.98z"/>
	<path class="9120i3oklesa" d="M77.56,70.55c-0.21,0.24-0.42,0.48-0.63,0.71c-0.23,0.25-0.46,0.5-0.69,0.74c-0.22,0.23-0.44,0.45-0.66,0.67
		c-0.24,0.24-0.48,0.47-0.73,0.7c-0.23,0.21-0.45,0.42-0.68,0.62c-0.25,0.22-0.51,0.44-0.77,0.66c-0.24,0.2-0.47,0.39-0.71,0.58
		c-0.27,0.21-0.54,0.41-0.81,0.61c-0.24,0.18-0.49,0.36-0.73,0.53c-0.28,0.19-0.56,0.38-0.84,0.57c-0.25,0.17-0.5,0.33-0.75,0.49
		c-0.29,0.18-0.58,0.35-0.88,0.52c-0.26,0.15-0.51,0.3-0.77,0.44c-0.3,0.16-0.61,0.32-0.91,0.48c-0.26,0.13-0.52,0.27-0.79,0.4
		c-0.31,0.15-0.63,0.29-0.94,0.43c-0.27,0.12-0.53,0.24-0.8,0.35c-0.32,0.13-0.65,0.25-0.97,0.38c-0.27,0.1-0.54,0.21-0.81,0.3
		c-0.33,0.12-0.67,0.22-1.01,0.32c-0.27,0.09-0.54,0.18-0.82,0.25c-0.34,0.1-0.69,0.18-1.04,0.27c-0.27,0.07-0.55,0.14-0.82,0.21
		c-0.36,0.08-0.72,0.15-1.09,0.22c-0.27,0.05-0.53,0.11-0.8,0.16c-0.38,0.06-0.77,0.11-1.16,0.17c-0.25,0.03-0.5,0.08-0.76,0.1
		c-0.43,0.05-0.87,0.08-1.3,0.11c-0.22,0.02-0.43,0.04-0.65,0.05c-0.65,0.04-1.31,0.06-1.97,0.06c-0.64,0-1.27-0.02-1.91-0.05
		c-0.21-0.01-0.41-0.03-0.62-0.05c-0.42-0.03-0.85-0.06-1.27-0.11c-0.24-0.03-0.49-0.06-0.73-0.09c-0.38-0.05-0.76-0.1-1.14-0.16
		c-0.26-0.04-0.51-0.09-0.77-0.14c-0.36-0.07-0.72-0.14-1.08-0.22c-0.26-0.06-0.52-0.12-0.77-0.18c-0.35-0.09-0.7-0.18-1.05-0.27
		c-0.25-0.07-0.51-0.14-0.76-0.22c-0.35-0.1-0.69-0.22-1.03-0.33c-0.25-0.08-0.49-0.17-0.74-0.25c-0.35-0.13-0.69-0.26-1.04-0.4
		c-0.21-0.08-0.42-0.16-0.63-0.25l-1.79,1.77c0.25,0.11,0.5,0.22,0.75,0.33c0.26,0.11,0.51,0.22,0.77,0.33
		c0.29,0.11,0.57,0.22,0.86,0.33c0.26,0.1,0.52,0.2,0.78,0.29c0.29,0.1,0.59,0.19,0.89,0.29c0.26,0.08,0.52,0.17,0.78,0.25
		c0.3,0.09,0.61,0.17,0.91,0.25c0.26,0.07,0.52,0.14,0.78,0.21c0.31,0.08,0.63,0.14,0.95,0.21c0.26,0.06,0.51,0.12,0.77,0.17
		c0.33,0.06,0.66,0.11,0.99,0.17c0.25,0.04,0.5,0.09,0.75,0.12c0.35,0.05,0.7,0.09,1.05,0.13c0.24,0.03,0.47,0.06,0.71,0.08
		c0.39,0.04,0.79,0.06,1.19,0.09c0.2,0.01,0.39,0.03,0.59,0.04c0.6,0.03,1.19,0.04,1.79,0.04c0.7,0,1.39-0.02,2.09-0.06
		c0.23-0.01,0.45-0.04,0.68-0.06c0.46-0.03,0.92-0.07,1.38-0.12c0.28-0.03,0.55-0.08,0.83-0.11c0.41-0.05,0.81-0.1,1.21-0.17
		c0.29-0.05,0.57-0.11,0.86-0.17c0.38-0.07,0.77-0.14,1.15-0.23c0.29-0.07,0.58-0.15,0.87-0.22c0.37-0.09,0.74-0.18,1.1-0.28
		c0.29-0.08,0.58-0.18,0.87-0.27c0.36-0.11,0.71-0.22,1.07-0.34c0.29-0.1,0.58-0.21,0.87-0.32c0.35-0.13,0.69-0.25,1.03-0.39
		c0.29-0.12,0.57-0.25,0.86-0.37c0.33-0.15,0.67-0.29,1-0.45c0.28-0.13,0.56-0.28,0.84-0.42c0.32-0.16,0.65-0.33,0.97-0.5
		c0.28-0.15,0.55-0.31,0.82-0.47c0.31-0.18,0.63-0.36,0.93-0.55c0.27-0.17,0.54-0.35,0.8-0.52c0.3-0.2,0.6-0.39,0.9-0.6
		c0.26-0.18,0.52-0.38,0.78-0.57c0.29-0.21,0.58-0.42,0.86-0.65c0.25-0.2,0.5-0.41,0.75-0.62c0.28-0.23,0.55-0.46,0.82-0.69
		c0.25-0.22,0.49-0.44,0.73-0.66c0.26-0.24,0.53-0.49,0.78-0.74c0.24-0.23,0.47-0.47,0.7-0.71c0.25-0.26,0.5-0.52,0.74-0.78
		c0.23-0.25,0.45-0.5,0.67-0.76c0.16-0.18,0.31-0.37,0.47-0.55v-1.45h-1.82C77.78,70.31,77.67,70.43,77.56,70.55z"/>
	<path class="9120i3oklesa" d="M11.28,63.47h1.74c-0.66-1.37-1.24-2.78-1.74-4.22V63.47z"/>
	<path class="9120i3oklesa" d="M54.55,5.23c0.21,0.1,0.42,0.21,0.63,0.31c0.69,0.36,1.38,0.73,2.06,1.13c0.02,0.01,0.04,0.02,0.06,0.03
		c0.66,0.39,1.3,0.8,1.93,1.23c0.2,0.14,0.4,0.28,0.6,0.42c0.46,0.32,0.92,0.66,1.37,1c0.12,0.09,0.25,0.17,0.37,0.27V4.32h-8.95
		c0.13,0.06,0.26,0.13,0.39,0.18C53.53,4.74,54.04,4.98,54.55,5.23z"/>
	<path class="9120i3oklesa" d="M33.03,84.99c-0.21-0.1-0.42-0.2-0.63-0.31c-0.7-0.36-1.38-0.73-2.06-1.13c-0.01-0.01-0.02-0.01-0.03-0.02
		c-0.67-0.39-1.32-0.81-1.96-1.25c-0.2-0.13-0.39-0.27-0.59-0.41c-0.47-0.33-0.93-0.66-1.39-1.01c-0.12-0.09-0.24-0.17-0.36-0.26
		v5.29h8.95c-0.13-0.06-0.26-0.13-0.39-0.18C34.05,85.48,33.54,85.24,33.03,84.99z"/>
	<path class="9120i3oklesa" d="M9.05,11.27c0.53-0.47,1.07-0.93,1.62-1.36c0.03-0.02,0.06-0.05,0.09-0.07c0.52-0.41,1.05-0.81,1.59-1.19
		c0.18-0.13,0.36-0.25,0.54-0.37c0.41-0.28,0.81-0.55,1.23-0.82c0.2-0.13,0.4-0.26,0.6-0.38c0.43-0.27,0.87-0.52,1.31-0.77
		c0.17-0.1,0.34-0.2,0.52-0.29c0.61-0.33,1.23-0.65,1.85-0.96c0.09-0.04,0.18-0.08,0.27-0.12C19.1,4.72,19.55,4.51,20,4.32H7.87
		v8.02c0.23-0.22,0.48-0.43,0.71-0.65C8.74,11.55,8.89,11.41,9.05,11.27z"/>
	<path class="9120i3oklesa" d="M57.9,25.63c1.43,1.76,2.63,3.69,3.6,5.73c-0.14-0.86,0.25-1.76,1.05-2.21l0.17-0.09
		c-0.64-1.18-1.35-2.32-2.15-3.43H57.9z"/>
	<path class="9120i3oklesa" d="M78.53,78.95c-0.53,0.47-1.07,0.92-1.62,1.36c-0.04,0.03-0.08,0.06-0.11,0.09c-0.51,0.41-1.04,0.8-1.57,1.18
		c-0.18,0.13-0.36,0.25-0.54,0.38c-0.4,0.28-0.81,0.55-1.22,0.81c-0.2,0.13-0.4,0.26-0.61,0.38c-0.43,0.26-0.86,0.52-1.3,0.77
		c-0.17,0.1-0.35,0.2-0.52,0.3c-0.61,0.33-1.23,0.65-1.85,0.96c-0.09,0.04-0.18,0.08-0.26,0.12c-0.44,0.21-0.89,0.42-1.34,0.61H79.7
		v-8.02c-0.23,0.22-0.48,0.44-0.72,0.65C78.83,78.67,78.68,78.81,78.53,78.95z"/>
	<path class="9120i3oklesa" d="M10.02,19.66c0.2-0.23,0.4-0.47,0.61-0.69c0.23-0.26,0.47-0.51,0.71-0.76c0.21-0.22,0.42-0.44,0.64-0.65
		c0.25-0.24,0.5-0.48,0.75-0.72c0.22-0.21,0.44-0.41,0.67-0.61c0.26-0.23,0.52-0.45,0.79-0.67c0.23-0.19,0.46-0.38,0.69-0.57
		c0.27-0.21,0.55-0.42,0.82-0.63c0.24-0.18,0.47-0.35,0.72-0.52c0.28-0.2,0.57-0.39,0.86-0.58c0.24-0.16,0.49-0.32,0.74-0.48
		c0.29-0.18,0.59-0.36,0.89-0.53c0.25-0.15,0.5-0.29,0.75-0.43c0.31-0.17,0.62-0.33,0.93-0.48c0.26-0.13,0.51-0.26,0.77-0.39
		c0.32-0.15,0.64-0.29,0.96-0.43c0.26-0.12,0.52-0.23,0.79-0.34c0.33-0.13,0.66-0.26,0.99-0.38c0.27-0.1,0.53-0.2,0.8-0.3
		c0.34-0.12,0.68-0.22,1.02-0.33c0.27-0.08,0.54-0.17,0.81-0.25c0.35-0.1,0.7-0.19,1.05-0.27c0.27-0.07,0.54-0.14,0.81-0.2
		c0.36-0.08,0.73-0.15,1.1-0.22c0.27-0.05,0.53-0.11,0.79-0.15c0.39-0.07,0.78-0.11,1.17-0.17c0.25-0.03,0.5-0.08,0.75-0.1
		c0.43-0.05,0.87-0.08,1.3-0.11c0.21-0.02,0.43-0.04,0.64-0.05c0.65-0.04,1.31-0.06,1.97-0.06c0.64,0,1.27,0.02,1.91,0.05
		c0.21,0.01,0.41,0.03,0.62,0.05c0.42,0.03,0.85,0.06,1.27,0.11c0.24,0.03,0.49,0.06,0.73,0.09c0.38,0.05,0.76,0.1,1.14,0.16
		c0.26,0.04,0.51,0.09,0.76,0.14c0.36,0.07,0.72,0.14,1.08,0.22c0.26,0.06,0.52,0.12,0.77,0.18c0.35,0.09,0.7,0.18,1.05,0.27
		c0.25,0.07,0.51,0.14,0.76,0.22c0.35,0.11,0.69,0.22,1.03,0.33c0.25,0.08,0.49,0.17,0.73,0.25c0.35,0.13,0.7,0.26,1.04,0.4
		c0.23,0.09,0.46,0.18,0.69,0.28c0.37,0.16,0.73,0.32,1.09,0.49c0.2,0.09,0.4,0.18,0.59,0.28c0.44,0.22,0.88,0.45,1.32,0.69
		c0.11,0.06,0.22,0.11,0.32,0.17c0.54,0.3,1.07,0.62,1.6,0.95c0.14,0.09,0.27,0.18,0.41,0.27c0.38,0.25,0.76,0.5,1.13,0.76
		c0.19,0.13,0.37,0.28,0.56,0.41c0.31,0.23,0.63,0.47,0.93,0.71c0.2,0.16,0.39,0.32,0.59,0.48c0.29,0.24,0.57,0.48,0.85,0.72
		c0.2,0.18,0.39,0.36,0.59,0.54c0.27,0.25,0.53,0.5,0.79,0.76c0.19,0.19,0.38,0.38,0.57,0.58c0.11,0.12,0.23,0.23,0.35,0.35v-3.29
		c-0.12-0.11-0.24-0.23-0.36-0.34c-0.21-0.19-0.42-0.38-0.64-0.57c-0.24-0.21-0.47-0.41-0.71-0.6c-0.22-0.18-0.44-0.36-0.66-0.53
		c-0.24-0.19-0.49-0.38-0.74-0.57c-0.22-0.17-0.45-0.34-0.68-0.5c-0.25-0.18-0.51-0.35-0.76-0.53c-0.23-0.16-0.46-0.31-0.7-0.47
		c-0.26-0.17-0.52-0.33-0.78-0.49c-0.24-0.15-0.48-0.29-0.72-0.43c-0.27-0.15-0.53-0.3-0.8-0.45c-0.24-0.13-0.49-0.27-0.74-0.4
		c-0.27-0.14-0.55-0.27-0.82-0.41c-0.25-0.12-0.5-0.24-0.75-0.36c-0.28-0.13-0.56-0.25-0.84-0.37c-0.25-0.11-0.51-0.22-0.76-0.32
		c-0.29-0.11-0.58-0.22-0.86-0.33c-0.26-0.1-0.52-0.2-0.78-0.29c-0.29-0.1-0.59-0.19-0.89-0.29c-0.26-0.08-0.52-0.17-0.78-0.25
		c-0.3-0.09-0.61-0.17-0.92-0.25c-0.26-0.07-0.52-0.14-0.78-0.21c-0.31-0.08-0.63-0.14-0.95-0.21c-0.26-0.06-0.51-0.12-0.77-0.17
		c-0.33-0.06-0.66-0.11-0.99-0.17c-0.25-0.04-0.5-0.09-0.75-0.12c-0.35-0.05-0.7-0.09-1.05-0.13c-0.24-0.03-0.47-0.06-0.71-0.08
		c-0.39-0.04-0.79-0.06-1.19-0.09c-0.2-0.01-0.39-0.03-0.59-0.04c-0.6-0.03-1.19-0.04-1.79-0.04c-0.7,0-1.39,0.02-2.09,0.06
		c-0.23,0.01-0.45,0.04-0.68,0.06c-0.46,0.03-0.93,0.07-1.39,0.12c-0.27,0.03-0.54,0.08-0.81,0.11c-0.41,0.05-0.82,0.1-1.22,0.17
		c-0.29,0.05-0.57,0.11-0.86,0.17c-0.38,0.07-0.77,0.14-1.15,0.23c-0.29,0.07-0.58,0.15-0.87,0.22c-0.37,0.09-0.74,0.18-1.11,0.29
		c-0.29,0.08-0.58,0.18-0.87,0.27c-0.36,0.11-0.72,0.22-1.07,0.34c-0.29,0.1-0.58,0.21-0.87,0.32c-0.35,0.13-0.69,0.25-1.03,0.39
		C22,8.09,21.72,8.23,21.43,8.35c-0.33,0.15-0.67,0.29-1,0.45c-0.28,0.14-0.56,0.28-0.84,0.42c-0.32,0.16-0.65,0.32-0.96,0.5
		c-0.28,0.15-0.55,0.31-0.83,0.47c-0.31,0.18-0.62,0.36-0.93,0.55c-0.27,0.17-0.54,0.35-0.81,0.52c-0.3,0.2-0.6,0.39-0.89,0.6
		c-0.26,0.18-0.52,0.38-0.78,0.57c-0.29,0.21-0.58,0.42-0.86,0.64c-0.26,0.2-0.51,0.41-0.76,0.62c-0.28,0.23-0.55,0.45-0.82,0.69
		c-0.25,0.22-0.49,0.44-0.73,0.67c-0.26,0.24-0.52,0.48-0.78,0.74c-0.24,0.23-0.47,0.47-0.7,0.71c-0.25,0.26-0.5,0.51-0.74,0.78
		c-0.23,0.25-0.45,0.5-0.67,0.76c-0.16,0.18-0.31,0.37-0.47,0.55v1.45h1.82C9.8,19.91,9.91,19.79,10.02,19.66z"/>
	<path class="9120i3oklesa" d="M24.87,25.63H21.2v2.91C22.32,27.44,23.54,26.46,24.87,25.63z"/>
	<path class="9120i3oklesa" d="M28.27,63.47c-3.63-4.46-5.82-9.93-6.26-15.71h-2.13c0.39,5.69,2.34,11.07,5.71,15.71H28.27z"/>
	<path class="9120i3oklesa" d="M56.81,41.34h3.07c-0.53-6.02-3.32-11.63-7.84-15.71h-5.12C52.34,28.98,56.14,34.7,56.81,41.34z"/>
	<path class="9120i3oklesa" d="M61.31,63.47h3.67v-2.91C63.86,61.67,62.63,62.65,61.31,63.47z"/>
	<path class="9120i3oklesa" d="M70.28,29.71l-2.04,1.14c1.31,3.33,2.08,6.86,2.29,10.5h2.34C72.65,37.34,71.76,33.41,70.28,29.71z"/>
	<path class="9120i3oklesa" d="M74.89,29.85v-2.72l-0.86,0.48C74.34,28.35,74.63,29.09,74.89,29.85z"/>
	<path class="sdhui81hjsd" d="M81.83,65.93h-4.96h-7.68c0.02-0.11,0.03-0.22,0.03-0.34V54.05v-8.42c0-0.01,0-0.02,0-0.04h5.85h1.94
		c1.17,0,2.13-0.95,2.13-2.13V23.51c0-0.04-0.01-0.07-0.01-0.11c0-0.08-0.01-0.15-0.02-0.23c-0.01-0.07-0.03-0.14-0.04-0.2
		c-0.02-0.06-0.04-0.13-0.06-0.19c-0.03-0.07-0.06-0.15-0.09-0.22c-0.02-0.03-0.02-0.06-0.04-0.1c-0.01-0.02-0.03-0.04-0.05-0.07
		c-0.04-0.07-0.09-0.13-0.13-0.19c-0.04-0.05-0.08-0.1-0.12-0.15c-0.05-0.05-0.1-0.1-0.15-0.14c-0.05-0.05-0.1-0.09-0.16-0.13
		c-0.05-0.04-0.11-0.07-0.17-0.11c-0.06-0.03-0.12-0.07-0.18-0.1c-0.06-0.03-0.13-0.05-0.19-0.07c-0.07-0.02-0.13-0.04-0.2-0.06
		c-0.06-0.02-0.13-0.03-0.19-0.04c-0.08-0.01-0.15-0.02-0.23-0.02c-0.03,0-0.05-0.01-0.08-0.01H69.6h-3.78v-7.09V2.19
		c0-1.17-0.95-2.13-2.13-2.13H5.75c-1.17,0-2.13,0.95-2.13,2.13V17.8v4.35c0,1.17,0.95,2.13,2.13,2.13h4.96h6.24v10.77v8.42
		c0,0.01,0,0.02,0,0.04H11.1H9.16c-1.17,0-2.13,0.95-2.13,2.13V65.6c0,1.17,0.95,2.13,2.13,2.13h7.42h5.22
		c-0.02,0.11-0.03,0.22-0.03,0.34v7.87v12.1c0,1.17,0.95,2.13,2.13,2.13h57.95c1.17,0,2.13-0.95,2.13-2.13V72.42v-4.36
		C83.96,66.89,83,65.93,81.83,65.93z M79.7,71.64c-0.15,0.19-0.31,0.37-0.47,0.55c-0.22,0.25-0.44,0.51-0.67,0.76
		c-0.24,0.27-0.49,0.52-0.74,0.78c-0.23,0.24-0.46,0.48-0.7,0.71c-0.26,0.25-0.52,0.49-0.78,0.74c-0.24,0.22-0.48,0.45-0.73,0.66
		c-0.27,0.24-0.55,0.46-0.82,0.69c-0.25,0.21-0.5,0.42-0.75,0.62c-0.28,0.22-0.57,0.43-0.86,0.65c-0.26,0.19-0.52,0.38-0.78,0.57
		c-0.3,0.21-0.6,0.4-0.9,0.6c-0.27,0.17-0.53,0.35-0.8,0.52c-0.31,0.19-0.62,0.37-0.93,0.55c-0.27,0.16-0.54,0.32-0.82,0.47
		c-0.32,0.17-0.64,0.33-0.97,0.5c-0.28,0.14-0.56,0.29-0.84,0.42c-0.33,0.16-0.66,0.3-1,0.45c-0.29,0.13-0.57,0.26-0.86,0.37
		c-0.34,0.14-0.69,0.26-1.03,0.39c-0.29,0.11-0.58,0.22-0.87,0.32c-0.35,0.12-0.71,0.23-1.07,0.34c-0.29,0.09-0.58,0.19-0.87,0.27
		c-0.36,0.1-0.74,0.19-1.1,0.28c-0.29,0.07-0.58,0.15-0.87,0.22c-0.38,0.09-0.77,0.15-1.15,0.23c-0.29,0.06-0.57,0.12-0.86,0.17
		c-0.4,0.07-0.81,0.12-1.21,0.17c-0.28,0.04-0.55,0.08-0.83,0.11c-0.46,0.05-0.92,0.08-1.38,0.12c-0.23,0.02-0.45,0.04-0.68,0.06
		c-0.69,0.04-1.39,0.06-2.09,0.06c-0.6,0-1.2-0.01-1.79-0.04c-0.2-0.01-0.39-0.03-0.59-0.04c-0.4-0.03-0.79-0.05-1.19-0.09
		c-0.24-0.02-0.47-0.06-0.71-0.08c-0.35-0.04-0.7-0.08-1.05-0.13c-0.25-0.04-0.5-0.08-0.75-0.12c-0.33-0.05-0.66-0.11-0.99-0.17
		c-0.26-0.05-0.51-0.11-0.77-0.17c-0.32-0.07-0.63-0.13-0.95-0.21c-0.26-0.06-0.52-0.14-0.78-0.21c-0.31-0.08-0.61-0.16-0.91-0.25
		c-0.26-0.08-0.52-0.16-0.78-0.25c-0.3-0.09-0.59-0.19-0.89-0.29c-0.26-0.09-0.52-0.19-0.78-0.29c-0.29-0.11-0.58-0.21-0.86-0.33
		c-0.26-0.1-0.51-0.22-0.77-0.33c-0.25-0.11-0.5-0.21-0.75-0.33l1.79-1.77c0.21,0.09,0.42,0.17,0.63,0.25
		c0.34,0.14,0.69,0.27,1.04,0.4c0.24,0.09,0.49,0.17,0.74,0.25c0.34,0.12,0.69,0.23,1.03,0.33c0.25,0.08,0.51,0.15,0.76,0.22
		c0.35,0.1,0.7,0.19,1.05,0.27c0.26,0.06,0.51,0.12,0.77,0.18c0.36,0.08,0.72,0.15,1.08,0.22c0.25,0.05,0.51,0.1,0.77,0.14
		c0.38,0.06,0.76,0.11,1.14,0.16c0.24,0.03,0.48,0.07,0.73,0.09c0.42,0.05,0.84,0.08,1.27,0.11c0.21,0.01,0.41,0.04,0.62,0.05
		c0.63,0.03,1.27,0.05,1.91,0.05c0.66,0,1.31-0.02,1.97-0.06c0.22-0.01,0.43-0.04,0.65-0.05c0.43-0.03,0.87-0.06,1.3-0.11
		c0.25-0.03,0.51-0.07,0.76-0.1c0.39-0.05,0.78-0.1,1.16-0.17c0.27-0.05,0.54-0.1,0.8-0.16c0.36-0.07,0.73-0.14,1.09-0.22
		c0.28-0.06,0.55-0.14,0.82-0.21c0.35-0.09,0.7-0.17,1.04-0.27c0.27-0.08,0.55-0.17,0.82-0.25c0.34-0.11,0.67-0.21,1.01-0.32
		c0.27-0.09,0.54-0.2,0.81-0.3c0.33-0.12,0.65-0.24,0.97-0.38c0.27-0.11,0.54-0.23,0.8-0.35c0.32-0.14,0.63-0.28,0.94-0.43
		c0.27-0.13,0.53-0.26,0.79-0.4c0.31-0.16,0.61-0.31,0.91-0.48c0.26-0.14,0.51-0.29,0.77-0.44c0.29-0.17,0.59-0.34,0.88-0.52
		c0.25-0.16,0.5-0.32,0.75-0.49c0.28-0.19,0.56-0.37,0.84-0.57c0.25-0.17,0.49-0.35,0.73-0.53c0.27-0.2,0.54-0.4,0.81-0.61
		c0.24-0.19,0.48-0.38,0.71-0.58c0.26-0.22,0.52-0.43,0.77-0.66c0.23-0.2,0.46-0.41,0.68-0.62c0.25-0.23,0.49-0.46,0.73-0.7
		c0.22-0.22,0.44-0.44,0.66-0.67c0.23-0.24,0.46-0.49,0.69-0.74c0.21-0.23,0.42-0.47,0.63-0.71c0.11-0.12,0.22-0.24,0.32-0.36h1.82
		V71.64z M29.8,78.12c-0.23-0.17-0.46-0.34-0.7-0.51c-0.24-0.18-0.48-0.36-0.72-0.55c-0.23-0.18-0.45-0.37-0.68-0.55
		c-0.23-0.19-0.46-0.39-0.69-0.58c-0.22-0.19-0.44-0.39-0.66-0.59c-0.12-0.11-0.23-0.22-0.35-0.33v-3.29
		c0.11,0.12,0.23,0.23,0.35,0.35c0.19,0.2,0.38,0.39,0.57,0.58c0.26,0.26,0.52,0.51,0.79,0.75c0.2,0.18,0.39,0.36,0.59,0.54
		c0.28,0.24,0.56,0.48,0.84,0.72c0.2,0.17,0.39,0.33,0.6,0.49c0.3,0.24,0.61,0.47,0.92,0.7c0.19,0.14,0.38,0.29,0.57,0.43
		c0.36,0.26,0.73,0.5,1.1,0.75c0.15,0.1,0.29,0.2,0.44,0.29c0.32,0.2,0.65,0.39,0.97,0.58l-1.72,1.7c0,0,0,0,0,0
		c-0.26-0.16-0.51-0.31-0.77-0.48c-0.24-0.16-0.48-0.32-0.72-0.48C30.3,78.47,30.05,78.3,29.8,78.12z M17.83,63.47
		c-2.66-4.83-4.22-10.2-4.54-15.71h2.34c0.34,5.6,1.99,10.94,4.87,15.71H17.83z M15.77,19.81c0.14-0.13,0.28-0.25,0.42-0.38
		c0.27-0.24,0.53-0.47,0.81-0.69c0.14-0.12,0.29-0.24,0.44-0.36c0.29-0.23,0.59-0.46,0.89-0.68c0.13-0.09,0.25-0.19,0.38-0.28
		c0.86-0.62,1.76-1.18,2.68-1.7c0.14-0.08,0.28-0.15,0.41-0.22c0.33-0.18,0.66-0.35,0.99-0.52c0.17-0.08,0.34-0.16,0.5-0.24
		c0.32-0.15,0.63-0.29,0.95-0.43c0.17-0.07,0.34-0.15,0.52-0.22c0.34-0.14,0.69-0.27,1.03-0.4c0.15-0.06,0.3-0.11,0.45-0.17
		c1-0.35,2.01-0.64,3.05-0.89c0.16-0.04,0.32-0.07,0.48-0.1c0.36-0.08,0.72-0.15,1.08-0.22c0.19-0.03,0.38-0.07,0.58-0.1
		c0.34-0.05,0.69-0.1,1.03-0.15c0.19-0.02,0.39-0.05,0.59-0.07c0.37-0.04,0.73-0.07,1.1-0.09c0.17-0.01,0.34-0.03,0.51-0.04
		c0.54-0.03,1.08-0.05,1.62-0.05c0.54,0,1.08,0.02,1.62,0.05c0.17,0.01,0.34,0.02,0.51,0.04c0.37,0.03,0.74,0.06,1.1,0.09
		c0.2,0.02,0.39,0.04,0.58,0.07c0.35,0.04,0.69,0.09,1.03,0.15c0.19,0.03,0.38,0.06,0.58,0.1c0.36,0.07,0.73,0.14,1.09,0.22
		c0.16,0.03,0.32,0.07,0.48,0.1c1.03,0.24,2.05,0.54,3.05,0.89c0.15,0.05,0.3,0.11,0.46,0.17c0.35,0.13,0.69,0.26,1.03,0.4
		c0.17,0.07,0.35,0.15,0.52,0.22c0.32,0.14,0.64,0.28,0.95,0.43c0.17,0.08,0.34,0.16,0.51,0.24c0.33,0.16,0.66,0.34,0.99,0.51
		c0.14,0.08,0.28,0.15,0.42,0.23c0.92,0.52,1.81,1.09,2.68,1.7c0.13,0.09,0.26,0.19,0.39,0.29c0.3,0.22,0.59,0.44,0.88,0.67
		c0.15,0.12,0.3,0.24,0.44,0.36c0.27,0.22,0.54,0.45,0.8,0.68c0.14,0.13,0.29,0.25,0.43,0.38c0.08,0.07,0.15,0.15,0.23,0.22h-3.23
		c-0.24-0.19-0.49-0.35-0.73-0.53c-0.3-0.22-0.6-0.45-0.91-0.66c-0.36-0.25-0.74-0.47-1.11-0.7c-0.31-0.19-0.62-0.39-0.94-0.57
		c-0.39-0.22-0.78-0.41-1.18-0.61c-0.32-0.16-0.64-0.33-0.97-0.48c-0.41-0.19-0.83-0.35-1.25-0.51c-0.33-0.13-0.65-0.27-0.98-0.39
		c-0.43-0.15-0.88-0.28-1.32-0.42c-0.33-0.1-0.65-0.21-0.98-0.3c-0.47-0.12-0.94-0.22-1.41-0.31c-0.31-0.07-0.62-0.15-0.94-0.2
		c-0.53-0.09-1.06-0.15-1.6-0.21c-0.27-0.03-0.53-0.08-0.8-0.1c-0.8-0.07-1.61-0.11-2.42-0.11c-0.81,0-1.62,0.04-2.43,0.11
		c-0.27,0.02-0.54,0.07-0.81,0.1c-0.53,0.06-1.06,0.12-1.59,0.21c-0.32,0.06-0.64,0.14-0.96,0.2c-0.47,0.1-0.94,0.19-1.4,0.31
		c-0.34,0.09-0.66,0.2-1,0.3c-0.44,0.13-0.87,0.26-1.3,0.41c-0.34,0.12-0.67,0.26-1,0.39c-0.41,0.16-0.83,0.32-1.23,0.51
		c-0.33,0.15-0.65,0.32-0.98,0.49c-0.39,0.2-0.78,0.39-1.17,0.6c-0.32,0.18-0.63,0.38-0.95,0.57c-0.37,0.23-0.74,0.45-1.1,0.7
		c-0.31,0.21-0.6,0.43-0.9,0.65c-0.24,0.18-0.5,0.34-0.73,0.53h-3.23C15.62,19.96,15.69,19.88,15.77,19.81z M68.34,25.63
		c0.04,0.07,0.08,0.15,0.12,0.22l-2.02,1.13c-0.25-0.45-0.51-0.9-0.78-1.35H68.34z M71.81,70.41c-0.14,0.13-0.29,0.26-0.43,0.39
		c-0.26,0.23-0.53,0.46-0.79,0.68c-0.15,0.12-0.3,0.25-0.45,0.37c-0.29,0.23-0.58,0.45-0.87,0.66c-0.14,0.1-0.27,0.2-0.4,0.3
		c-0.42,0.3-0.85,0.59-1.29,0.87c-0.01,0-0.01,0.01-0.02,0.01c-0.45,0.28-0.9,0.55-1.36,0.81c-0.14,0.08-0.29,0.16-0.43,0.23
		c-0.32,0.17-0.64,0.34-0.97,0.51c-0.17,0.09-0.35,0.17-0.52,0.25c-0.31,0.15-0.62,0.29-0.94,0.42c-0.18,0.08-0.35,0.15-0.53,0.22
		c-0.34,0.14-0.68,0.27-1.02,0.39c-0.16,0.06-0.31,0.12-0.47,0.17c-1,0.35-2.01,0.64-3.04,0.89c-0.16,0.04-0.32,0.07-0.48,0.1
		c-0.36,0.08-0.72,0.15-1.08,0.22c-0.19,0.03-0.38,0.07-0.58,0.1c-0.34,0.05-0.69,0.1-1.03,0.15c-0.2,0.02-0.39,0.05-0.59,0.07
		c-0.37,0.04-0.73,0.07-1.1,0.09c-0.17,0.01-0.34,0.03-0.51,0.04c-0.54,0.03-1.08,0.05-1.62,0.05c-0.54,0-1.08-0.02-1.62-0.05
		c-0.17-0.01-0.34-0.02-0.51-0.04c-0.37-0.03-0.74-0.06-1.1-0.09c-0.2-0.02-0.39-0.05-0.59-0.07c-0.35-0.04-0.69-0.09-1.03-0.15
		c-0.19-0.03-0.38-0.06-0.58-0.1c-0.36-0.07-0.72-0.14-1.08-0.22c-0.16-0.04-0.32-0.07-0.48-0.1c-1.03-0.24-2.05-0.54-3.04-0.89
		c-0.06-0.02-0.11-0.04-0.17-0.06l1.72-1.7c0.11,0.03,0.22,0.07,0.33,0.1c0.33,0.1,0.66,0.21,1,0.3c0.46,0.12,0.93,0.21,1.39,0.31
		c0.32,0.07,0.64,0.15,0.96,0.2c0.53,0.09,1.06,0.15,1.59,0.21c0.27,0.03,0.53,0.08,0.8,0.1c0.8,0.07,1.61,0.11,2.42,0.11
		c0.81,0,1.62-0.04,2.43-0.11c0.27-0.02,0.53-0.07,0.8-0.1c0.53-0.06,1.07-0.12,1.59-0.21c0.32-0.06,0.63-0.14,0.95-0.2
		c0.47-0.1,0.94-0.19,1.4-0.31c0.33-0.09,0.66-0.2,0.99-0.3c0.44-0.13,0.88-0.26,1.31-0.41c0.34-0.12,0.66-0.26,1-0.39
		c0.41-0.16,0.83-0.32,1.23-0.51c0.33-0.15,0.66-0.32,0.98-0.49c0.39-0.2,0.78-0.39,1.16-0.6c0.32-0.18,0.64-0.38,0.96-0.58
		c0.37-0.23,0.74-0.45,1.1-0.69c0.31-0.21,0.61-0.44,0.92-0.66c0.24-0.18,0.49-0.34,0.73-0.52h3.23
		C71.96,70.26,71.88,70.33,71.81,70.41z M36.36,74.5c-0.46-0.26-0.91-0.53-1.36-0.81c0,0-0.01-0.01-0.01-0.01
		c-0.44-0.28-0.87-0.57-1.3-0.88c-0.14-0.1-0.27-0.2-0.4-0.3c-0.29-0.22-0.58-0.44-0.87-0.66c-0.15-0.12-0.3-0.24-0.45-0.37
		c-0.27-0.22-0.53-0.45-0.79-0.68c-0.15-0.13-0.29-0.26-0.44-0.39c-0.08-0.07-0.15-0.15-0.23-0.22h3.23
		c0.24,0.19,0.49,0.35,0.73,0.53c0.3,0.22,0.6,0.45,0.9,0.65c0.36,0.24,0.73,0.47,1.1,0.7c0.32,0.19,0.63,0.39,0.95,0.57
		c0.35,0.2,0.7,0.37,1.06,0.55l-1.61,1.59c-0.03-0.02-0.07-0.03-0.1-0.05C36.64,74.65,36.5,74.58,36.36,74.5z M21.2,35.57
		c2.92-5.46,8.53-8.83,14.74-8.83c8.5,0,15.54,6.38,16.59,14.6h-2.48c-1.03-6.86-6.97-12.14-14.11-12.14
		c-7.15,0-13.08,5.28-14.11,12.14H21.2V35.57z M27.51,19.88c0.46-0.18,0.93-0.35,1.4-0.5c0.21-0.07,0.41-0.14,0.62-0.2
		c4.38-1.26,9.14-1.27,13.52,0c0.21,0.06,0.42,0.13,0.63,0.2c0.47,0.15,0.94,0.32,1.4,0.5c0.12,0.05,0.25,0.1,0.37,0.15H27.15
		C27.27,19.98,27.39,19.93,27.51,19.88z M64.98,53.53c-2.92,5.46-8.53,8.83-14.74,8.83c-8.5,0-15.54-6.38-16.59-14.6h2.48
		c1.03,6.86,6.97,12.14,14.11,12.14c7.15,0,13.08-5.28,14.11-12.14h0.63V53.53z M60.06,70.34c-0.46,0.18-0.93,0.35-1.4,0.5
		c-0.2,0.07-0.41,0.13-0.62,0.19c-4.38,1.26-9.15,1.27-13.53,0c-0.2-0.06-0.4-0.13-0.6-0.19c-0.48-0.15-0.95-0.32-1.42-0.51
		c-0.12-0.05-0.24-0.1-0.36-0.15h18.31C60.31,70.24,60.18,70.29,60.06,70.34z M34.13,63.47c-4.52-4.09-7.31-9.69-7.84-15.71h3.08
		c0.67,6.65,4.47,12.37,9.89,15.71H34.13z M64.48,32.92c1,2.69,1.61,5.51,1.81,8.42h-2.13c-0.24-3.16-1.02-6.21-2.25-9.07
		c0.41,0.54,1.03,0.86,1.68,0.86C63.89,33.13,64.19,33.06,64.48,32.92z M60.02,47.76c-0.98,4.51-4.99,7.89-9.79,7.89
		c-4.79,0-8.81-3.39-9.79-7.89H60.02z M26.15,41.34c0.98-4.51,4.99-7.89,9.79-7.89c4.79,0,8.81,3.39,9.79,7.89H26.15z M62.56,29.15
		c-0.81,0.45-1.2,1.34-1.05,2.21c-0.97-2.04-2.17-3.96-3.6-5.73h2.67c0.8,1.1,1.52,2.25,2.15,3.43L62.56,29.15z M52.05,25.63
		c4.52,4.09,7.31,9.69,7.84,15.71h-3.07c-0.67-6.65-4.47-12.37-9.89-15.71H52.05z M22.01,47.76c0.43,5.78,2.63,11.25,6.26,15.71
		H25.6c-3.37-4.64-5.33-10.02-5.71-15.71H22.01z M61.31,63.47c1.33-0.82,2.55-1.8,3.67-2.91v2.91H61.31z M68.24,30.84l2.04-1.14
		c1.48,3.7,2.37,7.63,2.6,11.64h-2.34C70.32,37.71,69.55,34.18,68.24,30.84z M74.89,29.85c-0.26-0.75-0.55-1.5-0.86-2.24l0.86-0.48
		V29.85z M24.87,25.63c-1.33,0.82-2.55,1.8-3.67,2.91v-2.91H24.87z M61.57,4.32v5.29c-0.12-0.09-0.25-0.18-0.37-0.27
		c-0.45-0.34-0.91-0.68-1.37-1c-0.2-0.14-0.4-0.28-0.6-0.42c-0.63-0.43-1.28-0.84-1.93-1.23c-0.02-0.01-0.04-0.02-0.06-0.03
		c-0.67-0.4-1.36-0.77-2.06-1.13c-0.21-0.11-0.42-0.21-0.63-0.31c-0.51-0.25-1.02-0.49-1.54-0.72c-0.13-0.06-0.26-0.13-0.39-0.18
		H61.57z M7.87,4.32H20c-0.45,0.19-0.89,0.4-1.33,0.61c-0.09,0.04-0.18,0.08-0.27,0.12c-0.63,0.3-1.24,0.62-1.85,0.96
		c-0.17,0.09-0.34,0.2-0.52,0.29c-0.44,0.25-0.88,0.51-1.31,0.77c-0.2,0.12-0.4,0.25-0.6,0.38c-0.41,0.27-0.82,0.54-1.23,0.82
		c-0.18,0.12-0.36,0.25-0.54,0.37c-0.54,0.39-1.07,0.78-1.59,1.19c-0.03,0.02-0.06,0.05-0.09,0.07c-0.55,0.44-1.09,0.9-1.62,1.36
		c-0.16,0.14-0.31,0.28-0.46,0.42c-0.24,0.22-0.48,0.43-0.71,0.65V4.32z M7.87,18.58c0.15-0.19,0.31-0.37,0.47-0.55
		c0.22-0.25,0.44-0.51,0.67-0.76c0.24-0.27,0.49-0.52,0.74-0.78c0.23-0.24,0.46-0.48,0.7-0.71c0.26-0.25,0.52-0.49,0.78-0.74
		c0.24-0.22,0.48-0.45,0.73-0.67c0.27-0.24,0.54-0.46,0.82-0.69c0.25-0.21,0.5-0.42,0.76-0.62c0.28-0.22,0.57-0.43,0.86-0.64
		c0.26-0.19,0.52-0.39,0.78-0.57c0.29-0.21,0.59-0.4,0.89-0.6c0.27-0.18,0.53-0.35,0.81-0.52c0.31-0.19,0.62-0.37,0.93-0.55
		c0.27-0.16,0.55-0.32,0.83-0.47c0.32-0.17,0.64-0.33,0.96-0.5c0.28-0.14,0.56-0.29,0.84-0.42c0.33-0.16,0.66-0.3,1-0.45
		c0.29-0.13,0.57-0.26,0.86-0.37c0.34-0.14,0.69-0.26,1.03-0.39c0.29-0.11,0.57-0.22,0.87-0.32c0.35-0.12,0.71-0.23,1.07-0.34
		c0.29-0.09,0.58-0.19,0.87-0.27c0.37-0.1,0.74-0.19,1.11-0.29c0.29-0.07,0.58-0.15,0.87-0.22c0.38-0.09,0.77-0.15,1.15-0.23
		c0.29-0.06,0.57-0.12,0.86-0.17c0.41-0.07,0.82-0.12,1.22-0.17c0.27-0.04,0.54-0.08,0.81-0.11c0.46-0.05,0.92-0.08,1.39-0.12
		c0.23-0.02,0.45-0.04,0.68-0.06c0.69-0.04,1.39-0.06,2.09-0.06c0.6,0,1.2,0.01,1.79,0.04c0.2,0.01,0.39,0.03,0.59,0.04
		c0.4,0.03,0.79,0.05,1.19,0.09c0.24,0.02,0.47,0.06,0.71,0.08c0.35,0.04,0.7,0.08,1.05,0.13c0.25,0.04,0.5,0.08,0.75,0.12
		c0.33,0.05,0.66,0.11,0.99,0.17c0.26,0.05,0.51,0.11,0.77,0.17c0.32,0.07,0.63,0.13,0.95,0.21c0.26,0.06,0.52,0.14,0.78,0.21
		c0.31,0.08,0.61,0.16,0.92,0.25c0.26,0.08,0.52,0.16,0.78,0.25c0.3,0.09,0.59,0.19,0.89,0.29c0.26,0.09,0.52,0.19,0.78,0.29
		c0.29,0.11,0.58,0.21,0.86,0.33c0.26,0.1,0.51,0.21,0.76,0.32c0.28,0.12,0.57,0.24,0.84,0.37c0.25,0.12,0.5,0.24,0.75,0.36
		c0.27,0.13,0.55,0.27,0.82,0.41c0.25,0.13,0.49,0.26,0.74,0.4c0.27,0.15,0.54,0.29,0.8,0.45c0.24,0.14,0.48,0.29,0.72,0.43
		c0.26,0.16,0.52,0.32,0.78,0.49c0.23,0.15,0.47,0.31,0.7,0.47c0.26,0.17,0.51,0.35,0.76,0.53c0.23,0.16,0.45,0.33,0.68,0.5
		c0.25,0.19,0.49,0.37,0.74,0.57c0.22,0.17,0.44,0.35,0.66,0.53c0.24,0.2,0.48,0.4,0.71,0.6c0.21,0.19,0.43,0.38,0.64,0.57
		c0.12,0.11,0.24,0.23,0.36,0.34v3.29c-0.11-0.12-0.23-0.23-0.35-0.35c-0.19-0.2-0.38-0.39-0.57-0.58
		c-0.26-0.26-0.52-0.51-0.79-0.76c-0.19-0.18-0.39-0.36-0.59-0.54c-0.28-0.25-0.56-0.49-0.85-0.72c-0.19-0.16-0.39-0.33-0.59-0.48
		c-0.31-0.24-0.62-0.48-0.93-0.71c-0.19-0.14-0.37-0.28-0.56-0.41c-0.37-0.26-0.75-0.52-1.13-0.76c-0.14-0.09-0.27-0.19-0.41-0.27
		c-0.52-0.33-1.06-0.65-1.6-0.95c-0.11-0.06-0.22-0.11-0.32-0.17c-0.44-0.24-0.87-0.47-1.32-0.69c-0.2-0.1-0.4-0.18-0.59-0.28
		c-0.36-0.17-0.72-0.34-1.09-0.49c-0.23-0.1-0.46-0.19-0.69-0.28c-0.35-0.14-0.69-0.27-1.04-0.4c-0.24-0.09-0.49-0.17-0.73-0.25
		c-0.34-0.12-0.69-0.23-1.03-0.33c-0.25-0.08-0.51-0.15-0.76-0.22c-0.35-0.1-0.7-0.19-1.05-0.27c-0.26-0.06-0.51-0.12-0.77-0.18
		c-0.36-0.08-0.72-0.15-1.08-0.22c-0.25-0.05-0.51-0.1-0.76-0.14c-0.38-0.06-0.76-0.11-1.14-0.16c-0.24-0.03-0.48-0.07-0.73-0.09
		c-0.42-0.05-0.84-0.08-1.27-0.11c-0.21-0.01-0.41-0.04-0.62-0.05c-0.63-0.03-1.27-0.05-1.91-0.05c-0.66,0-1.31,0.02-1.97,0.06
		c-0.22,0.01-0.43,0.04-0.64,0.05c-0.44,0.03-0.87,0.06-1.3,0.11c-0.25,0.03-0.5,0.07-0.75,0.1c-0.39,0.05-0.78,0.1-1.17,0.17
		c-0.27,0.04-0.53,0.1-0.79,0.15c-0.37,0.07-0.73,0.14-1.1,0.22c-0.27,0.06-0.54,0.14-0.81,0.2c-0.35,0.09-0.7,0.17-1.05,0.27
		c-0.27,0.08-0.54,0.17-0.81,0.25c-0.34,0.11-0.68,0.21-1.02,0.33c-0.27,0.09-0.53,0.2-0.8,0.3c-0.33,0.12-0.66,0.25-0.99,0.38
		c-0.27,0.11-0.53,0.23-0.79,0.34c-0.32,0.14-0.64,0.28-0.96,0.43c-0.26,0.12-0.52,0.26-0.77,0.39c-0.31,0.16-0.62,0.32-0.93,0.48
		c-0.25,0.14-0.5,0.29-0.75,0.43c-0.3,0.17-0.6,0.35-0.89,0.53c-0.25,0.16-0.49,0.32-0.74,0.48c-0.29,0.19-0.58,0.38-0.86,0.58
		c-0.24,0.17-0.48,0.35-0.72,0.52c-0.28,0.21-0.55,0.41-0.82,0.63c-0.23,0.18-0.46,0.37-0.69,0.57c-0.26,0.22-0.53,0.44-0.79,0.67
		c-0.23,0.2-0.45,0.4-0.67,0.61c-0.25,0.23-0.5,0.47-0.75,0.72c-0.22,0.21-0.43,0.43-0.64,0.65c-0.24,0.25-0.48,0.5-0.71,0.76
		c-0.21,0.23-0.41,0.46-0.61,0.69c-0.11,0.13-0.22,0.25-0.33,0.37H7.87V18.58z M11.28,63.47v-4.22c0.5,1.44,1.08,2.84,1.74,4.22
		H11.28z M26.01,85.9V80.6c0.12,0.09,0.24,0.17,0.36,0.26c0.46,0.35,0.92,0.68,1.39,1.01c0.2,0.14,0.39,0.27,0.59,0.41
		c0.64,0.43,1.3,0.85,1.96,1.25c0.01,0.01,0.02,0.01,0.03,0.02c0.68,0.4,1.36,0.77,2.06,1.13c0.21,0.11,0.42,0.21,0.63,0.31
		c0.51,0.25,1.02,0.49,1.54,0.72c0.13,0.06,0.26,0.13,0.39,0.18H26.01z M79.7,85.9H67.58c0.45-0.19,0.9-0.4,1.34-0.61
		c0.09-0.04,0.18-0.08,0.26-0.12c0.63-0.3,1.24-0.62,1.85-0.96c0.18-0.1,0.35-0.2,0.52-0.3c0.44-0.25,0.87-0.5,1.3-0.77
		c0.2-0.13,0.41-0.25,0.61-0.38c0.41-0.26,0.82-0.54,1.22-0.81c0.18-0.13,0.36-0.25,0.54-0.38c0.53-0.38,1.05-0.77,1.57-1.18
		c0.04-0.03,0.08-0.06,0.11-0.09c0.55-0.44,1.09-0.89,1.62-1.36c0.15-0.14,0.31-0.28,0.46-0.42c0.24-0.22,0.48-0.43,0.72-0.65V85.9z
		"/>
</g>
</svg>
