<?xml version="1.0" encoding="utf-8"?>
<!-- Generator: Adobe Illustrator 25.0.1, SVG Export Plug-In . SVG Version: 6.00 Build 0)  -->
<svg version="1.1" id="Layer_1" xmlns="http://www.w3.org/2000/svg" xmlns:xlink="http://www.w3.org/1999/xlink" x="0px" y="0px"
	 viewBox="0 0 90 90" style="enable-background:new 0 0 90 90;" xml:space="preserve">
<style type="text/css">
	.dnsjoiasdub1{fill:#A38244;}
</style>
<g>
	<path class="dnsjoiasdub1" d="M88.98,68.45h-2.86V15.33c0-0.61-0.41-1.02-1.02-1.02H4.29c-0.61,0-1.02,0.41-1.02,1.02v53.12H1.02
		C0.41,68.45,0,68.86,0,69.47v4.8c0,0.61,0.41,1.02,1.02,1.02h87.96c0.61,0,1.02-0.41,1.02-1.02v-4.8
		C90,68.86,89.59,68.45,88.98,68.45z M31.57,20.95v15.12h-9.91V20.95H31.57z M43.72,20.95v15.12H33.61V20.95H43.72z M55.68,20.95
		v15.12h-9.91V20.95H55.68z M67.93,20.95v15.12H57.72V20.95H67.93z M79.89,20.95v15.12h-9.91V20.95H79.89z M9.6,38.11h21.96v18.29
		l0,0H9.6V38.11z M55.68,38.11v22.99H33.61V38.11H55.68z M79.89,38.11v18.29H57.72V38.11H79.89z M33.61,68.14v-4.9h22.07v4.9
		c0,0.1,0,0.1,0,0.2H33.61C33.61,68.24,33.61,68.14,33.61,68.14z M57.72,68.24c0-0.1,0-0.1,0-0.2v-9.7h22.17v9.81H57.72V68.24z
		 M19.61,36.07H9.6V20.95h10.01V36.07z M9.6,58.44h21.96l0,0v9.7c0,0.1,0,0.1,0,0.2H9.6V58.44z M5.31,16.35h78.86v51.9h-2.25V19.92
		c0-0.61-0.41-1.02-1.02-1.02H8.58c-0.61,0-1.02,0.41-1.02,1.02v48.32H5.31V16.35z M87.96,73.25H2.04v-2.76h85.91V73.25z"/>
	<path class="dnsjoiasdub1" d="M13.69,47c-0.31-0.51-0.92-0.61-1.43-0.31s-0.61,0.92-0.31,1.43L14.51,52c0.2,0.31,0.51,0.51,0.82,0.51
		c0.2,0,0.41-0.1,0.51-0.2c0.51-0.31,0.61-0.92,0.31-1.43L13.69,47z"/>
	<path class="dnsjoiasdub1" d="M60.68,48.12L63.23,52c0.2,0.31,0.51,0.51,0.82,0.51c0.2,0,0.41-0.1,0.51-0.2c0.51-0.31,0.61-0.92,0.31-1.43
		L62.32,47c-0.31-0.51-0.92-0.61-1.33-0.31C60.48,47,60.37,47.61,60.68,48.12z"/>
	<path class="dnsjoiasdub1" d="M15.02,43.11c-0.31-0.51-0.92-0.61-1.43-0.31s-0.61,0.92-0.31,1.43l5.82,8.89c0.2,0.31,0.51,0.51,0.82,0.51
		c0.2,0,0.41-0.1,0.51-0.2c0.51-0.31,0.61-0.92,0.31-1.43L15.02,43.11z"/>
</g>
</svg>
