<?xml version="1.0" encoding="utf-8"?>
<!-- Generator: Adobe Illustrator 25.0.1, SVG Export Plug-In . SVG Version: 6.00 Build 0)  -->
<svg version="1.1" id="Layer_1" xmlns="http://www.w3.org/2000/svg" xmlns:xlink="http://www.w3.org/1999/xlink" x="0px" y="0px"
	 viewBox="0 0 90 90" style="enable-background:new 0 0 90 90;" xml:space="preserve">
<style type="text/css">
	.12345trdsa{fill:#A38244;}
</style>
<g>
	<g>
		<path class="12345trdsa" d="M15,74.3h60c8.28,0,15-6.72,15-15s-6.72-15-15-15h-4.54c5.19-3.86,7.31-10.6,5.28-16.74
			C73.7,21.42,67.96,17.29,61.5,17.3h-33c-6.46-0.01-12.2,4.13-14.24,10.26s0.09,12.88,5.28,16.74H15c-8.28,0-15,6.72-15,15
			S6.72,74.3,15,74.3z M23.96,71.3c1.93-1.45,3.49-3.33,4.54-5.5c1.05,2.17,2.61,4.06,4.54,5.5H23.96z M42,47.3
			c4.61,0,8.82,2.64,10.81,6.79c2,4.16,1.44,9.09-1.45,12.69c-4.07,2.79-9.53,2.34-13.09-1.07c-1.46-1.4-2.28-3.33-2.28-5.35
			c0-2.02,0.82-3.95,2.28-5.35c2.37-2.27,6.1-2.27,8.46,0c0.82,0.8,1.29,1.9,1.29,3.04c0,1.15-0.47,2.25-1.29,3.04
			c-1.31,1.25-3.37,1.25-4.68,0c-0.6-0.58-1.55-0.56-2.12,0.04c-0.58,0.6-0.56,1.55,0.04,2.12c2.48,2.37,6.38,2.37,8.86,0
			c1.4-1.36,2.19-3.24,2.19-5.19s-0.79-3.83-2.19-5.19c-3.54-3.39-9.12-3.39-12.65,0c-2.04,1.96-3.19,4.67-3.19,7.5
			s1.15,5.54,3.19,7.5c1.77,1.71,3.99,2.9,6.41,3.41c-0.2,0.01-0.39,0.03-0.59,0.03c-6.63,0-12-5.37-12-12
			C30,52.67,35.37,47.3,42,47.3L42,47.3z M75,47.3c2.91,0,5.73,1.07,7.91,3H75c-0.83,0-1.5,0.67-1.5,1.5s0.67,1.5,1.5,1.5h10.38
			c0.8,1.38,1.32,2.91,1.52,4.5H78c-0.83,0-1.5,0.67-1.5,1.5s0.67,1.5,1.5,1.5h8.9c-0.2,1.59-0.72,3.12-1.52,4.5H75
			c-0.83,0-1.5,0.67-1.5,1.5c0,0.83,0.67,1.5,1.5,1.5h7.91c-2.18,1.93-5,3-7.91,3H50.96c1.14-0.85,2.15-1.86,3.01-3H69
			c0.83,0,1.5-0.67,1.5-1.5c0-0.83-0.67-1.5-1.5-1.5H55.74c0.63-1.43,1.03-2.95,1.18-4.5H72c0.83,0,1.5-0.67,1.5-1.5
			s-0.67-1.5-1.5-1.5H56.92c-0.16-1.55-0.56-3.07-1.18-4.5H69c0.83,0,1.5-0.67,1.5-1.5s-0.67-1.5-1.5-1.5H53.97
			c-0.86-1.14-1.87-2.15-3.01-3H75z M61.5,20.3c2.91,0,5.73,1.07,7.91,3H61.5c-0.83,0-1.5,0.67-1.5,1.5c0,0.83,0.67,1.5,1.5,1.5
			h10.38c0.8,1.38,1.32,2.91,1.52,4.5h-8.9c-0.83,0-1.5,0.67-1.5,1.5s0.67,1.5,1.5,1.5h8.9c-0.2,1.59-0.72,3.12-1.52,4.5H61.5
			c-0.83,0-1.5,0.67-1.5,1.5s0.67,1.5,1.5,1.5h7.91c-2.18,1.93-5,3-7.91,3H37.46c1.14-0.85,2.15-1.86,3.01-3H55.5
			c0.83,0,1.5-0.67,1.5-1.5s-0.67-1.5-1.5-1.5H42.24c0.63-1.43,1.03-2.95,1.18-4.5H58.5c0.83,0,1.5-0.67,1.5-1.5s-0.67-1.5-1.5-1.5
			H43.42c-0.16-1.55-0.56-3.07-1.18-4.5H55.5c0.83,0,1.5-0.67,1.5-1.5c0-0.83-0.67-1.5-1.5-1.5H40.47c-0.86-1.14-1.87-2.15-3.01-3
			H61.5z M16.5,32.3c-0.01-5.27,3.42-9.93,8.46-11.48c5.03-1.56,10.5,0.36,13.46,4.71s2.74,10.14-0.55,14.25
			c-4.07,2.79-9.53,2.34-13.09-1.07c-1.46-1.4-2.28-3.33-2.28-5.35s0.82-3.95,2.28-5.35c2.37-2.27,6.1-2.27,8.46,0
			c0.82,0.8,1.29,1.9,1.29,3.04s-0.47,2.25-1.29,3.04c-1.31,1.25-3.37,1.25-4.68,0c-0.6-0.58-1.55-0.56-2.12,0.04
			c-0.58,0.6-0.56,1.55,0.04,2.12c2.48,2.37,6.38,2.37,8.86,0c1.4-1.36,2.19-3.24,2.19-5.19s-0.79-3.83-2.19-5.19
			c-3.54-3.39-9.12-3.39-12.65,0c-2.04,1.96-3.19,4.67-3.19,7.5c0,2.83,1.15,5.54,3.19,7.5c1.77,1.71,3.99,2.9,6.41,3.41
			c-0.2,0.01-0.39,0.03-0.59,0.03C21.87,44.29,16.51,38.92,16.5,32.3z M28.5,47.3h4.54c-1.93,1.45-3.49,3.33-4.54,5.51
			c-1.05-2.17-2.61-4.06-4.54-5.51H28.5z M15,47.3c4.61,0,8.82,2.64,10.81,6.79s1.44,9.09-1.45,12.69
			c-4.07,2.79-9.53,2.34-13.09-1.07C9.82,64.31,9,62.37,9,60.35c0-2.02,0.82-3.95,2.28-5.35c2.37-2.27,6.1-2.27,8.46,0
			c0.82,0.8,1.29,1.9,1.29,3.04c0,1.15-0.47,2.25-1.29,3.04c-1.31,1.25-3.37,1.25-4.68,0c-0.6-0.58-1.55-0.56-2.12,0.04
			c-0.58,0.6-0.56,1.55,0.04,2.12c2.48,2.37,6.38,2.37,8.86,0c1.4-1.36,2.19-3.24,2.19-5.19s-0.79-3.83-2.19-5.19
			c-3.54-3.39-9.12-3.39-12.65,0C7.15,54.82,6,57.53,6,60.36s1.15,5.54,3.19,7.5c1.77,1.71,3.99,2.9,6.4,3.41
			c-0.2,0.01-0.39,0.03-0.59,0.03c-6.63,0-12-5.37-12-12C3,52.67,8.37,47.3,15,47.3L15,47.3z"/>
	</g>
</g>
</svg>
