<svg version="1.1" id="Layer_1" xmlns="http://www.w3.org/2000/svg" xmlns:xlink="http://www.w3.org/1999/xlink" x="0px" y="0px"
	 viewBox="0 0 90 90" style="enable-background:new 0 0 90 90;" xml:space="preserve">
<g>
	<polygon fill="none" points="82.98,36.84 82.98,17.5 62.07,27.27 	"/>
	<path fill="none" d="M57.11,51.14l22.97-10.95L56.12,29.22c-0.04-0.02-0.07-0.04-0.1-0.06c-0.06-0.03-0.13-0.07-0.19-0.11
		c-0.06-0.04-0.11-0.08-0.16-0.12c-0.05-0.04-0.11-0.09-0.16-0.14c-0.05-0.05-0.1-0.1-0.14-0.15c-0.04-0.05-0.08-0.11-0.12-0.16
		c-0.04-0.06-0.08-0.12-0.11-0.19c-0.02-0.03-0.04-0.06-0.06-0.1c-0.01-0.03-0.02-0.05-0.03-0.08c-0.03-0.07-0.05-0.13-0.07-0.2
		c-0.02-0.07-0.04-0.13-0.05-0.2c-0.01-0.07-0.02-0.13-0.03-0.2c-0.01-0.07-0.01-0.14-0.01-0.21c0-0.07,0.01-0.13,0.01-0.2
		c0.01-0.07,0.01-0.14,0.03-0.21c0.01-0.06,0.03-0.13,0.05-0.19c0.02-0.07,0.04-0.15,0.07-0.22c0.01-0.02,0.01-0.05,0.03-0.08
		c0.02-0.03,0.04-0.06,0.05-0.09c0.04-0.07,0.07-0.14,0.12-0.2c0.04-0.05,0.07-0.11,0.11-0.16c0.05-0.06,0.09-0.11,0.14-0.16
		c0.05-0.05,0.1-0.1,0.15-0.14c0.05-0.04,0.1-0.08,0.16-0.12c0.06-0.04,0.13-0.08,0.2-0.12c0.03-0.02,0.06-0.04,0.09-0.06
		l23.8-11.11L58.25,4.96L8.27,28.78L57.11,51.14z"/>
	<polygon fill="none" points="82.98,43.52 59.18,54.86 59.18,83.88 82.98,72.59 	"/>
	<polygon fill="none" points="5.37,60.5 54.93,83.88 54.93,54.82 5.37,32.13 	"/>
	<path fill="#A38244" d="M87.23,14.17L87.23,14.17c0-0.01,0-0.01,0-0.01c0-0.16-0.02-0.32-0.06-0.47c-0.01-0.05-0.03-0.09-0.04-0.14
		c-0.03-0.11-0.08-0.22-0.13-0.32c-0.02-0.04-0.04-0.09-0.07-0.13c-0.07-0.12-0.15-0.23-0.25-0.34c-0.01-0.02-0.02-0.03-0.04-0.05
		c-0.11-0.12-0.24-0.22-0.38-0.31c-0.01-0.01-0.02-0.02-0.03-0.02c-0.03-0.02-0.06-0.03-0.09-0.04c-0.07-0.04-0.14-0.09-0.21-0.12
		L59.04,0.67C59.02,0.67,59,0.66,58.99,0.66c-0.08-0.03-0.16-0.06-0.25-0.08c-0.05-0.01-0.1-0.03-0.15-0.04
		c-0.08-0.02-0.17-0.02-0.25-0.03c-0.05,0-0.11-0.01-0.16-0.01c-0.08,0-0.16,0.01-0.24,0.02c-0.06,0.01-0.12,0.01-0.17,0.03
		c-0.07,0.02-0.14,0.04-0.21,0.06c-0.07,0.02-0.13,0.04-0.2,0.07c-0.02,0.01-0.05,0.01-0.07,0.02L2.33,26.9
		c-0.05,0.02-0.09,0.06-0.14,0.09c-0.03,0.02-0.06,0.03-0.09,0.04c-0.02,0.01-0.03,0.03-0.05,0.04c-0.11,0.08-0.21,0.16-0.3,0.25
		c-0.02,0.02-0.05,0.04-0.07,0.06c-0.11,0.12-0.2,0.25-0.28,0.39c-0.02,0.03-0.03,0.07-0.05,0.11C1.3,28,1.25,28.11,1.22,28.22
		c-0.01,0.05-0.03,0.1-0.04,0.15c-0.03,0.12-0.04,0.24-0.05,0.36c0,0.03-0.01,0.06-0.01,0.09v33.03c0,0.82,0.47,1.57,1.22,1.92
		l53.81,25.39c0.07,0.03,0.14,0.05,0.21,0.07c0.06,0.02,0.11,0.04,0.17,0.06c0.16,0.04,0.33,0.07,0.5,0.07c0.01,0,0.02,0,0.03,0
		c0.18,0,0.36-0.03,0.53-0.08c0.05-0.01,0.1-0.04,0.15-0.05c0.07-0.03,0.15-0.04,0.22-0.08l28.05-13.3
		c0.04-0.02,0.08-0.05,0.12-0.07c0.07-0.04,0.14-0.07,0.2-0.12c0.06-0.04,0.11-0.09,0.16-0.13c0.05-0.04,0.1-0.09,0.15-0.14
		c0.05-0.05,0.09-0.11,0.13-0.16c0.04-0.05,0.08-0.11,0.12-0.16c0.04-0.06,0.07-0.12,0.1-0.18c0.03-0.06,0.06-0.12,0.09-0.19
		c0.02-0.06,0.04-0.13,0.06-0.19c0.02-0.07,0.04-0.13,0.05-0.2c0.01-0.08,0.02-0.15,0.02-0.23c0-0.05,0.01-0.09,0.01-0.14V40.42
		v-0.27V14.18C87.23,14.18,87.23,14.17,87.23,14.17z M58.25,4.96l21.66,9.28L56.1,25.36c-0.03,0.02-0.06,0.04-0.09,0.06
		c-0.07,0.04-0.13,0.07-0.2,0.12c-0.06,0.04-0.11,0.08-0.16,0.12c-0.05,0.04-0.1,0.09-0.15,0.14c-0.05,0.05-0.1,0.1-0.14,0.16
		c-0.04,0.05-0.08,0.1-0.11,0.16c-0.04,0.07-0.08,0.13-0.12,0.2c-0.02,0.03-0.04,0.06-0.05,0.09c-0.01,0.02-0.02,0.05-0.03,0.08
		c-0.03,0.07-0.05,0.14-0.07,0.22c-0.02,0.06-0.04,0.12-0.05,0.19c-0.01,0.07-0.02,0.14-0.03,0.21c-0.01,0.07-0.01,0.13-0.01,0.2
		c0,0.07,0.01,0.14,0.01,0.21c0.01,0.07,0.01,0.13,0.03,0.2c0.01,0.07,0.03,0.13,0.05,0.2c0.02,0.07,0.04,0.14,0.07,0.2
		c0.01,0.03,0.02,0.05,0.03,0.08c0.02,0.04,0.04,0.07,0.06,0.1c0.03,0.06,0.07,0.13,0.11,0.19c0.04,0.06,0.08,0.11,0.12,0.16
		c0.04,0.05,0.09,0.1,0.14,0.15c0.05,0.05,0.1,0.1,0.16,0.14c0.05,0.04,0.11,0.08,0.16,0.12c0.06,0.04,0.12,0.08,0.19,0.11
		c0.04,0.02,0.07,0.04,0.1,0.06l23.97,10.97L57.11,51.14L8.27,28.78L58.25,4.96z M82.98,36.84l-20.91-9.57l20.91-9.77V36.84z
		 M59.18,54.86l23.8-11.35v29.07l-23.8,11.29V54.86z M54.93,83.88L5.37,60.5V32.13l49.56,22.69V83.88z"/>
</g>
</svg>
