<svg version="1.1" id="Layer_1" xmlns="http://www.w3.org/2000/svg" xmlns:xlink="http://www.w3.org/1999/xlink" x="0px" y="0px"
	 viewBox="0 0 90 90" style="enable-background:new 0 0 90 90;" xml:space="preserve">
<g>
	<polygon fill="none" points="42.62,45.06 42.62,29.76 33.51,37.3 	"/>
	<polygon fill="none" points="30.18,40.06 20.82,47.81 39.29,47.81 	"/>
	<polygon fill="none" points="56.14,37.44 46.87,29.76 46.87,45.33 	"/>
	<polygon fill="none" points="50.52,47.81 68.67,47.81 59.47,40.19 	"/>
	<path fill="#A38244" d="M88.54,58.75L46.1,23.6c0,0-0.01,0-0.01-0.01c-0.14-0.12-0.3-0.21-0.46-0.28c-0.04-0.02-0.08-0.03-0.12-0.05
		c-0.14-0.05-0.28-0.09-0.42-0.11c-0.04-0.01-0.07-0.02-0.11-0.02c-0.17-0.02-0.34-0.02-0.52,0.01c-0.04,0.01-0.08,0.02-0.13,0.03
		c-0.14,0.03-0.28,0.07-0.42,0.13c-0.02,0.01-0.05,0.01-0.08,0.02c-0.01,0.01-0.02,0.02-0.03,0.02c-0.15,0.07-0.29,0.16-0.42,0.27
		L0.95,58.75c-0.9,0.75-1.03,2.09-0.28,2.99c0.42,0.51,1.03,0.77,1.64,0.77c0.48,0,0.96-0.16,1.35-0.49l12.03-9.96H73.8l12.03,9.96
		c0.4,0.33,0.88,0.49,1.36,0.49c0.61,0,1.22-0.26,1.64-0.77C89.57,60.84,89.45,59.5,88.54,58.75z M56.14,37.44l-9.27,7.9V29.76
		L56.14,37.44z M42.62,45.06l-9.11-7.76l9.11-7.55V45.06z M30.18,40.06l9.11,7.75H20.82L30.18,40.06z M50.52,47.81l8.95-7.62
		l9.2,7.62H50.52z"/>
</g>
</svg>
