<?xml version="1.0" encoding="utf-8"?>
<!-- Generator: Adobe Illustrator 25.0.1, SVG Export Plug-In . SVG Version: 6.00 Build 0)  -->
<svg version="1.1" id="Layer_1" xmlns="http://www.w3.org/2000/svg" xmlns:xlink="http://www.w3.org/1999/xlink" x="0px" y="0px"
	 viewBox="0 0 90 90" style="enable-background:new 0 0 90 90;" xml:space="preserve">
<style type="text/css">
	.u89i123gyusea{fill:#A38244;}
</style>
<g>
	<path class="u89i123gyusea" d="M73.42,53.33l15.95-13.42c0.33-0.28,0.53-0.69,0.55-1.13c0.02-0.44-0.14-0.86-0.45-1.17L52.32,0.46
		c-0.31-0.31-0.76-0.51-1.17-0.45c-0.43,0.02-0.85,0.22-1.12,0.55L23.66,31.9l-9.14,9.14c-0.61,0.61-0.61,1.6,0,2.2l10.29,10.29
		l-5.51,5.51c-0.29,0.29-0.46,0.69-0.46,1.1c0,0.4,0.16,0.79,0.44,1.08L6.29,72.36c-3.65,2.92-6.15,7.15-6.35,10.77
		c-0.12,2.06,0.5,3.82,1.77,5.1C2.89,89.39,4.47,90,6.33,90c0.16,0,0.32,0,0.48-0.02c3.62-0.2,7.84-2.69,10.74-6.3l11.16-13.03
		c0.3,0.29,0.69,0.44,1.08,0.44c0.4,0,0.8-0.15,1.1-0.46l5.51-5.51l10.29,10.29c0.3,0.3,0.7,0.46,1.1,0.46s0.8-0.15,1.1-0.46
		l9.17-9.16l15.18-12.77C73.31,53.43,73.36,53.39,73.42,53.33z M57.07,63.01L26.92,32.86l15.02-17.85c0.1-0.06,0.21-0.11,0.3-0.2
		c1.04-1.04,1.93-1.7,2.73-2.03c0.93-0.37,1.59-0.26,2.27,0.43c0.74,0.74,1.42,1.57,1.4,2.67c-0.02,1.34-1.09,3.03-3.07,4.88
		c-4.83,4.5-7.08,8.29-6.68,11.25c0.29,2.16,1.86,3.07,1.75,2.95c2.71,2.2,8.86-0.8,17.26-5.97l1.05-0.64
		c0.31-0.18,0.67-0.25,1.05-0.19c0.45,0.07,0.8,0.25,1,0.93c0.18,0.58,0.12,1.16-0.16,1.58c-3.24,4.91-1.32,8.39-1.27,8.49
		c0.8,1.52,1.87,2.32,3.49,2.6c1.39,0.25,2.8-0.04,4.15-0.83c0.07-0.04,0.28-0.17,0.35-0.22c2.29-1.72,4.56-1.29,5.77-0.1
		c1.21,1.18,1.8,3.46-0.2,6.29c-0.77,1.1-1.7,2.82-2.12,4.4L57.07,63.01z M51.31,3.87l34.75,34.75l-9.14,7.69
		c1.24-3.26,0.35-6.21-1.43-7.94c-2.56-2.49-6.6-2.56-9.86-0.14c-0.71,0.42-1.37,0.57-2.04,0.45c-0.65-0.11-0.91-0.31-1.27-0.99
		c-0.04-0.08-1.01-2.08,1.12-5.31c0.79-1.2,0.98-2.74,0.54-4.21c-0.53-1.74-1.78-2.84-3.51-3.11c-1.08-0.16-2.18,0.04-3.11,0.58
		l-1.1,0.67c-10.91,6.73-13.23,6.45-13.91,6.04c0,0-0.3-0.24-0.37-0.77c-0.12-0.86,0.21-3.42,5.72-8.55
		c2.7-2.51,4.03-4.84,4.07-7.11c0.04-2.28-1.21-3.83-2.31-4.93c-0.85-0.85-1.85-1.32-2.91-1.47L51.31,3.87z M15.14,81.69
		c-2.36,2.95-5.78,5.03-8.51,5.18c-1.16,0.09-2.08-0.22-2.72-0.86c-0.64-0.64-0.93-1.55-0.86-2.72c0.15-2.73,2.23-6.14,5.22-8.53
		l13.21-11.32l5,5L15.14,81.69z M29.79,67.33l-7.18-7.18l4.41-4.41l7.18,7.18L29.79,67.33z M47.79,72.11L28.11,52.43c0,0,0,0,0,0
		c0,0,0,0,0,0L17.82,42.14l6.98-6.99l29.96,29.97L47.79,72.11z"/>
</g>
</svg>
