<svg viewBox="0 0 20 20" version="1.1" xmlns="http://www.w3.org/2000/svg" xmlns:xlink="http://www.w3.org/1999/xlink">
    <g id="Desktop" stroke="none" stroke-width="1" fill="none" fill-rule="evenodd">
        <g id="Home-Page" transform="translate(-1307.000000, -3413.000000)" fill="#FFFFFF">
            <g id="Footer" transform="translate(0.000000, 3230.000000)">
                <g id="Group-8" transform="translate(1307.000000, 139.000000)">
                    <path fill="currentColor" d="M8.46153846,55.5384615 L8.46153846,51.6923077 L11.5384615,53.6152698 L8.46153846,55.5384615 Z M15.8967653,50.8258305 C15.7554369,50.2586518 15.3382868,49.8117121 14.8089118,49.6602912 C13.8487169,49.3846154 10,49.3846154 10,49.3846154 C10,49.3846154 6.15128306,49.3846154 5.19130864,49.6602912 C4.66193367,49.8117121 4.24478356,50.2586518 4.10345521,50.8258305 C3.84615385,51.8543588 3.84615385,54 3.84615385,54 C3.84615385,54 3.84615385,56.1456412 4.10345521,57.1739332 C4.24478356,57.7413482 4.66193367,58.1880517 5.19130864,58.3397088 C6.15128306,58.6153846 10,58.6153846 10,58.6153846 C10,58.6153846 13.8487169,58.6153846 14.8089118,58.3397088 C15.3382868,58.1880517 15.7554369,57.7413482 15.8967653,57.1739332 C16.1538462,56.1456412 16.1538462,54 16.1538462,54 C16.1538462,54 16.1538462,51.8543588 15.8967653,50.8258305 L15.8967653,50.8258305 Z M9.99988804,44 C15.5190058,44 20,48.4809942 20,54.000112 C20,59.5192297 15.5190058,64 9.99988804,64 C4.48099423,64 0,59.5192297 0,54.000112 C0,48.4809942 4.48099423,44 9.99988804,44 L9.99988804,44 Z" id="Fill-1"></path>
                </g>
            </g>
        </g>
    </g>
</svg>