<?xml version="1.0" encoding="utf-8"?>
<!-- Generator: Adobe Illustrator 23.0.1, SVG Export Plug-In . SVG Version: 6.00 Build 0)  -->
<svg version="1.1" id="Layer_1" xmlns="http://www.w3.org/2000/svg" xmlns:xlink="http://www.w3.org/1999/xlink" x="0px" y="0px"
	 viewBox="0 0 25 25" style="enable-background:new 0 0 25 25;" xml:space="preserve">
<style type="text/css">
	.st0{clip-path:url(#SVGID_2_);}
	.st1{clip-path:url(#SVGID_4_);fill:#980B2C;}
	.st2{clip-path:url(#SVGID_6_);}
	.st3{clip-path:url(#SVGID_8_);fill:#980B2C;}
	.st4{clip-path:url(#SVGID_10_);}
	.st5{clip-path:url(#SVGID_12_);fill:#980B2C;}
	.st6{clip-path:url(#SVGID_14_);}
	.st7{clip-path:url(#SVGID_16_);fill:#980B2C;}
	.st8{clip-path:url(#SVGID_18_);}
	.st9{clip-path:url(#SVGID_20_);fill:#980B2C;}
	.st10{clip-path:url(#SVGID_22_);}
	.st11{clip-path:url(#SVGID_24_);fill:#980B2C;}
	.st12{clip-path:url(#SVGID_26_);}
	.st13{clip-path:url(#SVGID_28_);fill:#980B2C;}
	.st14{clip-path:url(#SVGID_30_);}
	.st15{clip-path:url(#SVGID_32_);fill:#980B2C;}
</style>
<g>
	<defs>
		<path id="SVGID_1_" d="M-636.76-1472.95c-6.29,0-11.4,5.27-11.4,11.78c0,6.51,5.1,11.78,11.4,11.78c6.3,0,11.4-5.27,11.4-11.78
			C-625.35-1467.68-630.45-1472.95-636.76-1472.95 M-636.76-1449.84c-6.06,0-10.97-5.08-10.97-11.34c0-6.26,4.91-11.33,10.97-11.33
			c6.06,0,10.98,5.07,10.98,11.33C-625.78-1454.91-630.69-1449.84-636.76-1449.84"/>
	</defs>
	<use xlink:href="#SVGID_1_"  style="overflow:visible;fill-rule:evenodd;clip-rule:evenodd;fill:#980B2C;"/>
	<clipPath id="SVGID_2_">
		<use xlink:href="#SVGID_1_"  style="overflow:visible;"/>
	</clipPath>
	<g class="st0">
		<defs>
			<rect id="SVGID_3_" x="-699" y="-1504" width="1440" height="3550"/>
		</defs>
		<use xlink:href="#SVGID_3_"  style="overflow:visible;fill:#980B2C;"/>
		<clipPath id="SVGID_4_">
			<use xlink:href="#SVGID_3_"  style="overflow:visible;"/>
		</clipPath>
		<rect x="-649.15" y="-1473.95" class="st1" width="24.8" height="25.56"/>
	</g>
</g>
<g>
	<defs>
		<path id="SVGID_5_" d="M-628.83-1460.36c0.06-0.13,0.1-0.28,0.15-0.46c0.04-0.17,0.07-0.4,0.07-0.66c0-0.36-0.06-0.69-0.17-1
			c-0.12-0.3-0.28-0.57-0.48-0.79c-0.2-0.22-0.44-0.39-0.72-0.51c-0.28-0.12-0.59-0.18-0.91-0.18c-0.5,0-0.9,0.16-1.2,0.47
			c-0.13,0.14-0.25,0.31-0.36,0.51c-0.04-0.17-0.08-0.33-0.16-0.48c-0.09-0.21-0.18-0.38-0.24-0.51l-0.64-1.27
			c-0.09-0.18-0.18-0.37-0.26-0.56c-0.08-0.19-0.13-0.38-0.15-0.57c-0.03-0.2-0.01-0.38,0.04-0.57c0.05-0.19,0.16-0.37,0.32-0.54
			c0.21-0.21,0.42-0.34,0.64-0.39c0.22-0.05,0.43-0.05,0.64-0.01c0.21,0.05,0.41,0.13,0.59,0.25c0.18,0.12,0.34,0.24,0.46,0.37
			c0.22,0.23,0.38,0.47,0.46,0.72c0.09,0.26,0.12,0.51,0.11,0.77c-0.02,0.26-0.07,0.52-0.17,0.77c-0.1,0.26-0.22,0.5-0.38,0.72
			l0.09,0.09l1.4-1.44l-0.11-0.11c-0.11,0.03-0.19,0.04-0.23,0.04c-0.04-0.01-0.09-0.04-0.16-0.11c-0.07-0.07-0.13-0.16-0.17-0.27
			c-0.04-0.1-0.08-0.22-0.13-0.35c-0.05-0.13-0.12-0.27-0.21-0.43c-0.09-0.16-0.22-0.33-0.41-0.52c-0.25-0.26-0.51-0.45-0.8-0.58
			c-0.29-0.13-0.58-0.2-0.88-0.2c-0.29,0-0.58,0.05-0.86,0.17c-0.28,0.12-0.54,0.3-0.77,0.54c-0.35,0.37-0.53,0.77-0.53,1.21
			c0,0.19,0.03,0.4,0.09,0.62c-0.15-0.09-0.29-0.17-0.44-0.23c-0.21-0.07-0.39-0.13-0.52-0.18l-1.32-0.42
			c-0.19-0.06-0.38-0.13-0.56-0.21c-0.19-0.08-0.35-0.18-0.51-0.29c-0.15-0.12-0.27-0.26-0.37-0.43c-0.09-0.17-0.14-0.38-0.14-0.61
			c0-0.3,0.06-0.55,0.18-0.74c0.12-0.2,0.27-0.35,0.45-0.47c0.18-0.12,0.38-0.21,0.59-0.25c0.21-0.05,0.4-0.07,0.58-0.07
			c0.31,0,0.59,0.05,0.82,0.18c0.24,0.11,0.44,0.27,0.61,0.46c0.17,0.19,0.31,0.42,0.41,0.67c0.11,0.25,0.18,0.52,0.23,0.78h0.13
			v-2.04h-0.15c-0.06,0.1-0.1,0.17-0.14,0.2c-0.03,0.02-0.1,0.04-0.19,0.04c-0.1,0-0.2-0.02-0.3-0.07c-0.1-0.05-0.21-0.09-0.33-0.15
			c-0.13-0.06-0.27-0.1-0.44-0.15c-0.17-0.04-0.38-0.06-0.64-0.06c-0.35,0-0.67,0.06-0.97,0.18c-0.29,0.12-0.55,0.29-0.76,0.5
			c-0.21,0.21-0.38,0.46-0.49,0.75c-0.11,0.29-0.17,0.61-0.17,0.94c0,0.52,0.15,0.93,0.45,1.24c0.13,0.13,0.3,0.26,0.49,0.37
			c-0.16,0.04-0.32,0.09-0.47,0.16c-0.2,0.1-0.36,0.19-0.49,0.26l-1.23,0.66c-0.18,0.1-0.36,0.19-0.54,0.27
			c-0.18,0.08-0.37,0.13-0.55,0.16c-0.19,0.03-0.37,0.01-0.55-0.04c-0.18-0.05-0.36-0.16-0.52-0.33c-0.21-0.21-0.33-0.43-0.38-0.66
			c-0.05-0.23-0.05-0.45,0-0.67c0.04-0.22,0.13-0.42,0.24-0.61c0.12-0.19,0.24-0.35,0.36-0.48c0.22-0.23,0.46-0.39,0.7-0.48
			c0.25-0.09,0.5-0.13,0.75-0.12c0.25,0.01,0.49,0.07,0.74,0.17c0.25,0.1,0.48,0.23,0.69,0.39l0.09-0.1l-1.4-1.44l-0.11,0.11
			c0.03,0.12,0.04,0.19,0.04,0.24c-0.01,0.04-0.04,0.1-0.11,0.17c-0.07,0.07-0.16,0.13-0.26,0.17c-0.1,0.04-0.21,0.08-0.34,0.14
			c-0.13,0.05-0.26,0.12-0.42,0.21c-0.15,0.09-0.32,0.24-0.49,0.42c-0.25,0.25-0.44,0.53-0.56,0.83c-0.13,0.3-0.19,0.61-0.2,0.91
			c0,0.3,0.05,0.6,0.17,0.89c0.11,0.29,0.29,0.55,0.52,0.8c0.36,0.37,0.75,0.55,1.17,0.55c0.19,0,0.39-0.03,0.6-0.09
			c-0.09,0.15-0.16,0.3-0.22,0.45c-0.07,0.22-0.13,0.4-0.17,0.54l-0.42,1.37c-0.06,0.19-0.12,0.39-0.2,0.58
			c-0.08,0.19-0.17,0.37-0.29,0.52c-0.11,0.15-0.25,0.28-0.41,0.38c-0.16,0.1-0.36,0.14-0.59,0.14c-0.29,0-0.53-0.06-0.72-0.18
			c-0.19-0.13-0.34-0.28-0.46-0.47c-0.11-0.19-0.2-0.39-0.24-0.61c-0.05-0.22-0.07-0.42-0.07-0.6c0-0.32,0.06-0.61,0.17-0.85
			c0.11-0.24,0.26-0.45,0.45-0.63c0.19-0.17,0.4-0.31,0.65-0.42c0.24-0.11,0.49-0.19,0.76-0.23v-0.14h-1.98v0.16
			c0.1,0.06,0.17,0.11,0.19,0.14c0.03,0.03,0.04,0.1,0.04,0.2c0,0.1-0.02,0.21-0.06,0.31c-0.05,0.1-0.09,0.22-0.15,0.34
			c-0.05,0.13-0.1,0.28-0.15,0.46c-0.04,0.18-0.07,0.4-0.07,0.66c0,0.36,0.06,0.69,0.18,1c0.12,0.3,0.28,0.57,0.48,0.78
			c0.21,0.22,0.45,0.39,0.73,0.51c0.28,0.12,0.58,0.18,0.91,0.18c0.5,0,0.9-0.16,1.2-0.47c0.13-0.14,0.25-0.31,0.36-0.5
			c0.04,0.17,0.09,0.33,0.16,0.48c0.1,0.21,0.18,0.38,0.25,0.51l0.64,1.27c0.09,0.18,0.18,0.36,0.25,0.56
			c0.08,0.19,0.13,0.38,0.15,0.57c0.03,0.19,0.02,0.38-0.03,0.57c-0.05,0.19-0.16,0.37-0.32,0.54c-0.21,0.21-0.42,0.35-0.64,0.4
			c-0.22,0.05-0.43,0.05-0.64,0c-0.21-0.05-0.41-0.13-0.59-0.25c-0.18-0.12-0.33-0.24-0.46-0.37c-0.22-0.23-0.38-0.47-0.46-0.73
			c-0.09-0.26-0.13-0.51-0.11-0.77c0.01-0.26,0.07-0.52,0.17-0.77c0.1-0.25,0.22-0.49,0.38-0.72l-0.09-0.1l-1.4,1.44l0.11,0.11
			c0.11-0.03,0.19-0.04,0.23-0.04c0.04,0.01,0.1,0.04,0.17,0.11c0.07,0.07,0.13,0.16,0.16,0.27c0.04,0.1,0.08,0.22,0.13,0.35
			c0.05,0.13,0.11,0.28,0.21,0.43c0.09,0.16,0.22,0.33,0.41,0.51c0.25,0.26,0.52,0.45,0.81,0.58c0.29,0.13,0.58,0.2,0.88,0.2
			c0.29,0.01,0.58-0.05,0.86-0.17c0.28-0.12,0.54-0.3,0.77-0.54c0.35-0.37,0.53-0.77,0.53-1.21c0-0.19-0.03-0.4-0.09-0.62
			c0.15,0.09,0.29,0.17,0.44,0.22c0.21,0.07,0.39,0.14,0.52,0.18l1.32,0.43c0.19,0.06,0.38,0.13,0.57,0.21
			c0.18,0.08,0.35,0.18,0.5,0.3c0.15,0.11,0.27,0.26,0.37,0.42c0.1,0.17,0.14,0.38,0.14,0.62c0,0.3-0.06,0.55-0.18,0.75
			c-0.12,0.2-0.27,0.35-0.45,0.47c-0.18,0.12-0.38,0.21-0.59,0.26c-0.21,0.05-0.4,0.07-0.58,0.07c-0.31,0-0.59-0.06-0.82-0.17
			c-0.24-0.12-0.44-0.27-0.61-0.47c-0.17-0.19-0.31-0.41-0.41-0.67c-0.1-0.25-0.18-0.51-0.22-0.78h-0.13v2.04h0.15
			c0.06-0.11,0.1-0.17,0.14-0.2c0.03-0.03,0.1-0.04,0.19-0.04c0.1,0,0.21,0.02,0.3,0.07c0.1,0.05,0.21,0.1,0.34,0.15
			c0.12,0.06,0.27,0.11,0.44,0.15c0.17,0.05,0.38,0.06,0.64,0.06c0.35,0,0.67-0.06,0.97-0.18c0.3-0.12,0.55-0.28,0.76-0.5
			c0.21-0.21,0.37-0.46,0.49-0.75c0.11-0.29,0.17-0.6,0.17-0.94c0-0.51-0.15-0.93-0.45-1.24c-0.14-0.14-0.3-0.26-0.49-0.37
			c0.17-0.04,0.32-0.09,0.46-0.16c0.2-0.1,0.37-0.19,0.5-0.25l1.23-0.66c0.17-0.1,0.36-0.18,0.54-0.26
			c0.18-0.08,0.37-0.13,0.56-0.16c0.19-0.03,0.37-0.01,0.55,0.04c0.18,0.05,0.35,0.16,0.52,0.33c0.21,0.21,0.33,0.43,0.38,0.66
			c0.05,0.23,0.05,0.45,0,0.67c-0.04,0.22-0.13,0.42-0.24,0.61c-0.12,0.19-0.24,0.35-0.36,0.47c-0.22,0.23-0.46,0.39-0.7,0.48
			c-0.25,0.09-0.49,0.13-0.75,0.11c-0.25-0.01-0.5-0.07-0.75-0.17c-0.25-0.1-0.48-0.23-0.69-0.39l-0.09,0.1l1.4,1.44l0.11-0.11
			c-0.03-0.12-0.04-0.2-0.04-0.24c0-0.04,0.04-0.1,0.1-0.17c0.08-0.08,0.16-0.13,0.26-0.17c0.1-0.04,0.21-0.09,0.34-0.14
			c0.13-0.05,0.27-0.12,0.42-0.22c0.15-0.09,0.32-0.23,0.5-0.42c0.25-0.25,0.43-0.53,0.56-0.83c0.13-0.3,0.19-0.6,0.2-0.91
			c0.01-0.3-0.05-0.6-0.17-0.89c-0.12-0.29-0.29-0.55-0.52-0.79c-0.35-0.36-0.74-0.55-1.17-0.54c-0.19,0-0.39,0.04-0.6,0.09
			c0.09-0.15,0.17-0.3,0.22-0.45c0.07-0.22,0.13-0.4,0.17-0.54l0.42-1.36c0.06-0.2,0.13-0.39,0.2-0.58
			c0.08-0.19,0.17-0.37,0.29-0.52c0.11-0.15,0.25-0.28,0.42-0.38c0.16-0.1,0.36-0.15,0.59-0.15c0.29,0,0.53,0.06,0.72,0.19
			c0.19,0.12,0.34,0.28,0.46,0.47c0.12,0.19,0.2,0.39,0.24,0.61c0.05,0.22,0.07,0.42,0.07,0.6c0,0.32-0.06,0.61-0.17,0.85
			c-0.11,0.24-0.26,0.45-0.45,0.62c-0.19,0.17-0.4,0.31-0.65,0.42c-0.24,0.11-0.5,0.19-0.76,0.23v0.13h1.98v-0.16
			c-0.1-0.06-0.17-0.11-0.19-0.14c-0.03-0.04-0.04-0.1-0.04-0.2c0-0.1,0.02-0.21,0.06-0.31
			C-628.93-1460.12-628.88-1460.23-628.83-1460.36z M-634.17-1462.94c0.1-0.23,0.15-0.48,0.18-0.73l0.07,0.15
			c0.08,0.14,0.14,0.31,0.21,0.49c0.06,0.18,0.1,0.37,0.11,0.57c0.01,0.12,0,0.24-0.02,0.37l-0.64-0.66
			C-634.22-1462.81-634.2-1462.87-634.17-1462.94z M-634.82-1463.27c0,0.18-0.03,0.38-0.09,0.59c-0.01,0.03-0.02,0.06-0.03,0.09
			c-0.08,0.06-0.17,0.13-0.29,0.19c-0.16,0.08-0.3,0.16-0.44,0.23c-0.11,0.06-0.21,0.13-0.3,0.19c-0.09,0.06-0.17,0.12-0.25,0.19
			c-0.08,0.06-0.17,0.13-0.25,0.22c-0.04,0.04-0.08,0.08-0.13,0.13h-0.01v-0.01c0.22-0.26,0.4-0.53,0.51-0.83
			c0.14-0.34,0.21-0.68,0.22-1.01c0.16-0.15,0.38-0.29,0.63-0.41c0.1-0.05,0.2-0.09,0.32-0.14
			C-634.85-1463.67-634.82-1463.48-634.82-1463.27z M-635.24-1462.04c-0.14,0.17-0.33,0.31-0.56,0.42
			c-0.15,0.07-0.33,0.12-0.54,0.15c0.01-0.01,0.01-0.01,0.02-0.02c0.11-0.11,0.25-0.21,0.4-0.3c0.15-0.09,0.32-0.17,0.51-0.22
			C-635.36-1462.03-635.3-1462.03-635.24-1462.04z M-636.59-1461.72v-0.02c0.01-0.16,0.03-0.33,0.08-0.51
			c0.04-0.18,0.11-0.35,0.21-0.52c0.03-0.05,0.06-0.1,0.1-0.15c0.02,0.23-0.02,0.46-0.1,0.71
			C-636.37-1462.05-636.46-1461.89-636.59-1461.72z M-636.28-1464.94c0.15,0.05,0.32,0.11,0.48,0.19c0.17,0.08,0.33,0.19,0.47,0.32
			c0.09,0.08,0.17,0.18,0.24,0.28h-0.91c-0.02-0.06-0.04-0.13-0.06-0.19c-0.09-0.23-0.22-0.45-0.38-0.65L-636.28-1464.94z
			 M-637.34-1464.1c0.04-0.1,0.08-0.22,0.14-0.33c0.16,0.07,0.31,0.18,0.45,0.33c0.12,0.13,0.24,0.29,0.34,0.48
			c0.02,0.03,0.03,0.06,0.04,0.09c-0.01,0.1-0.03,0.22-0.08,0.34c-0.06,0.17-0.11,0.34-0.15,0.49c-0.04,0.13-0.06,0.24-0.08,0.35
			c-0.02,0.1-0.03,0.21-0.05,0.31c-0.01,0.11-0.02,0.22-0.03,0.34c0,0.06,0,0.12-0.01,0.18c0,0,0,0,0,0.01c0-0.01,0-0.01-0.01-0.01
			c-0.02-0.35-0.09-0.67-0.2-0.96c-0.13-0.34-0.32-0.63-0.54-0.87C-637.48-1463.58-637.43-1463.83-637.34-1464.1z M-636.93-1461.71
			c-0.01-0.01-0.01-0.01-0.02-0.02c-0.1-0.12-0.2-0.26-0.29-0.41c-0.09-0.16-0.16-0.33-0.21-0.52c-0.01-0.05-0.02-0.11-0.03-0.17
			c0.16,0.15,0.29,0.34,0.4,0.57C-637.01-1462.11-636.96-1461.92-636.93-1461.71z M-638.92-1464.21c0.14-0.08,0.29-0.15,0.47-0.22
			c0.18-0.07,0.36-0.1,0.56-0.12c0.12,0,0.24,0,0.36,0.02l-0.64,0.66c-0.06-0.03-0.12-0.06-0.18-0.08c-0.23-0.1-0.46-0.16-0.71-0.18
			L-638.92-1464.21z M-638.67-1463.28c0.17,0,0.37,0.03,0.57,0.09c0.03,0.01,0.06,0.02,0.09,0.03c0.06,0.08,0.12,0.18,0.18,0.29
			c0.08,0.17,0.15,0.32,0.22,0.46c0.06,0.12,0.13,0.22,0.18,0.31c0.06,0.09,0.12,0.18,0.18,0.26c0.07,0.08,0.13,0.17,0.21,0.26
			c0.04,0.04,0.08,0.08,0.12,0.13v0h0c-0.26-0.23-0.52-0.41-0.81-0.53c-0.33-0.14-0.65-0.21-0.97-0.22c-0.15-0.17-0.28-0.4-0.4-0.66
			c-0.05-0.1-0.09-0.21-0.13-0.33C-639.06-1463.25-638.88-1463.28-638.67-1463.28z M-637.17-1461.45h-0.02
			c-0.16-0.01-0.32-0.03-0.49-0.08c-0.17-0.04-0.34-0.11-0.51-0.21c-0.05-0.03-0.1-0.06-0.15-0.1c0.22-0.02,0.45,0.02,0.69,0.11
			C-637.5-1461.68-637.34-1461.58-637.17-1461.45z M-640.34-1461.61l0.04-0.15c0.04-0.16,0.11-0.32,0.19-0.5
			c0.08-0.18,0.18-0.34,0.31-0.49c0.07-0.09,0.17-0.17,0.27-0.24v0.94c-0.06,0.02-0.12,0.04-0.19,0.07
			C-639.94-1461.9-640.15-1461.77-640.34-1461.61z M-639.34-1459.63c-0.09,0.23-0.15,0.48-0.18,0.73l-0.07-0.15
			c-0.08-0.14-0.15-0.31-0.21-0.49c-0.07-0.19-0.11-0.38-0.12-0.57c-0.01-0.12,0.01-0.24,0.02-0.37l0.64,0.66
			C-639.28-1459.75-639.31-1459.69-639.34-1459.63z M-639.48-1460.68c-0.1-0.04-0.21-0.08-0.32-0.14c0.07-0.16,0.17-0.32,0.32-0.47
			c0.12-0.13,0.28-0.25,0.47-0.36c0.03-0.02,0.05-0.03,0.08-0.04c0.1,0.01,0.21,0.03,0.33,0.08c0.17,0.06,0.33,0.11,0.47,0.16
			c0.12,0.04,0.24,0.07,0.34,0.09c0.1,0.02,0.2,0.03,0.31,0.05c0.1,0.01,0.21,0.02,0.33,0.03c0.05,0,0.11,0,0.18,0.01
			c0,0,0,0,0.01,0.01c0,0-0.01,0-0.01,0c-0.34,0.02-0.65,0.09-0.93,0.21c-0.33,0.14-0.61,0.32-0.84,0.55
			C-638.97-1460.52-639.21-1460.58-639.48-1460.68z M-637.17-1461.09c0,0.01-0.01,0.01-0.02,0.01c-0.12,0.11-0.25,0.21-0.4,0.31
			c-0.15,0.09-0.32,0.16-0.51,0.22c-0.05,0.01-0.11,0.02-0.17,0.03c0.14-0.17,0.33-0.31,0.55-0.42
			C-637.55-1461.02-637.37-1461.07-637.17-1461.09z M-638.69-1459.3c0-0.18,0.03-0.38,0.08-0.59c0.01-0.03,0.02-0.06,0.03-0.09
			c0.08-0.06,0.17-0.13,0.29-0.19c0.16-0.08,0.31-0.16,0.44-0.23c0.12-0.07,0.22-0.12,0.3-0.19c0.09-0.06,0.17-0.12,0.25-0.19
			c0.08-0.06,0.17-0.14,0.25-0.22c0.04-0.04,0.08-0.08,0.13-0.13h0.01v0.01c-0.22,0.26-0.4,0.53-0.51,0.83
			c-0.13,0.34-0.2,0.67-0.21,1.01c-0.17,0.15-0.38,0.28-0.64,0.41c-0.1,0.05-0.21,0.09-0.32,0.13
			C-638.65-1458.9-638.69-1459.08-638.69-1459.3z M-636.91-1460.85v0.02c-0.01,0.17-0.04,0.34-0.08,0.51
			c-0.04,0.18-0.11,0.35-0.21,0.53c-0.03,0.05-0.06,0.1-0.1,0.15c-0.02-0.22,0.02-0.46,0.11-0.71
			C-637.14-1460.51-637.04-1460.68-636.91-1460.85z M-637.22-1457.63c-0.15-0.05-0.31-0.11-0.49-0.19
			c-0.17-0.08-0.33-0.19-0.47-0.32c-0.09-0.08-0.17-0.18-0.24-0.28h0.9c0.02,0.06,0.04,0.13,0.07,0.19c0.1,0.23,0.22,0.45,0.38,0.65
			L-637.22-1457.63z M-636.17-1458.46c-0.04,0.1-0.08,0.21-0.14,0.33c-0.16-0.07-0.31-0.18-0.45-0.33
			c-0.13-0.13-0.24-0.29-0.34-0.48c-0.01-0.03-0.03-0.06-0.04-0.09c0.01-0.1,0.03-0.21,0.08-0.34c0.06-0.17,0.11-0.33,0.15-0.49
			c0.03-0.13,0.06-0.24,0.08-0.35c0.02-0.1,0.04-0.21,0.05-0.31c0.01-0.1,0.02-0.22,0.03-0.34c0-0.06,0-0.12,0-0.19c0,0,0,0,0,0
			c0.01,0,0.01,0,0.01,0.01c0.02,0.35,0.09,0.67,0.2,0.96c0.14,0.34,0.31,0.63,0.54,0.87
			C-636.02-1458.99-636.07-1458.74-636.17-1458.46z M-636.57-1460.85c0.01,0.01,0.01,0.01,0.01,0.02c0.11,0.12,0.2,0.26,0.3,0.41
			c0.09,0.16,0.16,0.33,0.21,0.52c0.02,0.05,0.02,0.11,0.03,0.17c-0.16-0.15-0.3-0.34-0.41-0.57
			C-636.5-1460.46-636.54-1460.65-636.57-1460.85z M-634.58-1458.36c-0.14,0.08-0.3,0.16-0.48,0.22c-0.18,0.07-0.36,0.1-0.56,0.12
			c-0.12,0.01-0.24,0-0.35-0.02l0.64-0.66c0.06,0.03,0.11,0.06,0.17,0.08c0.23,0.1,0.47,0.16,0.71,0.19L-634.58-1458.36z
			 M-634.83-1459.29c-0.17,0-0.36-0.03-0.57-0.09c-0.03-0.01-0.06-0.02-0.09-0.03c-0.06-0.08-0.12-0.18-0.18-0.3
			c-0.08-0.16-0.15-0.31-0.22-0.45c-0.06-0.12-0.12-0.22-0.18-0.31c-0.06-0.09-0.12-0.17-0.18-0.26c-0.06-0.09-0.13-0.17-0.21-0.26
			c-0.03-0.04-0.08-0.09-0.12-0.13v-0.01c0,0,0.01,0,0.01,0c0.25,0.23,0.52,0.41,0.8,0.53c0.33,0.14,0.66,0.21,0.98,0.22
			c0.14,0.18,0.28,0.4,0.4,0.66c0.05,0.1,0.09,0.21,0.13,0.33C-634.44-1459.32-634.62-1459.29-634.83-1459.29z M-636.33-1461.11
			h0.02c0.16,0.01,0.32,0.03,0.49,0.07c0.17,0.05,0.34,0.12,0.51,0.22c0.05,0.03,0.1,0.06,0.15,0.1c-0.22,0.02-0.45-0.02-0.69-0.11
			C-636.01-1460.89-636.17-1460.99-636.33-1461.11z M-634.49-1460.92c-0.03,0.01-0.05,0.03-0.08,0.04c-0.1-0.01-0.21-0.04-0.33-0.08
			c-0.17-0.06-0.32-0.11-0.47-0.15c-0.12-0.04-0.24-0.07-0.34-0.09c-0.1-0.02-0.2-0.04-0.31-0.05c-0.1-0.01-0.21-0.02-0.33-0.02
			c-0.05,0-0.11-0.01-0.18-0.01c0,0,0,0,0,0c0,0,0-0.01,0-0.01c0.34-0.02,0.65-0.09,0.93-0.21c0.33-0.14,0.61-0.33,0.84-0.56
			c0.22,0.02,0.47,0.07,0.73,0.17c0.1,0.04,0.21,0.09,0.32,0.14c-0.07,0.16-0.17,0.32-0.32,0.47
			C-634.15-1461.15-634.3-1461.03-634.49-1460.92z M-633.21-1460.8c-0.04,0.16-0.11,0.32-0.19,0.5c-0.08,0.18-0.18,0.34-0.31,0.49
			c-0.08,0.09-0.17,0.17-0.26,0.24v-0.93c0.06-0.02,0.12-0.04,0.18-0.07c0.23-0.1,0.43-0.23,0.63-0.39L-633.21-1460.8z"/>
	</defs>
	<use xlink:href="#SVGID_5_"  style="overflow:visible;fill-rule:evenodd;clip-rule:evenodd;fill:#980B2C;"/>
	<clipPath id="SVGID_6_">
		<use xlink:href="#SVGID_5_"  style="overflow:visible;"/>
	</clipPath>
	<g class="st2">
		<defs>
			<rect id="SVGID_7_" x="-699" y="-1504" width="1440" height="3550"/>
		</defs>
		<use xlink:href="#SVGID_7_"  style="overflow:visible;fill:#980B2C;"/>
		<clipPath id="SVGID_8_">
			<use xlink:href="#SVGID_7_"  style="overflow:visible;"/>
		</clipPath>
		<rect x="-645.89" y="-1470.69" class="st3" width="18.28" height="18.81"/>
	</g>
</g>
<g>
	<defs>
		<path id="SVGID_9_" d="M-636.76-1472.95c-6.29,0-11.4,5.27-11.4,11.78c0,6.51,5.1,11.78,11.4,11.78c6.3,0,11.4-5.27,11.4-11.78
			C-625.35-1467.68-630.45-1472.95-636.76-1472.95 M-636.76-1449.84c-6.06,0-10.97-5.08-10.97-11.34c0-6.26,4.91-11.33,10.97-11.33
			c6.06,0,10.98,5.07,10.98,11.33C-625.78-1454.91-630.69-1449.84-636.76-1449.84"/>
	</defs>
	<use xlink:href="#SVGID_9_"  style="overflow:visible;fill-rule:evenodd;clip-rule:evenodd;fill:#980B2C;"/>
	<clipPath id="SVGID_10_">
		<use xlink:href="#SVGID_9_"  style="overflow:visible;"/>
	</clipPath>
	<g class="st4">
		<defs>
			<rect id="SVGID_11_" x="-699" y="-1504" width="1440" height="3550"/>
		</defs>
		<use xlink:href="#SVGID_11_"  style="overflow:visible;fill:#980B2C;"/>
		<clipPath id="SVGID_12_">
			<use xlink:href="#SVGID_11_"  style="overflow:visible;"/>
		</clipPath>
		<rect x="-649.15" y="-1473.95" class="st5" width="24.8" height="25.56"/>
	</g>
</g>
<g>
	<defs>
		<path id="SVGID_13_" d="M-628.83-1460.36c0.06-0.13,0.1-0.28,0.15-0.46c0.04-0.17,0.07-0.4,0.07-0.66c0-0.36-0.06-0.69-0.17-1
			c-0.12-0.3-0.28-0.57-0.48-0.79c-0.2-0.22-0.44-0.39-0.72-0.51c-0.28-0.12-0.59-0.18-0.91-0.18c-0.5,0-0.9,0.16-1.2,0.47
			c-0.13,0.14-0.25,0.31-0.36,0.51c-0.04-0.17-0.08-0.33-0.16-0.48c-0.09-0.21-0.18-0.38-0.24-0.51l-0.64-1.27
			c-0.09-0.18-0.18-0.37-0.26-0.56c-0.08-0.19-0.13-0.38-0.15-0.57c-0.03-0.2-0.01-0.38,0.04-0.57c0.05-0.19,0.16-0.37,0.32-0.54
			c0.21-0.21,0.42-0.34,0.64-0.39c0.22-0.05,0.43-0.05,0.64-0.01c0.21,0.05,0.41,0.13,0.59,0.25c0.18,0.12,0.34,0.24,0.46,0.37
			c0.22,0.23,0.38,0.47,0.46,0.72c0.09,0.26,0.12,0.51,0.11,0.77c-0.02,0.26-0.07,0.52-0.17,0.77c-0.1,0.26-0.22,0.5-0.38,0.72
			l0.09,0.09l1.4-1.44l-0.11-0.11c-0.11,0.03-0.19,0.04-0.23,0.04c-0.04-0.01-0.09-0.04-0.16-0.11c-0.07-0.07-0.13-0.16-0.17-0.27
			c-0.04-0.1-0.08-0.22-0.13-0.35c-0.05-0.13-0.12-0.27-0.21-0.43c-0.09-0.16-0.22-0.33-0.41-0.52c-0.25-0.26-0.51-0.45-0.8-0.58
			c-0.29-0.13-0.58-0.2-0.88-0.2c-0.29,0-0.58,0.05-0.86,0.17c-0.28,0.12-0.54,0.3-0.77,0.54c-0.35,0.37-0.53,0.77-0.53,1.21
			c0,0.19,0.03,0.4,0.09,0.62c-0.15-0.09-0.29-0.17-0.44-0.23c-0.21-0.07-0.39-0.13-0.52-0.18l-1.32-0.42
			c-0.19-0.06-0.38-0.13-0.56-0.21c-0.19-0.08-0.35-0.18-0.51-0.29c-0.15-0.12-0.27-0.26-0.37-0.43c-0.09-0.17-0.14-0.38-0.14-0.61
			c0-0.3,0.06-0.55,0.18-0.74c0.12-0.2,0.27-0.35,0.45-0.47c0.18-0.12,0.38-0.21,0.59-0.25c0.21-0.05,0.4-0.07,0.58-0.07
			c0.31,0,0.59,0.05,0.82,0.18c0.24,0.11,0.44,0.27,0.61,0.46c0.17,0.19,0.31,0.42,0.41,0.67c0.11,0.25,0.18,0.52,0.23,0.78h0.13
			v-2.04h-0.15c-0.06,0.1-0.1,0.17-0.14,0.2c-0.03,0.02-0.1,0.04-0.19,0.04c-0.1,0-0.2-0.02-0.3-0.07c-0.1-0.05-0.21-0.09-0.33-0.15
			c-0.13-0.06-0.27-0.1-0.44-0.15c-0.17-0.04-0.38-0.06-0.64-0.06c-0.35,0-0.67,0.06-0.97,0.18c-0.29,0.12-0.55,0.29-0.76,0.5
			c-0.21,0.21-0.38,0.46-0.49,0.75c-0.11,0.29-0.17,0.61-0.17,0.94c0,0.52,0.15,0.93,0.45,1.24c0.13,0.13,0.3,0.26,0.49,0.37
			c-0.16,0.04-0.32,0.09-0.47,0.16c-0.2,0.1-0.36,0.19-0.49,0.26l-1.23,0.66c-0.18,0.1-0.36,0.19-0.54,0.27
			c-0.18,0.08-0.37,0.13-0.55,0.16c-0.19,0.03-0.37,0.01-0.55-0.04c-0.18-0.05-0.36-0.16-0.52-0.33c-0.21-0.21-0.33-0.43-0.38-0.66
			c-0.05-0.23-0.05-0.45,0-0.67c0.04-0.22,0.13-0.42,0.24-0.61c0.12-0.19,0.24-0.35,0.36-0.48c0.22-0.23,0.46-0.39,0.7-0.48
			c0.25-0.09,0.5-0.13,0.75-0.12c0.25,0.01,0.49,0.07,0.74,0.17c0.25,0.1,0.48,0.23,0.69,0.39l0.09-0.1l-1.4-1.44l-0.11,0.11
			c0.03,0.12,0.04,0.19,0.04,0.24c-0.01,0.04-0.04,0.1-0.11,0.17c-0.07,0.07-0.16,0.13-0.26,0.17c-0.1,0.04-0.21,0.08-0.34,0.14
			c-0.13,0.05-0.26,0.12-0.42,0.21c-0.15,0.09-0.32,0.24-0.49,0.42c-0.25,0.25-0.44,0.53-0.56,0.83c-0.13,0.3-0.19,0.61-0.2,0.91
			c0,0.3,0.05,0.6,0.17,0.89c0.11,0.29,0.29,0.55,0.52,0.8c0.36,0.37,0.75,0.55,1.17,0.55c0.19,0,0.39-0.03,0.6-0.09
			c-0.09,0.15-0.16,0.3-0.22,0.45c-0.07,0.22-0.13,0.4-0.17,0.54l-0.42,1.37c-0.06,0.19-0.12,0.39-0.2,0.58
			c-0.08,0.19-0.17,0.37-0.29,0.52c-0.11,0.15-0.25,0.28-0.41,0.38c-0.16,0.1-0.36,0.14-0.59,0.14c-0.29,0-0.53-0.06-0.72-0.18
			c-0.19-0.13-0.34-0.28-0.46-0.47c-0.11-0.19-0.2-0.39-0.24-0.61c-0.05-0.22-0.07-0.42-0.07-0.6c0-0.32,0.06-0.61,0.17-0.85
			c0.11-0.24,0.26-0.45,0.45-0.63c0.19-0.17,0.4-0.31,0.65-0.42c0.24-0.11,0.49-0.19,0.76-0.23v-0.14h-1.98v0.16
			c0.1,0.06,0.17,0.11,0.19,0.14c0.03,0.03,0.04,0.1,0.04,0.2c0,0.1-0.02,0.21-0.06,0.31c-0.05,0.1-0.09,0.22-0.15,0.34
			c-0.05,0.13-0.1,0.28-0.15,0.46c-0.04,0.18-0.07,0.4-0.07,0.66c0,0.36,0.06,0.69,0.18,1c0.12,0.3,0.28,0.57,0.48,0.78
			c0.21,0.22,0.45,0.39,0.73,0.51c0.28,0.12,0.58,0.18,0.91,0.18c0.5,0,0.9-0.16,1.2-0.47c0.13-0.14,0.25-0.31,0.36-0.5
			c0.04,0.17,0.09,0.33,0.16,0.48c0.1,0.21,0.18,0.38,0.25,0.51l0.64,1.27c0.09,0.18,0.18,0.36,0.25,0.56
			c0.08,0.19,0.13,0.38,0.15,0.57c0.03,0.19,0.02,0.38-0.03,0.57c-0.05,0.19-0.16,0.37-0.32,0.54c-0.21,0.21-0.42,0.35-0.64,0.4
			c-0.22,0.05-0.43,0.05-0.64,0c-0.21-0.05-0.41-0.13-0.59-0.25c-0.18-0.12-0.33-0.24-0.46-0.37c-0.22-0.23-0.38-0.47-0.46-0.73
			c-0.09-0.26-0.13-0.51-0.11-0.77c0.01-0.26,0.07-0.52,0.17-0.77c0.1-0.25,0.22-0.49,0.38-0.72l-0.09-0.1l-1.4,1.44l0.11,0.11
			c0.11-0.03,0.19-0.04,0.23-0.04c0.04,0.01,0.1,0.04,0.17,0.11c0.07,0.07,0.13,0.16,0.16,0.27c0.04,0.1,0.08,0.22,0.13,0.35
			c0.05,0.13,0.11,0.28,0.21,0.43c0.09,0.16,0.22,0.33,0.41,0.51c0.25,0.26,0.52,0.45,0.81,0.58c0.29,0.13,0.58,0.2,0.88,0.2
			c0.29,0.01,0.58-0.05,0.86-0.17c0.28-0.12,0.54-0.3,0.77-0.54c0.35-0.37,0.53-0.77,0.53-1.21c0-0.19-0.03-0.4-0.09-0.62
			c0.15,0.09,0.29,0.17,0.44,0.22c0.21,0.07,0.39,0.14,0.52,0.18l1.32,0.43c0.19,0.06,0.38,0.13,0.57,0.21
			c0.18,0.08,0.35,0.18,0.5,0.3c0.15,0.11,0.27,0.26,0.37,0.42c0.1,0.17,0.14,0.38,0.14,0.62c0,0.3-0.06,0.55-0.18,0.75
			c-0.12,0.2-0.27,0.35-0.45,0.47c-0.18,0.12-0.38,0.21-0.59,0.26c-0.21,0.05-0.4,0.07-0.58,0.07c-0.31,0-0.59-0.06-0.82-0.17
			c-0.24-0.12-0.44-0.27-0.61-0.47c-0.17-0.19-0.31-0.41-0.41-0.67c-0.1-0.25-0.18-0.51-0.22-0.78h-0.13v2.04h0.15
			c0.06-0.11,0.1-0.17,0.14-0.2c0.03-0.03,0.1-0.04,0.19-0.04c0.1,0,0.21,0.02,0.3,0.07c0.1,0.05,0.21,0.1,0.34,0.15
			c0.12,0.06,0.27,0.11,0.44,0.15c0.17,0.05,0.38,0.06,0.64,0.06c0.35,0,0.67-0.06,0.97-0.18c0.3-0.12,0.55-0.28,0.76-0.5
			c0.21-0.21,0.37-0.46,0.49-0.75c0.11-0.29,0.17-0.6,0.17-0.94c0-0.51-0.15-0.93-0.45-1.24c-0.14-0.14-0.3-0.26-0.49-0.37
			c0.17-0.04,0.32-0.09,0.46-0.16c0.2-0.1,0.37-0.19,0.5-0.25l1.23-0.66c0.17-0.1,0.36-0.18,0.54-0.26
			c0.18-0.08,0.37-0.13,0.56-0.16c0.19-0.03,0.37-0.01,0.55,0.04c0.18,0.05,0.35,0.16,0.52,0.33c0.21,0.21,0.33,0.43,0.38,0.66
			c0.05,0.23,0.05,0.45,0,0.67c-0.04,0.22-0.13,0.42-0.24,0.61c-0.12,0.19-0.24,0.35-0.36,0.47c-0.22,0.23-0.46,0.39-0.7,0.48
			c-0.25,0.09-0.49,0.13-0.75,0.11c-0.25-0.01-0.5-0.07-0.75-0.17c-0.25-0.1-0.48-0.23-0.69-0.39l-0.09,0.1l1.4,1.44l0.11-0.11
			c-0.03-0.12-0.04-0.2-0.04-0.24c0-0.04,0.04-0.1,0.1-0.17c0.08-0.08,0.16-0.13,0.26-0.17c0.1-0.04,0.21-0.09,0.34-0.14
			c0.13-0.05,0.27-0.12,0.42-0.22c0.15-0.09,0.32-0.23,0.5-0.42c0.25-0.25,0.43-0.53,0.56-0.83c0.13-0.3,0.19-0.6,0.2-0.91
			c0.01-0.3-0.05-0.6-0.17-0.89c-0.12-0.29-0.29-0.55-0.52-0.79c-0.35-0.36-0.74-0.55-1.17-0.54c-0.19,0-0.39,0.04-0.6,0.09
			c0.09-0.15,0.17-0.3,0.22-0.45c0.07-0.22,0.13-0.4,0.17-0.54l0.42-1.36c0.06-0.2,0.13-0.39,0.2-0.58
			c0.08-0.19,0.17-0.37,0.29-0.52c0.11-0.15,0.25-0.28,0.42-0.38c0.16-0.1,0.36-0.15,0.59-0.15c0.29,0,0.53,0.06,0.72,0.19
			c0.19,0.12,0.34,0.28,0.46,0.47c0.12,0.19,0.2,0.39,0.24,0.61c0.05,0.22,0.07,0.42,0.07,0.6c0,0.32-0.06,0.61-0.17,0.85
			c-0.11,0.24-0.26,0.45-0.45,0.62c-0.19,0.17-0.4,0.31-0.65,0.42c-0.24,0.11-0.5,0.19-0.76,0.23v0.13h1.98v-0.16
			c-0.1-0.06-0.17-0.11-0.19-0.14c-0.03-0.04-0.04-0.1-0.04-0.2c0-0.1,0.02-0.21,0.06-0.31
			C-628.93-1460.12-628.88-1460.23-628.83-1460.36z M-634.17-1462.94c0.1-0.23,0.15-0.48,0.18-0.73l0.07,0.15
			c0.08,0.14,0.14,0.31,0.21,0.49c0.06,0.18,0.1,0.37,0.11,0.57c0.01,0.12,0,0.24-0.02,0.37l-0.64-0.66
			C-634.22-1462.81-634.2-1462.87-634.17-1462.94z M-634.82-1463.27c0,0.18-0.03,0.38-0.09,0.59c-0.01,0.03-0.02,0.06-0.03,0.09
			c-0.08,0.06-0.17,0.13-0.29,0.19c-0.16,0.08-0.3,0.16-0.44,0.23c-0.11,0.06-0.21,0.13-0.3,0.19c-0.09,0.06-0.17,0.12-0.25,0.19
			c-0.08,0.06-0.17,0.13-0.25,0.22c-0.04,0.04-0.08,0.08-0.13,0.13h-0.01v-0.01c0.22-0.26,0.4-0.53,0.51-0.83
			c0.14-0.34,0.21-0.68,0.22-1.01c0.16-0.15,0.38-0.29,0.63-0.41c0.1-0.05,0.2-0.09,0.32-0.14
			C-634.85-1463.67-634.82-1463.48-634.82-1463.27z M-635.24-1462.04c-0.14,0.17-0.33,0.31-0.56,0.42
			c-0.15,0.07-0.33,0.12-0.54,0.15c0.01-0.01,0.01-0.01,0.02-0.02c0.11-0.11,0.25-0.21,0.4-0.3c0.15-0.09,0.32-0.17,0.51-0.22
			C-635.36-1462.03-635.3-1462.03-635.24-1462.04z M-636.59-1461.72v-0.02c0.01-0.16,0.03-0.33,0.08-0.51
			c0.04-0.18,0.11-0.35,0.21-0.52c0.03-0.05,0.06-0.1,0.1-0.15c0.02,0.23-0.02,0.46-0.1,0.71
			C-636.37-1462.05-636.46-1461.89-636.59-1461.72z M-636.28-1464.94c0.15,0.05,0.32,0.11,0.48,0.19c0.17,0.08,0.33,0.19,0.47,0.32
			c0.09,0.08,0.17,0.18,0.24,0.28h-0.91c-0.02-0.06-0.04-0.13-0.06-0.19c-0.09-0.23-0.22-0.45-0.38-0.65L-636.28-1464.94z
			 M-637.34-1464.1c0.04-0.1,0.08-0.22,0.14-0.33c0.16,0.07,0.31,0.18,0.45,0.33c0.12,0.13,0.24,0.29,0.34,0.48
			c0.02,0.03,0.03,0.06,0.04,0.09c-0.01,0.1-0.03,0.22-0.08,0.34c-0.06,0.17-0.11,0.34-0.15,0.49c-0.04,0.13-0.06,0.24-0.08,0.35
			c-0.02,0.1-0.03,0.21-0.05,0.31c-0.01,0.11-0.02,0.22-0.03,0.34c0,0.06,0,0.12-0.01,0.18c0,0,0,0,0,0.01c0-0.01,0-0.01-0.01-0.01
			c-0.02-0.35-0.09-0.67-0.2-0.96c-0.13-0.34-0.32-0.63-0.54-0.87C-637.48-1463.58-637.43-1463.83-637.34-1464.1z M-636.93-1461.71
			c-0.01-0.01-0.01-0.01-0.02-0.02c-0.1-0.12-0.2-0.26-0.29-0.41c-0.09-0.16-0.16-0.33-0.21-0.52c-0.01-0.05-0.02-0.11-0.03-0.17
			c0.16,0.15,0.29,0.34,0.4,0.57C-637.01-1462.11-636.96-1461.92-636.93-1461.71z M-638.92-1464.21c0.14-0.08,0.29-0.15,0.47-0.22
			c0.18-0.07,0.36-0.1,0.56-0.12c0.12,0,0.24,0,0.36,0.02l-0.64,0.66c-0.06-0.03-0.12-0.06-0.18-0.08c-0.23-0.1-0.46-0.16-0.71-0.18
			L-638.92-1464.21z M-638.67-1463.28c0.17,0,0.37,0.03,0.57,0.09c0.03,0.01,0.06,0.02,0.09,0.03c0.06,0.08,0.12,0.18,0.18,0.29
			c0.08,0.17,0.15,0.32,0.22,0.46c0.06,0.12,0.13,0.22,0.18,0.31c0.06,0.09,0.12,0.18,0.18,0.26c0.07,0.08,0.13,0.17,0.21,0.26
			c0.04,0.04,0.08,0.08,0.12,0.13v0h0c-0.26-0.23-0.52-0.41-0.81-0.53c-0.33-0.14-0.65-0.21-0.97-0.22c-0.15-0.17-0.28-0.4-0.4-0.66
			c-0.05-0.1-0.09-0.21-0.13-0.33C-639.06-1463.25-638.88-1463.28-638.67-1463.28z M-637.17-1461.45h-0.02
			c-0.16-0.01-0.32-0.03-0.49-0.08c-0.17-0.04-0.34-0.11-0.51-0.21c-0.05-0.03-0.1-0.06-0.15-0.1c0.22-0.02,0.45,0.02,0.69,0.11
			C-637.5-1461.68-637.34-1461.58-637.17-1461.45z M-640.34-1461.61l0.04-0.15c0.04-0.16,0.11-0.32,0.19-0.5
			c0.08-0.18,0.18-0.34,0.31-0.49c0.07-0.09,0.17-0.17,0.27-0.24v0.94c-0.06,0.02-0.12,0.04-0.19,0.07
			C-639.94-1461.9-640.15-1461.77-640.34-1461.61z M-639.34-1459.63c-0.09,0.23-0.15,0.48-0.18,0.73l-0.07-0.15
			c-0.08-0.14-0.15-0.31-0.21-0.49c-0.07-0.19-0.11-0.38-0.12-0.57c-0.01-0.12,0.01-0.24,0.02-0.37l0.64,0.66
			C-639.28-1459.75-639.31-1459.69-639.34-1459.63z M-639.48-1460.68c-0.1-0.04-0.21-0.08-0.32-0.14c0.07-0.16,0.17-0.32,0.32-0.47
			c0.12-0.13,0.28-0.25,0.47-0.36c0.03-0.02,0.05-0.03,0.08-0.04c0.1,0.01,0.21,0.03,0.33,0.08c0.17,0.06,0.33,0.11,0.47,0.16
			c0.12,0.04,0.24,0.07,0.34,0.09c0.1,0.02,0.2,0.03,0.31,0.05c0.1,0.01,0.21,0.02,0.33,0.03c0.05,0,0.11,0,0.18,0.01
			c0,0,0,0,0.01,0.01c0,0-0.01,0-0.01,0c-0.34,0.02-0.65,0.09-0.93,0.21c-0.33,0.14-0.61,0.32-0.84,0.55
			C-638.97-1460.52-639.21-1460.58-639.48-1460.68z M-637.17-1461.09c0,0.01-0.01,0.01-0.02,0.01c-0.12,0.11-0.25,0.21-0.4,0.31
			c-0.15,0.09-0.32,0.16-0.51,0.22c-0.05,0.01-0.11,0.02-0.17,0.03c0.14-0.17,0.33-0.31,0.55-0.42
			C-637.55-1461.02-637.37-1461.07-637.17-1461.09z M-638.69-1459.3c0-0.18,0.03-0.38,0.08-0.59c0.01-0.03,0.02-0.06,0.03-0.09
			c0.08-0.06,0.17-0.13,0.29-0.19c0.16-0.08,0.31-0.16,0.44-0.23c0.12-0.07,0.22-0.12,0.3-0.19c0.09-0.06,0.17-0.12,0.25-0.19
			c0.08-0.06,0.17-0.14,0.25-0.22c0.04-0.04,0.08-0.08,0.13-0.13h0.01v0.01c-0.22,0.26-0.4,0.53-0.51,0.83
			c-0.13,0.34-0.2,0.67-0.21,1.01c-0.17,0.15-0.38,0.28-0.64,0.41c-0.1,0.05-0.21,0.09-0.32,0.13
			C-638.65-1458.9-638.69-1459.08-638.69-1459.3z M-636.91-1460.85v0.02c-0.01,0.17-0.04,0.34-0.08,0.51
			c-0.04,0.18-0.11,0.35-0.21,0.53c-0.03,0.05-0.06,0.1-0.1,0.15c-0.02-0.22,0.02-0.46,0.11-0.71
			C-637.14-1460.51-637.04-1460.68-636.91-1460.85z M-637.22-1457.63c-0.15-0.05-0.31-0.11-0.49-0.19
			c-0.17-0.08-0.33-0.19-0.47-0.32c-0.09-0.08-0.17-0.18-0.24-0.28h0.9c0.02,0.06,0.04,0.13,0.07,0.19c0.1,0.23,0.22,0.45,0.38,0.65
			L-637.22-1457.63z M-636.17-1458.46c-0.04,0.1-0.08,0.21-0.14,0.33c-0.16-0.07-0.31-0.18-0.45-0.33
			c-0.13-0.13-0.24-0.29-0.34-0.48c-0.01-0.03-0.03-0.06-0.04-0.09c0.01-0.1,0.03-0.21,0.08-0.34c0.06-0.17,0.11-0.33,0.15-0.49
			c0.03-0.13,0.06-0.24,0.08-0.35c0.02-0.1,0.04-0.21,0.05-0.31c0.01-0.1,0.02-0.22,0.03-0.34c0-0.06,0-0.12,0-0.19c0,0,0,0,0,0
			c0.01,0,0.01,0,0.01,0.01c0.02,0.35,0.09,0.67,0.2,0.96c0.14,0.34,0.31,0.63,0.54,0.87
			C-636.02-1458.99-636.07-1458.74-636.17-1458.46z M-636.57-1460.85c0.01,0.01,0.01,0.01,0.01,0.02c0.11,0.12,0.2,0.26,0.3,0.41
			c0.09,0.16,0.16,0.33,0.21,0.52c0.02,0.05,0.02,0.11,0.03,0.17c-0.16-0.15-0.3-0.34-0.41-0.57
			C-636.5-1460.46-636.54-1460.65-636.57-1460.85z M-634.58-1458.36c-0.14,0.08-0.3,0.16-0.48,0.22c-0.18,0.07-0.36,0.1-0.56,0.12
			c-0.12,0.01-0.24,0-0.35-0.02l0.64-0.66c0.06,0.03,0.11,0.06,0.17,0.08c0.23,0.1,0.47,0.16,0.71,0.19L-634.58-1458.36z
			 M-634.83-1459.29c-0.17,0-0.36-0.03-0.57-0.09c-0.03-0.01-0.06-0.02-0.09-0.03c-0.06-0.08-0.12-0.18-0.18-0.3
			c-0.08-0.16-0.15-0.31-0.22-0.45c-0.06-0.12-0.12-0.22-0.18-0.31c-0.06-0.09-0.12-0.17-0.18-0.26c-0.06-0.09-0.13-0.17-0.21-0.26
			c-0.03-0.04-0.08-0.09-0.12-0.13v-0.01c0,0,0.01,0,0.01,0c0.25,0.23,0.52,0.41,0.8,0.53c0.33,0.14,0.66,0.21,0.98,0.22
			c0.14,0.18,0.28,0.4,0.4,0.66c0.05,0.1,0.09,0.21,0.13,0.33C-634.44-1459.32-634.62-1459.29-634.83-1459.29z M-636.33-1461.11
			h0.02c0.16,0.01,0.32,0.03,0.49,0.07c0.17,0.05,0.34,0.12,0.51,0.22c0.05,0.03,0.1,0.06,0.15,0.1c-0.22,0.02-0.45-0.02-0.69-0.11
			C-636.01-1460.89-636.17-1460.99-636.33-1461.11z M-634.49-1460.92c-0.03,0.01-0.05,0.03-0.08,0.04c-0.1-0.01-0.21-0.04-0.33-0.08
			c-0.17-0.06-0.32-0.11-0.47-0.15c-0.12-0.04-0.24-0.07-0.34-0.09c-0.1-0.02-0.2-0.04-0.31-0.05c-0.1-0.01-0.21-0.02-0.33-0.02
			c-0.05,0-0.11-0.01-0.18-0.01c0,0,0,0,0,0c0,0,0-0.01,0-0.01c0.34-0.02,0.65-0.09,0.93-0.21c0.33-0.14,0.61-0.33,0.84-0.56
			c0.22,0.02,0.47,0.07,0.73,0.17c0.1,0.04,0.21,0.09,0.32,0.14c-0.07,0.16-0.17,0.32-0.32,0.47
			C-634.15-1461.15-634.3-1461.03-634.49-1460.92z M-633.21-1460.8c-0.04,0.16-0.11,0.32-0.19,0.5c-0.08,0.18-0.18,0.34-0.31,0.49
			c-0.08,0.09-0.17,0.17-0.26,0.24v-0.93c0.06-0.02,0.12-0.04,0.18-0.07c0.23-0.1,0.43-0.23,0.63-0.39L-633.21-1460.8z"/>
	</defs>
	<use xlink:href="#SVGID_13_"  style="overflow:visible;fill-rule:evenodd;clip-rule:evenodd;fill:#980B2C;"/>
	<clipPath id="SVGID_14_">
		<use xlink:href="#SVGID_13_"  style="overflow:visible;"/>
	</clipPath>
	<g class="st6">
		<defs>
			<rect id="SVGID_15_" x="-699" y="-1504" width="1440" height="3550"/>
		</defs>
		<use xlink:href="#SVGID_15_"  style="overflow:visible;fill:#980B2C;"/>
		<clipPath id="SVGID_16_">
			<use xlink:href="#SVGID_15_"  style="overflow:visible;"/>
		</clipPath>
		<rect x="-645.89" y="-1470.69" class="st7" width="18.28" height="18.81"/>
	</g>
</g>
<g>
	<defs>
		<path id="SVGID_17_" d="M-636.76-1472.95c-6.29,0-11.4,5.27-11.4,11.78c0,6.51,5.1,11.78,11.4,11.78c6.3,0,11.4-5.27,11.4-11.78
			C-625.35-1467.68-630.45-1472.95-636.76-1472.95 M-636.76-1449.84c-6.06,0-10.97-5.08-10.97-11.34c0-6.26,4.91-11.33,10.97-11.33
			c6.06,0,10.98,5.07,10.98,11.33C-625.78-1454.91-630.69-1449.84-636.76-1449.84"/>
	</defs>
	<use xlink:href="#SVGID_17_"  style="overflow:visible;fill-rule:evenodd;clip-rule:evenodd;fill:#980B2C;"/>
	<clipPath id="SVGID_18_">
		<use xlink:href="#SVGID_17_"  style="overflow:visible;"/>
	</clipPath>
	<g class="st8">
		<defs>
			<rect id="SVGID_19_" x="-699" y="-1504" width="1440" height="3550"/>
		</defs>
		<use xlink:href="#SVGID_19_"  style="overflow:visible;fill:#980B2C;"/>
		<clipPath id="SVGID_20_">
			<use xlink:href="#SVGID_19_"  style="overflow:visible;"/>
		</clipPath>
		<rect x="-649.15" y="-1473.95" class="st9" width="24.8" height="25.56"/>
	</g>
</g>
<g>
	<defs>
		<path id="SVGID_21_" d="M-628.83-1460.36c0.06-0.13,0.1-0.28,0.15-0.46c0.04-0.17,0.07-0.4,0.07-0.66c0-0.36-0.06-0.69-0.17-1
			c-0.12-0.3-0.28-0.57-0.48-0.79c-0.2-0.22-0.44-0.39-0.72-0.51c-0.28-0.12-0.59-0.18-0.91-0.18c-0.5,0-0.9,0.16-1.2,0.47
			c-0.13,0.14-0.25,0.31-0.36,0.51c-0.04-0.17-0.08-0.33-0.16-0.48c-0.09-0.21-0.18-0.38-0.24-0.51l-0.64-1.27
			c-0.09-0.18-0.18-0.37-0.26-0.56c-0.08-0.19-0.13-0.38-0.15-0.57c-0.03-0.2-0.01-0.38,0.04-0.57c0.05-0.19,0.16-0.37,0.32-0.54
			c0.21-0.21,0.42-0.34,0.64-0.39c0.22-0.05,0.43-0.05,0.64-0.01c0.21,0.05,0.41,0.13,0.59,0.25c0.18,0.12,0.34,0.24,0.46,0.37
			c0.22,0.23,0.38,0.47,0.46,0.72c0.09,0.26,0.12,0.51,0.11,0.77c-0.02,0.26-0.07,0.52-0.17,0.77c-0.1,0.26-0.22,0.5-0.38,0.72
			l0.09,0.09l1.4-1.44l-0.11-0.11c-0.11,0.03-0.19,0.04-0.23,0.04c-0.04-0.01-0.09-0.04-0.16-0.11c-0.07-0.07-0.13-0.16-0.17-0.27
			c-0.04-0.1-0.08-0.22-0.13-0.35c-0.05-0.13-0.12-0.27-0.21-0.43c-0.09-0.16-0.22-0.33-0.41-0.52c-0.25-0.26-0.51-0.45-0.8-0.58
			c-0.29-0.13-0.58-0.2-0.88-0.2c-0.29,0-0.58,0.05-0.86,0.17c-0.28,0.12-0.54,0.3-0.77,0.54c-0.35,0.37-0.53,0.77-0.53,1.21
			c0,0.19,0.03,0.4,0.09,0.62c-0.15-0.09-0.29-0.17-0.44-0.23c-0.21-0.07-0.39-0.13-0.52-0.18l-1.32-0.42
			c-0.19-0.06-0.38-0.13-0.56-0.21c-0.19-0.08-0.35-0.18-0.51-0.29c-0.15-0.12-0.27-0.26-0.37-0.43c-0.09-0.17-0.14-0.38-0.14-0.61
			c0-0.3,0.06-0.55,0.18-0.74c0.12-0.2,0.27-0.35,0.45-0.47c0.18-0.12,0.38-0.21,0.59-0.25c0.21-0.05,0.4-0.07,0.58-0.07
			c0.31,0,0.59,0.05,0.82,0.18c0.24,0.11,0.44,0.27,0.61,0.46c0.17,0.19,0.31,0.42,0.41,0.67c0.11,0.25,0.18,0.52,0.23,0.78h0.13
			v-2.04h-0.15c-0.06,0.1-0.1,0.17-0.14,0.2c-0.03,0.02-0.1,0.04-0.19,0.04c-0.1,0-0.2-0.02-0.3-0.07c-0.1-0.05-0.21-0.09-0.33-0.15
			c-0.13-0.06-0.27-0.1-0.44-0.15c-0.17-0.04-0.38-0.06-0.64-0.06c-0.35,0-0.67,0.06-0.97,0.18c-0.29,0.12-0.55,0.29-0.76,0.5
			c-0.21,0.21-0.38,0.46-0.49,0.75c-0.11,0.29-0.17,0.61-0.17,0.94c0,0.52,0.15,0.93,0.45,1.24c0.13,0.13,0.3,0.26,0.49,0.37
			c-0.16,0.04-0.32,0.09-0.47,0.16c-0.2,0.1-0.36,0.19-0.49,0.26l-1.23,0.66c-0.18,0.1-0.36,0.19-0.54,0.27
			c-0.18,0.08-0.37,0.13-0.55,0.16c-0.19,0.03-0.37,0.01-0.55-0.04c-0.18-0.05-0.36-0.16-0.52-0.33c-0.21-0.21-0.33-0.43-0.38-0.66
			c-0.05-0.23-0.05-0.45,0-0.67c0.04-0.22,0.13-0.42,0.24-0.61c0.12-0.19,0.24-0.35,0.36-0.48c0.22-0.23,0.46-0.39,0.7-0.48
			c0.25-0.09,0.5-0.13,0.75-0.12c0.25,0.01,0.49,0.07,0.74,0.17c0.25,0.1,0.48,0.23,0.69,0.39l0.09-0.1l-1.4-1.44l-0.11,0.11
			c0.03,0.12,0.04,0.19,0.04,0.24c-0.01,0.04-0.04,0.1-0.11,0.17c-0.07,0.07-0.16,0.13-0.26,0.17c-0.1,0.04-0.21,0.08-0.34,0.14
			c-0.13,0.05-0.26,0.12-0.42,0.21c-0.15,0.09-0.32,0.24-0.49,0.42c-0.25,0.25-0.44,0.53-0.56,0.83c-0.13,0.3-0.19,0.61-0.2,0.91
			c0,0.3,0.05,0.6,0.17,0.89c0.11,0.29,0.29,0.55,0.52,0.8c0.36,0.37,0.75,0.55,1.17,0.55c0.19,0,0.39-0.03,0.6-0.09
			c-0.09,0.15-0.16,0.3-0.22,0.45c-0.07,0.22-0.13,0.4-0.17,0.54l-0.42,1.37c-0.06,0.19-0.12,0.39-0.2,0.58
			c-0.08,0.19-0.17,0.37-0.29,0.52c-0.11,0.15-0.25,0.28-0.41,0.38c-0.16,0.1-0.36,0.14-0.59,0.14c-0.29,0-0.53-0.06-0.72-0.18
			c-0.19-0.13-0.34-0.28-0.46-0.47c-0.11-0.19-0.2-0.39-0.24-0.61c-0.05-0.22-0.07-0.42-0.07-0.6c0-0.32,0.06-0.61,0.17-0.85
			c0.11-0.24,0.26-0.45,0.45-0.63c0.19-0.17,0.4-0.31,0.65-0.42c0.24-0.11,0.49-0.19,0.76-0.23v-0.14h-1.98v0.16
			c0.1,0.06,0.17,0.11,0.19,0.14c0.03,0.03,0.04,0.1,0.04,0.2c0,0.1-0.02,0.21-0.06,0.31c-0.05,0.1-0.09,0.22-0.15,0.34
			c-0.05,0.13-0.1,0.28-0.15,0.46c-0.04,0.18-0.07,0.4-0.07,0.66c0,0.36,0.06,0.69,0.18,1c0.12,0.3,0.28,0.57,0.48,0.78
			c0.21,0.22,0.45,0.39,0.73,0.51c0.28,0.12,0.58,0.18,0.91,0.18c0.5,0,0.9-0.16,1.2-0.47c0.13-0.14,0.25-0.31,0.36-0.5
			c0.04,0.17,0.09,0.33,0.16,0.48c0.1,0.21,0.18,0.38,0.25,0.51l0.64,1.27c0.09,0.18,0.18,0.36,0.25,0.56
			c0.08,0.19,0.13,0.38,0.15,0.57c0.03,0.19,0.02,0.38-0.03,0.57c-0.05,0.19-0.16,0.37-0.32,0.54c-0.21,0.21-0.42,0.35-0.64,0.4
			c-0.22,0.05-0.43,0.05-0.64,0c-0.21-0.05-0.41-0.13-0.59-0.25c-0.18-0.12-0.33-0.24-0.46-0.37c-0.22-0.23-0.38-0.47-0.46-0.73
			c-0.09-0.26-0.13-0.51-0.11-0.77c0.01-0.26,0.07-0.52,0.17-0.77c0.1-0.25,0.22-0.49,0.38-0.72l-0.09-0.1l-1.4,1.44l0.11,0.11
			c0.11-0.03,0.19-0.04,0.23-0.04c0.04,0.01,0.1,0.04,0.17,0.11c0.07,0.07,0.13,0.16,0.16,0.27c0.04,0.1,0.08,0.22,0.13,0.35
			c0.05,0.13,0.11,0.28,0.21,0.43c0.09,0.16,0.22,0.33,0.41,0.51c0.25,0.26,0.52,0.45,0.81,0.58c0.29,0.13,0.58,0.2,0.88,0.2
			c0.29,0.01,0.58-0.05,0.86-0.17c0.28-0.12,0.54-0.3,0.77-0.54c0.35-0.37,0.53-0.77,0.53-1.21c0-0.19-0.03-0.4-0.09-0.62
			c0.15,0.09,0.29,0.17,0.44,0.22c0.21,0.07,0.39,0.14,0.52,0.18l1.32,0.43c0.19,0.06,0.38,0.13,0.57,0.21
			c0.18,0.08,0.35,0.18,0.5,0.3c0.15,0.11,0.27,0.26,0.37,0.42c0.1,0.17,0.14,0.38,0.14,0.62c0,0.3-0.06,0.55-0.18,0.75
			c-0.12,0.2-0.27,0.35-0.45,0.47c-0.18,0.12-0.38,0.21-0.59,0.26c-0.21,0.05-0.4,0.07-0.58,0.07c-0.31,0-0.59-0.06-0.82-0.17
			c-0.24-0.12-0.44-0.27-0.61-0.47c-0.17-0.19-0.31-0.41-0.41-0.67c-0.1-0.25-0.18-0.51-0.22-0.78h-0.13v2.04h0.15
			c0.06-0.11,0.1-0.17,0.14-0.2c0.03-0.03,0.1-0.04,0.19-0.04c0.1,0,0.21,0.02,0.3,0.07c0.1,0.05,0.21,0.1,0.34,0.15
			c0.12,0.06,0.27,0.11,0.44,0.15c0.17,0.05,0.38,0.06,0.64,0.06c0.35,0,0.67-0.06,0.97-0.18c0.3-0.12,0.55-0.28,0.76-0.5
			c0.21-0.21,0.37-0.46,0.49-0.75c0.11-0.29,0.17-0.6,0.17-0.94c0-0.51-0.15-0.93-0.45-1.24c-0.14-0.14-0.3-0.26-0.49-0.37
			c0.17-0.04,0.32-0.09,0.46-0.16c0.2-0.1,0.37-0.19,0.5-0.25l1.23-0.66c0.17-0.1,0.36-0.18,0.54-0.26
			c0.18-0.08,0.37-0.13,0.56-0.16c0.19-0.03,0.37-0.01,0.55,0.04c0.18,0.05,0.35,0.16,0.52,0.33c0.21,0.21,0.33,0.43,0.38,0.66
			c0.05,0.23,0.05,0.45,0,0.67c-0.04,0.22-0.13,0.42-0.24,0.61c-0.12,0.19-0.24,0.35-0.36,0.47c-0.22,0.23-0.46,0.39-0.7,0.48
			c-0.25,0.09-0.49,0.13-0.75,0.11c-0.25-0.01-0.5-0.07-0.75-0.17c-0.25-0.1-0.48-0.23-0.69-0.39l-0.09,0.1l1.4,1.44l0.11-0.11
			c-0.03-0.12-0.04-0.2-0.04-0.24c0-0.04,0.04-0.1,0.1-0.17c0.08-0.08,0.16-0.13,0.26-0.17c0.1-0.04,0.21-0.09,0.34-0.14
			c0.13-0.05,0.27-0.12,0.42-0.22c0.15-0.09,0.32-0.23,0.5-0.42c0.25-0.25,0.43-0.53,0.56-0.83c0.13-0.3,0.19-0.6,0.2-0.91
			c0.01-0.3-0.05-0.6-0.17-0.89c-0.12-0.29-0.29-0.55-0.52-0.79c-0.35-0.36-0.74-0.55-1.17-0.54c-0.19,0-0.39,0.04-0.6,0.09
			c0.09-0.15,0.17-0.3,0.22-0.45c0.07-0.22,0.13-0.4,0.17-0.54l0.42-1.36c0.06-0.2,0.13-0.39,0.2-0.58
			c0.08-0.19,0.17-0.37,0.29-0.52c0.11-0.15,0.25-0.28,0.42-0.38c0.16-0.1,0.36-0.15,0.59-0.15c0.29,0,0.53,0.06,0.72,0.19
			c0.19,0.12,0.34,0.28,0.46,0.47c0.12,0.19,0.2,0.39,0.24,0.61c0.05,0.22,0.07,0.42,0.07,0.6c0,0.32-0.06,0.61-0.17,0.85
			c-0.11,0.24-0.26,0.45-0.45,0.62c-0.19,0.17-0.4,0.31-0.65,0.42c-0.24,0.11-0.5,0.19-0.76,0.23v0.13h1.98v-0.16
			c-0.1-0.06-0.17-0.11-0.19-0.14c-0.03-0.04-0.04-0.1-0.04-0.2c0-0.1,0.02-0.21,0.06-0.31
			C-628.93-1460.12-628.88-1460.23-628.83-1460.36z M-634.17-1462.94c0.1-0.23,0.15-0.48,0.18-0.73l0.07,0.15
			c0.08,0.14,0.14,0.31,0.21,0.49c0.06,0.18,0.1,0.37,0.11,0.57c0.01,0.12,0,0.24-0.02,0.37l-0.64-0.66
			C-634.22-1462.81-634.2-1462.87-634.17-1462.94z M-634.82-1463.27c0,0.18-0.03,0.38-0.09,0.59c-0.01,0.03-0.02,0.06-0.03,0.09
			c-0.08,0.06-0.17,0.13-0.29,0.19c-0.16,0.08-0.3,0.16-0.44,0.23c-0.11,0.06-0.21,0.13-0.3,0.19c-0.09,0.06-0.17,0.12-0.25,0.19
			c-0.08,0.06-0.17,0.13-0.25,0.22c-0.04,0.04-0.08,0.08-0.13,0.13h-0.01v-0.01c0.22-0.26,0.4-0.53,0.51-0.83
			c0.14-0.34,0.21-0.68,0.22-1.01c0.16-0.15,0.38-0.29,0.63-0.41c0.1-0.05,0.2-0.09,0.32-0.14
			C-634.85-1463.67-634.82-1463.48-634.82-1463.27z M-635.24-1462.04c-0.14,0.17-0.33,0.31-0.56,0.42
			c-0.15,0.07-0.33,0.12-0.54,0.15c0.01-0.01,0.01-0.01,0.02-0.02c0.11-0.11,0.25-0.21,0.4-0.3c0.15-0.09,0.32-0.17,0.51-0.22
			C-635.36-1462.03-635.3-1462.03-635.24-1462.04z M-636.59-1461.72v-0.02c0.01-0.16,0.03-0.33,0.08-0.51
			c0.04-0.18,0.11-0.35,0.21-0.52c0.03-0.05,0.06-0.1,0.1-0.15c0.02,0.23-0.02,0.46-0.1,0.71
			C-636.37-1462.05-636.46-1461.89-636.59-1461.72z M-636.28-1464.94c0.15,0.05,0.32,0.11,0.48,0.19c0.17,0.08,0.33,0.19,0.47,0.32
			c0.09,0.08,0.17,0.18,0.24,0.28h-0.91c-0.02-0.06-0.04-0.13-0.06-0.19c-0.09-0.23-0.22-0.45-0.38-0.65L-636.28-1464.94z
			 M-637.34-1464.1c0.04-0.1,0.08-0.22,0.14-0.33c0.16,0.07,0.31,0.18,0.45,0.33c0.12,0.13,0.24,0.29,0.34,0.48
			c0.02,0.03,0.03,0.06,0.04,0.09c-0.01,0.1-0.03,0.22-0.08,0.34c-0.06,0.17-0.11,0.34-0.15,0.49c-0.04,0.13-0.06,0.24-0.08,0.35
			c-0.02,0.1-0.03,0.21-0.05,0.31c-0.01,0.11-0.02,0.22-0.03,0.34c0,0.06,0,0.12-0.01,0.18c0,0,0,0,0,0.01c0-0.01,0-0.01-0.01-0.01
			c-0.02-0.35-0.09-0.67-0.2-0.96c-0.13-0.34-0.32-0.63-0.54-0.87C-637.48-1463.58-637.43-1463.83-637.34-1464.1z M-636.93-1461.71
			c-0.01-0.01-0.01-0.01-0.02-0.02c-0.1-0.12-0.2-0.26-0.29-0.41c-0.09-0.16-0.16-0.33-0.21-0.52c-0.01-0.05-0.02-0.11-0.03-0.17
			c0.16,0.15,0.29,0.34,0.4,0.57C-637.01-1462.11-636.96-1461.92-636.93-1461.71z M-638.92-1464.21c0.14-0.08,0.29-0.15,0.47-0.22
			c0.18-0.07,0.36-0.1,0.56-0.12c0.12,0,0.24,0,0.36,0.02l-0.64,0.66c-0.06-0.03-0.12-0.06-0.18-0.08c-0.23-0.1-0.46-0.16-0.71-0.18
			L-638.92-1464.21z M-638.67-1463.28c0.17,0,0.37,0.03,0.57,0.09c0.03,0.01,0.06,0.02,0.09,0.03c0.06,0.08,0.12,0.18,0.18,0.29
			c0.08,0.17,0.15,0.32,0.22,0.46c0.06,0.12,0.13,0.22,0.18,0.31c0.06,0.09,0.12,0.18,0.18,0.26c0.07,0.08,0.13,0.17,0.21,0.26
			c0.04,0.04,0.08,0.08,0.12,0.13v0h0c-0.26-0.23-0.52-0.41-0.81-0.53c-0.33-0.14-0.65-0.21-0.97-0.22c-0.15-0.17-0.28-0.4-0.4-0.66
			c-0.05-0.1-0.09-0.21-0.13-0.33C-639.06-1463.25-638.88-1463.28-638.67-1463.28z M-637.17-1461.45h-0.02
			c-0.16-0.01-0.32-0.03-0.49-0.08c-0.17-0.04-0.34-0.11-0.51-0.21c-0.05-0.03-0.1-0.06-0.15-0.1c0.22-0.02,0.45,0.02,0.69,0.11
			C-637.5-1461.68-637.34-1461.58-637.17-1461.45z M-640.34-1461.61l0.04-0.15c0.04-0.16,0.11-0.32,0.19-0.5
			c0.08-0.18,0.18-0.34,0.31-0.49c0.07-0.09,0.17-0.17,0.27-0.24v0.94c-0.06,0.02-0.12,0.04-0.19,0.07
			C-639.94-1461.9-640.15-1461.77-640.34-1461.61z M-639.34-1459.63c-0.09,0.23-0.15,0.48-0.18,0.73l-0.07-0.15
			c-0.08-0.14-0.15-0.31-0.21-0.49c-0.07-0.19-0.11-0.38-0.12-0.57c-0.01-0.12,0.01-0.24,0.02-0.37l0.64,0.66
			C-639.28-1459.75-639.31-1459.69-639.34-1459.63z M-639.48-1460.68c-0.1-0.04-0.21-0.08-0.32-0.14c0.07-0.16,0.17-0.32,0.32-0.47
			c0.12-0.13,0.28-0.25,0.47-0.36c0.03-0.02,0.05-0.03,0.08-0.04c0.1,0.01,0.21,0.03,0.33,0.08c0.17,0.06,0.33,0.11,0.47,0.16
			c0.12,0.04,0.24,0.07,0.34,0.09c0.1,0.02,0.2,0.03,0.31,0.05c0.1,0.01,0.21,0.02,0.33,0.03c0.05,0,0.11,0,0.18,0.01
			c0,0,0,0,0.01,0.01c0,0-0.01,0-0.01,0c-0.34,0.02-0.65,0.09-0.93,0.21c-0.33,0.14-0.61,0.32-0.84,0.55
			C-638.97-1460.52-639.21-1460.58-639.48-1460.68z M-637.17-1461.09c0,0.01-0.01,0.01-0.02,0.01c-0.12,0.11-0.25,0.21-0.4,0.31
			c-0.15,0.09-0.32,0.16-0.51,0.22c-0.05,0.01-0.11,0.02-0.17,0.03c0.14-0.17,0.33-0.31,0.55-0.42
			C-637.55-1461.02-637.37-1461.07-637.17-1461.09z M-638.69-1459.3c0-0.18,0.03-0.38,0.08-0.59c0.01-0.03,0.02-0.06,0.03-0.09
			c0.08-0.06,0.17-0.13,0.29-0.19c0.16-0.08,0.31-0.16,0.44-0.23c0.12-0.07,0.22-0.12,0.3-0.19c0.09-0.06,0.17-0.12,0.25-0.19
			c0.08-0.06,0.17-0.14,0.25-0.22c0.04-0.04,0.08-0.08,0.13-0.13h0.01v0.01c-0.22,0.26-0.4,0.53-0.51,0.83
			c-0.13,0.34-0.2,0.67-0.21,1.01c-0.17,0.15-0.38,0.28-0.64,0.41c-0.1,0.05-0.21,0.09-0.32,0.13
			C-638.65-1458.9-638.69-1459.08-638.69-1459.3z M-636.91-1460.85v0.02c-0.01,0.17-0.04,0.34-0.08,0.51
			c-0.04,0.18-0.11,0.35-0.21,0.53c-0.03,0.05-0.06,0.1-0.1,0.15c-0.02-0.22,0.02-0.46,0.11-0.71
			C-637.14-1460.51-637.04-1460.68-636.91-1460.85z M-637.22-1457.63c-0.15-0.05-0.31-0.11-0.49-0.19
			c-0.17-0.08-0.33-0.19-0.47-0.32c-0.09-0.08-0.17-0.18-0.24-0.28h0.9c0.02,0.06,0.04,0.13,0.07,0.19c0.1,0.23,0.22,0.45,0.38,0.65
			L-637.22-1457.63z M-636.17-1458.46c-0.04,0.1-0.08,0.21-0.14,0.33c-0.16-0.07-0.31-0.18-0.45-0.33
			c-0.13-0.13-0.24-0.29-0.34-0.48c-0.01-0.03-0.03-0.06-0.04-0.09c0.01-0.1,0.03-0.21,0.08-0.34c0.06-0.17,0.11-0.33,0.15-0.49
			c0.03-0.13,0.06-0.24,0.08-0.35c0.02-0.1,0.04-0.21,0.05-0.31c0.01-0.1,0.02-0.22,0.03-0.34c0-0.06,0-0.12,0-0.19c0,0,0,0,0,0
			c0.01,0,0.01,0,0.01,0.01c0.02,0.35,0.09,0.67,0.2,0.96c0.14,0.34,0.31,0.63,0.54,0.87
			C-636.02-1458.99-636.07-1458.74-636.17-1458.46z M-636.57-1460.85c0.01,0.01,0.01,0.01,0.01,0.02c0.11,0.12,0.2,0.26,0.3,0.41
			c0.09,0.16,0.16,0.33,0.21,0.52c0.02,0.05,0.02,0.11,0.03,0.17c-0.16-0.15-0.3-0.34-0.41-0.57
			C-636.5-1460.46-636.54-1460.65-636.57-1460.85z M-634.58-1458.36c-0.14,0.08-0.3,0.16-0.48,0.22c-0.18,0.07-0.36,0.1-0.56,0.12
			c-0.12,0.01-0.24,0-0.35-0.02l0.64-0.66c0.06,0.03,0.11,0.06,0.17,0.08c0.23,0.1,0.47,0.16,0.71,0.19L-634.58-1458.36z
			 M-634.83-1459.29c-0.17,0-0.36-0.03-0.57-0.09c-0.03-0.01-0.06-0.02-0.09-0.03c-0.06-0.08-0.12-0.18-0.18-0.3
			c-0.08-0.16-0.15-0.31-0.22-0.45c-0.06-0.12-0.12-0.22-0.18-0.31c-0.06-0.09-0.12-0.17-0.18-0.26c-0.06-0.09-0.13-0.17-0.21-0.26
			c-0.03-0.04-0.08-0.09-0.12-0.13v-0.01c0,0,0.01,0,0.01,0c0.25,0.23,0.52,0.41,0.8,0.53c0.33,0.14,0.66,0.21,0.98,0.22
			c0.14,0.18,0.28,0.4,0.4,0.66c0.05,0.1,0.09,0.21,0.13,0.33C-634.44-1459.32-634.62-1459.29-634.83-1459.29z M-636.33-1461.11
			h0.02c0.16,0.01,0.32,0.03,0.49,0.07c0.17,0.05,0.34,0.12,0.51,0.22c0.05,0.03,0.1,0.06,0.15,0.1c-0.22,0.02-0.45-0.02-0.69-0.11
			C-636.01-1460.89-636.17-1460.99-636.33-1461.11z M-634.49-1460.92c-0.03,0.01-0.05,0.03-0.08,0.04c-0.1-0.01-0.21-0.04-0.33-0.08
			c-0.17-0.06-0.32-0.11-0.47-0.15c-0.12-0.04-0.24-0.07-0.34-0.09c-0.1-0.02-0.2-0.04-0.31-0.05c-0.1-0.01-0.21-0.02-0.33-0.02
			c-0.05,0-0.11-0.01-0.18-0.01c0,0,0,0,0,0c0,0,0-0.01,0-0.01c0.34-0.02,0.65-0.09,0.93-0.21c0.33-0.14,0.61-0.33,0.84-0.56
			c0.22,0.02,0.47,0.07,0.73,0.17c0.1,0.04,0.21,0.09,0.32,0.14c-0.07,0.16-0.17,0.32-0.32,0.47
			C-634.15-1461.15-634.3-1461.03-634.49-1460.92z M-633.21-1460.8c-0.04,0.16-0.11,0.32-0.19,0.5c-0.08,0.18-0.18,0.34-0.31,0.49
			c-0.08,0.09-0.17,0.17-0.26,0.24v-0.93c0.06-0.02,0.12-0.04,0.18-0.07c0.23-0.1,0.43-0.23,0.63-0.39L-633.21-1460.8z"/>
	</defs>
	<use xlink:href="#SVGID_21_"  style="overflow:visible;fill-rule:evenodd;clip-rule:evenodd;fill:#980B2C;"/>
	<clipPath id="SVGID_22_">
		<use xlink:href="#SVGID_21_"  style="overflow:visible;"/>
	</clipPath>
	<g class="st10">
		<defs>
			<rect id="SVGID_23_" x="-699" y="-1504" width="1440" height="3550"/>
		</defs>
		<use xlink:href="#SVGID_23_"  style="overflow:visible;fill:#980B2C;"/>
		<clipPath id="SVGID_24_">
			<use xlink:href="#SVGID_23_"  style="overflow:visible;"/>
		</clipPath>
		<rect x="-645.89" y="-1470.69" class="st11" width="18.28" height="18.81"/>
	</g>
</g>
<g>
	<defs>
		<path id="SVGID_25_" d="M12.55,0.81c-6.29,0-11.4,5.27-11.4,11.78c0,6.51,5.1,11.78,11.4,11.78c6.3,0,11.4-5.27,11.4-11.78
			C23.96,6.08,18.86,0.81,12.55,0.81 M12.55,23.92c-6.06,0-10.97-5.08-10.97-11.34c0-6.26,4.91-11.33,10.97-11.33
			c6.06,0,10.98,5.07,10.98,11.33C23.53,18.85,18.62,23.92,12.55,23.92"/>
	</defs>
	<use xlink:href="#SVGID_25_"  style="overflow:visible;fill-rule:evenodd;clip-rule:evenodd;fill:#980B2C;"/>
	<clipPath id="SVGID_26_">
		<use xlink:href="#SVGID_25_"  style="overflow:visible;"/>
	</clipPath>
	<g class="st12">
		<defs>
			<rect id="SVGID_27_" x="-49.69" y="-30.24" width="1440" height="3550"/>
		</defs>
		<use xlink:href="#SVGID_27_"  style="overflow:visible;fill:#980B2C;"/>
		<clipPath id="SVGID_28_">
			<use xlink:href="#SVGID_27_"  style="overflow:visible;"/>
		</clipPath>
		<rect x="0.16" y="-0.19" class="st13" width="24.8" height="25.56"/>
	</g>
</g>
<g>
	<defs>
		<path id="SVGID_29_" d="M20.48,13.51c0.06-0.13,0.11-0.28,0.15-0.46c0.04-0.17,0.07-0.4,0.07-0.66c0-0.36-0.06-0.69-0.17-1
			c-0.12-0.3-0.28-0.57-0.49-0.79c-0.2-0.22-0.44-0.39-0.72-0.51c-0.28-0.12-0.59-0.18-0.91-0.18c-0.5,0-0.9,0.16-1.2,0.47
			c-0.13,0.14-0.25,0.31-0.36,0.51c-0.04-0.17-0.08-0.33-0.16-0.48c-0.09-0.21-0.18-0.38-0.24-0.51l-0.64-1.27
			c-0.09-0.18-0.18-0.37-0.26-0.56c-0.08-0.19-0.13-0.38-0.15-0.57c-0.03-0.2-0.01-0.38,0.04-0.57c0.05-0.19,0.15-0.37,0.32-0.54
			c0.21-0.21,0.42-0.34,0.64-0.39C16.6,5.95,16.81,5.95,17.02,6c0.21,0.05,0.41,0.13,0.59,0.25c0.18,0.12,0.34,0.24,0.46,0.37
			c0.22,0.23,0.38,0.47,0.46,0.72c0.09,0.26,0.12,0.51,0.11,0.77c-0.01,0.26-0.07,0.52-0.17,0.77c-0.1,0.26-0.22,0.5-0.38,0.72
			l0.09,0.09l1.4-1.44l-0.11-0.11c-0.12,0.03-0.19,0.04-0.24,0.04c-0.04-0.01-0.09-0.04-0.16-0.11C19.02,8,18.96,7.91,18.92,7.81
			c-0.04-0.1-0.08-0.22-0.13-0.35c-0.05-0.13-0.12-0.27-0.21-0.43c-0.09-0.16-0.22-0.33-0.41-0.52c-0.25-0.26-0.51-0.45-0.8-0.58
			c-0.29-0.13-0.58-0.2-0.88-0.2c-0.29,0-0.58,0.05-0.86,0.17c-0.28,0.12-0.54,0.3-0.77,0.54c-0.35,0.37-0.53,0.77-0.53,1.21
			c0,0.19,0.04,0.4,0.09,0.62c-0.15-0.09-0.29-0.17-0.44-0.23c-0.21-0.07-0.38-0.13-0.52-0.18l-1.32-0.42
			c-0.19-0.06-0.38-0.13-0.56-0.21c-0.19-0.08-0.35-0.18-0.51-0.29c-0.15-0.12-0.27-0.26-0.37-0.43c-0.09-0.17-0.14-0.38-0.14-0.61
			c0-0.3,0.06-0.55,0.18-0.74c0.12-0.2,0.27-0.35,0.45-0.47c0.18-0.12,0.38-0.21,0.59-0.25c0.21-0.05,0.4-0.07,0.58-0.07
			c0.31,0,0.59,0.05,0.82,0.18c0.24,0.11,0.44,0.27,0.61,0.46c0.17,0.19,0.31,0.42,0.41,0.67c0.11,0.25,0.18,0.52,0.23,0.78h0.13
			V4.38h-0.15c-0.06,0.1-0.11,0.17-0.14,0.2c-0.03,0.02-0.1,0.04-0.19,0.04c-0.1,0-0.2-0.02-0.3-0.07c-0.1-0.05-0.21-0.09-0.33-0.15
			c-0.13-0.06-0.27-0.1-0.44-0.15c-0.17-0.04-0.38-0.06-0.64-0.06c-0.35,0-0.67,0.06-0.97,0.18c-0.29,0.12-0.55,0.29-0.76,0.5
			c-0.21,0.21-0.38,0.46-0.49,0.75C10.04,5.9,9.98,6.22,9.98,6.55c0,0.52,0.15,0.93,0.45,1.24c0.13,0.13,0.3,0.26,0.49,0.37
			c-0.17,0.04-0.32,0.09-0.47,0.16c-0.2,0.1-0.36,0.19-0.49,0.26L8.74,9.24c-0.18,0.1-0.36,0.19-0.54,0.27
			C8.01,9.59,7.82,9.64,7.64,9.67C7.45,9.7,7.27,9.68,7.08,9.63C6.9,9.58,6.73,9.47,6.56,9.3C6.36,9.09,6.23,8.87,6.18,8.64
			c-0.05-0.23-0.05-0.45,0-0.67C6.22,7.76,6.3,7.55,6.42,7.37c0.12-0.19,0.24-0.35,0.36-0.48C7,6.66,7.24,6.51,7.48,6.41
			c0.25-0.09,0.5-0.13,0.75-0.12c0.25,0.01,0.49,0.07,0.74,0.17c0.25,0.1,0.48,0.23,0.69,0.39l0.09-0.1l-1.4-1.44L8.25,5.43
			C8.28,5.55,8.3,5.63,8.29,5.67c-0.01,0.04-0.04,0.1-0.11,0.17C8.12,5.91,8.03,5.97,7.93,6.01c-0.1,0.04-0.21,0.08-0.34,0.14
			C7.46,6.2,7.32,6.27,7.17,6.36C7.02,6.45,6.85,6.6,6.67,6.78C6.42,7.03,6.24,7.31,6.11,7.61c-0.13,0.3-0.19,0.61-0.2,0.91
			c0,0.3,0.05,0.6,0.17,0.89C6.2,9.7,6.37,9.96,6.6,10.2c0.36,0.37,0.74,0.55,1.17,0.55c0.19,0,0.39-0.03,0.6-0.09
			c-0.09,0.15-0.16,0.3-0.22,0.45c-0.07,0.22-0.13,0.4-0.17,0.54l-0.42,1.37c-0.06,0.19-0.12,0.39-0.2,0.58
			c-0.08,0.19-0.17,0.37-0.29,0.52c-0.11,0.15-0.25,0.28-0.41,0.38c-0.16,0.1-0.36,0.14-0.59,0.14c-0.29,0-0.53-0.06-0.72-0.18
			C5.16,14.33,5,14.17,4.89,13.99c-0.11-0.19-0.2-0.39-0.24-0.61c-0.05-0.22-0.07-0.42-0.07-0.6c0-0.32,0.06-0.61,0.17-0.85
			C4.86,11.68,5,11.47,5.19,11.3c0.19-0.17,0.4-0.31,0.65-0.42c0.24-0.11,0.49-0.19,0.76-0.23v-0.14H4.62v0.16
			c0.1,0.06,0.17,0.11,0.19,0.14c0.03,0.03,0.04,0.1,0.04,0.2c0,0.1-0.02,0.21-0.06,0.31c-0.05,0.1-0.09,0.22-0.15,0.34
			c-0.05,0.13-0.1,0.28-0.15,0.46c-0.04,0.18-0.07,0.4-0.07,0.66c0,0.36,0.06,0.69,0.18,1c0.12,0.3,0.28,0.57,0.48,0.78
			c0.21,0.22,0.45,0.39,0.73,0.51c0.28,0.12,0.58,0.18,0.91,0.18c0.5,0,0.9-0.16,1.2-0.47c0.13-0.14,0.25-0.31,0.36-0.5
			c0.04,0.17,0.09,0.33,0.16,0.48c0.1,0.21,0.18,0.38,0.25,0.51l0.64,1.27c0.09,0.18,0.18,0.36,0.25,0.56
			c0.08,0.19,0.13,0.38,0.15,0.57c0.03,0.19,0.02,0.38-0.03,0.57c-0.05,0.19-0.16,0.37-0.32,0.54c-0.21,0.21-0.42,0.35-0.64,0.4
			c-0.22,0.05-0.43,0.05-0.64,0c-0.21-0.05-0.41-0.13-0.59-0.25c-0.18-0.12-0.33-0.24-0.46-0.37c-0.22-0.23-0.38-0.47-0.46-0.73
			c-0.09-0.26-0.13-0.51-0.11-0.77c0.01-0.26,0.07-0.52,0.17-0.77c0.1-0.25,0.22-0.49,0.38-0.72l-0.09-0.1l-1.4,1.44l0.11,0.11
			c0.11-0.03,0.19-0.04,0.23-0.04C5.9,17,5.95,17.03,6.03,17.1c0.07,0.07,0.13,0.16,0.17,0.27c0.04,0.1,0.08,0.22,0.13,0.35
			c0.05,0.13,0.11,0.28,0.21,0.43c0.09,0.16,0.22,0.33,0.4,0.51c0.25,0.26,0.52,0.45,0.81,0.58c0.29,0.13,0.58,0.2,0.88,0.2
			c0.29,0.01,0.58-0.05,0.86-0.17c0.28-0.12,0.54-0.3,0.77-0.54c0.35-0.37,0.53-0.77,0.53-1.21c0-0.19-0.03-0.4-0.09-0.62
			c0.15,0.09,0.29,0.17,0.44,0.22c0.21,0.07,0.39,0.14,0.52,0.18l1.32,0.43c0.19,0.06,0.38,0.13,0.57,0.21
			c0.18,0.08,0.35,0.18,0.5,0.3c0.15,0.11,0.27,0.26,0.37,0.42c0.1,0.17,0.14,0.38,0.14,0.62c0,0.3-0.06,0.55-0.18,0.75
			c-0.12,0.2-0.27,0.35-0.45,0.47c-0.18,0.12-0.38,0.21-0.59,0.26c-0.21,0.05-0.4,0.07-0.58,0.07c-0.31,0-0.59-0.06-0.82-0.17
			c-0.24-0.12-0.44-0.27-0.61-0.47c-0.17-0.19-0.31-0.41-0.41-0.67c-0.1-0.25-0.18-0.51-0.22-0.78h-0.13v2.04h0.15
			c0.06-0.11,0.1-0.17,0.14-0.2c0.03-0.03,0.1-0.04,0.19-0.04c0.1,0,0.21,0.02,0.3,0.07c0.1,0.05,0.21,0.1,0.33,0.15
			c0.12,0.06,0.27,0.11,0.44,0.15c0.17,0.05,0.38,0.06,0.64,0.06c0.35,0,0.67-0.06,0.97-0.18c0.3-0.12,0.55-0.28,0.76-0.5
			c0.21-0.21,0.37-0.46,0.49-0.75c0.11-0.29,0.17-0.6,0.17-0.94c0-0.51-0.15-0.93-0.45-1.24c-0.14-0.14-0.3-0.26-0.49-0.37
			c0.17-0.04,0.32-0.09,0.47-0.16c0.2-0.1,0.37-0.19,0.5-0.25l1.23-0.66c0.17-0.1,0.36-0.18,0.54-0.26
			c0.18-0.08,0.37-0.13,0.56-0.16c0.18-0.03,0.37-0.01,0.55,0.04c0.18,0.05,0.35,0.16,0.52,0.33c0.21,0.21,0.33,0.43,0.38,0.66
			c0.05,0.23,0.05,0.45,0,0.67c-0.04,0.22-0.13,0.42-0.24,0.61c-0.12,0.19-0.24,0.35-0.36,0.47c-0.22,0.23-0.46,0.39-0.7,0.48
			c-0.25,0.09-0.5,0.13-0.75,0.11c-0.25-0.01-0.5-0.07-0.75-0.17c-0.25-0.1-0.48-0.23-0.69-0.39l-0.09,0.1l1.4,1.44l0.11-0.11
			c-0.03-0.12-0.05-0.2-0.04-0.24c0-0.04,0.04-0.1,0.1-0.17c0.08-0.08,0.16-0.13,0.26-0.17c0.1-0.04,0.21-0.09,0.34-0.14
			c0.13-0.05,0.26-0.12,0.42-0.22c0.15-0.09,0.32-0.23,0.5-0.42c0.25-0.25,0.43-0.53,0.56-0.83c0.13-0.3,0.19-0.6,0.2-0.91
			c0.01-0.3-0.05-0.6-0.17-0.89c-0.12-0.29-0.29-0.55-0.52-0.79c-0.35-0.36-0.74-0.55-1.17-0.54c-0.19,0-0.39,0.04-0.6,0.09
			c0.09-0.15,0.17-0.3,0.22-0.45c0.07-0.22,0.13-0.4,0.17-0.54l0.42-1.36c0.06-0.2,0.13-0.39,0.2-0.58
			c0.08-0.19,0.17-0.37,0.29-0.52c0.11-0.15,0.25-0.28,0.42-0.38c0.16-0.1,0.36-0.15,0.59-0.15c0.29,0,0.53,0.06,0.72,0.19
			c0.19,0.12,0.34,0.28,0.46,0.47c0.12,0.19,0.2,0.39,0.24,0.61c0.05,0.22,0.07,0.42,0.07,0.6c0,0.32-0.06,0.61-0.17,0.85
			c-0.11,0.24-0.26,0.45-0.45,0.62c-0.19,0.17-0.4,0.31-0.65,0.42c-0.24,0.11-0.5,0.19-0.76,0.23v0.13h1.98v-0.16
			c-0.1-0.06-0.17-0.11-0.19-0.14c-0.03-0.04-0.04-0.1-0.04-0.2c0-0.1,0.02-0.21,0.06-0.31C20.38,13.76,20.43,13.64,20.48,13.51z
			 M15.14,10.93c0.1-0.23,0.15-0.48,0.18-0.73l0.07,0.15c0.08,0.14,0.14,0.31,0.21,0.49c0.06,0.18,0.1,0.37,0.11,0.57
			c0.01,0.12,0,0.24-0.02,0.37l-0.64-0.66C15.09,11.06,15.11,11,15.14,10.93z M14.49,10.6c0,0.18-0.03,0.38-0.09,0.59
			c-0.01,0.03-0.02,0.06-0.03,0.09c-0.08,0.06-0.17,0.13-0.29,0.19c-0.16,0.08-0.3,0.16-0.44,0.23c-0.11,0.06-0.21,0.13-0.3,0.19
			c-0.09,0.06-0.17,0.12-0.25,0.19c-0.08,0.06-0.16,0.13-0.25,0.22c-0.04,0.04-0.08,0.08-0.13,0.13h-0.01v-0.01
			c0.22-0.26,0.4-0.53,0.51-0.83c0.14-0.34,0.21-0.68,0.22-1.01c0.17-0.15,0.38-0.29,0.63-0.41c0.1-0.05,0.2-0.09,0.32-0.14
			C14.46,10.2,14.49,10.39,14.49,10.6z M14.07,11.83c-0.14,0.17-0.33,0.31-0.56,0.42c-0.15,0.07-0.34,0.12-0.54,0.15
			c0.01-0.01,0.01-0.01,0.02-0.02c0.11-0.11,0.25-0.21,0.4-0.3c0.15-0.09,0.32-0.17,0.51-0.22C13.95,11.85,14.01,11.84,14.07,11.83z
			 M12.72,12.15v-0.02c0.01-0.16,0.03-0.33,0.08-0.51c0.04-0.18,0.11-0.35,0.21-0.52c0.03-0.05,0.06-0.1,0.1-0.15
			c0.02,0.23-0.02,0.46-0.1,0.71C12.94,11.82,12.85,11.98,12.72,12.15z M13.03,8.93c0.15,0.05,0.32,0.11,0.48,0.19
			c0.17,0.08,0.33,0.19,0.47,0.32c0.09,0.08,0.17,0.18,0.24,0.28h-0.91c-0.02-0.06-0.04-0.13-0.06-0.19
			c-0.1-0.23-0.22-0.45-0.38-0.65L13.03,8.93z M11.97,9.77c0.04-0.1,0.08-0.22,0.14-0.33c0.16,0.07,0.31,0.18,0.45,0.33
			c0.12,0.13,0.24,0.29,0.34,0.48c0.02,0.03,0.03,0.06,0.04,0.09c-0.01,0.1-0.03,0.22-0.08,0.34c-0.06,0.17-0.11,0.34-0.15,0.49
			c-0.03,0.13-0.06,0.24-0.08,0.35c-0.02,0.1-0.03,0.21-0.05,0.31c-0.01,0.11-0.02,0.22-0.03,0.34c0,0.06,0,0.12-0.01,0.18
			c0,0,0,0,0,0.01c0-0.01,0-0.01-0.01-0.01c-0.02-0.35-0.09-0.67-0.2-0.96c-0.13-0.34-0.32-0.63-0.54-0.87
			C11.82,10.29,11.88,10.04,11.97,9.77z M12.38,12.16c-0.01-0.01-0.01-0.01-0.02-0.02c-0.1-0.12-0.2-0.26-0.29-0.41
			c-0.09-0.16-0.16-0.33-0.21-0.52c-0.01-0.05-0.02-0.11-0.03-0.17c0.16,0.15,0.3,0.34,0.4,0.57C12.3,11.76,12.35,11.95,12.38,12.16
			z M10.39,9.66c0.14-0.08,0.3-0.15,0.47-0.22c0.18-0.07,0.36-0.1,0.56-0.12c0.12,0,0.24,0,0.36,0.02l-0.64,0.66
			c-0.06-0.03-0.12-0.06-0.18-0.08c-0.23-0.1-0.46-0.16-0.71-0.18L10.39,9.66z M10.64,10.59c0.17,0,0.37,0.03,0.57,0.09
			c0.03,0.01,0.06,0.02,0.09,0.03c0.06,0.08,0.12,0.18,0.18,0.29c0.08,0.17,0.15,0.32,0.22,0.46c0.06,0.12,0.13,0.22,0.18,0.31
			c0.06,0.09,0.12,0.18,0.18,0.26c0.07,0.08,0.13,0.17,0.21,0.26c0.04,0.04,0.08,0.08,0.12,0.13v0h0c-0.26-0.23-0.52-0.41-0.81-0.53
			c-0.33-0.14-0.65-0.21-0.97-0.22c-0.15-0.17-0.28-0.4-0.4-0.66c-0.05-0.1-0.09-0.21-0.13-0.33
			C10.25,10.62,10.43,10.59,10.64,10.59z M12.14,12.42h-0.02c-0.16-0.01-0.32-0.03-0.49-0.08c-0.17-0.04-0.34-0.11-0.51-0.21
			c-0.05-0.03-0.1-0.06-0.15-0.1c0.22-0.02,0.45,0.02,0.69,0.11C11.81,12.19,11.97,12.29,12.14,12.42z M8.97,12.26l0.04-0.15
			c0.04-0.16,0.11-0.32,0.19-0.5c0.08-0.18,0.18-0.34,0.31-0.49c0.08-0.09,0.17-0.17,0.27-0.24v0.94c-0.06,0.02-0.12,0.04-0.19,0.07
			C9.37,11.97,9.16,12.1,8.97,12.26z M9.97,14.24c-0.09,0.23-0.15,0.48-0.17,0.73l-0.08-0.15c-0.08-0.14-0.15-0.31-0.21-0.49
			c-0.06-0.19-0.1-0.38-0.12-0.57c-0.01-0.12,0.01-0.24,0.02-0.37l0.64,0.66C10.03,14.12,10,14.18,9.97,14.24z M9.83,13.19
			c-0.1-0.04-0.21-0.08-0.32-0.14c0.07-0.16,0.17-0.32,0.32-0.47c0.12-0.13,0.28-0.25,0.47-0.36c0.03-0.02,0.05-0.03,0.08-0.04
			c0.1,0.01,0.21,0.03,0.33,0.08c0.17,0.06,0.33,0.11,0.47,0.16c0.12,0.04,0.24,0.07,0.34,0.09c0.1,0.02,0.2,0.03,0.31,0.05
			c0.1,0.01,0.21,0.02,0.33,0.03c0.05,0,0.11,0,0.18,0.01c0,0,0,0,0.01,0.01c0,0-0.01,0-0.01,0c-0.34,0.02-0.65,0.09-0.93,0.21
			c-0.33,0.14-0.61,0.32-0.84,0.55C10.34,13.35,10.1,13.29,9.83,13.19z M12.14,12.78c0,0.01-0.01,0.01-0.01,0.01
			c-0.12,0.11-0.25,0.21-0.4,0.31c-0.15,0.09-0.32,0.16-0.51,0.22c-0.05,0.01-0.11,0.02-0.17,0.03c0.14-0.17,0.33-0.31,0.56-0.42
			C11.76,12.85,11.94,12.81,12.14,12.78z M10.62,14.57c0-0.18,0.03-0.38,0.08-0.59c0.01-0.03,0.02-0.06,0.03-0.09
			c0.08-0.06,0.17-0.13,0.29-0.19c0.16-0.08,0.31-0.16,0.44-0.23c0.12-0.07,0.22-0.12,0.3-0.19c0.09-0.06,0.17-0.12,0.25-0.19
			c0.08-0.06,0.17-0.14,0.25-0.22c0.04-0.04,0.08-0.08,0.13-0.13h0.01v0.01c-0.22,0.26-0.4,0.53-0.51,0.83
			c-0.13,0.34-0.2,0.67-0.21,1.01c-0.17,0.15-0.38,0.28-0.64,0.41c-0.1,0.05-0.21,0.09-0.32,0.13
			C10.66,14.97,10.62,14.79,10.62,14.57z M12.39,13.02v0.02c-0.01,0.17-0.03,0.34-0.08,0.51c-0.04,0.18-0.11,0.35-0.21,0.53
			c-0.03,0.05-0.06,0.1-0.1,0.15c-0.01-0.22,0.02-0.46,0.11-0.71C12.17,13.36,12.27,13.19,12.39,13.02z M12.09,16.24
			c-0.15-0.05-0.31-0.11-0.49-0.19c-0.17-0.08-0.33-0.19-0.47-0.32c-0.09-0.08-0.17-0.18-0.24-0.28h0.9
			c0.02,0.06,0.04,0.13,0.07,0.19c0.1,0.23,0.22,0.45,0.38,0.65L12.09,16.24z M13.14,15.41c-0.04,0.1-0.08,0.21-0.14,0.33
			c-0.16-0.07-0.31-0.18-0.45-0.33c-0.13-0.13-0.24-0.29-0.34-0.48c-0.01-0.03-0.03-0.06-0.04-0.09c0.01-0.1,0.03-0.21,0.08-0.34
			c0.06-0.17,0.11-0.33,0.15-0.49c0.03-0.13,0.06-0.24,0.08-0.35c0.02-0.1,0.03-0.21,0.05-0.31c0.01-0.1,0.02-0.22,0.03-0.34
			c0-0.06,0-0.12,0-0.19c0,0,0,0,0,0c0.01,0,0.01,0,0.01,0.01c0.02,0.35,0.09,0.67,0.2,0.96c0.13,0.34,0.31,0.63,0.54,0.87
			C13.29,14.88,13.24,15.13,13.14,15.41z M12.74,13.02c0.01,0.01,0.01,0.01,0.01,0.02c0.11,0.12,0.2,0.26,0.3,0.41
			c0.09,0.16,0.16,0.33,0.21,0.52c0.02,0.05,0.02,0.11,0.03,0.17c-0.16-0.15-0.3-0.34-0.41-0.57
			C12.81,13.41,12.77,13.23,12.74,13.02z M14.73,15.51c-0.14,0.08-0.3,0.16-0.48,0.22c-0.18,0.07-0.36,0.1-0.56,0.12
			c-0.12,0.01-0.24,0-0.36-0.02l0.64-0.66c0.06,0.03,0.11,0.06,0.17,0.08c0.23,0.1,0.47,0.16,0.71,0.19L14.73,15.51z M14.48,14.58
			c-0.17,0-0.36-0.03-0.57-0.09c-0.03-0.01-0.06-0.02-0.09-0.03c-0.06-0.08-0.12-0.18-0.18-0.3c-0.08-0.16-0.15-0.31-0.22-0.45
			c-0.06-0.12-0.12-0.22-0.18-0.31c-0.06-0.09-0.12-0.17-0.18-0.26c-0.06-0.09-0.13-0.17-0.21-0.26c-0.03-0.04-0.08-0.09-0.12-0.13
			v-0.01c0,0,0.01,0,0.01,0c0.25,0.23,0.52,0.41,0.8,0.53c0.33,0.14,0.66,0.21,0.98,0.22c0.14,0.18,0.28,0.4,0.4,0.66
			c0.05,0.1,0.09,0.21,0.13,0.33C14.87,14.55,14.69,14.58,14.48,14.58z M12.98,12.76H13c0.16,0.01,0.32,0.03,0.49,0.07
			c0.17,0.05,0.34,0.12,0.51,0.22c0.05,0.03,0.1,0.06,0.15,0.1c-0.22,0.02-0.44-0.02-0.69-0.11C13.3,12.98,13.14,12.89,12.98,12.76z
			 M14.81,12.95c-0.03,0.01-0.06,0.03-0.08,0.04c-0.1-0.01-0.21-0.04-0.33-0.08c-0.17-0.06-0.32-0.11-0.47-0.15
			c-0.12-0.04-0.24-0.07-0.34-0.09c-0.1-0.02-0.2-0.04-0.31-0.05c-0.1-0.01-0.21-0.02-0.33-0.02c-0.05,0-0.11-0.01-0.18-0.01
			c0,0,0,0,0,0c0,0,0-0.01,0-0.01c0.34-0.02,0.65-0.09,0.93-0.21c0.33-0.14,0.61-0.33,0.84-0.56c0.22,0.02,0.46,0.07,0.73,0.17
			c0.1,0.04,0.21,0.09,0.32,0.14c-0.07,0.16-0.17,0.32-0.32,0.47C15.16,12.72,15.01,12.84,14.81,12.95z M16.1,13.07
			c-0.05,0.16-0.11,0.32-0.19,0.5c-0.08,0.18-0.18,0.34-0.31,0.49c-0.08,0.09-0.17,0.17-0.26,0.24v-0.93
			c0.06-0.02,0.12-0.04,0.18-0.07c0.23-0.1,0.43-0.23,0.63-0.39L16.1,13.07z"/>
	</defs>
	<use xlink:href="#SVGID_29_"  style="overflow:visible;fill-rule:evenodd;clip-rule:evenodd;fill:#980B2C;"/>
	<clipPath id="SVGID_30_">
		<use xlink:href="#SVGID_29_"  style="overflow:visible;"/>
	</clipPath>
	<g class="st14">
		<defs>
			<rect id="SVGID_31_" x="-49.69" y="-30.13" width="1440" height="3550"/>
		</defs>
		<use xlink:href="#SVGID_31_"  style="overflow:visible;fill:#980B2C;"/>
		<clipPath id="SVGID_32_">
			<use xlink:href="#SVGID_31_"  style="overflow:visible;"/>
		</clipPath>
		<rect x="3.42" y="3.18" class="st15" width="18.28" height="18.81"/>
	</g>
</g>
</svg>
