<?xml version="1.0" encoding="utf-8"?>
<!-- Generator: Adobe Illustrator 23.0.1, SVG Export Plug-In . SVG Version: 6.00 Build 0)  -->
<svg version="1.1" id="Layer_1" xmlns="http://www.w3.org/2000/svg" xmlns:xlink="http://www.w3.org/1999/xlink" x="0px" y="0px"
	 viewBox="0 0 23 23.7" style="enable-background:new 0 0 23 23.7;" xml:space="preserve">
<g>
	<defs>
		<path id="SVGID_1_" d="M11.5,0.1C5.2,0.1,0.1,5.4,0.1,11.9c0,6.5,5.1,11.8,11.4,11.8c6.3,0,11.4-5.3,11.4-11.8
			C22.9,5.4,17.8,0.1,11.5,0.1 M11.5,23.2c-6.1,0-11-5.1-11-11.3c0-6.3,4.9-11.3,11-11.3c6.1,0,11,5.1,11,11.3
			C22.5,18.1,17.6,23.2,11.5,23.2"/>
	</defs>
	<use xlink:href="#SVGID_1_"  style="overflow:visible;fill-rule:evenodd;clip-rule:evenodd;fill:#980B2C;"/>
	<clipPath id="SVGID_2_">
		<use xlink:href="#SVGID_1_"  style="overflow:visible;"/>
	</clipPath>
</g>
<g>
	<defs>
		<path id="SVGID_3_" d="M19.4,12.7c0.1-0.1,0.1-0.3,0.2-0.5c0-0.2,0.1-0.4,0.1-0.7c0-0.4-0.1-0.7-0.2-1c-0.1-0.3-0.3-0.6-0.5-0.8
			c-0.2-0.2-0.4-0.4-0.7-0.5c-0.3-0.1-0.6-0.2-0.9-0.2c-0.5,0-0.9,0.2-1.2,0.5c-0.1,0.1-0.2,0.3-0.4,0.5c0-0.2-0.1-0.3-0.2-0.5
			c-0.1-0.2-0.2-0.4-0.2-0.5l-0.6-1.3c-0.1-0.2-0.2-0.4-0.3-0.6c-0.1-0.2-0.1-0.4-0.2-0.6c0-0.2,0-0.4,0-0.6
			c0.1-0.2,0.2-0.4,0.3-0.5c0.2-0.2,0.4-0.3,0.6-0.4c0.2-0.1,0.4-0.1,0.6,0c0.2,0,0.4,0.1,0.6,0.3c0.2,0.1,0.3,0.2,0.5,0.4
			c0.2,0.2,0.4,0.5,0.5,0.7c0.1,0.3,0.1,0.5,0.1,0.8c0,0.3-0.1,0.5-0.2,0.8c-0.1,0.3-0.2,0.5-0.4,0.7l0.1,0.1l1.4-1.4l-0.1-0.1
			c-0.1,0-0.2,0-0.2,0c0,0-0.1,0-0.2-0.1C18,7.2,17.9,7.1,17.9,7c0-0.1-0.1-0.2-0.1-0.4c0-0.1-0.1-0.3-0.2-0.4
			c-0.1-0.2-0.2-0.3-0.4-0.5c-0.2-0.3-0.5-0.4-0.8-0.6C16,5,15.7,4.9,15.4,4.9c-0.3,0-0.6,0.1-0.9,0.2c-0.3,0.1-0.5,0.3-0.8,0.5
			c-0.4,0.4-0.5,0.8-0.5,1.2c0,0.2,0,0.4,0.1,0.6c-0.1-0.1-0.3-0.2-0.4-0.2c-0.2-0.1-0.4-0.1-0.5-0.2l-1.3-0.4
			c-0.2-0.1-0.4-0.1-0.6-0.2c-0.2-0.1-0.4-0.2-0.5-0.3C9.9,6,9.8,5.8,9.7,5.7C9.6,5.5,9.5,5.3,9.5,5.1c0-0.3,0.1-0.5,0.2-0.7
			C9.8,4.1,10,4,10.2,3.8c0.2-0.1,0.4-0.2,0.6-0.3c0.2,0,0.4-0.1,0.6-0.1c0.3,0,0.6,0.1,0.8,0.2c0.2,0.1,0.4,0.3,0.6,0.5
			c0.2,0.2,0.3,0.4,0.4,0.7c0.1,0.3,0.2,0.5,0.2,0.8h0.1v-2h-0.2c-0.1,0.1-0.1,0.2-0.1,0.2c0,0-0.1,0-0.2,0c-0.1,0-0.2,0-0.3-0.1
			c-0.1,0-0.2-0.1-0.3-0.2c-0.1-0.1-0.3-0.1-0.4-0.2c-0.2,0-0.4-0.1-0.6-0.1c-0.3,0-0.7,0.1-1,0.2C10.1,3.7,9.8,3.8,9.6,4
			C9.4,4.2,9.2,4.5,9.1,4.8C9,5.1,8.9,5.4,8.9,5.7c0,0.5,0.2,0.9,0.5,1.2c0.1,0.1,0.3,0.3,0.5,0.4c-0.2,0-0.3,0.1-0.5,0.2
			C9.2,7.6,9,7.7,8.9,7.8L7.7,8.4C7.5,8.5,7.3,8.6,7.1,8.7C7,8.8,6.8,8.8,6.6,8.8c-0.2,0-0.4,0-0.6,0C5.9,8.8,5.7,8.6,5.5,8.5
			C5.3,8.3,5.2,8,5.1,7.8c0-0.2-0.1-0.4,0-0.7c0-0.2,0.1-0.4,0.2-0.6c0.1-0.2,0.2-0.3,0.4-0.5C6,5.8,6.2,5.7,6.4,5.6
			c0.3-0.1,0.5-0.1,0.7-0.1c0.2,0,0.5,0.1,0.7,0.2C8.2,5.7,8.4,5.9,8.6,6l0.1-0.1L7.3,4.5L7.2,4.6c0,0.1,0,0.2,0,0.2
			c0,0,0,0.1-0.1,0.2C7.1,5.1,7,5.1,6.9,5.2c-0.1,0-0.2,0.1-0.3,0.1C6.4,5.4,6.3,5.4,6.1,5.5C6,5.6,5.8,5.8,5.6,6
			C5.4,6.2,5.2,6.5,5.1,6.8C4.9,7.1,4.9,7.4,4.9,7.7C4.9,8,4.9,8.3,5,8.6c0.1,0.3,0.3,0.6,0.5,0.8c0.4,0.4,0.7,0.5,1.2,0.5
			c0.2,0,0.4,0,0.6-0.1c-0.1,0.2-0.2,0.3-0.2,0.5C7,10.5,7,10.7,6.9,10.8l-0.4,1.4c-0.1,0.2-0.1,0.4-0.2,0.6C6.2,13,6.1,13.1,6,13.3
			c-0.1,0.2-0.3,0.3-0.4,0.4c-0.2,0.1-0.4,0.1-0.6,0.1c-0.3,0-0.5-0.1-0.7-0.2c-0.2-0.1-0.3-0.3-0.5-0.5c-0.1-0.2-0.2-0.4-0.2-0.6
			c0-0.2-0.1-0.4-0.1-0.6c0-0.3,0.1-0.6,0.2-0.9c0.1-0.2,0.3-0.5,0.4-0.6c0.2-0.2,0.4-0.3,0.6-0.4C5,9.9,5.3,9.9,5.5,9.8V9.7h-2v0.2
			C3.7,9.9,3.7,9.9,3.8,10c0,0,0,0.1,0,0.2c0,0.1,0,0.2-0.1,0.3c0,0.1-0.1,0.2-0.2,0.3c-0.1,0.1-0.1,0.3-0.1,0.5
			c0,0.2-0.1,0.4-0.1,0.7c0,0.4,0.1,0.7,0.2,1c0.1,0.3,0.3,0.6,0.5,0.8c0.2,0.2,0.4,0.4,0.7,0.5c0.3,0.1,0.6,0.2,0.9,0.2
			c0.5,0,0.9-0.2,1.2-0.5c0.1-0.1,0.3-0.3,0.4-0.5c0,0.2,0.1,0.3,0.2,0.5c0.1,0.2,0.2,0.4,0.2,0.5l0.6,1.3c0.1,0.2,0.2,0.4,0.3,0.6
			c0.1,0.2,0.1,0.4,0.2,0.6c0,0.2,0,0.4,0,0.6c0,0.2-0.2,0.4-0.3,0.5c-0.2,0.2-0.4,0.3-0.6,0.4c-0.2,0.1-0.4,0.1-0.6,0
			c-0.2,0-0.4-0.1-0.6-0.3C6.3,18,6.1,17.9,6,17.7c-0.2-0.2-0.4-0.5-0.5-0.7c-0.1-0.3-0.1-0.5-0.1-0.8c0-0.3,0.1-0.5,0.2-0.8
			C5.7,15.2,5.8,15,6,14.7l-0.1-0.1l-1.4,1.4l0.1,0.1c0.1,0,0.2,0,0.2,0c0,0,0.1,0,0.2,0.1c0.1,0.1,0.1,0.2,0.2,0.3
			c0,0.1,0.1,0.2,0.1,0.3c0,0.1,0.1,0.3,0.2,0.4c0.1,0.2,0.2,0.3,0.4,0.5c0.2,0.3,0.5,0.4,0.8,0.6c0.3,0.1,0.6,0.2,0.9,0.2
			c0.3,0,0.6,0,0.9-0.2c0.3-0.1,0.5-0.3,0.8-0.5c0.4-0.4,0.5-0.8,0.5-1.2c0-0.2,0-0.4-0.1-0.6c0.1,0.1,0.3,0.2,0.4,0.2
			c0.2,0.1,0.4,0.1,0.5,0.2l1.3,0.4c0.2,0.1,0.4,0.1,0.6,0.2c0.2,0.1,0.4,0.2,0.5,0.3c0.1,0.1,0.3,0.3,0.4,0.4
			c0.1,0.2,0.1,0.4,0.1,0.6c0,0.3-0.1,0.5-0.2,0.7c-0.1,0.2-0.3,0.4-0.5,0.5c-0.2,0.1-0.4,0.2-0.6,0.3c-0.2,0-0.4,0.1-0.6,0.1
			c-0.3,0-0.6-0.1-0.8-0.2c-0.2-0.1-0.4-0.3-0.6-0.5c-0.2-0.2-0.3-0.4-0.4-0.7c-0.1-0.3-0.2-0.5-0.2-0.8H9.5v2h0.2
			c0.1-0.1,0.1-0.2,0.1-0.2c0,0,0.1,0,0.2,0c0.1,0,0.2,0,0.3,0.1c0.1,0,0.2,0.1,0.3,0.2c0.1,0.1,0.3,0.1,0.4,0.2
			c0.2,0,0.4,0.1,0.6,0.1c0.3,0,0.7-0.1,1-0.2c0.3-0.1,0.5-0.3,0.8-0.5c0.2-0.2,0.4-0.5,0.5-0.8c0.1-0.3,0.2-0.6,0.2-0.9
			c0-0.5-0.2-0.9-0.5-1.2c-0.1-0.1-0.3-0.3-0.5-0.4c0.2,0,0.3-0.1,0.5-0.2c0.2-0.1,0.4-0.2,0.5-0.3l1.2-0.7c0.2-0.1,0.4-0.2,0.5-0.3
			c0.2-0.1,0.4-0.1,0.6-0.2c0.2,0,0.4,0,0.6,0c0.2,0.1,0.4,0.2,0.5,0.3c0.2,0.2,0.3,0.4,0.4,0.7c0,0.2,0,0.4,0,0.7
			c0,0.2-0.1,0.4-0.2,0.6c-0.1,0.2-0.2,0.3-0.4,0.5c-0.2,0.2-0.5,0.4-0.7,0.5c-0.2,0.1-0.5,0.1-0.7,0.1c-0.2,0-0.5-0.1-0.7-0.2
			c-0.2-0.1-0.5-0.2-0.7-0.4l-0.1,0.1l1.4,1.4l0.1-0.1c0-0.1,0-0.2,0-0.2c0,0,0-0.1,0.1-0.2c0.1-0.1,0.2-0.1,0.3-0.2
			c0.1,0,0.2-0.1,0.3-0.1c0.1-0.1,0.3-0.1,0.4-0.2c0.2-0.1,0.3-0.2,0.5-0.4c0.2-0.3,0.4-0.5,0.6-0.8c0.1-0.3,0.2-0.6,0.2-0.9
			c0-0.3-0.1-0.6-0.2-0.9c-0.1-0.3-0.3-0.6-0.5-0.8c-0.4-0.4-0.7-0.6-1.2-0.5c-0.2,0-0.4,0-0.6,0.1c0.1-0.1,0.2-0.3,0.2-0.5
			c0.1-0.2,0.1-0.4,0.2-0.5l0.4-1.4c0.1-0.2,0.1-0.4,0.2-0.6c0.1-0.2,0.2-0.4,0.3-0.5c0.1-0.2,0.3-0.3,0.4-0.4
			c0.2-0.1,0.4-0.1,0.6-0.1c0.3,0,0.5,0.1,0.7,0.2c0.2,0.1,0.3,0.3,0.5,0.5c0.1,0.2,0.2,0.4,0.2,0.6c0.1,0.2,0.1,0.4,0.1,0.6
			c0,0.3-0.1,0.6-0.2,0.9c-0.1,0.2-0.3,0.5-0.4,0.6c-0.2,0.2-0.4,0.3-0.6,0.4c-0.2,0.1-0.5,0.2-0.8,0.2v0.1h2v-0.2
			c-0.1-0.1-0.2-0.1-0.2-0.1c0,0,0-0.1,0-0.2c0-0.1,0-0.2,0.1-0.3C19.3,12.9,19.4,12.8,19.4,12.7z M14.1,10.1
			c0.1-0.2,0.2-0.5,0.2-0.7l0.1,0.1c0.1,0.1,0.1,0.3,0.2,0.5c0.1,0.2,0.1,0.4,0.1,0.6c0,0.1,0,0.2,0,0.4L14,10.3
			C14,10.2,14.1,10.2,14.1,10.1z M13.4,9.8c0,0.2,0,0.4-0.1,0.6c0,0,0,0.1,0,0.1c-0.1,0.1-0.2,0.1-0.3,0.2c-0.2,0.1-0.3,0.2-0.4,0.2
			c-0.1,0.1-0.2,0.1-0.3,0.2c-0.1,0.1-0.2,0.1-0.3,0.2c-0.1,0.1-0.2,0.1-0.3,0.2c0,0-0.1,0.1-0.1,0.1h0v0c0.2-0.3,0.4-0.5,0.5-0.8
			c0.1-0.3,0.2-0.7,0.2-1c0.2-0.1,0.4-0.3,0.6-0.4c0.1-0.1,0.2-0.1,0.3-0.1C13.4,9.4,13.4,9.6,13.4,9.8z M13,11
			c-0.1,0.2-0.3,0.3-0.6,0.4c-0.2,0.1-0.3,0.1-0.5,0.2c0,0,0,0,0,0c0.1-0.1,0.2-0.2,0.4-0.3c0.2-0.1,0.3-0.2,0.5-0.2
			C12.9,11,13,11,13,11z M11.7,11.3L11.7,11.3c0-0.2,0-0.4,0.1-0.5c0-0.2,0.1-0.4,0.2-0.5c0-0.1,0.1-0.1,0.1-0.2
			c0,0.2,0,0.5-0.1,0.7C11.9,11,11.8,11.2,11.7,11.3z M12,8.1c0.2,0,0.3,0.1,0.5,0.2c0.2,0.1,0.3,0.2,0.5,0.3
			c0.1,0.1,0.2,0.2,0.2,0.3h-0.9c0-0.1,0-0.1-0.1-0.2c-0.1-0.2-0.2-0.4-0.4-0.6L12,8.1z M10.9,8.9c0-0.1,0.1-0.2,0.1-0.3
			c0.2,0.1,0.3,0.2,0.5,0.3c0.1,0.1,0.2,0.3,0.3,0.5c0,0,0,0.1,0,0.1c0,0.1,0,0.2-0.1,0.3c-0.1,0.2-0.1,0.3-0.2,0.5
			c0,0.1-0.1,0.2-0.1,0.3c0,0.1,0,0.2-0.1,0.3c0,0.1,0,0.2,0,0.3c0,0.1,0,0.1,0,0.2c0,0,0,0,0,0c0,0,0,0,0,0c0-0.3-0.1-0.7-0.2-1
			c-0.1-0.3-0.3-0.6-0.5-0.9C10.8,9.5,10.8,9.2,10.9,8.9z M11.3,11.3C11.3,11.3,11.3,11.3,11.3,11.3c-0.1-0.1-0.2-0.3-0.3-0.4
			c-0.1-0.2-0.2-0.3-0.2-0.5c0-0.1,0-0.1,0-0.2c0.2,0.1,0.3,0.3,0.4,0.6C11.3,10.9,11.3,11.1,11.3,11.3z M9.3,8.8
			c0.1-0.1,0.3-0.2,0.5-0.2c0.2-0.1,0.4-0.1,0.6-0.1c0.1,0,0.2,0,0.4,0l-0.6,0.7C10,9.1,10,9.1,9.9,9.1C9.7,9,9.4,8.9,9.2,8.9
			L9.3,8.8z M9.6,9.8c0.2,0,0.4,0,0.6,0.1c0,0,0.1,0,0.1,0c0.1,0.1,0.1,0.2,0.2,0.3c0.1,0.2,0.2,0.3,0.2,0.5
			c0.1,0.1,0.1,0.2,0.2,0.3c0.1,0.1,0.1,0.2,0.2,0.3c0.1,0.1,0.1,0.2,0.2,0.3c0,0,0.1,0.1,0.1,0.1v0h0c-0.3-0.2-0.5-0.4-0.8-0.5
			c-0.3-0.1-0.7-0.2-1-0.2c-0.1-0.2-0.3-0.4-0.4-0.7c0-0.1-0.1-0.2-0.1-0.3C9.2,9.8,9.4,9.8,9.6,9.8z M11.1,11.6L11.1,11.6
			c-0.2,0-0.3,0-0.5-0.1c-0.2,0-0.3-0.1-0.5-0.2c-0.1,0-0.1-0.1-0.2-0.1c0.2,0,0.4,0,0.7,0.1C10.8,11.4,10.9,11.5,11.1,11.6z
			 M7.9,11.4l0-0.2c0-0.2,0.1-0.3,0.2-0.5c0.1-0.2,0.2-0.3,0.3-0.5c0.1-0.1,0.2-0.2,0.3-0.2V11c-0.1,0-0.1,0-0.2,0.1
			C8.3,11.1,8.1,11.3,7.9,11.4z M8.9,13.4c-0.1,0.2-0.1,0.5-0.2,0.7L8.7,14c-0.1-0.1-0.1-0.3-0.2-0.5c-0.1-0.2-0.1-0.4-0.1-0.6
			c0-0.1,0-0.2,0-0.4L9,13.2C9,13.3,9,13.3,8.9,13.4z M8.8,12.4c-0.1,0-0.2-0.1-0.3-0.1c0.1-0.2,0.2-0.3,0.3-0.5
			c0.1-0.1,0.3-0.2,0.5-0.4c0,0,0.1,0,0.1,0c0.1,0,0.2,0,0.3,0.1c0.2,0.1,0.3,0.1,0.5,0.2c0.1,0,0.2,0.1,0.3,0.1
			c0.1,0,0.2,0,0.3,0.1c0.1,0,0.2,0,0.3,0c0.1,0,0.1,0,0.2,0c0,0,0,0,0,0c0,0,0,0,0,0c-0.3,0-0.7,0.1-0.9,0.2
			c-0.3,0.1-0.6,0.3-0.8,0.6C9.3,12.5,9,12.5,8.8,12.4z M11.1,11.9C11.1,12,11.1,12,11.1,11.9c-0.1,0.1-0.3,0.2-0.4,0.3
			c-0.2,0.1-0.3,0.2-0.5,0.2c-0.1,0-0.1,0-0.2,0c0.1-0.2,0.3-0.3,0.6-0.4C10.7,12,10.9,12,11.1,11.9z M9.6,13.7c0-0.2,0-0.4,0.1-0.6
			c0,0,0-0.1,0-0.1c0.1-0.1,0.2-0.1,0.3-0.2c0.2-0.1,0.3-0.2,0.4-0.2c0.1-0.1,0.2-0.1,0.3-0.2c0.1-0.1,0.2-0.1,0.3-0.2
			c0.1-0.1,0.2-0.1,0.3-0.2c0,0,0.1-0.1,0.1-0.1h0v0c-0.2,0.3-0.4,0.5-0.5,0.8c-0.1,0.3-0.2,0.7-0.2,1c-0.2,0.1-0.4,0.3-0.6,0.4
			c-0.1,0-0.2,0.1-0.3,0.1C9.6,14.1,9.6,14,9.6,13.7z M11.3,12.2L11.3,12.2c0,0.2,0,0.4-0.1,0.5c0,0.2-0.1,0.4-0.2,0.5
			c0,0.1-0.1,0.1-0.1,0.2c0-0.2,0-0.5,0.1-0.7C11.1,12.5,11.2,12.4,11.3,12.2z M11,15.4c-0.2,0-0.3-0.1-0.5-0.2
			c-0.2-0.1-0.3-0.2-0.5-0.3c-0.1-0.1-0.2-0.2-0.2-0.3h0.9c0,0.1,0,0.1,0.1,0.2c0.1,0.2,0.2,0.5,0.4,0.6L11,15.4z M12.1,14.6
			c0,0.1-0.1,0.2-0.1,0.3c-0.2-0.1-0.3-0.2-0.5-0.3c-0.1-0.1-0.2-0.3-0.3-0.5c0,0,0-0.1,0-0.1c0-0.1,0-0.2,0.1-0.3
			c0.1-0.2,0.1-0.3,0.2-0.5c0-0.1,0.1-0.2,0.1-0.4c0-0.1,0-0.2,0.1-0.3c0-0.1,0-0.2,0-0.3c0-0.1,0-0.1,0-0.2c0,0,0,0,0,0
			c0,0,0,0,0,0c0,0.3,0.1,0.7,0.2,1c0.1,0.3,0.3,0.6,0.5,0.9C12.2,14.1,12.2,14.3,12.1,14.6z M11.7,12.2
			C11.7,12.2,11.7,12.2,11.7,12.2c0.1,0.1,0.2,0.3,0.3,0.4c0.1,0.2,0.2,0.3,0.2,0.5c0,0.1,0,0.1,0,0.2c-0.2-0.1-0.3-0.3-0.4-0.6
			C11.8,12.6,11.7,12.4,11.7,12.2z M13.7,14.7c-0.1,0.1-0.3,0.2-0.5,0.2C13,15,12.8,15,12.6,15c-0.1,0-0.2,0-0.4,0l0.6-0.7
			c0.1,0,0.1,0.1,0.2,0.1c0.2,0.1,0.5,0.2,0.7,0.2L13.7,14.7z M13.4,13.8c-0.2,0-0.4,0-0.6-0.1c0,0-0.1,0-0.1,0
			c-0.1-0.1-0.1-0.2-0.2-0.3c-0.1-0.2-0.2-0.3-0.2-0.5c-0.1-0.1-0.1-0.2-0.2-0.3c-0.1-0.1-0.1-0.2-0.2-0.3c-0.1-0.1-0.1-0.2-0.2-0.3
			c0,0-0.1-0.1-0.1-0.1v0c0,0,0,0,0,0c0.3,0.2,0.5,0.4,0.8,0.5c0.3,0.1,0.7,0.2,1,0.2c0.1,0.2,0.3,0.4,0.4,0.7
			c0,0.1,0.1,0.2,0.1,0.3C13.8,13.7,13.6,13.8,13.4,13.8z M11.9,11.9L11.9,11.9c0.2,0,0.3,0,0.5,0.1c0.2,0.1,0.3,0.1,0.5,0.2
			c0.1,0,0.1,0.1,0.2,0.1c-0.2,0-0.4,0-0.7-0.1C12.3,12.2,12.1,12.1,11.9,11.9z M13.8,12.1C13.7,12.1,13.7,12.1,13.8,12.1
			c-0.2,0-0.3,0-0.4,0C13.2,12,13,12,12.9,11.9c-0.1,0-0.2-0.1-0.3-0.1c-0.1,0-0.2,0-0.3-0.1c-0.1,0-0.2,0-0.3,0c-0.1,0-0.1,0-0.2,0
			c0,0,0,0,0,0c0,0,0,0,0,0c0.3,0,0.6-0.1,0.9-0.2c0.3-0.1,0.6-0.3,0.8-0.6c0.2,0,0.5,0.1,0.7,0.2c0.1,0,0.2,0.1,0.3,0.1
			c-0.1,0.2-0.2,0.3-0.3,0.5C14.1,11.9,14,12,13.8,12.1z M15,12.2c0,0.2-0.1,0.3-0.2,0.5c-0.1,0.2-0.2,0.3-0.3,0.5
			c-0.1,0.1-0.2,0.2-0.3,0.2v-0.9c0.1,0,0.1,0,0.2-0.1c0.2-0.1,0.4-0.2,0.6-0.4L15,12.2z"/>
	</defs>
	<use xlink:href="#SVGID_3_"  style="overflow:visible;fill-rule:evenodd;clip-rule:evenodd;fill:#980B2C;"/>
	<clipPath id="SVGID_4_">
		<use xlink:href="#SVGID_3_"  style="overflow:visible;"/>
	</clipPath>
</g>
</svg>
