<svg viewBox="0 0 70 70" xmlns="http://www.w3.org/2000/svg">
  <g fill="none" fill-rule="evenodd">
    <path fill="#98002E" d="M0 69.9647h69.999V-.0003H0z"/>
    <g fill="#FEFEFE">
      <path d="M10.0845 41.8091c.135.007.286.012.45.012.206 0 .408-.012.609-.033.197-.023.385-.064.564-.132.176-.066.342-.162.495-.286.153-.124.292-.288.413-.493.192-.324.323-.65.4-.986.072-.338.109-.706.109-1.11 0-.478-.044-.91-.134-1.297-.09-.384-.236-.706-.437-.972-.201-.265-.466-.47-.801-.616-.333-.147-.751-.223-1.254-.223-.151 0-.289.006-.414.01-.091.005-.183.01-.27.014v6.096c.081.006.171.013.27.016m.162.327c-.104-.001-.21-.007-.315-.013-.103-.006-.203-.008-.304-.011-.1-.005-.194-.005-.285-.005h-1.657v-.324h1.019v-6.082h-1.019v-.324h1.804c.086 0 .171 0 .253-.004.083-.001.167-.005.252-.011h.008c.083 0 .169-.002.253-.005.088-.004.174-.006.26-.006.183 0 .349.002.495.011.146.006.282.016.411.032.13.016.252.038.369.066.116.027.242.064.37.108.382.125.715.294.997.505.281.212.512.458.692.735.182.277.314.583.398.91.087.325.128.667.128 1.024 0 .412-.051.785-.151 1.114-.101.332-.24.625-.418.882-.176.257-.382.477-.619.663-.238.185-.49.336-.76.448-.15.068-.293.121-.43.161-.136.037-.277.067-.418.085-.141.018-.295.031-.463.038-.167.005-.358.008-.574.008h-.029c-.083 0-.17 0-.267-.005M16.3535 39.1031h1.739l-.871-2.296-.868 2.296zm1.781 3.003v-.323h.973l-.888-2.355h-1.994l-.891 2.355h.976v.323h-2.168v-.323h.838l2.476-6.57h.356l2.496 6.57h.844v.323h-3.018zM23.2642 42.2437l-2.495-6.542h-.855v-.324h3.027v.324h-.972l1.895 4.951 1.87-4.951h-.959v-.324h2.178v.324h-.856l-2.468 6.542z"/>
      <path d="M26.9121 42.107v-.324h1.018v-6.081h-1.018v-.324h3.148v.324h-1.018v6.081h1.018v.324zM33.1514 41.8091c.137.007.286.012.449.012.204 0 .408-.012.609-.033.197-.023.384-.064.564-.132.173-.066.341-.162.493-.286.154-.124.293-.289.416-.493.19-.324.323-.65.396-.986.074-.338.113-.709.113-1.11 0-.478-.044-.91-.135-1.297-.09-.384-.236-.706-.437-.972-.199-.265-.466-.47-.802-.616-.331-.147-.749-.223-1.254-.223-.151 0-.29.006-.412.01-.092.005-.183.01-.271.014v6.094c.079.008.169.015.271.018m.162.327c-.105-.001-.21-.007-.315-.013-.103-.006-.203-.008-.304-.011-.1-.005-.194-.005-.287-.005h-1.656v-.324h1.018v-6.082h-1.018v-.324h1.803c.086 0 .171 0 .253-.004.086-.001.169-.005.254-.011h.007c.085 0 .168-.002.252-.005.088-.005.175-.006.262-.006.184 0 .348.004.494.011.147.006.284.016.411.032.131.016.253.038.368.066.119.027.243.064.371.108.38.125.714.294.996.505.282.212.512.458.694.735.18.277.312.583.396.91.086.325.128.667.128 1.024 0 .412-.049.785-.151 1.115-.101.331-.24.622-.417.881-.176.257-.383.477-.62.665-.235.182-.489.334-.759.446-.151.068-.296.121-.43.161-.139.037-.275.067-.419.085-.139.018-.294.031-.463.038-.166.005-.357.008-.571.008-.093 0-.192 0-.297-.005M40.2261 42.2369c-.102-.003-.195-.011-.286-.023-.085-.012-.17-.025-.26-.042-.09-.015-.186-.039-.294-.07-.125-.038-.258-.082-.398-.13-.136-.046-.249-.068-.335-.068-.082-.001-.117.019-.117.022-.024.028-.047.065-.068.121l-.027.06h-.3v-2.168h.278l.017.079c.065.322.151.593.253.813.105.219.219.397.338.535.124.142.25.247.38.319.133.076.266.129.402.166.138.034.271.056.394.061.13.007.253.009.366.007.316.002.567-.045.758-.136.197-.094.35-.209.46-.345.115-.14.193-.29.238-.451.049-.168.07-.32.07-.453 0-.204-.035-.372-.108-.508-.074-.143-.167-.263-.28-.363-.115-.101-.24-.182-.377-.245-.138-.065-.271-.114-.396-.152l-1.054-.322c-.506-.156-.894-.362-1.161-.628-.278-.27-.414-.639-.414-1.078 0-.288.054-.557.156-.802.102-.248.249-.463.435-.643.188-.18.411-.324.67-.424.259-.104.543-.155.848-.155.219 0 .407.019.56.058.148.039.275.081.388.128.104.048.196.088.279.125.072.031.14.047.214.047.052 0 .123-.017.19-.145l.027-.049h.28v1.856h-.289l-.012-.082c-.035-.21-.095-.418-.181-.613-.084-.197-.193-.368-.328-.517-.132-.146-.289-.262-.478-.352-.182-.087-.399-.133-.65-.133-.137 0-.294.019-.465.056-.167.04-.323.101-.467.194-.138.092-.254.21-.348.356-.089.141-.138.322-.138.554 0 .183.039.329.108.452.071.125.165.232.279.317.12.092.253.167.403.228.152.064.309.118.463.167l1.11.35c.119.037.265.086.444.145.187.067.368.163.542.29.183.13.335.305.459.516.13.22.192.494.192.819 0 .3-.055.587-.167.86-.113.269-.273.51-.484.72-.213.207-.468.373-.765.497-.303.123-.638.186-1.011.186-.13 0-.244-.002-.343-.007M44.939 40.1558c.075.401.191.731.355.995.164.261.37.453.623.578.251.125.568.192.956.192.381 0 .697-.067.953-.192.255-.125.462-.317.625-.578.162-.264.283-.594.355-.995.071-.401.106-.877.106-1.424 0-.418-.026-.82-.078-1.211-.056-.385-.159-.724-.308-1.024-.149-.295-.355-.528-.621-.699-.255-.172-.599-.261-1.032-.261-.433 0-.777.089-1.035.261-.264.171-.467.404-.617.699-.15.3-.252.639-.307 1.024-.053.391-.081.793-.081 1.211 0 .547.035 1.023.106 1.424zm1.934 2.089c-.471 0-.912-.101-1.319-.297-.399-.193-.748-.454-1.043-.778-.292-.322-.52-.699-.682-1.122-.164-.423-.244-.862-.244-1.316 0-.501.097-.967.297-1.397.195-.426.45-.796.763-1.109.309-.317.661-.563 1.048-.742.392-.18.787-.27 1.18-.27.418 0 .827.089 1.22.27.393.179.743.425 1.052.742.307.314.555.685.739 1.11.186.431.279.895.279 1.396 0 .441-.086.872-.254 1.294-.169.421-.403.795-.698 1.121-.294.327-.644.591-1.04.793-.403.202-.837.305-1.295.305h-.003zM55.521 42.2339l-3.732-5.946v5.494h1.02v.325H50.44v-.325h1.018v-6.08H50.44v-.323h2.115l2.967 4.783v-4.46h-1.02v-.323h2.369v.323h-1.018v6.532zM59.4907 42.2369c-.102-.003-.195-.011-.288-.021-.085-.014-.17-.027-.261-.044-.088-.015-.185-.039-.291-.07-.125-.038-.259-.082-.397-.13-.137-.046-.251-.068-.339-.068-.08 0-.114.019-.116.022-.023.027-.048.065-.069.121l-.024.06h-.3v-2.168h.276l.017.078c.066.323.153.594.253.814.105.219.218.397.342.537.121.14.247.245.376.317.134.076.267.129.403.166.139.034.27.056.394.061.128.007.251.007.367.007.314.002.567-.045.756-.136.199-.094.35-.21.463-.345.113-.14.192-.291.238-.451.048-.168.07-.321.07-.454 0-.203-.037-.371-.108-.507-.075-.143-.169-.263-.28-.363-.118-.101-.242-.183-.379-.245-.139-.065-.27-.114-.394-.153l-1.058-.321c-.502-.156-.891-.362-1.162-.63-.274-.268-.41-.637-.409-1.076 0-.286.05-.556.155-.802.101-.248.246-.463.436-.642.183-.181.411-.325.668-.425.258-.104.543-.155.849-.155.218 0 .406.019.56.058.148.039.275.081.386.131.104.045.197.085.282.122.07.031.14.047.212.047.051 0 .087-.007.096-.013h.006c.002 0 .043-.05.088-.133l.027-.048h.283v1.856h-.29l-.014-.08c-.035-.213-.095-.42-.18-.615-.086-.197-.195-.368-.328-.517-.132-.146-.29-.262-.477-.352-.186-.087-.402-.133-.651-.133-.139 0-.293.019-.467.056-.167.04-.32.101-.464.194-.14.092-.256.21-.35.357-.091.14-.135.32-.136.553.001.183.035.329.105.452.072.125.165.232.282.317.119.092.252.167.399.228.154.064.309.118.464.167l1.111.347c.119.04.266.089.446.148.185.067.368.163.542.29.179.13.333.303.457.516.13.219.193.494.193.819 0 .3-.057.587-.169.86-.112.271-.275.509-.485.72-.211.207-.467.373-.764.497-.301.123-.638.186-1.009.186-.13 0-.244-.002-.343-.007M21.5122 51.0718v-.299h1.003v-2.932h-2.84v2.932h1.004v.299h-3.087V50.7728h1.004l.001-6.018h-1.005v-.298h3.087v.298h-1.004v2.786h2.841v-2.786h-1.004v-.298h3.085v.298h-1.002v6.018h1.002v.299zM26.5244 49.1587c.071.397.188.726.35.985.162.26.365.45.617.576.249.124.565.189.947.189.377 0 .69-.065.944-.189.253-.126.459-.316.621-.576.163-.259.28-.588.352-.985.07-.395.107-.864.107-1.402-.001-.414-.027-.812-.082-1.197-.053-.382-.155-.719-.303-1.014-.149-.293-.351-.524-.613-.696-.257-.17-.596-.257-1.026-.257-.43 0-.768.087-1.024.257-.263.172-.465.403-.613.696-.149.295-.25.632-.302 1.014-.057.385-.082.783-.082 1.197 0 .538.037 1.007.107 1.402zm1.914 2.0480297c-.463.0019703-.897-.0970297-1.294-.2880297-.396-.192-.739-.448-1.027-.767-.288-.318-.511-.687-.673-1.103-.16-.416-.241-.85-.241-1.292 0-.494.098-.953.294-1.378.193-.417.444-.783.749-1.092.307-.309.65-.552 1.033-.729.385-.177.772-.266 1.159-.266.411 0 .812.089 1.201.266.384.177.73.42 1.034.729.303.309.544.677.726 1.096.184.422.275.88.275 1.374 0 .433-.084.857-.251 1.27-.166.414-.396.782-.686 1.103-.29.321-.632.581-1.024.779-.394.198-.817.2980297-1.27.2980297h-.005zM33.6528 45.2447v5.527h1.004v.301h-2.316v-.301h1.003v-6.017h-1.003v-.298h2.182l1.623 4.716 1.622-4.716h2.146v.298h-1.004v6.017h1.004v.301h-3.086v-.301h1.005v-5.587l-2.094 6.075zM40.6904 51.0718V50.7728h1.004v-6.018h-1.004v-.298h5.347v1.736h-.247l-.021-.056c-.077-.233-.16-.438-.248-.61-.085-.173-.189-.315-.308-.431-.119-.114-.257-.199-.42-.255-.164-.057-.365-.086-.607-.086h-1.413v2.626h.5c.193 0 .355-.019.485-.053.124-.033.228-.093.318-.181.089-.088.168-.215.234-.38.068-.165.135-.382.2-.654l.016-.065h.254v2.987h-.254l-.016-.065c-.042-.172-.087-.341-.131-.504-.042-.154-.103-.293-.178-.411-.075-.114-.171-.204-.297-.273-.116-.066-.278-.104-.487-.104h-.647v3.095h1.625c.319 0 .576-.069.781-.199.213-.136.383-.297.515-.485.134-.189.232-.382.295-.586.065-.208.107-.379.123-.51l.011-.073h.261v2.152h-5.691zM49.9693 51.2076c-.128 0-.24-.004-.338-.005-.099-.002-.192-.01-.281-.023-.085-.011-.17-.026-.256-.041-.088-.017-.186-.039-.289-.071-.123-.036-.253-.078-.394-.128-.132-.045-.245-.066-.333-.066-.081-.002-.119.02-.123.024-.023.028-.047.066-.069.12l-.02.055H47.5843V48.9536h.257l.014.068c.065.322.149.589.25.804.103.217.216.396.337.533.121.139.246.244.375.317.132.075.267.129.4.164.135.035.267.055.388.06.13.005.251.009.364.009.312 0 .562-.047.75-.137.195-.091.348-.206.459-.342.113-.142.192-.29.237-.45.047-.166.068-.315.068-.453 0-.198-.037-.365-.108-.503-.073-.14-.166-.259-.279-.357-.115-.102-.237-.183-.373-.245-.137-.065-.267-.113-.391-.15l-1.04-.317c-.498-.152-.88-.357-1.144-.617-.269-.264-.402-.625-.402-1.055 0-.284.052-.549.153-.793.1-.244.242-.453.426-.63.184-.176.403-.316.657-.418.256-.099.534-.15.832-.15.216 0 .399.02.551.059.146.035.273.077.381.126.102.044.196.086.276.122.071.033.141.047.214.047.07.002.104-.012.105-.014.006-.003.046-.053.091-.135l.025-.04h.263v1.811h-.268l-.012-.074c-.035-.211-.096-.413-.179-.609-.085-.194-.193-.364-.325-.51-.131-.144-.289-.262-.476-.35-.181-.088-.396-.133-.646-.133-.137 0-.289.019-.461.058-.165.036-.317.1-.459.191-.141.091-.258.208-.35.354-.088.14-.135.322-.135.552 0 .182.036.329.106.45.072.126.165.233.279.319.118.088.25.163.396.223.154.064.306.117.46.164l1.096.346c.116.035.261.086.435.146.185.061.363.157.535.28.176.13.326.3.449.509.128.215.188.483.188.801 0 .295-.055.578-.164.843-.11.267-.271.505-.477.707-.208.204-.458.369-.75.491-.295.121-.624.182-.987.182h-.006zM34.4556 32.1617c-3.645 0-6.601-2.956-6.601-6.604 0-3.645 2.956-6.6 6.601-6.6 3.647 0 6.602 2.955 6.602 6.6 0 3.648-2.955 6.604-6.602 6.604m0-13.462c-3.787 0-6.857 3.07-6.857 6.858 0 3.789 3.07 6.86 6.857 6.86 3.79 0 6.859-3.071 6.859-6.86 0-3.788-3.069-6.858-6.859-6.858"/>
      <path d="M36.586 25.7779c-.027.092-.064.189-.112.293-.048.103-.11.197-.188.286-.046.054-.1.099-.159.141v-.543c.036-.013.073-.026.11-.04.136-.057.262-.133.376-.226l-.027.089zm-.771-.07c-.016.009-.033.017-.051.025-.058-.008-.124-.02-.197-.047-.1-.035-.194-.065-.282-.09-.075-.023-.143-.038-.203-.051-.061-.01-.123-.021-.184-.03-.062-.008-.127-.013-.199-.014-.032-.001-.068-.004-.106-.004-.001 0-.001 0-.002-.002.001-.002.002-.003.003-.005.204-.013.39-.053.559-.122.198-.081.365-.19.507-.324.134.011.28.044.439.101.061.023.125.051.19.082-.041.094-.103.186-.193.274-.073.074-.166.144-.281.207zm-1.104-.112h.012c.095.003.192.018.295.043.104.029.207.071.306.126.032.017.061.038.091.059-.131.01-.268-.01-.415-.064-.095-.033-.191-.09-.289-.164zm.902 1.063c-.103 0-.219-.019-.345-.052-.018-.006-.035-.013-.053-.018-.037-.047-.074-.103-.107-.174-.047-.094-.091-.183-.135-.264-.037-.068-.074-.127-.109-.178-.036-.051-.072-.101-.109-.151-.037-.05-.081-.101-.129-.151-.021-.025-.047-.051-.073-.078v-.004c.002 0 .004 0 .007.001.151.135.312.238.48.308.197.081.395.123.588.128.086.104.166.231.238.384.027.058.053.123.076.191-.095.037-.203.058-.329.058zm.15.541c-.084.048-.18.091-.287.129-.105.039-.218.061-.334.069-.071.007-.143-.001-.214-.014l.386-.384c.034.018.069.035.105.049.137.057.281.093.428.108l-.084.043zm-1.197-1.454c.004.004.006.005.009.009.065.069.123.149.178.241.053.092.097.193.126.305.01.03.013.067.019.101-.097-.085-.179-.196-.245-.334-.043-.092-.069-.2-.087-.322zm.242 1.393c-.022.06-.05.124-.082.19-.094-.041-.185-.105-.273-.193-.075-.075-.144-.168-.207-.281-.009-.016-.017-.033-.025-.051.007-.059.02-.124.046-.197.034-.1.066-.194.092-.283.021-.075.038-.142.048-.204.011-.061.021-.122.032-.183.006-.061.012-.128.016-.197 0-.034 0-.069.001-.108.001 0 .001 0 .002-.001.003.001.004.002.005.004.013.203.053.389.123.557.081.197.189.366.323.507-.011.134-.044.28-.101.44zm-.633.486c-.092-.028-.189-.064-.294-.112-.102-.048-.197-.111-.284-.187-.053-.047-.1-.103-.142-.162h.543c.013.036.025.074.04.111.058.136.133.263.227.377l-.09-.027zm.184-1.875v.011c-.005.096-.021.195-.046.296-.027.104-.069.206-.125.306-.018.03-.038.061-.06.09-.009-.129.011-.267.064-.411.035-.098.092-.196.167-.292zm-1.065.903c0-.105.018-.221.051-.346.007-.017.013-.035.019-.052.048-.038.102-.074.172-.108.096-.047.185-.092.265-.136.07-.038.129-.072.179-.109.053-.034.103-.072.151-.108.05-.037.101-.08.152-.127.024-.024.049-.048.076-.075h.003v.007c-.134.154-.238.312-.307.481-.081.197-.123.391-.129.587-.102.086-.228.166-.382.239-.06.028-.124.052-.192.075-.038-.095-.058-.204-.058-.328zm.914-1.047c-.002.004-.005.005-.009.008-.07.064-.15.124-.241.178-.091.052-.194.096-.305.128-.032.008-.067.011-.102.017.086-.097.197-.179.334-.243.092-.043.201-.071.323-.088zm-1.393.24c-.061-.021-.125-.048-.19-.081.04-.094.104-.185.193-.273.074-.074.166-.144.28-.208.017-.009.033-.017.051-.023.06.005.124.018.196.044.102.036.197.066.285.092.074.023.142.038.203.05.061.011.122.02.184.03.061.008.128.014.197.016.033.002.068.002.106.003 0 .001.002.001.003.004-.001 0-.003.001-.003.002-.205.012-.392.052-.559.124-.198.08-.365.189-.507.323-.133-.011-.278-.045-.439-.103zm.087.614c-.055.135-.09.277-.105.426l-.045-.085c-.047-.083-.09-.178-.127-.285-.039-.108-.063-.219-.071-.335-.004-.071.003-.141.014-.214l.385.384c-.017.036-.035.073-.051.109zm-.601-1.156l.027-.09c.026-.092.064-.189.112-.292.048-.103.11-.2.188-.288.045-.052.102-.099.161-.141v.545c-.038.011-.074.025-.112.039-.135.058-.262.134-.376.227zm1.904.093h-.014c-.095-.004-.193-.019-.295-.047-.103-.025-.206-.066-.306-.124-.031-.016-.061-.037-.091-.058.131-.01.269.011.413.064.097.033.194.091.293.165zm-.904-1.064c.104 0 .221.019.344.053.018.004.036.011.053.018.038.047.074.103.108.172.048.096.092.185.135.265.038.069.075.128.11.179.035.051.071.102.108.151.039.049.08.098.127.152.023.023.049.049.074.077v.003h-.003c-.154-.136-.314-.239-.484-.309-.196-.081-.392-.124-.586-.128-.088-.101-.168-.23-.239-.384-.028-.058-.053-.122-.076-.192.095-.037.204-.057.329-.057zm-.149-.541c.082-.046.177-.089.285-.129.107-.039.219-.061.335-.07.07-.003.143.003.215.014l-.386.386c-.035-.018-.07-.035-.107-.049-.137-.059-.279-.093-.427-.107l.085-.045zm1.196 1.456c-.003-.004-.005-.007-.01-.011-.063-.068-.122-.149-.175-.241-.056-.091-.098-.192-.129-.305-.008-.031-.011-.067-.017-.1.096.085.177.196.243.333.042.092.071.201.088.324zm-.242-1.394c.022-.061.05-.126.083-.191.093.042.185.104.273.192.074.075.144.17.206.282.01.017.016.035.025.05-.007.06-.019.125-.045.199-.036.1-.066.196-.093.283-.021.074-.038.141-.048.203-.011.061-.021.123-.03.183-.008.062-.014.128-.016.198 0 .033-.002.068-.003.105-.001.001-.002.003-.002.004-.001-.003-.003-.004-.004-.005-.013-.202-.053-.389-.123-.558-.081-.196-.19-.365-.324-.505.011-.134.044-.281.101-.44zm.634-.487c.091.027.19.063.291.112.103.049.199.111.286.188.054.046.101.102.143.16h-.546c-.011-.035-.024-.073-.039-.111-.057-.136-.132-.26-.226-.376l.091.027zm-.185 1.875v-.013c.005-.094.02-.192.047-.295.026-.102.067-.204.124-.305.018-.031.037-.06.059-.09.01.132-.011.268-.063.413-.034.096-.091.192-.167.29zm.809-.187c-.086.097-.197.18-.335.244-.092.043-.201.071-.324.089.004-.005.006-.007.01-.01.069-.063.15-.123.242-.177.09-.054.193-.097.304-.128.032-.009.068-.013.103-.018zm.257-.714c0 .103-.018.219-.054.344-.004.019-.012.034-.017.052-.048.037-.102.074-.173.109-.096.046-.183.091-.265.135-.068.037-.128.073-.178.109-.052.035-.103.072-.152.11-.049.036-.099.078-.151.126-.024.023-.049.049-.077.075h-.004v-.006c.134-.153.239-.312.308-.482.083-.197.125-.394.131-.588.099-.086.228-.166.382-.236.059-.029.122-.055.192-.079.037.095.058.206.058.331zm.389.193c.057-.137.092-.279.109-.428l.044.085c.046.084.087.179.127.286.038.105.061.217.068.334.006.071-.002.141-.013.214l-.385-.386c.019-.034.035-.068.05-.105zm3.212 1.501c.035-.074.063-.163.091-.268.025-.1.039-.23.039-.383 0-.21-.037-.403-.103-.581-.073-.177-.169-.33-.292-.458-.122-.126-.267-.225-.436-.295-.169-.07-.353-.104-.549-.104-.303 0-.542.091-.723.271-.079.082-.15.182-.217.295-.023-.1-.051-.194-.096-.28-.056-.12-.106-.219-.146-.297l-.386-.739c-.056-.105-.106-.213-.154-.324-.046-.112-.077-.223-.093-.334-.016-.114-.009-.223.022-.333.03-.111.093-.216.192-.315.124-.122.251-.2.384-.228.131-.03.261-.031.387-.003.127.027.246.076.355.146.11.071.204.142.277.216.134.133.228.273.279.422.052.149.075.299.068.449-.009.152-.042.301-.1.449-.059.149-.135.289-.229.418l.056.055.842-.84-.065-.066c-.069.019-.116.026-.141.024-.024-.004-.056-.026-.097-.066-.043-.043-.076-.094-.1-.155-.023-.06-.049-.128-.079-.204-.029-.077-.071-.16-.126-.25-.054-.092-.135-.192-.244-.301-.148-.149-.309-.26-.484-.337-.175-.075-.351-.114-.528-.118-.177-.002-.349.031-.517.099-.17.071-.323.175-.462.314-.214.214-.319.449-.319.704 0 .113.021.234.055.36-.087-.054-.174-.098-.266-.131-.127-.044-.232-.078-.315-.105l-.794-.247c-.114-.035-.228-.076-.338-.123-.113-.046-.213-.103-.304-.17-.089-.068-.163-.153-.221-.251-.055-.099-.084-.218-.084-.358 0-.175.037-.32.109-.433.071-.114.164-.207.273-.276.108-.07.227-.121.355-.148.126-.028.242-.042.348-.042.188 0 .353.032.495.102.142.067.264.157.365.268.101.112.184.242.246.389.064.146.109.3.136.456h.077v-1.19h-.091c-.034.061-.063.1-.081.117-.02.013-.059.021-.116.021-.062 0-.121-.013-.18-.039-.06-.027-.127-.055-.201-.089-.075-.033-.163-.061-.266-.089-.104-.026-.231-.038-.384-.038-.21 0-.405.033-.582.104-.176.071-.33.167-.456.289-.127.124-.226.27-.297.437-.069.168-.105.353-.105.549 0 .302.091.543.272.724.081.078.182.149.295.216-.099.023-.194.053-.28.093-.121.06-.219.11-.296.151l-.739.384c-.106.057-.214.108-.326.155-.111.045-.223.077-.334.093-.112.015-.224.007-.333-.021-.11-.03-.215-.095-.313-.194-.123-.124-.2-.251-.23-.383-.029-.132-.031-.261-.002-.388.027-.127.076-.246.146-.355.07-.11.142-.202.216-.277.133-.132.274-.225.422-.278.15-.054.298-.076.45-.068.149.007.298.041.447.099.149.059.287.135.418.229l.056-.057-.841-.839-.065.064c.018.068.027.113.023.139-.004.025-.024.057-.064.098-.043.043-.096.077-.157.1-.06.022-.128.049-.204.079-.077.029-.159.072-.251.125-.09.054-.191.137-.298.245-.15.147-.262.309-.338.484-.077.175-.115.353-.119.528-.002.176.031.35.101.517.068.17.174.323.313.463.215.214.448.32.704.318.113-.001.233-.019.361-.055-.054.088-.099.176-.131.264-.044.128-.078.234-.104.317l-.252.797c-.034.112-.073.225-.12.335-.047.113-.104.214-.172.304-.068.09-.151.162-.249.22-.097.056-.219.084-.357.084-.176 0-.32-.035-.435-.107-.113-.075-.206-.163-.276-.273-.069-.109-.118-.228-.146-.355-.03-.127-.045-.242-.045-.347 0-.189.035-.354.103-.497.068-.143.158-.264.268-.365.113-.101.242-.183.39-.246.146-.064.298-.11.456-.134v-.08h-1.189v.092c.06.036.099.062.114.083.016.018.023.057.023.114 0 .061-.013.122-.038.181-.028.058-.056.126-.091.2-.031.074-.061.165-.088.266-.025.103-.04.232-.04.386 0 .21.036.402.106.58.069.178.167.33.289.457.124.127.269.226.438.295.168.07.351.106.549.106.301 0 .542-.091.722-.274.079-.08.15-.18.216-.293.023.099.054.193.095.279.058.121.109.221.149.298l.385.74c.055.104.108.211.153.326.047.111.078.22.093.334.016.11.01.221-.02.33-.029.11-.093.216-.193.313-.124.124-.252.201-.384.231-.13.03-.259.031-.387.003-.127-.028-.247-.077-.357-.147-.109-.069-.201-.141-.275-.216-.133-.133-.227-.274-.279-.422-.053-.149-.075-.299-.067-.448.007-.151.041-.302.1-.449.06-.147.135-.288.226-.418l-.055-.056-.84.84.065.065c.068-.019.114-.025.138-.023.026.004.057.026.1.067.042.042.075.094.099.155.023.059.05.128.08.203.028.078.069.161.124.252.054.091.135.19.244.299.148.149.311.261.485.338.175.075.351.115.527.118.177.003.349-.029.518-.1.169-.07.324-.175.464-.312.213-.215.318-.451.316-.705 0-.113-.02-.235-.054-.361.087.053.176.1.266.13.127.043.232.079.314.105l.795.25c.114.036.228.076.34.121.11.047.212.103.301.173.09.067.164.149.22.247.059.098.086.219.086.359 0 .176-.037.32-.109.434-.071.114-.162.206-.273.275-.108.07-.227.12-.354.149-.126.027-.243.041-.349.041-.188 0-.353-.033-.496-.1-.142-.069-.262-.158-.364-.271-.102-.111-.184-.24-.247-.387-.063-.148-.108-.298-.134-.457h-.08v1.19h.093c.036-.062.062-.099.082-.115.019-.015.059-.024.114-.024.061 0 .124.012.181.04.06.027.127.056.202.089.073.033.162.062.266.089.101.026.23.037.383.037.21 0 .405-.033.582-.103.178-.07.33-.166.457-.289.127-.122.225-.269.296-.437.069-.169.105-.351.105-.55 0-.3-.091-.543-.272-.721-.081-.079-.182-.152-.296-.217.1-.023.194-.054.28-.095.122-.057.22-.109.299-.148l.737-.386c.105-.056.215-.107.326-.152.11-.047.223-.078.335-.095.111-.015.223-.008.332.021.11.029.213.094.313.194.124.123.2.252.23.382.03.131.03.261.001.389-.026.125-.075.245-.145.355-.07.11-.143.202-.216.275-.134.134-.275.228-.423.28-.148.053-.298.075-.449.067-.149-.008-.3-.04-.449-.1-.148-.058-.288-.133-.417-.227l-.055.056.842.84.064-.064c-.019-.07-.027-.115-.022-.14.001-.024.022-.057.063-.097.045-.044.096-.077.156-.1.061-.026.129-.05.205-.079.075-.03.159-.072.25-.126.092-.053.192-.136.301-.244.148-.148.26-.31.336-.486.076-.175.115-.351.119-.527.004-.176-.032-.348-.1-.518-.071-.169-.175-.322-.314-.462-.213-.212-.448-.321-.703-.317-.114 0-.235.021-.362.054.053-.086.1-.175.132-.265.042-.128.078-.232.104-.315l.25-.795c.034-.115.075-.228.12-.338.047-.112.104-.213.172-.304.068-.089.151-.161.251-.219.096-.057.217-.086.357-.086.174 0 .319.037.433.109.114.071.207.162.276.273.07.11.12.228.147.354.03.127.044.243.044.348 0 .189-.035.354-.102.498-.068.142-.158.262-.268.363-.114.1-.242.182-.389.246-.147.065-.299.108-.457.136v.078h1.189v-.092c-.06-.035-.1-.064-.114-.08-.016-.024-.023-.061-.023-.118 0-.06.012-.12.039-.181.026-.058.055-.125.087-.199z"/>
    </g>
  </g>
</svg>