<?xml version="1.0" encoding="utf-8"?>
<!-- Generator: Adobe Illustrator 23.0.1, SVG Export Plug-In . SVG Version: 6.00 Build 0)  -->
<svg version="1.1" id="Layer_1" xmlns="http://www.w3.org/2000/svg" xmlns:xlink="http://www.w3.org/1999/xlink" x="0px" y="0px"
	 viewBox="0 0 92 56" style="enable-background:new 0 0 92 56;" xml:space="preserve">
<g>
	<defs>
		<path id="SVGID_1_" d="M5,40.3c-0.2,0-0.3,0-0.5,0c-0.2,0-0.3,0-0.5,0c-0.2,0-0.3,0-0.5,0H0.7v-0.4v-0.2h1.7V29.2H0.7v-0.6h3
			c0.1,0,0.3,0,0.4,0c0.1,0,0.3,0,0.4,0h0h0c0.1,0,0.3,0,0.4,0c0.1,0,0.3,0,0.4,0c0.3,0,0.6,0,0.8,0c0.2,0,0.5,0,0.7,0.1
			c0.2,0,0.4,0.1,0.6,0.1c0.2,0,0.4,0.1,0.6,0.2c0.6,0.2,1.2,0.5,1.7,0.9c0.5,0.4,0.9,0.8,1.2,1.3c0.3,0.5,0.5,1,0.7,1.6
			c0.1,0.6,0.2,1.1,0.2,1.8c0,0.7-0.1,1.3-0.3,1.9c-0.2,0.6-0.4,1.1-0.7,1.5c-0.3,0.4-0.6,0.8-1,1.1c-0.4,0.3-0.8,0.6-1.3,0.8
			c-0.3,0.1-0.5,0.2-0.7,0.3c-0.2,0.1-0.5,0.1-0.7,0.1c-0.2,0-0.5,0.1-0.8,0.1c-0.3,0-0.6,0-1,0h0C5.3,40.3,5.2,40.3,5,40.3
			 M4.7,39.7c0.2,0,0.5,0,0.7,0c0.3,0,0.7,0,1-0.1c0.3,0,0.6-0.1,0.9-0.2C7.7,39.4,8,39.2,8.3,39c0.3-0.2,0.5-0.5,0.7-0.8
			c0.3-0.6,0.5-1.1,0.7-1.7c0.1-0.6,0.2-1.2,0.2-1.9c0-0.8-0.1-1.6-0.2-2.2c-0.1-0.7-0.4-1.2-0.7-1.7c-0.3-0.5-0.8-0.8-1.3-1.1
			c-0.6-0.3-1.2-0.4-2.1-0.4c-0.3,0-0.5,0-0.7,0c-0.2,0-0.3,0-0.4,0v10.5C4.4,39.7,4.6,39.7,4.7,39.7"/>
	</defs>
	<use xlink:href="#SVGID_1_"  style="overflow:visible;fill-rule:evenodd;clip-rule:evenodd;fill:#FFFFFF;"/>
	<clipPath id="SVGID_2_">
		<use xlink:href="#SVGID_1_"  style="overflow:visible;"/>
	</clipPath>
</g>
<g>
	<defs>
		<path id="SVGID_3_" d="M18.1,40.2v-0.6h1.6l-1.5-4h-3.3l-1.5,4h1.6v0.6h-3.6v-0.4v-0.2h1.4L17,28.4h0.6l4.1,11.3h1.4v0.6H18.1z
			 M15.2,35.1H18l-1.4-3.9L15.2,35.1z"/>
	</defs>
	<use xlink:href="#SVGID_3_"  style="overflow:visible;fill-rule:evenodd;clip-rule:evenodd;fill:#FFFFFF;"/>
	<clipPath id="SVGID_4_">
		<use xlink:href="#SVGID_3_"  style="overflow:visible;"/>
	</clipPath>
</g>
<g>
	<defs>
		<polygon id="SVGID_5_" points="26.6,40.5 22.5,29.2 21.1,29.2 21.1,29.1 21.1,28.9 21.1,28.7 26.1,28.7 26.1,29.2 24.5,29.2 
			27.6,37.7 30.7,29.2 29.2,29.2 29.2,28.7 32.8,28.7 32.8,29.2 31.3,29.2 27.2,40.5 		"/>
	</defs>
	<use xlink:href="#SVGID_5_"  style="overflow:visible;fill-rule:evenodd;clip-rule:evenodd;fill:#FFFFFF;"/>
	<clipPath id="SVGID_6_">
		<use xlink:href="#SVGID_5_"  style="overflow:visible;"/>
	</clipPath>
</g>
<g>
	<defs>
		<polygon id="SVGID_7_" points="32.7,40.2 32.7,39.8 32.7,39.7 34.4,39.7 34.4,29.2 32.7,29.2 32.7,28.7 37.9,28.7 37.9,29.2 
			36.2,29.2 36.2,39.7 37.9,39.7 37.9,40.2 		"/>
	</defs>
	<use xlink:href="#SVGID_7_"  style="overflow:visible;fill-rule:evenodd;clip-rule:evenodd;fill:#FFFFFF;"/>
	<clipPath id="SVGID_8_">
		<use xlink:href="#SVGID_7_"  style="overflow:visible;"/>
	</clipPath>
</g>
<g>
	<defs>
		<path id="SVGID_9_" d="M43.3,40.3c-0.2,0-0.3,0-0.5,0c-0.2,0-0.3,0-0.5,0c-0.2,0-0.3,0-0.5,0h-2.8v-0.4v-0.2h1.7V29.2h-1.7v-0.6h3
			c0.1,0,0.3,0,0.4,0c0.1,0,0.3,0,0.4,0h0h0c0.1,0,0.3,0,0.4,0c0.1,0,0.3,0,0.4,0c0.3,0,0.6,0,0.8,0c0.2,0,0.5,0,0.7,0.1
			c0.2,0,0.4,0.1,0.6,0.1c0.2,0,0.4,0.1,0.6,0.2c0.6,0.2,1.2,0.5,1.7,0.9c0.5,0.4,0.9,0.8,1.2,1.3c0.3,0.5,0.5,1,0.7,1.6
			c0.1,0.6,0.2,1.1,0.2,1.8c0,0.7-0.1,1.3-0.3,1.9c-0.2,0.6-0.4,1.1-0.7,1.5c-0.3,0.4-0.6,0.8-1,1.1c-0.4,0.3-0.8,0.6-1.3,0.8
			c-0.3,0.1-0.5,0.2-0.7,0.3c-0.2,0.1-0.5,0.1-0.7,0.1c-0.2,0-0.5,0.1-0.8,0.1c-0.3,0-0.6,0-1,0C43.7,40.3,43.5,40.3,43.3,40.3
			 M43.1,39.7c0.2,0,0.5,0,0.7,0c0.3,0,0.7,0,1-0.1c0.3,0,0.6-0.1,0.9-0.2c0.3-0.1,0.6-0.3,0.8-0.5c0.3-0.2,0.5-0.5,0.7-0.8
			c0.3-0.6,0.5-1.1,0.7-1.7c0.1-0.6,0.2-1.2,0.2-1.9c0-0.8-0.1-1.6-0.2-2.2c-0.1-0.7-0.4-1.2-0.7-1.7c-0.3-0.5-0.8-0.8-1.3-1.1
			c-0.5-0.3-1.2-0.4-2.1-0.4c-0.3,0-0.5,0-0.7,0c-0.2,0-0.3,0-0.5,0v10.5C42.8,39.7,42.9,39.7,43.1,39.7"/>
	</defs>
	<use xlink:href="#SVGID_9_"  style="overflow:visible;fill-rule:evenodd;clip-rule:evenodd;fill:#FFFFFF;"/>
	<clipPath id="SVGID_10_">
		<use xlink:href="#SVGID_9_"  style="overflow:visible;"/>
	</clipPath>
</g>
<g>
	<defs>
		<path id="SVGID_11_" d="M54.8,40.5c-0.2,0-0.3,0-0.5,0c-0.1,0-0.3,0-0.4-0.1c-0.2,0-0.3-0.1-0.5-0.1c-0.2-0.1-0.4-0.1-0.7-0.2
			c-0.2-0.1-0.4-0.1-0.6-0.1c-0.1,0-0.2,0-0.2,0c0,0-0.1,0.1-0.1,0.2l0,0.1h-0.5v-3.6v-0.2h0.5l0,0.1c0.1,0.6,0.3,1,0.4,1.4
			c0.2,0.4,0.4,0.7,0.6,0.9c0.2,0.2,0.4,0.4,0.6,0.5c0.2,0.1,0.4,0.2,0.7,0.3c0.2,0.1,0.5,0.1,0.7,0.1c0.2,0,0.4,0,0.6,0
			c0.5,0,0.9-0.1,1.3-0.2c0.3-0.2,0.6-0.4,0.8-0.6c0.2-0.2,0.3-0.5,0.4-0.8c0.1-0.3,0.1-0.5,0.1-0.8c0-0.4-0.1-0.6-0.2-0.9
			c-0.1-0.2-0.3-0.5-0.5-0.6c-0.2-0.2-0.4-0.3-0.6-0.4c-0.2-0.1-0.5-0.2-0.7-0.3l-1.8-0.6c-0.8-0.3-1.5-0.6-1.9-1.1
			c-0.5-0.5-0.7-1.1-0.7-1.9c0-0.5,0.1-1,0.3-1.4c0.2-0.4,0.4-0.8,0.7-1.1c0.3-0.3,0.7-0.6,1.1-0.7c0.4-0.2,0.9-0.3,1.4-0.3
			c0.4,0,0.7,0,0.9,0.1c0.2,0.1,0.5,0.1,0.6,0.2c0.2,0.1,0.3,0.2,0.5,0.2c0.1,0.1,0.2,0.1,0.4,0.1c0.1,0,0.2,0,0.3-0.2l0-0.1h0.5
			v3.2h-0.5l0-0.1c-0.1-0.4-0.2-0.7-0.3-1.1c-0.1-0.3-0.3-0.6-0.5-0.9c-0.2-0.3-0.5-0.4-0.8-0.6C55.9,29,55.6,29,55.2,29
			c-0.2,0-0.5,0-0.8,0.1c-0.3,0.1-0.5,0.2-0.8,0.3c-0.2,0.2-0.4,0.4-0.6,0.6c-0.1,0.2-0.2,0.6-0.2,1c0,0.3,0.1,0.6,0.2,0.8
			c0.1,0.2,0.3,0.4,0.5,0.5c0.2,0.2,0.4,0.3,0.7,0.4c0.3,0.1,0.5,0.2,0.8,0.3l1.8,0.6c0.2,0.1,0.4,0.1,0.7,0.2
			c0.3,0.1,0.6,0.3,0.9,0.5c0.3,0.2,0.6,0.5,0.8,0.9c0.2,0.4,0.3,0.8,0.3,1.4c0,0.5-0.1,1-0.3,1.5c-0.2,0.5-0.5,0.9-0.8,1.2
			c-0.4,0.4-0.8,0.6-1.3,0.9c-0.5,0.2-1.1,0.3-1.7,0.3C55.2,40.5,55,40.5,54.8,40.5"/>
	</defs>
	<use xlink:href="#SVGID_11_"  style="overflow:visible;fill-rule:evenodd;clip-rule:evenodd;fill:#FFFFFF;"/>
	<clipPath id="SVGID_12_">
		<use xlink:href="#SVGID_11_"  style="overflow:visible;"/>
	</clipPath>
</g>
<g>
	<defs>
		<path id="SVGID_13_" d="M65.9,40.5c-0.8,0-1.5-0.2-2.2-0.5c-0.7-0.3-1.2-0.8-1.7-1.3c-0.5-0.6-0.9-1.2-1.1-1.9
			c-0.3-0.7-0.4-1.5-0.4-2.3c0-0.9,0.2-1.7,0.5-2.4c0.3-0.7,0.7-1.4,1.3-1.9c0.5-0.5,1.1-1,1.7-1.3c0.7-0.3,1.3-0.5,2-0.5
			c0.7,0,1.4,0.2,2,0.5c0.7,0.3,1.2,0.7,1.7,1.3c0.5,0.5,0.9,1.2,1.2,1.9c0.3,0.7,0.5,1.5,0.5,2.4c0,0.8-0.1,1.5-0.4,2.2
			c-0.3,0.7-0.7,1.4-1.2,1.9c-0.5,0.6-1.1,1-1.7,1.4C67.4,40.3,66.7,40.5,65.9,40.5L65.9,40.5z M62.7,36.9c0.1,0.7,0.3,1.3,0.6,1.7
			c0.3,0.4,0.6,0.8,1,1c0.4,0.2,0.9,0.3,1.6,0.3c0.6,0,1.2-0.1,1.6-0.3c0.4-0.2,0.8-0.5,1-1c0.3-0.5,0.5-1,0.6-1.7
			c0.1-0.7,0.2-1.5,0.2-2.4c0-0.7,0-1.4-0.1-2.1c-0.1-0.7-0.3-1.2-0.5-1.8c-0.2-0.5-0.6-0.9-1-1.2c-0.4-0.3-1-0.4-1.7-0.4
			s-1.3,0.2-1.7,0.4c-0.4,0.3-0.8,0.7-1,1.2c-0.3,0.5-0.4,1.1-0.5,1.8c-0.1,0.7-0.1,1.4-0.1,2.1C62.5,35.4,62.6,36.2,62.7,36.9z"/>
	</defs>
	<use xlink:href="#SVGID_13_"  style="overflow:visible;fill-rule:evenodd;clip-rule:evenodd;fill:#FFFFFF;"/>
	<clipPath id="SVGID_14_">
		<use xlink:href="#SVGID_13_"  style="overflow:visible;"/>
	</clipPath>
</g>
<g>
	<defs>
		<polygon id="SVGID_15_" points="80.3,40.5 74.1,30.2 74.1,39.7 75.8,39.7 75.8,40.2 71.8,40.2 71.8,39.9 71.8,39.7 73.5,39.7 
			73.5,29.2 71.8,29.2 71.8,28.7 75.3,28.7 80.3,36.9 80.3,29.2 78.6,29.2 78.6,28.7 82.5,28.7 82.5,29.2 80.8,29.2 80.8,40.5 		"/>
	</defs>
	<use xlink:href="#SVGID_15_"  style="overflow:visible;fill-rule:evenodd;clip-rule:evenodd;fill:#FFFFFF;"/>
	<clipPath id="SVGID_16_">
		<use xlink:href="#SVGID_15_"  style="overflow:visible;"/>
	</clipPath>
</g>
<g>
	<defs>
		<path id="SVGID_17_" d="M86.9,40.5c-0.2,0-0.3,0-0.5,0c-0.1,0-0.3,0-0.4-0.1c-0.1,0-0.3-0.1-0.5-0.1c-0.2-0.1-0.4-0.1-0.7-0.2
			c-0.2-0.1-0.4-0.1-0.6-0.1c-0.1,0-0.2,0-0.2,0c0,0-0.1,0.1-0.1,0.2l0,0.1h-0.5v-3.6v-0.2h0.5l0,0.1c0.1,0.6,0.3,1,0.4,1.4
			c0.2,0.4,0.4,0.7,0.6,0.9c0.2,0.2,0.4,0.4,0.6,0.5c0.2,0.1,0.4,0.2,0.7,0.3c0.2,0.1,0.4,0.1,0.7,0.1c0.2,0,0.4,0,0.6,0
			c0.5,0,0.9-0.1,1.3-0.2c0.3-0.2,0.6-0.4,0.8-0.6c0.2-0.2,0.3-0.5,0.4-0.8c0.1-0.3,0.1-0.6,0.1-0.8c0-0.3-0.1-0.6-0.2-0.9
			c-0.1-0.2-0.3-0.5-0.5-0.6c-0.2-0.2-0.4-0.3-0.6-0.4c-0.2-0.1-0.4-0.2-0.7-0.3l-1.8-0.6c-0.8-0.3-1.5-0.6-1.9-1.1
			c-0.5-0.5-0.7-1.1-0.7-1.8c0-0.5,0.1-1,0.3-1.4c0.2-0.4,0.4-0.8,0.7-1.1c0.3-0.3,0.7-0.6,1.1-0.7c0.4-0.2,0.9-0.3,1.4-0.3
			c0.4,0,0.7,0,0.9,0.1c0.2,0.1,0.5,0.1,0.6,0.2c0.2,0.1,0.3,0.1,0.5,0.2c0.1,0.1,0.2,0.1,0.4,0.1c0.1,0,0.1,0,0.2,0h0
			c0,0,0.1-0.1,0.1-0.2l0-0.1h0.5v3.2h-0.5l0-0.1c-0.1-0.4-0.2-0.7-0.3-1.1c-0.1-0.3-0.3-0.6-0.5-0.9c-0.2-0.3-0.5-0.4-0.8-0.6
			C87.9,29,87.6,29,87.2,29c-0.2,0-0.5,0-0.8,0.1c-0.3,0.1-0.5,0.2-0.8,0.3c-0.2,0.2-0.4,0.4-0.6,0.6c-0.2,0.2-0.2,0.6-0.2,0.9
			c0,0.3,0.1,0.6,0.2,0.8c0.1,0.2,0.3,0.4,0.5,0.5c0.2,0.2,0.4,0.3,0.7,0.4c0.3,0.1,0.5,0.2,0.8,0.3l1.8,0.6
			c0.2,0.1,0.4,0.2,0.7,0.3c0.3,0.1,0.6,0.3,0.9,0.5c0.3,0.2,0.6,0.5,0.8,0.9c0.2,0.4,0.3,0.8,0.3,1.4c0,0.5-0.1,1-0.3,1.5
			c-0.2,0.5-0.5,0.9-0.8,1.2c-0.4,0.4-0.8,0.6-1.3,0.9c-0.5,0.2-1.1,0.3-1.7,0.3C87.2,40.5,87,40.5,86.9,40.5"/>
	</defs>
	<use xlink:href="#SVGID_17_"  style="overflow:visible;fill-rule:evenodd;clip-rule:evenodd;fill:#FFFFFF;"/>
	<clipPath id="SVGID_18_">
		<use xlink:href="#SVGID_17_"  style="overflow:visible;"/>
	</clipPath>
</g>
<g>
	<defs>
		<polygon id="SVGID_19_" points="23.7,55.6 23.7,55.5 23.7,55.1 25.4,55.1 25.4,50.1 20.7,50.1 20.7,55.1 22.3,55.1 22.3,55.3 
			22.3,55.6 17.2,55.6 17.2,55.5 17.2,55.3 17.2,55.1 18.9,55.1 18.9,44.8 17.2,44.8 17.2,44.6 17.2,44.3 22.3,44.3 22.3,44.4 
			22.3,44.8 20.7,44.8 20.7,49.6 25.4,49.6 25.4,44.8 23.7,44.8 23.7,44.6 23.7,44.3 28.9,44.3 28.9,44.4 28.9,44.8 27.2,44.8 
			27.2,55.1 28.9,55.1 28.9,55.3 28.9,55.6 		"/>
	</defs>
	<use xlink:href="#SVGID_19_"  style="overflow:visible;fill-rule:evenodd;clip-rule:evenodd;fill:#FFFFFF;"/>
	<clipPath id="SVGID_20_">
		<use xlink:href="#SVGID_19_"  style="overflow:visible;"/>
	</clipPath>
</g>
<g>
	<defs>
		<path id="SVGID_21_" d="M35.2,55.9c-0.8,0-1.5-0.2-2.2-0.5c-0.7-0.3-1.2-0.8-1.7-1.3c-0.5-0.5-0.8-1.2-1.1-1.9
			c-0.3-0.7-0.4-1.5-0.4-2.2c0-0.8,0.2-1.6,0.5-2.4c0.3-0.7,0.7-1.3,1.2-1.9c0.5-0.5,1.1-0.9,1.7-1.3c0.6-0.3,1.3-0.5,1.9-0.5
			c0.7,0,1.3,0.2,2,0.5c0.6,0.3,1.2,0.7,1.7,1.3c0.5,0.5,0.9,1.2,1.2,1.9c0.3,0.7,0.5,1.5,0.5,2.4c0,0.7-0.1,1.5-0.4,2.2
			c-0.3,0.7-0.7,1.3-1.1,1.9c-0.5,0.6-1,1-1.7,1.3C36.7,55.7,36,55.9,35.2,55.9L35.2,55.9z M32.1,52.3c0.1,0.7,0.3,1.2,0.6,1.7
			c0.3,0.4,0.6,0.8,1,1c0.4,0.2,0.9,0.3,1.6,0.3c0.6,0,1.1-0.1,1.6-0.3c0.4-0.2,0.8-0.5,1-1c0.3-0.4,0.5-1,0.6-1.7
			c0.1-0.7,0.2-1.5,0.2-2.4c0-0.7,0-1.4-0.1-2.1c-0.1-0.7-0.3-1.2-0.5-1.7c-0.2-0.5-0.6-0.9-1-1.2c-0.4-0.3-1-0.4-1.7-0.4
			c-0.7,0-1.3,0.1-1.7,0.4c-0.4,0.3-0.8,0.7-1,1.2c-0.2,0.5-0.4,1.1-0.5,1.7c-0.1,0.7-0.1,1.3-0.1,2.1
			C31.9,50.9,31.9,51.7,32.1,52.3z"/>
	</defs>
	<use xlink:href="#SVGID_21_"  style="overflow:visible;fill-rule:evenodd;clip-rule:evenodd;fill:#FFFFFF;"/>
	<clipPath id="SVGID_22_">
		<use xlink:href="#SVGID_21_"  style="overflow:visible;"/>
	</clipPath>
</g>
<g>
	<defs>
		<polygon id="SVGID_23_" points="43.9,45.6 43.9,55.1 45.6,55.1 45.6,55.3 45.6,55.6 41.7,55.6 41.7,55.5 41.7,55.3 41.7,55.1 
			43.4,55.1 43.4,44.8 41.7,44.8 41.7,44.6 41.7,44.3 45.4,44.3 48.1,52.4 50.8,44.3 54.3,44.3 54.3,44.4 54.3,44.8 52.7,44.8 
			52.7,55.1 54.3,55.1 54.3,55.3 54.3,55.6 49.2,55.6 49.2,55.5 49.2,55.1 50.9,55.1 50.9,45.5 47.4,56 		"/>
	</defs>
	<use xlink:href="#SVGID_23_"  style="overflow:visible;fill-rule:evenodd;clip-rule:evenodd;fill:#FFFFFF;"/>
	<clipPath id="SVGID_24_">
		<use xlink:href="#SVGID_23_"  style="overflow:visible;"/>
	</clipPath>
</g>
<g>
	<defs>
		<path id="SVGID_25_" d="M55.6,55.6v-0.1v-0.2v-0.1h1.7V44.8h-1.7v-0.1v-0.4h8.9v3h-0.1h-0.3l0-0.1c-0.1-0.4-0.3-0.8-0.4-1
			c-0.1-0.3-0.3-0.5-0.5-0.7c-0.2-0.2-0.4-0.3-0.7-0.4c-0.3-0.1-0.6-0.1-1-0.1h-2.3v4.5h0.8c0.3,0,0.6,0,0.8-0.1
			c0.2-0.1,0.4-0.2,0.5-0.3c0.1-0.2,0.3-0.4,0.4-0.7c0.1-0.3,0.2-0.7,0.3-1.1l0-0.1h0.1h0.3v5.1h-0.1H62l0-0.1
			c-0.1-0.3-0.1-0.6-0.2-0.9c-0.1-0.3-0.2-0.5-0.3-0.7c-0.1-0.2-0.3-0.4-0.5-0.5c-0.2-0.1-0.5-0.2-0.8-0.2h-1.1v5.3h2.7
			c0.5,0,1-0.1,1.3-0.3c0.4-0.2,0.6-0.5,0.9-0.8c0.2-0.3,0.4-0.7,0.5-1c0.1-0.4,0.2-0.7,0.2-0.9l0-0.1h0.1h0.3v3.7H55.6z"/>
	</defs>
	<use xlink:href="#SVGID_25_"  style="overflow:visible;fill-rule:evenodd;clip-rule:evenodd;fill:#FFFFFF;"/>
	<clipPath id="SVGID_26_">
		<use xlink:href="#SVGID_25_"  style="overflow:visible;"/>
	</clipPath>
</g>
<g>
	<defs>
		<path id="SVGID_27_" d="M71,55.9c-0.2,0-0.4,0-0.6,0c-0.2,0-0.3,0-0.5,0c-0.1,0-0.3,0-0.4-0.1c-0.1,0-0.3-0.1-0.5-0.1
			c-0.2-0.1-0.4-0.1-0.7-0.2c-0.2-0.1-0.4-0.1-0.6-0.1c-0.1,0-0.2,0-0.2,0c0,0-0.1,0.1-0.1,0.2l0,0.1h-0.1h-0.4v-3.5V52h0.1h0.3
			l0,0.1c0.1,0.6,0.2,1,0.4,1.4c0.2,0.4,0.4,0.7,0.6,0.9c0.2,0.2,0.4,0.4,0.6,0.5c0.2,0.1,0.4,0.2,0.7,0.3c0.2,0.1,0.4,0.1,0.6,0.1
			c0.2,0,0.4,0,0.6,0c0.5,0,0.9-0.1,1.2-0.2c0.3-0.2,0.6-0.4,0.8-0.6c0.2-0.2,0.3-0.5,0.4-0.8c0.1-0.3,0.1-0.5,0.1-0.8
			c0-0.3-0.1-0.6-0.2-0.9c-0.1-0.2-0.3-0.4-0.5-0.6c-0.2-0.2-0.4-0.3-0.6-0.4c-0.2-0.1-0.4-0.2-0.7-0.3l-1.7-0.5
			c-0.8-0.3-1.5-0.6-1.9-1.1c-0.4-0.5-0.7-1.1-0.7-1.8c0-0.5,0.1-0.9,0.3-1.4c0.2-0.4,0.4-0.8,0.7-1.1c0.3-0.3,0.7-0.5,1.1-0.7
			c0.4-0.2,0.9-0.3,1.4-0.3c0.4,0,0.7,0,0.9,0.1c0.2,0.1,0.5,0.1,0.6,0.2c0.2,0.1,0.3,0.1,0.5,0.2c0.1,0.1,0.2,0.1,0.4,0.1
			c0.1,0,0.2,0,0.2,0c0,0,0.1-0.1,0.2-0.2l0-0.1h0.1h0.4v3.1h-0.1h-0.3l0-0.1c-0.1-0.4-0.2-0.7-0.3-1c-0.1-0.3-0.3-0.6-0.5-0.9
			c-0.2-0.2-0.5-0.4-0.8-0.6c-0.3-0.2-0.7-0.2-1.1-0.2c-0.2,0-0.5,0-0.8,0.1c-0.3,0.1-0.5,0.2-0.8,0.3c-0.2,0.2-0.4,0.4-0.6,0.6
			c-0.1,0.2-0.2,0.6-0.2,0.9c0,0.3,0.1,0.6,0.2,0.8c0.1,0.2,0.3,0.4,0.5,0.5c0.2,0.2,0.4,0.3,0.7,0.4c0.3,0.1,0.5,0.2,0.8,0.3
			l1.8,0.6c0.2,0.1,0.4,0.1,0.7,0.3c0.3,0.1,0.6,0.3,0.9,0.5c0.3,0.2,0.5,0.5,0.7,0.9C74.9,51,75,51.5,75,52c0,0.5-0.1,1-0.3,1.4
			c-0.2,0.5-0.5,0.9-0.8,1.2c-0.3,0.4-0.8,0.6-1.2,0.8C72.2,55.8,71.6,55.9,71,55.9L71,55.9z"/>
	</defs>
	<use xlink:href="#SVGID_27_"  style="overflow:visible;fill-rule:evenodd;clip-rule:evenodd;fill:#FFFFFF;"/>
	<clipPath id="SVGID_28_">
		<use xlink:href="#SVGID_27_"  style="overflow:visible;"/>
	</clipPath>
</g>
<g>
	<defs>
		<path id="SVGID_29_" d="M45.2,0C39,0,33.8,5.3,33.8,11.8c0,6.5,5.1,11.8,11.4,11.8c6.3,0,11.4-5.3,11.4-11.8
			C56.6,5.3,51.5,0,45.2,0 M45.2,23.2c-6.1,0-11-5.1-11-11.3c0-6.3,4.9-11.3,11-11.3c6.1,0,11,5.1,11,11.3
			C56.2,18.1,51.3,23.2,45.2,23.2"/>
	</defs>
	<use xlink:href="#SVGID_29_"  style="overflow:visible;fill-rule:evenodd;clip-rule:evenodd;fill:#FFFFFF;"/>
	<clipPath id="SVGID_30_">
		<use xlink:href="#SVGID_29_"  style="overflow:visible;"/>
	</clipPath>
</g>
<g>
	<defs>
		<path id="SVGID_31_" d="M53.2,12.6c0.1-0.1,0.1-0.3,0.2-0.5c0-0.2,0.1-0.4,0.1-0.7c0-0.4-0.1-0.7-0.2-1c-0.1-0.3-0.3-0.6-0.5-0.8
			c-0.2-0.2-0.4-0.4-0.7-0.5c-0.3-0.1-0.6-0.2-0.9-0.2c-0.5,0-0.9,0.2-1.2,0.5c-0.1,0.1-0.2,0.3-0.4,0.5c0-0.2-0.1-0.3-0.2-0.5
			c-0.1-0.2-0.2-0.4-0.2-0.5l-0.6-1.3c-0.1-0.2-0.2-0.4-0.3-0.6c-0.1-0.2-0.1-0.4-0.2-0.6c0-0.2,0-0.4,0-0.6
			c0.1-0.2,0.2-0.4,0.3-0.5c0.2-0.2,0.4-0.3,0.6-0.4c0.2-0.1,0.4-0.1,0.6,0c0.2,0,0.4,0.1,0.6,0.3c0.2,0.1,0.3,0.2,0.5,0.4
			C51,6,51.1,6.2,51.2,6.5c0.1,0.3,0.1,0.5,0.1,0.8c0,0.3-0.1,0.5-0.2,0.8c-0.1,0.3-0.2,0.5-0.4,0.7l0.1,0.1l1.4-1.4l-0.1-0.1
			c-0.1,0-0.2,0-0.2,0c0,0-0.1,0-0.2-0.1c-0.1-0.1-0.1-0.2-0.2-0.3c0-0.1-0.1-0.2-0.1-0.4c0-0.1-0.1-0.3-0.2-0.4
			c-0.1-0.2-0.2-0.3-0.4-0.5c-0.2-0.3-0.5-0.4-0.8-0.6c-0.3-0.1-0.6-0.2-0.9-0.2c-0.3,0-0.6,0.1-0.9,0.2c-0.3,0.1-0.5,0.3-0.8,0.5
			C47.2,5.9,47,6.3,47,6.8c0,0.2,0,0.4,0.1,0.6c-0.1-0.1-0.3-0.2-0.4-0.2C46.5,7.1,46.3,7,46.2,7l-1.3-0.4c-0.2-0.1-0.4-0.1-0.6-0.2
			c-0.2-0.1-0.4-0.2-0.5-0.3c-0.1-0.1-0.3-0.3-0.4-0.4c-0.1-0.2-0.1-0.4-0.1-0.6c0-0.3,0.1-0.5,0.2-0.7c0.1-0.2,0.3-0.4,0.5-0.5
			c0.2-0.1,0.4-0.2,0.6-0.3c0.2,0,0.4-0.1,0.6-0.1c0.3,0,0.6,0.1,0.8,0.2c0.2,0.1,0.4,0.3,0.6,0.5c0.2,0.2,0.3,0.4,0.4,0.7
			C47,5,47.1,5.3,47.1,5.6h0.1v-2h-0.2C47,3.6,47,3.7,47,3.7c0,0-0.1,0-0.2,0c-0.1,0-0.2,0-0.3-0.1c-0.1,0-0.2-0.1-0.3-0.2
			c-0.1-0.1-0.3-0.1-0.4-0.2c-0.2,0-0.4-0.1-0.6-0.1c-0.3,0-0.7,0.1-1,0.2c-0.3,0.1-0.5,0.3-0.8,0.5c-0.2,0.2-0.4,0.5-0.5,0.8
			c-0.1,0.3-0.2,0.6-0.2,0.9c0,0.5,0.2,0.9,0.5,1.2c0.1,0.1,0.3,0.3,0.5,0.4c-0.2,0-0.3,0.1-0.5,0.2c-0.2,0.1-0.4,0.2-0.5,0.3
			l-1.2,0.7c-0.2,0.1-0.4,0.2-0.5,0.3c-0.2,0.1-0.4,0.1-0.6,0.2c-0.2,0-0.4,0-0.6,0c-0.2-0.1-0.4-0.2-0.5-0.3
			C39,8.2,38.9,8,38.9,7.8c0-0.2-0.1-0.4,0-0.7c0-0.2,0.1-0.4,0.2-0.6c0.1-0.2,0.2-0.3,0.4-0.5c0.2-0.2,0.5-0.4,0.7-0.5
			c0.3-0.1,0.5-0.1,0.7-0.1c0.2,0,0.5,0.1,0.7,0.2c0.2,0.1,0.5,0.2,0.7,0.4l0.1-0.1l-1.4-1.4l-0.1,0.1c0,0.1,0,0.2,0,0.2
			c0,0,0,0.1-0.1,0.2c-0.1,0.1-0.2,0.1-0.3,0.2c-0.1,0-0.2,0.1-0.3,0.1c-0.1,0.1-0.3,0.1-0.4,0.2c-0.2,0.1-0.3,0.2-0.5,0.4
			c-0.3,0.3-0.4,0.5-0.6,0.8c-0.1,0.3-0.2,0.6-0.2,0.9c0,0.3,0.1,0.6,0.2,0.9c0.1,0.3,0.3,0.6,0.5,0.8c0.4,0.4,0.7,0.5,1.2,0.5
			c0.2,0,0.4,0,0.6-0.1c-0.1,0.2-0.2,0.3-0.2,0.5c-0.1,0.2-0.1,0.4-0.2,0.5l-0.4,1.4c-0.1,0.2-0.1,0.4-0.2,0.6
			c-0.1,0.2-0.2,0.4-0.3,0.5c-0.1,0.2-0.3,0.3-0.4,0.4c-0.2,0.1-0.4,0.1-0.6,0.1c-0.3,0-0.5-0.1-0.7-0.2c-0.2-0.1-0.3-0.3-0.5-0.5
			c-0.1-0.2-0.2-0.4-0.2-0.6c0-0.2-0.1-0.4-0.1-0.6c0-0.3,0.1-0.6,0.2-0.9c0.1-0.2,0.3-0.5,0.4-0.6c0.2-0.2,0.4-0.3,0.6-0.4
			c0.2-0.1,0.5-0.2,0.8-0.2V9.6h-2v0.2c0.1,0.1,0.2,0.1,0.2,0.1c0,0,0,0.1,0,0.2c0,0.1,0,0.2-0.1,0.3c0,0.1-0.1,0.2-0.2,0.3
			c-0.1,0.1-0.1,0.3-0.1,0.5c0,0.2-0.1,0.4-0.1,0.7c0,0.4,0.1,0.7,0.2,1c0.1,0.3,0.3,0.6,0.5,0.8c0.2,0.2,0.4,0.4,0.7,0.5
			c0.3,0.1,0.6,0.2,0.9,0.2c0.5,0,0.9-0.2,1.2-0.5c0.1-0.1,0.3-0.3,0.4-0.5c0,0.2,0.1,0.3,0.2,0.5c0.1,0.2,0.2,0.4,0.2,0.5l0.6,1.3
			c0.1,0.2,0.2,0.4,0.3,0.6c0.1,0.2,0.1,0.4,0.2,0.6c0,0.2,0,0.4,0,0.6c0,0.2-0.2,0.4-0.3,0.5c-0.2,0.2-0.4,0.3-0.6,0.4
			c-0.2,0.1-0.4,0.1-0.6,0c-0.2,0-0.4-0.1-0.6-0.3c-0.2-0.1-0.3-0.2-0.5-0.4c-0.2-0.2-0.4-0.5-0.5-0.7c-0.1-0.3-0.1-0.5-0.1-0.8
			c0-0.3,0.1-0.5,0.2-0.8c0.1-0.3,0.2-0.5,0.4-0.7l-0.1-0.1L38.2,16l0.1,0.1c0.1,0,0.2,0,0.2,0c0,0,0.1,0,0.2,0.1
			c0.1,0.1,0.1,0.2,0.2,0.3c0,0.1,0.1,0.2,0.1,0.3c0,0.1,0.1,0.3,0.2,0.4c0.1,0.2,0.2,0.3,0.4,0.5c0.2,0.3,0.5,0.4,0.8,0.6
			c0.3,0.1,0.6,0.2,0.9,0.2c0.3,0,0.6,0,0.9-0.2c0.3-0.1,0.5-0.3,0.8-0.5c0.4-0.4,0.5-0.8,0.5-1.2c0-0.2,0-0.4-0.1-0.6
			c0.1,0.1,0.3,0.2,0.4,0.2c0.2,0.1,0.4,0.1,0.5,0.2l1.3,0.4c0.2,0.1,0.4,0.1,0.6,0.2c0.2,0.1,0.4,0.2,0.5,0.3
			c0.1,0.1,0.3,0.3,0.4,0.4c0.1,0.2,0.1,0.4,0.1,0.6c0,0.3-0.1,0.5-0.2,0.7c-0.1,0.2-0.3,0.4-0.5,0.5c-0.2,0.1-0.4,0.2-0.6,0.3
			c-0.2,0-0.4,0.1-0.6,0.1c-0.3,0-0.6-0.1-0.8-0.2c-0.2-0.1-0.4-0.3-0.6-0.5c-0.2-0.2-0.3-0.4-0.4-0.7c-0.1-0.3-0.2-0.5-0.2-0.8
			h-0.1v2h0.2c0.1-0.1,0.1-0.2,0.1-0.2c0,0,0.1,0,0.2,0c0.1,0,0.2,0,0.3,0.1c0.1,0,0.2,0.1,0.3,0.2c0.1,0.1,0.3,0.1,0.4,0.2
			c0.2,0,0.4,0.1,0.6,0.1c0.3,0,0.7-0.1,1-0.2c0.3-0.1,0.5-0.3,0.8-0.5c0.2-0.2,0.4-0.5,0.5-0.8c0.1-0.3,0.2-0.6,0.2-0.9
			c0-0.5-0.2-0.9-0.5-1.2c-0.1-0.1-0.3-0.3-0.5-0.4c0.2,0,0.3-0.1,0.5-0.2c0.2-0.1,0.4-0.2,0.5-0.3l1.2-0.7c0.2-0.1,0.4-0.2,0.5-0.3
			c0.2-0.1,0.4-0.1,0.6-0.2c0.2,0,0.4,0,0.6,0c0.2,0.1,0.4,0.2,0.5,0.3c0.2,0.2,0.3,0.4,0.4,0.7c0,0.2,0,0.4,0,0.7
			c0,0.2-0.1,0.4-0.2,0.6c-0.1,0.2-0.2,0.3-0.4,0.5c-0.2,0.2-0.5,0.4-0.7,0.5C50.1,18,49.8,18,49.6,18c-0.2,0-0.5-0.1-0.7-0.2
			c-0.2-0.1-0.5-0.2-0.7-0.4L48,17.5l1.4,1.4l0.1-0.1c0-0.1,0-0.2,0-0.2c0,0,0-0.1,0.1-0.2c0.1-0.1,0.2-0.1,0.3-0.2
			c0.1,0,0.2-0.1,0.3-0.1c0.1-0.1,0.3-0.1,0.4-0.2c0.2-0.1,0.3-0.2,0.5-0.4c0.2-0.3,0.4-0.5,0.6-0.8c0.1-0.3,0.2-0.6,0.2-0.9
			c0-0.3-0.1-0.6-0.2-0.9c-0.1-0.3-0.3-0.6-0.5-0.8c-0.4-0.4-0.7-0.6-1.2-0.5c-0.2,0-0.4,0-0.6,0.1c0.1-0.1,0.2-0.3,0.2-0.5
			c0.1-0.2,0.1-0.4,0.2-0.5l0.4-1.4c0.1-0.2,0.1-0.4,0.2-0.6c0.1-0.2,0.2-0.4,0.3-0.5c0.1-0.2,0.3-0.3,0.4-0.4
			c0.2-0.1,0.4-0.1,0.6-0.1c0.3,0,0.5,0.1,0.7,0.2c0.2,0.1,0.3,0.3,0.5,0.5c0.1,0.2,0.2,0.4,0.2,0.6c0.1,0.2,0.1,0.4,0.1,0.6
			c0,0.3-0.1,0.6-0.2,0.9c-0.1,0.2-0.3,0.5-0.4,0.6c-0.2,0.2-0.4,0.3-0.6,0.4c-0.2,0.1-0.5,0.2-0.8,0.2v0.1h2v-0.2
			c-0.1-0.1-0.2-0.1-0.2-0.1c0,0,0-0.1,0-0.2c0-0.1,0-0.2,0.1-0.3C53.1,12.9,53.1,12.8,53.2,12.6z M47.8,10.1
			C47.9,9.8,48,9.6,48,9.3l0.1,0.1c0.1,0.1,0.1,0.3,0.2,0.5c0.1,0.2,0.1,0.4,0.1,0.6c0,0.1,0,0.2,0,0.4l-0.6-0.7
			C47.8,10.2,47.8,10.1,47.8,10.1z M47.2,9.7c0,0.2,0,0.4-0.1,0.6c0,0,0,0.1,0,0.1c-0.1,0.1-0.2,0.1-0.3,0.2
			c-0.2,0.1-0.3,0.2-0.4,0.2C46.2,10.9,46.1,11,46,11c-0.1,0.1-0.2,0.1-0.3,0.2c-0.1,0.1-0.2,0.1-0.3,0.2c0,0-0.1,0.1-0.1,0.1h0v0
			c0.2-0.3,0.4-0.5,0.5-0.8c0.1-0.3,0.2-0.7,0.2-1c0.2-0.1,0.4-0.3,0.6-0.4c0.1-0.1,0.2-0.1,0.3-0.1C47.1,9.3,47.2,9.5,47.2,9.7z
			 M46.8,11c-0.1,0.2-0.3,0.3-0.6,0.4c-0.2,0.1-0.3,0.1-0.5,0.2c0,0,0,0,0,0c0.1-0.1,0.2-0.2,0.4-0.3c0.2-0.1,0.3-0.2,0.5-0.2
			C46.6,11,46.7,11,46.8,11z M45.4,11.3L45.4,11.3c0-0.2,0-0.4,0.1-0.5c0-0.2,0.1-0.4,0.2-0.5c0-0.1,0.1-0.1,0.1-0.2
			c0,0.2,0,0.5-0.1,0.7C45.6,10.9,45.5,11.1,45.4,11.3z M45.7,8.1c0.2,0,0.3,0.1,0.5,0.2c0.2,0.1,0.3,0.2,0.5,0.3
			c0.1,0.1,0.2,0.2,0.2,0.3H46c0-0.1,0-0.1-0.1-0.2c-0.1-0.2-0.2-0.4-0.4-0.6L45.7,8.1z M44.7,8.9c0-0.1,0.1-0.2,0.1-0.3
			c0.2,0.1,0.3,0.2,0.5,0.3c0.1,0.1,0.2,0.3,0.3,0.5c0,0,0,0.1,0,0.1c0,0.1,0,0.2-0.1,0.3c-0.1,0.2-0.1,0.3-0.2,0.5
			c0,0.1-0.1,0.2-0.1,0.3c0,0.1,0,0.2-0.1,0.3c0,0.1,0,0.2,0,0.3c0,0.1,0,0.1,0,0.2c0,0,0,0,0,0c0,0,0,0,0,0c0-0.3-0.1-0.7-0.2-1
			c-0.1-0.3-0.3-0.6-0.5-0.9C44.5,9.4,44.6,9.2,44.7,8.9z M45.1,11.3C45.1,11.3,45.1,11.3,45.1,11.3c-0.1-0.1-0.2-0.3-0.3-0.4
			c-0.1-0.2-0.2-0.3-0.2-0.5c0-0.1,0-0.1,0-0.2c0.2,0.1,0.3,0.3,0.4,0.6C45,10.9,45,11.1,45.1,11.3z M43.1,8.8
			c0.1-0.1,0.3-0.2,0.5-0.2c0.2-0.1,0.4-0.1,0.6-0.1c0.1,0,0.2,0,0.4,0l-0.6,0.7c-0.1,0-0.1-0.1-0.2-0.1c-0.2-0.1-0.5-0.2-0.7-0.2
			L43.1,8.8z M43.3,9.7c0.2,0,0.4,0,0.6,0.1c0,0,0.1,0,0.1,0c0.1,0.1,0.1,0.2,0.2,0.3c0.1,0.2,0.2,0.3,0.2,0.5
			c0.1,0.1,0.1,0.2,0.2,0.3c0.1,0.1,0.1,0.2,0.2,0.3c0.1,0.1,0.1,0.2,0.2,0.3c0,0,0.1,0.1,0.1,0.1v0h0c-0.3-0.2-0.5-0.4-0.8-0.5
			c-0.3-0.1-0.7-0.2-1-0.2c-0.1-0.2-0.3-0.4-0.4-0.7c0-0.1-0.1-0.2-0.1-0.3C42.9,9.8,43.1,9.7,43.3,9.7z M44.8,11.5L44.8,11.5
			c-0.2,0-0.3,0-0.5-0.1c-0.2,0-0.3-0.1-0.5-0.2c-0.1,0-0.1-0.1-0.2-0.1c0.2,0,0.4,0,0.7,0.1C44.5,11.3,44.7,11.4,44.8,11.5z
			 M41.7,11.4l0-0.2c0-0.2,0.1-0.3,0.2-0.5c0.1-0.2,0.2-0.3,0.3-0.5c0.1-0.1,0.2-0.2,0.3-0.2v0.9c-0.1,0-0.1,0-0.2,0.1
			C42.1,11.1,41.9,11.2,41.7,11.4z M42.7,13.4c-0.1,0.2-0.1,0.5-0.2,0.7L42.4,14c-0.1-0.1-0.1-0.3-0.2-0.5c-0.1-0.2-0.1-0.4-0.1-0.6
			c0-0.1,0-0.2,0-0.4l0.6,0.7C42.7,13.2,42.7,13.3,42.7,13.4z M42.5,12.3c-0.1,0-0.2-0.1-0.3-0.1c0.1-0.2,0.2-0.3,0.3-0.5
			c0.1-0.1,0.3-0.2,0.5-0.4c0,0,0.1,0,0.1,0c0.1,0,0.2,0,0.3,0.1c0.2,0.1,0.3,0.1,0.5,0.2c0.1,0,0.2,0.1,0.3,0.1
			c0.1,0,0.2,0,0.3,0.1c0.1,0,0.2,0,0.3,0c0.1,0,0.1,0,0.2,0c0,0,0,0,0,0c0,0,0,0,0,0c-0.3,0-0.7,0.1-0.9,0.2
			c-0.3,0.1-0.6,0.3-0.8,0.6C43,12.5,42.8,12.4,42.5,12.3z M44.8,11.9C44.8,11.9,44.8,11.9,44.8,11.9c-0.1,0.1-0.3,0.2-0.4,0.3
			c-0.2,0.1-0.3,0.2-0.5,0.2c-0.1,0-0.1,0-0.2,0c0.1-0.2,0.3-0.3,0.6-0.4C44.5,12,44.6,11.9,44.8,11.9z M43.3,13.7
			c0-0.2,0-0.4,0.1-0.6c0,0,0-0.1,0-0.1c0.1-0.1,0.2-0.1,0.3-0.2c0.2-0.1,0.3-0.2,0.4-0.2c0.1-0.1,0.2-0.1,0.3-0.2
			c0.1-0.1,0.2-0.1,0.3-0.2c0.1-0.1,0.2-0.1,0.3-0.2c0,0,0.1-0.1,0.1-0.1h0v0c-0.2,0.3-0.4,0.5-0.5,0.8c-0.1,0.3-0.2,0.7-0.2,1
			c-0.2,0.1-0.4,0.3-0.6,0.4c-0.1,0-0.2,0.1-0.3,0.1C43.3,14.1,43.3,13.9,43.3,13.7z M45.1,12.2L45.1,12.2c0,0.2,0,0.4-0.1,0.5
			c0,0.2-0.1,0.4-0.2,0.5c0,0.1-0.1,0.1-0.1,0.2c0-0.2,0-0.5,0.1-0.7C44.9,12.5,45,12.3,45.1,12.2z M44.8,15.4
			c-0.2,0-0.3-0.1-0.5-0.2c-0.2-0.1-0.3-0.2-0.5-0.3c-0.1-0.1-0.2-0.2-0.2-0.3h0.9c0,0.1,0,0.1,0.1,0.2c0.1,0.2,0.2,0.5,0.4,0.6
			L44.8,15.4z M45.8,14.5c0,0.1-0.1,0.2-0.1,0.3c-0.2-0.1-0.3-0.2-0.5-0.3c-0.1-0.1-0.2-0.3-0.3-0.5c0,0,0-0.1,0-0.1
			c0-0.1,0-0.2,0.1-0.3c0.1-0.2,0.1-0.3,0.2-0.5c0-0.1,0.1-0.2,0.1-0.4c0-0.1,0-0.2,0.1-0.3c0-0.1,0-0.2,0-0.3c0-0.1,0-0.1,0-0.2
			c0,0,0,0,0,0c0,0,0,0,0,0c0,0.3,0.1,0.7,0.2,1c0.1,0.3,0.3,0.6,0.5,0.9C46,14,45.9,14.3,45.8,14.5z M45.4,12.1
			C45.4,12.2,45.4,12.2,45.4,12.1c0.1,0.1,0.2,0.3,0.3,0.4c0.1,0.2,0.2,0.3,0.2,0.5c0,0.1,0,0.1,0,0.2c-0.2-0.1-0.3-0.3-0.4-0.6
			C45.5,12.5,45.5,12.4,45.4,12.1z M47.4,14.6c-0.1,0.1-0.3,0.2-0.5,0.2c-0.2,0.1-0.4,0.1-0.6,0.1c-0.1,0-0.2,0-0.4,0l0.6-0.7
			c0.1,0,0.1,0.1,0.2,0.1c0.2,0.1,0.5,0.2,0.7,0.2L47.4,14.6z M47.2,13.7c-0.2,0-0.4,0-0.6-0.1c0,0-0.1,0-0.1,0
			c-0.1-0.1-0.1-0.2-0.2-0.3c-0.1-0.2-0.2-0.3-0.2-0.5c-0.1-0.1-0.1-0.2-0.2-0.3c-0.1-0.1-0.1-0.2-0.2-0.3c-0.1-0.1-0.1-0.2-0.2-0.3
			c0,0-0.1-0.1-0.1-0.1v0c0,0,0,0,0,0c0.3,0.2,0.5,0.4,0.8,0.5c0.3,0.1,0.7,0.2,1,0.2c0.1,0.2,0.3,0.4,0.4,0.7
			c0,0.1,0.1,0.2,0.1,0.3C47.6,13.7,47.4,13.7,47.2,13.7z M45.7,11.9L45.7,11.9c0.2,0,0.3,0,0.5,0.1c0.2,0.1,0.3,0.1,0.5,0.2
			c0.1,0,0.1,0.1,0.2,0.1c-0.2,0-0.4,0-0.7-0.1C46,12.1,45.8,12,45.7,11.9z M47.5,12.1C47.5,12.1,47.4,12.1,47.5,12.1
			c-0.2,0-0.3,0-0.4,0c-0.2-0.1-0.3-0.1-0.5-0.2c-0.1,0-0.2-0.1-0.3-0.1c-0.1,0-0.2,0-0.3-0.1c-0.1,0-0.2,0-0.3,0
			c-0.1,0-0.1,0-0.2,0c0,0,0,0,0,0c0,0,0,0,0,0c0.3,0,0.6-0.1,0.9-0.2c0.3-0.1,0.6-0.3,0.8-0.6c0.2,0,0.5,0.1,0.7,0.2
			c0.1,0,0.2,0.1,0.3,0.1c-0.1,0.2-0.2,0.3-0.3,0.5C47.9,11.9,47.7,12,47.5,12.1z M48.8,12.2c0,0.2-0.1,0.3-0.2,0.5
			c-0.1,0.2-0.2,0.3-0.3,0.5c-0.1,0.1-0.2,0.2-0.3,0.2v-0.9c0.1,0,0.1,0,0.2-0.1c0.2-0.1,0.4-0.2,0.6-0.4L48.8,12.2z"/>
	</defs>
	<use xlink:href="#SVGID_31_"  style="overflow:visible;fill-rule:evenodd;clip-rule:evenodd;fill:#FFFFFF;"/>
	<clipPath id="SVGID_32_">
		<use xlink:href="#SVGID_31_"  style="overflow:visible;"/>
	</clipPath>
</g>
</svg>
