<svg id="Layer_1" data-name="Layer 1" xmlns="http://www.w3.org/2000/svg" viewBox="0 0 130 130"><defs><style>.cls-1{fill:#b0851e;}.cls-2{fill:#fff;}</style></defs><path class="cls-1" d="M65,5.13A59.87,59.87,0,1,0,124.87,65,59.86,59.86,0,0,0,65,5.13m0,17.08A42.79,42.79,0,1,1,22.21,65,42.84,42.84,0,0,1,65,22.21"/><path class="cls-1" d="M65,2.79A62.21,62.21,0,1,0,127.21,65,62.27,62.27,0,0,0,65,2.79m0,126A63.75,63.75,0,1,1,128.75,65,63.82,63.82,0,0,1,65,128.75"/><path class="cls-2" d="M13,67.24a1.33,1.33,0,0,1,1.27-1.38,1.35,1.35,0,0,1,1.39,1.28,1.33,1.33,0,0,1-2.66.1"/><path class="cls-2" d="M16.68,58.18c.75.12,1.06,0,1.15-.55s-.27-1.08-1.14-1.21-1.35.24-1.5,1.23c0,.09,0,.19,0,.3Zm-1.92-.51c.14-.9-.16-1.29-1-1.42s-1.1.2-1.22,1c0,.3,0,.33.13.35l2.06.32c0-.08,0-.14,0-.21m2.69,2.95c.1-.7-.07-.89-.7-1L13,59.05c-.6-.09-.79,0-.91.73l-.37-.05c.11-.47.18-.84.23-1.12.08-.56.11-1.1.19-1.58.26-1.68.86-2.43,1.85-2.28.74.11,1.15.75,1.13,1.87.37-1.3,1-1.94,2-1.79s1.51,1.16,1.24,2.94c-.08.5-.21,1.06-.31,1.67-.05.38-.1.79-.14,1.24Z"/><path class="cls-2" d="M14.62,51.7c-.76-.24-1-.22-1.29.49l-.34-.1c.18-.52.35-1,.49-1.47s.32-1,.47-1.59l.35.11c-.18.74,0,.93.7,1.16l2.28.73c1.29.41,2,.22,2.33-.92a1.77,1.77,0,0,0-.13-1.61,2.69,2.69,0,0,0-1.42-.78l-2-.65c-.7-.22-1-.12-1.26.5l-.33-.1c.12-.32.24-.66.36-1s.24-.79.31-1.06l.34.11c-.13.64,0,.89.73,1.11l2,.64a3.19,3.19,0,0,1,1.69,1,2.55,2.55,0,0,1,.21,2.41,2.88,2.88,0,0,1-1.36,1.85,2.67,2.67,0,0,1-2-.09Z"/><path class="cls-2" d="M21.19,46.2c.31-.7.19-.87-.45-1.17l-3.38-1.58c-.56-.27-.79-.25-1.07.36l0,.08-.34-.16c.27-.53.51-1,.71-1.45s.44-1,.66-1.48l.34.16,0,.09c-.25.53-.12.8.41,1.05l3.38,1.58c.61.29.87.21,1.19-.41l.33.16-.71,1.45c-.18.4-.41.9-.66,1.48Z"/><path class="cls-2" d="M23,42.25a.25.25,0,0,0,0-.07c.32-.52.21-.77-.38-1.14l-3.24-2c-.47-.3-.72-.22-1,.29l0,0-.31-.19c.33-.5.61-.95.86-1.34l.81-1.38.32.2,0,0c-.35.57-.29.8.23,1.12l2.86,1.77c.79.48,1.16.44,1.65-.35A1.55,1.55,0,0,0,24.53,37l.2-.32,1.54,1c-.49.78-1,1.57-1.49,2.38-.4.65-.87,1.44-1.42,2.37Z"/><path class="cls-2" d="M28.47,34.24c.69-.83.36-1.72-1-2.85s-2.44-1.32-3.41-.18c-.16.2-.17.32,0,.43l3.16,2.65c.5.43.85.45,1.27,0m-2,2.48c.44-.54.41-.76-.11-1.19l-2.84-2.4c-.51-.42-.74-.48-1.21.08L22.05,33c.24-.26.48-.54.71-.82l1-1.17c1.58-1.88,3.28-2.12,4.89-.76a2.83,2.83,0,0,1,1.12,2.16,3.49,3.49,0,0,1-1.07,2.34L27.58,36c-.25.3-.5.63-.79,1Z"/><path class="cls-2" d="M31.34,31.16c.58-.52.46-.79-.15-1.48l-2.25-2.55c-.44-.49-.73-.54-1.19-.14L27.7,27l-.24-.27c.51-.4,1-.8,1.45-1.21s1.28-1.15,2.35-2.16l1.07,1.21-.28.25c-.85-.61-1.27-.4-2.16.39-.35.3-.38.35-.2.55L31,27.32l.12-.1c.54-.49.57-.86.17-1.53l.29-.26a11,11,0,0,0,.76.93c.31.36.61.66.88.93l-.27.25a1,1,0,0,0-1.58,0,.71.71,0,0,1-.09.07l1.09,1.24c.43.49.83.47,1.38,0a1.46,1.46,0,0,0,.4-2.19l.25-.23,1.24,1.4c-1.06.89-1.9,1.63-2.55,2.2l-.4.36c-.39.35-.78.69-1.12,1.05Z"/><path class="cls-2" d="M36.82,23.1c.8-.53,1-1.1.46-1.84a1.11,1.11,0,0,0-1.79-.36c-.29.18-.32.27-.15.52l1.21,1.84.27-.16m-.67,3.83c.64-.42.69-.67.3-1.26l-2.1-3.18c-.33-.51-.54-.54-1.2-.11l-.2-.31c.41-.24.74-.46,1-.64.49-.32,1-.69,1.56-1.07,1.42-.93,2.38-1,3-.08a1.58,1.58,0,0,1-.42,2.14,2.79,2.79,0,0,1,1.18.31l1.43.55a1.25,1.25,0,0,0,1,0l.19.28c-.19.1-.52.31-1,.63-.2.13-.4.26-.58.4l-2.41-1c-.49-.2-.78-.3-1.07-.11,0,0,0,0-.08.06l.87,1.32c.36.53.64.59,1.18.23l0,0,.21.32-1.72,1.1c-.29.2-.63.42-1,.69Z"/><path class="cls-2" d="M42,22.58c-.17-.36-.34-.67-.49-.94l.38-.18c.71.87,1.44,1.13,2.18.77a1,1,0,0,0,.57-1.39c-.27-.55-.77-.56-1.67-.53-1.31,0-2.07-.15-2.52-1.07a1.7,1.7,0,0,1,.91-2.38,2.17,2.17,0,0,1,1.56-.23l-.08-.4.39-.19c.23.47.5,1,.79,1.54l-.37.18a1.55,1.55,0,0,0-2-.55.82.82,0,0,0-.45,1.14c.22.47.65.45,1.37.43,1.55,0,2.45,0,2.95,1.06a2,2,0,0,1-1.12,2.72,2.17,2.17,0,0,1-1.75.19l.1.46-.39.18c-.12-.27-.24-.54-.37-.81"/><path class="cls-2" d="M51.3,16.82A1.19,1.19,0,0,0,51,18a1.09,1.09,0,0,0,1.25.82,1.16,1.16,0,0,0,.8-.64,9.84,9.84,0,0,1-1.74-1.31m.79-2.54c-.14-.54-.46-.8-.83-.71a.6.6,0,0,0-.42.75,2.38,2.38,0,0,0,1,1.19,1.62,1.62,0,0,0,.24-1.23m-.44,5.43a1.32,1.32,0,0,1-1.73-.91c-.18-.72.18-1.45,1.06-2.29a2.87,2.87,0,0,1-.95-1.4,1.58,1.58,0,0,1,1.18-1.94,1.28,1.28,0,0,1,1.67.85,1.79,1.79,0,0,1-.69,1.76c.43.34.93.7,1.49,1.09.44-1.28.68-2,1.45-2.2a.81.81,0,0,1,1.07.58.68.68,0,0,1-.53.86.58.58,0,0,1-.64-.17c-.12-.14-.09-.4-.29-.35s-.33.6-.67,1.53c.76.49,1.24.75,1.71.63a1,1,0,0,0,.68-.64l.38.17a2.15,2.15,0,0,1-1.55,1.52,2.29,2.29,0,0,1-1.83-.45,3.12,3.12,0,0,1-1.81,1.36"/><path class="cls-2" d="M63.58,14.49c1,0,1.37-.41,1.34-1.35A1,1,0,0,0,63.76,12c-.36,0-.48.06-.48.26l0,2.24h.25m-2.44,2.93c.65-.06.81-.22.79-.76l-.09-4c0-.57-.15-.7-.83-.73v-.36c.38,0,.72,0,1,0l1.58-.06c1.94,0,2.88.39,2.91,1.58s-.84,1.76-2.7,1.81h-.45l0,1.63c0,.6.2.79.89.77h0v.38c-.55,0-1.25,0-2.11,0a10.42,10.42,0,0,0-1.08.06Z"/><path class="cls-2" d="M67.58,17.34h.07c.61.07.79-.14.87-.82l.42-3.78c.06-.55-.11-.75-.71-.81h0l0-.36,1.57.2,1.59.15,0,.36h0c-.66-.08-.84.08-.91.68L70,16.3c-.11.91.09,1.23,1,1.33a1.55,1.55,0,0,0,1.91-1.17l.37,0-.24,1.82L70.28,18l-2.75-.27Z"/><path class="cls-2" d="M77.72,17l-.25-2.28-1.39,1.86Zm-4.07,1a1,1,0,0,0,1.07-.46l3.45-4.51.45.12.71,5.55a.93.93,0,0,0,.71,1L80,20l-1.54-.42-1.54-.37.1-.36c.56.11.79.13.86-.16a2.34,2.34,0,0,0,0-.72l-.06-.52-2-.52-.24.31a1.86,1.86,0,0,0-.35.63c-.09.34.1.55.6.67l-.09.37-1.09-.31q-.52-.14-1-.24Z"/><path class="cls-2" d="M86.66,20.45l-.83,2-.34-.15v-.56a3.16,3.16,0,0,1-2.11-.14,3,3,0,0,1-1.7-4.09A3.24,3.24,0,0,1,83,15.87a3.11,3.11,0,0,1,2.92-.2A2.93,2.93,0,0,1,87.4,16.9l.34-.41.38.15L87.4,18.5,87,18.35a1.86,1.86,0,0,0-1-2.14c-1-.43-2.14.22-2.81,1.82s-.37,2.76.7,3.2a1.89,1.89,0,0,0,2.36-.93Z"/><path class="cls-2" d="M87,22.66c.66.39.89.19,1.36-.6l1.74-2.92c.33-.57.3-.87-.22-1.18l-.07,0,.18-.31c.54.36,1.07.7,1.6,1s1.48.87,2.77,1.59l-.82,1.38-.33-.19c.32-1,0-1.34-1-1.94-.39-.24-.45-.25-.59,0l-1,1.74a.74.74,0,0,1,.13.08c.63.37,1,.28,1.51-.31l.33.2c-.23.32-.45.67-.65,1s-.44.78-.62,1.13L91,23.11a1,1,0,0,0-.5-1.5l-.11-.06L89.52,23c-.33.56-.19.93.44,1.31A1.46,1.46,0,0,0,92.17,24l.29.17-.95,1.6C90.34,25,89.38,24.45,88.63,24l-.46-.28c-.45-.26-.9-.53-1.35-.74Z"/><path class="cls-2" d="M92.63,26c.55.44.88.23,1.48-.49l2.48-2.95a1.06,1.06,0,0,0-.44-.76l.22-.25a8.48,8.48,0,0,0,.67.59c.32.27.65.54,1,.8l-1.36,4.43,4-2.18c.2.2.42.39.63.57s.68.54,1.08.86l-.23.27c-.61-.49-.85-.41-1.29.12L98.5,29.84c-.4.47-.38.72.17,1.21l-.24.29c-.52-.47-.94-.86-1.29-1.14s-.64-.53-1.1-.89l.23-.28c.65.45.8.34,1.22-.16l2.17-2.59-4.43,2.35-.33-.28,1.56-4.91-2,2.35c-.6.71-.73,1.08-.21,1.56l-.24.29c-.38-.36-.65-.6-.81-.74s-.49-.4-.83-.65Z"/><path class="cls-2" d="M103,33l1.1-2-2.2.72ZM99.1,31.53a1,1,0,0,0,1.14.24l5.41-1.7.3.35-2.62,4.95a.93.93,0,0,0,0,1.18l-.29.25c-.33-.42-.67-.83-1-1.23s-.68-.79-1-1.19l.28-.24c.39.42.58.56.8.37a2.21,2.21,0,0,0,.41-.59l.26-.46-1.34-1.57-.37.11a2.14,2.14,0,0,0-.65.31c-.26.23-.23.51.11.9l-.29.25c-.24-.31-.47-.6-.71-.88s-.47-.54-.72-.8Z"/><path class="cls-2" d="M103.79,37.06c.38.59.62.62,1.14.3l3.3-2c.51-.31.58-.57.26-1.15l.29-.18c.23.44.49.89.78,1.37s.51.83.81,1.28l-.3.18,0,0c-.32-.54-.59-.49-1.18-.14l-1.72,1,1.26.22a4.46,4.46,0,0,0,2,.16c.2-.12.18-.37,0-.75l.3-.18c.25.49.47.88.65,1.18s.36.56.56.83l-.3.18a1.46,1.46,0,0,0-1.14-.65l-1.73-.29-1.36,3.52a1.09,1.09,0,0,0,0,1l-.34.2c-.32-.58-.57-1-.76-1.32-.27-.46-.56-.91-.85-1.34l.34-.2a.39.39,0,0,0,.06.11c.18.3.37.4.52.31a.67.67,0,0,0,.23-.32l.87-2.15-.8-.13-.88.53c-.55.33-.69.46-.3,1.16l-.33.2c-.18-.35-.44-.79-.77-1.34s-.62-1-.86-1.35Z"/><path class="cls-2" d="M107.6,43.49c.31.71.61.68,1.45.31l3.12-1.36c.6-.26.74-.53.5-1.09l0-.06.33-.15c.22.61.46,1.19.7,1.75s.7,1.58,1.33,2.91l-1.47.64-.15-.35c.83-.61.77-1.09.29-2.17-.18-.42-.22-.47-.47-.36l-1.85.81.06.14c.29.67.64.81,1.4.64l.16.35c-.38.13-.75.28-1.13.44s-.8.38-1.15.56l-.15-.34a1,1,0,0,0,.47-1.51,1.17,1.17,0,0,1-.05-.11l-1.51.66c-.6.26-.7.65-.4,1.32.43,1,.9,1.29,2,1l.14.31-1.71.75c-.52-1.28-1-2.31-1.32-3.1-.07-.17-.14-.33-.22-.49-.21-.48-.41-1-.65-1.39Z"/><path class="cls-2" d="M113.59,51.2c.25.92.75,1.24,1.6,1a1.13,1.13,0,0,0,.91-1.6c-.09-.33-.17-.38-.46-.3l-2.13.58a2.33,2.33,0,0,0,.08.31m-3.45-1.83c.21.75.43.87,1.12.68l3.67-1c.59-.16.68-.35.48-1.11l.35-.1c.11.47.22.85.3,1.16.16.57.35,1.16.53,1.82.45,1.64.21,2.57-.84,2.86a1.6,1.6,0,0,1-1.91-1.07c0,.27-.29.57-.66,1l-1,1.19a1.27,1.27,0,0,0-.35,1l-.33.09c0-.21-.14-.6-.29-1.15-.06-.23-.13-.46-.21-.68l1.66-2c.35-.41.54-.65.45-1a.79.79,0,0,1,0-.09l-1.52.43c-.62.16-.76.41-.58,1a.09.09,0,0,0,0,.05l-.38.1q-.37-1.48-.51-2c-.09-.34-.2-.73-.35-1.16Z"/><path class="cls-2" d="M112.46,56.27c.39-.05.74-.11,1-.17l.06.42q-1.57.61-1.41,1.83a1,1,0,0,0,1.14,1c.61-.09.77-.57,1-1.43.37-1.25.79-1.91,1.8-2a1.71,1.71,0,0,1,2,1.6,2.26,2.26,0,0,1-.27,1.55l.4.06.06.42c-.52.08-1.09.16-1.71.28l0-.41a1.56,1.56,0,0,0,1.14-1.72.83.83,0,0,0-.94-.79c-.52.07-.63.48-.84,1.17-.45,1.49-.79,2.31-1.92,2.47a2,2,0,0,1-2.24-1.91,2.21,2.21,0,0,1,.37-1.72l-.46-.05-.06-.43c.29,0,.59,0,.89-.1"/><path class="cls-2" d="M117,67.31a1.32,1.32,0,0,1-1.39,1.26,1.33,1.33,0,1,1,.13-2.65A1.33,1.33,0,0,1,117,67.31"/><path class="cls-2" d="M14.78,77.6c.24.94.7,1.23,1.61,1a1,1,0,0,0,.86-1.39c-.09-.35-.16-.46-.36-.41l-2.17.55.06.25m-3.41-1.73c.21.61.4.73.93.6l3.83-1c.55-.14.66-.3.53-1l.35-.09c.07.38.15.71.22,1s.24.88.41,1.53c.48,1.88.26,2.9-.89,3.19s-1.9-.43-2.36-2.23a4.13,4.13,0,0,1-.1-.44l-1.59.41c-.58.15-.72.37-.55,1a.43.43,0,0,0,0,0l-.36.1c-.12-.54-.28-1.22-.5-2.06-.1-.41-.19-.76-.29-1Z"/><path class="cls-2" d="M16,84.32l1.7-1.53-2.32,0Zm-3.21-2.7a1,1,0,0,0,1,.6l5.67.17.17.43-4.11,3.82a1,1,0,0,0-.35,1.13l-.35.13c-.18-.5-.36-1-.55-1.49s-.39-1-.6-1.47l.35-.13c.23.52.36.72.64.61a2.18,2.18,0,0,0,.58-.42l.39-.35-.75-1.92-.39,0a2.06,2.06,0,0,0-.71.08c-.32.13-.38.41-.2.89l-.35.13c-.12-.36-.25-.72-.38-1.06s-.27-.67-.42-1Z"/><path class="cls-2" d="M16.56,89.18c.34-.19.65-.38.91-.54l.2.37c-.83.76-1.05,1.5-.66,2.21a1,1,0,0,0,1.41.51c.54-.3.53-.81.45-1.7-.1-1.3.05-2.07.94-2.56a1.69,1.69,0,0,1,2.42.79,2.15,2.15,0,0,1,.3,1.54l.4-.1.21.38c-.46.26-1,.54-1.49.87l-.2-.36a1.57,1.57,0,0,0,.45-2,.82.82,0,0,0-1.16-.39c-.46.25-.42.67-.36,1.39.11,1.54.09,2.44-.91,3a2,2,0,0,1-2.78-1,2.22,2.22,0,0,1-.27-1.74L16,90l-.21-.38c.27-.12.53-.26.8-.4"/><path class="cls-2" d="M24.73,93.51l-.22-.31c-.59-.81-1.07-1-2-.52l-.21-.3,1.47-1c.41.63.88,1.28,1.38,2,.77,1.06,1.48,2,2.12,2.85l-1.38,1.11L25.73,97a1.31,1.31,0,0,0,.13-2l-.27-.35L21.9,97.37c-.47.35-.47.6,0,1.21l-.3.22c-.3-.45-.6-.87-.88-1.26s-.61-.82-1.07-1.41l.3-.22c.46.57.67.62,1.14.28Z"/><path class="cls-2" d="M23.38,101a1.15,1.15,0,0,1-.32-.25.67.67,0,0,1,.11-1,.75.75,0,0,1,1.07.1c.34.4.25.94-.28,1.39a2.11,2.11,0,0,1-2.55.12l.14-.29a1.65,1.65,0,0,0,1.83-.05"/><path class="cls-2" d="M31.39,104.39c.74.63,1.29.6,1.89-.12a1,1,0,0,0-.1-1.63c-.28-.23-.4-.28-.53-.12l-1.45,1.7a1.54,1.54,0,0,0,.19.17m-3.77.56c.52.39.74.37,1.1,0l2.56-3c.36-.43.35-.62-.14-1.1l.24-.27c.27.27.53.49.74.67l1.22,1c1.48,1.26,1.89,2.21,1.12,3.11s-1.79.75-3.21-.45l-.34-.29-1.06,1.24c-.38.46-.37.73.16,1.17l0,0-.24.29c-.41-.38-.94-.84-1.6-1.39a9.33,9.33,0,0,0-.84-.68Z"/><path class="cls-2" d="M37,108.59c.81.51,1.39.41,1.86-.33a1.12,1.12,0,0,0-.4-1.79c-.29-.18-.38-.18-.54.08l-1.18,1.87a2.85,2.85,0,0,0,.26.17m-3.77,1c.66.41.9.35,1.28-.25l2-3.22c.32-.52.27-.72-.4-1.15l.2-.31c.39.27.73.48,1,.66l1.62,1c1.44.91,1.88,1.76,1.3,2.67a1.57,1.57,0,0,1-2.13.5,2.75,2.75,0,0,1,.21,1.21l.09,1.53a1.24,1.24,0,0,0,.4,1l-.18.29c-.17-.13-.5-.35-1-.66l-.61-.36-.12-2.58c0-.54,0-.85-.34-1l-.09,0-.84,1.33c-.34.55-.27.82.28,1.17l0,0-.21.33-1.71-1.11c-.3-.19-.64-.4-1-.63Z"/><path class="cls-2" d="M40.1,113.73c.71.32.91.09,1.29-.75l1.39-3.1c.27-.59.2-.89-.36-1.14l-.06,0,.14-.32c.57.29,1.14.57,1.7.82s1.57.69,2.93,1.25l-.66,1.47-.34-.15c.2-1-.16-1.32-1.24-1.81-.42-.19-.48-.19-.59,0l-.83,1.84.14.07c.67.3,1,.17,1.47-.47l.35.15c-.2.35-.37.72-.54,1.08s-.35.83-.48,1.19l-.33-.15a1,1,0,0,0-.67-1.43l-.11,0-.68,1.5c-.26.6-.08,1,.59,1.25a1.46,1.46,0,0,0,2.16-.54l.31.14-.77,1.7c-1.24-.6-2.26-1.06-3-1.41l-.49-.22a15.29,15.29,0,0,0-1.42-.59Z"/><path class="cls-2" d="M47,116.07c.12-.38.22-.73.29-1l.4.12c-.07,1.12.28,1.81,1.07,2a1,1,0,0,0,1.36-.62c.18-.59-.18-.94-.86-1.53-1-.86-1.41-1.52-1.11-2.5a1.71,1.71,0,0,1,2.29-1.12,2.24,2.24,0,0,1,1.3.9L52,112l.41.12c-.15.5-.32,1.06-.47,1.67l-.4-.12a1.57,1.57,0,0,0-1.07-1.77.84.84,0,0,0-1.12.53c-.15.5.17.77.71,1.25,1.16,1,1.76,1.69,1.43,2.78a2,2,0,0,1-2.68,1.23,2.15,2.15,0,0,1-1.4-1.06l-.24.4-.42-.13c.11-.27.2-.55.29-.84"/><path class="cls-2" d="M52.78,118.33c.76.14.9-.13,1.06-1l.6-3.35c.11-.64,0-.91-.62-1h-.08l.07-.35c.62.15,1.23.27,1.84.38s1.7.29,3.15.51L58.52,115l-.37-.07c0-1-.48-1.24-1.65-1.45-.45-.08-.51-.07-.55.19l-.36,2,.16,0c.71.13,1-.08,1.3-.81l.38.07a11,11,0,0,0-.26,1.17c-.08.46-.14.88-.18,1.27l-.36-.07c0-.79-.25-1.09-1-1.22l-.12,0-.29,1.62c-.11.64.15.94.87,1.07,1.06.19,1.58,0,2-1l.34.06-.33,1.83c-1.35-.27-2.45-.47-3.3-.62l-.54-.09a13.63,13.63,0,0,0-1.52-.23Z"/><path class="cls-2" d="M60.15,119.53c.7-.06.85-.35.87-1.09l.11-3.87-.11-.14a.94.94,0,0,0-.77-.36v-.36a7.58,7.58,0,0,0,.9.05c.29,0,.65,0,1.05,0l3.55,4.3.07-2.75c0-.76-.18-1.08-.82-1.11v-.36l1,.06h1.14v.36c-.71,0-.86.34-.88,1.11l-.13,4.82h-.52l-4.05-5-.1,3.29c0,.75.23,1.11.82,1.13V120c-.62,0-1.08-.06-1.38-.07s-.56,0-.81,0Z"/><path class="cls-2" d="M70.59,114l-.38,0c-1,.13-1.36.47-1.4,1.46l-.36,0-.15-1.77c.74-.06,1.53-.16,2.38-.26,1.3-.17,2.48-.33,3.52-.49l.31,1.73-.35,0a1.31,1.31,0,0,0-1.69-1.07l-.44.07.59,4.53c.07.57.29.7,1,.62l0,.38c-.54,0-1,.1-1.54.16s-1,.14-1.74.26l0-.37c.73-.13.87-.29.8-.87Z"/><path class="cls-2" d="M81.35,114.65a1.21,1.21,0,0,0-.18,1.17,1.09,1.09,0,0,0,1.33.67,1.16,1.16,0,0,0,.73-.72,9.52,9.52,0,0,1-1.88-1.12m.52-2.6c-.19-.52-.55-.74-.9-.62a.6.6,0,0,0-.34.79c.15.41.53.71,1.14,1.08a1.68,1.68,0,0,0,.1-1.25m.14,5.44a1.31,1.31,0,0,1-1.81-.72c-.26-.7,0-1.46.81-2.39a3,3,0,0,1-1.1-1.29,1.58,1.58,0,0,1,1-2,1.28,1.28,0,0,1,1.75.67,1.78,1.78,0,0,1-.5,1.81c.46.3,1,.6,1.6.93.3-1.32.45-2.07,1.2-2.34a.81.81,0,0,1,1.12.46.67.67,0,0,1-.43.91.6.6,0,0,1-.65-.09c-.14-.14-.13-.39-.33-.32s-.26.62-.5,1.59c.81.4,1.32.61,1.76.44a1,1,0,0,0,.61-.71l.4.13a2.16,2.16,0,0,1-1.38,1.68,2.28,2.28,0,0,1-1.87-.26A3.13,3.13,0,0,1,82,117.49"/><path class="cls-2" d="M92.06,112.56c.67-.46.63-.71.21-1.36l-1.9-3c-.38-.59-.64-.66-1.26-.27l-.2-.32c.67-.39,1.41-.86,2.26-1.4s1.41-.91,2-1.35l.92,1.33-.32.2c-.64-.71-1.21-.59-2.28.1-.33.21-.38.31-.23.54l1.09,1.7.13-.09a1,1,0,0,0,.39-1.48l.33-.22c.25.41.48.78.69,1.1s.49.76.67,1l-.33.22c-.52-.6-.91-.69-1.51-.3l-.15.1.87,1.36c.41.63.56.78,1.36.32l.2.32c-.29.15-.62.35-1,.6-1,.62-1.55,1-1.75,1.17Z"/><path class="cls-2" d="M95.59,105c-.51-.61-.74-.72-1.35-.26l-.23-.27,1.19-1c.38-.33.8-.7,1.24-1.11l.23.28c-.54.53-.51.77,0,1.35l1.55,1.83c.89,1,1.56,1.22,2.47.45a1.81,1.81,0,0,0,.75-1.44,2.7,2.7,0,0,0-.8-1.41l-1.37-1.61c-.47-.56-.78-.64-1.33-.25l-.22-.26c.27-.2.55-.43.84-.68s.62-.55.82-.74l.24.28c-.45.47-.43.78,0,1.32l1.37,1.61a3.31,3.31,0,0,1,.93,1.72,2.6,2.6,0,0,1-1.1,2.16,2.85,2.85,0,0,1-2.13.84,2.61,2.61,0,0,1-1.65-1.12Z"/><path class="cls-2" d="M101.94,97.72l-.26.28c-.65.76-.7,1.26-.06,2l-.24.28-1.3-1.22c.51-.54,1-1.14,1.6-1.79.86-1,1.63-1.9,2.29-2.72l1.4,1.09-.23.27a1.32,1.32,0,0,0-2,.33,3.55,3.55,0,0,0-.27.35l3.46,3c.44.38.69.33,1.19-.22l.29.24c-.38.4-.72.78-1,1.15s-.66.78-1.12,1.36l-.29-.24c.45-.58.46-.8,0-1.18Z"/><path class="cls-2" d="M106.31,93.75c-.68-.42-.93-.46-1.37.17l-.3-.19c.3-.46.59-.9.84-1.3s.54-.91.84-1.43l.31.19c-.36.67-.26.89.39,1.3l2,1.26c1.16.71,1.86.69,2.49-.33a1.79,1.79,0,0,0,.27-1.59,2.68,2.68,0,0,0-1.19-1.1l-1.8-1.12c-.62-.38-.93-.36-1.34.18l-.29-.18c.2-.28.39-.58.6-.91s.42-.71.55-1l.31.18c-.28.59-.17.89.43,1.26l1.8,1.11a3.24,3.24,0,0,1,1.41,1.35A2.59,2.59,0,0,1,111.9,94a2.86,2.86,0,0,1-1.77,1.46,2.68,2.68,0,0,1-1.91-.57Z"/><path class="cls-2" d="M112.55,85.55c.37-.88.18-1.44-.64-1.78a1.12,1.12,0,0,0-1.69.69c-.14.32-.11.4.17.52l2,.86c0-.1.09-.2.13-.29m1.57,3.56c.3-.71.2-.94-.45-1.22l-3.51-1.48c-.56-.23-.75-.14-1.06.58l-.34-.14c.2-.43.36-.8.48-1.09.23-.55.45-1.13.71-1.76.66-1.57,1.42-2.14,2.42-1.72a1.58,1.58,0,0,1,.84,2,2.62,2.62,0,0,1,1.15-.4l1.5-.34a1.24,1.24,0,0,0,.89-.55l.32.13c-.1.19-.26.55-.48,1.07a6,6,0,0,0-.26.66l-2.53.54c-.53.11-.83.18-1,.5l0,.09,1.46.62c.59.25.84.14,1.1-.47l0,0,.35.15-.82,1.87c-.13.32-.29.7-.44,1.13Z"/><path class="cls-2" d="M117.12,81.65c.2-.75-.05-.91-.94-1.15l-3.29-.87c-.64-.17-.91,0-1.07.54l0,.07-.35-.09c.2-.62.38-1.22.54-1.82s.43-1.66.76-3.1l1.56.42-.1.36c-1,0-1.27.38-1.58,1.52-.12.45-.11.51.15.58l2,.51a.83.83,0,0,0,0-.15c.19-.7,0-1-.7-1.37l.1-.37a10.93,10.93,0,0,0,1.15.35c.45.12.87.21,1.25.29l-.09.35c-.8-.06-1.12.17-1.31.9l0,.11,1.59.42c.63.17,1-.07,1.14-.78.28-1,.1-1.57-.88-2l.08-.33,1.81.48c-.39,1.32-.68,2.41-.9,3.24l-.14.53c-.13.5-.26,1-.35,1.49Z"/><path class="cls-2" d="M65,106.86A41.86,41.86,0,1,1,106.85,65,41.86,41.86,0,0,1,65,106.86m0-85.35A43.49,43.49,0,1,0,108.48,65,43.49,43.49,0,0,0,65,21.51"/><path class="cls-1" d="M78.5,66.39a14.21,14.21,0,0,1-.71,1.86,7.86,7.86,0,0,1-1.19,1.81,5.37,5.37,0,0,1-1,.89V67.51l.7-.25a9.63,9.63,0,0,0,2.38-1.44ZM73.61,66a3.13,3.13,0,0,1-.32.15A5.81,5.81,0,0,1,72,65.81c-.63-.22-1.23-.42-1.79-.58S69.34,65,69,64.91l-1.16-.18a8.25,8.25,0,0,0-1.26-.1l-.67,0h0l0,0a11.11,11.11,0,0,0,3.55-.78,10.57,10.57,0,0,0,3.21-2,10.68,10.68,0,0,1,2.78.64,12.24,12.24,0,0,1,1.21.52,5.48,5.48,0,0,1-1.23,1.73A7.56,7.56,0,0,1,73.61,66m-7-.72h.07a9.14,9.14,0,0,1,1.88.29,8.25,8.25,0,0,1,1.94.79c.2.11.38.24.57.37a6.22,6.22,0,0,1-2.62-.4,7.08,7.08,0,0,1-1.84-1M72.33,72a8.37,8.37,0,0,1-2.19-.34l-.33-.11a5.34,5.34,0,0,1-.68-1.1c-.3-.6-.58-1.16-.86-1.67a9.32,9.32,0,0,0-.69-1.13q-.35-.5-.69-1a8.74,8.74,0,0,0-.82-1c-.13-.16-.3-.32-.46-.49v0h0a10.82,10.82,0,0,0,3,2,10.33,10.33,0,0,0,3.73.82,11.67,11.67,0,0,1,1.51,2.43c.17.37.33.78.48,1.21a5.57,5.57,0,0,1-2.09.37m1,3.43a14.77,14.77,0,0,1-1.82.82,8.31,8.31,0,0,1-2.13.44A6.17,6.17,0,0,1,68,76.58l2.44-2.45a5.86,5.86,0,0,0,.67.32,9.45,9.45,0,0,0,2.72.68ZM65.7,66.18l0,.06a8.63,8.63,0,0,1,1.12,1.53,7.69,7.69,0,0,1,.81,1.94,5.61,5.61,0,0,1,.12.64,6.27,6.27,0,0,1-1.55-2.12,7,7,0,0,1-.55-2M67.23,75c-.14.38-.32.79-.52,1.21A5.84,5.84,0,0,1,65,75a8.2,8.2,0,0,1-1.31-1.79,2.39,2.39,0,0,1-.16-.32,5.68,5.68,0,0,1,.28-1.26c.22-.63.42-1.23.59-1.79a9.76,9.76,0,0,0,.3-1.29c.07-.39.14-.78.2-1.16s.08-.81.11-1.25v-.68l0,0,0,0A10.67,10.67,0,0,0,65.82,69a10.09,10.09,0,0,0,2.05,3.22A11.17,11.17,0,0,1,67.23,75m-4,3.08a14.21,14.21,0,0,1-1.86-.71,7.3,7.3,0,0,1-1.8-1.19,5.82,5.82,0,0,1-.9-1H62.1c.08.23.15.47.25.71a10,10,0,0,0,1.43,2.38Zm1.17-11.89v.08a9.77,9.77,0,0,1-.29,1.87,8.42,8.42,0,0,1-.79,1.94c-.12.19-.24.39-.38.57a6.31,6.31,0,0,1,.4-2.61,7,7,0,0,1,1.06-1.85m-6.75,5.73a8.77,8.77,0,0,1,.33-2.2c0-.11.07-.22.11-.32a6.41,6.41,0,0,1,1.09-.69c.61-.3,1.18-.58,1.68-.86a9.48,9.48,0,0,0,1.14-.7,19.78,19.78,0,0,0,1.92-1.49l.48-.47h0v.05a11.11,11.11,0,0,0-2,3A10.48,10.48,0,0,0,61.64,72a11.67,11.67,0,0,1-2.43,1.51c-.38.18-.79.33-1.21.48a5.4,5.4,0,0,1-.37-2.08m5.8-6.64-.06,0a8.63,8.63,0,0,1-1.53,1.12,7.56,7.56,0,0,1-1.93.81,4.66,4.66,0,0,1-.65.12,6.12,6.12,0,0,1,2.12-1.54,6.68,6.68,0,0,1,2-.56m-8.84,1.53c-.39-.14-.79-.32-1.21-.52a5.53,5.53,0,0,1,1.23-1.73,8,8,0,0,1,1.78-1.32,1.87,1.87,0,0,1,.32-.15,5.49,5.49,0,0,1,1.25.28c.64.23,1.23.42,1.79.59a12.44,12.44,0,0,0,1.29.31l1.17.19a9.74,9.74,0,0,0,1.25.1c.21,0,.43,0,.68,0a0,0,0,0,1,0,0h0a11,11,0,0,0-3.54.79,9.9,9.9,0,0,0-3.21,2.06,11.69,11.69,0,0,1-2.79-.65m.56,3.88a9.55,9.55,0,0,0-.67,2.7l-.29-.53a14,14,0,0,1-.81-1.81A7.62,7.62,0,0,1,52.94,69,5.66,5.66,0,0,1,53,67.59L55.47,70a6,6,0,0,0-.32.68m-3.82-7.32.17-.58A13.1,13.1,0,0,1,52.21,61a7.92,7.92,0,0,1,1.19-1.82,5.82,5.82,0,0,1,1-.89V61.7c-.24.07-.46.16-.7.25a9.39,9.39,0,0,0-2.39,1.44M63.4,64h-.08a9.18,9.18,0,0,1-1.88-.3,7.41,7.41,0,0,1-1.94-.79,5.57,5.57,0,0,1-.58-.37,6.25,6.25,0,0,1,2.63.41,6.59,6.59,0,0,1,1.85,1m-5.73-6.76a8.74,8.74,0,0,1,2.19.34l.33.12a6,6,0,0,1,.69,1.09c.3.61.58,1.17.85,1.68a11.89,11.89,0,0,0,.7,1.13l.68,1c.25.32.51.63.81,1,.15.16.31.31.47.49v0h0a11,11,0,0,0-3.06-2,10.48,10.48,0,0,0-3.72-.81,10.68,10.68,0,0,1-1.52-2.43c-.17-.37-.33-.78-.48-1.21a5.64,5.64,0,0,1,2.09-.38m-1-3.42A13.38,13.38,0,0,1,58.53,53a7.7,7.7,0,0,1,2.12-.44,7.06,7.06,0,0,1,1.37.09l-2.45,2.44c-.22-.1-.44-.22-.68-.31a9.24,9.24,0,0,0-2.7-.68ZM64.31,63,64.25,63a9.86,9.86,0,0,1-1.12-1.54,7.6,7.6,0,0,1-.8-1.93,6.06,6.06,0,0,1-.12-.64A6.6,6.6,0,0,1,63.75,61,7.29,7.29,0,0,1,64.31,63m-1.53-8.84A12.24,12.24,0,0,1,63.3,53,5.78,5.78,0,0,1,65,54.2,8.2,8.2,0,0,1,66.34,56c.06.1.1.21.16.31a5.63,5.63,0,0,1-.29,1.26c-.22.64-.42,1.24-.58,1.8a8.24,8.24,0,0,0-.31,1.29c-.07.39-.14.78-.19,1.16a12,12,0,0,0-.1,1.25c0,.21,0,.43,0,.67l0,0s0,0,0,0a11.26,11.26,0,0,0-.78-3.53,10.15,10.15,0,0,0-2-3.21,10.65,10.65,0,0,1,.64-2.79m4-3.08a12.3,12.3,0,0,1,1.84.71A7.48,7.48,0,0,1,70.46,53a6.26,6.26,0,0,1,.9,1H67.9a7.4,7.4,0,0,0-.25-.7,9.59,9.59,0,0,0-1.43-2.38ZM65.63,63v-.08A8.6,8.6,0,0,1,65.92,61a8.17,8.17,0,0,1,.79-1.94c.11-.19.24-.37.37-.56a6.35,6.35,0,0,1-.4,2.62A7.06,7.06,0,0,1,65.63,63m5.13-1.18a6.66,6.66,0,0,1-2.13,1.55,7.75,7.75,0,0,1-2,.56.2.2,0,0,1,.06-.07,8.76,8.76,0,0,1,1.53-1.12,8.35,8.35,0,0,1,1.93-.81,4.33,4.33,0,0,1,.66-.11m1.62-4.53A8.3,8.3,0,0,1,72,59.46a3.19,3.19,0,0,1-.11.33,6,6,0,0,1-1.09.69c-.61.29-1.17.58-1.68.86A12.27,12.27,0,0,0,68,62c-.33.23-.65.46-1,.71a7.53,7.53,0,0,0-1,.8l-.49.47h0v0a11.1,11.1,0,0,0,1.94-3.06,10.26,10.26,0,0,0,.83-3.72,10,10,0,0,1,2.43-1.5,8.61,8.61,0,0,1,1.22-.5,5.88,5.88,0,0,1,.36,2.1m2.47,1.22a10,10,0,0,0,.69-2.71l.27.54a12.26,12.26,0,0,1,.81,1.81,7.84,7.84,0,0,1,.44,2.12A6.13,6.13,0,0,1,77,61.61l-2.44-2.44a5.16,5.16,0,0,0,.32-.67M95.21,68a11,11,0,0,0,.58-1.69A10.43,10.43,0,0,0,96,63.9a10.25,10.25,0,0,0-.65-3.69,9,9,0,0,0-1.85-2.9,8.2,8.2,0,0,0-2.76-1.88,9.13,9.13,0,0,0-3.48-.66,6.22,6.22,0,0,0-4.59,1.72,9.91,9.91,0,0,0-1.37,1.88,7.78,7.78,0,0,0-.61-1.78c-.36-.76-.67-1.39-.93-1.88L77.34,50c-.35-.67-.67-1.35-1-2.05a9,9,0,0,1-.59-2.12,5,5,0,0,1,.14-2.11,4.34,4.34,0,0,1,1.22-2,5,5,0,0,1,2.43-1.46,5.48,5.48,0,0,1,2.45,0,7,7,0,0,1,2.25.93A9.79,9.79,0,0,1,86,42.57a7,7,0,0,1,1.77,2.68,7.39,7.39,0,0,1,.43,2.84,9,9,0,0,1-.64,2.85,12.15,12.15,0,0,1-1.44,2.65l.35.35,5.34-5.33-.41-.42a3.33,3.33,0,0,1-.9.16,1.43,1.43,0,0,1-.61-.42,2.75,2.75,0,0,1-.63-1c-.15-.38-.32-.81-.5-1.29a11.82,11.82,0,0,0-.8-1.59,10.28,10.28,0,0,0-1.55-1.9A9.92,9.92,0,0,0,83.37,40,8.94,8.94,0,0,0,80,39.27a8.16,8.16,0,0,0-3.28.64,8.75,8.75,0,0,0-2.92,2,6.16,6.16,0,0,0-2,4.47,8.69,8.69,0,0,0,.34,2.28,8.73,8.73,0,0,0-1.68-.83l-2-.67-5-1.57c-.73-.22-1.45-.48-2.15-.77a9,9,0,0,1-1.93-1.08A5.36,5.36,0,0,1,58,42.12a4.42,4.42,0,0,1-.54-2.26,5,5,0,0,1,.69-2.75,5.56,5.56,0,0,1,1.73-1.75,6.54,6.54,0,0,1,2.25-.93,9.6,9.6,0,0,1,2.2-.28,7.15,7.15,0,0,1,3.15.65,7.57,7.57,0,0,1,2.31,1.7A8.71,8.71,0,0,1,71.31,39a12.8,12.8,0,0,1,.86,2.89h.49V34.32h-.58a3.61,3.61,0,0,1-.51.74,1.52,1.52,0,0,1-.73.13,2.71,2.71,0,0,1-1.15-.25c-.38-.17-.8-.34-1.27-.56a11.14,11.14,0,0,0-1.69-.56,9.9,9.9,0,0,0-2.44-.25,10,10,0,0,0-3.68.66,8.67,8.67,0,0,0-2.89,1.84,8.32,8.32,0,0,0-1.89,2.77,9.25,9.25,0,0,0-.66,3.48,6.21,6.21,0,0,0,1.73,4.59,9.51,9.51,0,0,0,1.86,1.36,9.22,9.22,0,0,0-1.77.6c-.77.38-1.39.69-1.88,1l-4.68,2.43c-.68.37-1.36.69-2.07,1a8.85,8.85,0,0,1-2.12.59,5.55,5.55,0,0,1-2.11-.13,4.51,4.51,0,0,1-2-1.23A5.12,5.12,0,0,1,40.69,50a5.68,5.68,0,0,1,0-2.46,6.92,6.92,0,0,1,.93-2.25A9.6,9.6,0,0,1,43,43.58a7.11,7.11,0,0,1,2.68-1.77,7.2,7.2,0,0,1,2.85-.43,8.7,8.7,0,0,1,2.83.63A12.18,12.18,0,0,1,54,43.46l.36-.36L49,37.78l-.42.41a2.41,2.41,0,0,1,.15.87,1.23,1.23,0,0,1-.41.62,2.65,2.65,0,0,1-1,.64l-1.29.5a11.12,11.12,0,0,0-1.59.79,11.33,11.33,0,0,0-4,4.63,8.74,8.74,0,0,0-.75,3.34,8.13,8.13,0,0,0,.64,3.28,8.69,8.69,0,0,0,2,2.93,6.14,6.14,0,0,0,4.47,2,8.45,8.45,0,0,0,2.29-.35,9.09,9.09,0,0,0-.84,1.68c-.28.81-.49,1.48-.66,2l-1.59,5a22.44,22.44,0,0,1-.76,2.13,9.22,9.22,0,0,1-1.09,1.93,5.27,5.27,0,0,1-1.58,1.39,4.51,4.51,0,0,1-2.27.54,5.05,5.05,0,0,1-2.75-.68,5.67,5.67,0,0,1-1.75-1.73,7.15,7.15,0,0,1-.93-2.25,9.68,9.68,0,0,1-.28-2.21,7.29,7.29,0,0,1,.65-3.15,7.57,7.57,0,0,1,1.7-2.31,9,9,0,0,1,2.47-1.56,12,12,0,0,1,2.89-.85v-.5H34.72v.58a3.13,3.13,0,0,1,.73.52,1.24,1.24,0,0,1,.15.73,2.94,2.94,0,0,1-.25,1.15c-.17.37-.36.8-.58,1.26a12.46,12.46,0,0,0-.55,1.69A10.86,10.86,0,0,0,34.63,69a8.7,8.7,0,0,0,1.84,2.91,8.17,8.17,0,0,0,2.77,1.87,9.06,9.06,0,0,0,3.48.66A6.17,6.17,0,0,0,47.3,72.7a9.43,9.43,0,0,0,1.37-1.86,8.77,8.77,0,0,0,.6,1.77c.37.77.69,1.4.95,1.89l2.44,4.69a20.44,20.44,0,0,1,1,2.06,8.85,8.85,0,0,1,.59,2.12,5.14,5.14,0,0,1-.13,2.1,4.42,4.42,0,0,1-1.22,2,5.1,5.1,0,0,1-2.44,1.46,5.48,5.48,0,0,1-2.45,0A6.78,6.78,0,0,1,45.72,88,10.34,10.34,0,0,1,44,86.64,7.07,7.07,0,0,1,42.21,84a7.23,7.23,0,0,1-.43-2.84,8.76,8.76,0,0,1,.63-2.85,12.84,12.84,0,0,1,1.44-2.65l-.35-.35-5.33,5.32.41.42a3.14,3.14,0,0,1,.88-.15,1.34,1.34,0,0,1,.63.42,2.76,2.76,0,0,1,.63,1l.5,1.29A9.29,9.29,0,0,0,43.56,87a9.87,9.87,0,0,0,3.07,2.14,8.81,8.81,0,0,0,3.35.76,8.16,8.16,0,0,0,3.28-.64,9.08,9.08,0,0,0,2.94-2,6.2,6.2,0,0,0,2-4.46,8.74,8.74,0,0,0-.35-2.29,8.46,8.46,0,0,0,1.69.82c.8.28,1.47.5,2,.67l5,1.58c.72.23,1.44.48,2.15.77a8.47,8.47,0,0,1,1.91,1.09A5.26,5.26,0,0,1,72,87.07a4.42,4.42,0,0,1,.54,2.28,5.08,5.08,0,0,1-.68,2.74,5.46,5.46,0,0,1-1.73,1.75,7.19,7.19,0,0,1-2.25,1,10.69,10.69,0,0,1-2.21.25,7.29,7.29,0,0,1-3.15-.63,7.6,7.6,0,0,1-2.31-1.71,8.88,8.88,0,0,1-1.56-2.46,12.09,12.09,0,0,1-.85-2.9h-.51v7.55h.59a2.52,2.52,0,0,1,.52-.73,1.22,1.22,0,0,1,.72-.15,2.57,2.57,0,0,1,1.15.25c.38.17.8.36,1.28.56a10.93,10.93,0,0,0,1.68.57,10.46,10.46,0,0,0,2.44.24A10.08,10.08,0,0,0,69.4,95a8.71,8.71,0,0,0,2.89-1.84,8.06,8.06,0,0,0,1.88-2.76,9.33,9.33,0,0,0,.66-3.48,6.16,6.16,0,0,0-1.72-4.58,9.16,9.16,0,0,0-1.87-1.38,8.77,8.77,0,0,0,1.77-.6c.77-.36,1.39-.69,1.9-.94l4.67-2.45c.66-.35,1.36-.67,2.07-1a8.1,8.1,0,0,1,2.12-.6,5.32,5.32,0,0,1,2.1.14,4.39,4.39,0,0,1,2,1.22,5,5,0,0,1,1.45,2.42,5.29,5.29,0,0,1,0,2.47,6.6,6.6,0,0,1-.92,2.25A10,10,0,0,1,87,85.63a7.27,7.27,0,0,1-2.68,1.77,7.35,7.35,0,0,1-2.85.43,9.09,9.09,0,0,1-2.84-.63A12.11,12.11,0,0,1,76,85.75l-.35.35L81,91.44l.41-.41a2.45,2.45,0,0,1-.14-.89,1.14,1.14,0,0,1,.4-.62,3,3,0,0,1,1-.63c.39-.16.82-.31,1.3-.51a9.28,9.28,0,0,0,1.58-.79,11,11,0,0,0,4-4.63,8.7,8.7,0,0,0,.75-3.34,8,8,0,0,0-.63-3.28,9,9,0,0,0-2-2.93,6.11,6.11,0,0,0-4.46-2,9.14,9.14,0,0,0-2.29.34,9,9,0,0,0,.83-1.68c.27-.81.5-1.47.67-2L84,63c.23-.73.49-1.44.77-2.15A9.12,9.12,0,0,1,85.89,59a5.35,5.35,0,0,1,1.59-1.4A4.42,4.42,0,0,1,89.74,57a5,5,0,0,1,2.75.69,5.27,5.27,0,0,1,1.75,1.73,6.35,6.35,0,0,1,.93,2.25,9.1,9.1,0,0,1,.28,2.21A7.4,7.4,0,0,1,94.81,67a7.21,7.21,0,0,1-1.71,2.31,9,9,0,0,1-2.46,1.56,11.65,11.65,0,0,1-2.9.85v.51h7.54v-.59a3.13,3.13,0,0,1-.72-.51,1.32,1.32,0,0,1-.15-.74,2.81,2.81,0,0,1,.25-1.15c.17-.36.35-.79.55-1.26"/></svg>