<svg xmlns="http://www.w3.org/2000/svg" xmlns:xlink="http://www.w3.org/1999/xlink" width="219" height="219" viewBox="0 0 219 219">
  <defs>
    <polygon id="placemakers-faded-a" points="0 0 219 0 219 219 0 219"/>
  </defs>
  <g fill="none" fill-rule="evenodd" opacity=".467">
    <mask id="placemakers-faded-b" fill="#fff">
      <use xlink:href="#placemakers-faded-a"/>
    </mask>
    <path fill="#FFF" d="M109.4988,218.9997 C49.1208,218.9997 -0.0002,169.8767 -0.0002,109.4987 C-0.0002,49.1207 49.1208,-0.0003 109.4988,-0.0003 C169.8768,-0.0003 218.9998,49.1207 218.9998,109.4987 C218.9998,169.8767 169.8768,218.9997 109.4988,218.9997 M109.4988,2.6337 C50.5708,2.6337 2.6308,50.5707 2.6308,109.4987 C2.6308,168.4257 50.5708,216.3657 109.4988,216.3657 C168.4258,216.3657 216.3658,168.4257 216.3658,109.4987 C216.3658,50.5707 168.4258,2.6337 109.4988,2.6337" mask="url(#placemakers-faded-b)"/>
    <path fill="#FFF" d="M19.5857 96.7204L23.1287 97.2684C23.1487 97.1404 23.1847 97.0204 23.1987 96.9094 23.4377 95.3664 22.9337 94.6964 21.4687 94.4714 20.2507 94.2824 19.5747 94.8184 19.3767 96.1124 19.2947 96.6274 19.3537 96.6824 19.5857 96.7204M44.5671 56.7556C45.4351 57.4866 46.0331 57.5166 46.7551 56.6596 47.9441 55.2436 47.3641 53.7026 45.0711 51.7746 42.5941 49.6886 40.8761 49.4986 39.2151 51.4646 38.9321 51.8056 38.9151 51.9976 39.1421 52.1906L44.5671 56.7556zM54.8435 174.1618C54.3635 173.7548 54.1565 173.6818 53.9285 173.9468L51.4475 176.8748C51.5455 176.9758 51.6535 177.0698 51.7645 177.1628 53.0405 178.2468 53.9755 178.1908 55.0185 176.9628 55.8775 175.9508 55.8085 174.9808 54.8435 174.1618M60.6335 37.8083C60.7995 37.7183 60.9595 37.6143 61.0915 37.5263 62.4635 36.6223 62.7225 35.6383 61.8865 34.3733 61.0275 33.0663 60.0695 32.9063 58.8015 33.7393 58.3155 34.0623 58.2625 34.2103 58.5475 34.6423L60.6335 37.8083zM26.0007 132.862C27.2857 132.533 27.7927 131.703 27.4807 130.479 27.3227 129.864 27.1977 129.686 26.8597 129.771L23.1397 130.72C23.1597 130.86 23.1947 131.001 23.2297 131.137 23.6407 132.759 24.4387 133.258 26.0007 132.862"/>
    <polygon fill="#FFF" points="28.32 140.065 24.341 139.983 25.392 142.693"/>
    <path fill="#FFF" d="M28.4665,96.8454 C28.6475,95.6744 28.0025,94.9844 26.5205,94.7534 C24.9935,94.5214 24.2005,95.1794 23.9425,96.8664 C23.9185,97.0234 23.8925,97.1924 23.8775,97.3844 L26.4995,97.7864 C27.7795,97.9884 28.3205,97.7814 28.4665,96.8454"/>
    <polygon fill="#FFF" points="176.686 51.149 172.902 52.378 174.787 54.592"/>
    <polygon fill="#FFF" points="130.915 23.133 128.529 26.323 131.343 27.046"/>
    <path fill="#FFF" d="M87.5769 30.0944C88.2099 29.9374 88.6929 29.5404 88.9639 28.9854 88.1919 28.5734 87.1809 27.8334 85.9599 26.7354 85.4469 27.2854 85.2609 27.9824 85.4349 28.6874 85.6779 29.6554 86.7029 30.3134 87.5769 30.0944M192.9577 85.7917C193.3917 87.3737 194.2487 87.9277 195.7107 87.5247 197.2237 87.1107 197.6717 86.2487 197.2717 84.7867 197.1147 84.2217 196.9897 84.1247 196.4887 84.2627L192.8297 85.2677C192.8647 85.4567 192.9167 85.6377 192.9577 85.7917M86.9187 24.4919C87.3507 23.7989 87.4757 23.0009 87.3177 22.3709 87.0907 21.4509 86.5247 21.0049 85.8967 21.1619 85.3277 21.3039 85.0227 21.8519 85.1737 22.4499 85.3517 23.1729 85.9507 23.7549 86.9187 24.4919M107.0681 22.7331C108.7431 22.6961 109.4071 22.0311 109.3671 20.4201 109.3351 19.0911 108.6381 18.4131 107.3741 18.4451 106.7451 18.4621 106.5411 18.5461 106.5471 18.8901L106.6391 22.7301C106.7821 22.7421 106.9251 22.7391 107.0681 22.7331M63.9079 180.7341C63.4129 180.4221 63.2589 180.4341 62.9779 180.8771L60.9599 184.0851C61.1109 184.1981 61.2679 184.2971 61.4019 184.3811 62.7919 185.2581 63.7969 185.0871 64.6039 183.8041 65.4369 182.4851 65.1889 181.5411 63.9079 180.7341M190.0857 141.7429C188.6447 141.1379 187.7587 141.5339 187.1697 142.9319 186.9417 143.4709 186.9807 143.6229 187.4607 143.8259L190.9537 145.2979C191.0417 145.1289 191.1137 144.9539 191.1757 144.8079 191.8137 143.2969 191.4837 142.3319 190.0857 141.7429M137.278 196.7888C137.619 197.7218 138.709 198.2668 139.553 197.9548 140.162 197.7328 140.605 197.2878 140.812 196.7048 140.005 196.3788 138.915 195.7518 137.59 194.7908 137.138 195.3928 137.027 196.1068 137.278 196.7888"/>
    <path fill="#FFF" d="M200.2702,135.6911 C200.0402,136.5621 199.8152,137.4171 199.6722,138.2611 L199.0292,138.0921 C199.3702,136.8101 198.9352,136.5311 197.4092,136.1261 L191.7562,134.6281 C190.6692,134.3421 190.1922,134.5411 189.9242,135.5511 C189.9132,135.5951 189.9042,135.6281 189.8922,135.6711 L189.2972,135.5161 C189.6412,134.4621 189.9482,133.4301 190.2182,132.4051 C190.5032,131.3241 190.9612,129.5451 191.5302,127.0801 L194.2042,127.7911 L194.0382,128.4171 C192.2572,128.3521 191.8412,129.0571 191.3202,131.0301 C191.1162,131.7941 191.1222,131.8921 191.5672,132.0111 L194.9262,132.9001 C194.9502,132.8101 194.9732,132.7191 194.9972,132.6411 C195.3142,131.4351 195.0052,130.8791 193.7882,130.2931 L193.9572,129.6521 C194.5972,129.8881 195.2642,130.0801 195.9372,130.2571 C196.7182,130.4641 197.4292,130.6191 198.0822,130.7481 L197.9212,131.3561 C196.5612,131.2431 196.0132,131.6361 195.6842,132.8881 C195.6662,132.9531 195.6492,133.0111 195.6282,133.0871 L198.3642,133.8121 C199.4482,134.1011 199.9992,133.6901 200.3252,132.4661 C200.7972,130.6801 200.4822,129.7621 198.8012,128.9561 L198.9502,128.3931 L202.0532,129.2121 C201.3822,131.4871 200.8902,133.3521 200.5082,134.7891 C200.4272,135.0941 200.3512,135.3851 200.2702,135.6911 L200.2702,135.6911 Z M198.1122,142.5031 C197.9522,142.8821 197.7912,143.2611 197.6692,143.6341 L193.3202,144.5601 C192.4162,144.7501 191.9012,144.8751 191.6702,145.4251 C191.6532,145.4691 191.6472,145.5191 191.6222,145.5801 L194.1262,146.6341 C195.1432,147.0631 195.5832,146.8711 196.0202,145.8371 C196.0322,145.8071 196.0382,145.7931 196.0522,145.7631 L196.6622,146.0201 C195.9542,147.6261 195.4842,148.6951 195.2572,149.2371 C195.0242,149.7871 194.7562,150.4281 194.4912,151.1741 L193.8822,150.9181 C194.3982,149.6941 194.2202,149.2951 193.1012,148.8231 L187.0762,146.2851 C186.1152,145.8801 185.7912,146.0381 185.2492,147.2821 L184.6662,147.0371 C185.0162,146.2911 185.2792,145.6651 185.4942,145.1551 C185.8872,144.2221 186.2602,143.2171 186.7152,142.1391 C187.8482,139.4471 189.1572,138.4571 190.8752,139.1791 C192.1712,139.7271 192.7102,140.9651 192.3092,142.6461 C192.6562,142.3111 193.3262,142.1831 194.2952,141.9591 L196.8692,141.3781 C197.6232,141.2181 198.1322,140.9011 198.4012,140.4291 L198.9402,140.6601 C198.7682,140.9801 198.4912,141.6001 198.1122,142.5031 L198.1122,142.5031 Z M190.0622,159.3791 C189.1912,160.7931 188.2362,161.6141 187.0262,161.8851 C186.0772,162.0971 185.0602,161.7271 183.7432,160.9121 L180.4652,158.8811 C179.2972,158.1591 178.8692,158.0971 178.1142,159.1721 L177.5892,158.8461 C178.1142,158.0561 178.6042,157.2991 179.0262,156.6151 C179.4842,155.8781 179.9702,155.0621 180.4712,154.1651 L181.0102,154.4971 C180.3922,155.6381 180.5642,156.0231 181.6802,156.7131 L185.1702,158.8781 C187.1582,160.1111 188.3552,160.0701 189.4362,158.3251 C190.0682,157.3021 190.2162,156.3171 189.9052,155.5861 C189.5842,154.8461 188.8882,154.3191 187.8662,153.6891 L184.7772,151.7751 C183.7132,151.1171 183.1712,151.1551 182.4732,152.0761 L181.9742,151.7661 C182.3092,151.2891 182.6472,150.7701 182.9972,150.2051 C183.4052,149.5491 183.7312,148.9901 183.9562,148.5711 L184.4772,148.8941 C184.0052,149.9021 184.1922,150.4091 185.2262,151.0491 L188.3142,152.9641 C189.4852,153.6861 190.3132,154.3311 190.7292,155.2771 C191.2272,156.4221 191.0122,157.8501 190.0622,159.3791 L190.0622,159.3791 Z M181.2912,170.9101 C180.8162,171.4611 180.1572,172.2531 179.3592,173.2531 L178.8672,172.8301 C179.6442,171.8311 179.6502,171.4611 178.8932,170.8111 L172.9472,165.7011 C172.7802,165.8731 172.6462,166.0241 172.5122,166.1811 C171.3872,167.4871 171.3092,168.3581 172.4052,169.6541 L171.9912,170.1321 L169.7592,168.0481 C170.6422,167.1171 171.5512,166.0861 172.5092,164.9691 C173.9842,163.2561 175.3002,161.7011 176.4492,160.2881 L178.8432,162.1611 L178.4442,162.6271 C177.0312,161.7701 176.1162,161.9621 175.0552,163.1951 C174.9012,163.3761 174.7472,163.5801 174.5862,163.7931 L180.5332,168.9061 C181.2882,169.5521 181.7182,169.4641 182.5792,168.5151 L183.0682,168.9371 C182.4232,169.6131 181.8352,170.2751 181.2912,170.9101 L181.2912,170.9101 Z M171.0442,181.5351 C169.7832,182.6101 168.6212,183.0991 167.3852,182.9921 C166.4152,182.9011 165.5612,182.2401 164.5562,181.0631 L162.0532,178.1261 C161.1622,177.0771 160.7742,176.8901 159.7222,177.6801 L159.3242,177.2141 C160.0632,176.6201 160.7602,176.0481 161.3742,175.5241 C162.0362,174.9621 162.7492,174.3331 163.4992,173.6301 L163.9092,174.1111 C162.9742,175.0141 163.0202,175.4311 163.8722,176.4301 L166.5372,179.5591 C168.0552,181.3391 169.2062,181.6691 170.7702,180.3351 C171.6852,179.5561 172.1272,178.6591 172.0552,177.8701 C171.9732,177.0651 171.4692,176.3511 170.6892,175.4371 L168.3322,172.6711 C167.5222,171.7191 166.9952,171.5881 166.0412,172.2531 L165.6632,171.8091 C166.1292,171.4511 166.6102,171.0641 167.1142,170.6321 C167.7062,170.1311 168.1862,169.6971 168.5272,169.3651 L168.9262,169.8371 C168.1682,170.6501 168.1922,171.1921 168.9812,172.1161 L171.3382,174.8861 C172.2332,175.9321 172.8252,176.7971 172.9322,177.8261 C173.0572,179.0671 172.4162,180.3641 171.0442,181.5351 L171.0442,181.5351 Z M159.3472,189.7381 C157.6862,190.8041 156.6842,191.4651 156.3372,191.7421 L155.9882,191.1971 C157.1322,190.4051 157.0662,189.9821 156.3492,188.8641 L153.0752,183.7621 C152.4242,182.7521 151.9852,182.6231 150.9132,183.2911 L150.5632,182.7461 C151.7132,182.0821 152.9992,181.2741 154.4472,180.3441 C155.6972,179.5441 156.8712,178.7711 157.9492,178.0231 L159.5222,180.2981 L158.9772,180.6481 C157.8702,179.4241 156.8852,179.6421 155.0522,180.8231 C154.4942,181.1781 154.3972,181.3531 154.6572,181.7521 L156.5242,184.6631 C156.6022,184.6101 156.6692,184.5661 156.7492,184.5171 C157.7592,183.8671 157.9462,183.1101 157.4182,181.9671 L157.9932,181.6001 C158.4232,182.2991 158.8112,182.9321 159.1692,183.4911 C159.6262,184.2081 160.0262,184.7961 160.3292,185.2421 L159.7542,185.6061 C158.8732,184.5811 158.1962,184.4321 157.1592,185.0961 C157.0812,185.1491 157.0102,185.2131 156.9152,185.2741 L158.4092,187.5991 C159.1082,188.6891 159.3712,188.9511 160.7342,188.1531 L161.0832,188.6981 C160.5912,188.9571 160.0112,189.3091 159.3472,189.7381 L159.3472,189.7381 Z M144.7652,197.4481 C143.8322,197.7891 142.7812,197.6311 141.5602,197.0041 C140.8242,198.3471 139.9172,199.2191 138.7142,199.6591 C137.3042,200.1741 136.0632,199.6701 135.6052,198.4231 C135.1662,197.2231 135.6492,195.9201 136.9982,194.3181 C136.0372,193.6251 135.3962,192.8851 135.1132,192.1131 C134.5712,190.6301 135.3112,189.1151 136.7802,188.5791 C138.1432,188.0781 139.3702,188.6231 139.7782,189.7361 C140.1392,190.7291 139.8592,191.7571 138.9322,192.8531 C139.7222,193.3541 140.6372,193.8761 141.6662,194.4441 C142.1872,192.1831 142.4522,190.8921 143.7432,190.4201 C144.6312,190.0941 145.3832,190.4441 145.6662,191.2121 C145.9132,191.8971 145.6072,192.5271 144.9252,192.7771 C144.4832,192.9401 144.0752,192.8881 143.8072,192.6171 C143.5712,192.3841 143.5772,191.9441 143.2362,192.0661 C142.8802,192.1981 142.7872,193.1411 142.3852,194.8021 C143.7632,195.4901 144.6372,195.8451 145.4062,195.5621 C145.9392,195.3711 146.2832,194.9711 146.4552,194.3381 L147.1422,194.5571 C146.7172,196.1101 146.0122,196.9901 144.7652,197.4481 L144.7652,197.4481 Z M125.2272,195.1171 C124.7552,193.5351 123.9452,193.0681 122.3322,193.2751 C122.0982,193.3071 121.8502,193.3541 121.5832,193.4031 L122.5842,201.1701 C122.7122,202.1581 123.0912,202.3791 124.3652,202.2491 L124.4462,202.8891 C123.5172,202.9621 122.6372,203.0581 121.8072,203.1671 C121.0872,203.2591 120.0712,203.4051 118.8092,203.6181 L118.7272,202.9741 C119.9712,202.7501 120.2222,202.4791 120.0962,201.4941 L119.0942,193.7241 C118.8582,193.7381 118.6522,193.7641 118.4512,193.7911 C116.7442,194.0091 116.1052,194.6041 116.0492,196.2961 L115.4232,196.3781 L115.1622,193.3391 C116.4372,193.2371 117.8012,193.0771 119.2572,192.8901 C121.4982,192.6021 123.5172,192.3261 125.3122,192.0481 L125.8392,195.0351 L125.2272,195.1171 Z M113.2722,194.1191 C112.0542,194.1661 111.8042,194.6931 111.7692,196.0211 L111.5392,204.3101 L110.6562,204.2871 L103.6872,195.6711 L103.5302,201.3271 C103.4952,202.6211 103.9202,203.2321 104.9312,203.2761 L104.9142,203.9221 C103.8562,203.8471 103.0672,203.8271 102.5442,203.8121 C102.0412,203.7971 101.5812,203.8001 101.1522,203.8361 L101.1722,203.1731 C102.3752,203.0631 102.6262,202.5651 102.6622,201.3001 L102.8452,194.6521 L102.6622,194.4101 C102.3412,193.9911 101.9982,193.8391 101.3332,193.7871 L101.3532,193.1721 C101.7932,193.2331 102.3002,193.2481 102.9002,193.2621 C103.4052,193.2771 104.0192,193.2951 104.7012,193.2651 L110.8012,200.6391 L110.9322,195.9201 C110.9672,194.6081 110.6212,194.0601 109.5172,194.0171 L109.5322,193.3991 C110.2892,193.4491 110.8892,193.4841 111.3462,193.4991 C111.7572,193.5071 112.3892,193.5101 113.2922,193.5041 L113.2722,194.1191 Z M98.3692,195.4541 L97.7342,195.3421 C97.6492,193.5621 96.9102,193.2041 94.9052,192.8481 C94.1272,192.7121 94.0282,192.7261 93.9472,193.1751 L93.3402,196.5981 C93.4312,196.6131 93.5272,196.6301 93.6032,196.6451 C94.8332,196.8631 95.3602,196.5071 95.8402,195.2471 L96.4962,195.3631 C96.3122,196.0181 96.1752,196.7001 96.0532,197.3841 C95.9132,198.1771 95.8172,198.9001 95.7472,199.5611 L95.1262,199.4481 C95.1262,198.0841 94.6862,197.5741 93.4142,197.3501 C93.3522,197.3381 93.2882,197.3271 93.2122,197.3121 L92.7172,200.0941 C92.5222,201.2021 92.9762,201.7141 94.2202,201.9331 C96.0392,202.2561 96.9242,201.8691 97.5852,200.1271 L98.1632,200.2281 L97.6002,203.3831 C95.2812,202.9091 93.3842,202.5711 91.9212,202.3111 C91.6132,202.2561 91.3162,202.2011 91.0032,202.1481 C90.1182,201.9911 89.2472,201.8371 88.3962,201.7661 L88.5102,201.1111 C89.8152,201.3411 90.0602,200.8901 90.3332,199.3341 L91.3562,193.5831 C91.5542,192.4781 91.3162,192.0211 90.2882,191.8351 C90.2442,191.8261 90.2082,191.8231 90.1652,191.8141 L90.2732,191.2091 C91.3502,191.4641 92.3992,191.6831 93.4422,191.8701 C94.5462,192.0651 96.3532,192.3711 98.8532,192.7351 L98.3692,195.4541 Z M87.0262,193.3231 L86.3462,193.1161 C86.4872,191.5871 85.7552,190.4671 84.5002,190.0841 C83.5792,189.7971 82.8312,190.2001 82.5882,190.9831 C82.3242,191.8431 82.8742,192.3091 83.8092,193.1451 C85.7932,194.9141 86.8332,196.0421 86.2592,197.9151 C85.6652,199.8491 83.8502,200.6941 81.6592,200.0211 C80.5432,199.6801 79.7742,199.1621 79.2442,198.2031 L78.8332,198.8901 L78.1252,198.6701 C78.3032,198.1971 78.4662,197.7161 78.6212,197.2181 C78.8192,196.5691 78.9882,195.9771 79.1072,195.4671 L79.8032,195.6831 C79.6752,197.6091 80.2872,198.7921 81.6292,199.2051 C82.7782,199.5541 83.6662,199.1351 83.9752,198.1391 C84.2872,197.1281 83.6642,196.5221 82.5032,195.5031 C80.8082,194.0221 80.0832,192.8921 80.5982,191.2131 C81.1282,189.4921 82.6992,188.7341 84.5292,189.2961 C85.5252,189.6021 86.2302,190.0511 86.7492,190.8401 L87.1302,190.2471 L87.8382,190.4641 C87.5772,191.3241 87.2962,192.2831 87.0262,193.3231 L87.0262,193.3231 Z M77.0842,189.8521 C77.4372,188.1071 76.8072,187.5831 74.9492,186.7501 C74.2262,186.4251 74.1272,186.4141 73.9412,186.8311 L72.5162,190.0011 C72.6032,190.0421 72.6912,190.0791 72.7642,190.1111 C73.9002,190.6241 74.5002,190.4061 75.2752,189.3011 L75.8812,189.5721 C75.5432,190.1641 75.2462,190.7931 74.9602,191.4251 C74.6282,192.1601 74.3602,192.8381 74.1332,193.4621 L73.5562,193.2031 C73.8912,191.8791 73.5882,191.2801 72.4092,190.7501 C72.3502,190.7231 72.2912,190.6971 72.2192,190.6651 L71.0622,193.2431 C70.6052,194.2661 70.9192,194.8781 72.0732,195.3931 C73.7572,196.1511 74.7122,195.9881 75.7792,194.4611 L76.3122,194.7001 L74.9992,197.6221 C72.8662,196.5961 71.1062,195.8071 69.7512,195.2011 C69.4652,195.0701 69.1922,194.9481 68.9042,194.8161 C68.0822,194.4491 67.2752,194.0881 66.4652,193.8111 L66.7362,193.2061 C67.9482,193.7501 68.2912,193.3661 68.9352,191.9261 L71.3312,186.5941 C71.7882,185.5721 71.6682,185.0681 70.7182,184.6421 C70.6742,184.6231 70.6462,184.6081 70.6022,184.5901 L70.8522,184.0281 C71.8372,184.5381 72.8042,185.0061 73.7692,185.4411 C74.7912,185.8981 76.4692,186.6351 78.8062,187.5971 L77.6752,190.1201 L77.0842,189.8521 Z M63.7072,187.9241 L63.8582,190.5581 C63.8932,191.3301 64.1242,191.8831 64.5422,192.2211 L64.2312,192.7171 C63.9402,192.4991 63.3752,192.1231 62.5472,191.5981 C62.1982,191.3791 61.8512,191.1611 61.5012,190.9781 L61.2972,186.5381 C61.2592,185.6171 61.2212,185.0871 60.7112,184.7691 C60.6702,184.7431 60.6242,184.7311 60.5692,184.6961 L59.1212,186.9921 C58.5302,187.9271 58.6492,188.3961 59.5982,188.9941 C59.6252,189.0111 59.6362,189.0201 59.6632,189.0351 L59.3102,189.5961 C57.8442,188.6351 56.8632,187.9981 56.3712,187.6881 C55.8612,187.3651 55.2752,186.9981 54.5822,186.6161 L54.9342,186.0541 C56.0592,186.7621 56.4812,186.6541 57.1272,185.6261 L60.6162,180.0961 C61.1682,179.2131 61.0702,178.8701 59.9302,178.1321 L60.2662,177.5991 C60.9452,178.0621 61.5182,178.4231 61.9882,178.7201 C62.8412,179.2591 63.7762,179.7901 64.7642,180.4141 C67.2352,181.9721 68.0002,183.4261 67.0042,185.0031 C66.2552,186.1911 64.9452,186.5231 63.3512,185.8531 C63.6252,186.2501 63.6392,186.9311 63.7072,187.9241 L63.7072,187.9241 Z M50.9462,177.4631 L49.1272,179.6071 C48.4662,180.3911 48.4932,180.8481 49.3922,181.6151 C49.4182,181.6351 49.4422,181.6561 49.4652,181.6761 L49.0452,182.1711 C48.3432,181.5331 47.4412,180.7441 46.3072,179.7851 C45.7532,179.3131 45.2852,178.9171 44.8682,178.6261 L45.2882,178.1301 C46.1822,178.7861 46.5692,178.7651 47.1722,178.0541 L51.5692,172.8751 C52.2012,172.1291 52.1862,171.8051 51.3442,170.9871 L51.7442,170.5171 C52.2072,170.9721 52.6532,171.3511 53.0262,171.6691 C53.5302,172.0961 54.2412,172.6561 55.1182,173.3991 C57.6612,175.5571 58.3662,177.1921 57.0462,178.7451 C55.7202,180.3091 53.9602,180.0391 51.5282,177.9761 C51.3442,177.8221 51.1402,177.6501 50.9462,177.4631 L50.9462,177.4631 Z M42.4112,165.0151 L42.0492,164.5201 C43.2032,163.3461 43.2262,162.4111 42.2702,161.0971 C42.1302,160.9051 41.9702,160.7101 41.7982,160.5031 L35.4672,165.1121 C34.6642,165.6981 34.6492,166.1341 35.3772,167.1861 L34.8562,167.5681 C34.3462,166.7871 33.8362,166.0641 33.3442,165.3881 C32.9162,164.8001 32.3002,163.9781 31.5082,162.9731 L32.0332,162.5911 C32.8252,163.5771 33.1832,163.6671 33.9912,163.0821 L40.3222,158.4721 C40.1932,158.2711 40.0742,158.1051 39.9522,157.9391 C38.9382,156.5491 38.1132,156.2721 36.6012,157.0421 L36.2312,156.5291 L38.7682,154.8371 C39.4702,155.9081 40.2662,157.0301 41.1282,158.2151 C42.4592,160.0401 43.6722,161.6771 44.7762,163.1191 L42.4112,165.0151 Z M38.9992,171.6541 C37.7722,172.7001 36.3442,172.7551 34.6202,171.8551 L34.8622,171.3571 C36.1842,171.9331 37.2302,171.9171 38.0082,171.2721 C37.7842,171.1531 37.6032,171.0131 37.4602,170.8471 C36.9572,170.2551 37.0432,169.6031 37.6442,169.0901 C38.1982,168.6181 38.9872,168.6911 39.4832,169.2681 C40.0682,169.9561 39.9142,170.8771 38.9992,171.6541 L38.9992,171.6541 Z M26.5212,155.1531 C25.9592,154.1301 25.7672,153.2241 26.0522,152.1701 L25.2842,152.3771 L24.9242,151.7261 C25.3822,151.5071 25.8312,151.2781 26.2892,151.0271 C26.8822,150.7011 27.4162,150.3891 27.8562,150.1121 L28.2062,150.7481 C26.7752,152.0411 26.3932,153.3141 27.0692,154.5441 C27.6492,155.5951 28.5792,155.9131 29.4932,155.4091 C30.4192,154.9021 30.3902,154.0311 30.2682,152.4991 C30.0822,150.2581 30.3462,148.9381 31.8822,148.0931 C33.4582,147.2251 35.1132,147.7761 36.0342,149.4511 C36.5382,150.3631 36.7332,151.1751 36.5552,152.0991 L37.2402,151.9361 L37.6012,152.5881 C36.8122,153.0231 35.9472,153.5151 35.0292,154.0751 L34.6852,153.4511 C35.8502,152.4521 36.1012,151.1441 35.4682,149.9931 C35.0052,149.1511 34.1902,148.9151 33.4702,149.3111 C32.6832,149.7461 32.7532,150.4621 32.8462,151.7091 C33.0412,154.3571 33.0032,155.8921 31.2882,156.8371 C29.5162,157.8121 27.6252,157.1571 26.5212,155.1531 L26.5212,155.1531 Z M23.9942,148.6101 L23.3872,148.8431 C23.0872,147.9781 22.7702,147.1191 22.4442,146.2791 C22.1172,145.4401 21.7762,144.6041 21.4152,143.7591 L22.0182,143.5261 C22.4172,144.4231 22.6332,144.7611 23.1082,144.5811 C23.2972,144.5051 23.6622,144.2631 24.1132,143.8491 L24.7772,143.2531 L23.4992,139.9551 L22.8252,139.9251 C22.2252,139.9051 21.7672,139.9981 21.6072,140.0591 C21.0452,140.2781 20.9432,140.7581 21.2662,141.5831 L20.6612,141.8161 C20.4512,141.1871 20.2292,140.5781 20.0022,139.9861 C19.7782,139.4131 19.5392,138.8441 19.2892,138.2821 L19.8912,138.0461 C20.2322,138.7461 20.7712,139.0451 21.6132,139.0751 L31.3592,139.3781 L31.6442,140.1151 L24.5932,146.6641 C23.9502,147.2731 23.7192,147.7331 23.9942,148.6101 L23.9942,148.6101 Z M18.7172,133.3951 C18.7232,133.4271 18.7312,133.4571 18.7372,133.4851 L18.1112,133.6451 C17.9102,132.7191 17.6272,131.5501 17.2602,130.1121 C17.0802,129.4101 16.9282,128.8121 16.7562,128.3321 L17.3852,128.1741 C17.7352,129.2261 18.0672,129.4331 18.9702,129.2031 L25.5552,127.5271 C26.5042,127.2861 26.6792,127.0111 26.4662,125.8611 L27.0642,125.7071 C27.1802,126.3471 27.3232,126.9161 27.4462,127.3871 C27.6092,128.0311 27.8622,128.8971 28.1452,130.0151 C28.9662,133.2471 28.5962,134.9891 26.6212,135.4901 C24.6312,136.0001 23.3522,134.7581 22.5662,131.6651 C22.5042,131.4341 22.4372,131.1751 22.3882,130.9101 L19.6642,131.6031 C18.6672,131.8571 18.4252,132.2441 18.7172,133.3951 L18.7172,133.3951 Z M24.7262,113.1711 C24.7792,114.4321 23.7972,115.4871 22.5332,115.5401 C21.2712,115.5921 20.2162,114.6101 20.1642,113.3491 C20.1122,112.1051 21.0762,111.0331 22.3402,110.9801 C23.5842,110.9271 24.6712,111.9071 24.7262,113.1711 L24.7262,113.1711 Z M18.3192,98.5211 C18.4642,97.5531 18.5112,96.6331 18.6422,95.8051 C19.0872,92.9211 20.1332,91.6281 21.8212,91.8871 C23.0992,92.0861 23.7922,93.1831 23.7642,95.1121 C24.3992,92.8781 25.4802,91.7671 27.1342,92.0241 C28.9762,92.3061 29.7332,94.0231 29.2612,97.0821 C29.1302,97.9381 28.9002,98.8941 28.7372,99.9581 C28.6382,100.5951 28.5622,101.3031 28.4902,102.0761 L27.8192,101.9701 C27.9852,100.7821 27.7032,100.4531 26.6102,100.2841 L20.1332,99.2811 C19.0872,99.1211 18.7672,99.3251 18.5632,100.5401 L17.9252,100.4441 C18.1122,99.6391 18.2432,99.0071 18.3192,98.5211 L18.3192,98.5211 Z M21.0082,84.8011 C21.2742,83.9731 21.5472,83.0641 21.8152,82.0711 L22.4162,82.2631 C22.0952,83.5221 22.3572,83.8541 23.6072,84.2531 L27.5232,85.5031 C29.7492,86.2141 30.8992,85.8841 31.5232,83.9241 C31.8872,82.7821 31.7912,81.7891 31.3132,81.1561 C30.8212,80.5151 30.0162,80.1771 28.8722,79.8101 L25.4082,78.7061 C24.2192,78.3281 23.7042,78.4941 23.2462,79.5601 L22.6892,79.3821 C22.8962,78.8351 23.1002,78.2521 23.3012,77.6201 C23.5382,76.8821 23.7172,76.2581 23.8342,75.7981 L24.4202,75.9851 C24.2052,77.0781 24.5102,77.5231 25.6692,77.8931 L29.1312,78.9981 C30.4422,79.4171 31.4042,79.8391 32.0362,80.6581 C32.7992,81.6461 32.9392,83.0851 32.3882,84.8011 C31.8872,86.3821 31.1592,87.4121 30.0512,87.9681 C29.1832,88.4051 28.1062,88.2951 26.6312,87.8221 L22.9582,86.6511 C21.6462,86.2341 21.2182,86.2781 20.7432,87.5021 L20.1582,87.3181 C20.4752,86.4231 20.7632,85.5701 21.0082,84.8011 L21.0082,84.8011 Z M26.3962,70.4661 C26.7632,69.6801 27.1472,68.8301 27.5322,67.9291 L28.1182,68.2061 C28.0912,68.2611 28.0652,68.3201 28.0442,68.3611 C27.6232,69.2631 27.8402,69.7301 28.7552,70.1581 L34.5622,72.8791 C35.6052,73.3691 36.0482,73.2441 36.5982,72.1771 L37.1722,72.4451 C36.6072,73.5761 36.1972,74.4121 35.9492,74.9421 C35.6282,75.6271 35.2472,76.4801 34.8132,77.4791 L34.2422,77.2121 C34.7692,76.0111 34.5772,75.7111 33.4782,75.1981 L27.6722,72.4771 C26.6992,72.0231 26.3172,72.0511 25.8282,73.0971 C25.8072,73.1381 25.7902,73.1821 25.7602,73.2411 L25.1752,72.9661 C25.6382,72.0481 26.0492,71.2121 26.3962,70.4661 L26.3962,70.4661 Z M30.3732,62.8621 C30.6782,62.3671 31.1562,61.5621 31.7772,60.5001 L32.3132,60.8291 C32.2982,60.8571 32.2812,60.8831 32.2662,60.9101 C31.6662,61.8781 31.7742,62.2761 32.6602,62.8271 L37.5832,65.8631 C38.9262,66.6931 39.5642,66.6231 40.4032,65.2651 C41.3332,63.7561 41.2132,62.5711 39.9812,61.4371 L40.3192,60.8861 L42.9762,62.5991 C42.1312,63.9371 41.2722,65.2971 40.4102,66.6991 C39.7212,67.8151 38.9172,69.1751 37.9732,70.7661 L37.4092,70.4171 C37.4342,70.3761 37.4522,70.3491 37.4752,70.3081 C38.0322,69.4091 37.8362,68.9711 36.8292,68.3511 L31.2612,64.9161 C30.4542,64.4151 30.0262,64.5431 29.4752,65.4281 C29.4692,65.4431 29.4522,65.4691 29.4342,65.4961 L28.8952,65.1641 C29.4632,64.3071 29.9582,63.5351 30.3732,62.8621 L30.3732,62.8621 Z M36.9372,53.0961 C37.5042,52.4201 38.0522,51.7241 38.6002,51.0721 C41.3162,47.8491 44.2382,47.4381 47.0142,49.7781 C48.2582,50.8241 48.8932,52.0591 48.9252,53.4901 C48.9552,54.9781 48.2672,56.1121 47.0962,57.5021 C46.4962,58.2151 45.8522,58.9091 45.2192,59.6581 C44.7912,60.1651 44.3602,60.7261 43.8622,61.3441 L43.3552,60.9161 C44.1072,60.0021 44.0512,59.6231 43.1682,58.8791 L38.2772,54.7631 C37.4092,54.0321 37.0182,53.9291 36.2062,54.8941 L35.7252,54.4891 C36.1322,54.0521 36.5412,53.5681 36.9372,53.0961 L36.9372,53.0961 Z M47.5052,41.7521 C48.3442,41.0091 49.7082,39.7831 51.5492,38.0461 L53.3782,40.1181 L52.8952,40.5481 C51.4472,39.5081 50.7092,39.8671 49.1832,41.2161 C48.5922,41.7411 48.5422,41.8251 48.8452,42.1691 L51.1472,44.7731 C51.2202,44.7101 51.2902,44.6481 51.3512,44.5951 C52.2842,43.7681 52.3332,43.1331 51.6452,41.9701 L52.1402,41.5311 C52.5422,42.0821 52.9942,42.6151 53.4522,43.1331 C53.9852,43.7361 54.4922,44.2601 54.9662,44.7261 L54.4952,45.1461 C53.4282,44.2951 52.7522,44.3221 51.7852,45.1811 C51.7362,45.2251 51.6892,45.2651 51.6302,45.3151 L53.5042,47.4331 C54.2472,48.2751 54.9312,48.2371 55.8782,47.4011 C57.2622,46.1771 57.5102,45.2401 56.5542,43.6371 L56.9922,43.2501 L59.1182,45.6501 C57.3032,47.1741 55.8582,48.4531 54.7452,49.4351 C54.5092,49.6441 54.2852,49.8421 54.0482,50.0521 C53.3732,50.6501 52.7112,51.2351 52.1252,51.8591 L51.6862,51.3641 C52.6792,50.4841 52.4722,50.0111 51.4262,48.8291 L47.5522,44.4531 C46.8092,43.6111 46.3022,43.5151 45.5212,44.2061 C45.4862,44.2371 45.4592,44.2571 45.4252,44.2901 L45.0172,43.8271 C45.8882,43.1421 46.7122,42.4551 47.5052,41.7521 L47.5052,41.7521 Z M56.1732,34.6601 C57.0152,34.1001 57.8862,33.4701 58.8622,32.8271 C61.3012,31.2181 62.9412,31.1231 63.9662,32.6781 C64.7422,33.8521 64.5002,35.1811 63.2352,36.3581 C63.7082,36.2731 64.3392,36.5421 65.2692,36.8911 L67.7312,37.8401 C68.4482,38.1241 69.0472,38.1471 69.5312,37.9021 L69.8552,38.3881 C69.5312,38.5631 68.9582,38.9241 68.1382,39.4631 C67.7942,39.6911 67.4542,39.9161 67.1392,40.1601 L63.0082,38.5111 C62.1582,38.1681 61.6562,37.9841 61.1582,38.3161 C61.1182,38.3411 61.0852,38.3791 61.0332,38.4151 L62.5282,40.6841 C63.1392,41.6051 63.6112,41.6921 64.5462,41.0751 C64.5732,41.0571 64.5872,41.0481 64.6142,41.0311 L64.9772,41.5871 C63.4982,42.5261 62.5132,43.1551 62.0232,43.4751 C61.5252,43.8071 60.9422,44.1891 60.3102,44.6611 L59.9462,44.1111 C61.0502,43.3791 61.1282,42.9511 60.4582,41.9341 L56.8582,36.4771 C56.2872,35.6061 55.9312,35.5561 54.7902,36.2911 L54.4402,35.7601 C55.1452,35.3381 55.7092,34.9621 56.1732,34.6601 L56.1732,34.6601 Z M68.9272,26.8081 C69.8652,26.3511 70.6872,26.1971 71.6052,26.4191 L71.4762,25.7221 L72.1432,25.3991 C72.5402,26.2091 72.9922,27.0941 73.5042,28.0411 L72.8662,28.3531 C71.9222,27.1411 70.6252,26.8261 69.4462,27.4001 C68.5782,27.8231 68.3002,28.6271 68.6622,29.3641 C69.0552,30.1761 69.7782,30.1381 71.0312,30.1101 C73.6912,30.0431 75.2232,30.1591 76.0832,31.9191 C76.9682,33.7401 76.2222,35.5981 74.1632,36.6041 C73.1112,37.1171 72.1992,37.2621 71.1562,36.9271 L71.3252,37.7081 L70.6552,38.0311 C70.4622,37.5651 70.2522,37.1021 70.0262,36.6321 C69.7282,36.0211 69.4432,35.4761 69.1862,35.0191 L69.8392,34.7011 C71.0632,36.1991 72.3152,36.6411 73.5832,36.0241 C74.6612,35.4971 75.0252,34.5821 74.5652,33.6441 C74.1012,32.6911 73.2332,32.6761 71.6892,32.7261 C69.4432,32.8011 68.1372,32.4721 67.3692,30.8961 C66.5762,29.2731 67.2082,27.6451 68.9272,26.8081 L68.9272,26.8081 Z M83.7842,23.8041 C83.4022,22.2721 84.2992,20.8441 85.8202,20.4651 C87.2302,20.1131 88.3932,20.7861 88.6782,21.9371 C88.9312,22.9651 88.5442,23.9561 87.5042,24.9501 C88.2352,25.5321 89.0882,26.1501 90.0562,26.8231 C90.8142,24.6311 91.2182,23.3741 92.5532,23.0411 C93.4732,22.8141 94.1822,23.2391 94.3792,24.0381 C94.5572,24.7431 94.1822,25.3421 93.4772,25.5141 C93.0162,25.6311 92.6172,25.5351 92.3812,25.2351 C92.1712,24.9781 92.2242,24.5421 91.8722,24.6281 C91.5042,24.7191 91.3122,25.6491 90.7322,27.2561 C92.0322,28.0901 92.8622,28.5361 93.6572,28.3371 C94.2082,28.2011 94.5952,27.8451 94.8322,27.2311 L95.4902,27.5251 C94.9042,29.0221 94.1062,29.8241 92.8182,30.1441 C91.8542,30.3831 90.8262,30.1181 89.6772,29.3601 C88.8002,30.6221 87.8042,31.3911 86.5602,31.7001 C85.1032,32.0611 83.9202,31.4261 83.5972,30.1381 C83.2892,28.8971 83.9092,27.6501 85.4202,26.1991 C84.5412,25.4101 83.9822,24.6031 83.7842,23.8041 L83.7842,23.8041 Z M104.3552,17.7901 C105.0172,17.7751 105.9192,17.7221 107.0712,17.6931 C110.4042,17.6121 112.0212,18.3631 112.0702,20.4031 C112.1202,22.4571 110.6252,23.4231 107.4352,23.5031 C107.1962,23.5081 106.9312,23.5111 106.6602,23.5031 L106.7272,26.3171 C106.7532,27.3421 107.0802,27.6661 108.2622,27.6391 C108.2942,27.6361 108.3272,27.6331 108.3562,27.6361 L108.3732,28.2811 C107.4262,28.2751 106.2232,28.2871 104.7402,28.3241 C104.0112,28.3411 103.3972,28.3561 102.8902,28.4151 L102.8752,27.7681 C103.9792,27.6631 104.2562,27.3861 104.2332,26.4571 L104.0702,19.6631 C104.0462,18.6841 103.8192,18.4541 102.6482,18.4011 L102.6332,17.7871 C103.2802,17.8181 103.8662,17.8011 104.3552,17.7901 L104.3552,17.7901 Z M113.9252,27.6251 C113.9722,27.6301 114.0042,27.6321 114.0512,27.6381 C115.1032,27.7581 115.4152,27.3941 115.5452,26.2201 L116.2742,19.7231 C116.3782,18.7821 116.0842,18.4471 115.0472,18.3311 C115.0332,18.3311 115.0002,18.3281 114.9682,18.3221 L115.0412,17.6951 C116.0552,17.8401 116.9642,17.9581 117.7482,18.0451 C118.3312,18.1121 119.2572,18.1961 120.4842,18.3041 L120.4142,18.9301 C120.3812,18.9271 120.3502,18.9241 120.3182,18.9211 C119.1902,18.7941 118.8732,19.0611 118.7592,20.0961 L118.1152,25.8381 C117.9372,27.4091 118.2722,27.9541 119.8602,28.1311 C121.6142,28.3301 122.6372,27.7121 123.1352,26.1151 L123.7762,26.1881 L123.3622,29.3201 C121.7942,29.1281 120.1982,28.9321 118.5672,28.7491 C117.2642,28.6031 115.6912,28.4581 113.8532,28.2861 L113.9252,27.6251 Z M124.3622,28.8081 C125.1282,28.9391 125.6882,28.6741 126.2012,28.0071 L132.1262,20.2631 L132.8932,20.4621 L134.1082,30.0081 C134.2212,30.8881 134.4662,31.3431 135.3372,31.6311 L135.1772,32.2571 C134.2942,31.9991 133.4122,31.7531 132.5412,31.5331 C131.6692,31.3081 130.7902,31.0981 129.8952,30.9001 L130.0582,30.2741 C131.0162,30.4721 131.4182,30.4921 131.5462,30.0031 C131.5962,29.8041 131.6112,29.3681 131.5412,28.7611 L131.4422,27.8731 L128.0122,26.9871 L127.5992,27.5171 C127.2322,27.9961 127.0422,28.4181 126.9992,28.5871 C126.8502,29.1701 127.1792,29.5341 128.0362,29.7531 L127.8732,30.3811 C127.2412,30.1831 126.6172,30.0051 126.0052,29.8511 C125.4082,29.6971 124.8082,29.5571 124.2022,29.4341 L124.3622,28.8081 Z M138.1682,27.8981 C138.6872,26.6601 139.4562,25.7161 140.4842,25.1011 C142.0542,24.1671 143.7682,24.0411 145.5012,24.7661 C146.6252,25.2361 147.4302,25.9321 147.9752,26.8781 L148.5632,26.1651 L149.2072,26.4331 L147.9782,29.6181 L147.3662,29.3611 C147.6052,27.5601 146.9602,26.2321 145.6792,25.6961 C143.9022,24.9531 141.9992,26.0601 140.8482,28.8161 C139.7072,31.5541 140.2222,33.5531 142.0452,34.3141 C143.5172,34.9281 144.9242,34.3861 146.1012,32.7171 L146.7132,32.9761 L145.2892,36.3851 L144.6912,36.1371 L144.7172,35.1731 C143.4162,35.5031 142.2472,35.4261 141.0842,34.9371 C138.1242,33.7021 136.9442,30.8301 138.1682,27.8981 L138.1682,27.8981 Z M152.2632,28.7051 C152.2232,28.6811 152.1972,28.6671 152.1562,28.6401 L152.4672,28.1131 C153.3882,28.7301 154.2972,29.3071 155.2072,29.8491 C156.1702,30.4231 157.7522,31.3431 159.9662,32.5701 L158.5532,34.9481 L157.9982,34.6161 C158.5452,32.9201 157.9802,32.3261 156.2292,31.2861 C155.5472,30.8781 155.4512,30.8571 155.2152,31.2531 L153.4412,34.2401 C153.5222,34.2901 153.6042,34.3381 153.6702,34.3771 C154.7432,35.0151 155.3642,34.8691 156.2582,33.8581 L156.8292,34.1991 C156.4272,34.7501 156.0572,35.3381 155.7052,35.9351 C155.2912,36.6281 154.9472,37.2701 154.6502,37.8641 L154.1052,37.5441 C154.5882,36.2671 154.3582,35.6321 153.2462,34.9711 C153.1902,34.9391 153.1342,34.9071 153.0682,34.8631 L151.6232,37.2951 C151.0482,38.2601 151.2932,38.9011 152.3772,39.5481 C153.9682,40.4951 154.9352,40.4421 156.1702,39.0461 L156.6742,39.3441 L155.0352,42.1031 C153.0302,40.8361 151.3722,39.8511 150.0962,39.0901 C149.8222,38.9301 149.5662,38.7761 149.2912,38.6161 C148.5202,38.1561 147.7592,37.7011 146.9852,37.3341 L147.3262,36.7621 C148.4642,37.4421 148.8522,37.1011 149.6592,35.7431 L152.6482,30.7171 C153.2222,29.7531 153.1582,29.2381 152.2632,28.7051 L152.2632,28.7051 Z M163.3892,34.7871 C163.7092,35.1191 164.0962,35.4421 164.5342,35.8091 C165.0902,36.2761 165.6562,36.7301 166.2442,37.1811 L163.8932,44.7971 L170.8532,41.0501 C171.2082,41.3911 171.5732,41.7181 171.9492,42.0331 C172.4912,42.4901 173.1052,42.9621 173.7922,43.4981 L173.3932,43.9701 C172.3562,43.1201 171.9432,43.2681 171.1822,44.1741 L167.0372,49.1091 C166.3672,49.9081 166.3932,50.3411 167.3312,51.1891 L166.9252,51.6761 C166.0382,50.8661 165.3092,50.2111 164.7142,49.7151 C164.2312,49.3071 163.6042,48.8031 162.8122,48.1981 L163.2172,47.7131 C164.3272,48.4831 164.5812,48.3021 165.3122,47.4341 L169.0382,42.9941 L161.4312,47.0201 L160.8602,46.5431 L163.5352,38.1021 L160.1402,42.1431 C159.1152,43.3671 158.8902,44.0001 159.7822,44.8301 L159.3662,45.3281 C158.7072,44.7121 158.2552,44.2941 157.9762,44.0571 C157.6032,43.7431 157.1302,43.3701 156.5452,42.9391 L156.9612,42.4431 C157.9152,43.2011 158.4652,42.8391 159.4992,41.6041 L163.7552,36.5381 C163.7732,36.0981 163.5142,35.6931 163.0132,35.2331 L163.3892,34.7871 Z M179.8442,50.1031 L175.3342,58.6011 C174.9262,59.3851 174.8632,59.8981 175.4072,60.6351 L174.9152,61.0571 C174.3472,60.3371 173.7642,59.6291 173.1782,58.9421 C172.5962,58.2571 172.0012,57.5821 171.3832,56.9061 L171.8762,56.4861 C172.5462,57.2031 172.8642,57.4511 173.2492,57.1221 C173.4062,56.9901 173.6682,56.6401 173.9572,56.1041 L174.3902,55.3211 L172.0972,52.6261 L171.4542,52.8211 C170.8792,52.9991 170.4812,53.2351 170.3462,53.3481 C169.8892,53.7391 169.9512,54.2251 170.5242,54.8981 L170.0322,55.3181 C169.6272,54.7941 169.2192,54.2901 168.8082,53.8081 C168.4092,53.3371 167.9992,52.8791 167.5762,52.4301 L168.0692,52.0111 C168.6192,52.5591 169.2252,52.6641 170.0292,52.4161 L179.3292,49.5001 L179.8442,50.1031 Z M183.7512,58.6061 C184.6432,58.0701 184.7622,57.6281 184.1972,56.6231 L184.6952,56.3191 C185.0942,57.0771 185.5482,57.8551 186.0472,58.6791 C186.4522,59.3551 186.9162,60.0921 187.4372,60.8641 L186.9132,61.1821 C186.8862,61.1411 186.8722,61.1151 186.8542,61.0881 C186.2972,60.1681 185.8322,60.2501 184.8292,60.8521 L181.8692,62.6411 L184.0402,63.0261 C186.0122,63.3871 187.1392,63.5151 187.5182,63.2891 C187.8562,63.0851 187.8242,62.6621 187.4312,62.0121 L187.9442,61.7041 C188.3722,62.5341 188.7592,63.2041 189.0682,63.7161 C189.3722,64.2171 189.6922,64.6871 190.0272,65.1501 L189.5112,65.4591 C189.0282,64.7181 188.4512,64.4951 187.5472,64.3391 L184.5872,63.8381 L182.2422,69.8871 C181.9712,70.5691 181.9652,71.1081 182.1962,71.5211 L181.6132,71.8711 C181.0682,70.8721 180.6312,70.1231 180.3132,69.5951 C179.8412,68.8121 179.3522,68.0341 178.8542,67.3031 L179.4212,66.9601 C179.4542,67.0141 179.4982,67.0821 179.5302,67.1341 C179.8382,67.6501 180.1652,67.8221 180.4212,67.6681 C180.5292,67.6001 180.7122,67.4171 180.8172,67.1311 L182.3092,63.4281 L180.9372,63.2041 L179.4362,64.1101 C178.4902,64.6841 178.2392,64.9081 178.9092,66.1081 L178.3412,66.4521 C178.0382,65.8581 177.5952,65.0911 177.0212,64.1481 C176.4352,63.1741 175.9582,62.4121 175.5552,61.8401 L176.1242,61.5001 C176.7792,62.5221 177.1932,62.5661 178.0842,62.0301 L183.7512,58.6061 Z M184.1902,109.4901 C184.1902,150.7531 150.7612,184.1991 109.4902,184.1991 C68.2502,184.1991 34.8072,150.7531 34.8072,109.4901 C34.8072,68.2501 68.2502,34.8001 109.4902,34.8001 C150.7612,34.8001 184.1902,68.2501 184.1902,109.4901 L184.1902,109.4901 Z M191.3832,68.8831 C191.3662,68.8391 191.3542,68.8101 191.3332,68.7661 L191.8992,68.5191 C192.2842,69.5591 192.6852,70.5551 193.1112,71.5261 C193.5592,72.5541 194.3082,74.2261 195.3952,76.5101 L192.8602,77.6181 L192.6012,77.0231 C194.0352,75.9651 193.9202,75.1531 193.1022,73.2861 C192.7882,72.5631 192.7202,72.4901 192.3012,72.6701 L189.1172,74.0661 C189.1552,74.1541 189.1922,74.2381 189.2242,74.3111 C189.7252,75.4561 190.3142,75.6981 191.6302,75.3981 L191.8962,76.0061 C191.2472,76.2191 190.6052,76.4841 189.9672,76.7611 C189.2302,77.0851 188.5782,77.4051 187.9862,77.7161 L187.7332,77.1371 C188.8722,76.3821 189.0522,75.7331 188.5342,74.5461 C188.5072,74.4891 188.4812,74.4301 188.4522,74.3571 L185.8592,75.4911 C184.8312,75.9391 184.6562,76.6041 185.1632,77.7601 C185.9032,79.4531 186.7182,79.9771 188.5372,79.5641 L188.7702,80.0971 L185.8322,81.3811 C184.9422,79.1851 184.1692,77.4201 183.5722,76.0591 C183.4472,75.7701 183.3252,75.4941 183.2002,75.2061 C182.8382,74.3801 182.4832,73.5711 182.0692,72.8191 L182.6782,72.5541 C183.2102,73.7691 183.7232,73.7161 185.1682,73.0851 L190.5242,70.7421 C191.5522,70.2941 191.8022,69.8381 191.3832,68.8831 L191.3832,68.8831 Z M196.0862,80.1741 L196.6962,80.0081 C196.8822,80.8091 197.0632,81.4651 197.2112,81.9991 C197.4762,82.9741 197.8082,83.9971 198.1182,85.1251 C198.8952,87.9451 198.4792,89.5351 196.6812,90.0311 C195.3232,90.4011 194.1312,89.7621 193.4032,88.1921 C193.3392,88.6701 192.8902,89.1851 192.2672,89.9631 L190.6002,92.0111 C190.1082,92.6061 189.9052,93.1711 189.9862,93.7081 L189.4202,93.8621 C189.3542,93.5031 189.1912,92.8421 188.9312,91.8981 C188.8212,91.4991 188.7122,91.1061 188.5762,90.7331 L191.4252,87.3091 C192.0162,86.6071 192.3432,86.1881 192.1852,85.6081 C192.1702,85.5611 192.1452,85.5201 192.1302,85.4601 L189.5052,86.1821 C188.4422,86.4731 188.2112,86.8991 188.5112,87.9791 C188.5172,88.0081 188.5202,88.0261 188.5322,88.0581 L187.8882,88.2331 C187.4572,86.5321 187.1602,85.4011 187.0052,84.8361 C186.8452,84.2561 186.6622,83.5861 186.4082,82.8371 L187.0462,82.6601 C187.3992,83.9411 187.7842,84.1451 188.9572,83.8251 L195.2682,82.0881 C196.2732,81.8121 196.4302,81.4921 196.0862,80.1741 L196.0862,80.1741 Z M198.8182,113.4681 C198.7632,114.7151 197.7062,115.6951 196.4442,115.6361 C195.1972,115.5811 194.2042,114.5061 194.2582,113.2451 C194.3172,111.9831 195.3892,111.0191 196.6512,111.0771 C197.9132,111.1351 198.8762,112.2081 198.8182,113.4681 L198.8182,113.4681 Z M200.6882,96.5341 C200.8312,97.5661 200.7192,98.3931 200.2242,99.1971 L200.9232,99.2911 L201.0262,100.0251 C200.1342,100.1501 199.1492,100.2981 198.0912,100.4941 L197.9962,99.7891 C199.4412,99.2701 200.1462,98.1361 199.9652,96.8401 C199.8332,95.8871 199.1582,95.3721 198.3452,95.4851 C197.4512,95.6051 197.2612,96.3011 196.9002,97.4991 C196.1332,100.0451 195.5452,101.4631 193.6082,101.7291 C191.6032,102.0051 190.0712,100.7181 189.7592,98.4491 C189.6022,97.2891 189.7482,96.3771 190.3912,95.4941 L189.5992,95.4101 L189.4972,94.6751 C190.0012,94.6371 190.5052,94.5861 191.0212,94.5121 C191.6942,94.4201 192.3022,94.3201 192.8122,94.2181 L192.9152,94.9381 C191.1112,95.6341 190.2982,96.6861 190.4912,98.0791 C190.6542,99.2641 191.4092,99.8961 192.4432,99.7531 C193.4922,99.6081 193.7772,98.7901 194.2102,97.3121 C194.8402,95.1501 195.5602,94.0171 197.2962,93.7781 C199.0802,93.5341 200.4282,94.6401 200.6882,96.5341 L200.6882,96.5341 Z M109.4992,6.6561 C52.6992,6.6561 6.6552,52.7001 6.6552,109.5011 C6.6552,166.2971 52.6992,212.3441 109.4992,212.3441 C166.2992,212.3441 212.3432,166.2971 212.3432,109.5011 C212.3432,52.7001 166.2992,6.6561 109.4992,6.6561 L109.4992,6.6561 Z"/>
    <path fill="#FFF" d="M138.4753 190.3151C138.1493 189.4211 137.5373 189.0431 136.9313 189.2601 136.3803 189.4641 136.1383 190.0421 136.3483 190.6191 136.6053 191.3151 137.2633 191.8311 138.3003 192.4601 138.6563 191.7251 138.6973 190.9211 138.4753 190.3151M109.49 181.4108C69.795 181.4108 37.6 149.2148 37.6 109.4898 37.6 69.8038 69.795 37.6088 109.49 37.6088 149.203 37.6088 181.382 69.8038 181.382 109.4898 181.382 149.2148 149.203 181.4108 109.49 181.4108M109.499 35.9968C68.97 35.9968 35.996 68.9718 35.996 109.5008 35.996 150.0288 68.97 183.0038 109.499 183.0038 150.028 183.0038 183.002 150.0288 183.002 109.5008 183.002 68.9718 150.028 35.9968 109.499 35.9968"/>
    <path fill="#FFF" d="M161.4001,114.6813 C161.7781,113.8703 162.0871,112.9103 162.3871,111.7793 C162.6641,110.6723 162.8091,109.2653 162.8091,107.6043 C162.8091,105.3143 162.4201,103.2043 161.6791,101.2733 C160.8861,99.3333 159.8491,97.6783 158.5091,96.2913 C157.1811,94.9103 155.5991,93.8293 153.7601,93.0693 C151.9201,92.3093 149.9211,91.9303 147.7821,91.9303 C144.4841,91.9303 141.8771,92.9173 139.9101,94.8903 C139.0531,95.7703 138.2731,96.8693 137.5471,98.1103 C137.2991,97.0143 136.9791,95.9923 136.5041,95.0623 C135.8891,93.7443 135.3441,92.6613 134.9081,91.8193 L130.7041,83.7753 C130.0971,82.6243 129.5521,81.4513 129.0251,80.2423 C128.5241,79.0243 128.1861,77.8033 128.0111,76.5993 C127.8451,75.3643 127.9191,74.1753 128.2511,72.9723 C128.5711,71.7753 129.2641,70.6293 130.3451,69.5553 C131.7001,68.2203 133.0811,67.3693 134.5351,67.0583 C135.9571,66.7293 137.3701,66.7173 138.7421,67.0203 C140.1231,67.3263 141.4201,67.8593 142.6081,68.6193 C143.8141,69.3863 144.8311,70.1663 145.6291,70.9773 C147.0861,72.4183 148.1001,73.9403 148.6591,75.5743 C149.2331,77.2003 149.4841,78.8263 149.4021,80.4593 C149.3061,82.1033 148.9511,83.7323 148.3091,85.3483 C147.6711,86.9713 146.8471,88.4923 145.8281,89.8933 L146.4301,90.5023 L155.5991,81.3483 L154.8971,80.6253 C154.1451,80.8383 153.6321,80.9233 153.3501,80.8913 C153.0991,80.8563 152.7441,80.6113 152.3041,80.1803 C151.8431,79.7023 151.4701,79.1493 151.2171,78.4853 C150.9631,77.8313 150.6781,77.0803 150.3611,76.2553 C150.0311,75.4313 149.5801,74.5343 148.9851,73.5323 C148.3971,72.5273 147.5111,71.4463 146.3321,70.2663 C144.7201,68.6433 142.9551,67.4343 141.0491,66.5923 C139.1531,65.7673 137.2361,65.3483 135.2981,65.3073 C133.3811,65.2753 131.5041,65.6483 129.6671,66.3973 C127.8251,67.1483 126.1561,68.2963 124.6431,69.8053 C122.3161,72.1363 121.1711,74.6973 121.1761,77.4763 C121.1761,78.7003 121.3921,80.0263 121.7621,81.4043 C120.8211,80.8183 119.8661,80.3203 118.8751,79.9733 C117.4881,79.4903 116.3431,79.1223 115.4371,78.8263 L106.7961,76.1243 C105.5441,75.7433 104.3111,75.2943 103.1021,74.7963 C101.8781,74.2983 100.7861,73.6743 99.7971,72.9403 C98.8311,72.2033 98.0301,71.2833 97.4031,70.2043 C96.7921,69.1383 96.4761,67.8443 96.4761,66.3093 C96.4761,64.4043 96.8791,62.8273 97.6601,61.5953 C98.4341,60.3483 99.4481,59.3463 100.6371,58.5883 C101.8171,57.8173 103.1021,57.2783 104.4981,56.9813 C105.8701,56.6653 107.1391,56.5143 108.2881,56.5143 C110.3331,56.5143 112.1361,56.8723 113.6921,57.6273 C115.2271,58.3623 116.5621,59.3373 117.6571,60.5463 C118.7611,61.7703 119.6621,63.1833 120.3431,64.7853 C121.0311,66.3763 121.5321,68.0513 121.8241,69.7503 L122.6661,69.7503 L122.6661,56.8003 L121.6641,56.8003 C121.2911,57.4583 120.9871,57.8863 120.7811,58.0703 C120.5651,58.2123 120.1391,58.2973 119.5251,58.2973 C118.8521,58.2973 118.1991,58.1603 117.5611,57.8663 C116.9091,57.5753 116.1771,57.2783 115.3671,56.9053 C114.5601,56.5433 113.5901,56.2323 112.4771,55.9403 C111.3401,55.6523 109.9631,55.5123 108.2881,55.5123 C106.0061,55.5123 103.8851,55.8853 101.9541,56.6483 C100.0371,57.4233 98.3591,58.4633 96.9921,59.7973 C95.6081,61.1443 94.5281,62.7433 93.7501,64.5643 C93.0041,66.3973 92.6191,68.3983 92.6191,70.5393 C92.6191,73.8283 93.6071,76.4513 95.5801,78.4173 C96.4531,79.2713 97.5511,80.0403 98.7871,80.7633 C97.7091,81.0193 96.6801,81.3483 95.7401,81.7913 C94.4251,82.4383 93.3531,82.9743 92.5081,83.4193 L84.4641,87.6073 C83.3111,88.2303 82.1281,88.7843 80.9131,89.2993 C79.7041,89.7883 78.4861,90.1473 77.2771,90.3043 C76.0561,90.4703 74.8411,90.3983 73.6531,90.0823 C72.4561,89.7503 71.3101,89.0513 70.2411,87.9733 C68.9011,86.6213 68.0651,85.2383 67.7421,83.8013 C67.4261,82.3633 67.4031,80.9573 67.7151,79.5713 C68.0121,78.1993 68.5401,76.9063 69.3091,75.7073 C70.0661,74.5073 70.8501,73.4993 71.6571,72.6993 C73.1081,71.2503 74.6461,70.2343 76.2601,69.6623 C77.8831,69.0853 79.5051,68.8323 81.1551,68.9253 C82.7841,69.0013 84.4031,69.3683 86.0201,70.0063 C87.6461,70.6443 89.1461,71.4813 90.5741,72.4943 L91.1891,71.8793 L82.0261,62.7433 L81.3151,63.4403 C81.5191,64.1793 81.6121,64.6753 81.5691,64.9493 C81.5251,65.2253 81.3031,65.5773 80.8641,66.0123 C80.4031,66.4813 79.8241,66.8603 79.1591,67.1053 C78.5061,67.3463 77.7691,67.6323 76.9481,67.9643 C76.1001,68.2853 75.2061,68.7443 74.2151,69.3273 C73.2211,69.9133 72.1261,70.8163 70.9611,71.9933 C69.3261,73.5993 68.1051,75.3643 67.2841,77.2733 C66.4481,79.1693 66.0221,81.1013 65.9881,83.0153 C65.9641,84.9443 66.3171,86.8233 67.0801,88.6533 C67.8291,90.5023 68.9821,92.1653 70.4921,93.6873 C72.8251,96.0173 75.3721,97.1743 78.1631,97.1513 C79.3951,97.1423 80.7031,96.9383 82.0961,96.5443 C81.5101,97.5153 81.0061,98.4593 80.6571,99.4323 C80.1841,100.8193 79.8121,101.9723 79.5261,102.8843 L76.7911,111.5493 C76.4231,112.7853 75.9921,114.0113 75.4821,115.2053 C74.9631,116.4353 74.3551,117.5343 73.6091,118.5123 C72.8751,119.5053 71.9711,120.2863 70.8991,120.9123 C69.8281,121.5283 68.5161,121.8333 67.0071,121.8333 C65.0961,121.8333 63.5261,121.4523 62.2791,120.6683 C61.0351,119.8643 60.0361,118.8883 59.2721,117.6943 C58.5141,116.4953 57.9781,115.2003 57.6671,113.8223 C57.3491,112.4413 57.1921,111.1823 57.1921,110.0393 C57.1921,107.9833 57.5681,106.1883 58.3101,104.6233 C59.0421,103.0743 60.0301,101.7633 61.2361,100.6593 C62.4541,99.5603 63.8611,98.6713 65.4711,97.9753 C67.0591,97.2933 68.7171,96.7923 70.4391,96.5223 L70.4391,95.6483 L57.4831,95.6483 L57.4831,96.6473 C58.1471,97.0403 58.5701,97.3283 58.7331,97.5473 C58.9081,97.7573 58.9901,98.1793 58.9901,98.7973 C58.9901,99.4673 58.8401,100.1283 58.5701,100.7693 C58.2701,101.4083 57.9491,102.1423 57.5801,102.9463 C57.2361,103.7433 56.9121,104.7293 56.6211,105.8443 C56.3381,106.9693 56.1841,108.3623 56.1841,110.0393 C56.1841,112.3293 56.5771,114.4333 57.3381,116.3623 C58.0921,118.2993 59.1531,119.9603 60.4841,121.3443 C61.8361,122.7193 63.4181,123.8003 65.2541,124.5573 C67.0801,125.3153 69.0761,125.7023 71.2321,125.7023 C74.5061,125.7023 77.1401,124.7093 79.1041,122.7313 C79.9611,121.8543 80.7351,120.7613 81.4551,119.5293 C81.7031,120.6073 82.0381,121.6383 82.4861,122.5743 C83.1191,123.8933 83.6641,124.9773 84.1061,125.8193 L88.3101,133.8713 C88.8991,135.0143 89.4811,136.1883 89.9681,137.4203 C90.4751,138.6293 90.8101,139.8323 90.9791,141.0533 C91.1481,142.2653 91.0871,143.4743 90.7631,144.6553 C90.4401,145.8583 89.7441,147.0083 88.6601,148.0753 C87.3171,149.4233 85.9101,150.2633 84.4791,150.5833 C83.0601,150.9073 81.6531,150.9183 80.2661,150.6103 C78.8771,150.3123 77.5741,149.7823 76.3821,149.0193 C75.1911,148.2613 74.1861,147.4663 73.3871,146.6673 C71.9281,145.2133 70.9081,143.6783 70.3461,142.0613 C69.7601,140.4423 69.5211,138.8073 69.6091,137.1873 C69.6871,135.5413 70.0511,133.9103 70.6931,132.2893 C71.3451,130.6813 72.1611,129.1633 73.1671,127.7423 L72.5661,127.1363 L63.4181,136.2843 L64.1171,136.9973 C64.8661,136.7913 65.3671,136.7183 65.6301,136.7423 C65.9121,136.7853 66.2501,137.0243 66.7101,137.4583 C67.1681,137.9183 67.5291,138.4933 67.7911,139.1453 C68.0451,139.7973 68.3361,140.5583 68.6591,141.3683 C68.9651,142.2103 69.4201,143.1183 70.0111,144.1133 C70.6051,145.1003 71.4821,146.1843 72.6711,147.3583 C74.2791,148.9953 76.0561,150.2103 77.9531,151.0433 C79.8581,151.8683 81.7721,152.2993 83.6981,152.3373 C85.6151,152.3583 87.4951,152.0173 89.3301,151.2423 C91.1801,150.4843 92.8581,149.3453 94.3841,147.8353 C96.7101,145.5053 97.8551,142.9363 97.8321,140.1703 C97.8321,138.9383 97.6131,137.6183 97.2401,136.2413 C98.1931,136.8233 99.1511,137.3253 100.1381,137.6513 C101.5141,138.1283 102.6591,138.5193 103.5501,138.8013 L112.2121,141.5233 C113.4561,141.9073 114.6941,142.3503 115.9151,142.8363 C117.1151,143.3463 118.2221,143.9703 119.1961,144.7123 C120.1711,145.4503 120.9811,146.3533 121.5961,147.4133 C122.2281,148.4893 122.5291,149.7993 122.5291,151.3273 C122.5291,153.2383 122.1241,154.8023 121.3451,156.0403 C120.5651,157.2853 119.5771,158.2813 118.3771,159.0463 C117.1851,159.8073 115.8941,160.3523 114.5071,160.6633 C113.1351,160.9633 111.8711,161.1103 110.7141,161.1103 C108.6701,161.1103 106.8661,160.7603 105.3071,160.0263 C103.7631,159.2683 102.4521,158.3013 101.3481,157.0773 C100.2351,155.8633 99.3491,154.4613 98.6621,152.8563 C97.9771,151.2503 97.4821,149.6133 97.2081,147.8763 L96.3251,147.8763 L96.3251,160.8353 L97.3411,160.8353 C97.7201,160.1623 98.0091,159.7543 98.2331,159.5823 C98.4341,159.4223 98.8691,159.3383 99.4741,159.3383 C100.1441,159.3383 100.8211,159.4603 101.4501,159.7663 C102.0961,160.0613 102.8221,160.3753 103.6431,160.7313 C104.4451,161.0833 105.4091,161.4153 106.5371,161.7033 C107.6441,161.9813 109.0481,162.1153 110.7141,162.1153 C113.0021,162.1153 115.1171,161.7393 117.0541,160.9813 C118.9831,160.2243 120.6311,159.1633 122.0211,157.8203 C123.4091,156.5033 124.4741,154.9123 125.2471,153.0753 C125.9991,151.2303 126.3861,149.2373 126.3861,147.1023 C126.3861,143.8153 125.4011,141.1843 123.4311,139.2333 C122.5481,138.3653 121.4571,137.5893 120.2131,136.8693 C121.3021,136.6143 122.3281,136.2843 123.2511,135.8323 C124.5831,135.2063 125.6551,134.6473 126.5171,134.2213 L134.5491,130.0173 C135.6851,129.4143 136.8861,128.8613 138.0921,128.3633 C139.2931,127.8443 140.5131,127.5063 141.7371,127.3343 C142.9401,127.1713 144.1581,127.2413 145.3461,127.5703 C146.5521,127.8733 147.6831,128.5833 148.7671,129.6673 C150.1191,131.0083 150.9401,132.4103 151.2601,133.8313 C151.5991,135.2703 151.5991,136.6803 151.2811,138.0703 C150.9871,139.4423 150.4681,140.7423 149.6991,141.9333 C148.9421,143.1363 148.1491,144.1273 147.3391,144.9373 C145.8911,146.3883 144.3621,147.4023 142.7421,147.9823 C141.1361,148.5553 139.4971,148.7913 137.8471,148.7123 C136.2301,148.6253 134.5851,148.2733 132.9671,147.6263 C131.3531,146.9763 129.8361,146.1663 128.4221,145.1443 L127.8251,145.7493 L136.9791,154.9123 L137.6841,154.2103 C137.4891,153.4643 137.3961,152.9523 137.4391,152.6783 C137.4571,152.4103 137.6841,152.0663 138.1291,151.6263 C138.6201,151.1553 139.1751,150.7873 139.8321,150.5343 C140.5021,150.2693 141.2361,149.9973 142.0631,149.6683 C142.8871,149.3573 143.8021,148.9023 144.7871,148.3083 C145.7931,147.7253 146.8811,146.8253 148.0651,145.6453 C149.6751,144.0393 150.9001,142.2773 151.7271,140.3513 C152.5461,138.4543 152.9801,136.5433 153.0171,134.6153 C153.0551,132.7013 152.6821,130.8253 151.9311,128.9803 C151.1651,127.1393 150.0221,125.4633 148.5161,123.9523 C146.1971,121.6263 143.6391,120.4553 140.8511,120.4883 C139.6161,120.4883 138.2961,120.7113 136.9181,121.0763 C137.4921,120.1413 138.0021,119.1613 138.3481,118.1983 C138.8121,116.8053 139.1991,115.6623 139.4911,114.7593 L142.1971,106.0983 C142.5821,104.8483 143.0271,103.6183 143.5171,102.4123 C144.0211,101.1953 144.6441,100.0993 145.3841,99.1203 C146.1281,98.1383 147.0341,97.3613 148.1171,96.7253 C149.1661,96.1023 150.4801,95.7993 152.0041,95.7993 C153.9121,95.7993 155.4911,96.1923 156.7231,96.9763 C157.9671,97.7573 158.9811,98.7393 159.7301,99.9513 C160.4971,101.1423 161.0421,102.4303 161.3301,103.8113 C161.6621,105.1863 161.8071,106.4563 161.8071,107.6043 C161.8071,109.6563 161.4281,111.4473 160.7011,113.0113 C159.9661,114.5623 158.9811,115.8753 157.7721,116.9773 C156.5371,118.0703 155.1381,118.9633 153.5391,119.6603 C151.9461,120.3623 150.2911,120.8403 148.5691,121.1193 L148.5691,121.9853 L161.5161,121.9853 L161.5161,120.9743 C160.8611,120.6013 160.4351,120.2923 160.2751,120.1033 C160.1061,119.8643 160.0241,119.4513 160.0241,118.8213 C160.0241,118.1603 160.1621,117.5163 160.4531,116.8573 C160.7321,116.2253 161.0471,115.4963 161.4001,114.6813 L161.4001,114.6813 Z M126.4211,98.3273 C127.0421,96.8483 127.4211,95.3043 127.5981,93.6813 L128.0761,94.6023 C128.5831,95.5193 129.0251,96.5443 129.4601,97.7193 C129.8791,98.8693 130.1321,100.0783 130.2091,101.3613 C130.2691,102.1303 130.1851,102.8963 130.0661,103.6833 L125.8671,99.4853 C126.0741,99.1153 126.2601,98.7393 126.4211,98.3273 L126.4211,98.3273 Z M122.1791,96.2363 C122.1791,97.3613 121.9781,98.6253 121.5961,99.9833 C121.5521,100.1903 121.4601,100.3593 121.4011,100.5543 C120.8851,100.9613 120.2911,101.3613 119.5251,101.7403 C118.4791,102.2383 117.5231,102.7273 116.6371,103.2043 C115.8941,103.6133 115.2541,104.0003 114.6941,104.3883 C114.1271,104.7753 113.5761,105.1713 113.0511,105.5943 C112.5061,105.9853 111.9561,106.4423 111.4021,106.9693 C111.1311,107.2253 110.8571,107.4883 110.5571,107.7793 L110.5221,107.7793 L110.5221,107.7153 C111.9791,106.0543 113.1151,104.3123 113.8701,102.4623 C114.7791,100.3213 115.2271,98.1793 115.2921,96.0613 C116.3871,95.1263 117.7831,94.2523 119.4581,93.4833 C120.0961,93.1683 120.7921,92.8913 121.5521,92.6353 C121.9551,93.6753 122.1791,94.8673 122.1791,96.2363 L122.1791,96.2363 Z M119.3881,104.0213 C118.4501,105.0673 117.2291,105.9763 115.7281,106.6783 C114.7321,107.1473 113.5411,107.4413 112.2101,107.6393 C112.2471,107.5953 112.2731,107.5643 112.3141,107.5323 C113.0631,106.8383 113.9431,106.1913 114.9481,105.6093 C115.9381,105.0203 117.0541,104.5483 118.2631,104.2023 C118.6071,104.1143 118.9951,104.0653 119.3881,104.0213 L119.3881,104.0213 Z M110.5751,106.0543 L110.5751,105.9113 C110.6161,104.8893 110.7911,103.8173 111.0821,102.6983 C111.3701,101.5853 111.8131,100.4693 112.4391,99.3703 C112.6261,99.0383 112.8471,98.7213 113.0781,98.3953 C113.1821,99.8263 112.9521,101.3203 112.3861,102.8963 C112.0111,103.9243 111.4021,104.9853 110.5751,106.0543 L110.5751,106.0543 Z M112.5851,85.6373 C113.5761,85.9253 114.6481,86.3193 115.7601,86.8553 C116.8801,87.3763 117.9311,88.0613 118.8751,88.8913 C119.4631,89.4013 119.9621,90.0073 120.4281,90.6453 L114.4791,90.6453 C114.3591,90.2543 114.2191,89.8353 114.0501,89.4423 C113.4301,87.9533 112.6171,86.5893 111.5911,85.3423 L112.5851,85.6373 Z M105.6801,90.9343 C105.9211,90.2633 106.2341,89.5643 106.5811,88.8563 C107.6001,89.3083 108.5991,89.9813 109.5581,90.9533 C110.3681,91.7763 111.1231,92.7983 111.7961,94.0163 C111.9061,94.1973 111.9791,94.3923 112.0751,94.5643 C111.9971,95.2163 111.8711,95.9213 111.5741,96.7253 C111.1981,97.8213 110.8571,98.8553 110.5751,99.8083 C110.3331,100.6123 110.1581,101.3463 110.0471,102.0283 C109.9281,102.6923 109.8171,103.3633 109.7181,104.0213 C109.6301,104.6883 109.5671,105.4103 109.5521,106.1673 C109.5381,106.5233 109.5231,106.9133 109.5111,107.3193 C109.5031,107.3253 109.4911,107.3483 109.4911,107.3603 C109.4791,107.3253 109.4621,107.3193 109.4471,107.3043 C109.2981,105.0963 108.8651,103.0653 108.1101,101.2303 C107.2241,99.0883 106.0421,97.2523 104.5851,95.7203 C104.6921,94.2633 105.0591,92.6613 105.6801,90.9343 L105.6801,90.9343 Z M108.3201,106.1103 C108.2821,106.0753 108.2531,106.0393 108.2091,106.0073 C107.5271,105.2533 106.8861,104.3703 106.2921,103.3733 C105.7071,102.3803 105.2311,101.2793 104.9051,100.0583 C104.8061,99.7113 104.7771,99.3253 104.7011,98.9603 C105.7581,99.8893 106.6411,101.0933 107.3581,102.5963 C107.8251,103.5923 108.1281,104.7753 108.3201,106.1103 L108.3201,106.1103 Z M95.2851,90.2543 C96.1881,89.7503 97.2221,89.2933 98.3931,88.8563 C99.5681,88.4253 100.7771,88.1863 102.0361,88.0933 C102.8071,88.0553 103.5971,88.1253 104.3861,88.2443 L100.1731,92.4493 C99.7971,92.2623 99.4221,92.0583 99.0111,91.9043 C97.5311,91.2843 95.9721,90.9053 94.3641,90.7423 L95.2851,90.2543 Z M96.9141,96.1433 C98.0441,96.1433 99.3141,96.3533 100.6631,96.7253 C100.8461,96.7693 101.0471,96.8543 101.2431,96.9173 C101.6481,97.4393 102.0471,98.0363 102.4201,98.7973 C102.9301,99.8433 103.4111,100.8133 103.8851,101.6873 C104.2991,102.4303 104.6921,103.0743 105.0861,103.6303 C105.4591,104.1813 105.8581,104.7293 106.2591,105.2743 C106.6791,105.8163 107.1261,106.3513 107.6441,106.9253 C107.8971,107.1913 108.1771,107.4613 108.4541,107.7673 L108.4541,107.8023 L108.4071,107.8023 C106.7291,106.3233 104.9931,105.1983 103.1451,104.4373 C101.0051,103.5543 98.8721,103.0853 96.7591,103.0443 C95.8091,101.9413 94.9381,100.5453 94.1521,98.8693 C93.8541,98.2323 93.5751,97.5333 93.3241,96.7813 C94.3641,96.3723 95.5561,96.1433 96.9141,96.1433 L96.9141,96.1433 Z M106.7531,107.7423 L106.6071,107.7423 C105.5721,107.6953 104.4981,107.5323 103.3931,107.2313 C102.2711,106.9523 101.1531,106.5093 100.0601,105.8763 C99.7191,105.6963 99.3961,105.4773 99.0641,105.2393 C100.4881,105.1363 101.9981,105.3673 103.5681,105.9413 C104.6261,106.3083 105.6801,106.9253 106.7531,107.7423 L106.7531,107.7423 Z M86.0141,106.7303 L86.3171,105.7433 C86.6001,104.7293 87.0071,103.6833 87.5291,102.5553 C88.0651,101.4483 88.7391,100.3933 89.5811,99.4323 C90.0731,98.8613 90.6901,98.3513 91.3321,97.8973 L91.3321,103.8263 C90.9211,103.9533 90.5301,104.1053 90.1201,104.2533 C88.6361,104.8863 87.2641,105.7043 86.0141,106.7303 L86.0141,106.7303 Z M92.5761,119.3043 C91.9721,120.7933 91.5881,122.3343 91.4241,123.9543 L90.9321,123.0393 C90.4251,122.1303 89.9631,121.0813 89.5401,119.9253 C89.1231,118.7573 88.8581,117.5343 88.7821,116.2783 C88.7391,115.4993 88.8051,114.7313 88.9391,113.9553 L93.1261,118.1363 C92.9311,118.5243 92.7391,118.9143 92.5761,119.3043 L92.5761,119.3043 Z M91.6141,112.6363 C90.9531,112.3973 90.2561,112.0943 89.5401,111.7533 C89.9881,110.7253 90.6841,109.7253 91.6521,108.7733 C92.4561,107.9653 93.4671,107.2053 94.7031,106.5093 C94.8781,106.4153 95.0631,106.3233 95.2531,106.2553 C95.9121,106.3143 96.6141,106.4563 97.4031,106.7363 C98.5071,107.1353 99.5271,107.4583 100.4881,107.7423 C101.3041,107.9833 102.0361,108.1553 102.7031,108.2773 C103.3641,108.3943 104.0401,108.5073 104.7011,108.6133 C105.3721,108.7023 106.0961,108.7613 106.8571,108.7853 C107.2101,108.8043 107.6001,108.8043 108.0161,108.8133 C108.0161,108.8193 108.0311,108.8303 108.0401,108.8483 C108.0311,108.8513 108.0161,108.8663 108.0051,108.8713 C105.7821,109.0173 103.7551,109.4523 101.9241,110.2203 C99.7631,111.1033 97.9451,112.2863 96.4071,113.7513 C94.9501,113.6233 93.3621,113.2593 91.6141,112.6363 L91.6141,112.6363 Z M106.7961,110.0173 C106.7671,110.0543 106.7291,110.0723 106.6971,110.1013 C105.9421,110.8063 105.0591,111.4473 104.0691,112.0303 C103.0761,112.6183 101.9541,113.0903 100.7511,113.4223 C100.3951,113.5253 100.0161,113.5623 99.6311,113.6183 C100.5701,112.5573 101.7731,111.6713 103.2741,110.9693 C104.2791,110.5003 105.4591,110.1953 106.7961,110.0173 L106.7961,110.0173 Z M96.8401,121.4163 C96.8401,120.2663 97.0391,119.0133 97.4031,117.6503 C97.4731,117.4573 97.5341,117.2713 97.6011,117.0843 C98.1201,116.6733 98.7091,116.2783 99.4741,115.9133 C100.5231,115.3923 101.4911,114.9113 102.3591,114.4333 C103.1161,114.0173 103.7631,113.6413 104.3111,113.2333 C104.8811,112.8693 105.4321,112.4553 105.9511,112.0503 C106.4991,111.6513 107.0441,111.1823 107.6121,110.6723 C107.8621,110.4183 108.1331,110.1543 108.4391,109.8623 L108.4771,109.8623 L108.4771,109.9413 C107.0051,111.6133 105.8791,113.3413 105.1271,115.1733 C104.2441,117.3213 103.7811,119.4423 103.7221,121.5723 C102.6151,122.5033 101.2341,123.3663 99.5621,124.1673 C98.9101,124.4733 98.2051,124.7383 97.4731,124.9943 C97.0531,123.9543 96.8401,122.7723 96.8401,121.4163 L96.8401,121.4163 Z M108.4391,111.5763 L108.4391,111.7123 C108.3801,112.7493 108.2091,113.8223 107.9381,114.9283 C107.6441,116.0533 107.1891,117.1693 106.5751,118.2643 C106.3741,118.5913 106.1611,118.9263 105.9301,119.2433 C105.8171,117.8303 106.0451,116.3253 106.6151,114.7483 C107.0001,113.6993 107.6211,112.6363 108.4391,111.5763 L108.4391,111.5763 Z M106.4321,131.9983 C105.4321,131.7073 104.3721,131.2993 103.2361,130.7813 C102.1171,130.2623 101.0771,129.5753 100.1381,128.7443 C99.5531,128.2293 99.0411,127.6283 98.5941,126.9823 L104.5121,126.9823 C104.6491,127.3833 104.7771,127.7913 104.9401,128.2003 C105.5721,129.6673 106.3881,131.0453 107.4111,132.2893 L106.4321,131.9983 Z M113.3281,126.7103 C113.0871,127.3603 112.7801,128.0683 112.4391,128.7823 C111.4111,128.3333 110.4121,127.6343 109.4621,126.6873 C108.6371,125.8633 107.8971,124.8463 107.2071,123.6193 C107.1021,123.4393 107.0261,123.2553 106.9391,123.0663 C107.0051,122.4193 107.1541,121.7083 107.4281,120.9123 C107.7981,119.8213 108.1481,118.8003 108.4391,117.8303 C108.6701,117.0233 108.8501,116.2923 108.9581,115.6083 C109.0711,114.9463 109.1911,114.2823 109.2931,113.6183 C109.3781,112.9453 109.4351,112.2313 109.4761,111.4733 C109.4791,111.1033 109.4791,110.7253 109.4911,110.3053 C109.5031,110.2963 109.5031,110.2853 109.5111,110.2793 C109.5381,110.2963 109.5581,110.3143 109.5701,110.3283 C109.7101,112.5423 110.1401,114.5683 110.9101,116.3943 C111.7931,118.5443 112.9661,120.3913 114.4261,121.9183 C114.3071,123.3663 113.9431,124.9713 113.3281,126.7103 L113.3281,126.7103 Z M110.6971,111.5293 C110.7321,111.5673 110.7551,111.5983 110.7911,111.6273 C111.4901,112.3913 112.1251,113.2653 112.7161,114.2553 C113.3041,115.2583 113.7861,116.3623 114.1001,117.5853 C114.2051,117.9173 114.2371,118.3143 114.3071,118.6873 C113.2441,117.7543 112.3581,116.5543 111.6441,115.0483 C111.1711,114.0513 110.8831,112.8693 110.6971,111.5293 L110.6971,111.5293 Z M123.7321,127.3833 C122.8141,127.8873 121.7621,128.3633 120.6141,128.7823 C119.4551,129.1963 118.2341,129.4473 116.9551,129.5423 C116.1951,129.6043 115.4081,129.5133 114.6361,129.3883 L118.8321,125.1873 C119.2111,125.3913 119.5861,125.5723 119.9821,125.7383 C121.4711,126.3523 123.0361,126.7433 124.6431,126.9033 L123.7321,127.3833 Z M122.0971,121.4843 C120.9621,121.4843 119.7091,121.2833 118.3341,120.9123 C118.1351,120.8523 117.9551,120.7853 117.7561,120.7173 C117.3571,120.2043 116.9521,119.5993 116.5881,118.8213 C116.0871,117.7893 115.5971,116.8343 115.1171,115.9523 C114.7141,115.2003 114.3241,114.5623 113.9341,114.0113 C113.5411,113.4463 113.1471,112.9013 112.7481,112.3653 C112.3461,111.8203 111.8711,111.2663 111.3401,110.7193 C111.1111,110.4483 110.8311,110.1653 110.5511,109.8793 L110.5511,109.8273 C110.5751,109.8273 110.5921,109.8273 110.6161,109.8333 C112.2731,111.3103 114.0271,112.4323 115.8541,113.1923 C118.0011,114.0773 120.1481,114.5443 122.2571,114.5933 C123.1961,115.7153 124.0521,117.0903 124.8531,118.7693 C125.1451,119.4123 125.4241,120.1123 125.6781,120.8523 C124.6431,121.2623 123.4691,121.4843 122.0971,121.4843 L122.0971,121.4843 Z M112.2641,109.8973 L112.3921,109.8973 C113.4301,109.9413 114.4961,110.1013 115.6151,110.3863 C116.7431,110.6813 117.8581,111.1443 118.9451,111.7533 C119.2861,111.9373 119.6031,112.1693 119.9321,112.3913 C118.5141,112.4933 117.0131,112.2813 115.4201,111.6983 C114.3821,111.3273 113.3341,110.7043 112.2641,109.8973 L112.2641,109.8973 Z M124.2941,111.1263 C124.1191,111.2293 123.9361,111.3103 123.7411,111.3923 C123.0991,111.3163 122.3941,111.1703 121.5961,110.8913 C120.5041,110.5063 119.4721,110.1773 118.5191,109.8973 C117.7011,109.6563 116.9551,109.4873 116.3021,109.3433 C115.6351,109.2363 114.9681,109.1223 114.3071,109.0323 C113.6331,108.9333 112.9171,108.8713 112.1451,108.8663 C111.7931,108.8513 111.4021,108.8303 110.9921,108.8303 C110.9711,108.8193 110.9711,108.8193 110.9631,108.8043 C110.9711,108.7853 110.9851,108.7733 111.0001,108.7553 C113.2171,108.6163 115.2541,108.1783 117.0891,107.4173 C119.2421,106.5323 121.0511,105.3583 122.6071,103.8933 C124.0521,104.0153 125.6491,104.3703 127.3771,104.9963 C128.0491,105.2393 128.7521,105.5443 129.4541,105.8883 C129.0051,106.9053 128.3261,107.9133 127.3501,108.8663 C126.5551,109.6703 125.5441,110.4393 124.2941,111.1263 L124.2941,111.1263 Z M132.6961,111.8963 C132.3991,112.8893 131.9911,113.9553 131.4731,115.0753 C130.9431,116.2023 130.2691,117.2273 129.4241,118.1983 C128.9261,118.7773 128.3261,119.2673 127.6881,119.7273 L127.6881,113.8103 C128.0761,113.6793 128.4861,113.5383 128.8851,113.3753 C130.3691,112.7673 131.7441,111.9283 132.9881,110.9163 L132.6961,111.8963 Z"/>
  </g>
</svg>
