<svg xmlns="http://www.w3.org/2000/svg" width="91" height="91" viewBox="0 0 91 91">
  <g fill="none" fill-rule="evenodd" transform="translate(0 .5)">
    <path fill="#FFF" d="M45.4549333,14.8059706 C62.1642667,14.8059706 75.7593778,28.3011176 75.7593778,44.8875882 C75.7593778,61.4740588 62.1642667,74.9692059 45.4549333,74.9692059 C28.7456,74.9692059 15.1519333,61.4740588 15.1519333,44.8875882 C15.1519333,28.3011176 28.7456,14.8059706 45.4549333,14.8059706 M45.4549333,2.79769853 C22.0376,2.79769853 3.05471111,21.643875 3.05471111,44.8875882 C3.05471111,68.1327353 22.0376,86.9760441 45.4549333,86.9760441 C68.8722667,86.9760441 87.8566,68.1327353 87.8566,44.8875882 C87.8566,21.643875 68.8722667,2.79769853 45.4549333,2.79769853"/>
    <path fill="#FFF" d="M45.4549333,89.7008824 C20.5613778,89.7008824 0.308822222,69.5972426 0.308822222,44.8867279 C0.308822222,20.1776471 20.5613778,0.0740073529 45.4549333,0.0740073529 C70.3484889,0.0740073529 90.6010444,20.1776471 90.6010444,44.8867279 C90.6010444,69.5972426 70.3484889,89.7008824 45.4549333,89.7008824 M45.4549333,1.15080882 C21.1608222,1.15080882 1.39504444,20.7726838 1.39504444,44.8867279 C1.39504444,69.0036397 21.1608222,88.6226471 45.4549333,88.6226471 C69.7490444,88.6226471 89.5148222,69.0036397 89.5148222,44.8867279 C89.5148222,20.7726838 69.7490444,1.15080882 45.4549333,1.15080882"/>
    <path fill="#B0851E" d="M8.62304444 46.4635037C8.60137778 45.9544963 9.00004444 45.5157463 9.52004444 45.4928051 10.0357111 45.4727316 10.4806 45.8727684 10.5051556 46.3889449 10.5253778 46.9065551 10.1209333 47.3367022 9.60093333 47.3596434 9.07948889 47.3825846 8.64615556 46.9782463 8.62304444 46.4635037M11.7798778 41.8063015C11.8492111 41.3202353 11.7322111 41.1825882 11.2815444 41.1151985L8.61076667 40.705125C8.18032222 40.6406029 8.04743333 40.7237647 7.96221111 41.2213015L7.70076667 41.1797206C7.77732222 40.8528088 7.83076667 40.5932868 7.86254444 40.3954191 7.92321111 39.99825 7.94198889 39.6225882 7.99543333 39.2842059 8.17887778 38.1027353 8.61076667 37.5736544 9.30554444 37.6797574 9.83276667 37.7600515 10.1187667 38.2102721 10.1086556 39.0003088 10.3672111 38.0855294 10.8164333 37.6310074 11.4982111 37.7356765 12.2565444 37.8518162 12.5685444 38.5515221 12.3735444 39.8046838 12.3201 40.1559706 12.2262111 40.5474044 12.1583222 40.9818529 12.1164333 41.241375 12.0861 41.533875 12.0543222 41.8493162L11.7798778 41.8063015zM9.87465556 39.7358603C9.97432222 39.1035441 9.76487778 38.8296838 9.1611 38.7350515 8.65843333 38.6590588 8.37965556 38.8784338 8.29876667 39.4089485 8.2641 39.6197206 8.28865556 39.6426618 8.38398889 39.657L9.84576667 39.8821103C9.85443333 39.8304926 9.86887778 39.7803088 9.87465556 39.7358603L9.87465556 39.7358603zM11.2367667 40.0943162C11.7639889 40.1760441 11.9864333 40.0914485 12.0471 39.7100515 12.1207667 39.2297206 11.8549889 38.9472574 11.2439889 38.852625 10.6142111 38.7565588 10.2892111 39.0275515 10.1808778 39.7172206 10.1707667 39.7817426 10.1606556 39.852 10.1548778 39.9279926L11.2367667 40.0943162zM9.77542222 35.5361912C9.2352 35.3655662 9.05753333 35.3842059 8.86253333 35.8846103L8.62131111 35.8086176C8.75275556 35.4444265 8.8712 35.0931397 8.97086667 34.7805662 9.08064444 34.44075 9.19331111 34.0693897 9.30453333 33.6621838L9.55297778 33.7410441C9.42008889 34.2557868 9.52842222 34.392 10.0426444 34.5540221L11.6575333 35.0658971C12.5733111 35.3569632 13.0499778 35.2221838 13.3056444 34.4221103 13.4573111 33.95325 13.4168667 33.5460441 13.2204222 33.2893897 13.0167556 33.0255662 12.6859778 32.8864853 12.2122 32.7373676L10.7865333 32.2842794C10.2939778 32.1294265 10.0830889 32.19825 9.89386667 32.6355662L9.6642 32.5610074C9.74942222 32.3387647 9.83464444 32.0993162 9.91697778 31.8397941 10.0137556 31.5372574 10.0888667 31.2834706 10.1365333 31.0942059L10.3777556 31.1716324C10.2882 31.6204191 10.4138667 31.8025147 10.8919778 31.9516324L12.3219778 32.4047206C12.8607556 32.5767794 13.2565333 32.7502721 13.5179778 33.0829191 13.8328667 33.4886912 13.8906444 34.0765588 13.6624222 34.7805662 13.4558667 35.4257868 13.1568667 35.8473309 12.6989778 36.0753088 12.3407556 36.2545368 11.8987556 36.2100882 11.2906444 36.0150882L9.77542222 35.5361912zM14.4275444 31.6730404C14.6456556 31.181239 14.5662111 31.059364 14.1126556 30.8500257L11.7192111 29.7359449C11.3176556 29.5509816 11.1602111 29.5610184 10.9579889 29.9882978 10.9507667 30.0055037 10.9421 30.0255772 10.9305444 30.0470846L10.6893222 29.9352463C10.8814333 29.5595846 11.0489889 29.2169007 11.1934333 28.9129301 11.3451 28.5917537 11.5025444 28.2433346 11.6614333 27.8762757L11.9026556 27.988114C11.8925444 28.0110551 11.8809889 28.0339963 11.8737667 28.052636 11.6989889 28.4196949 11.7885444 28.6118272 12.1655444 28.7867537L14.5589889 29.9008346C14.9908778 30.100136 15.1728778 30.0499522 15.3996556 29.612636L15.6351 29.7230404C15.4025444 30.1847316 15.2335444 30.5274154 15.1324333 30.7453566 14.9995444 31.026386 14.8421 31.3733713 14.6629889 31.782011L14.4275444 31.6730404zM15.7337556 28.8921397C15.7438667 28.8763676 15.7510889 28.8648971 15.7612 28.8476912 15.9908667 28.4791985 15.9085333 28.3014044 15.4939778 28.0461838L13.1973111 26.6424706C12.8665333 26.436 12.6888667 26.4876176 12.4620889 26.850375 12.4592 26.8561103 12.4534222 26.8675809 12.4462 26.8804853L12.2223111 26.7428382C12.4563111 26.3915515 12.6599778 26.0761103 12.8318667 25.8008162 12.9575333 25.5972132 13.1568667 25.2703015 13.4125333 24.8329853L13.6335333 24.9691985 13.6118667 25.0021765C13.3648667 25.3979118 13.4096444 25.5613676 13.7765333 25.7850441L15.8045333 27.0281691C16.3606444 27.3694191 16.6206444 27.3393088 16.9673111 26.7844191 17.3500889 26.167875 17.3024222 25.680375 16.7925333 25.21725L16.9340889 24.9921397 18.0289778 25.6947132C17.6808667 26.2395662 17.3269778 26.7973235 16.9702 27.3708529 16.6856444 27.8268088 16.3563111 28.3845662 15.9648667 29.0369559L15.7337556 28.8921397zM18.1854111 25.0051875C18.4945222 24.6295257 18.4714111 24.4761066 18.1074111 24.172136L16.0924111 22.4859596C15.7341889 22.1862904 15.5709667 22.1461434 15.2373 22.539011L15.0379667 22.3755551C15.2069667 22.1963272 15.3759667 21.9955919 15.5391889 21.8048934 15.7746333 21.5267316 15.9970778 21.2428346 16.2253 20.9747096 17.3447444 19.6570257 18.5494111 19.4878346 19.6948556 20.4456287 20.2061889 20.8743419 20.4690778 21.3804816 20.4820778 21.9654816 20.4936333 22.5748566 20.2090778 23.0394154 19.7266333 23.6057757 19.4796333 23.8997096 19.2138556 24.1836066 18.9524111 24.4904449 18.7761889 24.6969154 18.5999667 24.9263272 18.3948556 25.1786801L18.1854111 25.0051875zM19.5865222 23.2616581C20.0776333 22.6838272 19.8378556 22.051511 18.8903 21.2629081 17.8705222 20.4097831 17.1627444 20.3309228 16.4780778 21.1381654 16.3610778 21.2758125 16.3538556 21.353239 16.4491889 21.4335331L18.6851889 23.303239C19.0434111 23.6014743 19.2889667 23.611511 19.5865222 23.2616581L19.5865222 23.2616581zM21.6201556 21.0942904C22.0274889 20.7344007 21.9451556 20.5408346 21.5132667 20.057636L19.9142667 18.2653566C19.6080444 17.921239 19.4000444 17.8825257 19.0764889 18.164989 19.0620444 18.1793272 19.0533778 18.1864963 19.0389333 18.1994007L18.8713778 18.0115699C19.2296 17.7291066 19.5704889 17.4480772 19.8969333 17.1627463 20.2421556 16.8559081 20.8040444 16.3555037 21.5638222 15.6443272L22.3163778 16.4917169 22.1184889 16.6680772C21.5219333 16.2422316 21.2171556 16.3913493 20.5873778 16.9419375 20.3432667 17.1555772 20.3230444 17.1914228 20.4472667 17.3319375L21.3977111 18.3972684C21.4266 18.3728934 21.4569333 18.3456507 21.4800444 18.3241434 21.8671556 17.985761 21.8873778 17.7248051 21.6013778 17.2502096L21.8079333 17.0709816C21.9740444 17.2975257 22.1589333 17.5125993 22.3481556 17.726239 22.5662667 17.9728566 22.7771556 18.1879301 22.9721556 18.3786287L22.7786 18.5506875C22.3380444 18.2022684 22.0607111 18.2123051 21.6591556 18.5635919 21.6403778 18.5807978 21.6216 18.5994375 21.5956 18.619511L22.3698222 19.4855404C22.6746 19.8296581 22.9577111 19.8153199 23.3477111 19.472636 23.9197111 18.9722316 24.0208222 18.5879669 23.6279333 17.9327096L23.8084889 17.774989 24.6852667 18.7557243C23.9356 19.3808713 23.3390444 19.9027831 22.8811556 20.3042537 22.7843778 20.3917169 22.6904889 20.472011 22.5937111 20.5580404 22.3149333 20.8017904 22.0433778 21.0426728 21.8007111 21.2993272L21.6201556 21.0942904zM25.0254333 18.1272794C25.4789889 17.8290441 25.5136556 17.6526838 25.2363222 17.236875L23.7528778 15.0015441C23.5159889 14.6445221 23.3701 14.6258824 22.8977667 14.9269853L22.7562111 14.7090441C23.0465444 14.5355515 23.2791 14.3835662 23.4697667 14.2588235 23.8178778 14.0308456 24.1761 13.7727574 24.5776556 13.5075 25.5844333 12.849375 26.2589889 12.8120956 26.6822111 13.4472794 27.0028778 13.9276103 26.9032111 14.4710294 26.3803222 14.9527941 26.5767667 14.9198162 26.8367667 15.0287868 27.2195444 15.1707353L28.2349889 15.5607353C28.5311 15.676875 28.7781 15.6869118 28.9774333 15.5865441L29.1103222 15.7844118C28.9774333 15.8575368 28.7405444 16.0052206 28.4039889 16.2245956 28.2609889 16.3163603 28.1208778 16.4095588 27.9908778 16.5084926L26.2878778 15.8345956C25.9368778 15.6955147 25.7317667 15.6195221 25.5252111 15.7557353 25.5093222 15.7657721 25.4948778 15.7815441 25.4732111 15.7973162L26.0899889 16.7235662C26.3413222 17.1006618 26.5363222 17.1379412 26.9205444 16.8841544 26.9321 16.8784191 26.9393222 16.8741176 26.9494333 16.8655147L27.0996556 17.0934926C26.4886556 17.4777574 26.0827667 17.7358456 25.8819889 17.8663235 25.6754333 18.0011029 25.4371 18.1573897 25.1756556 18.3523897L25.0254333 18.1272794zM25.4963222 15.4316912C26.0625444 15.0617647 26.1694333 14.6588603 25.8256556 14.14125 25.4703222 13.6064338 25.0759889 13.5404779 24.5531 13.8802941 24.3523222 14.0136397 24.3306556 14.0752941 24.4491 14.2530882L25.3085444 15.5463971C25.3778778 15.5105515 25.4428778 15.4689706 25.4963222 15.4316912L25.4963222 15.4316912zM29.1809556 15.0663529C29.0581778 14.8168676 28.9411778 14.5917574 28.8357333 14.4053603L29.1044 14.2763162C29.6085111 14.8885588 30.1256222 15.0706544 30.6470667 14.8183015 31.0919556 14.6017941 31.2421778 14.2275662 31.0529556 13.8418676 30.8622889 13.4533015 30.5026222 13.4475662 29.8670667 13.4662059 28.9397333 13.4991838 28.4024 13.3629706 28.0846222 12.71775 27.7581778 12.0553235 28.0196222 11.3885956 28.7288444 11.0459118 29.1145111 10.8580809 29.4525111 10.7949926 29.8324 10.8853235L29.7789556 10.6014265 30.0534 10.4680809C30.2180667 10.7992941 30.4029556 11.1634853 30.6152889 11.5491838L30.3509556 11.6782279C29.9624 11.182125 29.4279556 11.0530809 28.9411778 11.2882279 28.5844 11.4602868 28.4702889 11.7886324 28.6190667 12.0926029 28.7808444 12.4238162 29.0784 12.4080441 29.5955111 12.3965735 30.6918444 12.3693309 31.3216222 12.4166471 31.6784 13.1378603 32.0424 13.8820147 31.7361778 14.643375 30.8868444 15.0548824 30.4535111 15.2642206 30.0765111 15.3244412 29.6460667 15.1867941L29.7168444 15.5065368 29.4409556 15.6384485C29.3600667 15.44775 29.2734 15.2584853 29.1809556 15.0663529M35.9983 13.0472426C35.3974111 13.1963603 34.9091889 12.9354044 34.7763 12.4091912 34.6491889 11.9001838 34.9034111 11.3897426 35.5288556 10.7975735 35.1663 10.4720956 34.9351889 10.14375 34.8528556 9.81683824 34.6954111 9.19025735 35.0651889 8.60382353 35.6935222 8.44897059 36.2727444 8.30558824 36.7523 8.58088235 36.8707444 9.05117647 36.9761889 9.47272059 36.8144111 9.87849265 36.3883 10.2842647 36.6887444 10.5237132 37.0411889 10.7760662 37.4398556 11.0513603 37.7518556 10.1537868 37.9179667 9.64047794 38.4683 9.50426471 38.8481889 9.41106618 39.1399667 9.58455882 39.2208556 9.91147059 39.2930778 10.2011029 39.1414111 10.4462868 38.8496333 10.5165441 38.6604111 10.5652941 38.4957444 10.5237132 38.3975222 10.4018382 38.3108556 10.2957353 38.3325222 10.1179412 38.1880778 10.1537868 38.0364111 10.1910662 37.9555222 10.5710294 37.7171889 11.2291544 38.2545222 11.5704044 38.5954111 11.7539338 38.9233 11.6707721 39.1515222 11.6148529 39.3104111 11.4700368 39.4071889 11.2205515L39.6801889 11.3395588C39.4375222 11.9518015 39.1081889 12.2787132 38.5795222 12.4120588 38.1808556 12.508125 37.7561889 12.3991544 37.2824111 12.0894485 36.9227444 12.605625 36.5096333 12.9210662 35.9983 13.0472426M36.3117444 9.23040441C36.2149667 8.85330882 35.9824111 8.67121324 35.7238556 8.73430147 35.4884111 8.79308824 35.3641889 9.01676471 35.4263 9.26194853 35.4985222 9.55731618 35.7484111 9.79533088 36.1456333 10.0964338 36.3233 9.81397059 36.3753 9.48849265 36.3117444 9.23040441M35.7513 11.0155147C35.5389667 11.240625 35.4624111 11.5259559 35.5346333 11.8155882 35.6343 12.2113235 36.0575222 12.4794485 36.4186333 12.3905515 36.6771889 12.3260294 36.8765222 12.1640074 36.9891889 11.9374632 36.6714111 11.7682721 36.2539667 11.4643015 35.7513 11.0155147M42.7240667 11.4384926C43.1790667 11.3954779 43.2946222 11.2822059 43.2845111 10.9022426L43.2166222 8.12205882C43.2065111 7.72058824 43.1140667 7.62595588 42.6316222 7.60588235L42.6258444 7.35209559C42.8916222 7.36643382 43.1328444 7.36069853 43.3350667 7.35352941 43.6080667 7.34779412 43.9792889 7.32772059 44.4545111 7.31625 45.8281778 7.28183824 46.4940667 7.58867647 46.5142889 8.42172794 46.5345111 9.26338235 45.9191778 9.66055147 44.6032889 9.69209559 44.5050667 9.69496324 44.3952889 9.69639706 44.2840667 9.69352941L44.3144 10.8448897C44.3230667 11.265 44.4574 11.3969118 44.9456222 11.3854412 44.9571778 11.3840074 44.9730667 11.3840074 44.9846222 11.3840074L44.9904 11.6478309C44.6004 11.6463971 44.1049556 11.6492647 43.4925111 11.6664706 43.1920667 11.6736397 42.9378444 11.679375 42.7298444 11.70375L42.7240667 11.4384926zM44.4530667 9.37808824C45.1435111 9.36231618 45.4165111 9.08988971 45.4020667 8.43176471 45.3861778 7.88691176 45.1016222 7.61018382 44.5787333 7.62308824 44.3187333 7.63025735 44.2349556 7.66466912 44.2378444 7.80518382L44.2768444 9.37665441C44.3346222 9.37952206 44.3938444 9.37952206 44.4530667 9.37808824L44.4530667 9.37808824zM47.2802778 11.3795625C47.3005 11.3824301 47.3120556 11.383864 47.3322778 11.3852978 47.7656111 11.4340478 47.8941667 11.2849301 47.9476111 10.8045993L48.2480556 8.14629044C48.2913889 7.76059191 48.1700556 7.62437868 47.7425 7.57562868 47.7367222 7.57562868 47.7237222 7.57419485 47.7107222 7.57276103L47.7396111 7.31610662C48.1585 7.37489338 48.5326111 7.42364338 48.8561667 7.45948897 49.0959444 7.48673162 49.4772778 7.52114338 49.9842778 7.56559191L49.9553889 7.82224632 49.9163889 7.81794485C49.4498333 7.76489338 49.3198333 7.87529779 49.2721667 8.29827574L49.0078333 10.6497463C48.9356111 11.2906654 49.0728333 11.5143419 49.7271667 11.5874669 50.4508333 11.667761 50.8726111 11.4139743 51.0777222 10.7615846L51.3420556 10.7916949 51.1716111 12.0720993C50.5245 11.9946728 49.8658333 11.9143787 49.1941667 11.8398199 48.6568333 11.7810331 48.0082778 11.7208125 47.2499444 11.6491213L47.2802778 11.3795625zM51.5825556 11.8640515C51.9003333 11.9171029 52.1285556 11.8095662 52.3408889 11.5371397L54.7848889 8.36695588 55.1012222 8.44725 55.5995556 12.3558529C55.6472222 12.7143088 55.7497778 12.9007059 56.1094444 13.0197132L56.0415556 13.2763676C55.6775556 13.1702647 55.3135556 13.0698971 54.9538889 12.9781324 54.5942222 12.8878015 54.2331111 12.8003382 53.8633333 12.7200441L53.9312222 12.4633897C54.327 12.5451176 54.4931111 12.5508529 54.5465556 12.3529853 54.5653333 12.2712574 54.5711111 12.0920294 54.5436667 11.8454118L54.5017778 11.4812206 53.0876667 11.1198971 52.9186667 11.3364044C52.7655556 11.5314044 52.689 11.7048971 52.6702222 11.7737206 52.6081111 12.0117353 52.7453333 12.1608529 53.0992222 12.2511838L53.0313333 12.5078382C52.7684444 12.4275441 52.5127778 12.3544191 52.2614444 12.2898971 52.0144444 12.2268088 51.766 12.1708897 51.5161111 12.1207059L51.5825556 11.8640515zM54.4613333 11.1428382L54.2836667 9.54125735 53.3 10.8460368 54.4613333 11.1428382zM60.7979667 13.5695846L60.2100778 14.9661287 59.9645222 14.8628934 59.9760778 14.4685919C59.4387444 14.6048051 58.9591889 14.5718272 58.4781889 14.3739596 57.2561889 13.866386 56.7694111 12.6920846 57.2764111 11.4934081 57.4887444 10.9858346 57.8079667 10.600136 58.2311889 10.3463493 58.8783 9.96351838 59.5846333 9.91333456 60.2981889 10.210136 60.7633 10.4008346 61.0926333 10.6861654 61.3179667 11.0747316L61.5606333 10.7836654 61.8264111 10.892636 61.3194111 12.1959816 61.0680778 12.0913125C61.1663 11.3528934 60.9005222 10.8094743 60.3718556 10.5915331 59.6380778 10.2861287 58.8551889 10.7392169 58.3799667 11.867636 57.9090778 12.988886 58.1214111 13.8047316 58.8739667 14.118739 59.4806333 14.3696581 60.0613 14.1459816 60.5451889 13.4649154L60.7979667 13.5695846zM61.0504556 15.1195478C61.5199 15.3977096 61.6816778 15.2571949 62.0124556 14.7023051L63.2460111 12.6462022C63.4814556 12.2504669 63.4554556 12.0396949 63.0856778 11.8217537 63.0697889 11.8117169 63.0582333 11.8045478 63.0409 11.7959449L63.1709 11.5794375C63.5507889 11.8332243 63.9249 12.0683713 64.2990111 12.290614 64.6976778 12.5228934 65.3505667 12.9028566 66.2620111 13.403261L65.6799 14.3753934 65.4502333 14.240614C65.6770111 13.5466434 65.4430111 13.3014596 64.7207889 12.8770478 64.4405667 12.7121581 64.4015667 12.7006875 64.3033444 12.8641434L63.5710111 14.0871949C63.6056778 14.1072684 63.6389 14.1273419 63.6677889 14.143114 64.1083444 14.4040699 64.3640111 14.3438493 64.7337889 13.9309081L64.9692333 14.069989C64.8031222 14.2950993 64.6500111 14.5359816 64.5055667 14.7811654 64.3351222 15.0650625 64.1935667 15.3274522 64.0693444 15.5683346L63.8469 15.4392904C64.0447889 14.914511 63.9494556 14.6564228 63.4915667 14.3854301 63.4684556 14.3725257 63.4453444 14.3596213 63.4179 14.3424154L62.8242333 15.337489C62.5844556 15.7317904 62.6855667 15.995614 63.1333444 16.2594375 63.7891222 16.645136 64.1877889 16.6250625 64.6976778 16.0544007L64.9042333 16.1762757 64.2282333 17.303261C63.4020111 16.7870846 62.7187889 16.3827463 62.1915667 16.0716066 62.0803444 16.0070846 61.9734556 15.9439963 61.8622333 15.8780404 61.5430111 15.6873419 61.2295667 15.5038125 60.9103444 15.353261L61.0504556 15.1195478zM65.0241222 17.4439191C65.4155667 17.753625 65.6437889 17.6059412 66.0713444 17.1026691L67.8234556 15.0264926C67.8306778 14.8472647 67.7237889 14.682375 67.5186778 14.4931103L67.6746778 14.3095809C67.8061222 14.4457941 67.9664556 14.5791397 68.1441222 14.7282574 68.3737889 14.9189559 68.6077889 15.1053529 68.8490111 15.2903162L67.8812333 18.4074485 70.7513444 16.876125C70.8957889 17.0137721 71.0474556 17.1471176 71.2005667 17.2761618 71.4273444 17.4654265 71.6786778 17.656125 71.9632333 17.8769338L71.7971222 18.0705C71.3710111 17.7206471 71.1991222 17.7808676 70.8871222 18.1522279L69.1783444 20.1710515C68.9024556 20.4979632 68.9111222 20.6771912 69.2996778 21.0241765L69.1321222 21.2234779C68.7652333 20.8908309 68.4647889 20.6227059 68.2206778 20.4205368 68.0199 20.2527794 67.7627889 20.0463088 67.4349 19.801125L67.6010111 19.6018235C68.0603444 19.9172647 68.1643444 19.8427059 68.4662333 19.4856838L70.0016778 17.6690294 66.8643444 19.3179265 66.6303444 19.1214926 67.7339 15.6688456 66.3342333 17.3220441C65.9110111 17.8224485 65.8185667 18.0805368 66.1869 18.4217868L66.0150111 18.6239559C65.7434556 18.3730368 65.5556778 18.2009779 65.4430111 18.1049118 65.2884556 17.9758676 65.0949 17.8253162 64.8522333 17.6489559L65.0241222 17.4439191zM69.6028667 21.3604081C69.8296444 21.5855184 70.0795333 21.6285331 70.4117556 21.523864L74.2453111 20.3323566 74.4576444 20.5789743 72.5986444 24.0574301C72.4296444 24.3771728 72.4022 24.5879449 72.6289778 24.8904816L72.4253111 25.0625404C72.1913111 24.7686066 71.9500889 24.4775404 71.7103111 24.1979449 71.4705333 23.9169154 71.2249778 23.6401875 70.9693111 23.3620257L71.1729778 23.1899669C71.4488667 23.4839007 71.5803111 23.587136 71.7377556 23.4523566 71.8013111 23.3978713 71.9110889 23.254489 72.0309778 23.035114L72.2086444 22.7139375 71.2639778 21.612761 70.9982 21.6901875C70.7613111 21.7647463 70.5952 21.8608125 70.5417556 21.9081287 70.3539778 22.0672831 70.3799778 22.2665846 70.6154222 22.5404449L70.4117556 22.7125037C70.2456444 22.498864 70.0766444 22.2909596 69.9076444 22.0959596 69.7429778 21.9038272 69.5725333 21.7159963 69.3992 21.5324669L69.6028667 21.3604081zM72.3718667 22.4157022L73.1562 21.0076875 71.5962 21.5095257 72.3718667 22.4157022zM72.9233556 25.2432022C73.1934667 25.6618787 73.3653556 25.6805184 73.7336889 25.4597096L76.0693556 24.0602978C76.4376889 23.839489 76.4853556 23.6588272 76.2528 23.2473199L76.4564667 23.1225772C76.6240222 23.4322831 76.8089111 23.7520257 77.0140222 24.0889743 77.1815778 24.3657022 77.3722444 24.6668051 77.5874667 24.9836801L77.3708 25.1127243C77.3606889 25.0969522 77.3534667 25.0854816 77.3476889 25.0754449 77.1180222 24.6983493 76.9259111 24.7313272 76.5128 24.976511L75.2936889 25.7106287 76.1892444 25.8683493C76.9995778 26.0160331 77.4661333 26.0690846 77.6221333 25.975886 77.7622444 25.8912904 77.7463556 25.7192316 77.5860222 25.4525404L77.7969111 25.326364C77.9731333 25.6661801 78.1320222 25.9400404 78.2605778 26.1508125 78.3848 26.3558493 78.5176889 26.5479816 78.6563556 26.7372463L78.4425778 26.8634228C78.2446889 26.560886 78.0078 26.4676875 77.6336889 26.4060331L76.4131333 26.2009963 75.4453556 28.6757757C75.3341333 28.9553713 75.3312444 29.1747463 75.4265778 29.3453713L75.1868 29.4873199C74.9614667 29.0786801 74.7823556 28.7732757 74.6509111 28.5567684 74.4573556 28.2355919 74.2551333 27.9172831 74.0485778 27.617614L74.2840222 27.4785331C74.2970222 27.5000404 74.3143556 27.5287169 74.3288 27.5502243 74.4559111 27.7609963 74.5888 27.8298199 74.6971333 27.7667316 74.7390222 27.7409228 74.8170222 27.6649301 74.8589111 27.5487904L75.4742444 26.033239 74.9080222 25.9400404 74.2883556 26.3114007C73.8998 26.5465478 73.7958 26.6383125 74.0716889 27.1272463L73.8376889 27.2691949C73.7120222 27.0268787 73.5300222 26.7143051 73.2931333 26.3271728 73.0519111 25.9285699 72.8540222 25.6159963 72.6893556 25.3837169L72.9233556 25.2432022zM75.6260556 29.7673456C75.8456111 30.2648824 76.0565 30.243375 76.6530556 29.9852868L78.8616111 29.0260588C79.2848333 28.8410956 79.3888333 28.6561324 79.2155 28.2661324 79.2082778 28.2474926 79.2025 28.2360221 79.1952778 28.2173824L79.4278333 28.1155809C79.5867222 28.5414265 79.7513889 28.9500662 79.9276111 29.3458015 80.1125 29.7673456 80.4216111 30.4512794 80.8679444 31.3861324L79.8236111 31.8392206 79.7167222 31.5969044C80.3089444 31.1638897 80.2612778 30.8312426 79.9247222 30.0670147 79.7932778 29.7716471 79.7658333 29.7401029 79.5925 29.8160956L78.2809444 30.3867574C78.2968333 30.4211691 78.3112778 30.4570147 78.3242778 30.487125 78.5308333 30.9545515 78.7749444 31.0534853 79.3166111 30.9316103L79.4263889 31.1810956C79.1591667 31.267125 78.8933889 31.3760956 78.6319444 31.4893676 78.3271667 31.6212794 78.0585 31.7531912 77.8143889 31.8793676L77.7103889 31.6427868C78.1798333 31.3330809 78.2535 31.0678235 78.0397222 30.5817574 78.0296111 30.5588162 78.0195 30.5344412 78.0065 30.5057647L76.9376111 30.9688897C76.5143889 31.1524191 76.4421667 31.4248456 76.6501667 31.8980074 76.9563889 32.5919779 77.2915 32.8056176 78.0411667 32.6349926L78.1379444 32.8543676 76.9260556 33.3805809C76.5591667 32.4815735 76.2399444 31.7589265 75.9943889 31.2026029 75.9423889 31.0835956 75.8932778 30.9703235 75.8412778 30.85275 75.6925 30.5143676 75.5466111 30.1831544 75.3747222 29.8763162L75.6260556 29.7673456zM77.4274222 33.9034963C77.5733111 34.4282757 77.7307556 34.5114375 78.2146444 34.3795257L80.8175333 33.6697831C81.2320889 33.556511 81.2970889 33.4260331 81.1540889 32.8869154L81.4054222 32.8180919C81.4834222 33.1464375 81.5556444 33.4145625 81.6163111 33.6325037 81.7275333 34.0311066 81.8647556 34.4512169 81.9918667 34.9129081 82.3125333 36.067136 82.1406444 36.7166581 81.3996444 36.920261 80.8392 37.0722463 80.3466444 36.8084228 80.0476444 36.1675037 80.0216444 36.3625037 79.8367556 36.5732757 79.5810889 36.8930184L78.8935333 37.7318051C78.6898667 37.9741213 78.6032 38.2064007 78.6393111 38.4229081L78.4067556 38.4859963C78.3793111 38.3411801 78.3114222 38.0701875 78.2045333 37.684489 78.1597556 37.5195993 78.1149778 37.3604449 78.0586444 37.2070257L79.2315333 35.8061801C79.4770889 35.5194154 79.6114222 35.3473566 79.5464222 35.1093419 79.5406444 35.0907022 79.5290889 35.0734963 79.5233111 35.0491213L78.4414222 35.344489C78.0008667 35.4649301 77.9084222 35.6384228 78.0312 36.0814743 78.0340889 36.091511 78.0355333 36.0986801 78.0398667 36.1130184L77.7755333 36.1847096C77.5964222 35.4864375 77.4750889 35.0233125 77.4115333 34.7939007 77.3436444 34.5573199 77.2685333 34.2820257 77.1630889 33.9766213L77.4274222 33.9034963zM79.8642 35.1853346C80.0447556 35.8334228 80.3972 36.0599669 81.0009778 35.8950772 81.6235333 35.7244522 81.8084222 35.3702978 81.6423111 34.7723934 81.5787556 34.5415478 81.5282 34.5028346 81.3187556 34.5587537L79.8107556 34.9716949C79.8266444 35.0476875 79.8468667 35.1222463 79.8642 35.1853346L79.8642 35.1853346zM79.0651333 38.7538346C79.3424667 38.7165551 79.5938 38.6749743 79.8061333 38.6333934L79.8451333 38.9273272C79.1026889 39.2126581 78.7675778 39.6428051 78.8484667 40.2134669 78.9149111 40.6980993 79.2254667 40.9561875 79.6515778 40.8988346 80.0834667 40.8400478 80.2004667 40.5045331 80.3810222 39.8994596 80.6395778 39.0162243 80.9371333 38.5502316 81.6521333 38.4527316 82.3902444 38.3537978 82.9449111 38.8054522 83.0518 39.5811507 83.1110222 40.0041287 83.0648 40.342511 82.8596889 40.6708566L83.1471333 40.708136 83.1904667 41.0106728C82.8235778 41.0608566 82.4162444 41.122511 81.9814667 41.2013713L81.9410222 40.9131728C82.5361333 40.7009669 82.8264667 40.2378419 82.7542444 39.7058934 82.7008 39.3158934 82.4205778 39.1051213 82.0869111 39.1510037 81.7171333 39.2011875 81.6376889 39.4865184 81.4903556 39.976886 81.1725778 41.0178419 80.9313556 41.5985404 80.1311333 41.707511 79.3049111 41.8207831 78.6736889 41.293136 78.5465778 40.3640184 78.4815778 39.8908566 78.5408 39.5166287 78.8051333 39.1553051L78.4801333 39.1208934 78.4368 38.8197904C78.6448 38.8054522 78.8542444 38.7839449 79.0651333 38.7538346M82.2798889 46.5125404C82.2567778 47.0215478 81.822 47.4230184 81.3005556 47.4000772 80.7877778 47.3757022 80.3775556 46.9369522 80.3992222 46.4207757 80.4252222 45.9031654 80.8657778 45.5102978 81.3872222 45.533239 81.9072222 45.557614 82.3044444 45.996364 82.2798889 46.5125404M7.4776 52.5305846C7.62348889 52.9607316 7.75782222 53.0453272 8.13048889 52.9521287L10.8460444 52.2653272C11.2389333 52.1663934 11.3097111 52.0545551 11.2216 51.5828272L11.4686 51.5211728C11.5148222 51.7821287 11.5740444 52.0144081 11.6246 52.2079743 11.6924889 52.4717978 11.7964889 52.8259522 11.9134889 53.2819081 12.2543778 54.6038934 12.0998222 55.3179375 11.2866 55.5244081 10.4647111 55.7308787 9.93748889 55.224739 9.61393333 53.9601066 9.58793333 53.8654743 9.56048889 53.7579375 9.54171111 53.6489669L8.41648889 53.9342978C8.00626667 54.0389669 7.9066 54.1966875 8.02648889 54.6655478 8.02937778 54.679886 8.03226667 54.6913566 8.0366 54.704261L7.7766 54.7702169C7.69282222 54.3902537 7.57726667 53.9127904 7.4256 53.323489 7.35193333 53.0352904 7.28982222 52.7915404 7.21904444 52.5951066L7.4776 52.5305846zM9.88693333 53.7435993C10.0573778 54.4074596 10.3867111 54.6110625 11.0294889 54.4490404 11.5596 54.314261 11.7704889 53.9744449 11.6404889 53.4726066 11.5754889 53.2216875 11.5220444 53.1485625 11.3833778 53.1844081L9.85082222 53.5729743C9.85804444 53.6303272 9.87248889 53.6876801 9.88693333 53.7435993L9.88693333 53.7435993zM8.51153333 56.570239C8.65164444 56.8570037 8.87408889 56.9788787 9.21931111 56.9917831L13.2377556 57.1150919 13.3562 57.4161949 10.4499778 60.0974449C10.1827556 60.3454963 10.0888667 60.534761 10.2029778 60.8932169L9.95308889 60.9892831C9.82886667 60.6351287 9.69597778 60.2824081 9.56308889 59.9411581 9.42875556 59.5956066 9.28864444 59.2543566 9.13986667 58.9088051L9.38686667 58.812739C9.55297778 59.1797978 9.64108889 59.3188787 9.83753333 59.2443199 9.91553333 59.2142096 10.0643111 59.1152757 10.2520889 58.9460846L10.5265333 58.7009007 9.99642222 57.350239 9.72053333 57.3387684C9.47353333 57.3315993 9.28575556 57.3688787 9.21642222 57.3932537 8.98675556 57.4835846 8.94486667 57.6800184 9.07775556 58.0184007L8.82786667 58.1130331C8.73975556 57.8549449 8.6502 57.6054596 8.55486667 57.3645772 8.46531111 57.1294301 8.36564444 56.8985846 8.26164444 56.6663051L8.51153333 56.570239zM10.7778667 58.471489L11.9854222 57.3961213 10.3459778 57.3631434 10.7778667 58.471489zM11.1479333 61.8826985C11.3949333 61.7493529 11.6130444 61.6217426 11.7950444 61.5084706L11.9394889 61.7679926C11.3501556 62.2970735 11.1912667 62.8189853 11.4714889 63.3222574 11.7098222 63.7538382 12.0926 63.8843162 12.4681556 63.6764118 12.8523778 63.4685074 12.8408222 63.1129191 12.7902667 62.4849044 12.7108222 61.5672574 12.8220444 61.0281397 13.4561556 60.6825882 14.1061556 60.327 14.7879333 60.5521103 15.1663778 61.2374779 15.3743778 61.6117059 15.4538222 61.9429191 15.3830444 62.3228824L15.6632667 62.2554926 15.8120444 62.5221838C15.4870444 62.6985441 15.1317111 62.9021471 14.7518222 63.130125L14.6102667 62.8749044C15.0898222 62.4662647 15.1952667 61.9300147 14.9323778 61.4597206 14.7417111 61.1156029 14.4066 61.0181029 14.1104889 61.180125 13.7840444 61.3579191 13.8143778 61.6518529 13.8519333 62.1622941 13.9328222 63.2462647 13.9154889 63.8757132 13.2106 64.2599779 12.4811556 64.6600147 11.7011556 64.3918897 11.2432667 63.5731765 11.0121556 63.1516324 10.9356 62.7817059 11.0511556 62.350125L10.7348222 62.4347206 10.5846 62.1680294C10.7738222 62.0805662 10.9601556 61.9859338 11.1479333 61.8826985M16.9342333 64.9295735C16.8822333 64.8478456 16.8316778 64.7804559 16.7825667 64.7130662 16.3636778 64.1424044 16.0227889 64.0291324 15.4002333 64.3431397L15.2471222 64.1338015 16.2943444 63.4412647C16.5832333 63.8814485 16.9111222 64.3388382 17.2679 64.8249044 17.8153444 65.5719265 18.3151222 66.2415221 18.7701222 66.8308235L17.7951222 67.6079559 17.6463444 67.4057868C18.1230111 66.9254559 18.1316778 66.5411912 17.7373444 66.0035074 17.6795667 65.9260809 17.6131222 65.8472206 17.5423444 65.7597574L14.9322333 67.6481029C14.6014556 67.8875515 14.5956778 68.0667794 14.8961222 68.4954926L14.6809 68.6546471C14.4700111 68.3334706 14.2605667 68.0366691 14.0569 67.761375 13.8806778 67.5204926 13.6279 67.1835441 13.3014556 66.7720368L13.5166778 66.61575C13.8445667 67.0186544 13.9919 67.0559338 14.3241222 66.8164853L16.9342333 64.9295735zM15.9806111 70.167761C15.8881667 70.1204449 15.8145 70.0630919 15.7552778 69.9957022 15.5472778 69.753386 15.5833889 69.4838272 15.8303889 69.2759228 16.0586111 69.0809228 16.3850556 69.1124669 16.5872778 69.3490478 16.8299444 69.6300772 16.7663889 70.0071728 16.3893889 70.3240478 15.8838333 70.7513272 15.2945 70.7757022 14.5838333 70.4057757L14.6835 70.2021728C15.2280556 70.4387537 15.6599444 70.4330184 15.9806111 70.167761M18.9810111 72.9751875C19.3507889 73.2433125 19.5096778 73.2347096 19.7581222 72.9436434L21.5709 70.8244522C21.8323444 70.5190478 21.8265667 70.3857022 21.4784556 70.0516213L21.6431222 69.859489C21.8352333 70.045886 22.0186778 70.1993051 22.1717889 70.3312169 22.3812333 70.5061434 22.6730111 70.7341213 23.0355667 71.0380919 24.0813444 71.922761 24.3731222 72.589489 23.8300111 73.2261066 23.2840111 73.8670257 22.5589 73.7566213 21.5535667 72.9120993 21.4784556 72.849011 21.3961222 72.7787537 21.3137889 72.702761L20.5655667 73.580261C20.2911222 73.9000037 20.3012333 74.0878346 20.6753444 74.4004081L20.7042333 74.4262169 20.5309 74.628386C20.2420111 74.3674301 19.8693444 74.0448199 19.4013444 73.6519522 19.1745667 73.4598199 18.9795667 73.296364 18.8091222 73.1773566L18.9810111 72.9751875zM21.6517889 72.5794522C22.1790111 73.0225037 22.5632333 72.9995625 22.9922333 72.4962904 23.3475667 72.0833493 23.3186778 71.6861801 22.9229 71.3506654 22.7250111 71.1843419 22.6369 71.1527978 22.5459 71.2632022L21.5217889 72.4604449C21.5607889 72.5034596 21.6055667 72.540739 21.6517889 72.5794522L21.6517889 72.5794522zM22.9588667 76.2180662C23.4225333 76.5076985 23.5958667 76.46325 23.8630889 76.0431397L25.3017556 73.7791324C25.5299778 73.4192426 25.4895333 73.2772941 25.0186444 72.9761912L25.1573111 72.75825C25.4375333 72.9475147 25.6729778 73.0937647 25.8665333 73.2170735 26.2189778 73.4378824 26.6032 73.6543897 27.0119778 73.9096103 28.0303111 74.5476618 28.3452 75.1426985 27.9364222 75.7879191 27.6273111 76.2739853 27.0856444 76.4101985 26.4298667 76.1334706 26.5396444 76.2969265 26.5483111 76.5765221 26.5757556 76.9837279L26.6378667 78.0619632C26.6523111 78.3774044 26.7476444 78.6039485 26.9209778 78.7430294L26.7909778 78.9437647C26.6725333 78.8548676 26.4385333 78.7000147 26.0976444 78.4878088 25.9532 78.3974779 25.8102 78.3085809 25.6657556 78.2325882L25.5819778 76.4159338C25.5675333 76.0388382 25.5502 75.8223309 25.3407556 75.6918529 25.3248667 75.6818162 25.3046444 75.6760809 25.2829778 75.6617426L24.6849778 76.6023309C24.4423111 76.9851618 24.4899778 77.1758603 24.8814222 77.4210441 24.8929778 77.4282132 24.8987556 77.4310809 24.9088667 77.43825L24.7629778 77.6676618C24.1592 77.2733603 23.7547556 77.0138382 23.5510889 76.8862279 23.3416444 76.7543162 23.0989778 76.6037647 22.8129778 76.4474779L22.9588667 76.2180662zM25.6253111 75.5312647C26.1987556 75.8911544 26.6118667 75.8223309 26.9455333 75.2961176 27.2893111 74.7555662 27.1867556 74.3713015 26.6595333 74.0386544 26.4544222 73.9124779 26.3894222 73.9182132 26.2753111 74.0974412L25.4418667 75.4108235C25.5054222 75.4581397 25.5704222 75.4982868 25.6253111 75.5312647L25.6253111 75.5312647zM27.8240444 79.1446434C28.3252667 79.366886 28.4653778 79.2105993 28.7311556 78.6212978L29.7191556 76.4390184C29.9069333 76.0203419 29.8578222 75.8138713 29.4678222 75.6403787 29.4476 75.6317757 29.4360444 75.6260404 29.4187111 75.6188713L29.5227111 75.3894596C29.9271556 75.597364 30.3258222 75.7894963 30.7259333 75.9672904 31.1477111 76.1536875 31.8381556 76.4562243 32.8016 76.8490919L32.3350444 77.8814449 32.0909333 77.7724743C32.2368222 77.0584301 31.9768222 76.8447904 31.2112667 76.5021066 30.9137111 76.3701949 30.8718222 76.3673272 30.7952667 76.5365184L30.2073778 77.8341287C30.2449333 77.8499007 30.2796 77.8656728 30.3099333 77.8785772 30.7779333 78.0879154 31.0263778 77.9990184 31.3456 77.5459301L31.5940444 77.6577684C31.4568222 77.9000846 31.3340444 78.1581728 31.2156 78.416261 31.0783778 78.717364 30.9700444 78.9955257 30.8732667 79.2493125L30.6363778 79.1432096C30.7736 78.6026581 30.6493778 78.3574743 30.1626 78.1395331 30.1409333 78.1294963 30.1149333 78.1180257 30.0846 78.1051213L29.6079333 79.1604154C29.4187111 79.5790919 29.5487111 79.830011 30.0239333 80.0393493 30.7187111 80.3490551 31.1130444 80.2830993 31.5521556 79.6579522L31.7717111 79.7554522 31.2300444 80.9526949C30.3503778 80.5325846 29.6267111 80.2099743 29.0677111 79.960489 28.9492667 79.9088713 28.8366 79.8572537 28.7167111 79.8042022 28.3801556 79.6536507 28.0464889 79.5059669 27.7128222 79.3926949L27.8240444 79.1446434zM32.7243222 80.7870882C32.8066556 80.5203971 32.8745444 80.2795147 32.9251 80.0701765L33.2125444 80.1576397C33.1591 80.9476765 33.4104333 81.430875 33.9651 81.6000662 34.4388778 81.7434485 34.8057667 81.5713897 34.9314333 81.1641838 35.0599889 80.7498088 34.8028778 80.5017574 34.3247667 80.0845147 33.6271 79.4794412 33.3266556 79.0163162 33.5389889 78.3295147 33.7585444 77.6255074 34.4056556 77.3158015 35.1596556 77.5452132 35.5713222 77.6699559 35.8616556 77.8549191 36.0754333 78.1775294L36.2328778 77.9337794 36.5246556 78.0226765C36.4163222 78.3753971 36.3022111 78.7668309 36.1895444 79.1926765L35.9093222 79.1080809C35.9671 78.4829338 35.6666556 78.0241103 35.1481 77.8663897 34.7696556 77.75025 34.4591 77.9137059 34.3608778 78.2348824 34.2511 78.5876029 34.4778778 78.7783015 34.8621 79.1195515 35.6825444 79.8436324 36.1101 80.3053235 35.8732111 81.0724191 35.6291 81.8638897 34.8808778 82.2094412 33.9766556 81.9341471 33.5173222 81.7950662 33.1995444 81.5828603 32.9814333 81.1899926L32.8124333 81.4710221 32.5192111 81.3806912C32.5928778 81.187125 32.6607667 80.992125 32.7243222 80.7870882M36.8024222 82.3804963C37.3412 82.4736949 37.4394222 82.2901654 37.5549778 81.6535478L37.9753111 79.2992096C38.0562 78.8475551 37.9594222 78.6582904 37.5362 78.5851654 37.5145333 78.580864 37.5015333 78.5794301 37.4842 78.5765625L37.5289778 78.3270772C37.9724222 78.4317463 38.4043111 78.5220772 38.8347556 78.596636 39.2912 78.678364 40.0336444 78.8031066 41.0649778 78.9507904L40.8656444 80.0648713 40.6056444 80.018989C40.5680889 79.2906066 40.2633111 79.1443566 39.4370889 78.9995404 39.1178667 78.9436213 39.0759778 78.9479228 39.0442 79.1314522L38.7928667 80.5337316C38.8304222 80.5394669 38.8708667 80.546636 38.9026444 80.5523713 39.4082 80.6412684 39.6263111 80.4964522 39.8242 79.9802757L40.0928667 80.0261581C40.0192 80.2971507 39.9628667 80.5753125 39.9108667 80.8549081 39.8530889 81.180386 39.8155333 81.4757537 39.7852 81.7467463L39.5295333 81.6979963C39.5309778 81.1416728 39.3489778 80.9337684 38.8232 80.8405699 38.7986444 80.8362684 38.7712 80.8319669 38.7408667 80.8262316L38.5357556 81.9646875C38.4563111 82.4149081 38.6412 82.627114 39.1568667 82.716011 39.9050889 82.8493566 40.2705333 82.691636 40.5449778 81.9775919L40.7818667 82.0191728 40.5507556 83.309614C39.5945333 83.1160478 38.8116444 82.9784007 38.2093111 82.8722978 38.0807556 82.8493566 37.9594222 82.8264154 37.8308667 82.8049081 37.4654222 82.740386 37.1072 82.6772978 36.7547556 82.6486213L36.8024222 82.3804963zM42.0229333 83.224875C42.5183778 83.1804265 42.6223778 82.9739559 42.6368222 82.4577794L42.7119333 79.7363824 42.6368222 79.6388824C42.5039333 79.4668235 42.3609333 79.4051691 42.0893778 79.3822279L42.0966 79.1313088C42.2786 79.1571176 42.4851556 79.1628529 42.7336 79.1685882 42.9430444 79.1743235 43.1958222 79.1814926 43.4774889 79.1700221L45.9922667 82.1867868 46.0457111 80.2554265C46.0616 79.7191765 45.9171556 79.4940662 45.4621556 79.4768603L45.4693778 79.2245074C45.7813778 79.2445809 46.0269333 79.2574853 46.2161556 79.2632206 46.3866 79.2675221 46.6466 79.2675221 47.0192667 79.2660882L47.0120444 79.5184412C46.5079333 79.5370809 46.4039333 79.7535882 46.3894889 80.2970074L46.2970444 83.688 45.9330444 83.6793971 43.0586 80.153625 42.9950444 82.46925C42.9806 82.9983309 43.1553778 83.24925 43.5713778 83.2650221L43.5641556 83.5317132C43.1293778 83.4987353 42.8043778 83.4915662 42.5891556 83.4858309 42.3797111 83.4800956 42.1904889 83.4800956 42.0157111 83.4944338L42.0229333 83.224875zM49.4117 79.3574228C49.3134778 79.3631581 49.2297 79.3746287 49.1444778 79.3846654 48.4424778 79.4749963 48.1781444 79.7173125 48.1564778 80.4098493L47.8979222 80.444261 47.7895889 79.1997022C48.3139222 79.1566875 48.8787 79.0921654 49.4795889 79.0161728 50.4025889 78.8985993 51.2345889 78.7853272 51.9727 78.6706213L52.1922556 79.8936728 51.9409222 79.9252169C51.7430333 79.2785625 51.4122556 79.0892978 50.7463667 79.1738934 50.6481444 79.1867978 50.5470333 79.2054375 50.4387 79.225511L50.8503667 82.4042978C50.9038111 82.808636 51.0598111 82.9004007 51.5841444 82.8459154L51.6173667 83.1068713C51.2345889 83.1384154 50.8720333 83.1785625 50.5282556 83.2215772 50.2321444 83.2602904 49.8132556 83.320511 49.2932556 83.4051066L49.2600333 83.1441507C49.7728111 83.0495184 49.8753667 82.9405478 49.8248111 82.5376434L49.4117 79.3574228zM57.5000111 81.7854596C56.9207889 81.9962316 56.4065667 81.789761 56.2187889 81.2807537 56.0367889 80.790386 56.2361222 80.2570037 56.7922333 79.6017463 56.3964556 79.3164154 56.1321222 79.0124449 56.0165667 78.6984375 55.7912333 78.0904963 56.0974556 77.4710846 56.7026778 77.2502757 57.2645667 77.0466728 57.7701222 77.2703493 57.9376778 77.7234375 58.0879 78.1306434 57.9723444 78.5521875 57.5910111 79.0009743 57.9160111 79.206011 58.2930111 79.4210846 58.7176778 79.6519301 58.9314556 78.7256801 59.0412333 78.1980331 59.5756778 78.0044669 59.9396778 77.8725551 60.2487889 78.0145037 60.3657889 78.3299449 60.4697889 78.6095404 60.3426778 78.8676287 60.0610111 78.9694301 59.8775667 79.0368199 59.7100111 79.0138787 59.5987889 78.9034743 59.5034556 78.8074081 59.5063444 78.6281801 59.3647889 78.678364 59.2174556 78.7314154 59.1799 79.1185478 59.0137889 79.7981801 59.5829 80.0806434 59.9411222 80.2240257 60.2589 80.1093199 60.4799 80.0304596 60.6214556 79.8670037 60.6922333 79.6089154L60.9739 79.6978125C60.7991222 80.3329963 60.5087889 80.692886 59.9960111 80.8807169 59.6103444 81.0197978 59.1770111 80.9552757 58.6743444 80.6986213 58.3710111 81.2492096 57.9954556 81.6047978 57.5000111 81.7854596M57.4032333 77.9614522C57.2674556 77.5958272 57.0146778 77.4409743 56.7647889 77.5298713 56.5380111 77.6130331 56.4397889 77.849614 56.5250111 78.0861949 56.6304556 78.3715257 56.9020111 78.5837316 57.3295667 78.8389522 57.4754556 78.5392831 57.4927889 78.2095037 57.4032333 77.9614522M57.0377889 79.7924449C56.8500111 80.0390625 56.8066778 80.3315625 56.9077889 80.6125919 57.0493444 80.9925551 57.4971222 81.2162316 57.8466778 81.0900551 58.0965667 80.9968566 58.2800111 80.814761 58.3666778 80.5767463 58.0315667 80.4434007 57.5852333 80.1881801 57.0377889 79.7924449M64.6219889 78.3226324C65.0943222 77.9985882 65.0654333 77.8250956 64.7722111 77.3677059L63.4202111 75.2800588C63.1529889 74.8656838 62.9724333 74.8126324 62.5289889 75.0864926L62.3859889 74.8628162C62.8597667 74.5918235 63.3898778 74.2620441 63.9864333 73.8806471 64.5021 73.5537353 64.9859889 73.2368603 65.4308778 72.9314559L66.0794333 73.8634412 65.8555444 74.0053897C65.3991 73.5064191 64.9917667 73.5938824 64.2363222 74.0756471 64.0066556 74.2233309 63.9662111 74.2935882 64.0731 74.4584779L64.8429889 75.6485515C64.8762111 75.6270441 64.9022111 75.6098382 64.9354333 75.5883309 65.3514333 75.3230735 65.4294333 75.0119338 65.2127667 74.5445074L65.4482111 74.3939559C65.6258778 74.6807206 65.7847667 74.9416765 65.9335444 75.1696544 66.1227667 75.4621544 66.2859889 75.7030368 66.4116556 75.8851324L66.1762111 76.0356838C65.8107667 75.6141397 65.5319889 75.5539191 65.1058778 75.8263456 65.0726556 75.8478529 65.0423222 75.8736618 65.0047667 75.8994706L65.6201 76.8515294C65.9075444 77.2960147 66.0158778 77.4035515 66.5792111 77.0766397L66.7236556 77.2988824C66.5199889 77.4049853 66.2816556 77.5498015 66.0072111 77.7247279 65.3225444 78.1634779 64.9094333 78.4316029 64.7664333 78.5463088L64.6219889 78.3226324zM67.1230444 72.9737537C66.7547111 72.5450404 66.5958222 72.4661801 66.1624889 72.7916581L65.9978222 72.5980919C66.3026 72.3557757 66.5900444 72.1220625 66.8428222 71.9098566 67.1158222 71.679011 67.4090444 71.4223566 67.7196 71.1341581L67.8886 71.3305919C67.5029333 71.6990846 67.5202667 71.8697096 67.8727111 72.2797831L68.9719333 73.5587537C69.5973778 74.2885699 70.0726 74.4233493 70.7168222 73.8770625 71.0938222 73.5573199 71.2758222 73.190261 71.2454889 72.8690846 71.2122667 72.5378713 71.0057111 72.248239 70.6836 71.8725772L69.7114889 70.7398566C69.3778222 70.3527243 69.1597111 70.298239 68.7682667 70.5692316L68.6108222 70.387136C68.8029333 70.2423199 69.0008222 70.0831654 69.2073778 69.9053713 69.4529333 69.7017684 69.6522667 69.5254081 69.7923778 69.3891949L69.9570444 69.5813272C69.6436 69.9125404 69.6537111 70.1362169 69.9787111 70.5147463L70.9493778 71.6460331C71.3191556 72.0761801 71.5632667 72.4303346 71.6066 72.8504449 71.6600444 73.3594522 71.3957111 73.8899669 70.8294889 74.368864 70.3094889 74.807614 69.8313778 75.0097831 69.3200444 74.9653346 68.9213778 74.9266213 68.5689333 74.6584963 68.1543778 74.1752978L67.1230444 72.9737537zM71.6144 67.8882684C71.5450667 67.9585257 71.4901778 68.021614 71.4352889 68.0847022 70.9716222 68.6195184 70.9398444 68.9751066 71.3919556 69.5056213L71.2200667 69.7020551 70.3014 68.8489301C70.6639556 68.4675331 71.0395111 68.045989 71.4338444 67.5885993 72.0419556 66.8874596 72.5850667 66.2508419 73.0588444 65.673011L74.0454 66.4401066 73.8792889 66.6308051C73.2986222 66.2795184 72.9201778 66.3583787 72.4839556 66.8630846 72.4204 66.9376434 72.3568444 67.0208051 72.2904 67.1082684L74.7416222 69.1987831C75.0536222 69.4654743 75.2312889 69.4281949 75.5851778 69.0396287L75.7874 69.2131213C75.5216222 69.4898493 75.2789556 69.7594081 75.0536222 70.020364 74.8586222 70.2454743 74.5870667 70.5695184 74.2577333 70.9795919L74.0540667 70.8060993C74.3747333 70.3960257 74.3776222 70.2454743 74.0641778 69.9802169L71.6144 67.8882684zM74.7134556 65.0976176C74.2324556 64.80225 74.0547889 64.7750074 73.7442333 65.216625L73.5290111 65.0818456C73.7442333 64.7606691 73.9464556 64.4495294 74.1197889 64.1699338 74.3104556 63.8673971 74.5097889 63.53475 74.7163444 63.1648235L74.9373444 63.3024706C74.6831222 63.7713309 74.7539 63.9290515 75.2146778 64.2115147L76.6547889 65.0961838C77.4737889 65.6008897 77.9663444 65.5836838 78.4141222 64.8696397 78.6726778 64.4523971 78.7333444 64.0480588 78.6062333 63.7483897 78.4747889 63.4458529 78.1859 63.2307794 77.7641222 62.9726912L76.4901222 62.1883897C76.0553444 61.9202647 75.8300111 61.9346029 75.5411222 62.3116985L75.3374556 62.1855221C75.4732333 61.9905221 75.6133444 61.7783162 75.7577889 61.5460368 75.9253444 61.2793456 76.0611222 61.0499338 76.1521222 60.877875L76.3687889 61.0097868C76.1737889 61.4227279 76.2503444 61.6306324 76.6764556 61.8930221L77.9490111 62.6758897C78.4314556 62.9712574 78.7752333 63.2350809 78.9471222 63.6222132 79.1507889 64.0910735 79.0641222 64.6760735 78.6712333 65.3026544 78.3101222 65.8804853 77.9186778 66.2145662 77.4174556 66.3264044 77.0289 66.4138676 76.6085667 66.2618824 76.0669 65.9292353L74.7134556 65.0976176zM80.2456778 61.8378199C80.4565667 61.3374154 80.3857889 61.1739596 79.9221222 60.9803934L77.4391222 59.9423051C77.0433444 59.7774154 76.9090111 59.8405037 76.6865667 60.349511L76.4467889 60.2505772C76.5897889 59.943739 76.6995667 59.6885184 76.7862333 59.4791801 76.9494556 59.0977831 77.1040111 58.6862757 77.2903444 58.2460919 77.7569 57.1449154 78.2956778 56.7377096 79.0063444 57.034511 79.5407889 57.2596213 79.7617889 57.7643272 79.5971222 58.4539963 79.7386778 58.3163493 80.0160111 58.2632978 80.4161222 58.1715331L81.4777889 57.9349522C81.7869 57.8689963 81.9992333 57.7399522 82.1090111 57.546386L82.3300111 57.6395846C82.2606778 57.7714963 82.1436778 58.0238493 81.9891222 58.3952096 81.9226778 58.5486287 81.8576778 58.7034816 81.8071222 58.8569007L80.0131222 59.2382978C79.6419 59.3128566 79.4295667 59.3644743 79.3342333 59.5910184 79.3241222 59.6082243 79.3226778 59.6282978 79.3125667 59.6541066L80.3453444 60.0842537C80.7642333 60.2591801 80.9462333 60.1817537 81.1253444 59.7587757 81.1311222 59.7473051 81.1325667 59.740136 81.1397889 59.7286654L81.3925667 59.8347684C81.0993444 60.4914596 80.9057889 60.9287757 80.8133444 61.1510184 80.7165667 61.3746949 80.6053444 61.6370846 80.4970111 61.942489L80.2456778 61.8378199zM79.1305667 59.3386654C79.3934556 58.7178199 79.2547889 58.3235184 78.6799 58.082636 78.0862333 57.8345846 77.7207889 57.9980404 77.4781222 58.570136 77.3842333 58.789511 77.3986778 58.8525993 77.5980111 58.9371949L79.0381222 59.5379669C79.0727889 59.4677096 79.1045667 59.3974522 79.1305667 59.3386654L79.1305667 59.3386654zM82.3672778 56.5884485C82.5073889 56.0651029 82.3297222 55.9503971 81.6999444 55.7840735L79.3686111 55.1732647C78.9208333 55.0542574 78.7243889 55.1345515 78.6146111 55.5489265 78.6088333 55.5675662 78.6059444 55.5804706 78.6001667 55.5991103L78.3546111 55.5345882C78.4976111 55.1044412 78.6232778 54.6814632 78.7345 54.2627868 78.8529444 53.8183015 79.0407222 53.0913529 79.2761667 52.0819412L80.3782778 52.3730074 80.3103889 52.6282279C79.5751667 52.6038529 79.4032778 52.8934853 79.1895 53.6992941 79.1042778 54.0104338 79.1071667 54.0520147 79.2906111 54.1007647L80.6758333 54.4649559C80.6859444 54.4262426 80.6960556 54.3903971 80.7047222 54.3574191 80.8361667 53.8656176 80.7076111 53.6362059 80.2063889 53.3967574L80.2757222 53.1358015C80.5400556 53.2304338 80.8159444 53.3107279 81.0932778 53.3838529 81.4139444 53.4670147 81.7071667 53.5301029 81.9758333 53.5817206L81.9108333 53.8326397C81.3489444 53.7867574 81.1250556 53.9459118 80.9878333 54.4606544 80.9806111 54.4850294 80.9748333 54.5108382 80.9661667 54.5409485L82.0928333 54.8363162C82.5406111 54.9553235 82.7673889 54.7861324 82.9017222 54.2871618 83.0967222 53.5559118 82.9667222 53.1788162 82.2733889 52.8504706L82.3355 52.6181912 83.6138333 52.9565735C83.3379444 53.8856912 83.1342778 54.6484853 82.9782778 55.2377868 82.9436111 55.3625294 82.9132778 55.4815368 82.8786111 55.6048456 82.7832778 55.9618676 82.6908333 56.3131544 82.6330556 56.6587059L82.3672778 56.5884485z"/>
    <path fill="#FFF" d="M45.4507444,14.3173235 C28.4481889,14.3173235 14.6609667,28.0060368 14.6609667,44.8821397 C14.6609667,61.7711471 28.4481889,75.4584265 45.4507444,75.4584265 C62.4663,75.4584265 76.2491889,61.7711471 76.2491889,44.8821397 C76.2491889,28.0060368 62.4663,14.3173235 45.4507444,14.3173235 M45.4507444,74.3185368 C29.0837444,74.3185368 15.8121889,61.1402647 15.8121889,44.8821397 C15.8121889,28.6397868 29.0837444,15.46725 45.4507444,15.46725 C61.8249667,15.46725 75.0921889,28.6397868 75.0921889,44.8821397 C75.0921889,61.1402647 61.8249667,74.3185368 45.4507444,74.3185368"/>
    <path fill="#FFF" d="M66.8536556,47.0082132 C67.0082111,46.6784338 67.1353222,46.2826985 67.2609889,45.8210074 C67.3736556,45.3679191 67.4343222,44.7915221 67.4343222,44.1118897 C67.4343222,43.1741691 67.2739889,42.3124412 66.9692111,41.5209706 C66.6427667,40.7266324 66.2137667,40.0498676 65.6619889,39.4820735 C65.1145444,38.9171471 64.4616556,38.4740956 63.7033222,38.1629559 C62.9449889,37.8518162 62.1216556,37.6983971 61.2376556,37.6983971 C59.8798778,37.6983971 58.8037667,38.1013015 57.9934333,38.9085441 C57.6409889,39.2684338 57.3174333,39.7172206 57.0184333,40.2276618 C56.9173222,39.7774412 56.7844333,39.3587647 56.5894333,38.9788015 C56.3352111,38.4396838 56.1113222,37.9966324 55.9307667,37.6525147 L54.1974333,34.3590221 C53.9475444,33.8887279 53.7236556,33.4083971 53.5069889,32.9122941 C53.2989889,32.4161912 53.1603222,31.9157868 53.0881,31.4225515 C53.0187667,30.9178456 53.0476556,30.4303456 53.1863222,29.9385441 C53.3192111,29.4481765 53.6052111,28.9793162 54.0501,28.5405662 C54.6076556,27.9942794 55.1782111,27.6458603 55.7776556,27.51825 C56.3626556,27.3834706 56.9462111,27.3777353 57.5124333,27.5024779 C58.0815444,27.6286544 58.6159889,27.8465956 59.1056556,28.1563015 C59.6025444,28.4703088 60.0214333,28.7914853 60.3507667,29.1212647 C60.9516556,29.712 61.3691,30.3342794 61.6002111,31.003875 C61.8356556,31.6691691 61.9411,32.3344632 61.9064333,33.002625 C61.8674333,33.6765221 61.7186556,34.3418162 61.4572111,35.0042426 C61.1928778,35.6681029 60.8534333,36.2903824 60.4331,36.8639118 L60.6815444,37.1119632 L64.4616556,33.3668162 L64.1727667,33.0714485 C63.8622111,33.1574779 63.6513222,33.1918897 63.5357667,33.1789853 C63.4303222,33.1646471 63.2844333,33.0657132 63.1024333,32.8893529 C62.9117667,32.6929191 62.7601,32.466375 62.6546556,32.1939485 C62.5506556,31.9272574 62.4307667,31.6204191 62.3022111,31.2820368 C62.1664333,30.9450882 61.9801,30.5780294 61.7359889,30.1679559 C61.4918778,29.7564485 61.1278778,29.3148309 60.6396556,28.8301985 C59.9752111,28.1677721 59.2472111,27.6716691 58.4614333,27.3275515 C57.6799889,26.9891691 56.8913222,26.8185441 56.0925444,26.8013382 C55.3009889,26.7884338 54.5282111,26.9404191 53.7698778,27.2472574 C53.0115444,27.5555294 52.3211,28.0243897 51.6999889,28.6423676 C50.7394333,29.5972941 50.2685444,30.6439853 50.2699889,31.7810074 C50.2699889,32.2828456 50.3581,32.8248309 50.5126556,33.3897574 C50.1226556,33.148875 49.7297667,32.9452721 49.3195444,32.8047574 C48.7504333,32.6054559 48.2766556,32.4563382 47.9039889,32.3344632 L44.3405444,31.2289853 C43.8248778,31.0726985 43.3164333,30.8891691 42.8166556,30.6841324 C42.3139889,30.4805294 41.8618778,30.2267426 41.4559889,29.9256397 C41.0573222,29.6245368 40.7265444,29.2474412 40.4665444,28.8058235 C40.2152111,28.3685074 40.0866556,27.8394265 40.0866556,27.2114118 C40.0866556,26.4314118 40.2527667,25.7861912 40.5748778,25.2829191 C40.8926556,24.7724779 41.3115444,24.3609706 41.8026556,24.0512647 C42.2879889,23.7372574 42.8166556,23.5150147 43.3929889,23.3945735 C43.9577667,23.2655294 44.4835444,23.2024412 44.9558778,23.2024412 C45.7994333,23.2024412 46.5418778,23.3486912 47.1846556,23.6583971 C47.8158778,23.9595 48.3676556,24.3581029 48.8197667,24.8542059 C49.2747667,25.3546103 49.6445444,25.9324412 49.9247667,26.5876985 C50.2107667,27.2386544 50.4158778,27.9240221 50.5357667,28.6194265 L50.8824333,28.6194265 L50.8824333,23.3200147 L50.4707667,23.3200147 C50.3162111,23.5895735 50.1919889,23.7645 50.1053222,23.8390588 C50.0186556,23.8978456 49.8424333,23.9336912 49.5882111,23.9336912 C49.3094333,23.9336912 49.0422111,23.8777721 48.7778778,23.7573309 C48.5106556,23.6368897 48.2087667,23.5150147 47.8736556,23.3630294 C47.5414333,23.2153456 47.1427667,23.0877353 46.6834333,22.9672941 C46.2139889,22.8497206 45.6448778,22.7923676 44.9558778,22.7923676 C44.0141,22.7923676 43.1416556,22.9457868 42.3443222,23.2583603 C41.5527667,23.5752353 40.8623222,24.0010809 40.3004333,24.5473676 C39.7284333,25.0979559 39.2835444,25.7517794 38.9614333,26.4973676 C38.6537667,27.2472574 38.4963222,28.0659706 38.4963222,28.9434706 C38.4963222,30.2883971 38.9022111,31.3623309 39.7168778,32.1667059 C40.0765444,32.5165588 40.5286556,32.8305662 41.0385444,33.1259338 C40.5936556,33.2320368 40.1689889,33.3668162 39.7818778,33.5474779 C39.2416556,33.8127353 38.7996556,34.0321103 38.4501,34.2142059 L35.1351,35.927625 C34.6584333,36.1828456 34.1716556,36.4093897 33.6689889,36.6201618 C33.1706556,36.8223309 32.6694333,36.9671471 32.1696556,37.0316691 C31.6684333,37.0990588 31.1657667,37.0689485 30.6761,36.9413382 C30.1821,36.805125 29.7097667,36.5212279 29.2692111,36.0781765 C28.7174333,35.5247206 28.3722111,34.9583603 28.2393222,34.3704926 C28.1093222,33.7811912 28.0992111,33.2076618 28.2277667,32.6398676 C28.3505444,32.0778088 28.5686556,31.5472941 28.8864333,31.0583603 C29.1984333,30.5665588 29.5191,30.1536176 29.8542111,29.8267059 C30.4522111,29.2345368 31.0848778,28.8187279 31.7507667,28.5850147 C32.4209889,28.347 33.0897667,28.2437647 33.7686556,28.2824779 C34.4417667,28.3140221 35.1076556,28.4645735 35.7735444,28.7255294 C36.4452111,28.9864853 37.0648778,29.3277353 37.6527667,29.7435441 L37.9055444,29.4911912 L34.1283222,25.7517794 L33.8351,26.0371103 C33.9203222,26.3410809 33.9593222,26.54325 33.9391,26.6550882 C33.9217667,26.7683603 33.8307667,26.9131765 33.6487667,27.0895368 C33.4595444,27.2831029 33.2212111,27.4365221 32.9453222,27.5368897 C32.6766556,27.6372574 32.3733222,27.7533971 32.0353222,27.8896103 C31.6843222,28.0200882 31.3145444,28.2093529 30.9072111,28.4473676 C30.4998778,28.6868162 30.0477667,29.0553088 29.5667667,29.5370735 C28.8922111,30.1951985 28.3895444,30.9178456 28.0501,31.6978456 C27.7048778,32.4749779 27.5286556,33.2650147 27.5156556,34.0493162 C27.5069889,34.8379191 27.6514333,35.6064485 27.9663222,36.3549044 C28.2754333,37.1119632 28.7506556,37.7944632 29.3732111,38.4167426 C30.3352111,39.3702353 31.3838778,39.8433971 32.5365444,39.8333603 C33.0449889,39.8304926 33.5823222,39.7473309 34.1557667,39.5867426 C33.9145444,39.9824779 33.7079889,40.3696103 33.5649889,40.7667794 C33.3671,41.3360074 33.2154333,41.8063015 33.0984333,42.1805294 L31.9703222,45.726375 C31.8186556,46.2310809 31.6409889,46.7343529 31.4315444,47.2232868 C31.2177667,47.7265588 30.9649889,48.1753456 30.6573222,48.5768162 C30.3539889,48.9825882 29.9842111,49.3023309 29.5422111,49.5589853 C29.0973222,49.8099044 28.5585444,49.9346471 27.9374333,49.9346471 C27.1487667,49.9346471 26.5002111,49.7783603 25.9874333,49.4586176 C25.4746556,49.1302721 25.0615444,48.7302353 24.7481,48.2413015 C24.4346556,47.7509338 24.2122111,47.2204191 24.0865444,46.6569265 C23.9551,46.092 23.8901,45.5758235 23.8901,45.1098309 C23.8901,44.2667426 24.0432111,43.532625 24.3508778,42.8917059 C24.6527667,42.2579559 25.0586556,41.7217059 25.5569889,41.2700515 C26.0596556,40.8198309 26.6388778,40.4556397 27.3033222,40.1717426 C27.9591,39.8921471 28.6423222,39.6885441 29.3515444,39.5767059 L29.3515444,39.2196838 L24.0099889,39.2196838 L24.0099889,39.6297574 C24.2829889,39.7889118 24.4563222,39.9064853 24.5242111,39.9953824 C24.5978778,40.0814118 24.6311,40.2549044 24.6311,40.5072574 C24.6311,40.7811176 24.5704333,41.0521103 24.4563222,41.3145 C24.3335444,41.5754559 24.2021,41.8765588 24.0489889,42.2049044 C23.9088778,42.53325 23.7745444,42.9361544 23.6546556,43.3906765 C23.5376556,43.8523676 23.4755444,44.4215956 23.4755444,45.1098309 C23.4755444,46.0461176 23.6358778,46.9064118 23.9493222,47.6964485 C24.2613222,48.4893529 24.6961,49.1689853 25.2464333,49.7353456 C25.8039889,50.2988382 26.4568778,50.7390221 27.2137667,51.0501618 C27.9663222,51.3613015 28.7882111,51.5190221 29.6779889,51.5190221 C31.0285444,51.5190221 32.1147667,51.11325 32.9236556,50.3031397 C33.2775444,49.9446838 33.5967667,49.4973309 33.8928778,48.992625 C33.9954333,49.4328088 34.1341,49.8543529 34.3175444,50.2386176 C34.5775444,50.7777353 34.8043222,51.2222206 34.9863222,51.5663382 L36.7196556,54.8641324 C36.9623222,55.330125 37.2021,55.8104559 37.4028778,56.3137279 C37.6108778,56.8098309 37.7495444,57.3016324 37.8188778,57.8020368 C37.8896556,58.2967059 37.8651,58.791375 37.7307667,59.2745735 C37.5978778,59.7678088 37.3104333,60.2381029 36.8626556,60.6754191 C36.3094333,61.2274412 35.7302111,61.570125 35.1408778,61.7020368 C34.5544333,61.8339485 33.9737667,61.83825 33.4032111,61.7120735 C32.8297667,61.5901985 32.2924333,61.375125 31.8013222,61.0611176 C31.3116556,60.7514118 30.8956556,60.4259338 30.5677667,60.0990221 C29.9654333,59.5039853 29.5451,58.8759706 29.3125444,58.2135441 C29.0713222,57.5525515 28.9716556,56.8829559 29.0092111,56.2190956 C29.0424333,55.5451985 29.1912111,54.8770368 29.4555444,54.2146103 C29.7256556,53.5564853 30.0607667,52.9356397 30.4738778,52.3549412 L30.2283222,52.1054559 L26.4568778,55.8491691 L26.7428778,56.1416691 C27.0534333,56.0570735 27.2599889,56.0269632 27.3683222,56.037 C27.4853222,56.0542059 27.6254333,56.1517059 27.8132111,56.3295 C28.0038778,56.5173309 28.1512111,56.7539118 28.2581,57.0206029 C28.3649889,57.2872941 28.4848778,57.5984338 28.6163222,57.9296471 C28.7434333,58.2737647 28.9312111,58.6465588 29.1753222,59.0523309 C29.4194333,59.4566691 29.7805444,59.9011544 30.2716556,60.3814853 C30.9361,61.0510809 31.6684333,61.5500515 32.4498778,61.8898676 C33.2342111,62.2268162 34.0228778,62.4031765 34.8173222,62.4189485 C35.6088778,62.4275515 36.3816556,62.2870368 37.1399889,61.9715956 C37.9026556,61.6618897 38.5945444,61.1958971 39.2243222,60.5779191 C40.1819889,59.6229926 40.6528778,58.572 40.6442111,57.4407132 C40.6442111,56.9360074 40.5546556,56.3954559 40.4015444,55.8305294 C40.7944333,56.0699779 41.1873222,56.2750147 41.5961,56.4097941 C42.1637667,56.6047941 42.6346556,56.7639485 43.0015444,56.8800882 L46.5736556,57.9927353 C47.0849889,58.1518897 47.5977667,58.3311176 48.1018778,58.5304191 C48.5944333,58.7397574 49.0523222,58.9949779 49.4538778,59.2989485 C49.8539889,59.6000515 50.1891,59.9699779 50.4433222,60.4044265 C50.7018778,60.8446103 50.8261,61.3808603 50.8261,62.0045735 C50.8261,62.7874412 50.6614333,63.4283603 50.3378778,63.9345 C50.0186556,64.4435074 49.6098778,64.8521471 49.1158778,65.1647206 C48.6247667,65.4758603 48.0932111,65.6995368 47.5212111,65.8271471 C46.9549889,65.9490221 46.4321,66.0092426 45.9568778,66.0092426 C45.1118778,66.0092426 44.3708778,65.8658603 43.7266556,65.5647574 C43.0911,65.2550515 42.5508778,64.8593162 42.0944333,64.3589118 C41.6365444,63.861375 41.2711,63.2878456 40.9879889,62.6311544 C40.7034333,61.9744632 40.5012111,61.3048676 40.3871,60.5936912 L40.0245444,60.5936912 L40.0245444,65.8974044 L40.4434333,65.8974044 C40.5979889,65.6221103 40.7193222,65.4543529 40.8103222,65.3840956 C40.8926556,65.3195735 41.0717667,65.2851618 41.3231,65.2851618 C41.5989889,65.2851618 41.8777667,65.3339118 42.1363222,65.4586544 C42.4035444,65.5790956 42.7011,65.7095735 43.0419889,65.8558235 C43.3727667,65.9992059 43.7685444,66.1339853 44.2351,66.2529926 C44.6915444,66.3662647 45.2693222,66.42075 45.9568778,66.42075 C46.8986556,66.42075 47.7711,66.2673309 48.5698778,65.9561912 C49.3657667,65.6479191 50.0432111,65.2120368 50.6195444,64.6643162 C51.1886556,64.1251985 51.6292111,63.4728088 51.9469889,62.7200515 C52.2575444,61.9658603 52.4178778,61.1514485 52.4178778,60.2768162 C52.4178778,58.9318897 52.0119889,57.8550882 51.2002111,57.0564485 C50.8362111,56.7008603 50.3855444,56.3839853 49.8727667,56.0886176 C50.3219889,55.9839485 50.7452111,55.8491691 51.1251,55.6642059 C51.6754333,55.4089853 52.1159889,55.1795735 52.4713222,55.0046471 L55.7834333,53.2840588 C56.2528778,53.0374412 56.7468778,52.8108971 57.2437667,52.6072941 C57.7377667,52.3950882 58.2418778,52.2574412 58.7459889,52.1871838 C59.2414333,52.1197941 59.7455444,52.1484706 60.2352111,52.28325 C60.7321,52.4065588 61.1986556,52.697625 61.6449889,53.1421103 C62.2011,53.6898309 62.5419889,54.2647941 62.6719889,54.8454926 C62.8121,55.4347941 62.8121,56.0111912 62.6806556,56.5804191 C62.5593222,57.1410441 62.3469889,57.6729926 62.0292111,58.1604926 C61.7157667,58.6537279 61.3907667,59.0580662 61.0556556,59.3907132 C60.4591,59.9843162 59.8293222,60.400125 59.1605444,60.6367059 C58.4989889,60.8718529 57.8229889,60.9679191 57.1412111,60.936375 C56.4753222,60.8990956 55.7978778,60.7571471 55.1319889,60.4918897 C54.4661,60.2251985 53.8377667,59.8939853 53.2585444,59.4753088 L53.0115444,59.7233603 L56.7844333,63.4728088 L57.0747667,63.1860441 C56.9953222,62.8806397 56.9563222,62.6713015 56.9751,62.5594632 C56.9823222,62.4504926 57.0747667,62.3085441 57.2582111,62.1278824 C57.4618778,61.93575 57.6915444,61.7851985 57.9616556,61.6805294 C58.2375444,61.5729926 58.5408778,61.4611544 58.8803222,61.326375 C59.2212111,61.2001985 59.5982111,61.0138015 60.0055444,60.7714853 C60.4186556,60.5320368 60.8664333,60.1635441 61.3546556,59.6803456 C62.0191,59.0236544 62.5246556,58.3010074 62.8641,57.5138382 C63.2035444,56.7381397 63.3812111,55.9552721 63.3971,55.1666691 C63.4129889,54.3823676 63.2584333,53.6152721 62.9493222,52.8596471 C62.6329889,52.1068897 62.1635444,51.4200882 61.5395444,50.8021103 C60.5862111,49.8500515 59.5303222,49.3711544 58.3819889,49.3840588 C57.8721,49.3840588 57.3275444,49.4758235 56.7598778,49.626375 C56.9967667,49.2421103 57.2047667,48.8420735 57.3492111,48.4477721 C57.5413222,47.8785441 57.7016556,47.4096838 57.8201,47.0397574 L58.9366556,43.4953456 C59.0955444,42.9849044 59.2789889,42.4816324 59.4812111,41.9869632 C59.6877667,41.4879926 59.9448778,41.0406397 60.2511,40.6391691 C60.5558778,40.2376985 60.9285444,39.9193897 61.3777667,39.6598676 C61.8096556,39.4046471 62.3513222,39.2799044 62.9782111,39.2799044 C63.7639889,39.2799044 64.4168778,39.4419265 64.9267667,39.7631029 C65.4395444,40.0814118 65.8569889,40.4843162 66.1646556,40.9789853 C66.4809889,41.4679191 66.7048778,41.9941324 66.8233222,42.5590588 C66.9619889,43.1225515 67.0212111,43.6415956 67.0212111,44.1118897 C67.0212111,44.9506765 66.8652111,45.6847941 66.5647667,46.3257132 C66.2628778,46.9594632 65.8569889,47.4971471 65.3572111,47.9473676 C64.8473222,48.3947206 64.2724333,48.7603456 63.6123222,49.0456765 C62.9565444,49.3324412 62.2733222,49.528875 61.5641,49.6421471 L61.5641,49.9977353 L66.9013222,49.9977353 L66.9013222,49.5833603 C66.6312111,49.4299412 66.4564333,49.3051985 66.3899889,49.2277721 C66.3206556,49.1302721 66.2859889,48.9596471 66.2859889,48.7029926 C66.2859889,48.432 66.3423222,48.1681765 66.4622111,47.9000515 C66.5777667,47.6390956 66.7077667,47.3408603 66.8536556,47.0082132 L66.8536556,47.0082132 Z M52.4323222,40.315125 C52.6865444,39.7100515 52.8439889,39.0777353 52.9176556,38.413875 L53.1126556,38.7924044 C53.3235444,39.1651985 53.5069889,39.5867426 53.6861,40.0670735 C53.8579889,40.5373676 53.9634333,41.0320368 53.9937667,41.5568162 C54.0183222,41.8722574 53.9851,42.1848309 53.9345444,42.5074412 L52.2026556,40.7882868 C52.2893222,40.6377353 52.3673222,40.4843162 52.4323222,40.315125 L52.4323222,40.315125 Z M50.6831,39.4591324 C50.6831,39.9193897 50.6007667,40.437 50.4433222,40.9933235 C50.4245444,41.0764853 50.3869889,41.1467426 50.3624333,41.2256029 C50.1501,41.3933603 49.9045444,41.5568162 49.5882111,41.7116691 C49.1577667,41.9152721 48.7648778,42.1160074 48.3979889,42.3124412 C48.0932111,42.4787647 47.8274333,42.6364853 47.5977667,42.7956397 C47.3637667,42.9547941 47.1355444,43.1153824 46.9203222,43.288875 C46.6964333,43.4494632 46.4696556,43.6358603 46.2399889,43.8523676 C46.1273222,43.9570368 46.0146556,44.0631397 45.8904333,44.1835809 L45.8774333,44.1835809 L45.8774333,44.1563382 C46.4783222,43.4781397 46.9463222,42.7640956 47.2583222,42.0070368 C47.6309889,41.1309706 47.8158778,40.2549044 47.8433222,39.388875 C48.2939889,39.0046103 48.8703222,38.6475882 49.5593222,38.3321471 C49.8236556,38.2045368 50.1125444,38.0898309 50.4245444,37.9865956 C50.5906556,38.4110074 50.6831,38.8985074 50.6831,39.4591324 L50.6831,39.4591324 Z M49.5333222,42.6450882 C49.1462111,43.0738015 48.6421,43.4451618 48.0238778,43.7333603 C47.6122111,43.9254926 47.1225444,44.0459338 46.5722111,44.1262279 C46.5895444,44.1104559 46.5996556,44.0961176 46.6155444,44.0817794 C46.9246556,43.7978824 47.2872111,43.5340588 47.7017667,43.2946103 C48.1091,43.0537279 48.5698778,42.8615956 49.0682111,42.7196471 C49.2097667,42.6838015 49.3701,42.6637279 49.5333222,42.6450882 L49.5333222,42.6450882 Z M45.8991,43.4781397 L45.8991,43.4193529 C45.9164333,43.0006765 45.9886556,42.5619265 46.1071,42.1045368 C46.2269889,41.6485809 46.4089889,41.192625 46.6661,40.7424044 C46.7455444,40.6061912 46.8365444,40.4771471 46.9304333,40.3423676 C46.9723222,40.9288015 46.8798778,41.5396103 46.6473222,42.1848309 C46.4898778,42.606375 46.2399889,43.0393897 45.8991,43.4781397 L45.8991,43.4781397 Z M46.7267667,35.1218162 C47.1355444,35.2393897 47.5761,35.4014118 48.0383222,35.6207868 C48.4991,35.8329926 48.9324333,36.1125882 49.3195444,36.4538382 C49.5622111,36.6617426 49.7687667,36.9097941 49.9608778,37.1721838 L47.5067667,37.1721838 C47.4591,37.0115956 47.4013222,36.8395368 47.3305444,36.6789485 C47.0763222,36.0695735 46.7412111,35.5118162 46.3179889,35.001375 L46.7267667,35.1218162 Z M43.8812111,37.2897574 C43.9808778,37.0144632 44.1094333,36.7291324 44.2524333,36.4395 C44.6727667,36.6244632 45.0844333,36.8997574 45.4787667,37.2969265 C45.8138778,37.633875 46.1229889,38.0525515 46.4032111,38.5500882 C46.4479889,38.6246471 46.4783222,38.7049412 46.5187667,38.7751985 C46.4841,39.0418897 46.4321,39.3315221 46.3093222,39.6598676 C46.1562111,40.1086544 46.0146556,40.5316324 45.8991,40.9216324 C45.7994333,41.2514118 45.7272111,41.5496471 45.6824333,41.8292426 C45.6318778,42.1016691 45.5842111,42.3769632 45.5466556,42.6450882 C45.5091,42.9175147 45.4831,43.2143162 45.4773222,43.5240221 C45.4701,43.6688382 45.4628778,43.8294265 45.4599889,43.99575 C45.4571,43.9986176 45.4513222,44.0072206 45.4513222,44.0115221 C45.4484333,43.9986176 45.4412111,43.99575 45.4339889,43.9914485 C45.3733222,43.0852721 45.1942111,42.2565221 44.8822111,41.5037647 C44.5182111,40.6276985 44.0285444,39.876375 43.4291,39.2483603 C43.4724333,38.6533235 43.6241,37.9966324 43.8812111,37.2897574 L43.8812111,37.2897574 Z M44.9688778,43.4996471 C44.9529889,43.4853088 44.9414333,43.4709706 44.9226556,43.4580662 C44.6424333,43.1497941 44.3766556,42.7884706 44.1325444,42.3812647 C43.8913222,41.9740588 43.6963222,41.5238382 43.5605444,41.0248676 C43.5201,40.8814853 43.5085444,40.7223309 43.4767667,40.5746471 C43.9129889,40.9546103 44.2769889,41.4464118 44.5731,42.0629559 C44.7652111,42.4701618 44.8894333,42.9547941 44.9688778,43.4996471 L44.9688778,43.4996471 Z M39.5955444,37.0115956 C39.9682111,36.805125 40.3943222,36.6172941 40.8767667,36.4395 C41.3621,36.2631397 41.8589889,36.1656397 42.3789889,36.1269265 C42.6953222,36.1111544 43.0217667,36.1398309 43.3482111,36.1885809 L41.6091,37.9091691 C41.4559889,37.8331765 41.3014333,37.7500147 41.1295444,37.6869265 C40.5214333,37.4331397 39.8786556,37.2768529 39.2156556,37.2108971 L39.5955444,37.0115956 Z M40.2672111,39.4218529 C40.7337667,39.4218529 41.2552111,39.5064485 41.8127667,39.6598676 C41.8878778,39.6770735 41.9702111,39.7129191 42.0511,39.7387279 C42.2172111,39.9523676 42.3833222,40.1961176 42.5378778,40.5072574 C42.7473222,40.9359706 42.9452111,41.3331397 43.1416556,41.6901618 C43.3121,41.9941324 43.4724333,42.2579559 43.6356556,42.4859338 C43.7902111,42.7110441 43.9534333,42.9361544 44.1209889,43.1583971 C44.2928778,43.3806397 44.4777667,43.6000147 44.6915444,43.8351618 C44.7955444,43.9426985 44.9111,44.0531029 45.0252111,44.1778456 L45.0252111,44.1936176 L45.0049889,44.1936176 C44.3131,43.5871103 43.5966556,43.1268529 42.8368778,42.8157132 C41.9528778,42.4543897 41.0717667,42.2622574 40.2036556,42.2450515 C39.8093222,41.7948309 39.4511,41.2227353 39.1289889,40.5373676 C39.0047667,40.2764118 38.8906556,39.9896471 38.7852111,39.6828088 C39.2156556,39.5150515 39.7067667,39.4218529 40.2672111,39.4218529 L40.2672111,39.4218529 Z M44.3217667,44.1692426 L44.2625444,44.1692426 C43.8349889,44.1491691 43.3929889,44.0817794 42.9365444,43.9599044 C42.4757667,43.8451985 42.0149889,43.6631029 41.5643222,43.4050147 C41.4242111,43.3318897 41.2898778,43.2415588 41.1526556,43.1440588 C41.7391,43.1024779 42.3631,43.1971103 43.0102111,43.4322574 C43.4464333,43.581375 43.8812111,43.8351618 44.3217667,44.1692426 L44.3217667,44.1692426 Z M35.7721,43.7548676 L35.8963222,43.3490956 C36.0133222,42.9361544 36.1823222,42.5074412 36.3975444,42.04575 C36.6171,41.5926618 36.8958778,41.1610809 37.2439889,40.7667794 C37.4476556,40.5345 37.6989889,40.3251618 37.9662111,40.1387647 L37.9662111,42.5662279 C37.7957667,42.6178456 37.6339889,42.6795 37.4635444,42.7397206 C36.8525444,42.9992426 36.2877667,43.3347574 35.7721,43.7548676 L35.7721,43.7548676 Z M38.4775444,48.9008603 C38.2291,49.5102353 38.0702111,50.1425515 38.0023222,50.8035441 L37.8015444,50.4293162 C37.5921,50.0565221 37.3999889,49.6278088 37.2252111,49.1546471 C37.0547667,48.67575 36.9449889,48.1753456 36.9132111,47.6620368 C36.8958778,47.3437279 36.9218778,47.0282868 36.9782111,46.7114118 L38.7043222,48.4219632 C38.6248778,48.5811176 38.5439889,48.7402721 38.4775444,48.9008603 L38.4775444,48.9008603 Z M38.0817667,46.1708603 C37.8087667,46.0733603 37.5198778,45.9500515 37.2252111,45.8095368 C37.4115444,45.3894265 37.6975444,44.9807868 38.0976556,44.5893529 C38.4284333,44.2595735 38.8444333,43.9498676 39.3557667,43.6631029 C39.4279889,43.6258235 39.5031,43.5871103 39.5811,43.5598676 C39.8541,43.5842426 40.1429889,43.6415956 40.4665444,43.7563015 C40.9229889,43.9197574 41.3447667,44.0531029 41.7391,44.1692426 C42.0771,44.2667426 42.3789889,44.3384338 42.6534333,44.3871838 C42.9264333,44.4359338 43.2052111,44.4818162 43.4767667,44.5233971 C43.7541,44.5621103 44.0531,44.5864853 44.3665444,44.5950882 C44.5124333,44.6036912 44.6727667,44.6036912 44.8446556,44.6065588 C44.8446556,44.6094265 44.8504333,44.6137279 44.8533222,44.6208971 C44.8504333,44.6223309 44.8446556,44.6280662 44.8388778,44.6309338 C43.9231,44.6897206 43.0867667,44.8675147 42.3313222,45.1829559 C41.4415444,45.5442794 40.6918778,46.0274779 40.0563222,46.62825 C39.4583222,46.5751985 38.8025444,46.4260809 38.0817667,46.1708603 L38.0817667,46.1708603 Z M44.3405444,45.0997941 C44.3275444,45.1141324 44.3131,45.1241691 44.3001,45.1342059 C43.9895444,45.4238382 43.6241,45.6847941 43.2167667,45.9228088 C42.8079889,46.1636912 42.3443222,46.3572574 41.8474333,46.4934706 C41.7015444,46.5350515 41.5455444,46.5508235 41.3881,46.5723309 C41.7737667,46.14075 42.2692111,45.7765588 42.8888778,45.4897941 C43.3019889,45.2962279 43.7902111,45.1714853 44.3405444,45.0997941 L44.3405444,45.0997941 Z M40.2368778,49.7654559 C40.2368778,49.2937279 40.3177667,48.7818529 40.4665444,48.2240956 C40.4968778,48.1452353 40.5228778,48.0678088 40.5503222,47.9918162 C40.7641,47.8240588 41.0053222,47.6620368 41.3231,47.5129191 C41.7549889,47.2992794 42.1522111,47.1028456 42.5104333,46.9064118 C42.8224333,46.7372206 43.0911,46.5823676 43.3164333,46.4160441 C43.5518778,46.2669265 43.7772111,46.0977353 43.9924333,45.9314118 C44.2192111,45.7679559 44.4416556,45.5758235 44.6771,45.3679191 C44.7811,45.26325 44.8923222,45.1557132 45.0179889,45.0352721 L45.0338778,45.0352721 L45.0338778,45.06825 C44.4272111,45.7521838 43.9606556,46.4590588 43.6529889,47.2089485 C43.2889889,48.0878824 43.0983222,48.9567794 43.0737667,49.8285441 C42.6173222,50.2099412 42.0482111,50.5626618 41.3592111,50.8910074 C41.0905444,51.01575 40.7987667,51.1247206 40.4968778,51.2293897 C40.3249889,50.8035441 40.2368778,50.3189118 40.2368778,49.7654559 L40.2368778,49.7654559 Z M45.0179889,45.7364118 L45.0179889,45.7923309 C44.9948778,46.2167426 44.9226556,46.6569265 44.8099889,47.1100147 C44.6915444,47.5702721 44.5008778,48.0262279 44.2495444,48.4750147 C44.1672111,48.6083603 44.0776556,48.7460074 43.9837667,48.8750515 C43.9375444,48.2972206 44.0314333,47.6806765 44.2654333,47.0368897 C44.4257667,46.6067426 44.6785444,46.1708603 45.0179889,45.7364118 L45.0179889,45.7364118 Z M44.1903222,54.0956029 C43.7772111,53.9765956 43.3424333,53.8088382 42.8715444,53.5966324 C42.4122111,53.3844265 41.9832111,53.1033971 41.5961,52.7635809 C41.3548778,52.5528088 41.1439889,52.307625 40.9591,52.0423676 L43.4002111,52.0423676 C43.4551,52.2072574 43.5085444,52.3735809 43.5764333,52.5399044 C43.8349889,53.1421103 44.1729889,53.7056029 44.5947667,54.2146103 L44.1903222,54.0956029 Z M47.0329889,51.9305294 C46.9347667,52.1972206 46.8091,52.4868529 46.6661,52.7793529 C46.2428778,52.5943897 45.8312111,52.3090588 45.4412111,51.9219265 C45.0988778,51.5849779 44.7955444,51.1677353 44.5109889,50.6673309 C44.4676556,50.5927721 44.4344333,50.5167794 44.3997667,50.4393529 C44.4272111,50.1755294 44.4893222,49.8844632 44.6019889,49.5589853 C44.7551,49.1116324 44.8981,48.6943897 45.0179889,48.2972206 C45.1118778,47.9660074 45.1884333,47.6677721 45.2332111,47.3881765 C45.2779889,47.11575 45.3285444,46.8447574 45.3704333,46.5723309 C45.4036556,46.2970368 45.4296556,46.0059706 45.4455444,45.6948309 C45.4484333,45.5442794 45.4484333,45.3894265 45.4513222,45.2173676 C45.4571,45.2145 45.4571,45.2087647 45.4599889,45.2073309 C45.4701,45.2145 45.4787667,45.2202353 45.4845444,45.2274044 C45.5423222,46.1335809 45.7199889,46.9623309 46.0377667,47.7093529 C46.4003222,48.5882868 46.8856556,49.3453456 47.4865444,49.9704926 C47.4374333,50.5626618 47.2872111,51.2207868 47.0329889,51.9305294 L47.0329889,51.9305294 Z M45.9482111,45.7192059 C45.9641,45.7335441 45.9742111,45.7464485 45.9886556,45.7579191 C46.2761,46.0704926 46.5375444,46.4289485 46.7816556,46.8347206 C47.0228778,47.2433603 47.2236556,47.6964485 47.3522111,48.1968529 C47.3941,48.3330662 47.4099889,48.4950882 47.4374333,48.6499412 C46.9983222,48.2656765 46.6343222,47.7753088 46.3396556,47.1587647 C46.1461,46.750125 46.0262111,46.2669265 45.9482111,45.7192059 L45.9482111,45.7192059 Z M51.3229889,52.2072574 C50.9445444,52.4151618 50.5126556,52.6072941 50.0359889,52.7793529 C49.5593222,52.9485441 49.0566556,53.0503456 48.5279889,53.0904926 C48.2159889,53.1148676 47.8909889,53.0790221 47.5732111,53.0274044 L49.3036556,51.30825 C49.4582111,51.3914118 49.6127667,51.4659706 49.7774333,51.5333603 C50.3913222,51.7842794 51.0355444,51.9448676 51.6999889,52.0108235 L51.3229889,52.2072574 Z M50.6498778,49.7926985 C50.1818778,49.7926985 49.6647667,49.7095368 49.0985444,49.5589853 C49.0147667,49.5331765 48.9425444,49.5059338 48.8602111,49.4786912 C48.6955444,49.2693529 48.5265444,49.0213015 48.3792111,48.7029926 C48.1697667,48.2814485 47.9704333,47.8885809 47.7711,47.5272574 C47.6064333,47.2204191 47.4432111,46.9594632 47.2843222,46.7343529 C47.1225444,46.5035074 46.9607667,46.2798309 46.7946556,46.0604559 C46.6299889,45.8367794 46.4321,45.6102353 46.2139889,45.3865588 C46.1201,45.2761544 46.0031,45.1600147 45.8889889,45.043875 L45.8889889,45.0223676 C45.8991,45.0223676 45.9063222,45.0223676 45.9164333,45.0238015 C46.5996556,45.628875 47.3218778,46.0876985 48.0758778,46.3988382 C48.9584333,46.7615956 49.8453222,46.9522941 50.7148778,46.9723676 C51.1019889,47.4311912 51.4558778,47.9946838 51.7837667,48.6814853 C51.9051,48.9453088 52.0206556,49.2306397 52.1261,49.5331765 C51.6999889,49.7023676 51.2146556,49.7926985 50.6498778,49.7926985 L50.6498778,49.7926985 Z M46.5953222,45.0510441 L46.6487667,45.0510441 C47.0763222,45.06825 47.5139889,45.1342059 47.9776556,45.2503456 C48.4413222,45.3707868 48.9006556,45.5600515 49.3498778,45.8095368 C49.4899889,45.8855294 49.6199889,45.9801618 49.7572111,46.0704926 C49.1722111,46.1135074 48.5525444,46.0246103 47.8967667,45.7865956 C47.4692111,45.6360441 47.0358778,45.3808235 46.5953222,45.0510441 L46.5953222,45.0510441 Z M51.5555444,45.5543162 C51.4818778,45.5958971 51.4082111,45.628875 51.3273222,45.6618529 C51.0615444,45.6317426 50.7726556,45.5715221 50.4433222,45.4568162 C49.9926556,45.3005294 49.5679889,45.16575 49.1751,45.0510441 C48.8356556,44.9506765 48.5279889,44.8832868 48.2607667,44.8230662 C47.9848778,44.7800515 47.7104333,44.7327353 47.4374333,44.6968897 C47.1601,44.6567426 46.8654333,44.6309338 46.5447667,44.6280662 C46.4003222,44.6223309 46.2399889,44.6137279 46.0695444,44.6137279 C46.0608778,44.6094265 46.0608778,44.6094265 46.0579889,44.6036912 C46.0608778,44.5950882 46.0666556,44.5893529 46.0724333,44.5821838 C46.9882111,44.5248309 47.8274333,44.3484706 48.5843222,44.0358971 C49.4726556,43.6731397 50.2179889,43.1928088 50.8593222,42.5934706 C51.4558778,42.6422206 52.1145444,42.7884706 52.8266556,43.045125 C53.1025444,43.1440588 53.3928778,43.2688015 53.6832111,43.4093162 C53.4968778,43.8265588 53.2181,44.2380662 52.8165444,44.6280662 C52.4872111,44.9564118 52.0712111,45.2732868 51.5555444,45.5543162 L51.5555444,45.5543162 Z M55.0193222,45.8683235 C54.8965444,46.2755294 54.7275444,46.7114118 54.5152111,47.1688015 C54.2971,47.6304926 54.0183222,48.0506029 53.6702111,48.4477721 C53.4636556,48.6843529 53.2181,48.8850882 52.9552111,49.0729191 L52.9552111,46.6511912 C53.1126556,46.5981397 53.2831,46.5407868 53.4477667,46.4733971 C54.0602111,46.2253456 54.6264333,45.8826618 55.1392111,45.4682868 L55.0193222,45.8683235 Z"/>
  </g>
</svg>
